%TF.GenerationSoftware,KiCad,Pcbnew,9.0.0*%
%TF.CreationDate,2025-04-24T13:44:51+03:00*%
%TF.ProjectId,ESP32_BOARD,45535033-325f-4424-9f41-52442e6b6963,1.0*%
%TF.SameCoordinates,Original*%
%TF.FileFunction,Drillmap*%
%TF.FilePolarity,Positive*%
%FSLAX45Y45*%
G04 Gerber Fmt 4.5, Leading zero omitted, Abs format (unit mm)*
G04 Created by KiCad (PCBNEW 9.0.0) date 2025-04-24 13:44:51*
%MOMM*%
%LPD*%
G01*
G04 APERTURE LIST*
%ADD10C,0.050000*%
%ADD11C,0.200000*%
%ADD12C,0.100000*%
G04 APERTURE END LIST*
D10*
X7740000Y-9120000D02*
X11340000Y-9120000D01*
X11340000Y-15420000D01*
X7740000Y-15420000D01*
X7740000Y-9120000D01*
D11*
D12*
X8786500Y-14879500D02*
X8851500Y-14944500D01*
X8851500Y-14879500D02*
X8786500Y-14944500D01*
X9364500Y-14879500D02*
X9429500Y-14944500D01*
X9429500Y-14879500D02*
X9364500Y-14944500D01*
X11235158Y-13611707D02*
G75*
G02*
X11164038Y-13611707I-35560J0D01*
G01*
X11164038Y-13611707D02*
G75*
G02*
X11235158Y-13611707I35560J0D01*
G01*
X11235158Y-13781707D02*
G75*
G02*
X11164038Y-13781707I-35560J0D01*
G01*
X11164038Y-13781707D02*
G75*
G02*
X11235158Y-13781707I35560J0D01*
G01*
X11199598Y-13433567D02*
X11199598Y-13514847D01*
X11158958Y-13474207D02*
X11240238Y-13474207D01*
X11199598Y-13878567D02*
X11199598Y-13959847D01*
X11158958Y-13919207D02*
X11240238Y-13919207D01*
D11*
X7998277Y-15733984D02*
X7998277Y-15533984D01*
X7998277Y-15533984D02*
X8045896Y-15533984D01*
X8045896Y-15533984D02*
X8074467Y-15543508D01*
X8074467Y-15543508D02*
X8093515Y-15562555D01*
X8093515Y-15562555D02*
X8103039Y-15581603D01*
X8103039Y-15581603D02*
X8112562Y-15619698D01*
X8112562Y-15619698D02*
X8112562Y-15648269D01*
X8112562Y-15648269D02*
X8103039Y-15686365D01*
X8103039Y-15686365D02*
X8093515Y-15705412D01*
X8093515Y-15705412D02*
X8074467Y-15724460D01*
X8074467Y-15724460D02*
X8045896Y-15733984D01*
X8045896Y-15733984D02*
X7998277Y-15733984D01*
X8198277Y-15733984D02*
X8198277Y-15600650D01*
X8198277Y-15638746D02*
X8207801Y-15619698D01*
X8207801Y-15619698D02*
X8217324Y-15610174D01*
X8217324Y-15610174D02*
X8236372Y-15600650D01*
X8236372Y-15600650D02*
X8255420Y-15600650D01*
X8322086Y-15733984D02*
X8322086Y-15600650D01*
X8322086Y-15533984D02*
X8312562Y-15543508D01*
X8312562Y-15543508D02*
X8322086Y-15553031D01*
X8322086Y-15553031D02*
X8331610Y-15543508D01*
X8331610Y-15543508D02*
X8322086Y-15533984D01*
X8322086Y-15533984D02*
X8322086Y-15553031D01*
X8445896Y-15733984D02*
X8426848Y-15724460D01*
X8426848Y-15724460D02*
X8417324Y-15705412D01*
X8417324Y-15705412D02*
X8417324Y-15533984D01*
X8550658Y-15733984D02*
X8531610Y-15724460D01*
X8531610Y-15724460D02*
X8522086Y-15705412D01*
X8522086Y-15705412D02*
X8522086Y-15533984D01*
X8779229Y-15733984D02*
X8779229Y-15533984D01*
X8779229Y-15533984D02*
X8845896Y-15676841D01*
X8845896Y-15676841D02*
X8912563Y-15533984D01*
X8912563Y-15533984D02*
X8912563Y-15733984D01*
X9093515Y-15733984D02*
X9093515Y-15629222D01*
X9093515Y-15629222D02*
X9083991Y-15610174D01*
X9083991Y-15610174D02*
X9064944Y-15600650D01*
X9064944Y-15600650D02*
X9026848Y-15600650D01*
X9026848Y-15600650D02*
X9007801Y-15610174D01*
X9093515Y-15724460D02*
X9074467Y-15733984D01*
X9074467Y-15733984D02*
X9026848Y-15733984D01*
X9026848Y-15733984D02*
X9007801Y-15724460D01*
X9007801Y-15724460D02*
X8998277Y-15705412D01*
X8998277Y-15705412D02*
X8998277Y-15686365D01*
X8998277Y-15686365D02*
X9007801Y-15667317D01*
X9007801Y-15667317D02*
X9026848Y-15657793D01*
X9026848Y-15657793D02*
X9074467Y-15657793D01*
X9074467Y-15657793D02*
X9093515Y-15648269D01*
X9188753Y-15600650D02*
X9188753Y-15800650D01*
X9188753Y-15610174D02*
X9207801Y-15600650D01*
X9207801Y-15600650D02*
X9245896Y-15600650D01*
X9245896Y-15600650D02*
X9264944Y-15610174D01*
X9264944Y-15610174D02*
X9274467Y-15619698D01*
X9274467Y-15619698D02*
X9283991Y-15638746D01*
X9283991Y-15638746D02*
X9283991Y-15695888D01*
X9283991Y-15695888D02*
X9274467Y-15714936D01*
X9274467Y-15714936D02*
X9264944Y-15724460D01*
X9264944Y-15724460D02*
X9245896Y-15733984D01*
X9245896Y-15733984D02*
X9207801Y-15733984D01*
X9207801Y-15733984D02*
X9188753Y-15724460D01*
X9369705Y-15714936D02*
X9379229Y-15724460D01*
X9379229Y-15724460D02*
X9369705Y-15733984D01*
X9369705Y-15733984D02*
X9360182Y-15724460D01*
X9360182Y-15724460D02*
X9369705Y-15714936D01*
X9369705Y-15714936D02*
X9369705Y-15733984D01*
X9369705Y-15610174D02*
X9379229Y-15619698D01*
X9379229Y-15619698D02*
X9369705Y-15629222D01*
X9369705Y-15629222D02*
X9360182Y-15619698D01*
X9360182Y-15619698D02*
X9369705Y-15610174D01*
X9369705Y-15610174D02*
X9369705Y-15629222D01*
D12*
X7672500Y-16030000D02*
X7737500Y-16095000D01*
X7737500Y-16030000D02*
X7672500Y-16095000D01*
D11*
X8036372Y-15953984D02*
X8055420Y-15953984D01*
X8055420Y-15953984D02*
X8074467Y-15963508D01*
X8074467Y-15963508D02*
X8083991Y-15973031D01*
X8083991Y-15973031D02*
X8093515Y-15992079D01*
X8093515Y-15992079D02*
X8103039Y-16030174D01*
X8103039Y-16030174D02*
X8103039Y-16077793D01*
X8103039Y-16077793D02*
X8093515Y-16115888D01*
X8093515Y-16115888D02*
X8083991Y-16134936D01*
X8083991Y-16134936D02*
X8074467Y-16144460D01*
X8074467Y-16144460D02*
X8055420Y-16153984D01*
X8055420Y-16153984D02*
X8036372Y-16153984D01*
X8036372Y-16153984D02*
X8017324Y-16144460D01*
X8017324Y-16144460D02*
X8007801Y-16134936D01*
X8007801Y-16134936D02*
X7998277Y-16115888D01*
X7998277Y-16115888D02*
X7988753Y-16077793D01*
X7988753Y-16077793D02*
X7988753Y-16030174D01*
X7988753Y-16030174D02*
X7998277Y-15992079D01*
X7998277Y-15992079D02*
X8007801Y-15973031D01*
X8007801Y-15973031D02*
X8017324Y-15963508D01*
X8017324Y-15963508D02*
X8036372Y-15953984D01*
X8188753Y-16134936D02*
X8198277Y-16144460D01*
X8198277Y-16144460D02*
X8188753Y-16153984D01*
X8188753Y-16153984D02*
X8179229Y-16144460D01*
X8179229Y-16144460D02*
X8188753Y-16134936D01*
X8188753Y-16134936D02*
X8188753Y-16153984D01*
X8369705Y-15953984D02*
X8331610Y-15953984D01*
X8331610Y-15953984D02*
X8312562Y-15963508D01*
X8312562Y-15963508D02*
X8303039Y-15973031D01*
X8303039Y-15973031D02*
X8283991Y-16001603D01*
X8283991Y-16001603D02*
X8274467Y-16039698D01*
X8274467Y-16039698D02*
X8274467Y-16115888D01*
X8274467Y-16115888D02*
X8283991Y-16134936D01*
X8283991Y-16134936D02*
X8293515Y-16144460D01*
X8293515Y-16144460D02*
X8312562Y-16153984D01*
X8312562Y-16153984D02*
X8350658Y-16153984D01*
X8350658Y-16153984D02*
X8369705Y-16144460D01*
X8369705Y-16144460D02*
X8379229Y-16134936D01*
X8379229Y-16134936D02*
X8388753Y-16115888D01*
X8388753Y-16115888D02*
X8388753Y-16068269D01*
X8388753Y-16068269D02*
X8379229Y-16049222D01*
X8379229Y-16049222D02*
X8369705Y-16039698D01*
X8369705Y-16039698D02*
X8350658Y-16030174D01*
X8350658Y-16030174D02*
X8312562Y-16030174D01*
X8312562Y-16030174D02*
X8293515Y-16039698D01*
X8293515Y-16039698D02*
X8283991Y-16049222D01*
X8283991Y-16049222D02*
X8274467Y-16068269D01*
X8569705Y-15953984D02*
X8474467Y-15953984D01*
X8474467Y-15953984D02*
X8464944Y-16049222D01*
X8464944Y-16049222D02*
X8474467Y-16039698D01*
X8474467Y-16039698D02*
X8493515Y-16030174D01*
X8493515Y-16030174D02*
X8541134Y-16030174D01*
X8541134Y-16030174D02*
X8560182Y-16039698D01*
X8560182Y-16039698D02*
X8569705Y-16049222D01*
X8569705Y-16049222D02*
X8579229Y-16068269D01*
X8579229Y-16068269D02*
X8579229Y-16115888D01*
X8579229Y-16115888D02*
X8569705Y-16134936D01*
X8569705Y-16134936D02*
X8560182Y-16144460D01*
X8560182Y-16144460D02*
X8541134Y-16153984D01*
X8541134Y-16153984D02*
X8493515Y-16153984D01*
X8493515Y-16153984D02*
X8474467Y-16144460D01*
X8474467Y-16144460D02*
X8464944Y-16134936D01*
X8703039Y-15953984D02*
X8722086Y-15953984D01*
X8722086Y-15953984D02*
X8741134Y-15963508D01*
X8741134Y-15963508D02*
X8750658Y-15973031D01*
X8750658Y-15973031D02*
X8760182Y-15992079D01*
X8760182Y-15992079D02*
X8769705Y-16030174D01*
X8769705Y-16030174D02*
X8769705Y-16077793D01*
X8769705Y-16077793D02*
X8760182Y-16115888D01*
X8760182Y-16115888D02*
X8750658Y-16134936D01*
X8750658Y-16134936D02*
X8741134Y-16144460D01*
X8741134Y-16144460D02*
X8722086Y-16153984D01*
X8722086Y-16153984D02*
X8703039Y-16153984D01*
X8703039Y-16153984D02*
X8683991Y-16144460D01*
X8683991Y-16144460D02*
X8674467Y-16134936D01*
X8674467Y-16134936D02*
X8664944Y-16115888D01*
X8664944Y-16115888D02*
X8655420Y-16077793D01*
X8655420Y-16077793D02*
X8655420Y-16030174D01*
X8655420Y-16030174D02*
X8664944Y-15992079D01*
X8664944Y-15992079D02*
X8674467Y-15973031D01*
X8674467Y-15973031D02*
X8683991Y-15963508D01*
X8683991Y-15963508D02*
X8703039Y-15953984D01*
X8855420Y-16153984D02*
X8855420Y-16020650D01*
X8855420Y-16039698D02*
X8864944Y-16030174D01*
X8864944Y-16030174D02*
X8883991Y-16020650D01*
X8883991Y-16020650D02*
X8912563Y-16020650D01*
X8912563Y-16020650D02*
X8931610Y-16030174D01*
X8931610Y-16030174D02*
X8941134Y-16049222D01*
X8941134Y-16049222D02*
X8941134Y-16153984D01*
X8941134Y-16049222D02*
X8950658Y-16030174D01*
X8950658Y-16030174D02*
X8969705Y-16020650D01*
X8969705Y-16020650D02*
X8998277Y-16020650D01*
X8998277Y-16020650D02*
X9017325Y-16030174D01*
X9017325Y-16030174D02*
X9026848Y-16049222D01*
X9026848Y-16049222D02*
X9026848Y-16153984D01*
X9122086Y-16153984D02*
X9122086Y-16020650D01*
X9122086Y-16039698D02*
X9131610Y-16030174D01*
X9131610Y-16030174D02*
X9150658Y-16020650D01*
X9150658Y-16020650D02*
X9179229Y-16020650D01*
X9179229Y-16020650D02*
X9198277Y-16030174D01*
X9198277Y-16030174D02*
X9207801Y-16049222D01*
X9207801Y-16049222D02*
X9207801Y-16153984D01*
X9207801Y-16049222D02*
X9217325Y-16030174D01*
X9217325Y-16030174D02*
X9236372Y-16020650D01*
X9236372Y-16020650D02*
X9264944Y-16020650D01*
X9264944Y-16020650D02*
X9283991Y-16030174D01*
X9283991Y-16030174D02*
X9293515Y-16049222D01*
X9293515Y-16049222D02*
X9293515Y-16153984D01*
X9683991Y-15944460D02*
X9512563Y-16201603D01*
X9941134Y-15953984D02*
X9960182Y-15953984D01*
X9960182Y-15953984D02*
X9979229Y-15963508D01*
X9979229Y-15963508D02*
X9988753Y-15973031D01*
X9988753Y-15973031D02*
X9998277Y-15992079D01*
X9998277Y-15992079D02*
X10007801Y-16030174D01*
X10007801Y-16030174D02*
X10007801Y-16077793D01*
X10007801Y-16077793D02*
X9998277Y-16115888D01*
X9998277Y-16115888D02*
X9988753Y-16134936D01*
X9988753Y-16134936D02*
X9979229Y-16144460D01*
X9979229Y-16144460D02*
X9960182Y-16153984D01*
X9960182Y-16153984D02*
X9941134Y-16153984D01*
X9941134Y-16153984D02*
X9922087Y-16144460D01*
X9922087Y-16144460D02*
X9912563Y-16134936D01*
X9912563Y-16134936D02*
X9903039Y-16115888D01*
X9903039Y-16115888D02*
X9893515Y-16077793D01*
X9893515Y-16077793D02*
X9893515Y-16030174D01*
X9893515Y-16030174D02*
X9903039Y-15992079D01*
X9903039Y-15992079D02*
X9912563Y-15973031D01*
X9912563Y-15973031D02*
X9922087Y-15963508D01*
X9922087Y-15963508D02*
X9941134Y-15953984D01*
X10093515Y-16134936D02*
X10103039Y-16144460D01*
X10103039Y-16144460D02*
X10093515Y-16153984D01*
X10093515Y-16153984D02*
X10083991Y-16144460D01*
X10083991Y-16144460D02*
X10093515Y-16134936D01*
X10093515Y-16134936D02*
X10093515Y-16153984D01*
X10226848Y-15953984D02*
X10245896Y-15953984D01*
X10245896Y-15953984D02*
X10264944Y-15963508D01*
X10264944Y-15963508D02*
X10274468Y-15973031D01*
X10274468Y-15973031D02*
X10283991Y-15992079D01*
X10283991Y-15992079D02*
X10293515Y-16030174D01*
X10293515Y-16030174D02*
X10293515Y-16077793D01*
X10293515Y-16077793D02*
X10283991Y-16115888D01*
X10283991Y-16115888D02*
X10274468Y-16134936D01*
X10274468Y-16134936D02*
X10264944Y-16144460D01*
X10264944Y-16144460D02*
X10245896Y-16153984D01*
X10245896Y-16153984D02*
X10226848Y-16153984D01*
X10226848Y-16153984D02*
X10207801Y-16144460D01*
X10207801Y-16144460D02*
X10198277Y-16134936D01*
X10198277Y-16134936D02*
X10188753Y-16115888D01*
X10188753Y-16115888D02*
X10179229Y-16077793D01*
X10179229Y-16077793D02*
X10179229Y-16030174D01*
X10179229Y-16030174D02*
X10188753Y-15992079D01*
X10188753Y-15992079D02*
X10198277Y-15973031D01*
X10198277Y-15973031D02*
X10207801Y-15963508D01*
X10207801Y-15963508D02*
X10226848Y-15953984D01*
X10369706Y-15973031D02*
X10379229Y-15963508D01*
X10379229Y-15963508D02*
X10398277Y-15953984D01*
X10398277Y-15953984D02*
X10445896Y-15953984D01*
X10445896Y-15953984D02*
X10464944Y-15963508D01*
X10464944Y-15963508D02*
X10474468Y-15973031D01*
X10474468Y-15973031D02*
X10483991Y-15992079D01*
X10483991Y-15992079D02*
X10483991Y-16011127D01*
X10483991Y-16011127D02*
X10474468Y-16039698D01*
X10474468Y-16039698D02*
X10360182Y-16153984D01*
X10360182Y-16153984D02*
X10483991Y-16153984D01*
X10664944Y-15953984D02*
X10569706Y-15953984D01*
X10569706Y-15953984D02*
X10560182Y-16049222D01*
X10560182Y-16049222D02*
X10569706Y-16039698D01*
X10569706Y-16039698D02*
X10588753Y-16030174D01*
X10588753Y-16030174D02*
X10636372Y-16030174D01*
X10636372Y-16030174D02*
X10655420Y-16039698D01*
X10655420Y-16039698D02*
X10664944Y-16049222D01*
X10664944Y-16049222D02*
X10674468Y-16068269D01*
X10674468Y-16068269D02*
X10674468Y-16115888D01*
X10674468Y-16115888D02*
X10664944Y-16134936D01*
X10664944Y-16134936D02*
X10655420Y-16144460D01*
X10655420Y-16144460D02*
X10636372Y-16153984D01*
X10636372Y-16153984D02*
X10588753Y-16153984D01*
X10588753Y-16153984D02*
X10569706Y-16144460D01*
X10569706Y-16144460D02*
X10560182Y-16134936D01*
X10845896Y-15953984D02*
X10807801Y-15953984D01*
X10807801Y-15953984D02*
X10788753Y-15963508D01*
X10788753Y-15963508D02*
X10779229Y-15973031D01*
X10779229Y-15973031D02*
X10760182Y-16001603D01*
X10760182Y-16001603D02*
X10750658Y-16039698D01*
X10750658Y-16039698D02*
X10750658Y-16115888D01*
X10750658Y-16115888D02*
X10760182Y-16134936D01*
X10760182Y-16134936D02*
X10769706Y-16144460D01*
X10769706Y-16144460D02*
X10788753Y-16153984D01*
X10788753Y-16153984D02*
X10826849Y-16153984D01*
X10826849Y-16153984D02*
X10845896Y-16144460D01*
X10845896Y-16144460D02*
X10855420Y-16134936D01*
X10855420Y-16134936D02*
X10864944Y-16115888D01*
X10864944Y-16115888D02*
X10864944Y-16068269D01*
X10864944Y-16068269D02*
X10855420Y-16049222D01*
X10855420Y-16049222D02*
X10845896Y-16039698D01*
X10845896Y-16039698D02*
X10826849Y-16030174D01*
X10826849Y-16030174D02*
X10788753Y-16030174D01*
X10788753Y-16030174D02*
X10769706Y-16039698D01*
X10769706Y-16039698D02*
X10760182Y-16049222D01*
X10760182Y-16049222D02*
X10750658Y-16068269D01*
X10941134Y-15953984D02*
X10941134Y-15992079D01*
X11017325Y-15953984D02*
X11017325Y-15992079D01*
X11312563Y-16230174D02*
X11303039Y-16220650D01*
X11303039Y-16220650D02*
X11283991Y-16192079D01*
X11283991Y-16192079D02*
X11274468Y-16173031D01*
X11274468Y-16173031D02*
X11264944Y-16144460D01*
X11264944Y-16144460D02*
X11255420Y-16096841D01*
X11255420Y-16096841D02*
X11255420Y-16058746D01*
X11255420Y-16058746D02*
X11264944Y-16011127D01*
X11264944Y-16011127D02*
X11274468Y-15982555D01*
X11274468Y-15982555D02*
X11283991Y-15963508D01*
X11283991Y-15963508D02*
X11303039Y-15934936D01*
X11303039Y-15934936D02*
X11312563Y-15925412D01*
X11379229Y-15973031D02*
X11388753Y-15963508D01*
X11388753Y-15963508D02*
X11407801Y-15953984D01*
X11407801Y-15953984D02*
X11455420Y-15953984D01*
X11455420Y-15953984D02*
X11474468Y-15963508D01*
X11474468Y-15963508D02*
X11483991Y-15973031D01*
X11483991Y-15973031D02*
X11493515Y-15992079D01*
X11493515Y-15992079D02*
X11493515Y-16011127D01*
X11493515Y-16011127D02*
X11483991Y-16039698D01*
X11483991Y-16039698D02*
X11369706Y-16153984D01*
X11369706Y-16153984D02*
X11493515Y-16153984D01*
X11731610Y-16153984D02*
X11731610Y-15953984D01*
X11817325Y-16153984D02*
X11817325Y-16049222D01*
X11817325Y-16049222D02*
X11807801Y-16030174D01*
X11807801Y-16030174D02*
X11788753Y-16020650D01*
X11788753Y-16020650D02*
X11760182Y-16020650D01*
X11760182Y-16020650D02*
X11741134Y-16030174D01*
X11741134Y-16030174D02*
X11731610Y-16039698D01*
X11941134Y-16153984D02*
X11922087Y-16144460D01*
X11922087Y-16144460D02*
X11912563Y-16134936D01*
X11912563Y-16134936D02*
X11903039Y-16115888D01*
X11903039Y-16115888D02*
X11903039Y-16058746D01*
X11903039Y-16058746D02*
X11912563Y-16039698D01*
X11912563Y-16039698D02*
X11922087Y-16030174D01*
X11922087Y-16030174D02*
X11941134Y-16020650D01*
X11941134Y-16020650D02*
X11969706Y-16020650D01*
X11969706Y-16020650D02*
X11988753Y-16030174D01*
X11988753Y-16030174D02*
X11998277Y-16039698D01*
X11998277Y-16039698D02*
X12007801Y-16058746D01*
X12007801Y-16058746D02*
X12007801Y-16115888D01*
X12007801Y-16115888D02*
X11998277Y-16134936D01*
X11998277Y-16134936D02*
X11988753Y-16144460D01*
X11988753Y-16144460D02*
X11969706Y-16153984D01*
X11969706Y-16153984D02*
X11941134Y-16153984D01*
X12122087Y-16153984D02*
X12103039Y-16144460D01*
X12103039Y-16144460D02*
X12093515Y-16125412D01*
X12093515Y-16125412D02*
X12093515Y-15953984D01*
X12274468Y-16144460D02*
X12255420Y-16153984D01*
X12255420Y-16153984D02*
X12217325Y-16153984D01*
X12217325Y-16153984D02*
X12198277Y-16144460D01*
X12198277Y-16144460D02*
X12188753Y-16125412D01*
X12188753Y-16125412D02*
X12188753Y-16049222D01*
X12188753Y-16049222D02*
X12198277Y-16030174D01*
X12198277Y-16030174D02*
X12217325Y-16020650D01*
X12217325Y-16020650D02*
X12255420Y-16020650D01*
X12255420Y-16020650D02*
X12274468Y-16030174D01*
X12274468Y-16030174D02*
X12283991Y-16049222D01*
X12283991Y-16049222D02*
X12283991Y-16068269D01*
X12283991Y-16068269D02*
X12188753Y-16087317D01*
X12360182Y-16144460D02*
X12379230Y-16153984D01*
X12379230Y-16153984D02*
X12417325Y-16153984D01*
X12417325Y-16153984D02*
X12436372Y-16144460D01*
X12436372Y-16144460D02*
X12445896Y-16125412D01*
X12445896Y-16125412D02*
X12445896Y-16115888D01*
X12445896Y-16115888D02*
X12436372Y-16096841D01*
X12436372Y-16096841D02*
X12417325Y-16087317D01*
X12417325Y-16087317D02*
X12388753Y-16087317D01*
X12388753Y-16087317D02*
X12369706Y-16077793D01*
X12369706Y-16077793D02*
X12360182Y-16058746D01*
X12360182Y-16058746D02*
X12360182Y-16049222D01*
X12360182Y-16049222D02*
X12369706Y-16030174D01*
X12369706Y-16030174D02*
X12388753Y-16020650D01*
X12388753Y-16020650D02*
X12417325Y-16020650D01*
X12417325Y-16020650D02*
X12436372Y-16030174D01*
X12512563Y-16230174D02*
X12522087Y-16220650D01*
X12522087Y-16220650D02*
X12541134Y-16192079D01*
X12541134Y-16192079D02*
X12550658Y-16173031D01*
X12550658Y-16173031D02*
X12560182Y-16144460D01*
X12560182Y-16144460D02*
X12569706Y-16096841D01*
X12569706Y-16096841D02*
X12569706Y-16058746D01*
X12569706Y-16058746D02*
X12560182Y-16011127D01*
X12560182Y-16011127D02*
X12550658Y-15982555D01*
X12550658Y-15982555D02*
X12541134Y-15963508D01*
X12541134Y-15963508D02*
X12522087Y-15934936D01*
X12522087Y-15934936D02*
X12512563Y-15925412D01*
X12874468Y-16230174D02*
X12864944Y-16220650D01*
X12864944Y-16220650D02*
X12845896Y-16192079D01*
X12845896Y-16192079D02*
X12836372Y-16173031D01*
X12836372Y-16173031D02*
X12826849Y-16144460D01*
X12826849Y-16144460D02*
X12817325Y-16096841D01*
X12817325Y-16096841D02*
X12817325Y-16058746D01*
X12817325Y-16058746D02*
X12826849Y-16011127D01*
X12826849Y-16011127D02*
X12836372Y-15982555D01*
X12836372Y-15982555D02*
X12845896Y-15963508D01*
X12845896Y-15963508D02*
X12864944Y-15934936D01*
X12864944Y-15934936D02*
X12874468Y-15925412D01*
X12950658Y-16020650D02*
X12950658Y-16153984D01*
X12950658Y-16039698D02*
X12960182Y-16030174D01*
X12960182Y-16030174D02*
X12979230Y-16020650D01*
X12979230Y-16020650D02*
X13007801Y-16020650D01*
X13007801Y-16020650D02*
X13026849Y-16030174D01*
X13026849Y-16030174D02*
X13036372Y-16049222D01*
X13036372Y-16049222D02*
X13036372Y-16153984D01*
X13160182Y-16153984D02*
X13141134Y-16144460D01*
X13141134Y-16144460D02*
X13131611Y-16134936D01*
X13131611Y-16134936D02*
X13122087Y-16115888D01*
X13122087Y-16115888D02*
X13122087Y-16058746D01*
X13122087Y-16058746D02*
X13131611Y-16039698D01*
X13131611Y-16039698D02*
X13141134Y-16030174D01*
X13141134Y-16030174D02*
X13160182Y-16020650D01*
X13160182Y-16020650D02*
X13188753Y-16020650D01*
X13188753Y-16020650D02*
X13207801Y-16030174D01*
X13207801Y-16030174D02*
X13217325Y-16039698D01*
X13217325Y-16039698D02*
X13226849Y-16058746D01*
X13226849Y-16058746D02*
X13226849Y-16115888D01*
X13226849Y-16115888D02*
X13217325Y-16134936D01*
X13217325Y-16134936D02*
X13207801Y-16144460D01*
X13207801Y-16144460D02*
X13188753Y-16153984D01*
X13188753Y-16153984D02*
X13160182Y-16153984D01*
X13283992Y-16020650D02*
X13360182Y-16020650D01*
X13312563Y-15953984D02*
X13312563Y-16125412D01*
X13312563Y-16125412D02*
X13322087Y-16144460D01*
X13322087Y-16144460D02*
X13341134Y-16153984D01*
X13341134Y-16153984D02*
X13360182Y-16153984D01*
X13579230Y-16020650D02*
X13579230Y-16220650D01*
X13579230Y-16030174D02*
X13598277Y-16020650D01*
X13598277Y-16020650D02*
X13636373Y-16020650D01*
X13636373Y-16020650D02*
X13655420Y-16030174D01*
X13655420Y-16030174D02*
X13664944Y-16039698D01*
X13664944Y-16039698D02*
X13674468Y-16058746D01*
X13674468Y-16058746D02*
X13674468Y-16115888D01*
X13674468Y-16115888D02*
X13664944Y-16134936D01*
X13664944Y-16134936D02*
X13655420Y-16144460D01*
X13655420Y-16144460D02*
X13636373Y-16153984D01*
X13636373Y-16153984D02*
X13598277Y-16153984D01*
X13598277Y-16153984D02*
X13579230Y-16144460D01*
X13788753Y-16153984D02*
X13769706Y-16144460D01*
X13769706Y-16144460D02*
X13760182Y-16125412D01*
X13760182Y-16125412D02*
X13760182Y-15953984D01*
X13950658Y-16153984D02*
X13950658Y-16049222D01*
X13950658Y-16049222D02*
X13941134Y-16030174D01*
X13941134Y-16030174D02*
X13922087Y-16020650D01*
X13922087Y-16020650D02*
X13883992Y-16020650D01*
X13883992Y-16020650D02*
X13864944Y-16030174D01*
X13950658Y-16144460D02*
X13931611Y-16153984D01*
X13931611Y-16153984D02*
X13883992Y-16153984D01*
X13883992Y-16153984D02*
X13864944Y-16144460D01*
X13864944Y-16144460D02*
X13855420Y-16125412D01*
X13855420Y-16125412D02*
X13855420Y-16106365D01*
X13855420Y-16106365D02*
X13864944Y-16087317D01*
X13864944Y-16087317D02*
X13883992Y-16077793D01*
X13883992Y-16077793D02*
X13931611Y-16077793D01*
X13931611Y-16077793D02*
X13950658Y-16068269D01*
X14017325Y-16020650D02*
X14093515Y-16020650D01*
X14045896Y-15953984D02*
X14045896Y-16125412D01*
X14045896Y-16125412D02*
X14055420Y-16144460D01*
X14055420Y-16144460D02*
X14074468Y-16153984D01*
X14074468Y-16153984D02*
X14093515Y-16153984D01*
X14236373Y-16144460D02*
X14217325Y-16153984D01*
X14217325Y-16153984D02*
X14179230Y-16153984D01*
X14179230Y-16153984D02*
X14160182Y-16144460D01*
X14160182Y-16144460D02*
X14150658Y-16125412D01*
X14150658Y-16125412D02*
X14150658Y-16049222D01*
X14150658Y-16049222D02*
X14160182Y-16030174D01*
X14160182Y-16030174D02*
X14179230Y-16020650D01*
X14179230Y-16020650D02*
X14217325Y-16020650D01*
X14217325Y-16020650D02*
X14236373Y-16030174D01*
X14236373Y-16030174D02*
X14245896Y-16049222D01*
X14245896Y-16049222D02*
X14245896Y-16068269D01*
X14245896Y-16068269D02*
X14150658Y-16087317D01*
X14417325Y-16153984D02*
X14417325Y-15953984D01*
X14417325Y-16144460D02*
X14398277Y-16153984D01*
X14398277Y-16153984D02*
X14360182Y-16153984D01*
X14360182Y-16153984D02*
X14341134Y-16144460D01*
X14341134Y-16144460D02*
X14331611Y-16134936D01*
X14331611Y-16134936D02*
X14322087Y-16115888D01*
X14322087Y-16115888D02*
X14322087Y-16058746D01*
X14322087Y-16058746D02*
X14331611Y-16039698D01*
X14331611Y-16039698D02*
X14341134Y-16030174D01*
X14341134Y-16030174D02*
X14360182Y-16020650D01*
X14360182Y-16020650D02*
X14398277Y-16020650D01*
X14398277Y-16020650D02*
X14417325Y-16030174D01*
X14493515Y-16230174D02*
X14503039Y-16220650D01*
X14503039Y-16220650D02*
X14522087Y-16192079D01*
X14522087Y-16192079D02*
X14531611Y-16173031D01*
X14531611Y-16173031D02*
X14541134Y-16144460D01*
X14541134Y-16144460D02*
X14550658Y-16096841D01*
X14550658Y-16096841D02*
X14550658Y-16058746D01*
X14550658Y-16058746D02*
X14541134Y-16011127D01*
X14541134Y-16011127D02*
X14531611Y-15982555D01*
X14531611Y-15982555D02*
X14522087Y-15963508D01*
X14522087Y-15963508D02*
X14503039Y-15934936D01*
X14503039Y-15934936D02*
X14493515Y-15925412D01*
D12*
X7737500Y-16326500D02*
G75*
G02*
X7666380Y-16326500I-35560J0D01*
G01*
X7666380Y-16326500D02*
G75*
G02*
X7737500Y-16326500I35560J0D01*
G01*
D11*
X8036372Y-16217984D02*
X8055420Y-16217984D01*
X8055420Y-16217984D02*
X8074467Y-16227508D01*
X8074467Y-16227508D02*
X8083991Y-16237031D01*
X8083991Y-16237031D02*
X8093515Y-16256079D01*
X8093515Y-16256079D02*
X8103039Y-16294174D01*
X8103039Y-16294174D02*
X8103039Y-16341793D01*
X8103039Y-16341793D02*
X8093515Y-16379888D01*
X8093515Y-16379888D02*
X8083991Y-16398936D01*
X8083991Y-16398936D02*
X8074467Y-16408460D01*
X8074467Y-16408460D02*
X8055420Y-16417984D01*
X8055420Y-16417984D02*
X8036372Y-16417984D01*
X8036372Y-16417984D02*
X8017324Y-16408460D01*
X8017324Y-16408460D02*
X8007801Y-16398936D01*
X8007801Y-16398936D02*
X7998277Y-16379888D01*
X7998277Y-16379888D02*
X7988753Y-16341793D01*
X7988753Y-16341793D02*
X7988753Y-16294174D01*
X7988753Y-16294174D02*
X7998277Y-16256079D01*
X7998277Y-16256079D02*
X8007801Y-16237031D01*
X8007801Y-16237031D02*
X8017324Y-16227508D01*
X8017324Y-16227508D02*
X8036372Y-16217984D01*
X8188753Y-16398936D02*
X8198277Y-16408460D01*
X8198277Y-16408460D02*
X8188753Y-16417984D01*
X8188753Y-16417984D02*
X8179229Y-16408460D01*
X8179229Y-16408460D02*
X8188753Y-16398936D01*
X8188753Y-16398936D02*
X8188753Y-16417984D01*
X8264943Y-16217984D02*
X8398277Y-16217984D01*
X8398277Y-16217984D02*
X8312562Y-16417984D01*
X8579229Y-16417984D02*
X8464944Y-16417984D01*
X8522086Y-16417984D02*
X8522086Y-16217984D01*
X8522086Y-16217984D02*
X8503039Y-16246555D01*
X8503039Y-16246555D02*
X8483991Y-16265603D01*
X8483991Y-16265603D02*
X8464944Y-16275127D01*
X8769705Y-16417984D02*
X8655420Y-16417984D01*
X8712563Y-16417984D02*
X8712563Y-16217984D01*
X8712563Y-16217984D02*
X8693515Y-16246555D01*
X8693515Y-16246555D02*
X8674467Y-16265603D01*
X8674467Y-16265603D02*
X8655420Y-16275127D01*
X8855420Y-16417984D02*
X8855420Y-16284650D01*
X8855420Y-16303698D02*
X8864944Y-16294174D01*
X8864944Y-16294174D02*
X8883991Y-16284650D01*
X8883991Y-16284650D02*
X8912563Y-16284650D01*
X8912563Y-16284650D02*
X8931610Y-16294174D01*
X8931610Y-16294174D02*
X8941134Y-16313222D01*
X8941134Y-16313222D02*
X8941134Y-16417984D01*
X8941134Y-16313222D02*
X8950658Y-16294174D01*
X8950658Y-16294174D02*
X8969705Y-16284650D01*
X8969705Y-16284650D02*
X8998277Y-16284650D01*
X8998277Y-16284650D02*
X9017325Y-16294174D01*
X9017325Y-16294174D02*
X9026848Y-16313222D01*
X9026848Y-16313222D02*
X9026848Y-16417984D01*
X9122086Y-16417984D02*
X9122086Y-16284650D01*
X9122086Y-16303698D02*
X9131610Y-16294174D01*
X9131610Y-16294174D02*
X9150658Y-16284650D01*
X9150658Y-16284650D02*
X9179229Y-16284650D01*
X9179229Y-16284650D02*
X9198277Y-16294174D01*
X9198277Y-16294174D02*
X9207801Y-16313222D01*
X9207801Y-16313222D02*
X9207801Y-16417984D01*
X9207801Y-16313222D02*
X9217325Y-16294174D01*
X9217325Y-16294174D02*
X9236372Y-16284650D01*
X9236372Y-16284650D02*
X9264944Y-16284650D01*
X9264944Y-16284650D02*
X9283991Y-16294174D01*
X9283991Y-16294174D02*
X9293515Y-16313222D01*
X9293515Y-16313222D02*
X9293515Y-16417984D01*
X9683991Y-16208460D02*
X9512563Y-16465603D01*
X9941134Y-16217984D02*
X9960182Y-16217984D01*
X9960182Y-16217984D02*
X9979229Y-16227508D01*
X9979229Y-16227508D02*
X9988753Y-16237031D01*
X9988753Y-16237031D02*
X9998277Y-16256079D01*
X9998277Y-16256079D02*
X10007801Y-16294174D01*
X10007801Y-16294174D02*
X10007801Y-16341793D01*
X10007801Y-16341793D02*
X9998277Y-16379888D01*
X9998277Y-16379888D02*
X9988753Y-16398936D01*
X9988753Y-16398936D02*
X9979229Y-16408460D01*
X9979229Y-16408460D02*
X9960182Y-16417984D01*
X9960182Y-16417984D02*
X9941134Y-16417984D01*
X9941134Y-16417984D02*
X9922087Y-16408460D01*
X9922087Y-16408460D02*
X9912563Y-16398936D01*
X9912563Y-16398936D02*
X9903039Y-16379888D01*
X9903039Y-16379888D02*
X9893515Y-16341793D01*
X9893515Y-16341793D02*
X9893515Y-16294174D01*
X9893515Y-16294174D02*
X9903039Y-16256079D01*
X9903039Y-16256079D02*
X9912563Y-16237031D01*
X9912563Y-16237031D02*
X9922087Y-16227508D01*
X9922087Y-16227508D02*
X9941134Y-16217984D01*
X10093515Y-16398936D02*
X10103039Y-16408460D01*
X10103039Y-16408460D02*
X10093515Y-16417984D01*
X10093515Y-16417984D02*
X10083991Y-16408460D01*
X10083991Y-16408460D02*
X10093515Y-16398936D01*
X10093515Y-16398936D02*
X10093515Y-16417984D01*
X10226848Y-16217984D02*
X10245896Y-16217984D01*
X10245896Y-16217984D02*
X10264944Y-16227508D01*
X10264944Y-16227508D02*
X10274468Y-16237031D01*
X10274468Y-16237031D02*
X10283991Y-16256079D01*
X10283991Y-16256079D02*
X10293515Y-16294174D01*
X10293515Y-16294174D02*
X10293515Y-16341793D01*
X10293515Y-16341793D02*
X10283991Y-16379888D01*
X10283991Y-16379888D02*
X10274468Y-16398936D01*
X10274468Y-16398936D02*
X10264944Y-16408460D01*
X10264944Y-16408460D02*
X10245896Y-16417984D01*
X10245896Y-16417984D02*
X10226848Y-16417984D01*
X10226848Y-16417984D02*
X10207801Y-16408460D01*
X10207801Y-16408460D02*
X10198277Y-16398936D01*
X10198277Y-16398936D02*
X10188753Y-16379888D01*
X10188753Y-16379888D02*
X10179229Y-16341793D01*
X10179229Y-16341793D02*
X10179229Y-16294174D01*
X10179229Y-16294174D02*
X10188753Y-16256079D01*
X10188753Y-16256079D02*
X10198277Y-16237031D01*
X10198277Y-16237031D02*
X10207801Y-16227508D01*
X10207801Y-16227508D02*
X10226848Y-16217984D01*
X10369706Y-16237031D02*
X10379229Y-16227508D01*
X10379229Y-16227508D02*
X10398277Y-16217984D01*
X10398277Y-16217984D02*
X10445896Y-16217984D01*
X10445896Y-16217984D02*
X10464944Y-16227508D01*
X10464944Y-16227508D02*
X10474468Y-16237031D01*
X10474468Y-16237031D02*
X10483991Y-16256079D01*
X10483991Y-16256079D02*
X10483991Y-16275127D01*
X10483991Y-16275127D02*
X10474468Y-16303698D01*
X10474468Y-16303698D02*
X10360182Y-16417984D01*
X10360182Y-16417984D02*
X10483991Y-16417984D01*
X10598277Y-16303698D02*
X10579229Y-16294174D01*
X10579229Y-16294174D02*
X10569706Y-16284650D01*
X10569706Y-16284650D02*
X10560182Y-16265603D01*
X10560182Y-16265603D02*
X10560182Y-16256079D01*
X10560182Y-16256079D02*
X10569706Y-16237031D01*
X10569706Y-16237031D02*
X10579229Y-16227508D01*
X10579229Y-16227508D02*
X10598277Y-16217984D01*
X10598277Y-16217984D02*
X10636372Y-16217984D01*
X10636372Y-16217984D02*
X10655420Y-16227508D01*
X10655420Y-16227508D02*
X10664944Y-16237031D01*
X10664944Y-16237031D02*
X10674468Y-16256079D01*
X10674468Y-16256079D02*
X10674468Y-16265603D01*
X10674468Y-16265603D02*
X10664944Y-16284650D01*
X10664944Y-16284650D02*
X10655420Y-16294174D01*
X10655420Y-16294174D02*
X10636372Y-16303698D01*
X10636372Y-16303698D02*
X10598277Y-16303698D01*
X10598277Y-16303698D02*
X10579229Y-16313222D01*
X10579229Y-16313222D02*
X10569706Y-16322746D01*
X10569706Y-16322746D02*
X10560182Y-16341793D01*
X10560182Y-16341793D02*
X10560182Y-16379888D01*
X10560182Y-16379888D02*
X10569706Y-16398936D01*
X10569706Y-16398936D02*
X10579229Y-16408460D01*
X10579229Y-16408460D02*
X10598277Y-16417984D01*
X10598277Y-16417984D02*
X10636372Y-16417984D01*
X10636372Y-16417984D02*
X10655420Y-16408460D01*
X10655420Y-16408460D02*
X10664944Y-16398936D01*
X10664944Y-16398936D02*
X10674468Y-16379888D01*
X10674468Y-16379888D02*
X10674468Y-16341793D01*
X10674468Y-16341793D02*
X10664944Y-16322746D01*
X10664944Y-16322746D02*
X10655420Y-16313222D01*
X10655420Y-16313222D02*
X10636372Y-16303698D01*
X10798277Y-16217984D02*
X10817325Y-16217984D01*
X10817325Y-16217984D02*
X10836372Y-16227508D01*
X10836372Y-16227508D02*
X10845896Y-16237031D01*
X10845896Y-16237031D02*
X10855420Y-16256079D01*
X10855420Y-16256079D02*
X10864944Y-16294174D01*
X10864944Y-16294174D02*
X10864944Y-16341793D01*
X10864944Y-16341793D02*
X10855420Y-16379888D01*
X10855420Y-16379888D02*
X10845896Y-16398936D01*
X10845896Y-16398936D02*
X10836372Y-16408460D01*
X10836372Y-16408460D02*
X10817325Y-16417984D01*
X10817325Y-16417984D02*
X10798277Y-16417984D01*
X10798277Y-16417984D02*
X10779229Y-16408460D01*
X10779229Y-16408460D02*
X10769706Y-16398936D01*
X10769706Y-16398936D02*
X10760182Y-16379888D01*
X10760182Y-16379888D02*
X10750658Y-16341793D01*
X10750658Y-16341793D02*
X10750658Y-16294174D01*
X10750658Y-16294174D02*
X10760182Y-16256079D01*
X10760182Y-16256079D02*
X10769706Y-16237031D01*
X10769706Y-16237031D02*
X10779229Y-16227508D01*
X10779229Y-16227508D02*
X10798277Y-16217984D01*
X10941134Y-16217984D02*
X10941134Y-16256079D01*
X11017325Y-16217984D02*
X11017325Y-16256079D01*
X11312563Y-16494174D02*
X11303039Y-16484650D01*
X11303039Y-16484650D02*
X11283991Y-16456079D01*
X11283991Y-16456079D02*
X11274468Y-16437031D01*
X11274468Y-16437031D02*
X11264944Y-16408460D01*
X11264944Y-16408460D02*
X11255420Y-16360841D01*
X11255420Y-16360841D02*
X11255420Y-16322746D01*
X11255420Y-16322746D02*
X11264944Y-16275127D01*
X11264944Y-16275127D02*
X11274468Y-16246555D01*
X11274468Y-16246555D02*
X11283991Y-16227508D01*
X11283991Y-16227508D02*
X11303039Y-16198936D01*
X11303039Y-16198936D02*
X11312563Y-16189412D01*
X11379229Y-16237031D02*
X11388753Y-16227508D01*
X11388753Y-16227508D02*
X11407801Y-16217984D01*
X11407801Y-16217984D02*
X11455420Y-16217984D01*
X11455420Y-16217984D02*
X11474468Y-16227508D01*
X11474468Y-16227508D02*
X11483991Y-16237031D01*
X11483991Y-16237031D02*
X11493515Y-16256079D01*
X11493515Y-16256079D02*
X11493515Y-16275127D01*
X11493515Y-16275127D02*
X11483991Y-16303698D01*
X11483991Y-16303698D02*
X11369706Y-16417984D01*
X11369706Y-16417984D02*
X11493515Y-16417984D01*
X11731610Y-16417984D02*
X11731610Y-16217984D01*
X11817325Y-16417984D02*
X11817325Y-16313222D01*
X11817325Y-16313222D02*
X11807801Y-16294174D01*
X11807801Y-16294174D02*
X11788753Y-16284650D01*
X11788753Y-16284650D02*
X11760182Y-16284650D01*
X11760182Y-16284650D02*
X11741134Y-16294174D01*
X11741134Y-16294174D02*
X11731610Y-16303698D01*
X11941134Y-16417984D02*
X11922087Y-16408460D01*
X11922087Y-16408460D02*
X11912563Y-16398936D01*
X11912563Y-16398936D02*
X11903039Y-16379888D01*
X11903039Y-16379888D02*
X11903039Y-16322746D01*
X11903039Y-16322746D02*
X11912563Y-16303698D01*
X11912563Y-16303698D02*
X11922087Y-16294174D01*
X11922087Y-16294174D02*
X11941134Y-16284650D01*
X11941134Y-16284650D02*
X11969706Y-16284650D01*
X11969706Y-16284650D02*
X11988753Y-16294174D01*
X11988753Y-16294174D02*
X11998277Y-16303698D01*
X11998277Y-16303698D02*
X12007801Y-16322746D01*
X12007801Y-16322746D02*
X12007801Y-16379888D01*
X12007801Y-16379888D02*
X11998277Y-16398936D01*
X11998277Y-16398936D02*
X11988753Y-16408460D01*
X11988753Y-16408460D02*
X11969706Y-16417984D01*
X11969706Y-16417984D02*
X11941134Y-16417984D01*
X12122087Y-16417984D02*
X12103039Y-16408460D01*
X12103039Y-16408460D02*
X12093515Y-16389412D01*
X12093515Y-16389412D02*
X12093515Y-16217984D01*
X12274468Y-16408460D02*
X12255420Y-16417984D01*
X12255420Y-16417984D02*
X12217325Y-16417984D01*
X12217325Y-16417984D02*
X12198277Y-16408460D01*
X12198277Y-16408460D02*
X12188753Y-16389412D01*
X12188753Y-16389412D02*
X12188753Y-16313222D01*
X12188753Y-16313222D02*
X12198277Y-16294174D01*
X12198277Y-16294174D02*
X12217325Y-16284650D01*
X12217325Y-16284650D02*
X12255420Y-16284650D01*
X12255420Y-16284650D02*
X12274468Y-16294174D01*
X12274468Y-16294174D02*
X12283991Y-16313222D01*
X12283991Y-16313222D02*
X12283991Y-16332269D01*
X12283991Y-16332269D02*
X12188753Y-16351317D01*
X12360182Y-16408460D02*
X12379230Y-16417984D01*
X12379230Y-16417984D02*
X12417325Y-16417984D01*
X12417325Y-16417984D02*
X12436372Y-16408460D01*
X12436372Y-16408460D02*
X12445896Y-16389412D01*
X12445896Y-16389412D02*
X12445896Y-16379888D01*
X12445896Y-16379888D02*
X12436372Y-16360841D01*
X12436372Y-16360841D02*
X12417325Y-16351317D01*
X12417325Y-16351317D02*
X12388753Y-16351317D01*
X12388753Y-16351317D02*
X12369706Y-16341793D01*
X12369706Y-16341793D02*
X12360182Y-16322746D01*
X12360182Y-16322746D02*
X12360182Y-16313222D01*
X12360182Y-16313222D02*
X12369706Y-16294174D01*
X12369706Y-16294174D02*
X12388753Y-16284650D01*
X12388753Y-16284650D02*
X12417325Y-16284650D01*
X12417325Y-16284650D02*
X12436372Y-16294174D01*
X12512563Y-16494174D02*
X12522087Y-16484650D01*
X12522087Y-16484650D02*
X12541134Y-16456079D01*
X12541134Y-16456079D02*
X12550658Y-16437031D01*
X12550658Y-16437031D02*
X12560182Y-16408460D01*
X12560182Y-16408460D02*
X12569706Y-16360841D01*
X12569706Y-16360841D02*
X12569706Y-16322746D01*
X12569706Y-16322746D02*
X12560182Y-16275127D01*
X12560182Y-16275127D02*
X12550658Y-16246555D01*
X12550658Y-16246555D02*
X12541134Y-16227508D01*
X12541134Y-16227508D02*
X12522087Y-16198936D01*
X12522087Y-16198936D02*
X12512563Y-16189412D01*
X12874468Y-16494174D02*
X12864944Y-16484650D01*
X12864944Y-16484650D02*
X12845896Y-16456079D01*
X12845896Y-16456079D02*
X12836372Y-16437031D01*
X12836372Y-16437031D02*
X12826849Y-16408460D01*
X12826849Y-16408460D02*
X12817325Y-16360841D01*
X12817325Y-16360841D02*
X12817325Y-16322746D01*
X12817325Y-16322746D02*
X12826849Y-16275127D01*
X12826849Y-16275127D02*
X12836372Y-16246555D01*
X12836372Y-16246555D02*
X12845896Y-16227508D01*
X12845896Y-16227508D02*
X12864944Y-16198936D01*
X12864944Y-16198936D02*
X12874468Y-16189412D01*
X12950658Y-16284650D02*
X12950658Y-16417984D01*
X12950658Y-16303698D02*
X12960182Y-16294174D01*
X12960182Y-16294174D02*
X12979230Y-16284650D01*
X12979230Y-16284650D02*
X13007801Y-16284650D01*
X13007801Y-16284650D02*
X13026849Y-16294174D01*
X13026849Y-16294174D02*
X13036372Y-16313222D01*
X13036372Y-16313222D02*
X13036372Y-16417984D01*
X13160182Y-16417984D02*
X13141134Y-16408460D01*
X13141134Y-16408460D02*
X13131611Y-16398936D01*
X13131611Y-16398936D02*
X13122087Y-16379888D01*
X13122087Y-16379888D02*
X13122087Y-16322746D01*
X13122087Y-16322746D02*
X13131611Y-16303698D01*
X13131611Y-16303698D02*
X13141134Y-16294174D01*
X13141134Y-16294174D02*
X13160182Y-16284650D01*
X13160182Y-16284650D02*
X13188753Y-16284650D01*
X13188753Y-16284650D02*
X13207801Y-16294174D01*
X13207801Y-16294174D02*
X13217325Y-16303698D01*
X13217325Y-16303698D02*
X13226849Y-16322746D01*
X13226849Y-16322746D02*
X13226849Y-16379888D01*
X13226849Y-16379888D02*
X13217325Y-16398936D01*
X13217325Y-16398936D02*
X13207801Y-16408460D01*
X13207801Y-16408460D02*
X13188753Y-16417984D01*
X13188753Y-16417984D02*
X13160182Y-16417984D01*
X13283992Y-16284650D02*
X13360182Y-16284650D01*
X13312563Y-16217984D02*
X13312563Y-16389412D01*
X13312563Y-16389412D02*
X13322087Y-16408460D01*
X13322087Y-16408460D02*
X13341134Y-16417984D01*
X13341134Y-16417984D02*
X13360182Y-16417984D01*
X13579230Y-16284650D02*
X13579230Y-16484650D01*
X13579230Y-16294174D02*
X13598277Y-16284650D01*
X13598277Y-16284650D02*
X13636373Y-16284650D01*
X13636373Y-16284650D02*
X13655420Y-16294174D01*
X13655420Y-16294174D02*
X13664944Y-16303698D01*
X13664944Y-16303698D02*
X13674468Y-16322746D01*
X13674468Y-16322746D02*
X13674468Y-16379888D01*
X13674468Y-16379888D02*
X13664944Y-16398936D01*
X13664944Y-16398936D02*
X13655420Y-16408460D01*
X13655420Y-16408460D02*
X13636373Y-16417984D01*
X13636373Y-16417984D02*
X13598277Y-16417984D01*
X13598277Y-16417984D02*
X13579230Y-16408460D01*
X13788753Y-16417984D02*
X13769706Y-16408460D01*
X13769706Y-16408460D02*
X13760182Y-16389412D01*
X13760182Y-16389412D02*
X13760182Y-16217984D01*
X13950658Y-16417984D02*
X13950658Y-16313222D01*
X13950658Y-16313222D02*
X13941134Y-16294174D01*
X13941134Y-16294174D02*
X13922087Y-16284650D01*
X13922087Y-16284650D02*
X13883992Y-16284650D01*
X13883992Y-16284650D02*
X13864944Y-16294174D01*
X13950658Y-16408460D02*
X13931611Y-16417984D01*
X13931611Y-16417984D02*
X13883992Y-16417984D01*
X13883992Y-16417984D02*
X13864944Y-16408460D01*
X13864944Y-16408460D02*
X13855420Y-16389412D01*
X13855420Y-16389412D02*
X13855420Y-16370365D01*
X13855420Y-16370365D02*
X13864944Y-16351317D01*
X13864944Y-16351317D02*
X13883992Y-16341793D01*
X13883992Y-16341793D02*
X13931611Y-16341793D01*
X13931611Y-16341793D02*
X13950658Y-16332269D01*
X14017325Y-16284650D02*
X14093515Y-16284650D01*
X14045896Y-16217984D02*
X14045896Y-16389412D01*
X14045896Y-16389412D02*
X14055420Y-16408460D01*
X14055420Y-16408460D02*
X14074468Y-16417984D01*
X14074468Y-16417984D02*
X14093515Y-16417984D01*
X14236373Y-16408460D02*
X14217325Y-16417984D01*
X14217325Y-16417984D02*
X14179230Y-16417984D01*
X14179230Y-16417984D02*
X14160182Y-16408460D01*
X14160182Y-16408460D02*
X14150658Y-16389412D01*
X14150658Y-16389412D02*
X14150658Y-16313222D01*
X14150658Y-16313222D02*
X14160182Y-16294174D01*
X14160182Y-16294174D02*
X14179230Y-16284650D01*
X14179230Y-16284650D02*
X14217325Y-16284650D01*
X14217325Y-16284650D02*
X14236373Y-16294174D01*
X14236373Y-16294174D02*
X14245896Y-16313222D01*
X14245896Y-16313222D02*
X14245896Y-16332269D01*
X14245896Y-16332269D02*
X14150658Y-16351317D01*
X14417325Y-16417984D02*
X14417325Y-16217984D01*
X14417325Y-16408460D02*
X14398277Y-16417984D01*
X14398277Y-16417984D02*
X14360182Y-16417984D01*
X14360182Y-16417984D02*
X14341134Y-16408460D01*
X14341134Y-16408460D02*
X14331611Y-16398936D01*
X14331611Y-16398936D02*
X14322087Y-16379888D01*
X14322087Y-16379888D02*
X14322087Y-16322746D01*
X14322087Y-16322746D02*
X14331611Y-16303698D01*
X14331611Y-16303698D02*
X14341134Y-16294174D01*
X14341134Y-16294174D02*
X14360182Y-16284650D01*
X14360182Y-16284650D02*
X14398277Y-16284650D01*
X14398277Y-16284650D02*
X14417325Y-16294174D01*
X14493515Y-16494174D02*
X14503039Y-16484650D01*
X14503039Y-16484650D02*
X14522087Y-16456079D01*
X14522087Y-16456079D02*
X14531611Y-16437031D01*
X14531611Y-16437031D02*
X14541134Y-16408460D01*
X14541134Y-16408460D02*
X14550658Y-16360841D01*
X14550658Y-16360841D02*
X14550658Y-16322746D01*
X14550658Y-16322746D02*
X14541134Y-16275127D01*
X14541134Y-16275127D02*
X14531611Y-16246555D01*
X14531611Y-16246555D02*
X14522087Y-16227508D01*
X14522087Y-16227508D02*
X14503039Y-16198936D01*
X14503039Y-16198936D02*
X14493515Y-16189412D01*
D12*
X7696860Y-16549860D02*
X7696860Y-16631140D01*
X7656220Y-16590500D02*
X7737500Y-16590500D01*
D11*
X8036372Y-16481984D02*
X8055420Y-16481984D01*
X8055420Y-16481984D02*
X8074467Y-16491508D01*
X8074467Y-16491508D02*
X8083991Y-16501031D01*
X8083991Y-16501031D02*
X8093515Y-16520079D01*
X8093515Y-16520079D02*
X8103039Y-16558174D01*
X8103039Y-16558174D02*
X8103039Y-16605793D01*
X8103039Y-16605793D02*
X8093515Y-16643888D01*
X8093515Y-16643888D02*
X8083991Y-16662936D01*
X8083991Y-16662936D02*
X8074467Y-16672460D01*
X8074467Y-16672460D02*
X8055420Y-16681984D01*
X8055420Y-16681984D02*
X8036372Y-16681984D01*
X8036372Y-16681984D02*
X8017324Y-16672460D01*
X8017324Y-16672460D02*
X8007801Y-16662936D01*
X8007801Y-16662936D02*
X7998277Y-16643888D01*
X7998277Y-16643888D02*
X7988753Y-16605793D01*
X7988753Y-16605793D02*
X7988753Y-16558174D01*
X7988753Y-16558174D02*
X7998277Y-16520079D01*
X7998277Y-16520079D02*
X8007801Y-16501031D01*
X8007801Y-16501031D02*
X8017324Y-16491508D01*
X8017324Y-16491508D02*
X8036372Y-16481984D01*
X8188753Y-16662936D02*
X8198277Y-16672460D01*
X8198277Y-16672460D02*
X8188753Y-16681984D01*
X8188753Y-16681984D02*
X8179229Y-16672460D01*
X8179229Y-16672460D02*
X8188753Y-16662936D01*
X8188753Y-16662936D02*
X8188753Y-16681984D01*
X8312562Y-16567698D02*
X8293515Y-16558174D01*
X8293515Y-16558174D02*
X8283991Y-16548650D01*
X8283991Y-16548650D02*
X8274467Y-16529603D01*
X8274467Y-16529603D02*
X8274467Y-16520079D01*
X8274467Y-16520079D02*
X8283991Y-16501031D01*
X8283991Y-16501031D02*
X8293515Y-16491508D01*
X8293515Y-16491508D02*
X8312562Y-16481984D01*
X8312562Y-16481984D02*
X8350658Y-16481984D01*
X8350658Y-16481984D02*
X8369705Y-16491508D01*
X8369705Y-16491508D02*
X8379229Y-16501031D01*
X8379229Y-16501031D02*
X8388753Y-16520079D01*
X8388753Y-16520079D02*
X8388753Y-16529603D01*
X8388753Y-16529603D02*
X8379229Y-16548650D01*
X8379229Y-16548650D02*
X8369705Y-16558174D01*
X8369705Y-16558174D02*
X8350658Y-16567698D01*
X8350658Y-16567698D02*
X8312562Y-16567698D01*
X8312562Y-16567698D02*
X8293515Y-16577222D01*
X8293515Y-16577222D02*
X8283991Y-16586746D01*
X8283991Y-16586746D02*
X8274467Y-16605793D01*
X8274467Y-16605793D02*
X8274467Y-16643888D01*
X8274467Y-16643888D02*
X8283991Y-16662936D01*
X8283991Y-16662936D02*
X8293515Y-16672460D01*
X8293515Y-16672460D02*
X8312562Y-16681984D01*
X8312562Y-16681984D02*
X8350658Y-16681984D01*
X8350658Y-16681984D02*
X8369705Y-16672460D01*
X8369705Y-16672460D02*
X8379229Y-16662936D01*
X8379229Y-16662936D02*
X8388753Y-16643888D01*
X8388753Y-16643888D02*
X8388753Y-16605793D01*
X8388753Y-16605793D02*
X8379229Y-16586746D01*
X8379229Y-16586746D02*
X8369705Y-16577222D01*
X8369705Y-16577222D02*
X8350658Y-16567698D01*
X8579229Y-16681984D02*
X8464944Y-16681984D01*
X8522086Y-16681984D02*
X8522086Y-16481984D01*
X8522086Y-16481984D02*
X8503039Y-16510555D01*
X8503039Y-16510555D02*
X8483991Y-16529603D01*
X8483991Y-16529603D02*
X8464944Y-16539127D01*
X8645896Y-16481984D02*
X8769705Y-16481984D01*
X8769705Y-16481984D02*
X8703039Y-16558174D01*
X8703039Y-16558174D02*
X8731610Y-16558174D01*
X8731610Y-16558174D02*
X8750658Y-16567698D01*
X8750658Y-16567698D02*
X8760182Y-16577222D01*
X8760182Y-16577222D02*
X8769705Y-16596269D01*
X8769705Y-16596269D02*
X8769705Y-16643888D01*
X8769705Y-16643888D02*
X8760182Y-16662936D01*
X8760182Y-16662936D02*
X8750658Y-16672460D01*
X8750658Y-16672460D02*
X8731610Y-16681984D01*
X8731610Y-16681984D02*
X8674467Y-16681984D01*
X8674467Y-16681984D02*
X8655420Y-16672460D01*
X8655420Y-16672460D02*
X8645896Y-16662936D01*
X8855420Y-16681984D02*
X8855420Y-16548650D01*
X8855420Y-16567698D02*
X8864944Y-16558174D01*
X8864944Y-16558174D02*
X8883991Y-16548650D01*
X8883991Y-16548650D02*
X8912563Y-16548650D01*
X8912563Y-16548650D02*
X8931610Y-16558174D01*
X8931610Y-16558174D02*
X8941134Y-16577222D01*
X8941134Y-16577222D02*
X8941134Y-16681984D01*
X8941134Y-16577222D02*
X8950658Y-16558174D01*
X8950658Y-16558174D02*
X8969705Y-16548650D01*
X8969705Y-16548650D02*
X8998277Y-16548650D01*
X8998277Y-16548650D02*
X9017325Y-16558174D01*
X9017325Y-16558174D02*
X9026848Y-16577222D01*
X9026848Y-16577222D02*
X9026848Y-16681984D01*
X9122086Y-16681984D02*
X9122086Y-16548650D01*
X9122086Y-16567698D02*
X9131610Y-16558174D01*
X9131610Y-16558174D02*
X9150658Y-16548650D01*
X9150658Y-16548650D02*
X9179229Y-16548650D01*
X9179229Y-16548650D02*
X9198277Y-16558174D01*
X9198277Y-16558174D02*
X9207801Y-16577222D01*
X9207801Y-16577222D02*
X9207801Y-16681984D01*
X9207801Y-16577222D02*
X9217325Y-16558174D01*
X9217325Y-16558174D02*
X9236372Y-16548650D01*
X9236372Y-16548650D02*
X9264944Y-16548650D01*
X9264944Y-16548650D02*
X9283991Y-16558174D01*
X9283991Y-16558174D02*
X9293515Y-16577222D01*
X9293515Y-16577222D02*
X9293515Y-16681984D01*
X9683991Y-16472460D02*
X9512563Y-16729603D01*
X9941134Y-16481984D02*
X9960182Y-16481984D01*
X9960182Y-16481984D02*
X9979229Y-16491508D01*
X9979229Y-16491508D02*
X9988753Y-16501031D01*
X9988753Y-16501031D02*
X9998277Y-16520079D01*
X9998277Y-16520079D02*
X10007801Y-16558174D01*
X10007801Y-16558174D02*
X10007801Y-16605793D01*
X10007801Y-16605793D02*
X9998277Y-16643888D01*
X9998277Y-16643888D02*
X9988753Y-16662936D01*
X9988753Y-16662936D02*
X9979229Y-16672460D01*
X9979229Y-16672460D02*
X9960182Y-16681984D01*
X9960182Y-16681984D02*
X9941134Y-16681984D01*
X9941134Y-16681984D02*
X9922087Y-16672460D01*
X9922087Y-16672460D02*
X9912563Y-16662936D01*
X9912563Y-16662936D02*
X9903039Y-16643888D01*
X9903039Y-16643888D02*
X9893515Y-16605793D01*
X9893515Y-16605793D02*
X9893515Y-16558174D01*
X9893515Y-16558174D02*
X9903039Y-16520079D01*
X9903039Y-16520079D02*
X9912563Y-16501031D01*
X9912563Y-16501031D02*
X9922087Y-16491508D01*
X9922087Y-16491508D02*
X9941134Y-16481984D01*
X10093515Y-16662936D02*
X10103039Y-16672460D01*
X10103039Y-16672460D02*
X10093515Y-16681984D01*
X10093515Y-16681984D02*
X10083991Y-16672460D01*
X10083991Y-16672460D02*
X10093515Y-16662936D01*
X10093515Y-16662936D02*
X10093515Y-16681984D01*
X10226848Y-16481984D02*
X10245896Y-16481984D01*
X10245896Y-16481984D02*
X10264944Y-16491508D01*
X10264944Y-16491508D02*
X10274468Y-16501031D01*
X10274468Y-16501031D02*
X10283991Y-16520079D01*
X10283991Y-16520079D02*
X10293515Y-16558174D01*
X10293515Y-16558174D02*
X10293515Y-16605793D01*
X10293515Y-16605793D02*
X10283991Y-16643888D01*
X10283991Y-16643888D02*
X10274468Y-16662936D01*
X10274468Y-16662936D02*
X10264944Y-16672460D01*
X10264944Y-16672460D02*
X10245896Y-16681984D01*
X10245896Y-16681984D02*
X10226848Y-16681984D01*
X10226848Y-16681984D02*
X10207801Y-16672460D01*
X10207801Y-16672460D02*
X10198277Y-16662936D01*
X10198277Y-16662936D02*
X10188753Y-16643888D01*
X10188753Y-16643888D02*
X10179229Y-16605793D01*
X10179229Y-16605793D02*
X10179229Y-16558174D01*
X10179229Y-16558174D02*
X10188753Y-16520079D01*
X10188753Y-16520079D02*
X10198277Y-16501031D01*
X10198277Y-16501031D02*
X10207801Y-16491508D01*
X10207801Y-16491508D02*
X10226848Y-16481984D01*
X10360182Y-16481984D02*
X10483991Y-16481984D01*
X10483991Y-16481984D02*
X10417325Y-16558174D01*
X10417325Y-16558174D02*
X10445896Y-16558174D01*
X10445896Y-16558174D02*
X10464944Y-16567698D01*
X10464944Y-16567698D02*
X10474468Y-16577222D01*
X10474468Y-16577222D02*
X10483991Y-16596269D01*
X10483991Y-16596269D02*
X10483991Y-16643888D01*
X10483991Y-16643888D02*
X10474468Y-16662936D01*
X10474468Y-16662936D02*
X10464944Y-16672460D01*
X10464944Y-16672460D02*
X10445896Y-16681984D01*
X10445896Y-16681984D02*
X10388753Y-16681984D01*
X10388753Y-16681984D02*
X10369706Y-16672460D01*
X10369706Y-16672460D02*
X10360182Y-16662936D01*
X10560182Y-16501031D02*
X10569706Y-16491508D01*
X10569706Y-16491508D02*
X10588753Y-16481984D01*
X10588753Y-16481984D02*
X10636372Y-16481984D01*
X10636372Y-16481984D02*
X10655420Y-16491508D01*
X10655420Y-16491508D02*
X10664944Y-16501031D01*
X10664944Y-16501031D02*
X10674468Y-16520079D01*
X10674468Y-16520079D02*
X10674468Y-16539127D01*
X10674468Y-16539127D02*
X10664944Y-16567698D01*
X10664944Y-16567698D02*
X10550658Y-16681984D01*
X10550658Y-16681984D02*
X10674468Y-16681984D01*
X10798277Y-16481984D02*
X10817325Y-16481984D01*
X10817325Y-16481984D02*
X10836372Y-16491508D01*
X10836372Y-16491508D02*
X10845896Y-16501031D01*
X10845896Y-16501031D02*
X10855420Y-16520079D01*
X10855420Y-16520079D02*
X10864944Y-16558174D01*
X10864944Y-16558174D02*
X10864944Y-16605793D01*
X10864944Y-16605793D02*
X10855420Y-16643888D01*
X10855420Y-16643888D02*
X10845896Y-16662936D01*
X10845896Y-16662936D02*
X10836372Y-16672460D01*
X10836372Y-16672460D02*
X10817325Y-16681984D01*
X10817325Y-16681984D02*
X10798277Y-16681984D01*
X10798277Y-16681984D02*
X10779229Y-16672460D01*
X10779229Y-16672460D02*
X10769706Y-16662936D01*
X10769706Y-16662936D02*
X10760182Y-16643888D01*
X10760182Y-16643888D02*
X10750658Y-16605793D01*
X10750658Y-16605793D02*
X10750658Y-16558174D01*
X10750658Y-16558174D02*
X10760182Y-16520079D01*
X10760182Y-16520079D02*
X10769706Y-16501031D01*
X10769706Y-16501031D02*
X10779229Y-16491508D01*
X10779229Y-16491508D02*
X10798277Y-16481984D01*
X10941134Y-16481984D02*
X10941134Y-16520079D01*
X11017325Y-16481984D02*
X11017325Y-16520079D01*
X11312563Y-16758174D02*
X11303039Y-16748650D01*
X11303039Y-16748650D02*
X11283991Y-16720079D01*
X11283991Y-16720079D02*
X11274468Y-16701031D01*
X11274468Y-16701031D02*
X11264944Y-16672460D01*
X11264944Y-16672460D02*
X11255420Y-16624841D01*
X11255420Y-16624841D02*
X11255420Y-16586746D01*
X11255420Y-16586746D02*
X11264944Y-16539127D01*
X11264944Y-16539127D02*
X11274468Y-16510555D01*
X11274468Y-16510555D02*
X11283991Y-16491508D01*
X11283991Y-16491508D02*
X11303039Y-16462936D01*
X11303039Y-16462936D02*
X11312563Y-16453412D01*
X11379229Y-16501031D02*
X11388753Y-16491508D01*
X11388753Y-16491508D02*
X11407801Y-16481984D01*
X11407801Y-16481984D02*
X11455420Y-16481984D01*
X11455420Y-16481984D02*
X11474468Y-16491508D01*
X11474468Y-16491508D02*
X11483991Y-16501031D01*
X11483991Y-16501031D02*
X11493515Y-16520079D01*
X11493515Y-16520079D02*
X11493515Y-16539127D01*
X11493515Y-16539127D02*
X11483991Y-16567698D01*
X11483991Y-16567698D02*
X11369706Y-16681984D01*
X11369706Y-16681984D02*
X11493515Y-16681984D01*
X11731610Y-16681984D02*
X11731610Y-16481984D01*
X11817325Y-16681984D02*
X11817325Y-16577222D01*
X11817325Y-16577222D02*
X11807801Y-16558174D01*
X11807801Y-16558174D02*
X11788753Y-16548650D01*
X11788753Y-16548650D02*
X11760182Y-16548650D01*
X11760182Y-16548650D02*
X11741134Y-16558174D01*
X11741134Y-16558174D02*
X11731610Y-16567698D01*
X11941134Y-16681984D02*
X11922087Y-16672460D01*
X11922087Y-16672460D02*
X11912563Y-16662936D01*
X11912563Y-16662936D02*
X11903039Y-16643888D01*
X11903039Y-16643888D02*
X11903039Y-16586746D01*
X11903039Y-16586746D02*
X11912563Y-16567698D01*
X11912563Y-16567698D02*
X11922087Y-16558174D01*
X11922087Y-16558174D02*
X11941134Y-16548650D01*
X11941134Y-16548650D02*
X11969706Y-16548650D01*
X11969706Y-16548650D02*
X11988753Y-16558174D01*
X11988753Y-16558174D02*
X11998277Y-16567698D01*
X11998277Y-16567698D02*
X12007801Y-16586746D01*
X12007801Y-16586746D02*
X12007801Y-16643888D01*
X12007801Y-16643888D02*
X11998277Y-16662936D01*
X11998277Y-16662936D02*
X11988753Y-16672460D01*
X11988753Y-16672460D02*
X11969706Y-16681984D01*
X11969706Y-16681984D02*
X11941134Y-16681984D01*
X12122087Y-16681984D02*
X12103039Y-16672460D01*
X12103039Y-16672460D02*
X12093515Y-16653412D01*
X12093515Y-16653412D02*
X12093515Y-16481984D01*
X12274468Y-16672460D02*
X12255420Y-16681984D01*
X12255420Y-16681984D02*
X12217325Y-16681984D01*
X12217325Y-16681984D02*
X12198277Y-16672460D01*
X12198277Y-16672460D02*
X12188753Y-16653412D01*
X12188753Y-16653412D02*
X12188753Y-16577222D01*
X12188753Y-16577222D02*
X12198277Y-16558174D01*
X12198277Y-16558174D02*
X12217325Y-16548650D01*
X12217325Y-16548650D02*
X12255420Y-16548650D01*
X12255420Y-16548650D02*
X12274468Y-16558174D01*
X12274468Y-16558174D02*
X12283991Y-16577222D01*
X12283991Y-16577222D02*
X12283991Y-16596269D01*
X12283991Y-16596269D02*
X12188753Y-16615317D01*
X12360182Y-16672460D02*
X12379230Y-16681984D01*
X12379230Y-16681984D02*
X12417325Y-16681984D01*
X12417325Y-16681984D02*
X12436372Y-16672460D01*
X12436372Y-16672460D02*
X12445896Y-16653412D01*
X12445896Y-16653412D02*
X12445896Y-16643888D01*
X12445896Y-16643888D02*
X12436372Y-16624841D01*
X12436372Y-16624841D02*
X12417325Y-16615317D01*
X12417325Y-16615317D02*
X12388753Y-16615317D01*
X12388753Y-16615317D02*
X12369706Y-16605793D01*
X12369706Y-16605793D02*
X12360182Y-16586746D01*
X12360182Y-16586746D02*
X12360182Y-16577222D01*
X12360182Y-16577222D02*
X12369706Y-16558174D01*
X12369706Y-16558174D02*
X12388753Y-16548650D01*
X12388753Y-16548650D02*
X12417325Y-16548650D01*
X12417325Y-16548650D02*
X12436372Y-16558174D01*
X12512563Y-16758174D02*
X12522087Y-16748650D01*
X12522087Y-16748650D02*
X12541134Y-16720079D01*
X12541134Y-16720079D02*
X12550658Y-16701031D01*
X12550658Y-16701031D02*
X12560182Y-16672460D01*
X12560182Y-16672460D02*
X12569706Y-16624841D01*
X12569706Y-16624841D02*
X12569706Y-16586746D01*
X12569706Y-16586746D02*
X12560182Y-16539127D01*
X12560182Y-16539127D02*
X12550658Y-16510555D01*
X12550658Y-16510555D02*
X12541134Y-16491508D01*
X12541134Y-16491508D02*
X12522087Y-16462936D01*
X12522087Y-16462936D02*
X12512563Y-16453412D01*
X12874468Y-16758174D02*
X12864944Y-16748650D01*
X12864944Y-16748650D02*
X12845896Y-16720079D01*
X12845896Y-16720079D02*
X12836372Y-16701031D01*
X12836372Y-16701031D02*
X12826849Y-16672460D01*
X12826849Y-16672460D02*
X12817325Y-16624841D01*
X12817325Y-16624841D02*
X12817325Y-16586746D01*
X12817325Y-16586746D02*
X12826849Y-16539127D01*
X12826849Y-16539127D02*
X12836372Y-16510555D01*
X12836372Y-16510555D02*
X12845896Y-16491508D01*
X12845896Y-16491508D02*
X12864944Y-16462936D01*
X12864944Y-16462936D02*
X12874468Y-16453412D01*
X12950658Y-16548650D02*
X12950658Y-16681984D01*
X12950658Y-16567698D02*
X12960182Y-16558174D01*
X12960182Y-16558174D02*
X12979230Y-16548650D01*
X12979230Y-16548650D02*
X13007801Y-16548650D01*
X13007801Y-16548650D02*
X13026849Y-16558174D01*
X13026849Y-16558174D02*
X13036372Y-16577222D01*
X13036372Y-16577222D02*
X13036372Y-16681984D01*
X13160182Y-16681984D02*
X13141134Y-16672460D01*
X13141134Y-16672460D02*
X13131611Y-16662936D01*
X13131611Y-16662936D02*
X13122087Y-16643888D01*
X13122087Y-16643888D02*
X13122087Y-16586746D01*
X13122087Y-16586746D02*
X13131611Y-16567698D01*
X13131611Y-16567698D02*
X13141134Y-16558174D01*
X13141134Y-16558174D02*
X13160182Y-16548650D01*
X13160182Y-16548650D02*
X13188753Y-16548650D01*
X13188753Y-16548650D02*
X13207801Y-16558174D01*
X13207801Y-16558174D02*
X13217325Y-16567698D01*
X13217325Y-16567698D02*
X13226849Y-16586746D01*
X13226849Y-16586746D02*
X13226849Y-16643888D01*
X13226849Y-16643888D02*
X13217325Y-16662936D01*
X13217325Y-16662936D02*
X13207801Y-16672460D01*
X13207801Y-16672460D02*
X13188753Y-16681984D01*
X13188753Y-16681984D02*
X13160182Y-16681984D01*
X13283992Y-16548650D02*
X13360182Y-16548650D01*
X13312563Y-16481984D02*
X13312563Y-16653412D01*
X13312563Y-16653412D02*
X13322087Y-16672460D01*
X13322087Y-16672460D02*
X13341134Y-16681984D01*
X13341134Y-16681984D02*
X13360182Y-16681984D01*
X13579230Y-16548650D02*
X13579230Y-16748650D01*
X13579230Y-16558174D02*
X13598277Y-16548650D01*
X13598277Y-16548650D02*
X13636373Y-16548650D01*
X13636373Y-16548650D02*
X13655420Y-16558174D01*
X13655420Y-16558174D02*
X13664944Y-16567698D01*
X13664944Y-16567698D02*
X13674468Y-16586746D01*
X13674468Y-16586746D02*
X13674468Y-16643888D01*
X13674468Y-16643888D02*
X13664944Y-16662936D01*
X13664944Y-16662936D02*
X13655420Y-16672460D01*
X13655420Y-16672460D02*
X13636373Y-16681984D01*
X13636373Y-16681984D02*
X13598277Y-16681984D01*
X13598277Y-16681984D02*
X13579230Y-16672460D01*
X13788753Y-16681984D02*
X13769706Y-16672460D01*
X13769706Y-16672460D02*
X13760182Y-16653412D01*
X13760182Y-16653412D02*
X13760182Y-16481984D01*
X13950658Y-16681984D02*
X13950658Y-16577222D01*
X13950658Y-16577222D02*
X13941134Y-16558174D01*
X13941134Y-16558174D02*
X13922087Y-16548650D01*
X13922087Y-16548650D02*
X13883992Y-16548650D01*
X13883992Y-16548650D02*
X13864944Y-16558174D01*
X13950658Y-16672460D02*
X13931611Y-16681984D01*
X13931611Y-16681984D02*
X13883992Y-16681984D01*
X13883992Y-16681984D02*
X13864944Y-16672460D01*
X13864944Y-16672460D02*
X13855420Y-16653412D01*
X13855420Y-16653412D02*
X13855420Y-16634365D01*
X13855420Y-16634365D02*
X13864944Y-16615317D01*
X13864944Y-16615317D02*
X13883992Y-16605793D01*
X13883992Y-16605793D02*
X13931611Y-16605793D01*
X13931611Y-16605793D02*
X13950658Y-16596269D01*
X14017325Y-16548650D02*
X14093515Y-16548650D01*
X14045896Y-16481984D02*
X14045896Y-16653412D01*
X14045896Y-16653412D02*
X14055420Y-16672460D01*
X14055420Y-16672460D02*
X14074468Y-16681984D01*
X14074468Y-16681984D02*
X14093515Y-16681984D01*
X14236373Y-16672460D02*
X14217325Y-16681984D01*
X14217325Y-16681984D02*
X14179230Y-16681984D01*
X14179230Y-16681984D02*
X14160182Y-16672460D01*
X14160182Y-16672460D02*
X14150658Y-16653412D01*
X14150658Y-16653412D02*
X14150658Y-16577222D01*
X14150658Y-16577222D02*
X14160182Y-16558174D01*
X14160182Y-16558174D02*
X14179230Y-16548650D01*
X14179230Y-16548650D02*
X14217325Y-16548650D01*
X14217325Y-16548650D02*
X14236373Y-16558174D01*
X14236373Y-16558174D02*
X14245896Y-16577222D01*
X14245896Y-16577222D02*
X14245896Y-16596269D01*
X14245896Y-16596269D02*
X14150658Y-16615317D01*
X14417325Y-16681984D02*
X14417325Y-16481984D01*
X14417325Y-16672460D02*
X14398277Y-16681984D01*
X14398277Y-16681984D02*
X14360182Y-16681984D01*
X14360182Y-16681984D02*
X14341134Y-16672460D01*
X14341134Y-16672460D02*
X14331611Y-16662936D01*
X14331611Y-16662936D02*
X14322087Y-16643888D01*
X14322087Y-16643888D02*
X14322087Y-16586746D01*
X14322087Y-16586746D02*
X14331611Y-16567698D01*
X14331611Y-16567698D02*
X14341134Y-16558174D01*
X14341134Y-16558174D02*
X14360182Y-16548650D01*
X14360182Y-16548650D02*
X14398277Y-16548650D01*
X14398277Y-16548650D02*
X14417325Y-16558174D01*
X14493515Y-16758174D02*
X14503039Y-16748650D01*
X14503039Y-16748650D02*
X14522087Y-16720079D01*
X14522087Y-16720079D02*
X14531611Y-16701031D01*
X14531611Y-16701031D02*
X14541134Y-16672460D01*
X14541134Y-16672460D02*
X14550658Y-16624841D01*
X14550658Y-16624841D02*
X14550658Y-16586746D01*
X14550658Y-16586746D02*
X14541134Y-16539127D01*
X14541134Y-16539127D02*
X14531611Y-16510555D01*
X14531611Y-16510555D02*
X14522087Y-16491508D01*
X14522087Y-16491508D02*
X14503039Y-16462936D01*
X14503039Y-16462936D02*
X14493515Y-16453412D01*
M02*
