%TF.GenerationSoftware,KiCad,Pcbnew,9.0.0*%
%TF.CreationDate,2025-04-24T23:35:52+03:00*%
%TF.ProjectId,ESP32_BOARD,45535033-325f-4424-9f41-52442e6b6963,1.0*%
%TF.SameCoordinates,Original*%
%TF.FileFunction,Copper,L2,Inr*%
%TF.FilePolarity,Positive*%
%FSLAX46Y46*%
G04 Gerber Fmt 4.6, Leading zero omitted, Abs format (unit mm)*
G04 Created by KiCad (PCBNEW 9.0.0) date 2025-04-24 23:35:52*
%MOMM*%
%LPD*%
G01*
G04 APERTURE LIST*
%TA.AperFunction,ComponentPad*%
%ADD10R,1.524000X1.524000*%
%TD*%
%TA.AperFunction,ComponentPad*%
%ADD11C,1.524000*%
%TD*%
%TA.AperFunction,ComponentPad*%
%ADD12R,1.650000X1.650000*%
%TD*%
%TA.AperFunction,ComponentPad*%
%ADD13C,1.650000*%
%TD*%
%TA.AperFunction,ViaPad*%
%ADD14C,0.600000*%
%TD*%
G04 APERTURE END LIST*
D10*
%TO.N,+3V3*%
%TO.C,ST4*%
X82719900Y-122610000D03*
D11*
%TO.N,GND*%
X82719900Y-120070000D03*
%TO.N,unconnected-(ST4-Pin_3-Pad3)*%
X82719900Y-117530000D03*
%TO.N,unconnected-(ST4-Pin_4-Pad4)*%
X82719900Y-114990000D03*
%TO.N,GPIO13*%
X82719900Y-112450000D03*
%TO.N,GPIO12*%
X82719900Y-109910000D03*
%TO.N,GPIO11*%
X82719900Y-107370000D03*
%TO.N,GPIO10*%
X82719900Y-104830000D03*
%TO.N,GPIO3*%
X82719900Y-102290000D03*
%TO.N,GPIO2*%
X82719900Y-99750000D03*
%TO.N,GPIO1*%
X82719900Y-97210000D03*
%TO.N,unconnected-(ST4-Pin_12-Pad12)*%
X82719900Y-94670000D03*
%TD*%
D10*
%TO.N,+3V3*%
%TO.C,ST5*%
X108119900Y-122610000D03*
D11*
%TO.N,GND*%
X108119900Y-120070000D03*
X108119900Y-117530000D03*
%TO.N,unconnected-(ST5-Pin_4-Pad4)*%
X108119900Y-114990000D03*
%TO.N,ESP_TP_INT*%
X108119900Y-112450000D03*
%TO.N,ESP_TP_RESET*%
X108119900Y-109910000D03*
%TO.N,I2C_SCL*%
X108119900Y-107370000D03*
%TO.N,I2C_SDA*%
X108119900Y-104830000D03*
%TO.N,U0RXD*%
X108119900Y-102290000D03*
%TO.N,U0TXD*%
X108119900Y-99750000D03*
%TO.N,GND*%
X108119900Y-97210000D03*
X108119900Y-94670000D03*
%TD*%
D12*
%TO.N,+12V*%
%TO.C,ST1*%
X102820000Y-151820000D03*
D13*
%TO.N,GND*%
X100320000Y-151820000D03*
%TD*%
D14*
%TO.N,+3V3*%
X97780000Y-97910000D03*
X97880000Y-101990000D03*
X94359949Y-134812882D03*
X98860000Y-103420000D03*
X98850000Y-104670000D03*
X83190000Y-130060000D03*
X100690000Y-135170000D03*
X88100000Y-137200000D03*
X91058548Y-107542834D03*
X97830000Y-100420000D03*
X97650000Y-123610000D03*
X88570000Y-123590000D03*
X100770000Y-103440000D03*
X80930000Y-137280000D03*
X80413000Y-124650000D03*
X87000000Y-132800000D03*
X97510000Y-103170000D03*
X100650000Y-132710000D03*
X106420000Y-138470000D03*
X97770000Y-96640000D03*
X97840000Y-99150000D03*
X108095274Y-136632129D03*
X80520000Y-126440000D03*
X97990000Y-109330000D03*
X87000000Y-134200000D03*
X85800000Y-137200000D03*
X101970000Y-132680000D03*
X100680000Y-133970000D03*
X88400000Y-135600000D03*
X99350000Y-132660000D03*
X88740000Y-126350000D03*
X99170000Y-130430000D03*
X87000000Y-135600000D03*
X99630000Y-105520000D03*
X94002000Y-143300000D03*
%TO.N,+12V*%
X103300000Y-142300000D03*
X103300000Y-143300000D03*
X95400000Y-141100000D03*
X102000000Y-143300000D03*
%TO.N,BOOT*%
X79330000Y-150140000D03*
%TO.N,/Microcontroller/SPID*%
X92770000Y-117250000D03*
X96600000Y-116400000D03*
%TO.N,/Microcontroller/SPIWP*%
X93150000Y-115240000D03*
X96300000Y-115240000D03*
%TO.N,/Microcontroller/SPICS0*%
X95010000Y-116980000D03*
X93670000Y-116260000D03*
%TO.N,GND*%
X82739822Y-145203186D03*
X95660000Y-98840000D03*
X92520000Y-133420000D03*
X106460000Y-146250000D03*
X99954827Y-144463398D03*
X84530000Y-153080000D03*
X107490000Y-142600000D03*
X97570000Y-129600000D03*
X102800000Y-126320000D03*
X96170000Y-134280000D03*
X108980000Y-140230000D03*
X103261732Y-123930879D03*
X95841085Y-100642934D03*
X100110000Y-116530000D03*
X110450000Y-153080000D03*
X95026811Y-101367896D03*
X104585917Y-128890870D03*
X105576923Y-103978469D03*
X100070000Y-130350000D03*
X96437497Y-148622823D03*
X110770000Y-134430000D03*
X108390000Y-153080000D03*
X98810000Y-115760000D03*
X112520000Y-153070000D03*
X83895000Y-132210000D03*
X94396711Y-152805029D03*
X107530000Y-144900000D03*
X87970000Y-126360000D03*
X92650000Y-123590000D03*
X100080000Y-123610000D03*
X82430000Y-153080000D03*
X84300000Y-136580000D03*
X93774936Y-97703487D03*
X86761449Y-150183816D03*
X106286407Y-126842552D03*
X93080059Y-144917176D03*
X95595621Y-142224606D03*
X104600000Y-124850000D03*
X100800000Y-96530000D03*
X97850000Y-108510000D03*
X91450000Y-131980000D03*
X95250000Y-132610000D03*
X89480000Y-141560000D03*
X90760000Y-112590000D03*
X95408047Y-150169425D03*
X92880000Y-106830000D03*
X87810000Y-152800000D03*
X87550000Y-120350000D03*
X97800000Y-128630000D03*
X89410000Y-123550000D03*
X106470000Y-141340000D03*
X84482248Y-126850000D03*
X102287649Y-101978120D03*
X83350000Y-135600000D03*
X99810000Y-100610000D03*
X85746952Y-148623423D03*
X101240000Y-99720000D03*
X94450000Y-99740000D03*
X87700000Y-123730000D03*
X80550000Y-145220000D03*
X96380617Y-152800735D03*
X103190000Y-139800000D03*
X110770000Y-136220000D03*
X85670000Y-152800000D03*
X95350000Y-105460000D03*
X106290000Y-153080000D03*
X94751485Y-96518566D03*
X104080000Y-135520000D03*
X78270000Y-153070000D03*
X81110000Y-149140000D03*
X99130000Y-122170000D03*
X86203677Y-128864353D03*
X100750000Y-101970000D03*
X103510000Y-108460000D03*
X88550000Y-142570000D03*
X94280000Y-147050000D03*
X92880000Y-109170000D03*
X81710000Y-142190000D03*
X102300000Y-138950000D03*
X106550000Y-106100000D03*
X83895000Y-134615000D03*
X97190000Y-135500000D03*
X92650000Y-126330000D03*
X89540000Y-126330000D03*
X91440000Y-111870000D03*
X95750000Y-110330000D03*
X105150000Y-134290000D03*
X102810000Y-107300000D03*
X91450000Y-134830000D03*
X82790000Y-133390000D03*
X88660000Y-108620000D03*
X104100000Y-133050000D03*
X88590000Y-144930000D03*
X88420000Y-121270000D03*
X101770000Y-97700000D03*
X99760000Y-98950000D03*
X97200000Y-133080000D03*
X82740000Y-141010000D03*
X99040000Y-102100000D03*
X80370000Y-153070000D03*
X87250000Y-147120000D03*
X81660000Y-146600000D03*
X100080000Y-128620000D03*
%TO.N,+5V*%
X92890000Y-149100000D03*
X86150000Y-144150000D03*
X87150000Y-143400000D03*
X84630000Y-139880000D03*
X86150000Y-142650000D03*
X93480000Y-147050000D03*
X86150000Y-145650000D03*
X89237430Y-149070000D03*
X87150000Y-144900000D03*
X88700000Y-146900000D03*
%TO.N,RESET*%
X97040000Y-105350000D03*
X112490000Y-103620000D03*
%TO.N,ESP_LCD_D4*%
X97930493Y-107334146D03*
%TO.N,I2C_SDA*%
X82930000Y-126430000D03*
X85320000Y-119840000D03*
X102160000Y-122210000D03*
%TO.N,ESP_TP_RESET*%
X95560000Y-127560000D03*
%TO.N,ESP_LCD_D3*%
X100260000Y-109160000D03*
%TO.N,ESP_LCD_D0*%
X99160000Y-111740000D03*
%TO.N,ESP_LCD_D2*%
X100260000Y-111550000D03*
%TO.N,ESP_LCD_D1*%
X99710000Y-112630000D03*
%TO.N,I2C_SCL*%
X102410000Y-120850000D03*
X83800000Y-127760000D03*
X85360000Y-121650000D03*
%TO.N,ESP_LCD_D{slash}C*%
X87418173Y-104634684D03*
%TO.N,GPIO0*%
X107330000Y-150050000D03*
X96360000Y-102530000D03*
X111680000Y-101860000D03*
%TO.N,U0RXD*%
X110120000Y-105290000D03*
X102870000Y-109060000D03*
%TO.N,ESP_LCD_D7*%
X96950000Y-121490000D03*
%TO.N,ESP_LCD_RES*%
X84900000Y-104650000D03*
%TO.N,ESP_LCD_D5*%
X100070000Y-107180000D03*
%TO.N,ESP_LCD_WR*%
X88595000Y-104665000D03*
%TO.N,ESP_LCD_RD*%
X90080000Y-104700000D03*
%TO.N,ESP_LCD_CS*%
X86220000Y-104650000D03*
%TO.N,U0TXD*%
X110280000Y-107110000D03*
X104710000Y-109760000D03*
%TO.N,ESP_LCD_D6*%
X96360000Y-123090000D03*
%TO.N,ESP_TP_INT*%
X82000000Y-125380000D03*
X103640000Y-122040000D03*
X84150000Y-118200000D03*
%TO.N,/Display Connector and Driver/LEDK3*%
X99329997Y-123610000D03*
%TO.N,/Display Connector and Driver/LEDK4*%
X99920464Y-126635409D03*
%TO.N,/Display Connector and Driver/LEDK2*%
X98520000Y-123640000D03*
%TO.N,/Display Connector and Driver/LEDK1*%
X97800000Y-126660000D03*
%TO.N,ESP_USB_D+*%
X90220000Y-146000000D03*
%TO.N,ESP_USB_D-*%
X91000000Y-146000000D03*
%TD*%
%TA.AperFunction,Conductor*%
%TO.N,GND*%
G36*
X112842539Y-91720185D02*
G01*
X112888294Y-91772989D01*
X112899500Y-91824500D01*
X112899500Y-103121458D01*
X112879815Y-103188497D01*
X112827011Y-103234252D01*
X112757853Y-103244196D01*
X112713500Y-103228845D01*
X112663889Y-103200202D01*
X112663890Y-103200202D01*
X112654494Y-103197684D01*
X112549309Y-103169500D01*
X112430691Y-103169500D01*
X112316114Y-103200201D01*
X112316112Y-103200201D01*
X112316112Y-103200202D01*
X112213387Y-103259511D01*
X112213384Y-103259513D01*
X112129513Y-103343384D01*
X112129511Y-103343387D01*
X112070201Y-103446114D01*
X112039500Y-103560691D01*
X112039500Y-103679309D01*
X112070201Y-103793886D01*
X112129511Y-103896613D01*
X112213387Y-103980489D01*
X112316114Y-104039799D01*
X112430691Y-104070500D01*
X112430694Y-104070500D01*
X112549306Y-104070500D01*
X112549309Y-104070500D01*
X112663886Y-104039799D01*
X112663888Y-104039797D01*
X112663890Y-104039797D01*
X112663891Y-104039796D01*
X112713499Y-104011155D01*
X112781399Y-103994681D01*
X112847426Y-104017533D01*
X112890617Y-104072453D01*
X112899500Y-104118541D01*
X112899500Y-134452747D01*
X112879815Y-134519786D01*
X112827011Y-134565541D01*
X112757853Y-134575485D01*
X112694297Y-134546460D01*
X112660939Y-134500200D01*
X112622430Y-134407231D01*
X112622425Y-134407222D01*
X112545068Y-134291450D01*
X112545065Y-134291446D01*
X112446608Y-134192989D01*
X112446604Y-134192986D01*
X112330832Y-134115629D01*
X112330823Y-134115624D01*
X112202178Y-134062338D01*
X112202172Y-134062336D01*
X112065609Y-134035172D01*
X112065607Y-134035172D01*
X111926359Y-134035172D01*
X111926357Y-134035172D01*
X111789793Y-134062336D01*
X111789787Y-134062338D01*
X111661142Y-134115624D01*
X111661133Y-134115629D01*
X111545361Y-134192986D01*
X111545357Y-134192989D01*
X111446900Y-134291446D01*
X111446897Y-134291450D01*
X111369540Y-134407222D01*
X111369535Y-134407231D01*
X111316249Y-134535876D01*
X111316247Y-134535882D01*
X111289083Y-134672445D01*
X111289083Y-134672448D01*
X111289083Y-134811696D01*
X111289083Y-134811698D01*
X111289082Y-134811698D01*
X111316247Y-134948261D01*
X111316249Y-134948267D01*
X111369535Y-135076912D01*
X111369540Y-135076921D01*
X111446897Y-135192693D01*
X111446900Y-135192697D01*
X111545357Y-135291154D01*
X111545365Y-135291160D01*
X111643925Y-135357016D01*
X111688731Y-135410628D01*
X111697438Y-135479953D01*
X111667284Y-135542980D01*
X111643927Y-135563219D01*
X111577745Y-135607441D01*
X111577739Y-135607446D01*
X111486359Y-135698826D01*
X111486356Y-135698830D01*
X111414557Y-135806284D01*
X111414550Y-135806296D01*
X111365097Y-135925689D01*
X111365094Y-135925701D01*
X111339883Y-136052445D01*
X111339883Y-136181694D01*
X111365094Y-136308438D01*
X111365097Y-136308450D01*
X111414550Y-136427843D01*
X111414557Y-136427855D01*
X111486356Y-136535309D01*
X111486359Y-136535313D01*
X111577739Y-136626693D01*
X111577743Y-136626696D01*
X111685203Y-136698499D01*
X111685205Y-136698500D01*
X111685209Y-136698502D01*
X111756844Y-136728173D01*
X111804606Y-136747957D01*
X111931358Y-136773169D01*
X111931362Y-136773170D01*
X111931363Y-136773170D01*
X112060604Y-136773170D01*
X112060605Y-136773169D01*
X112187360Y-136747957D01*
X112306763Y-136698499D01*
X112414223Y-136626696D01*
X112505609Y-136535310D01*
X112577412Y-136427850D01*
X112626870Y-136308447D01*
X112645988Y-136212331D01*
X112651500Y-136184623D01*
X112651500Y-136184621D01*
X112652083Y-136181690D01*
X112652083Y-136052450D01*
X112651500Y-136049518D01*
X112651500Y-136049516D01*
X112633791Y-135960488D01*
X112626870Y-135925693D01*
X112606540Y-135876612D01*
X112577415Y-135806296D01*
X112577413Y-135806292D01*
X112577412Y-135806290D01*
X112505609Y-135698830D01*
X112505606Y-135698826D01*
X112414226Y-135607446D01*
X112348038Y-135563220D01*
X112303234Y-135509607D01*
X112294527Y-135440282D01*
X112324682Y-135377255D01*
X112348035Y-135357019D01*
X112446605Y-135291157D01*
X112545068Y-135192694D01*
X112622429Y-135076915D01*
X112660939Y-134983943D01*
X112704780Y-134929540D01*
X112771074Y-134907475D01*
X112838773Y-134924754D01*
X112886384Y-134975891D01*
X112899500Y-135031396D01*
X112899500Y-137740440D01*
X112879815Y-137807479D01*
X112869568Y-137816357D01*
X112897328Y-137870595D01*
X112899500Y-137893703D01*
X112899500Y-138902746D01*
X112879815Y-138969785D01*
X112827011Y-139015540D01*
X112757853Y-139025484D01*
X112694297Y-138996459D01*
X112660939Y-138950199D01*
X112622430Y-138857230D01*
X112622425Y-138857221D01*
X112545068Y-138741449D01*
X112545065Y-138741445D01*
X112446608Y-138642988D01*
X112446604Y-138642985D01*
X112348038Y-138577125D01*
X112303233Y-138523513D01*
X112294526Y-138454188D01*
X112324681Y-138391160D01*
X112348033Y-138370924D01*
X112414223Y-138326698D01*
X112505609Y-138235312D01*
X112577412Y-138127852D01*
X112626870Y-138008449D01*
X112652083Y-137881692D01*
X112652083Y-137881684D01*
X112652097Y-137881552D01*
X112652125Y-137881481D01*
X112653272Y-137875717D01*
X112654365Y-137875934D01*
X112678256Y-137816764D01*
X112681600Y-137814397D01*
X112656523Y-137775375D01*
X112652097Y-137752593D01*
X112652083Y-137752457D01*
X112652083Y-137752452D01*
X112626870Y-137625695D01*
X112598256Y-137556615D01*
X112577415Y-137506298D01*
X112577413Y-137506294D01*
X112577412Y-137506292D01*
X112505609Y-137398832D01*
X112505606Y-137398828D01*
X112414226Y-137307448D01*
X112414222Y-137307445D01*
X112306768Y-137235646D01*
X112306756Y-137235639D01*
X112187363Y-137186186D01*
X112187361Y-137186185D01*
X112187360Y-137186185D01*
X112187355Y-137186184D01*
X112187351Y-137186183D01*
X112060607Y-137160972D01*
X112060603Y-137160972D01*
X111931363Y-137160972D01*
X111931358Y-137160972D01*
X111804614Y-137186183D01*
X111804602Y-137186186D01*
X111685209Y-137235639D01*
X111685197Y-137235646D01*
X111577743Y-137307445D01*
X111577739Y-137307448D01*
X111486359Y-137398828D01*
X111486356Y-137398832D01*
X111414557Y-137506286D01*
X111414550Y-137506298D01*
X111365097Y-137625691D01*
X111365094Y-137625703D01*
X111339883Y-137752447D01*
X111339883Y-137881696D01*
X111365094Y-138008440D01*
X111365097Y-138008452D01*
X111414550Y-138127845D01*
X111414557Y-138127857D01*
X111486356Y-138235311D01*
X111486359Y-138235315D01*
X111577742Y-138326698D01*
X111638688Y-138367420D01*
X111643925Y-138370920D01*
X111643927Y-138370921D01*
X111688732Y-138424533D01*
X111697439Y-138493858D01*
X111667285Y-138556885D01*
X111643927Y-138577125D01*
X111545361Y-138642985D01*
X111545357Y-138642988D01*
X111446900Y-138741445D01*
X111446897Y-138741449D01*
X111369540Y-138857221D01*
X111369535Y-138857230D01*
X111316249Y-138985875D01*
X111316247Y-138985881D01*
X111289083Y-139122444D01*
X111289083Y-139122447D01*
X111289083Y-139261695D01*
X111289083Y-139261697D01*
X111289082Y-139261697D01*
X111316247Y-139398260D01*
X111316249Y-139398266D01*
X111369535Y-139526911D01*
X111369540Y-139526920D01*
X111446897Y-139642692D01*
X111446900Y-139642696D01*
X111545357Y-139741153D01*
X111545361Y-139741156D01*
X111661133Y-139818513D01*
X111661139Y-139818516D01*
X111661140Y-139818517D01*
X111789788Y-139871805D01*
X111789792Y-139871805D01*
X111789793Y-139871806D01*
X111926356Y-139898971D01*
X111926359Y-139898971D01*
X112065609Y-139898971D01*
X112157486Y-139880694D01*
X112202178Y-139871805D01*
X112330826Y-139818517D01*
X112446605Y-139741156D01*
X112545068Y-139642693D01*
X112622429Y-139526914D01*
X112625496Y-139519511D01*
X112660939Y-139433943D01*
X112704780Y-139379539D01*
X112771074Y-139357474D01*
X112838773Y-139374753D01*
X112886384Y-139425890D01*
X112899500Y-139481395D01*
X112899500Y-153575500D01*
X112879815Y-153642539D01*
X112827011Y-153688294D01*
X112775500Y-153699500D01*
X95765548Y-153699500D01*
X95698509Y-153679815D01*
X95652754Y-153627011D01*
X95642810Y-153557853D01*
X95671835Y-153494297D01*
X95677867Y-153487819D01*
X95720078Y-153445607D01*
X95720082Y-153445602D01*
X95772739Y-153354396D01*
X95772740Y-153354393D01*
X95799999Y-153252660D01*
X95800000Y-153252659D01*
X95800000Y-152347341D01*
X95799999Y-152347339D01*
X95772740Y-152245606D01*
X95772739Y-152245603D01*
X95720082Y-152154397D01*
X95720078Y-152154392D01*
X95645607Y-152079921D01*
X95645602Y-152079917D01*
X95554396Y-152027260D01*
X95554393Y-152027259D01*
X95452660Y-152000000D01*
X95347339Y-152000000D01*
X95245606Y-152027259D01*
X95245603Y-152027260D01*
X95154397Y-152079917D01*
X95154392Y-152079921D01*
X95079921Y-152154392D01*
X95079917Y-152154397D01*
X95027260Y-152245603D01*
X95027259Y-152245606D01*
X95000000Y-152347339D01*
X95000000Y-153252660D01*
X95027259Y-153354393D01*
X95027260Y-153354396D01*
X95079917Y-153445602D01*
X95079921Y-153445607D01*
X95122133Y-153487819D01*
X95155618Y-153549142D01*
X95150634Y-153618834D01*
X95108762Y-153674767D01*
X95043298Y-153699184D01*
X95034452Y-153699500D01*
X87125548Y-153699500D01*
X87058509Y-153679815D01*
X87012754Y-153627011D01*
X87002810Y-153557853D01*
X87031835Y-153494297D01*
X87037867Y-153487819D01*
X87080078Y-153445607D01*
X87080082Y-153445602D01*
X87132739Y-153354396D01*
X87132740Y-153354393D01*
X87159999Y-153252660D01*
X87160000Y-153252659D01*
X87160000Y-152347341D01*
X87159999Y-152347339D01*
X87132740Y-152245606D01*
X87132739Y-152245603D01*
X87080082Y-152154397D01*
X87080078Y-152154392D01*
X87005607Y-152079921D01*
X87005602Y-152079917D01*
X86914396Y-152027260D01*
X86914393Y-152027259D01*
X86812660Y-152000000D01*
X86707339Y-152000000D01*
X86605606Y-152027259D01*
X86605603Y-152027260D01*
X86514397Y-152079917D01*
X86514392Y-152079921D01*
X86439921Y-152154392D01*
X86439917Y-152154397D01*
X86387260Y-152245603D01*
X86387259Y-152245606D01*
X86360000Y-152347339D01*
X86360000Y-153252660D01*
X86387259Y-153354393D01*
X86387260Y-153354396D01*
X86439917Y-153445602D01*
X86439921Y-153445607D01*
X86482133Y-153487819D01*
X86515618Y-153549142D01*
X86510634Y-153618834D01*
X86468762Y-153674767D01*
X86403298Y-153699184D01*
X86394452Y-153699500D01*
X78024500Y-153699500D01*
X77957461Y-153679815D01*
X77911706Y-153627011D01*
X77900500Y-153575500D01*
X77900500Y-151731455D01*
X99195000Y-151731455D01*
X99195000Y-151908544D01*
X99222701Y-152083439D01*
X99277419Y-152251847D01*
X99277423Y-152251855D01*
X99357808Y-152409621D01*
X99357816Y-152409635D01*
X99365809Y-152420634D01*
X99365811Y-152420635D01*
X99796212Y-151990233D01*
X99807482Y-152032292D01*
X99879890Y-152157708D01*
X99982292Y-152260110D01*
X100107708Y-152332518D01*
X100149766Y-152343787D01*
X99719364Y-152774189D01*
X99730368Y-152782185D01*
X99888149Y-152862579D01*
X99888152Y-152862580D01*
X100056560Y-152917298D01*
X100231456Y-152945000D01*
X100408544Y-152945000D01*
X100583439Y-152917298D01*
X100751847Y-152862580D01*
X100751850Y-152862578D01*
X100909633Y-152782184D01*
X100920634Y-152774189D01*
X100920635Y-152774188D01*
X100490234Y-152343787D01*
X100532292Y-152332518D01*
X100657708Y-152260110D01*
X100760110Y-152157708D01*
X100832518Y-152032292D01*
X100843787Y-151990233D01*
X101274189Y-152420635D01*
X101274189Y-152420634D01*
X101282184Y-152409633D01*
X101362578Y-152251850D01*
X101362580Y-152251847D01*
X101417298Y-152083439D01*
X101445000Y-151908544D01*
X101445000Y-151731455D01*
X101417298Y-151556560D01*
X101362580Y-151388152D01*
X101362579Y-151388149D01*
X101282185Y-151230368D01*
X101274189Y-151219364D01*
X100843787Y-151649765D01*
X100832518Y-151607708D01*
X100760110Y-151482292D01*
X100657708Y-151379890D01*
X100532292Y-151307482D01*
X100490234Y-151296212D01*
X100801348Y-150985098D01*
X101894500Y-150985098D01*
X101894500Y-152654894D01*
X101894501Y-152654902D01*
X101900330Y-152684212D01*
X101922542Y-152717457D01*
X101939219Y-152728599D01*
X101955787Y-152739669D01*
X101955790Y-152739669D01*
X101955791Y-152739670D01*
X101965647Y-152741630D01*
X101985101Y-152745500D01*
X103654898Y-152745499D01*
X103684213Y-152739669D01*
X103717457Y-152717457D01*
X103739669Y-152684213D01*
X103745500Y-152654899D01*
X103745499Y-150985102D01*
X103739669Y-150955787D01*
X103739668Y-150955785D01*
X103717457Y-150922542D01*
X103684214Y-150900332D01*
X103684215Y-150900332D01*
X103684213Y-150900331D01*
X103684211Y-150900330D01*
X103684208Y-150900329D01*
X103654901Y-150894500D01*
X101985105Y-150894500D01*
X101985097Y-150894501D01*
X101955787Y-150900330D01*
X101922542Y-150922542D01*
X101900332Y-150955785D01*
X101900329Y-150955791D01*
X101894500Y-150985098D01*
X100801348Y-150985098D01*
X100895118Y-150891328D01*
X100920635Y-150865810D01*
X100920634Y-150865809D01*
X100909635Y-150857816D01*
X100909621Y-150857808D01*
X100751855Y-150777423D01*
X100751847Y-150777419D01*
X100583439Y-150722701D01*
X100408544Y-150695000D01*
X100231456Y-150695000D01*
X100056560Y-150722701D01*
X99888152Y-150777419D01*
X99888149Y-150777421D01*
X99730366Y-150857815D01*
X99719364Y-150865809D01*
X99719363Y-150865810D01*
X100149766Y-151296212D01*
X100107708Y-151307482D01*
X99982292Y-151379890D01*
X99879890Y-151482292D01*
X99807482Y-151607708D01*
X99796212Y-151649765D01*
X99365810Y-151219363D01*
X99365809Y-151219364D01*
X99357815Y-151230366D01*
X99277421Y-151388149D01*
X99277419Y-151388152D01*
X99222701Y-151556560D01*
X99195000Y-151731455D01*
X77900500Y-151731455D01*
X77900500Y-150080691D01*
X78879500Y-150080691D01*
X78879500Y-150199309D01*
X78910201Y-150313886D01*
X78969511Y-150416613D01*
X79053387Y-150500489D01*
X79156114Y-150559799D01*
X79270691Y-150590500D01*
X79270694Y-150590500D01*
X79389306Y-150590500D01*
X79389309Y-150590500D01*
X79503886Y-150559799D01*
X79606613Y-150500489D01*
X79690489Y-150416613D01*
X79749799Y-150313886D01*
X79780500Y-150199309D01*
X79780500Y-150080691D01*
X79756384Y-149990691D01*
X106879500Y-149990691D01*
X106879500Y-150109309D01*
X106910201Y-150223886D01*
X106969511Y-150326613D01*
X107053387Y-150410489D01*
X107156114Y-150469799D01*
X107270691Y-150500500D01*
X107270694Y-150500500D01*
X107389306Y-150500500D01*
X107389309Y-150500500D01*
X107503886Y-150469799D01*
X107606613Y-150410489D01*
X107690489Y-150326613D01*
X107749799Y-150223886D01*
X107780500Y-150109309D01*
X107780500Y-149990691D01*
X107749799Y-149876114D01*
X107690489Y-149773387D01*
X107606613Y-149689511D01*
X107503886Y-149630201D01*
X107389309Y-149599500D01*
X107270691Y-149599500D01*
X107156114Y-149630201D01*
X107156112Y-149630201D01*
X107156112Y-149630202D01*
X107053387Y-149689511D01*
X107053384Y-149689513D01*
X106969513Y-149773384D01*
X106969511Y-149773387D01*
X106910201Y-149876114D01*
X106879500Y-149990691D01*
X79756384Y-149990691D01*
X79749799Y-149966114D01*
X79690489Y-149863387D01*
X79606613Y-149779511D01*
X79503886Y-149720201D01*
X79389309Y-149689500D01*
X79270691Y-149689500D01*
X79156114Y-149720201D01*
X79156112Y-149720201D01*
X79156112Y-149720202D01*
X79053387Y-149779511D01*
X79053384Y-149779513D01*
X78969513Y-149863384D01*
X78969511Y-149863387D01*
X78910201Y-149966114D01*
X78879500Y-150080691D01*
X77900500Y-150080691D01*
X77900500Y-148017339D01*
X86360000Y-148017339D01*
X86360000Y-149222660D01*
X86387259Y-149324393D01*
X86387260Y-149324396D01*
X86439917Y-149415602D01*
X86439921Y-149415607D01*
X86514392Y-149490078D01*
X86514397Y-149490082D01*
X86605603Y-149542739D01*
X86605606Y-149542740D01*
X86707339Y-149569999D01*
X86707341Y-149570000D01*
X86812659Y-149570000D01*
X86812660Y-149569999D01*
X86914393Y-149542740D01*
X86914396Y-149542739D01*
X87005602Y-149490082D01*
X87005607Y-149490078D01*
X87080078Y-149415607D01*
X87080082Y-149415602D01*
X87132739Y-149324396D01*
X87132740Y-149324393D01*
X87159999Y-149222660D01*
X87160000Y-149222659D01*
X87160000Y-149058389D01*
X87564500Y-149058389D01*
X87564500Y-149181610D01*
X87588535Y-149302444D01*
X87588538Y-149302454D01*
X87635687Y-149416283D01*
X87635692Y-149416292D01*
X87704141Y-149518732D01*
X87704144Y-149518736D01*
X87791263Y-149605855D01*
X87791267Y-149605858D01*
X87893707Y-149674307D01*
X87893713Y-149674310D01*
X87893714Y-149674311D01*
X88007548Y-149721463D01*
X88128389Y-149745499D01*
X88128393Y-149745500D01*
X88128394Y-149745500D01*
X88251607Y-149745500D01*
X88251608Y-149745499D01*
X88372452Y-149721463D01*
X88486286Y-149674311D01*
X88588733Y-149605858D01*
X88675858Y-149518733D01*
X88741399Y-149420643D01*
X88795011Y-149375839D01*
X88864336Y-149367132D01*
X88927363Y-149397286D01*
X88932182Y-149401854D01*
X88960817Y-149430489D01*
X89063544Y-149489799D01*
X89178121Y-149520500D01*
X89178124Y-149520500D01*
X89296736Y-149520500D01*
X89296739Y-149520500D01*
X89411316Y-149489799D01*
X89514043Y-149430489D01*
X89597919Y-149346613D01*
X89657229Y-149243886D01*
X89687930Y-149129309D01*
X89687930Y-149040691D01*
X92439500Y-149040691D01*
X92439500Y-149159309D01*
X92470201Y-149273886D01*
X92529511Y-149376613D01*
X92613387Y-149460489D01*
X92716114Y-149519799D01*
X92830691Y-149550500D01*
X92830694Y-149550500D01*
X92949306Y-149550500D01*
X92949309Y-149550500D01*
X93063886Y-149519799D01*
X93166613Y-149460489D01*
X93226791Y-149400310D01*
X93288110Y-149366828D01*
X93357802Y-149371812D01*
X93413736Y-149413683D01*
X93417571Y-149419103D01*
X93484141Y-149518732D01*
X93484144Y-149518736D01*
X93571263Y-149605855D01*
X93571267Y-149605858D01*
X93673707Y-149674307D01*
X93673713Y-149674310D01*
X93673714Y-149674311D01*
X93787548Y-149721463D01*
X93908389Y-149745499D01*
X93908393Y-149745500D01*
X93908394Y-149745500D01*
X94031607Y-149745500D01*
X94031608Y-149745499D01*
X94152452Y-149721463D01*
X94266286Y-149674311D01*
X94368733Y-149605858D01*
X94455858Y-149518733D01*
X94524311Y-149416286D01*
X94571463Y-149302452D01*
X94595500Y-149181606D01*
X94595500Y-149058394D01*
X94571463Y-148937548D01*
X94524311Y-148823714D01*
X94524310Y-148823713D01*
X94524307Y-148823707D01*
X94455858Y-148721267D01*
X94455855Y-148721263D01*
X94368736Y-148634144D01*
X94368732Y-148634141D01*
X94266292Y-148565692D01*
X94266283Y-148565687D01*
X94152454Y-148518538D01*
X94152455Y-148518538D01*
X94152452Y-148518537D01*
X94152448Y-148518536D01*
X94152444Y-148518535D01*
X94031610Y-148494500D01*
X94031606Y-148494500D01*
X93908394Y-148494500D01*
X93908389Y-148494500D01*
X93787555Y-148518535D01*
X93787545Y-148518538D01*
X93673716Y-148565687D01*
X93673707Y-148565692D01*
X93571267Y-148634141D01*
X93571263Y-148634144D01*
X93484144Y-148721263D01*
X93484139Y-148721270D01*
X93433591Y-148796918D01*
X93379978Y-148841723D01*
X93310653Y-148850429D01*
X93247626Y-148820273D01*
X93242809Y-148815707D01*
X93166615Y-148739513D01*
X93166613Y-148739511D01*
X93063886Y-148680201D01*
X92949309Y-148649500D01*
X92830691Y-148649500D01*
X92716114Y-148680201D01*
X92716112Y-148680201D01*
X92716112Y-148680202D01*
X92613387Y-148739511D01*
X92613384Y-148739513D01*
X92529513Y-148823384D01*
X92529511Y-148823387D01*
X92470201Y-148926114D01*
X92439500Y-149040691D01*
X89687930Y-149040691D01*
X89687930Y-149010691D01*
X89657229Y-148896114D01*
X89597919Y-148793387D01*
X89514043Y-148709511D01*
X89411316Y-148650201D01*
X89296739Y-148619500D01*
X89178121Y-148619500D01*
X89063544Y-148650201D01*
X89063542Y-148650201D01*
X89063542Y-148650202D01*
X88960817Y-148709511D01*
X88892127Y-148778201D01*
X88830803Y-148811685D01*
X88761112Y-148806700D01*
X88705178Y-148764829D01*
X88701355Y-148759426D01*
X88675858Y-148721267D01*
X88675856Y-148721264D01*
X88588736Y-148634144D01*
X88588732Y-148634141D01*
X88486292Y-148565692D01*
X88486283Y-148565687D01*
X88372454Y-148518538D01*
X88372455Y-148518538D01*
X88372452Y-148518537D01*
X88372448Y-148518536D01*
X88372444Y-148518535D01*
X88251610Y-148494500D01*
X88251606Y-148494500D01*
X88128394Y-148494500D01*
X88128389Y-148494500D01*
X88007555Y-148518535D01*
X88007545Y-148518538D01*
X87893716Y-148565687D01*
X87893707Y-148565692D01*
X87791267Y-148634141D01*
X87791263Y-148634144D01*
X87704144Y-148721263D01*
X87704141Y-148721267D01*
X87635692Y-148823707D01*
X87635687Y-148823716D01*
X87588538Y-148937545D01*
X87588535Y-148937555D01*
X87564500Y-149058389D01*
X87160000Y-149058389D01*
X87160000Y-148017341D01*
X87159999Y-148017339D01*
X95000000Y-148017339D01*
X95000000Y-149222660D01*
X95027259Y-149324393D01*
X95027260Y-149324396D01*
X95079917Y-149415602D01*
X95079921Y-149415607D01*
X95154392Y-149490078D01*
X95154397Y-149490082D01*
X95245603Y-149542739D01*
X95245606Y-149542740D01*
X95347339Y-149569999D01*
X95347341Y-149570000D01*
X95452659Y-149570000D01*
X95452660Y-149569999D01*
X95554393Y-149542740D01*
X95554396Y-149542739D01*
X95645602Y-149490082D01*
X95645607Y-149490078D01*
X95720078Y-149415607D01*
X95720082Y-149415602D01*
X95772739Y-149324396D01*
X95772740Y-149324393D01*
X95799999Y-149222660D01*
X95800000Y-149222659D01*
X95800000Y-148017341D01*
X95799999Y-148017339D01*
X95772740Y-147915606D01*
X95772739Y-147915603D01*
X95720082Y-147824397D01*
X95720078Y-147824392D01*
X95645607Y-147749921D01*
X95645602Y-147749917D01*
X95554396Y-147697260D01*
X95554393Y-147697259D01*
X95452660Y-147670000D01*
X95347339Y-147670000D01*
X95245606Y-147697259D01*
X95245603Y-147697260D01*
X95154397Y-147749917D01*
X95154392Y-147749921D01*
X95079921Y-147824392D01*
X95079917Y-147824397D01*
X95027260Y-147915603D01*
X95027259Y-147915606D01*
X95000000Y-148017339D01*
X87159999Y-148017339D01*
X87132740Y-147915606D01*
X87132739Y-147915603D01*
X87080082Y-147824397D01*
X87080078Y-147824392D01*
X87005607Y-147749921D01*
X87005602Y-147749917D01*
X86914396Y-147697260D01*
X86914393Y-147697259D01*
X86812660Y-147670000D01*
X86707339Y-147670000D01*
X86605606Y-147697259D01*
X86605603Y-147697260D01*
X86514397Y-147749917D01*
X86514392Y-147749921D01*
X86439921Y-147824392D01*
X86439917Y-147824397D01*
X86387260Y-147915603D01*
X86387259Y-147915606D01*
X86360000Y-148017339D01*
X77900500Y-148017339D01*
X77900500Y-146840691D01*
X88249500Y-146840691D01*
X88249500Y-146959309D01*
X88280201Y-147073886D01*
X88339511Y-147176613D01*
X88423387Y-147260489D01*
X88526114Y-147319799D01*
X88640691Y-147350500D01*
X88640694Y-147350500D01*
X88759306Y-147350500D01*
X88759309Y-147350500D01*
X88873886Y-147319799D01*
X88976613Y-147260489D01*
X89060489Y-147176613D01*
X89119799Y-147073886D01*
X89142091Y-146990691D01*
X93029500Y-146990691D01*
X93029500Y-147109309D01*
X93060201Y-147223886D01*
X93119511Y-147326613D01*
X93203387Y-147410489D01*
X93306114Y-147469799D01*
X93420691Y-147500500D01*
X93420694Y-147500500D01*
X93539306Y-147500500D01*
X93539309Y-147500500D01*
X93653886Y-147469799D01*
X93756613Y-147410489D01*
X93840489Y-147326613D01*
X93899799Y-147223886D01*
X93930500Y-147109309D01*
X93930500Y-146990691D01*
X93899799Y-146876114D01*
X93840489Y-146773387D01*
X93756613Y-146689511D01*
X93653886Y-146630201D01*
X93539309Y-146599500D01*
X93420691Y-146599500D01*
X93306114Y-146630201D01*
X93306112Y-146630201D01*
X93306112Y-146630202D01*
X93203387Y-146689511D01*
X93203384Y-146689513D01*
X93119513Y-146773384D01*
X93119511Y-146773387D01*
X93080652Y-146840693D01*
X93060201Y-146876114D01*
X93029500Y-146990691D01*
X89142091Y-146990691D01*
X89150500Y-146959309D01*
X89150500Y-146840691D01*
X89119799Y-146726114D01*
X89060489Y-146623387D01*
X88976613Y-146539511D01*
X88873886Y-146480201D01*
X88759309Y-146449500D01*
X88640691Y-146449500D01*
X88526114Y-146480201D01*
X88526112Y-146480201D01*
X88526112Y-146480202D01*
X88423387Y-146539511D01*
X88423384Y-146539513D01*
X88339513Y-146623384D01*
X88339511Y-146623387D01*
X88280201Y-146726114D01*
X88249500Y-146840691D01*
X77900500Y-146840691D01*
X77900500Y-145590691D01*
X85699500Y-145590691D01*
X85699500Y-145709309D01*
X85730201Y-145823886D01*
X85789511Y-145926613D01*
X85873387Y-146010489D01*
X85976114Y-146069799D01*
X86090691Y-146100500D01*
X86090694Y-146100500D01*
X86209306Y-146100500D01*
X86209309Y-146100500D01*
X86323886Y-146069799D01*
X86426613Y-146010489D01*
X86496411Y-145940691D01*
X89769500Y-145940691D01*
X89769500Y-146059309D01*
X89800201Y-146173886D01*
X89859511Y-146276613D01*
X89943387Y-146360489D01*
X90046114Y-146419799D01*
X90160691Y-146450500D01*
X90160694Y-146450500D01*
X90279306Y-146450500D01*
X90279309Y-146450500D01*
X90393886Y-146419799D01*
X90496613Y-146360489D01*
X90522319Y-146334783D01*
X90583642Y-146301298D01*
X90653334Y-146306282D01*
X90697681Y-146334783D01*
X90723387Y-146360489D01*
X90826114Y-146419799D01*
X90940691Y-146450500D01*
X90940694Y-146450500D01*
X91059306Y-146450500D01*
X91059309Y-146450500D01*
X91173886Y-146419799D01*
X91276613Y-146360489D01*
X91360489Y-146276613D01*
X91419799Y-146173886D01*
X91450500Y-146059309D01*
X91450500Y-145940691D01*
X91419799Y-145826114D01*
X91360489Y-145723387D01*
X91276613Y-145639511D01*
X91173886Y-145580201D01*
X91059309Y-145549500D01*
X90940691Y-145549500D01*
X90826114Y-145580201D01*
X90826112Y-145580201D01*
X90826112Y-145580202D01*
X90723387Y-145639511D01*
X90723384Y-145639513D01*
X90697681Y-145665217D01*
X90636358Y-145698702D01*
X90566666Y-145693718D01*
X90522319Y-145665217D01*
X90496615Y-145639513D01*
X90496613Y-145639511D01*
X90393886Y-145580201D01*
X90279309Y-145549500D01*
X90160691Y-145549500D01*
X90046114Y-145580201D01*
X90046112Y-145580201D01*
X90046112Y-145580202D01*
X89943387Y-145639511D01*
X89943384Y-145639513D01*
X89859513Y-145723384D01*
X89859511Y-145723387D01*
X89801486Y-145823889D01*
X89800201Y-145826114D01*
X89769500Y-145940691D01*
X86496411Y-145940691D01*
X86510489Y-145926613D01*
X86511554Y-145924767D01*
X86542851Y-145870563D01*
X86564955Y-145832274D01*
X86569799Y-145823886D01*
X86600500Y-145709309D01*
X86600500Y-145590691D01*
X86569799Y-145476114D01*
X86510489Y-145373387D01*
X86426613Y-145289511D01*
X86323886Y-145230201D01*
X86209309Y-145199500D01*
X86090691Y-145199500D01*
X85976114Y-145230201D01*
X85976112Y-145230201D01*
X85976112Y-145230202D01*
X85873387Y-145289511D01*
X85873384Y-145289513D01*
X85789513Y-145373384D01*
X85789511Y-145373387D01*
X85730201Y-145476114D01*
X85699500Y-145590691D01*
X77900500Y-145590691D01*
X77900500Y-144840691D01*
X86699500Y-144840691D01*
X86699500Y-144959309D01*
X86730201Y-145073886D01*
X86789511Y-145176613D01*
X86873387Y-145260489D01*
X86976114Y-145319799D01*
X87090691Y-145350500D01*
X87090694Y-145350500D01*
X87209306Y-145350500D01*
X87209309Y-145350500D01*
X87323886Y-145319799D01*
X87426613Y-145260489D01*
X87510489Y-145176613D01*
X87569799Y-145073886D01*
X87600500Y-144959309D01*
X87600500Y-144840691D01*
X87569799Y-144726114D01*
X87510489Y-144623387D01*
X87426613Y-144539511D01*
X87323886Y-144480201D01*
X87209309Y-144449500D01*
X87090691Y-144449500D01*
X86976114Y-144480201D01*
X86976112Y-144480201D01*
X86976112Y-144480202D01*
X86873387Y-144539511D01*
X86873384Y-144539513D01*
X86789513Y-144623384D01*
X86789511Y-144623387D01*
X86730201Y-144726114D01*
X86699500Y-144840691D01*
X77900500Y-144840691D01*
X77900500Y-144090691D01*
X85699500Y-144090691D01*
X85699500Y-144209309D01*
X85730201Y-144323886D01*
X85789511Y-144426613D01*
X85873387Y-144510489D01*
X85976114Y-144569799D01*
X86090691Y-144600500D01*
X86090694Y-144600500D01*
X86209306Y-144600500D01*
X86209309Y-144600500D01*
X86323886Y-144569799D01*
X86426613Y-144510489D01*
X86510489Y-144426613D01*
X86569799Y-144323886D01*
X86600500Y-144209309D01*
X86600500Y-144090691D01*
X86569799Y-143976114D01*
X86510489Y-143873387D01*
X86426613Y-143789511D01*
X86323886Y-143730201D01*
X86209309Y-143699500D01*
X86090691Y-143699500D01*
X85976114Y-143730201D01*
X85976112Y-143730201D01*
X85976112Y-143730202D01*
X85873387Y-143789511D01*
X85873384Y-143789513D01*
X85789513Y-143873384D01*
X85789511Y-143873387D01*
X85730201Y-143976114D01*
X85699500Y-144090691D01*
X77900500Y-144090691D01*
X77900500Y-143340691D01*
X86699500Y-143340691D01*
X86699500Y-143459309D01*
X86730201Y-143573886D01*
X86789511Y-143676613D01*
X86873387Y-143760489D01*
X86976114Y-143819799D01*
X87090691Y-143850500D01*
X87090694Y-143850500D01*
X87209306Y-143850500D01*
X87209309Y-143850500D01*
X87323886Y-143819799D01*
X87426613Y-143760489D01*
X87510489Y-143676613D01*
X87569799Y-143573886D01*
X87600500Y-143459309D01*
X87600500Y-143340691D01*
X87573705Y-143240691D01*
X93551500Y-143240691D01*
X93551500Y-143359309D01*
X93582201Y-143473886D01*
X93641511Y-143576613D01*
X93725387Y-143660489D01*
X93828114Y-143719799D01*
X93942691Y-143750500D01*
X93942694Y-143750500D01*
X94061306Y-143750500D01*
X94061309Y-143750500D01*
X94175886Y-143719799D01*
X94278613Y-143660489D01*
X94362489Y-143576613D01*
X94421799Y-143473886D01*
X94452500Y-143359309D01*
X94452500Y-143240691D01*
X101549500Y-143240691D01*
X101549500Y-143359309D01*
X101580201Y-143473886D01*
X101639511Y-143576613D01*
X101723387Y-143660489D01*
X101826114Y-143719799D01*
X101940691Y-143750500D01*
X101940694Y-143750500D01*
X102059306Y-143750500D01*
X102059309Y-143750500D01*
X102173886Y-143719799D01*
X102276613Y-143660489D01*
X102360489Y-143576613D01*
X102419799Y-143473886D01*
X102450500Y-143359309D01*
X102450500Y-143240691D01*
X102419799Y-143126114D01*
X102360489Y-143023387D01*
X102276613Y-142939511D01*
X102173886Y-142880201D01*
X102059309Y-142849500D01*
X101940691Y-142849500D01*
X101826114Y-142880201D01*
X101826112Y-142880201D01*
X101826112Y-142880202D01*
X101723387Y-142939511D01*
X101723384Y-142939513D01*
X101639513Y-143023384D01*
X101639511Y-143023387D01*
X101580201Y-143126114D01*
X101549500Y-143240691D01*
X94452500Y-143240691D01*
X94421799Y-143126114D01*
X94362489Y-143023387D01*
X94278613Y-142939511D01*
X94175886Y-142880201D01*
X94061309Y-142849500D01*
X93942691Y-142849500D01*
X93828114Y-142880201D01*
X93828112Y-142880201D01*
X93828112Y-142880202D01*
X93725387Y-142939511D01*
X93725384Y-142939513D01*
X93641513Y-143023384D01*
X93641511Y-143023387D01*
X93582201Y-143126114D01*
X93551500Y-143240691D01*
X87573705Y-143240691D01*
X87569799Y-143226114D01*
X87510489Y-143123387D01*
X87426613Y-143039511D01*
X87323886Y-142980201D01*
X87209309Y-142949500D01*
X87090691Y-142949500D01*
X86976114Y-142980201D01*
X86976112Y-142980201D01*
X86976112Y-142980202D01*
X86873387Y-143039511D01*
X86873384Y-143039513D01*
X86789513Y-143123384D01*
X86789511Y-143123387D01*
X86730201Y-143226114D01*
X86699500Y-143340691D01*
X77900500Y-143340691D01*
X77900500Y-142590691D01*
X85699500Y-142590691D01*
X85699500Y-142709309D01*
X85730201Y-142823886D01*
X85789511Y-142926613D01*
X85873387Y-143010489D01*
X85976114Y-143069799D01*
X86090691Y-143100500D01*
X86090694Y-143100500D01*
X86209306Y-143100500D01*
X86209309Y-143100500D01*
X86323886Y-143069799D01*
X86426613Y-143010489D01*
X86510489Y-142926613D01*
X86569799Y-142823886D01*
X86600500Y-142709309D01*
X86600500Y-142590691D01*
X86569799Y-142476114D01*
X86510489Y-142373387D01*
X86426613Y-142289511D01*
X86342055Y-142240691D01*
X102849500Y-142240691D01*
X102849500Y-142359309D01*
X102880201Y-142473886D01*
X102939511Y-142576613D01*
X103023387Y-142660489D01*
X103079027Y-142692613D01*
X103127242Y-142743181D01*
X103140464Y-142811788D01*
X103114496Y-142876653D01*
X103079027Y-142907387D01*
X103023387Y-142939511D01*
X103023384Y-142939513D01*
X102939513Y-143023384D01*
X102939511Y-143023387D01*
X102880201Y-143126114D01*
X102849500Y-143240691D01*
X102849500Y-143359309D01*
X102880201Y-143473886D01*
X102939511Y-143576613D01*
X103023387Y-143660489D01*
X103126114Y-143719799D01*
X103240691Y-143750500D01*
X103240694Y-143750500D01*
X103359306Y-143750500D01*
X103359309Y-143750500D01*
X103473886Y-143719799D01*
X103576613Y-143660489D01*
X103660489Y-143576613D01*
X103719799Y-143473886D01*
X103750500Y-143359309D01*
X103750500Y-143240691D01*
X103719799Y-143126114D01*
X103660489Y-143023387D01*
X103576613Y-142939511D01*
X103520972Y-142907386D01*
X103472757Y-142856820D01*
X103459535Y-142788213D01*
X103485503Y-142723348D01*
X103520973Y-142692613D01*
X103576613Y-142660489D01*
X103660489Y-142576613D01*
X103719799Y-142473886D01*
X103750500Y-142359309D01*
X103750500Y-142240691D01*
X103719799Y-142126114D01*
X103660489Y-142023387D01*
X103576613Y-141939511D01*
X103473886Y-141880201D01*
X103359309Y-141849500D01*
X103240691Y-141849500D01*
X103126114Y-141880201D01*
X103126112Y-141880201D01*
X103126112Y-141880202D01*
X103023387Y-141939511D01*
X103023384Y-141939513D01*
X102939513Y-142023384D01*
X102939511Y-142023387D01*
X102880201Y-142126114D01*
X102849500Y-142240691D01*
X86342055Y-142240691D01*
X86323886Y-142230201D01*
X86209309Y-142199500D01*
X86090691Y-142199500D01*
X85976114Y-142230201D01*
X85976112Y-142230201D01*
X85976112Y-142230202D01*
X85873387Y-142289511D01*
X85873384Y-142289513D01*
X85789513Y-142373384D01*
X85789511Y-142373387D01*
X85730201Y-142476114D01*
X85699500Y-142590691D01*
X77900500Y-142590691D01*
X77900500Y-141040691D01*
X94949500Y-141040691D01*
X94949500Y-141159309D01*
X94980201Y-141273886D01*
X95039511Y-141376613D01*
X95123387Y-141460489D01*
X95226114Y-141519799D01*
X95340691Y-141550500D01*
X95340694Y-141550500D01*
X95459306Y-141550500D01*
X95459309Y-141550500D01*
X95573886Y-141519799D01*
X95676613Y-141460489D01*
X95760489Y-141376613D01*
X95819799Y-141273886D01*
X95850500Y-141159309D01*
X95850500Y-141040691D01*
X95819799Y-140926114D01*
X95760489Y-140823387D01*
X95676613Y-140739511D01*
X95573886Y-140680201D01*
X95459309Y-140649500D01*
X95340691Y-140649500D01*
X95226114Y-140680201D01*
X95226112Y-140680201D01*
X95226112Y-140680202D01*
X95123387Y-140739511D01*
X95123384Y-140739513D01*
X95039513Y-140823384D01*
X95039511Y-140823387D01*
X94980201Y-140926114D01*
X94949500Y-141040691D01*
X77900500Y-141040691D01*
X77900500Y-139820691D01*
X84179500Y-139820691D01*
X84179500Y-139939309D01*
X84210201Y-140053886D01*
X84269511Y-140156613D01*
X84353387Y-140240489D01*
X84456114Y-140299799D01*
X84570691Y-140330500D01*
X84570694Y-140330500D01*
X84689306Y-140330500D01*
X84689309Y-140330500D01*
X84803886Y-140299799D01*
X84906613Y-140240489D01*
X84990489Y-140156613D01*
X85049799Y-140053886D01*
X85080500Y-139939309D01*
X85080500Y-139820691D01*
X85049799Y-139706114D01*
X84990489Y-139603387D01*
X84906613Y-139519511D01*
X84803886Y-139460201D01*
X84689309Y-139429500D01*
X84570691Y-139429500D01*
X84456114Y-139460201D01*
X84456112Y-139460201D01*
X84456112Y-139460202D01*
X84353387Y-139519511D01*
X84353384Y-139519513D01*
X84269513Y-139603384D01*
X84269511Y-139603387D01*
X84210201Y-139706114D01*
X84179500Y-139820691D01*
X77900500Y-139820691D01*
X77900500Y-138410691D01*
X105969500Y-138410691D01*
X105969500Y-138529309D01*
X106000201Y-138643886D01*
X106059511Y-138746613D01*
X106143387Y-138830489D01*
X106246114Y-138889799D01*
X106360691Y-138920500D01*
X106360694Y-138920500D01*
X106479306Y-138920500D01*
X106479309Y-138920500D01*
X106593886Y-138889799D01*
X106696613Y-138830489D01*
X106780489Y-138746613D01*
X106839799Y-138643886D01*
X106870500Y-138529309D01*
X106870500Y-138410691D01*
X106839799Y-138296114D01*
X106780489Y-138193387D01*
X106696613Y-138109511D01*
X106593886Y-138050201D01*
X106479309Y-138019500D01*
X106360691Y-138019500D01*
X106246114Y-138050201D01*
X106246112Y-138050201D01*
X106246112Y-138050202D01*
X106143387Y-138109511D01*
X106143384Y-138109513D01*
X106059513Y-138193384D01*
X106059511Y-138193387D01*
X106000201Y-138296114D01*
X105969500Y-138410691D01*
X77900500Y-138410691D01*
X77900500Y-137220691D01*
X80479500Y-137220691D01*
X80479500Y-137339309D01*
X80510201Y-137453886D01*
X80569511Y-137556613D01*
X80653387Y-137640489D01*
X80756114Y-137699799D01*
X80870691Y-137730500D01*
X80870694Y-137730500D01*
X80989306Y-137730500D01*
X80989309Y-137730500D01*
X81103886Y-137699799D01*
X81206613Y-137640489D01*
X81290489Y-137556613D01*
X81349799Y-137453886D01*
X81380500Y-137339309D01*
X81380500Y-137220691D01*
X81359064Y-137140691D01*
X85349500Y-137140691D01*
X85349500Y-137259309D01*
X85380201Y-137373886D01*
X85439511Y-137476613D01*
X85523387Y-137560489D01*
X85626114Y-137619799D01*
X85740691Y-137650500D01*
X85740694Y-137650500D01*
X85859306Y-137650500D01*
X85859309Y-137650500D01*
X85973886Y-137619799D01*
X86076613Y-137560489D01*
X86160489Y-137476613D01*
X86219799Y-137373886D01*
X86250500Y-137259309D01*
X86250500Y-137140691D01*
X87649500Y-137140691D01*
X87649500Y-137259309D01*
X87680201Y-137373886D01*
X87739511Y-137476613D01*
X87823387Y-137560489D01*
X87926114Y-137619799D01*
X88040691Y-137650500D01*
X88040694Y-137650500D01*
X88159306Y-137650500D01*
X88159309Y-137650500D01*
X88273886Y-137619799D01*
X88376613Y-137560489D01*
X88460489Y-137476613D01*
X88519799Y-137373886D01*
X88550500Y-137259309D01*
X88550500Y-137140691D01*
X88519799Y-137026114D01*
X88460489Y-136923387D01*
X88376613Y-136839511D01*
X88273886Y-136780201D01*
X88159309Y-136749500D01*
X88040691Y-136749500D01*
X87926114Y-136780201D01*
X87926112Y-136780201D01*
X87926112Y-136780202D01*
X87823387Y-136839511D01*
X87823384Y-136839513D01*
X87739513Y-136923384D01*
X87739511Y-136923387D01*
X87693323Y-137003387D01*
X87680201Y-137026114D01*
X87649500Y-137140691D01*
X86250500Y-137140691D01*
X86219799Y-137026114D01*
X86160489Y-136923387D01*
X86076613Y-136839511D01*
X85973886Y-136780201D01*
X85859309Y-136749500D01*
X85740691Y-136749500D01*
X85626114Y-136780201D01*
X85626112Y-136780201D01*
X85626112Y-136780202D01*
X85523387Y-136839511D01*
X85523384Y-136839513D01*
X85439513Y-136923384D01*
X85439511Y-136923387D01*
X85393323Y-137003387D01*
X85380201Y-137026114D01*
X85349500Y-137140691D01*
X81359064Y-137140691D01*
X81349799Y-137106114D01*
X81290489Y-137003387D01*
X81206613Y-136919511D01*
X81103886Y-136860201D01*
X80989309Y-136829500D01*
X80870691Y-136829500D01*
X80756114Y-136860201D01*
X80756112Y-136860201D01*
X80756112Y-136860202D01*
X80653387Y-136919511D01*
X80653384Y-136919513D01*
X80569513Y-137003384D01*
X80569511Y-137003387D01*
X80510201Y-137106114D01*
X80479500Y-137220691D01*
X77900500Y-137220691D01*
X77900500Y-136572820D01*
X107644774Y-136572820D01*
X107644774Y-136691438D01*
X107675475Y-136806015D01*
X107734785Y-136908742D01*
X107818661Y-136992618D01*
X107921388Y-137051928D01*
X108035965Y-137082629D01*
X108035968Y-137082629D01*
X108154580Y-137082629D01*
X108154583Y-137082629D01*
X108269160Y-137051928D01*
X108371887Y-136992618D01*
X108455763Y-136908742D01*
X108515073Y-136806015D01*
X108545774Y-136691438D01*
X108545774Y-136572820D01*
X108515073Y-136458243D01*
X108455763Y-136355516D01*
X108371887Y-136271640D01*
X108269160Y-136212330D01*
X108154583Y-136181629D01*
X108035965Y-136181629D01*
X107921388Y-136212330D01*
X107921386Y-136212330D01*
X107921386Y-136212331D01*
X107818661Y-136271640D01*
X107818658Y-136271642D01*
X107734787Y-136355513D01*
X107734785Y-136355516D01*
X107693023Y-136427850D01*
X107675475Y-136458243D01*
X107644774Y-136572820D01*
X77900500Y-136572820D01*
X77900500Y-135540691D01*
X86549500Y-135540691D01*
X86549500Y-135659309D01*
X86580201Y-135773886D01*
X86639511Y-135876613D01*
X86723387Y-135960489D01*
X86826114Y-136019799D01*
X86940691Y-136050500D01*
X86940694Y-136050500D01*
X87059306Y-136050500D01*
X87059309Y-136050500D01*
X87173886Y-136019799D01*
X87276613Y-135960489D01*
X87360489Y-135876613D01*
X87419799Y-135773886D01*
X87450500Y-135659309D01*
X87450500Y-135540691D01*
X87949500Y-135540691D01*
X87949500Y-135659309D01*
X87980201Y-135773886D01*
X88039511Y-135876613D01*
X88123387Y-135960489D01*
X88226114Y-136019799D01*
X88340691Y-136050500D01*
X88340694Y-136050500D01*
X88459306Y-136050500D01*
X88459309Y-136050500D01*
X88573886Y-136019799D01*
X88676613Y-135960489D01*
X88760489Y-135876613D01*
X88819799Y-135773886D01*
X88850500Y-135659309D01*
X88850500Y-135540691D01*
X88819799Y-135426114D01*
X88760489Y-135323387D01*
X88676613Y-135239511D01*
X88573886Y-135180201D01*
X88459309Y-135149500D01*
X88340691Y-135149500D01*
X88226114Y-135180201D01*
X88226112Y-135180201D01*
X88226112Y-135180202D01*
X88123387Y-135239511D01*
X88123384Y-135239513D01*
X88039513Y-135323384D01*
X88039511Y-135323387D01*
X87980201Y-135426114D01*
X87949500Y-135540691D01*
X87450500Y-135540691D01*
X87419799Y-135426114D01*
X87360489Y-135323387D01*
X87276613Y-135239511D01*
X87173886Y-135180201D01*
X87059309Y-135149500D01*
X86940691Y-135149500D01*
X86826114Y-135180201D01*
X86826112Y-135180201D01*
X86826112Y-135180202D01*
X86723387Y-135239511D01*
X86723384Y-135239513D01*
X86639513Y-135323384D01*
X86639511Y-135323387D01*
X86580201Y-135426114D01*
X86549500Y-135540691D01*
X77900500Y-135540691D01*
X77900500Y-134753573D01*
X93909449Y-134753573D01*
X93909449Y-134872191D01*
X93940150Y-134986768D01*
X93999460Y-135089495D01*
X94083336Y-135173371D01*
X94186063Y-135232681D01*
X94300640Y-135263382D01*
X94300643Y-135263382D01*
X94419255Y-135263382D01*
X94419258Y-135263382D01*
X94533835Y-135232681D01*
X94636562Y-135173371D01*
X94699242Y-135110691D01*
X100239500Y-135110691D01*
X100239500Y-135229309D01*
X100270201Y-135343886D01*
X100329511Y-135446613D01*
X100413387Y-135530489D01*
X100516114Y-135589799D01*
X100630691Y-135620500D01*
X100630694Y-135620500D01*
X100749306Y-135620500D01*
X100749309Y-135620500D01*
X100863886Y-135589799D01*
X100966613Y-135530489D01*
X101050489Y-135446613D01*
X101109799Y-135343886D01*
X101140500Y-135229309D01*
X101140500Y-135110691D01*
X101109799Y-134996114D01*
X101050489Y-134893387D01*
X100966613Y-134809511D01*
X100863886Y-134750201D01*
X100749309Y-134719500D01*
X100630691Y-134719500D01*
X100516114Y-134750201D01*
X100516112Y-134750201D01*
X100516112Y-134750202D01*
X100413387Y-134809511D01*
X100413384Y-134809513D01*
X100329513Y-134893384D01*
X100329511Y-134893387D01*
X100270201Y-134996114D01*
X100239500Y-135110691D01*
X94699242Y-135110691D01*
X94720438Y-135089495D01*
X94779748Y-134986768D01*
X94810449Y-134872191D01*
X94810449Y-134753573D01*
X94779748Y-134638996D01*
X94720438Y-134536269D01*
X94636562Y-134452393D01*
X94533835Y-134393083D01*
X94419258Y-134362382D01*
X94300640Y-134362382D01*
X94186063Y-134393083D01*
X94186061Y-134393083D01*
X94186061Y-134393084D01*
X94083336Y-134452393D01*
X94083333Y-134452395D01*
X93999462Y-134536266D01*
X93999460Y-134536269D01*
X93940150Y-134638996D01*
X93909449Y-134753573D01*
X77900500Y-134753573D01*
X77900500Y-134140691D01*
X86549500Y-134140691D01*
X86549500Y-134259309D01*
X86580201Y-134373886D01*
X86639511Y-134476613D01*
X86723387Y-134560489D01*
X86826114Y-134619799D01*
X86940691Y-134650500D01*
X86940694Y-134650500D01*
X87059306Y-134650500D01*
X87059309Y-134650500D01*
X87173886Y-134619799D01*
X87276613Y-134560489D01*
X87360489Y-134476613D01*
X87419799Y-134373886D01*
X87450500Y-134259309D01*
X87450500Y-134140691D01*
X87419799Y-134026114D01*
X87360489Y-133923387D01*
X87347793Y-133910691D01*
X100229500Y-133910691D01*
X100229500Y-134029309D01*
X100260201Y-134143886D01*
X100319511Y-134246613D01*
X100403387Y-134330489D01*
X100506114Y-134389799D01*
X100620691Y-134420500D01*
X100620694Y-134420500D01*
X100739306Y-134420500D01*
X100739309Y-134420500D01*
X100853886Y-134389799D01*
X100956613Y-134330489D01*
X101040489Y-134246613D01*
X101099799Y-134143886D01*
X101130500Y-134029309D01*
X101130500Y-133910691D01*
X101099799Y-133796114D01*
X101040489Y-133693387D01*
X100956613Y-133609511D01*
X100853886Y-133550201D01*
X100739309Y-133519500D01*
X100620691Y-133519500D01*
X100506114Y-133550201D01*
X100506112Y-133550201D01*
X100506112Y-133550202D01*
X100403387Y-133609511D01*
X100403384Y-133609513D01*
X100319513Y-133693384D01*
X100319511Y-133693387D01*
X100260201Y-133796114D01*
X100229500Y-133910691D01*
X87347793Y-133910691D01*
X87276613Y-133839511D01*
X87173886Y-133780201D01*
X87059309Y-133749500D01*
X86940691Y-133749500D01*
X86826114Y-133780201D01*
X86826112Y-133780201D01*
X86826112Y-133780202D01*
X86723387Y-133839511D01*
X86723384Y-133839513D01*
X86639513Y-133923384D01*
X86639511Y-133923387D01*
X86580201Y-134026114D01*
X86549500Y-134140691D01*
X77900500Y-134140691D01*
X77900500Y-132740691D01*
X86549500Y-132740691D01*
X86549500Y-132859309D01*
X86580201Y-132973886D01*
X86639511Y-133076613D01*
X86723387Y-133160489D01*
X86826114Y-133219799D01*
X86940691Y-133250500D01*
X86940694Y-133250500D01*
X87059306Y-133250500D01*
X87059309Y-133250500D01*
X87173886Y-133219799D01*
X87276613Y-133160489D01*
X87360489Y-133076613D01*
X87419799Y-132973886D01*
X87450500Y-132859309D01*
X87450500Y-132740691D01*
X87419799Y-132626114D01*
X87405121Y-132600691D01*
X98899500Y-132600691D01*
X98899500Y-132719309D01*
X98930201Y-132833886D01*
X98989511Y-132936613D01*
X99073387Y-133020489D01*
X99176114Y-133079799D01*
X99290691Y-133110500D01*
X99290694Y-133110500D01*
X99409306Y-133110500D01*
X99409309Y-133110500D01*
X99523886Y-133079799D01*
X99626613Y-133020489D01*
X99710489Y-132936613D01*
X99769799Y-132833886D01*
X99800500Y-132719309D01*
X99800500Y-132650691D01*
X100199500Y-132650691D01*
X100199500Y-132769309D01*
X100230201Y-132883886D01*
X100289511Y-132986613D01*
X100373387Y-133070489D01*
X100476114Y-133129799D01*
X100590691Y-133160500D01*
X100590694Y-133160500D01*
X100709306Y-133160500D01*
X100709309Y-133160500D01*
X100823886Y-133129799D01*
X100926613Y-133070489D01*
X101010489Y-132986613D01*
X101069799Y-132883886D01*
X101100500Y-132769309D01*
X101100500Y-132650691D01*
X101092461Y-132620691D01*
X101519500Y-132620691D01*
X101519500Y-132739309D01*
X101550201Y-132853886D01*
X101609511Y-132956613D01*
X101693387Y-133040489D01*
X101796114Y-133099799D01*
X101910691Y-133130500D01*
X101910694Y-133130500D01*
X102029306Y-133130500D01*
X102029309Y-133130500D01*
X102143886Y-133099799D01*
X102246613Y-133040489D01*
X102330489Y-132956613D01*
X102389799Y-132853886D01*
X102420500Y-132739309D01*
X102420500Y-132620691D01*
X102389799Y-132506114D01*
X102330489Y-132403387D01*
X102246613Y-132319511D01*
X102143886Y-132260201D01*
X102029309Y-132229500D01*
X101910691Y-132229500D01*
X101796114Y-132260201D01*
X101796112Y-132260201D01*
X101796112Y-132260202D01*
X101693387Y-132319511D01*
X101693384Y-132319513D01*
X101609513Y-132403384D01*
X101609511Y-132403387D01*
X101550201Y-132506114D01*
X101519500Y-132620691D01*
X101092461Y-132620691D01*
X101069799Y-132536114D01*
X101010489Y-132433387D01*
X100926613Y-132349511D01*
X100823886Y-132290201D01*
X100709309Y-132259500D01*
X100590691Y-132259500D01*
X100476114Y-132290201D01*
X100476112Y-132290201D01*
X100476112Y-132290202D01*
X100373387Y-132349511D01*
X100373384Y-132349513D01*
X100289513Y-132433384D01*
X100289511Y-132433387D01*
X100230201Y-132536114D01*
X100199500Y-132650691D01*
X99800500Y-132650691D01*
X99800500Y-132600691D01*
X99769799Y-132486114D01*
X99710489Y-132383387D01*
X99626613Y-132299511D01*
X99523886Y-132240201D01*
X99409309Y-132209500D01*
X99290691Y-132209500D01*
X99176114Y-132240201D01*
X99176112Y-132240201D01*
X99176112Y-132240202D01*
X99073387Y-132299511D01*
X99073384Y-132299513D01*
X98989513Y-132383384D01*
X98989511Y-132383387D01*
X98930201Y-132486114D01*
X98899500Y-132600691D01*
X87405121Y-132600691D01*
X87360489Y-132523387D01*
X87276613Y-132439511D01*
X87173886Y-132380201D01*
X87059309Y-132349500D01*
X86940691Y-132349500D01*
X86826114Y-132380201D01*
X86826112Y-132380201D01*
X86826112Y-132380202D01*
X86723387Y-132439511D01*
X86723384Y-132439513D01*
X86639513Y-132523384D01*
X86639511Y-132523387D01*
X86580201Y-132626114D01*
X86549500Y-132740691D01*
X77900500Y-132740691D01*
X77900500Y-130000691D01*
X82739500Y-130000691D01*
X82739500Y-130119309D01*
X82770201Y-130233886D01*
X82829511Y-130336613D01*
X82913387Y-130420489D01*
X83016114Y-130479799D01*
X83130691Y-130510500D01*
X83130694Y-130510500D01*
X83249306Y-130510500D01*
X83249309Y-130510500D01*
X83363886Y-130479799D01*
X83466613Y-130420489D01*
X83516411Y-130370691D01*
X98719500Y-130370691D01*
X98719500Y-130489309D01*
X98750201Y-130603886D01*
X98809511Y-130706613D01*
X98893387Y-130790489D01*
X98996114Y-130849799D01*
X99110691Y-130880500D01*
X99110694Y-130880500D01*
X99229306Y-130880500D01*
X99229309Y-130880500D01*
X99343886Y-130849799D01*
X99446613Y-130790489D01*
X99530489Y-130706613D01*
X99589799Y-130603886D01*
X99620500Y-130489309D01*
X99620500Y-130370691D01*
X99589799Y-130256114D01*
X99530489Y-130153387D01*
X99446613Y-130069511D01*
X99343886Y-130010201D01*
X99229309Y-129979500D01*
X99110691Y-129979500D01*
X98996114Y-130010201D01*
X98996112Y-130010201D01*
X98996112Y-130010202D01*
X98893387Y-130069511D01*
X98893384Y-130069513D01*
X98809513Y-130153384D01*
X98809511Y-130153387D01*
X98763032Y-130233891D01*
X98750201Y-130256114D01*
X98719500Y-130370691D01*
X83516411Y-130370691D01*
X83550489Y-130336613D01*
X83609799Y-130233886D01*
X83640500Y-130119309D01*
X83640500Y-130000691D01*
X83609799Y-129886114D01*
X83550489Y-129783387D01*
X83466613Y-129699511D01*
X83363886Y-129640201D01*
X83249309Y-129609500D01*
X83130691Y-129609500D01*
X83016114Y-129640201D01*
X83016112Y-129640201D01*
X83016112Y-129640202D01*
X82913387Y-129699511D01*
X82913384Y-129699513D01*
X82829513Y-129783384D01*
X82829511Y-129783387D01*
X82770201Y-129886114D01*
X82739500Y-130000691D01*
X77900500Y-130000691D01*
X77900500Y-127700691D01*
X83349500Y-127700691D01*
X83349500Y-127819309D01*
X83380201Y-127933886D01*
X83439511Y-128036613D01*
X83523387Y-128120489D01*
X83626114Y-128179799D01*
X83740691Y-128210500D01*
X83740694Y-128210500D01*
X83859306Y-128210500D01*
X83859309Y-128210500D01*
X83973886Y-128179799D01*
X84076613Y-128120489D01*
X84160489Y-128036613D01*
X84219799Y-127933886D01*
X84250500Y-127819309D01*
X84250500Y-127700691D01*
X84219799Y-127586114D01*
X84170480Y-127500691D01*
X95109500Y-127500691D01*
X95109500Y-127619309D01*
X95140201Y-127733886D01*
X95199511Y-127836613D01*
X95283387Y-127920489D01*
X95386114Y-127979799D01*
X95500691Y-128010500D01*
X95500694Y-128010500D01*
X95619306Y-128010500D01*
X95619309Y-128010500D01*
X95733886Y-127979799D01*
X95836613Y-127920489D01*
X95920489Y-127836613D01*
X95979799Y-127733886D01*
X96010500Y-127619309D01*
X96010500Y-127500691D01*
X95979799Y-127386114D01*
X95920489Y-127283387D01*
X95836613Y-127199511D01*
X95733886Y-127140201D01*
X95619309Y-127109500D01*
X95500691Y-127109500D01*
X95386114Y-127140201D01*
X95386112Y-127140201D01*
X95386112Y-127140202D01*
X95283387Y-127199511D01*
X95283384Y-127199513D01*
X95199513Y-127283384D01*
X95199511Y-127283387D01*
X95166709Y-127340202D01*
X95140201Y-127386114D01*
X95109500Y-127500691D01*
X84170480Y-127500691D01*
X84160489Y-127483387D01*
X84076613Y-127399511D01*
X83973886Y-127340201D01*
X83859309Y-127309500D01*
X83740691Y-127309500D01*
X83626114Y-127340201D01*
X83626112Y-127340201D01*
X83626112Y-127340202D01*
X83523387Y-127399511D01*
X83523384Y-127399513D01*
X83439513Y-127483384D01*
X83439511Y-127483387D01*
X83380201Y-127586114D01*
X83349500Y-127700691D01*
X77900500Y-127700691D01*
X77900500Y-126380691D01*
X80069500Y-126380691D01*
X80069500Y-126499309D01*
X80100201Y-126613886D01*
X80159511Y-126716613D01*
X80243387Y-126800489D01*
X80346114Y-126859799D01*
X80460691Y-126890500D01*
X80460694Y-126890500D01*
X80579306Y-126890500D01*
X80579309Y-126890500D01*
X80693886Y-126859799D01*
X80796613Y-126800489D01*
X80880489Y-126716613D01*
X80939799Y-126613886D01*
X80970500Y-126499309D01*
X80970500Y-126380691D01*
X80967820Y-126370691D01*
X82479500Y-126370691D01*
X82479500Y-126489309D01*
X82510201Y-126603886D01*
X82569511Y-126706613D01*
X82653387Y-126790489D01*
X82756114Y-126849799D01*
X82870691Y-126880500D01*
X82870694Y-126880500D01*
X82989306Y-126880500D01*
X82989309Y-126880500D01*
X83103886Y-126849799D01*
X83206613Y-126790489D01*
X83290489Y-126706613D01*
X83349799Y-126603886D01*
X83380500Y-126489309D01*
X83380500Y-126370691D01*
X83359064Y-126290691D01*
X88289500Y-126290691D01*
X88289500Y-126409309D01*
X88320201Y-126523886D01*
X88379511Y-126626613D01*
X88463387Y-126710489D01*
X88566114Y-126769799D01*
X88680691Y-126800500D01*
X88680694Y-126800500D01*
X88799306Y-126800500D01*
X88799309Y-126800500D01*
X88913886Y-126769799D01*
X89016613Y-126710489D01*
X89100489Y-126626613D01*
X89115455Y-126600691D01*
X97349500Y-126600691D01*
X97349500Y-126719309D01*
X97380201Y-126833886D01*
X97439511Y-126936613D01*
X97523387Y-127020489D01*
X97626114Y-127079799D01*
X97740691Y-127110500D01*
X97740694Y-127110500D01*
X97859306Y-127110500D01*
X97859309Y-127110500D01*
X97973886Y-127079799D01*
X98076613Y-127020489D01*
X98160489Y-126936613D01*
X98219799Y-126833886D01*
X98250500Y-126719309D01*
X98250500Y-126600691D01*
X98243911Y-126576100D01*
X99469964Y-126576100D01*
X99469964Y-126694718D01*
X99500665Y-126809295D01*
X99559975Y-126912022D01*
X99643851Y-126995898D01*
X99746578Y-127055208D01*
X99861155Y-127085909D01*
X99861158Y-127085909D01*
X99979770Y-127085909D01*
X99979773Y-127085909D01*
X100094350Y-127055208D01*
X100197077Y-126995898D01*
X100280953Y-126912022D01*
X100340263Y-126809295D01*
X100370964Y-126694718D01*
X100370964Y-126576100D01*
X100340263Y-126461523D01*
X100280953Y-126358796D01*
X100197077Y-126274920D01*
X100094350Y-126215610D01*
X99979773Y-126184909D01*
X99861155Y-126184909D01*
X99746578Y-126215610D01*
X99746576Y-126215610D01*
X99746576Y-126215611D01*
X99643851Y-126274920D01*
X99643848Y-126274922D01*
X99559977Y-126358793D01*
X99559975Y-126358796D01*
X99500665Y-126461523D01*
X99469964Y-126576100D01*
X98243911Y-126576100D01*
X98219799Y-126486114D01*
X98160489Y-126383387D01*
X98076613Y-126299511D01*
X97973886Y-126240201D01*
X97859309Y-126209500D01*
X97740691Y-126209500D01*
X97626114Y-126240201D01*
X97626112Y-126240201D01*
X97626112Y-126240202D01*
X97523387Y-126299511D01*
X97523384Y-126299513D01*
X97439513Y-126383384D01*
X97439511Y-126383387D01*
X97424547Y-126409306D01*
X97380201Y-126486114D01*
X97349500Y-126600691D01*
X89115455Y-126600691D01*
X89159799Y-126523886D01*
X89190500Y-126409309D01*
X89190500Y-126290691D01*
X89159799Y-126176114D01*
X89100489Y-126073387D01*
X89016613Y-125989511D01*
X88913886Y-125930201D01*
X88799309Y-125899500D01*
X88680691Y-125899500D01*
X88566114Y-125930201D01*
X88566112Y-125930201D01*
X88566112Y-125930202D01*
X88463387Y-125989511D01*
X88463384Y-125989513D01*
X88379513Y-126073384D01*
X88379511Y-126073387D01*
X88333323Y-126153387D01*
X88320201Y-126176114D01*
X88289500Y-126290691D01*
X83359064Y-126290691D01*
X83349799Y-126256114D01*
X83290489Y-126153387D01*
X83206613Y-126069511D01*
X83103886Y-126010201D01*
X82989309Y-125979500D01*
X82870691Y-125979500D01*
X82756114Y-126010201D01*
X82756112Y-126010201D01*
X82756112Y-126010202D01*
X82653387Y-126069511D01*
X82653384Y-126069513D01*
X82569513Y-126153384D01*
X82569511Y-126153387D01*
X82510201Y-126256114D01*
X82479500Y-126370691D01*
X80967820Y-126370691D01*
X80939799Y-126266114D01*
X80880489Y-126163387D01*
X80796613Y-126079511D01*
X80693886Y-126020201D01*
X80579309Y-125989500D01*
X80460691Y-125989500D01*
X80346114Y-126020201D01*
X80346112Y-126020201D01*
X80346112Y-126020202D01*
X80243387Y-126079511D01*
X80243384Y-126079513D01*
X80159513Y-126163384D01*
X80159511Y-126163387D01*
X80105975Y-126256114D01*
X80100201Y-126266114D01*
X80069500Y-126380691D01*
X77900500Y-126380691D01*
X77900500Y-125320691D01*
X81549500Y-125320691D01*
X81549500Y-125439309D01*
X81580201Y-125553886D01*
X81639511Y-125656613D01*
X81723387Y-125740489D01*
X81826114Y-125799799D01*
X81940691Y-125830500D01*
X81940694Y-125830500D01*
X82059306Y-125830500D01*
X82059309Y-125830500D01*
X82173886Y-125799799D01*
X82276613Y-125740489D01*
X82360489Y-125656613D01*
X82419799Y-125553886D01*
X82450500Y-125439309D01*
X82450500Y-125320691D01*
X82419799Y-125206114D01*
X82360489Y-125103387D01*
X82276613Y-125019511D01*
X82173886Y-124960201D01*
X82059309Y-124929500D01*
X81940691Y-124929500D01*
X81826114Y-124960201D01*
X81826112Y-124960201D01*
X81826112Y-124960202D01*
X81723387Y-125019511D01*
X81723384Y-125019513D01*
X81639513Y-125103384D01*
X81639511Y-125103387D01*
X81580201Y-125206114D01*
X81549500Y-125320691D01*
X77900500Y-125320691D01*
X77900500Y-124590691D01*
X79962500Y-124590691D01*
X79962500Y-124709309D01*
X79993201Y-124823886D01*
X80052511Y-124926613D01*
X80136387Y-125010489D01*
X80239114Y-125069799D01*
X80353691Y-125100500D01*
X80353694Y-125100500D01*
X80472306Y-125100500D01*
X80472309Y-125100500D01*
X80586886Y-125069799D01*
X80689613Y-125010489D01*
X80773489Y-124926613D01*
X80832799Y-124823886D01*
X80863500Y-124709309D01*
X80863500Y-124590691D01*
X80832799Y-124476114D01*
X80773489Y-124373387D01*
X80689613Y-124289511D01*
X80586886Y-124230201D01*
X80472309Y-124199500D01*
X80353691Y-124199500D01*
X80239114Y-124230201D01*
X80239112Y-124230201D01*
X80239112Y-124230202D01*
X80136387Y-124289511D01*
X80136384Y-124289513D01*
X80052513Y-124373384D01*
X80052511Y-124373387D01*
X79993201Y-124476114D01*
X79962500Y-124590691D01*
X77900500Y-124590691D01*
X77900500Y-123530691D01*
X88119500Y-123530691D01*
X88119500Y-123649309D01*
X88150201Y-123763886D01*
X88209511Y-123866613D01*
X88293387Y-123950489D01*
X88396114Y-124009799D01*
X88510691Y-124040500D01*
X88510694Y-124040500D01*
X88629306Y-124040500D01*
X88629309Y-124040500D01*
X88743886Y-124009799D01*
X88846613Y-123950489D01*
X88930489Y-123866613D01*
X88989799Y-123763886D01*
X89020500Y-123649309D01*
X89020500Y-123550691D01*
X97199500Y-123550691D01*
X97199500Y-123669309D01*
X97230201Y-123783886D01*
X97289511Y-123886613D01*
X97373387Y-123970489D01*
X97476114Y-124029799D01*
X97590691Y-124060500D01*
X97590694Y-124060500D01*
X97709306Y-124060500D01*
X97709309Y-124060500D01*
X97823886Y-124029799D01*
X97926613Y-123970489D01*
X97982319Y-123914783D01*
X98043642Y-123881298D01*
X98113334Y-123886282D01*
X98157681Y-123914783D01*
X98159511Y-123916613D01*
X98243387Y-124000489D01*
X98346114Y-124059799D01*
X98460691Y-124090500D01*
X98460694Y-124090500D01*
X98579306Y-124090500D01*
X98579309Y-124090500D01*
X98693886Y-124059799D01*
X98796613Y-124000489D01*
X98852320Y-123944781D01*
X98913639Y-123911299D01*
X98983331Y-123916283D01*
X99027679Y-123944784D01*
X99053384Y-123970489D01*
X99156111Y-124029799D01*
X99270688Y-124060500D01*
X99270691Y-124060500D01*
X99389303Y-124060500D01*
X99389306Y-124060500D01*
X99503883Y-124029799D01*
X99606610Y-123970489D01*
X99690486Y-123886613D01*
X99749796Y-123783886D01*
X99780497Y-123669309D01*
X99780497Y-123550691D01*
X99749796Y-123436114D01*
X99690486Y-123333387D01*
X99606610Y-123249511D01*
X99503883Y-123190201D01*
X99389306Y-123159500D01*
X99270688Y-123159500D01*
X99156111Y-123190201D01*
X99156109Y-123190201D01*
X99156109Y-123190202D01*
X99053384Y-123249511D01*
X98997679Y-123305216D01*
X98936355Y-123338700D01*
X98866663Y-123333715D01*
X98822317Y-123305215D01*
X98796615Y-123279513D01*
X98796613Y-123279511D01*
X98693886Y-123220201D01*
X98579309Y-123189500D01*
X98460691Y-123189500D01*
X98346114Y-123220201D01*
X98346112Y-123220201D01*
X98346112Y-123220202D01*
X98243387Y-123279511D01*
X98243384Y-123279513D01*
X98187681Y-123335217D01*
X98126358Y-123368702D01*
X98056666Y-123363718D01*
X98012319Y-123335217D01*
X97926615Y-123249513D01*
X97926613Y-123249511D01*
X97823886Y-123190201D01*
X97709309Y-123159500D01*
X97590691Y-123159500D01*
X97476114Y-123190201D01*
X97476112Y-123190201D01*
X97476112Y-123190202D01*
X97373387Y-123249511D01*
X97373384Y-123249513D01*
X97289513Y-123333384D01*
X97289511Y-123333387D01*
X97244581Y-123411208D01*
X97230201Y-123436114D01*
X97199500Y-123550691D01*
X89020500Y-123550691D01*
X89020500Y-123530691D01*
X88989799Y-123416114D01*
X88930489Y-123313387D01*
X88846613Y-123229511D01*
X88743886Y-123170201D01*
X88639901Y-123142338D01*
X88636352Y-123141387D01*
X88629309Y-123139500D01*
X88510691Y-123139500D01*
X88396114Y-123170201D01*
X88396112Y-123170201D01*
X88396112Y-123170202D01*
X88293387Y-123229511D01*
X88293384Y-123229513D01*
X88209513Y-123313384D01*
X88209511Y-123313387D01*
X88153031Y-123411213D01*
X88150201Y-123416114D01*
X88119500Y-123530691D01*
X77900500Y-123530691D01*
X77900500Y-121838098D01*
X81857400Y-121838098D01*
X81857400Y-123381894D01*
X81857401Y-123381902D01*
X81863230Y-123411212D01*
X81885442Y-123444457D01*
X81902119Y-123455599D01*
X81918687Y-123466669D01*
X81918690Y-123466669D01*
X81918691Y-123466670D01*
X81928547Y-123468630D01*
X81948001Y-123472500D01*
X83491798Y-123472499D01*
X83521113Y-123466669D01*
X83554357Y-123444457D01*
X83576569Y-123411213D01*
X83582400Y-123381899D01*
X83582400Y-123030691D01*
X95909500Y-123030691D01*
X95909500Y-123149309D01*
X95940201Y-123263886D01*
X95999511Y-123366613D01*
X96083387Y-123450489D01*
X96186114Y-123509799D01*
X96300691Y-123540500D01*
X96300694Y-123540500D01*
X96419306Y-123540500D01*
X96419309Y-123540500D01*
X96533886Y-123509799D01*
X96636613Y-123450489D01*
X96720489Y-123366613D01*
X96779799Y-123263886D01*
X96810500Y-123149309D01*
X96810500Y-123030691D01*
X96779799Y-122916114D01*
X96720489Y-122813387D01*
X96636613Y-122729511D01*
X96533886Y-122670201D01*
X96419309Y-122639500D01*
X96300691Y-122639500D01*
X96186114Y-122670201D01*
X96186112Y-122670201D01*
X96186112Y-122670202D01*
X96083387Y-122729511D01*
X96083384Y-122729513D01*
X95999513Y-122813384D01*
X95999511Y-122813387D01*
X95940201Y-122916114D01*
X95909500Y-123030691D01*
X83582400Y-123030691D01*
X83582399Y-122150691D01*
X101709500Y-122150691D01*
X101709500Y-122269309D01*
X101740201Y-122383886D01*
X101799511Y-122486613D01*
X101883387Y-122570489D01*
X101986114Y-122629799D01*
X102100691Y-122660500D01*
X102100694Y-122660500D01*
X102219306Y-122660500D01*
X102219309Y-122660500D01*
X102333886Y-122629799D01*
X102436613Y-122570489D01*
X102520489Y-122486613D01*
X102579799Y-122383886D01*
X102610500Y-122269309D01*
X102610500Y-122150691D01*
X102579799Y-122036114D01*
X102579797Y-122036110D01*
X102578903Y-122034561D01*
X102547800Y-121980691D01*
X103189500Y-121980691D01*
X103189500Y-122099309D01*
X103220201Y-122213886D01*
X103279511Y-122316613D01*
X103363387Y-122400489D01*
X103466114Y-122459799D01*
X103580691Y-122490500D01*
X103580694Y-122490500D01*
X103699306Y-122490500D01*
X103699309Y-122490500D01*
X103813886Y-122459799D01*
X103916613Y-122400489D01*
X104000489Y-122316613D01*
X104059799Y-122213886D01*
X104090500Y-122099309D01*
X104090500Y-121980691D01*
X104059799Y-121866114D01*
X104043624Y-121838098D01*
X107257400Y-121838098D01*
X107257400Y-123381894D01*
X107257401Y-123381902D01*
X107263230Y-123411212D01*
X107285442Y-123444457D01*
X107302119Y-123455599D01*
X107318687Y-123466669D01*
X107318690Y-123466669D01*
X107318691Y-123466670D01*
X107328547Y-123468630D01*
X107348001Y-123472500D01*
X108891798Y-123472499D01*
X108921113Y-123466669D01*
X108954357Y-123444457D01*
X108976569Y-123411213D01*
X108982400Y-123381899D01*
X108982399Y-121838102D01*
X108976569Y-121808787D01*
X108976568Y-121808785D01*
X108954357Y-121775542D01*
X108921114Y-121753332D01*
X108921115Y-121753332D01*
X108921113Y-121753331D01*
X108921111Y-121753330D01*
X108921108Y-121753329D01*
X108891801Y-121747500D01*
X107348005Y-121747500D01*
X107347997Y-121747501D01*
X107318687Y-121753330D01*
X107285442Y-121775542D01*
X107263232Y-121808785D01*
X107263229Y-121808791D01*
X107257400Y-121838098D01*
X104043624Y-121838098D01*
X104000489Y-121763387D01*
X103916613Y-121679511D01*
X103813886Y-121620201D01*
X103699309Y-121589500D01*
X103580691Y-121589500D01*
X103466114Y-121620201D01*
X103466112Y-121620201D01*
X103466112Y-121620202D01*
X103363387Y-121679511D01*
X103363384Y-121679513D01*
X103279513Y-121763384D01*
X103279511Y-121763387D01*
X103244582Y-121823886D01*
X103220201Y-121866114D01*
X103189500Y-121980691D01*
X102547800Y-121980691D01*
X102520489Y-121933387D01*
X102436613Y-121849511D01*
X102333886Y-121790201D01*
X102219309Y-121759500D01*
X102100691Y-121759500D01*
X101986114Y-121790201D01*
X101986112Y-121790201D01*
X101986112Y-121790202D01*
X101883387Y-121849511D01*
X101883384Y-121849513D01*
X101799513Y-121933384D01*
X101799511Y-121933387D01*
X101741098Y-122034561D01*
X101740201Y-122036114D01*
X101709500Y-122150691D01*
X83582399Y-122150691D01*
X83582399Y-121838102D01*
X83576569Y-121808787D01*
X83576568Y-121808785D01*
X83554357Y-121775542D01*
X83521114Y-121753332D01*
X83521115Y-121753332D01*
X83521113Y-121753331D01*
X83521111Y-121753330D01*
X83521108Y-121753329D01*
X83491801Y-121747500D01*
X81948005Y-121747500D01*
X81947997Y-121747501D01*
X81918687Y-121753330D01*
X81885442Y-121775542D01*
X81863232Y-121808785D01*
X81863229Y-121808791D01*
X81857400Y-121838098D01*
X77900500Y-121838098D01*
X77900500Y-121590691D01*
X84909500Y-121590691D01*
X84909500Y-121709309D01*
X84940201Y-121823886D01*
X84999511Y-121926613D01*
X85083387Y-122010489D01*
X85186114Y-122069799D01*
X85300691Y-122100500D01*
X85300694Y-122100500D01*
X85419306Y-122100500D01*
X85419309Y-122100500D01*
X85533886Y-122069799D01*
X85636613Y-122010489D01*
X85720489Y-121926613D01*
X85779799Y-121823886D01*
X85810500Y-121709309D01*
X85810500Y-121590691D01*
X85779799Y-121476114D01*
X85753574Y-121430691D01*
X96499500Y-121430691D01*
X96499500Y-121549309D01*
X96530201Y-121663886D01*
X96589511Y-121766613D01*
X96673387Y-121850489D01*
X96776114Y-121909799D01*
X96890691Y-121940500D01*
X96890694Y-121940500D01*
X97009306Y-121940500D01*
X97009309Y-121940500D01*
X97123886Y-121909799D01*
X97226613Y-121850489D01*
X97310489Y-121766613D01*
X97369799Y-121663886D01*
X97400500Y-121549309D01*
X97400500Y-121430691D01*
X97369799Y-121316114D01*
X97310489Y-121213387D01*
X97226613Y-121129511D01*
X97123886Y-121070201D01*
X97009309Y-121039500D01*
X96890691Y-121039500D01*
X96776114Y-121070201D01*
X96776112Y-121070201D01*
X96776112Y-121070202D01*
X96673387Y-121129511D01*
X96673384Y-121129513D01*
X96589513Y-121213384D01*
X96589511Y-121213387D01*
X96530201Y-121316114D01*
X96499500Y-121430691D01*
X85753574Y-121430691D01*
X85720489Y-121373387D01*
X85636613Y-121289511D01*
X85533886Y-121230201D01*
X85419309Y-121199500D01*
X85300691Y-121199500D01*
X85186114Y-121230201D01*
X85186112Y-121230201D01*
X85186112Y-121230202D01*
X85083387Y-121289511D01*
X85083384Y-121289513D01*
X84999513Y-121373384D01*
X84999511Y-121373387D01*
X84940201Y-121476114D01*
X84909500Y-121590691D01*
X77900500Y-121590691D01*
X77900500Y-119965397D01*
X81657900Y-119965397D01*
X81657900Y-120174602D01*
X81698709Y-120379766D01*
X81698712Y-120379775D01*
X81778763Y-120573038D01*
X81778769Y-120573049D01*
X81812626Y-120623719D01*
X82230404Y-120205941D01*
X82246519Y-120266081D01*
X82313398Y-120381920D01*
X82407980Y-120476502D01*
X82523819Y-120543381D01*
X82583957Y-120559494D01*
X82166179Y-120977272D01*
X82216854Y-121011133D01*
X82410124Y-121091187D01*
X82410133Y-121091190D01*
X82615297Y-121131999D01*
X82615300Y-121132000D01*
X82824500Y-121132000D01*
X82824502Y-121131999D01*
X83029666Y-121091190D01*
X83029675Y-121091187D01*
X83222939Y-121011136D01*
X83273619Y-120977272D01*
X83166592Y-120870245D01*
X83087038Y-120790691D01*
X101959500Y-120790691D01*
X101959500Y-120909309D01*
X101990201Y-121023886D01*
X102049511Y-121126613D01*
X102133387Y-121210489D01*
X102236114Y-121269799D01*
X102350691Y-121300500D01*
X102350694Y-121300500D01*
X102469306Y-121300500D01*
X102469309Y-121300500D01*
X102583886Y-121269799D01*
X102686613Y-121210489D01*
X102770489Y-121126613D01*
X102829799Y-121023886D01*
X102860500Y-120909309D01*
X102860500Y-120790691D01*
X102829799Y-120676114D01*
X102770489Y-120573387D01*
X102686613Y-120489511D01*
X102583886Y-120430201D01*
X102469309Y-120399500D01*
X102350691Y-120399500D01*
X102236114Y-120430201D01*
X102236112Y-120430201D01*
X102236112Y-120430202D01*
X102133387Y-120489511D01*
X102133384Y-120489513D01*
X102049513Y-120573384D01*
X102049511Y-120573387D01*
X102020452Y-120623719D01*
X101990201Y-120676114D01*
X101959500Y-120790691D01*
X83087038Y-120790691D01*
X82855842Y-120559494D01*
X82915981Y-120543381D01*
X83031820Y-120476502D01*
X83126402Y-120381920D01*
X83193281Y-120266081D01*
X83209395Y-120205942D01*
X83627172Y-120623719D01*
X83661036Y-120573039D01*
X83741087Y-120379775D01*
X83741090Y-120379766D01*
X83781899Y-120174602D01*
X83781900Y-120174600D01*
X83781900Y-119965399D01*
X83781899Y-119965397D01*
X83748355Y-119796755D01*
X83745159Y-119780691D01*
X84869500Y-119780691D01*
X84869500Y-119899309D01*
X84900201Y-120013886D01*
X84959511Y-120116613D01*
X85043387Y-120200489D01*
X85146114Y-120259799D01*
X85260691Y-120290500D01*
X85260694Y-120290500D01*
X85379306Y-120290500D01*
X85379309Y-120290500D01*
X85493886Y-120259799D01*
X85596613Y-120200489D01*
X85680489Y-120116613D01*
X85739799Y-120013886D01*
X85752792Y-119965397D01*
X107057900Y-119965397D01*
X107057900Y-120174602D01*
X107098709Y-120379766D01*
X107098712Y-120379775D01*
X107178763Y-120573038D01*
X107178769Y-120573049D01*
X107212626Y-120623719D01*
X107630404Y-120205941D01*
X107646519Y-120266081D01*
X107713398Y-120381920D01*
X107807980Y-120476502D01*
X107923819Y-120543381D01*
X107983957Y-120559494D01*
X107566179Y-120977272D01*
X107616854Y-121011133D01*
X107810124Y-121091187D01*
X107810133Y-121091190D01*
X108015297Y-121131999D01*
X108015300Y-121132000D01*
X108224500Y-121132000D01*
X108224502Y-121131999D01*
X108429666Y-121091190D01*
X108429675Y-121091187D01*
X108622939Y-121011136D01*
X108673619Y-120977272D01*
X108255842Y-120559494D01*
X108315981Y-120543381D01*
X108431820Y-120476502D01*
X108526402Y-120381920D01*
X108593281Y-120266081D01*
X108609395Y-120205942D01*
X109027172Y-120623719D01*
X109061036Y-120573039D01*
X109141087Y-120379775D01*
X109141090Y-120379766D01*
X109181899Y-120174602D01*
X109181900Y-120174600D01*
X109181900Y-119965399D01*
X109181899Y-119965397D01*
X109141090Y-119760233D01*
X109141087Y-119760224D01*
X109061033Y-119566954D01*
X109027172Y-119516279D01*
X108609394Y-119934056D01*
X108593281Y-119873919D01*
X108526402Y-119758080D01*
X108431820Y-119663498D01*
X108315981Y-119596619D01*
X108255841Y-119580504D01*
X108673619Y-119162726D01*
X108673619Y-119162725D01*
X108622949Y-119128869D01*
X108622938Y-119128863D01*
X108429675Y-119048812D01*
X108429666Y-119048809D01*
X108224501Y-119008000D01*
X108015299Y-119008000D01*
X107810133Y-119048809D01*
X107810124Y-119048812D01*
X107616859Y-119128864D01*
X107566178Y-119162726D01*
X107983958Y-119580504D01*
X107923819Y-119596619D01*
X107807980Y-119663498D01*
X107713398Y-119758080D01*
X107646519Y-119873919D01*
X107630405Y-119934057D01*
X107212626Y-119516278D01*
X107178764Y-119566959D01*
X107098712Y-119760224D01*
X107098709Y-119760233D01*
X107057900Y-119965397D01*
X85752792Y-119965397D01*
X85770500Y-119899309D01*
X85770500Y-119780691D01*
X85739799Y-119666114D01*
X85680489Y-119563387D01*
X85596613Y-119479511D01*
X85493886Y-119420201D01*
X85379309Y-119389500D01*
X85260691Y-119389500D01*
X85146114Y-119420201D01*
X85146112Y-119420201D01*
X85146112Y-119420202D01*
X85043387Y-119479511D01*
X85043384Y-119479513D01*
X84959513Y-119563384D01*
X84959511Y-119563387D01*
X84900201Y-119666114D01*
X84869500Y-119780691D01*
X83745159Y-119780691D01*
X83741089Y-119760232D01*
X83741087Y-119760224D01*
X83661033Y-119566954D01*
X83627172Y-119516279D01*
X83209394Y-119934056D01*
X83193281Y-119873919D01*
X83126402Y-119758080D01*
X83031820Y-119663498D01*
X82915981Y-119596619D01*
X82855841Y-119580504D01*
X83273619Y-119162726D01*
X83273619Y-119162725D01*
X83222949Y-119128869D01*
X83222938Y-119128863D01*
X83029675Y-119048812D01*
X83029666Y-119048809D01*
X82824501Y-119008000D01*
X82615299Y-119008000D01*
X82410133Y-119048809D01*
X82410124Y-119048812D01*
X82216859Y-119128864D01*
X82166178Y-119162726D01*
X82583958Y-119580504D01*
X82523819Y-119596619D01*
X82407980Y-119663498D01*
X82313398Y-119758080D01*
X82246519Y-119873919D01*
X82230405Y-119934057D01*
X81812626Y-119516278D01*
X81778764Y-119566959D01*
X81698712Y-119760224D01*
X81698709Y-119760233D01*
X81657900Y-119965397D01*
X77900500Y-119965397D01*
X77900500Y-117614951D01*
X81857399Y-117614951D01*
X81890544Y-117781576D01*
X81890546Y-117781582D01*
X81955561Y-117938544D01*
X81955566Y-117938553D01*
X82049952Y-118079811D01*
X82049955Y-118079815D01*
X82170084Y-118199944D01*
X82170088Y-118199947D01*
X82311346Y-118294333D01*
X82311352Y-118294336D01*
X82311353Y-118294337D01*
X82468318Y-118359354D01*
X82468322Y-118359354D01*
X82468323Y-118359355D01*
X82634948Y-118392500D01*
X82634951Y-118392500D01*
X82804851Y-118392500D01*
X82916952Y-118370200D01*
X82971482Y-118359354D01*
X83128447Y-118294337D01*
X83269712Y-118199947D01*
X83328968Y-118140691D01*
X83699500Y-118140691D01*
X83699500Y-118259309D01*
X83730201Y-118373886D01*
X83789511Y-118476613D01*
X83873387Y-118560489D01*
X83976114Y-118619799D01*
X84090691Y-118650500D01*
X84090694Y-118650500D01*
X84209306Y-118650500D01*
X84209309Y-118650500D01*
X84323886Y-118619799D01*
X84426613Y-118560489D01*
X84510489Y-118476613D01*
X84569799Y-118373886D01*
X84573693Y-118359354D01*
X84573797Y-118358967D01*
X84580697Y-118333212D01*
X84600500Y-118259309D01*
X84600500Y-118140691D01*
X84569799Y-118026114D01*
X84510489Y-117923387D01*
X84426613Y-117839511D01*
X84323886Y-117780201D01*
X84209309Y-117749500D01*
X84090691Y-117749500D01*
X83976114Y-117780201D01*
X83976112Y-117780201D01*
X83976112Y-117780202D01*
X83873387Y-117839511D01*
X83873384Y-117839513D01*
X83789513Y-117923384D01*
X83789511Y-117923387D01*
X83730201Y-118026114D01*
X83699500Y-118140691D01*
X83328968Y-118140691D01*
X83389847Y-118079812D01*
X83421101Y-118033038D01*
X83484233Y-117938553D01*
X83484233Y-117938552D01*
X83484237Y-117938547D01*
X83549254Y-117781582D01*
X83565383Y-117700500D01*
X83582400Y-117614951D01*
X83582400Y-117445048D01*
X83549255Y-117278423D01*
X83549254Y-117278422D01*
X83549254Y-117278418D01*
X83540222Y-117256612D01*
X83529206Y-117230016D01*
X83512917Y-117190691D01*
X92319500Y-117190691D01*
X92319500Y-117309309D01*
X92350201Y-117423886D01*
X92409511Y-117526613D01*
X92493387Y-117610489D01*
X92596114Y-117669799D01*
X92710691Y-117700500D01*
X92710694Y-117700500D01*
X92829306Y-117700500D01*
X92829309Y-117700500D01*
X92943886Y-117669799D01*
X93046613Y-117610489D01*
X93130489Y-117526613D01*
X93189799Y-117423886D01*
X93220500Y-117309309D01*
X93220500Y-117190691D01*
X93189799Y-117076114D01*
X93131168Y-116974564D01*
X93131168Y-116974562D01*
X93130493Y-116973393D01*
X93130490Y-116973390D01*
X93130489Y-116973387D01*
X93077793Y-116920691D01*
X94559500Y-116920691D01*
X94559500Y-117039309D01*
X94590201Y-117153886D01*
X94649511Y-117256613D01*
X94733387Y-117340489D01*
X94836114Y-117399799D01*
X94950691Y-117430500D01*
X94950694Y-117430500D01*
X95069306Y-117430500D01*
X95069309Y-117430500D01*
X95088354Y-117425397D01*
X107057900Y-117425397D01*
X107057900Y-117634602D01*
X107098709Y-117839766D01*
X107098712Y-117839775D01*
X107178763Y-118033038D01*
X107178769Y-118033049D01*
X107212626Y-118083719D01*
X107630404Y-117665941D01*
X107646519Y-117726081D01*
X107713398Y-117841920D01*
X107807980Y-117936502D01*
X107923819Y-118003381D01*
X107983957Y-118019494D01*
X107566179Y-118437272D01*
X107616854Y-118471133D01*
X107810124Y-118551187D01*
X107810133Y-118551190D01*
X108015297Y-118591999D01*
X108015300Y-118592000D01*
X108224500Y-118592000D01*
X108224502Y-118591999D01*
X108429666Y-118551190D01*
X108429675Y-118551187D01*
X108622939Y-118471136D01*
X108673619Y-118437272D01*
X108255842Y-118019494D01*
X108315981Y-118003381D01*
X108431820Y-117936502D01*
X108526402Y-117841920D01*
X108593281Y-117726081D01*
X108609395Y-117665942D01*
X109027172Y-118083719D01*
X109061036Y-118033039D01*
X109141087Y-117839775D01*
X109141090Y-117839766D01*
X109181899Y-117634602D01*
X109181900Y-117634600D01*
X109181900Y-117425399D01*
X109181899Y-117425397D01*
X109141090Y-117220233D01*
X109141087Y-117220224D01*
X109061033Y-117026954D01*
X109027172Y-116976279D01*
X108609394Y-117394056D01*
X108593281Y-117333919D01*
X108526402Y-117218080D01*
X108431820Y-117123498D01*
X108315981Y-117056619D01*
X108255841Y-117040504D01*
X108673619Y-116622726D01*
X108673619Y-116622725D01*
X108622949Y-116588869D01*
X108622938Y-116588863D01*
X108429675Y-116508812D01*
X108429666Y-116508809D01*
X108224501Y-116468000D01*
X108015299Y-116468000D01*
X107810133Y-116508809D01*
X107810124Y-116508812D01*
X107616859Y-116588864D01*
X107566178Y-116622726D01*
X107983958Y-117040504D01*
X107923819Y-117056619D01*
X107807980Y-117123498D01*
X107713398Y-117218080D01*
X107646519Y-117333919D01*
X107630405Y-117394057D01*
X107212626Y-116976278D01*
X107178764Y-117026959D01*
X107098712Y-117220224D01*
X107098709Y-117220233D01*
X107057900Y-117425397D01*
X95088354Y-117425397D01*
X95183886Y-117399799D01*
X95286613Y-117340489D01*
X95370489Y-117256613D01*
X95429799Y-117153886D01*
X95460500Y-117039309D01*
X95460500Y-116920691D01*
X95429799Y-116806114D01*
X95370489Y-116703387D01*
X95286613Y-116619511D01*
X95183886Y-116560201D01*
X95069309Y-116529500D01*
X94950691Y-116529500D01*
X94836114Y-116560201D01*
X94836112Y-116560201D01*
X94836112Y-116560202D01*
X94733387Y-116619511D01*
X94733384Y-116619513D01*
X94649513Y-116703384D01*
X94649511Y-116703387D01*
X94594020Y-116799500D01*
X94590201Y-116806114D01*
X94559500Y-116920691D01*
X93077793Y-116920691D01*
X93046613Y-116889511D01*
X92943886Y-116830201D01*
X92829309Y-116799500D01*
X92710691Y-116799500D01*
X92596114Y-116830201D01*
X92596112Y-116830201D01*
X92596112Y-116830202D01*
X92493387Y-116889511D01*
X92493384Y-116889513D01*
X92409513Y-116973384D01*
X92409511Y-116973387D01*
X92361457Y-117056619D01*
X92350201Y-117076114D01*
X92319500Y-117190691D01*
X83512917Y-117190691D01*
X83484238Y-117121456D01*
X83484238Y-117121455D01*
X83484237Y-117121453D01*
X83484235Y-117121450D01*
X83484233Y-117121446D01*
X83389847Y-116980188D01*
X83389844Y-116980184D01*
X83269715Y-116860055D01*
X83269711Y-116860052D01*
X83128453Y-116765666D01*
X83128444Y-116765661D01*
X82971482Y-116700646D01*
X82971476Y-116700644D01*
X82804851Y-116667500D01*
X82804849Y-116667500D01*
X82634951Y-116667500D01*
X82634949Y-116667500D01*
X82468323Y-116700644D01*
X82468317Y-116700646D01*
X82311355Y-116765661D01*
X82311346Y-116765666D01*
X82170088Y-116860052D01*
X82170084Y-116860055D01*
X82049955Y-116980184D01*
X82049952Y-116980188D01*
X81955566Y-117121446D01*
X81955561Y-117121455D01*
X81890546Y-117278417D01*
X81890544Y-117278423D01*
X81857400Y-117445048D01*
X81857400Y-117445051D01*
X81857400Y-117614949D01*
X81857400Y-117614951D01*
X81857399Y-117614951D01*
X77900500Y-117614951D01*
X77900500Y-116200691D01*
X93219500Y-116200691D01*
X93219500Y-116319309D01*
X93250201Y-116433886D01*
X93309511Y-116536613D01*
X93393387Y-116620489D01*
X93496114Y-116679799D01*
X93610691Y-116710500D01*
X93610694Y-116710500D01*
X93729306Y-116710500D01*
X93729309Y-116710500D01*
X93843886Y-116679799D01*
X93946613Y-116620489D01*
X94030489Y-116536613D01*
X94089799Y-116433886D01*
X94114771Y-116340691D01*
X96149500Y-116340691D01*
X96149500Y-116459309D01*
X96180201Y-116573886D01*
X96239511Y-116676613D01*
X96323387Y-116760489D01*
X96426114Y-116819799D01*
X96540691Y-116850500D01*
X96540694Y-116850500D01*
X96659306Y-116850500D01*
X96659309Y-116850500D01*
X96773886Y-116819799D01*
X96876613Y-116760489D01*
X96960489Y-116676613D01*
X97019799Y-116573886D01*
X97050500Y-116459309D01*
X97050500Y-116340691D01*
X97019799Y-116226114D01*
X96960489Y-116123387D01*
X96876613Y-116039511D01*
X96773886Y-115980201D01*
X96659309Y-115949500D01*
X96540691Y-115949500D01*
X96426114Y-115980201D01*
X96426112Y-115980201D01*
X96426112Y-115980202D01*
X96323387Y-116039511D01*
X96323384Y-116039513D01*
X96239513Y-116123384D01*
X96239511Y-116123387D01*
X96180201Y-116226114D01*
X96149500Y-116340691D01*
X94114771Y-116340691D01*
X94120500Y-116319309D01*
X94120500Y-116200691D01*
X94089799Y-116086114D01*
X94030489Y-115983387D01*
X93946613Y-115899511D01*
X93843886Y-115840201D01*
X93729309Y-115809500D01*
X93610691Y-115809500D01*
X93514643Y-115835236D01*
X93514642Y-115835236D01*
X93496114Y-115840201D01*
X93410413Y-115889680D01*
X93410388Y-115889694D01*
X93393390Y-115899508D01*
X93393384Y-115899513D01*
X93309513Y-115983384D01*
X93309511Y-115983387D01*
X93250201Y-116086114D01*
X93219500Y-116200691D01*
X77900500Y-116200691D01*
X77900500Y-115074951D01*
X81857399Y-115074951D01*
X81890544Y-115241576D01*
X81890546Y-115241582D01*
X81955561Y-115398544D01*
X81955566Y-115398553D01*
X82049952Y-115539811D01*
X82049955Y-115539815D01*
X82170084Y-115659944D01*
X82170088Y-115659947D01*
X82311346Y-115754333D01*
X82311352Y-115754336D01*
X82311353Y-115754337D01*
X82468318Y-115819354D01*
X82468322Y-115819354D01*
X82468323Y-115819355D01*
X82634948Y-115852500D01*
X82634951Y-115852500D01*
X82804851Y-115852500D01*
X82916952Y-115830200D01*
X82971482Y-115819354D01*
X83128447Y-115754337D01*
X83269712Y-115659947D01*
X83389847Y-115539812D01*
X83484237Y-115398547D01*
X83549254Y-115241582D01*
X83561366Y-115180691D01*
X92699500Y-115180691D01*
X92699500Y-115299309D01*
X92730201Y-115413886D01*
X92789511Y-115516613D01*
X92873387Y-115600489D01*
X92976114Y-115659799D01*
X93090691Y-115690500D01*
X93090694Y-115690500D01*
X93209305Y-115690500D01*
X93209309Y-115690500D01*
X93323886Y-115659799D01*
X93426613Y-115600489D01*
X93510489Y-115516613D01*
X93569799Y-115413886D01*
X93600500Y-115299309D01*
X93600500Y-115180691D01*
X95849500Y-115180691D01*
X95849500Y-115299309D01*
X95880201Y-115413886D01*
X95939511Y-115516613D01*
X96023387Y-115600489D01*
X96126114Y-115659799D01*
X96240691Y-115690500D01*
X96240694Y-115690500D01*
X96359306Y-115690500D01*
X96359309Y-115690500D01*
X96473886Y-115659799D01*
X96576613Y-115600489D01*
X96660489Y-115516613D01*
X96719799Y-115413886D01*
X96750500Y-115299309D01*
X96750500Y-115180691D01*
X96722167Y-115074951D01*
X107257399Y-115074951D01*
X107290544Y-115241576D01*
X107290546Y-115241582D01*
X107355561Y-115398544D01*
X107355566Y-115398553D01*
X107449952Y-115539811D01*
X107449955Y-115539815D01*
X107570084Y-115659944D01*
X107570088Y-115659947D01*
X107711346Y-115754333D01*
X107711352Y-115754336D01*
X107711353Y-115754337D01*
X107868318Y-115819354D01*
X107868322Y-115819354D01*
X107868323Y-115819355D01*
X108034948Y-115852500D01*
X108034951Y-115852500D01*
X108204851Y-115852500D01*
X108316952Y-115830200D01*
X108371482Y-115819354D01*
X108528447Y-115754337D01*
X108669712Y-115659947D01*
X108789847Y-115539812D01*
X108884237Y-115398547D01*
X108949254Y-115241582D01*
X108982400Y-115074949D01*
X108982400Y-114905051D01*
X108982400Y-114905048D01*
X108949255Y-114738423D01*
X108949254Y-114738422D01*
X108949254Y-114738418D01*
X108884237Y-114581453D01*
X108884236Y-114581452D01*
X108884233Y-114581446D01*
X108789847Y-114440188D01*
X108789844Y-114440184D01*
X108669715Y-114320055D01*
X108669711Y-114320052D01*
X108528453Y-114225666D01*
X108528444Y-114225661D01*
X108371482Y-114160646D01*
X108371476Y-114160644D01*
X108204851Y-114127500D01*
X108204849Y-114127500D01*
X108034951Y-114127500D01*
X108034949Y-114127500D01*
X107868323Y-114160644D01*
X107868317Y-114160646D01*
X107711355Y-114225661D01*
X107711346Y-114225666D01*
X107570088Y-114320052D01*
X107570084Y-114320055D01*
X107449955Y-114440184D01*
X107449952Y-114440188D01*
X107355566Y-114581446D01*
X107355561Y-114581455D01*
X107290546Y-114738417D01*
X107290544Y-114738423D01*
X107257400Y-114905048D01*
X107257400Y-114905051D01*
X107257400Y-115074949D01*
X107257400Y-115074951D01*
X107257399Y-115074951D01*
X96722167Y-115074951D01*
X96719799Y-115066114D01*
X96660489Y-114963387D01*
X96576613Y-114879511D01*
X96473886Y-114820201D01*
X96359309Y-114789500D01*
X96240691Y-114789500D01*
X96126114Y-114820201D01*
X96126112Y-114820201D01*
X96126112Y-114820202D01*
X96023387Y-114879511D01*
X96023384Y-114879513D01*
X95939513Y-114963384D01*
X95939512Y-114963386D01*
X95939511Y-114963387D01*
X95880201Y-115066114D01*
X95849500Y-115180691D01*
X93600500Y-115180691D01*
X93569799Y-115066114D01*
X93510489Y-114963387D01*
X93426613Y-114879511D01*
X93323886Y-114820201D01*
X93209309Y-114789500D01*
X93090691Y-114789500D01*
X92976114Y-114820201D01*
X92976112Y-114820201D01*
X92976112Y-114820202D01*
X92873387Y-114879511D01*
X92873384Y-114879513D01*
X92789513Y-114963384D01*
X92789512Y-114963386D01*
X92789511Y-114963387D01*
X92730201Y-115066114D01*
X92699500Y-115180691D01*
X83561366Y-115180691D01*
X83582400Y-115074949D01*
X83582400Y-114905051D01*
X83582400Y-114905048D01*
X83549255Y-114738423D01*
X83549254Y-114738422D01*
X83549254Y-114738418D01*
X83484237Y-114581453D01*
X83484236Y-114581452D01*
X83484233Y-114581446D01*
X83389847Y-114440188D01*
X83389844Y-114440184D01*
X83269715Y-114320055D01*
X83269711Y-114320052D01*
X83128453Y-114225666D01*
X83128444Y-114225661D01*
X82971482Y-114160646D01*
X82971476Y-114160644D01*
X82804851Y-114127500D01*
X82804849Y-114127500D01*
X82634951Y-114127500D01*
X82634949Y-114127500D01*
X82468323Y-114160644D01*
X82468317Y-114160646D01*
X82311355Y-114225661D01*
X82311346Y-114225666D01*
X82170088Y-114320052D01*
X82170084Y-114320055D01*
X82049955Y-114440184D01*
X82049952Y-114440188D01*
X81955566Y-114581446D01*
X81955561Y-114581455D01*
X81890546Y-114738417D01*
X81890544Y-114738423D01*
X81857400Y-114905048D01*
X81857400Y-114905051D01*
X81857400Y-115074949D01*
X81857400Y-115074951D01*
X81857399Y-115074951D01*
X77900500Y-115074951D01*
X77900500Y-112534951D01*
X81857399Y-112534951D01*
X81890544Y-112701576D01*
X81890546Y-112701582D01*
X81955561Y-112858544D01*
X81955566Y-112858553D01*
X82049952Y-112999811D01*
X82049955Y-112999815D01*
X82170084Y-113119944D01*
X82170088Y-113119947D01*
X82311346Y-113214333D01*
X82311352Y-113214336D01*
X82311353Y-113214337D01*
X82468318Y-113279354D01*
X82468322Y-113279354D01*
X82468323Y-113279355D01*
X82634948Y-113312500D01*
X82634951Y-113312500D01*
X82804851Y-113312500D01*
X82916952Y-113290200D01*
X82971482Y-113279354D01*
X83128447Y-113214337D01*
X83269712Y-113119947D01*
X83389847Y-112999812D01*
X83484237Y-112858547D01*
X83549254Y-112701582D01*
X83575290Y-112570693D01*
X83582400Y-112534951D01*
X83582400Y-112365048D01*
X83549255Y-112198423D01*
X83549254Y-112198422D01*
X83549254Y-112198418D01*
X83484237Y-112041453D01*
X83484236Y-112041452D01*
X83484233Y-112041446D01*
X83389847Y-111900188D01*
X83389844Y-111900184D01*
X83269715Y-111780055D01*
X83269711Y-111780052D01*
X83263147Y-111775666D01*
X83128453Y-111685666D01*
X83128444Y-111685661D01*
X83116445Y-111680691D01*
X98709500Y-111680691D01*
X98709500Y-111799309D01*
X98740201Y-111913886D01*
X98799511Y-112016613D01*
X98883387Y-112100489D01*
X98986114Y-112159799D01*
X99100691Y-112190500D01*
X99100694Y-112190500D01*
X99227436Y-112190500D01*
X99227436Y-112193676D01*
X99281685Y-112202109D01*
X99333963Y-112248464D01*
X99352881Y-112315724D01*
X99336276Y-112376308D01*
X99290202Y-112456110D01*
X99290201Y-112456114D01*
X99259500Y-112570691D01*
X99259500Y-112689309D01*
X99290201Y-112803886D01*
X99349511Y-112906613D01*
X99433387Y-112990489D01*
X99536114Y-113049799D01*
X99650691Y-113080500D01*
X99650694Y-113080500D01*
X99769306Y-113080500D01*
X99769309Y-113080500D01*
X99883886Y-113049799D01*
X99986613Y-112990489D01*
X100070489Y-112906613D01*
X100129799Y-112803886D01*
X100160500Y-112689309D01*
X100160500Y-112570691D01*
X100150923Y-112534951D01*
X107257399Y-112534951D01*
X107290544Y-112701576D01*
X107290546Y-112701582D01*
X107355561Y-112858544D01*
X107355566Y-112858553D01*
X107449952Y-112999811D01*
X107449955Y-112999815D01*
X107570084Y-113119944D01*
X107570088Y-113119947D01*
X107711346Y-113214333D01*
X107711352Y-113214336D01*
X107711353Y-113214337D01*
X107868318Y-113279354D01*
X107868322Y-113279354D01*
X107868323Y-113279355D01*
X108034948Y-113312500D01*
X108034951Y-113312500D01*
X108204851Y-113312500D01*
X108316952Y-113290200D01*
X108371482Y-113279354D01*
X108528447Y-113214337D01*
X108669712Y-113119947D01*
X108789847Y-112999812D01*
X108884237Y-112858547D01*
X108949254Y-112701582D01*
X108975290Y-112570693D01*
X108982400Y-112534951D01*
X108982400Y-112365048D01*
X108949255Y-112198423D01*
X108949254Y-112198422D01*
X108949254Y-112198418D01*
X108884237Y-112041453D01*
X108884236Y-112041452D01*
X108884233Y-112041446D01*
X108789847Y-111900188D01*
X108789844Y-111900184D01*
X108669715Y-111780055D01*
X108669711Y-111780052D01*
X108528453Y-111685666D01*
X108528444Y-111685661D01*
X108371482Y-111620646D01*
X108371476Y-111620644D01*
X108204851Y-111587500D01*
X108204849Y-111587500D01*
X108034951Y-111587500D01*
X108034949Y-111587500D01*
X107868323Y-111620644D01*
X107868317Y-111620646D01*
X107711355Y-111685661D01*
X107711346Y-111685666D01*
X107570088Y-111780052D01*
X107570084Y-111780055D01*
X107449955Y-111900184D01*
X107449952Y-111900188D01*
X107355566Y-112041446D01*
X107355561Y-112041455D01*
X107290546Y-112198417D01*
X107290544Y-112198423D01*
X107257400Y-112365048D01*
X107257400Y-112365051D01*
X107257400Y-112534949D01*
X107257400Y-112534951D01*
X107257399Y-112534951D01*
X100150923Y-112534951D01*
X100129799Y-112456114D01*
X100070489Y-112353387D01*
X99986613Y-112269511D01*
X99883886Y-112210201D01*
X99769309Y-112179500D01*
X99650691Y-112179500D01*
X99642564Y-112179500D01*
X99642564Y-112176338D01*
X99588228Y-112167849D01*
X99535985Y-112121454D01*
X99517119Y-112054180D01*
X99533722Y-111993692D01*
X99579799Y-111913886D01*
X99610500Y-111799309D01*
X99610500Y-111788807D01*
X99630185Y-111721768D01*
X99682989Y-111676013D01*
X99752147Y-111666069D01*
X99815703Y-111695094D01*
X99841886Y-111726805D01*
X99899511Y-111826613D01*
X99983387Y-111910489D01*
X100086114Y-111969799D01*
X100200691Y-112000500D01*
X100200694Y-112000500D01*
X100319306Y-112000500D01*
X100319309Y-112000500D01*
X100433886Y-111969799D01*
X100536613Y-111910489D01*
X100620489Y-111826613D01*
X100679799Y-111723886D01*
X100710500Y-111609309D01*
X100710500Y-111490691D01*
X100679799Y-111376114D01*
X100620489Y-111273387D01*
X100536613Y-111189511D01*
X100433886Y-111130201D01*
X100319309Y-111099500D01*
X100200691Y-111099500D01*
X100086114Y-111130201D01*
X100086112Y-111130201D01*
X100086112Y-111130202D01*
X99983387Y-111189511D01*
X99983384Y-111189513D01*
X99899513Y-111273384D01*
X99899511Y-111273387D01*
X99840201Y-111376114D01*
X99809500Y-111490691D01*
X99809500Y-111490693D01*
X99809500Y-111501192D01*
X99789815Y-111568231D01*
X99737011Y-111613986D01*
X99667853Y-111623930D01*
X99604297Y-111594905D01*
X99578114Y-111563193D01*
X99520492Y-111463393D01*
X99520489Y-111463387D01*
X99436613Y-111379511D01*
X99333886Y-111320201D01*
X99219309Y-111289500D01*
X99100691Y-111289500D01*
X98986114Y-111320201D01*
X98986112Y-111320201D01*
X98986112Y-111320202D01*
X98883387Y-111379511D01*
X98883384Y-111379513D01*
X98799513Y-111463384D01*
X98799511Y-111463387D01*
X98740201Y-111566114D01*
X98709500Y-111680691D01*
X83116445Y-111680691D01*
X82971482Y-111620646D01*
X82971476Y-111620644D01*
X82804851Y-111587500D01*
X82804849Y-111587500D01*
X82634951Y-111587500D01*
X82634949Y-111587500D01*
X82468323Y-111620644D01*
X82468317Y-111620646D01*
X82311355Y-111685661D01*
X82311346Y-111685666D01*
X82170088Y-111780052D01*
X82170084Y-111780055D01*
X82049955Y-111900184D01*
X82049952Y-111900188D01*
X81955566Y-112041446D01*
X81955561Y-112041455D01*
X81890546Y-112198417D01*
X81890544Y-112198423D01*
X81857400Y-112365048D01*
X81857400Y-112365051D01*
X81857400Y-112534949D01*
X81857400Y-112534951D01*
X81857399Y-112534951D01*
X77900500Y-112534951D01*
X77900500Y-109994951D01*
X81857399Y-109994951D01*
X81890544Y-110161576D01*
X81890546Y-110161582D01*
X81955561Y-110318544D01*
X81955566Y-110318553D01*
X82049952Y-110459811D01*
X82049955Y-110459815D01*
X82170084Y-110579944D01*
X82170088Y-110579947D01*
X82311346Y-110674333D01*
X82311352Y-110674336D01*
X82311353Y-110674337D01*
X82468318Y-110739354D01*
X82468322Y-110739354D01*
X82468323Y-110739355D01*
X82634948Y-110772500D01*
X82634951Y-110772500D01*
X82804851Y-110772500D01*
X82916952Y-110750200D01*
X82971482Y-110739354D01*
X83128447Y-110674337D01*
X83269712Y-110579947D01*
X83389847Y-110459812D01*
X83484237Y-110318547D01*
X83549254Y-110161582D01*
X83574112Y-110036615D01*
X83582400Y-109994951D01*
X83582400Y-109825048D01*
X83549255Y-109658423D01*
X83549254Y-109658422D01*
X83549254Y-109658418D01*
X83492121Y-109520486D01*
X83484238Y-109501455D01*
X83484233Y-109501446D01*
X83389847Y-109360188D01*
X83389844Y-109360184D01*
X83300351Y-109270691D01*
X97539500Y-109270691D01*
X97539500Y-109389309D01*
X97570201Y-109503886D01*
X97629511Y-109606613D01*
X97713387Y-109690489D01*
X97816114Y-109749799D01*
X97930691Y-109780500D01*
X97930694Y-109780500D01*
X98049306Y-109780500D01*
X98049309Y-109780500D01*
X98163886Y-109749799D01*
X98248943Y-109700691D01*
X104259500Y-109700691D01*
X104259500Y-109819309D01*
X104290201Y-109933886D01*
X104349511Y-110036613D01*
X104433387Y-110120489D01*
X104536114Y-110179799D01*
X104650691Y-110210500D01*
X104650694Y-110210500D01*
X104769306Y-110210500D01*
X104769309Y-110210500D01*
X104883886Y-110179799D01*
X104986613Y-110120489D01*
X105070489Y-110036613D01*
X105094543Y-109994951D01*
X107257399Y-109994951D01*
X107290544Y-110161576D01*
X107290546Y-110161582D01*
X107355561Y-110318544D01*
X107355566Y-110318553D01*
X107449952Y-110459811D01*
X107449955Y-110459815D01*
X107570084Y-110579944D01*
X107570088Y-110579947D01*
X107711346Y-110674333D01*
X107711352Y-110674336D01*
X107711353Y-110674337D01*
X107868318Y-110739354D01*
X107868322Y-110739354D01*
X107868323Y-110739355D01*
X108034948Y-110772500D01*
X108034951Y-110772500D01*
X108204851Y-110772500D01*
X108316952Y-110750200D01*
X108371482Y-110739354D01*
X108528447Y-110674337D01*
X108669712Y-110579947D01*
X108789847Y-110459812D01*
X108884237Y-110318547D01*
X108949254Y-110161582D01*
X108974112Y-110036615D01*
X108982400Y-109994951D01*
X108982400Y-109825048D01*
X108949255Y-109658423D01*
X108949254Y-109658422D01*
X108949254Y-109658418D01*
X108892121Y-109520486D01*
X108884238Y-109501455D01*
X108884233Y-109501446D01*
X108789847Y-109360188D01*
X108789844Y-109360184D01*
X108669715Y-109240055D01*
X108669711Y-109240052D01*
X108528453Y-109145666D01*
X108528444Y-109145661D01*
X108371482Y-109080646D01*
X108371476Y-109080644D01*
X108204851Y-109047500D01*
X108204849Y-109047500D01*
X108034951Y-109047500D01*
X108034949Y-109047500D01*
X107868323Y-109080644D01*
X107868317Y-109080646D01*
X107711355Y-109145661D01*
X107711346Y-109145666D01*
X107570088Y-109240052D01*
X107570084Y-109240055D01*
X107449955Y-109360184D01*
X107449952Y-109360188D01*
X107355566Y-109501446D01*
X107355561Y-109501455D01*
X107290546Y-109658417D01*
X107290544Y-109658423D01*
X107257400Y-109825048D01*
X107257400Y-109825051D01*
X107257400Y-109994949D01*
X107257400Y-109994951D01*
X107257399Y-109994951D01*
X105094543Y-109994951D01*
X105129799Y-109933886D01*
X105160500Y-109819309D01*
X105160500Y-109700691D01*
X105129799Y-109586114D01*
X105070489Y-109483387D01*
X104986613Y-109399511D01*
X104883886Y-109340201D01*
X104769309Y-109309500D01*
X104650691Y-109309500D01*
X104536114Y-109340201D01*
X104536112Y-109340201D01*
X104536112Y-109340202D01*
X104433387Y-109399511D01*
X104433384Y-109399513D01*
X104349513Y-109483384D01*
X104349511Y-109483387D01*
X104328091Y-109520488D01*
X104290201Y-109586114D01*
X104259500Y-109700691D01*
X98248943Y-109700691D01*
X98266613Y-109690489D01*
X98350489Y-109606613D01*
X98409799Y-109503886D01*
X98440500Y-109389309D01*
X98440500Y-109270691D01*
X98409799Y-109156114D01*
X98409797Y-109156110D01*
X98408903Y-109154561D01*
X98377800Y-109100691D01*
X99809500Y-109100691D01*
X99809500Y-109219309D01*
X99840201Y-109333886D01*
X99899511Y-109436613D01*
X99983387Y-109520489D01*
X100086114Y-109579799D01*
X100200691Y-109610500D01*
X100200694Y-109610500D01*
X100319306Y-109610500D01*
X100319309Y-109610500D01*
X100433886Y-109579799D01*
X100536613Y-109520489D01*
X100620489Y-109436613D01*
X100679799Y-109333886D01*
X100710500Y-109219309D01*
X100710500Y-109100691D01*
X100683705Y-109000691D01*
X102419500Y-109000691D01*
X102419500Y-109119309D01*
X102450201Y-109233886D01*
X102509511Y-109336613D01*
X102593387Y-109420489D01*
X102696114Y-109479799D01*
X102810691Y-109510500D01*
X102810694Y-109510500D01*
X102929306Y-109510500D01*
X102929309Y-109510500D01*
X103043886Y-109479799D01*
X103146613Y-109420489D01*
X103230489Y-109336613D01*
X103289799Y-109233886D01*
X103320500Y-109119309D01*
X103320500Y-109000691D01*
X103289799Y-108886114D01*
X103230489Y-108783387D01*
X103146613Y-108699511D01*
X103043886Y-108640201D01*
X102929309Y-108609500D01*
X102810691Y-108609500D01*
X102696114Y-108640201D01*
X102696112Y-108640201D01*
X102696112Y-108640202D01*
X102593387Y-108699511D01*
X102593384Y-108699513D01*
X102509513Y-108783384D01*
X102509511Y-108783387D01*
X102454020Y-108879500D01*
X102450201Y-108886114D01*
X102419500Y-109000691D01*
X100683705Y-109000691D01*
X100679799Y-108986114D01*
X100620489Y-108883387D01*
X100536613Y-108799511D01*
X100433886Y-108740201D01*
X100319309Y-108709500D01*
X100200691Y-108709500D01*
X100086114Y-108740201D01*
X100086112Y-108740201D01*
X100086112Y-108740202D01*
X99983387Y-108799511D01*
X99983384Y-108799513D01*
X99899513Y-108883384D01*
X99899511Y-108883387D01*
X99840201Y-108986114D01*
X99809500Y-109100691D01*
X98377800Y-109100691D01*
X98366227Y-109080646D01*
X98350489Y-109053387D01*
X98266613Y-108969511D01*
X98163886Y-108910201D01*
X98049309Y-108879500D01*
X97930691Y-108879500D01*
X97816114Y-108910201D01*
X97816112Y-108910201D01*
X97816112Y-108910202D01*
X97713387Y-108969511D01*
X97713384Y-108969513D01*
X97629513Y-109053384D01*
X97629511Y-109053387D01*
X97571098Y-109154561D01*
X97570201Y-109156114D01*
X97539500Y-109270691D01*
X83300351Y-109270691D01*
X83269715Y-109240055D01*
X83269711Y-109240052D01*
X83128453Y-109145666D01*
X83128444Y-109145661D01*
X82971482Y-109080646D01*
X82971476Y-109080644D01*
X82804851Y-109047500D01*
X82804849Y-109047500D01*
X82634951Y-109047500D01*
X82634949Y-109047500D01*
X82468323Y-109080644D01*
X82468317Y-109080646D01*
X82311355Y-109145661D01*
X82311346Y-109145666D01*
X82170088Y-109240052D01*
X82170084Y-109240055D01*
X82049955Y-109360184D01*
X82049952Y-109360188D01*
X81955566Y-109501446D01*
X81955561Y-109501455D01*
X81890546Y-109658417D01*
X81890544Y-109658423D01*
X81857400Y-109825048D01*
X81857400Y-109825051D01*
X81857400Y-109994949D01*
X81857400Y-109994951D01*
X81857399Y-109994951D01*
X77900500Y-109994951D01*
X77900500Y-107454951D01*
X81857399Y-107454951D01*
X81890544Y-107621576D01*
X81890546Y-107621582D01*
X81955561Y-107778544D01*
X81955566Y-107778553D01*
X82049952Y-107919811D01*
X82049955Y-107919815D01*
X82170084Y-108039944D01*
X82170088Y-108039947D01*
X82311346Y-108134333D01*
X82311352Y-108134336D01*
X82311353Y-108134337D01*
X82468318Y-108199354D01*
X82468322Y-108199354D01*
X82468323Y-108199355D01*
X82634948Y-108232500D01*
X82634951Y-108232500D01*
X82804851Y-108232500D01*
X82916952Y-108210200D01*
X82971482Y-108199354D01*
X83128447Y-108134337D01*
X83269712Y-108039947D01*
X83389847Y-107919812D01*
X83484237Y-107778547D01*
X83549254Y-107621582D01*
X83571841Y-107508032D01*
X83576716Y-107483525D01*
X90608048Y-107483525D01*
X90608048Y-107602143D01*
X90638749Y-107716720D01*
X90698059Y-107819447D01*
X90781935Y-107903323D01*
X90884662Y-107962633D01*
X90999239Y-107993334D01*
X90999242Y-107993334D01*
X91117854Y-107993334D01*
X91117857Y-107993334D01*
X91232434Y-107962633D01*
X91335161Y-107903323D01*
X91419037Y-107819447D01*
X91478347Y-107716720D01*
X91509048Y-107602143D01*
X91509048Y-107483525D01*
X91478347Y-107368948D01*
X91478345Y-107368944D01*
X91455116Y-107328710D01*
X91455115Y-107328708D01*
X91429907Y-107285048D01*
X91424012Y-107274837D01*
X97479993Y-107274837D01*
X97479993Y-107393455D01*
X97510694Y-107508032D01*
X97570004Y-107610759D01*
X97653880Y-107694635D01*
X97756607Y-107753945D01*
X97871184Y-107784646D01*
X97871187Y-107784646D01*
X97989799Y-107784646D01*
X97989802Y-107784646D01*
X98104379Y-107753945D01*
X98207106Y-107694635D01*
X98290982Y-107610759D01*
X98350292Y-107508032D01*
X98380993Y-107393455D01*
X98380993Y-107274837D01*
X98350292Y-107160260D01*
X98327447Y-107120691D01*
X99619500Y-107120691D01*
X99619500Y-107239309D01*
X99650201Y-107353886D01*
X99709511Y-107456613D01*
X99793387Y-107540489D01*
X99896114Y-107599799D01*
X100010691Y-107630500D01*
X100010694Y-107630500D01*
X100129306Y-107630500D01*
X100129309Y-107630500D01*
X100243886Y-107599799D01*
X100346613Y-107540489D01*
X100430489Y-107456613D01*
X100431449Y-107454951D01*
X107257399Y-107454951D01*
X107290544Y-107621576D01*
X107290546Y-107621582D01*
X107355561Y-107778544D01*
X107355566Y-107778553D01*
X107449952Y-107919811D01*
X107449955Y-107919815D01*
X107570084Y-108039944D01*
X107570088Y-108039947D01*
X107711346Y-108134333D01*
X107711352Y-108134336D01*
X107711353Y-108134337D01*
X107868318Y-108199354D01*
X107868322Y-108199354D01*
X107868323Y-108199355D01*
X108034948Y-108232500D01*
X108034951Y-108232500D01*
X108204851Y-108232500D01*
X108316952Y-108210200D01*
X108371482Y-108199354D01*
X108528447Y-108134337D01*
X108669712Y-108039947D01*
X108789847Y-107919812D01*
X108884237Y-107778547D01*
X108949254Y-107621582D01*
X108971841Y-107508032D01*
X108982400Y-107454951D01*
X108982400Y-107285048D01*
X108949255Y-107118423D01*
X108949254Y-107118422D01*
X108949254Y-107118418D01*
X108924033Y-107057530D01*
X108921200Y-107050691D01*
X109829500Y-107050691D01*
X109829500Y-107169309D01*
X109860201Y-107283886D01*
X109919511Y-107386613D01*
X110003387Y-107470489D01*
X110106114Y-107529799D01*
X110220691Y-107560500D01*
X110220694Y-107560500D01*
X110339306Y-107560500D01*
X110339309Y-107560500D01*
X110453886Y-107529799D01*
X110556613Y-107470489D01*
X110640489Y-107386613D01*
X110699799Y-107283886D01*
X110730500Y-107169309D01*
X110730500Y-107050691D01*
X110699799Y-106936114D01*
X110640489Y-106833387D01*
X110556613Y-106749511D01*
X110453886Y-106690201D01*
X110339309Y-106659500D01*
X110220691Y-106659500D01*
X110106114Y-106690201D01*
X110106112Y-106690201D01*
X110106112Y-106690202D01*
X110003387Y-106749511D01*
X110003384Y-106749513D01*
X109919513Y-106833384D01*
X109919511Y-106833387D01*
X109860201Y-106936114D01*
X109829500Y-107050691D01*
X108921200Y-107050691D01*
X108884238Y-106961455D01*
X108884233Y-106961446D01*
X108789847Y-106820188D01*
X108789844Y-106820184D01*
X108669715Y-106700055D01*
X108669711Y-106700052D01*
X108528453Y-106605666D01*
X108528444Y-106605661D01*
X108371482Y-106540646D01*
X108371476Y-106540644D01*
X108204851Y-106507500D01*
X108204849Y-106507500D01*
X108034951Y-106507500D01*
X108034949Y-106507500D01*
X107868323Y-106540644D01*
X107868317Y-106540646D01*
X107711355Y-106605661D01*
X107711346Y-106605666D01*
X107570088Y-106700052D01*
X107570084Y-106700055D01*
X107449955Y-106820184D01*
X107449952Y-106820188D01*
X107355566Y-106961446D01*
X107355561Y-106961455D01*
X107290546Y-107118417D01*
X107290544Y-107118423D01*
X107257400Y-107285048D01*
X107257400Y-107285051D01*
X107257400Y-107454949D01*
X107257400Y-107454951D01*
X107257399Y-107454951D01*
X100431449Y-107454951D01*
X100489799Y-107353886D01*
X100520500Y-107239309D01*
X100520500Y-107120691D01*
X100489799Y-107006114D01*
X100430489Y-106903387D01*
X100346613Y-106819511D01*
X100243886Y-106760201D01*
X100129309Y-106729500D01*
X100010691Y-106729500D01*
X99896114Y-106760201D01*
X99896112Y-106760201D01*
X99896112Y-106760202D01*
X99793387Y-106819511D01*
X99793384Y-106819513D01*
X99709513Y-106903384D01*
X99709511Y-106903387D01*
X99650201Y-107006114D01*
X99619500Y-107120691D01*
X98327447Y-107120691D01*
X98290982Y-107057533D01*
X98207106Y-106973657D01*
X98104379Y-106914347D01*
X97989802Y-106883646D01*
X97871184Y-106883646D01*
X97756607Y-106914347D01*
X97756605Y-106914347D01*
X97756605Y-106914348D01*
X97653880Y-106973657D01*
X97653877Y-106973659D01*
X97570006Y-107057530D01*
X97570004Y-107057533D01*
X97510694Y-107160260D01*
X97479993Y-107274837D01*
X91424012Y-107274837D01*
X91419037Y-107266221D01*
X91335161Y-107182345D01*
X91232434Y-107123035D01*
X91117857Y-107092334D01*
X90999239Y-107092334D01*
X90884662Y-107123035D01*
X90884660Y-107123035D01*
X90884660Y-107123036D01*
X90781935Y-107182345D01*
X90781932Y-107182347D01*
X90698061Y-107266218D01*
X90698059Y-107266221D01*
X90647445Y-107353887D01*
X90638749Y-107368948D01*
X90608048Y-107483525D01*
X83576716Y-107483525D01*
X83582400Y-107454951D01*
X83582400Y-107285048D01*
X83549255Y-107118423D01*
X83549254Y-107118422D01*
X83549254Y-107118418D01*
X83484237Y-106961453D01*
X83484236Y-106961452D01*
X83484233Y-106961446D01*
X83389847Y-106820188D01*
X83389844Y-106820184D01*
X83269715Y-106700055D01*
X83269711Y-106700052D01*
X83128453Y-106605666D01*
X83128444Y-106605661D01*
X82971482Y-106540646D01*
X82971476Y-106540644D01*
X82804851Y-106507500D01*
X82804849Y-106507500D01*
X82634951Y-106507500D01*
X82634949Y-106507500D01*
X82468323Y-106540644D01*
X82468317Y-106540646D01*
X82311355Y-106605661D01*
X82311346Y-106605666D01*
X82170088Y-106700052D01*
X82170084Y-106700055D01*
X82049955Y-106820184D01*
X82049952Y-106820188D01*
X81955566Y-106961446D01*
X81955561Y-106961455D01*
X81890546Y-107118417D01*
X81890544Y-107118423D01*
X81857400Y-107285048D01*
X81857400Y-107285051D01*
X81857400Y-107454949D01*
X81857400Y-107454951D01*
X81857399Y-107454951D01*
X77900500Y-107454951D01*
X77900500Y-104914951D01*
X81857399Y-104914951D01*
X81890544Y-105081576D01*
X81890546Y-105081582D01*
X81955561Y-105238544D01*
X81955566Y-105238553D01*
X82049952Y-105379811D01*
X82049955Y-105379815D01*
X82170084Y-105499944D01*
X82170088Y-105499947D01*
X82311346Y-105594333D01*
X82311352Y-105594336D01*
X82311353Y-105594337D01*
X82468318Y-105659354D01*
X82468322Y-105659354D01*
X82468323Y-105659355D01*
X82634948Y-105692500D01*
X82634951Y-105692500D01*
X82804851Y-105692500D01*
X82916952Y-105670200D01*
X82971482Y-105659354D01*
X83128447Y-105594337D01*
X83269712Y-105499947D01*
X83389847Y-105379812D01*
X83449396Y-105290691D01*
X96589500Y-105290691D01*
X96589500Y-105409309D01*
X96620201Y-105523886D01*
X96679511Y-105626613D01*
X96763387Y-105710489D01*
X96866114Y-105769799D01*
X96980691Y-105800500D01*
X96980694Y-105800500D01*
X97099306Y-105800500D01*
X97099309Y-105800500D01*
X97213886Y-105769799D01*
X97316613Y-105710489D01*
X97400489Y-105626613D01*
X97459799Y-105523886D01*
X97476732Y-105460691D01*
X99179500Y-105460691D01*
X99179500Y-105579309D01*
X99210201Y-105693886D01*
X99269511Y-105796613D01*
X99353387Y-105880489D01*
X99456114Y-105939799D01*
X99570691Y-105970500D01*
X99570694Y-105970500D01*
X99689306Y-105970500D01*
X99689309Y-105970500D01*
X99803886Y-105939799D01*
X99906613Y-105880489D01*
X99990489Y-105796613D01*
X100049799Y-105693886D01*
X100080500Y-105579309D01*
X100080500Y-105460691D01*
X100049799Y-105346114D01*
X99990489Y-105243387D01*
X99906613Y-105159511D01*
X99803886Y-105100201D01*
X99689309Y-105069500D01*
X99570691Y-105069500D01*
X99456114Y-105100201D01*
X99456112Y-105100201D01*
X99456112Y-105100202D01*
X99353387Y-105159511D01*
X99353384Y-105159513D01*
X99269513Y-105243384D01*
X99269511Y-105243387D01*
X99210201Y-105346114D01*
X99179500Y-105460691D01*
X97476732Y-105460691D01*
X97490500Y-105409309D01*
X97490500Y-105290691D01*
X97459799Y-105176114D01*
X97400489Y-105073387D01*
X97316613Y-104989511D01*
X97213886Y-104930201D01*
X97099309Y-104899500D01*
X96980691Y-104899500D01*
X96866114Y-104930201D01*
X96866112Y-104930201D01*
X96866112Y-104930202D01*
X96763387Y-104989511D01*
X96763384Y-104989513D01*
X96679513Y-105073384D01*
X96679511Y-105073387D01*
X96620780Y-105175112D01*
X96620201Y-105176114D01*
X96589500Y-105290691D01*
X83449396Y-105290691D01*
X83484237Y-105238547D01*
X83549254Y-105081582D01*
X83567568Y-104989513D01*
X83582400Y-104914951D01*
X83582400Y-104745048D01*
X83554891Y-104606756D01*
X83554891Y-104606755D01*
X83551695Y-104590691D01*
X84449500Y-104590691D01*
X84449500Y-104709309D01*
X84480201Y-104823886D01*
X84539511Y-104926613D01*
X84623387Y-105010489D01*
X84726114Y-105069799D01*
X84840691Y-105100500D01*
X84840694Y-105100500D01*
X84959306Y-105100500D01*
X84959309Y-105100500D01*
X85073886Y-105069799D01*
X85176613Y-105010489D01*
X85260489Y-104926613D01*
X85319799Y-104823886D01*
X85350500Y-104709309D01*
X85350500Y-104590691D01*
X85769500Y-104590691D01*
X85769500Y-104709309D01*
X85800201Y-104823886D01*
X85859511Y-104926613D01*
X85943387Y-105010489D01*
X86046114Y-105069799D01*
X86160691Y-105100500D01*
X86160694Y-105100500D01*
X86279306Y-105100500D01*
X86279309Y-105100500D01*
X86393886Y-105069799D01*
X86496613Y-105010489D01*
X86580489Y-104926613D01*
X86639799Y-104823886D01*
X86670500Y-104709309D01*
X86670500Y-104590691D01*
X86666396Y-104575375D01*
X86967673Y-104575375D01*
X86967673Y-104693993D01*
X86998374Y-104808570D01*
X87057684Y-104911297D01*
X87141560Y-104995173D01*
X87244287Y-105054483D01*
X87358864Y-105085184D01*
X87358867Y-105085184D01*
X87477479Y-105085184D01*
X87477482Y-105085184D01*
X87592059Y-105054483D01*
X87694786Y-104995173D01*
X87778662Y-104911297D01*
X87837972Y-104808570D01*
X87868673Y-104693993D01*
X87868673Y-104605691D01*
X88144500Y-104605691D01*
X88144500Y-104724309D01*
X88175201Y-104838886D01*
X88234511Y-104941613D01*
X88318387Y-105025489D01*
X88421114Y-105084799D01*
X88535691Y-105115500D01*
X88535694Y-105115500D01*
X88654306Y-105115500D01*
X88654309Y-105115500D01*
X88768886Y-105084799D01*
X88871613Y-105025489D01*
X88955489Y-104941613D01*
X89014799Y-104838886D01*
X89045500Y-104724309D01*
X89045500Y-104640691D01*
X89629500Y-104640691D01*
X89629500Y-104759309D01*
X89660201Y-104873886D01*
X89719511Y-104976613D01*
X89803387Y-105060489D01*
X89906114Y-105119799D01*
X90020691Y-105150500D01*
X90020694Y-105150500D01*
X90139306Y-105150500D01*
X90139309Y-105150500D01*
X90253886Y-105119799D01*
X90356613Y-105060489D01*
X90440489Y-104976613D01*
X90499799Y-104873886D01*
X90530500Y-104759309D01*
X90530500Y-104640691D01*
X90522461Y-104610691D01*
X98399500Y-104610691D01*
X98399500Y-104729309D01*
X98430201Y-104843886D01*
X98489511Y-104946613D01*
X98573387Y-105030489D01*
X98676114Y-105089799D01*
X98790691Y-105120500D01*
X98790694Y-105120500D01*
X98909306Y-105120500D01*
X98909309Y-105120500D01*
X99023886Y-105089799D01*
X99126613Y-105030489D01*
X99210489Y-104946613D01*
X99228769Y-104914951D01*
X107257399Y-104914951D01*
X107290544Y-105081576D01*
X107290546Y-105081582D01*
X107355561Y-105238544D01*
X107355566Y-105238553D01*
X107449952Y-105379811D01*
X107449955Y-105379815D01*
X107570084Y-105499944D01*
X107570088Y-105499947D01*
X107711346Y-105594333D01*
X107711352Y-105594336D01*
X107711353Y-105594337D01*
X107868318Y-105659354D01*
X107868322Y-105659354D01*
X107868323Y-105659355D01*
X108034948Y-105692500D01*
X108034951Y-105692500D01*
X108204851Y-105692500D01*
X108316952Y-105670200D01*
X108371482Y-105659354D01*
X108528447Y-105594337D01*
X108669712Y-105499947D01*
X108789847Y-105379812D01*
X108884237Y-105238547D01*
X108887491Y-105230691D01*
X109669500Y-105230691D01*
X109669500Y-105349309D01*
X109700201Y-105463886D01*
X109759511Y-105566613D01*
X109843387Y-105650489D01*
X109946114Y-105709799D01*
X110060691Y-105740500D01*
X110060694Y-105740500D01*
X110179306Y-105740500D01*
X110179309Y-105740500D01*
X110293886Y-105709799D01*
X110396613Y-105650489D01*
X110480489Y-105566613D01*
X110539799Y-105463886D01*
X110570500Y-105349309D01*
X110570500Y-105230691D01*
X110539799Y-105116114D01*
X110480489Y-105013387D01*
X110396613Y-104929511D01*
X110293886Y-104870201D01*
X110179309Y-104839500D01*
X110060691Y-104839500D01*
X109946114Y-104870201D01*
X109946112Y-104870201D01*
X109946112Y-104870202D01*
X109843387Y-104929511D01*
X109843384Y-104929513D01*
X109759513Y-105013384D01*
X109759511Y-105013387D01*
X109718059Y-105085184D01*
X109700201Y-105116114D01*
X109669500Y-105230691D01*
X108887491Y-105230691D01*
X108910098Y-105176114D01*
X108910513Y-105175112D01*
X108910513Y-105175111D01*
X108920707Y-105150500D01*
X108949254Y-105081582D01*
X108967568Y-104989513D01*
X108982400Y-104914951D01*
X108982400Y-104745048D01*
X108949255Y-104578423D01*
X108949254Y-104578422D01*
X108949254Y-104578418D01*
X108884237Y-104421453D01*
X108884236Y-104421452D01*
X108884233Y-104421446D01*
X108789847Y-104280188D01*
X108789844Y-104280184D01*
X108669715Y-104160055D01*
X108669711Y-104160052D01*
X108528453Y-104065666D01*
X108528444Y-104065661D01*
X108371482Y-104000646D01*
X108371476Y-104000644D01*
X108204851Y-103967500D01*
X108204849Y-103967500D01*
X108034951Y-103967500D01*
X108034949Y-103967500D01*
X107868323Y-104000644D01*
X107868317Y-104000646D01*
X107711355Y-104065661D01*
X107711346Y-104065666D01*
X107570088Y-104160052D01*
X107570084Y-104160055D01*
X107449955Y-104280184D01*
X107449952Y-104280188D01*
X107355566Y-104421446D01*
X107355561Y-104421455D01*
X107290546Y-104578417D01*
X107290544Y-104578423D01*
X107257400Y-104745048D01*
X107257400Y-104745051D01*
X107257400Y-104914949D01*
X107257400Y-104914951D01*
X107257399Y-104914951D01*
X99228769Y-104914951D01*
X99269799Y-104843886D01*
X99300500Y-104729309D01*
X99300500Y-104610691D01*
X99269799Y-104496114D01*
X99210489Y-104393387D01*
X99126613Y-104309511D01*
X99023886Y-104250201D01*
X98909309Y-104219500D01*
X98790691Y-104219500D01*
X98676114Y-104250201D01*
X98676112Y-104250201D01*
X98676112Y-104250202D01*
X98573387Y-104309511D01*
X98573384Y-104309513D01*
X98489513Y-104393384D01*
X98489511Y-104393387D01*
X98430201Y-104496114D01*
X98399500Y-104610691D01*
X90522461Y-104610691D01*
X90499799Y-104526114D01*
X90440489Y-104423387D01*
X90356613Y-104339511D01*
X90253886Y-104280201D01*
X90139309Y-104249500D01*
X90020691Y-104249500D01*
X89906114Y-104280201D01*
X89906112Y-104280201D01*
X89906112Y-104280202D01*
X89803387Y-104339511D01*
X89803384Y-104339513D01*
X89719513Y-104423384D01*
X89719511Y-104423387D01*
X89680410Y-104491112D01*
X89660201Y-104526114D01*
X89629500Y-104640691D01*
X89045500Y-104640691D01*
X89045500Y-104605691D01*
X89014799Y-104491114D01*
X88955489Y-104388387D01*
X88871613Y-104304511D01*
X88768886Y-104245201D01*
X88654309Y-104214500D01*
X88535691Y-104214500D01*
X88421114Y-104245201D01*
X88421112Y-104245201D01*
X88421112Y-104245202D01*
X88318387Y-104304511D01*
X88318384Y-104304513D01*
X88234513Y-104388384D01*
X88234511Y-104388387D01*
X88175201Y-104491114D01*
X88144500Y-104605691D01*
X87868673Y-104605691D01*
X87868673Y-104575375D01*
X87837972Y-104460798D01*
X87778662Y-104358071D01*
X87694786Y-104274195D01*
X87592059Y-104214885D01*
X87477482Y-104184184D01*
X87358864Y-104184184D01*
X87244287Y-104214885D01*
X87244285Y-104214885D01*
X87244285Y-104214886D01*
X87141560Y-104274195D01*
X87141557Y-104274197D01*
X87057686Y-104358068D01*
X87057684Y-104358071D01*
X86998374Y-104460798D01*
X86967673Y-104575375D01*
X86666396Y-104575375D01*
X86639799Y-104476114D01*
X86580489Y-104373387D01*
X86496613Y-104289511D01*
X86393886Y-104230201D01*
X86279309Y-104199500D01*
X86160691Y-104199500D01*
X86046114Y-104230201D01*
X86046112Y-104230201D01*
X86046112Y-104230202D01*
X85943387Y-104289511D01*
X85943384Y-104289513D01*
X85859513Y-104373384D01*
X85859511Y-104373387D01*
X85800201Y-104476114D01*
X85769500Y-104590691D01*
X85350500Y-104590691D01*
X85319799Y-104476114D01*
X85260489Y-104373387D01*
X85176613Y-104289511D01*
X85073886Y-104230201D01*
X84959309Y-104199500D01*
X84840691Y-104199500D01*
X84726114Y-104230201D01*
X84726112Y-104230201D01*
X84726112Y-104230202D01*
X84623387Y-104289511D01*
X84623384Y-104289513D01*
X84539513Y-104373384D01*
X84539511Y-104373387D01*
X84480201Y-104476114D01*
X84449500Y-104590691D01*
X83551695Y-104590691D01*
X83549255Y-104578425D01*
X83549255Y-104578423D01*
X83549254Y-104578418D01*
X83484237Y-104421453D01*
X83484236Y-104421452D01*
X83484233Y-104421446D01*
X83389847Y-104280188D01*
X83389844Y-104280184D01*
X83269715Y-104160055D01*
X83269711Y-104160052D01*
X83128453Y-104065666D01*
X83128444Y-104065661D01*
X82971482Y-104000646D01*
X82971476Y-104000644D01*
X82804851Y-103967500D01*
X82804849Y-103967500D01*
X82634951Y-103967500D01*
X82634949Y-103967500D01*
X82468323Y-104000644D01*
X82468317Y-104000646D01*
X82311355Y-104065661D01*
X82311346Y-104065666D01*
X82170088Y-104160052D01*
X82170084Y-104160055D01*
X82049955Y-104280184D01*
X82049952Y-104280188D01*
X81955566Y-104421446D01*
X81955561Y-104421455D01*
X81890546Y-104578417D01*
X81890544Y-104578423D01*
X81857400Y-104745048D01*
X81857400Y-104745051D01*
X81857400Y-104914949D01*
X81857400Y-104914951D01*
X81857399Y-104914951D01*
X77900500Y-104914951D01*
X77900500Y-102374951D01*
X81857399Y-102374951D01*
X81890544Y-102541576D01*
X81890546Y-102541582D01*
X81955561Y-102698544D01*
X81955566Y-102698553D01*
X82049952Y-102839811D01*
X82049955Y-102839815D01*
X82170084Y-102959944D01*
X82170088Y-102959947D01*
X82311346Y-103054333D01*
X82311352Y-103054336D01*
X82311353Y-103054337D01*
X82468318Y-103119354D01*
X82468322Y-103119354D01*
X82468323Y-103119355D01*
X82634948Y-103152500D01*
X82634951Y-103152500D01*
X82804851Y-103152500D01*
X82916952Y-103130200D01*
X82971482Y-103119354D01*
X82992396Y-103110691D01*
X97059500Y-103110691D01*
X97059500Y-103229309D01*
X97090201Y-103343886D01*
X97149511Y-103446613D01*
X97233387Y-103530489D01*
X97336114Y-103589799D01*
X97450691Y-103620500D01*
X97450694Y-103620500D01*
X97569306Y-103620500D01*
X97569309Y-103620500D01*
X97683886Y-103589799D01*
X97786613Y-103530489D01*
X97870489Y-103446613D01*
X97920097Y-103360691D01*
X98409500Y-103360691D01*
X98409500Y-103479309D01*
X98440201Y-103593886D01*
X98499511Y-103696613D01*
X98583387Y-103780489D01*
X98686114Y-103839799D01*
X98800691Y-103870500D01*
X98800694Y-103870500D01*
X98919306Y-103870500D01*
X98919309Y-103870500D01*
X99033886Y-103839799D01*
X99136613Y-103780489D01*
X99220489Y-103696613D01*
X99279799Y-103593886D01*
X99310500Y-103479309D01*
X99310500Y-103380691D01*
X100319500Y-103380691D01*
X100319500Y-103499309D01*
X100350201Y-103613886D01*
X100409511Y-103716613D01*
X100493387Y-103800489D01*
X100596114Y-103859799D01*
X100710691Y-103890500D01*
X100710694Y-103890500D01*
X100829306Y-103890500D01*
X100829309Y-103890500D01*
X100943886Y-103859799D01*
X101046613Y-103800489D01*
X101130489Y-103716613D01*
X101189799Y-103613886D01*
X101220500Y-103499309D01*
X101220500Y-103380691D01*
X101189799Y-103266114D01*
X101130489Y-103163387D01*
X101046613Y-103079511D01*
X100943886Y-103020201D01*
X100829309Y-102989500D01*
X100710691Y-102989500D01*
X100596114Y-103020201D01*
X100596112Y-103020201D01*
X100596112Y-103020202D01*
X100493387Y-103079511D01*
X100493384Y-103079513D01*
X100409513Y-103163384D01*
X100409511Y-103163387D01*
X100371451Y-103229309D01*
X100350201Y-103266114D01*
X100319500Y-103380691D01*
X99310500Y-103380691D01*
X99310500Y-103360691D01*
X99279799Y-103246114D01*
X99220489Y-103143387D01*
X99136613Y-103059511D01*
X99033886Y-103000201D01*
X98919309Y-102969500D01*
X98800691Y-102969500D01*
X98686114Y-103000201D01*
X98686112Y-103000201D01*
X98686112Y-103000202D01*
X98583387Y-103059511D01*
X98583384Y-103059513D01*
X98499513Y-103143384D01*
X98499511Y-103143387D01*
X98447050Y-103234252D01*
X98440201Y-103246114D01*
X98409500Y-103360691D01*
X97920097Y-103360691D01*
X97929799Y-103343886D01*
X97960500Y-103229309D01*
X97960500Y-103110691D01*
X97929799Y-102996114D01*
X97870489Y-102893387D01*
X97786613Y-102809511D01*
X97683886Y-102750201D01*
X97569309Y-102719500D01*
X97450691Y-102719500D01*
X97336114Y-102750201D01*
X97336112Y-102750201D01*
X97336112Y-102750202D01*
X97233387Y-102809511D01*
X97233384Y-102809513D01*
X97149513Y-102893384D01*
X97149511Y-102893387D01*
X97094020Y-102989500D01*
X97090201Y-102996114D01*
X97059500Y-103110691D01*
X82992396Y-103110691D01*
X83128447Y-103054337D01*
X83269712Y-102959947D01*
X83389847Y-102839812D01*
X83484237Y-102698547D01*
X83549254Y-102541582D01*
X83563355Y-102470693D01*
X83563355Y-102470691D01*
X95909500Y-102470691D01*
X95909500Y-102589309D01*
X95940201Y-102703886D01*
X95999511Y-102806613D01*
X96083387Y-102890489D01*
X96186114Y-102949799D01*
X96300691Y-102980500D01*
X96300694Y-102980500D01*
X96419306Y-102980500D01*
X96419309Y-102980500D01*
X96533886Y-102949799D01*
X96636613Y-102890489D01*
X96720489Y-102806613D01*
X96779799Y-102703886D01*
X96810500Y-102589309D01*
X96810500Y-102470691D01*
X96779799Y-102356114D01*
X96720489Y-102253387D01*
X96636613Y-102169511D01*
X96533886Y-102110201D01*
X96419309Y-102079500D01*
X96300691Y-102079500D01*
X96186114Y-102110201D01*
X96186112Y-102110201D01*
X96186112Y-102110202D01*
X96083387Y-102169511D01*
X96083384Y-102169513D01*
X95999513Y-102253384D01*
X95999511Y-102253387D01*
X95943449Y-102350489D01*
X95940201Y-102356114D01*
X95909500Y-102470691D01*
X83563355Y-102470691D01*
X83569785Y-102438372D01*
X83569785Y-102438371D01*
X83582399Y-102374953D01*
X83582400Y-102374951D01*
X83582400Y-102205048D01*
X83549255Y-102038423D01*
X83549254Y-102038422D01*
X83549254Y-102038418D01*
X83504632Y-101930691D01*
X97429500Y-101930691D01*
X97429500Y-102049309D01*
X97460201Y-102163886D01*
X97519511Y-102266613D01*
X97603387Y-102350489D01*
X97706114Y-102409799D01*
X97820691Y-102440500D01*
X97820694Y-102440500D01*
X97939306Y-102440500D01*
X97939309Y-102440500D01*
X98053886Y-102409799D01*
X98114244Y-102374951D01*
X107257399Y-102374951D01*
X107290544Y-102541576D01*
X107290546Y-102541582D01*
X107355561Y-102698544D01*
X107355566Y-102698553D01*
X107449952Y-102839811D01*
X107449955Y-102839815D01*
X107570084Y-102959944D01*
X107570088Y-102959947D01*
X107711346Y-103054333D01*
X107711352Y-103054336D01*
X107711353Y-103054337D01*
X107868318Y-103119354D01*
X107868322Y-103119354D01*
X107868323Y-103119355D01*
X108034948Y-103152500D01*
X108034951Y-103152500D01*
X108204851Y-103152500D01*
X108316952Y-103130200D01*
X108371482Y-103119354D01*
X108528447Y-103054337D01*
X108669712Y-102959947D01*
X108789847Y-102839812D01*
X108884237Y-102698547D01*
X108949254Y-102541582D01*
X108969784Y-102438372D01*
X108982400Y-102374951D01*
X108982400Y-102205048D01*
X108949255Y-102038423D01*
X108949254Y-102038422D01*
X108949254Y-102038418D01*
X108898966Y-101917013D01*
X108884238Y-101881455D01*
X108884232Y-101881444D01*
X108870876Y-101861456D01*
X108870875Y-101861455D01*
X108830274Y-101800691D01*
X111229500Y-101800691D01*
X111229500Y-101919309D01*
X111260201Y-102033886D01*
X111319511Y-102136613D01*
X111403387Y-102220489D01*
X111506114Y-102279799D01*
X111620691Y-102310500D01*
X111620694Y-102310500D01*
X111739306Y-102310500D01*
X111739309Y-102310500D01*
X111853886Y-102279799D01*
X111956613Y-102220489D01*
X112040489Y-102136613D01*
X112099799Y-102033886D01*
X112130500Y-101919309D01*
X112130500Y-101800691D01*
X112099799Y-101686114D01*
X112040489Y-101583387D01*
X111956613Y-101499511D01*
X111853886Y-101440201D01*
X111739309Y-101409500D01*
X111620691Y-101409500D01*
X111506114Y-101440201D01*
X111506112Y-101440201D01*
X111506112Y-101440202D01*
X111403387Y-101499511D01*
X111403384Y-101499513D01*
X111319513Y-101583384D01*
X111319511Y-101583387D01*
X111298341Y-101620055D01*
X111260201Y-101686114D01*
X111229500Y-101800691D01*
X108830274Y-101800691D01*
X108789847Y-101740187D01*
X108669715Y-101620055D01*
X108669711Y-101620052D01*
X108528453Y-101525666D01*
X108528444Y-101525661D01*
X108371482Y-101460646D01*
X108371476Y-101460644D01*
X108204851Y-101427500D01*
X108204849Y-101427500D01*
X108034951Y-101427500D01*
X108034949Y-101427500D01*
X107868323Y-101460644D01*
X107868317Y-101460646D01*
X107711355Y-101525661D01*
X107711346Y-101525666D01*
X107570088Y-101620052D01*
X107570084Y-101620055D01*
X107449955Y-101740184D01*
X107449952Y-101740188D01*
X107355566Y-101881446D01*
X107355561Y-101881455D01*
X107290546Y-102038417D01*
X107290544Y-102038423D01*
X107257400Y-102205048D01*
X107257400Y-102205051D01*
X107257400Y-102374949D01*
X107257400Y-102374951D01*
X107257399Y-102374951D01*
X98114244Y-102374951D01*
X98156613Y-102350489D01*
X98240489Y-102266613D01*
X98299799Y-102163886D01*
X98330500Y-102049309D01*
X98330500Y-101930691D01*
X98299799Y-101816114D01*
X98240489Y-101713387D01*
X98156613Y-101629511D01*
X98053886Y-101570201D01*
X97939309Y-101539500D01*
X97820691Y-101539500D01*
X97706114Y-101570201D01*
X97706112Y-101570201D01*
X97706112Y-101570202D01*
X97603387Y-101629511D01*
X97603384Y-101629513D01*
X97519513Y-101713384D01*
X97519511Y-101713387D01*
X97469106Y-101800691D01*
X97460201Y-101816114D01*
X97429500Y-101930691D01*
X83504632Y-101930691D01*
X83501749Y-101923731D01*
X83484240Y-101881459D01*
X83484233Y-101881446D01*
X83389847Y-101740188D01*
X83389844Y-101740184D01*
X83269715Y-101620055D01*
X83269711Y-101620052D01*
X83128453Y-101525666D01*
X83128444Y-101525661D01*
X82971482Y-101460646D01*
X82971476Y-101460644D01*
X82804851Y-101427500D01*
X82804849Y-101427500D01*
X82634951Y-101427500D01*
X82634949Y-101427500D01*
X82468323Y-101460644D01*
X82468317Y-101460646D01*
X82311355Y-101525661D01*
X82311346Y-101525666D01*
X82170088Y-101620052D01*
X82170084Y-101620055D01*
X82049955Y-101740184D01*
X82049952Y-101740188D01*
X81955566Y-101881446D01*
X81955561Y-101881455D01*
X81890546Y-102038417D01*
X81890544Y-102038423D01*
X81857400Y-102205048D01*
X81857400Y-102205051D01*
X81857400Y-102374949D01*
X81857400Y-102374951D01*
X81857399Y-102374951D01*
X77900500Y-102374951D01*
X77900500Y-99834951D01*
X81857399Y-99834951D01*
X81890544Y-100001576D01*
X81890546Y-100001582D01*
X81955561Y-100158544D01*
X81955566Y-100158553D01*
X82049952Y-100299811D01*
X82049955Y-100299815D01*
X82170084Y-100419944D01*
X82170088Y-100419947D01*
X82311346Y-100514333D01*
X82311352Y-100514336D01*
X82311353Y-100514337D01*
X82468318Y-100579354D01*
X82468322Y-100579354D01*
X82468323Y-100579355D01*
X82634948Y-100612500D01*
X82634951Y-100612500D01*
X82804851Y-100612500D01*
X82916952Y-100590200D01*
X82971482Y-100579354D01*
X83128447Y-100514337D01*
X83269712Y-100419947D01*
X83328968Y-100360691D01*
X97379500Y-100360691D01*
X97379500Y-100479309D01*
X97410201Y-100593886D01*
X97469511Y-100696613D01*
X97553387Y-100780489D01*
X97656114Y-100839799D01*
X97770691Y-100870500D01*
X97770694Y-100870500D01*
X97889306Y-100870500D01*
X97889309Y-100870500D01*
X98003886Y-100839799D01*
X98106613Y-100780489D01*
X98190489Y-100696613D01*
X98249799Y-100593886D01*
X98280500Y-100479309D01*
X98280500Y-100360691D01*
X98249799Y-100246114D01*
X98190489Y-100143387D01*
X98106613Y-100059511D01*
X98003886Y-100000201D01*
X97889309Y-99969500D01*
X97770691Y-99969500D01*
X97656114Y-100000201D01*
X97656112Y-100000201D01*
X97656112Y-100000202D01*
X97553387Y-100059511D01*
X97553384Y-100059513D01*
X97469513Y-100143384D01*
X97469511Y-100143387D01*
X97410201Y-100246114D01*
X97379500Y-100360691D01*
X83328968Y-100360691D01*
X83389847Y-100299812D01*
X83484237Y-100158547D01*
X83549254Y-100001582D01*
X83582400Y-99834951D01*
X107257399Y-99834951D01*
X107290544Y-100001576D01*
X107290546Y-100001582D01*
X107355561Y-100158544D01*
X107355566Y-100158553D01*
X107449952Y-100299811D01*
X107449955Y-100299815D01*
X107570084Y-100419944D01*
X107570088Y-100419947D01*
X107711346Y-100514333D01*
X107711352Y-100514336D01*
X107711353Y-100514337D01*
X107868318Y-100579354D01*
X107868322Y-100579354D01*
X107868323Y-100579355D01*
X108034948Y-100612500D01*
X108034951Y-100612500D01*
X108204851Y-100612500D01*
X108316952Y-100590200D01*
X108371482Y-100579354D01*
X108528447Y-100514337D01*
X108669712Y-100419947D01*
X108789847Y-100299812D01*
X108884237Y-100158547D01*
X108949254Y-100001582D01*
X108982400Y-99834949D01*
X108982400Y-99665051D01*
X108982400Y-99665048D01*
X108949255Y-99498423D01*
X108949254Y-99498422D01*
X108949254Y-99498418D01*
X108884237Y-99341453D01*
X108884236Y-99341452D01*
X108884233Y-99341446D01*
X108789847Y-99200188D01*
X108789844Y-99200184D01*
X108669715Y-99080055D01*
X108669711Y-99080052D01*
X108528453Y-98985666D01*
X108528444Y-98985661D01*
X108371482Y-98920646D01*
X108371476Y-98920644D01*
X108204851Y-98887500D01*
X108204849Y-98887500D01*
X108034951Y-98887500D01*
X108034949Y-98887500D01*
X107868323Y-98920644D01*
X107868317Y-98920646D01*
X107711355Y-98985661D01*
X107711346Y-98985666D01*
X107570088Y-99080052D01*
X107570084Y-99080055D01*
X107449955Y-99200184D01*
X107449952Y-99200188D01*
X107355566Y-99341446D01*
X107355561Y-99341455D01*
X107290546Y-99498417D01*
X107290544Y-99498423D01*
X107257400Y-99665048D01*
X107257400Y-99665051D01*
X107257400Y-99834949D01*
X107257400Y-99834951D01*
X107257399Y-99834951D01*
X83582400Y-99834951D01*
X83582400Y-99834949D01*
X83582400Y-99665051D01*
X83582400Y-99665048D01*
X83549255Y-99498423D01*
X83549254Y-99498422D01*
X83549254Y-99498418D01*
X83484237Y-99341453D01*
X83484236Y-99341452D01*
X83484233Y-99341446D01*
X83389847Y-99200188D01*
X83389844Y-99200184D01*
X83280351Y-99090691D01*
X97389500Y-99090691D01*
X97389500Y-99209309D01*
X97420201Y-99323886D01*
X97479511Y-99426613D01*
X97563387Y-99510489D01*
X97666114Y-99569799D01*
X97780691Y-99600500D01*
X97780694Y-99600500D01*
X97899306Y-99600500D01*
X97899309Y-99600500D01*
X98013886Y-99569799D01*
X98013888Y-99569797D01*
X98013890Y-99569797D01*
X98013891Y-99569796D01*
X98116613Y-99510489D01*
X98200489Y-99426613D01*
X98259799Y-99323886D01*
X98290500Y-99209309D01*
X98290500Y-99090691D01*
X98259799Y-98976114D01*
X98200489Y-98873387D01*
X98116613Y-98789511D01*
X98013886Y-98730201D01*
X97899309Y-98699500D01*
X97780691Y-98699500D01*
X97666114Y-98730201D01*
X97666112Y-98730201D01*
X97666112Y-98730202D01*
X97563387Y-98789511D01*
X97563384Y-98789513D01*
X97479513Y-98873384D01*
X97479511Y-98873387D01*
X97420201Y-98976114D01*
X97389500Y-99090691D01*
X83280351Y-99090691D01*
X83269715Y-99080055D01*
X83269711Y-99080052D01*
X83128453Y-98985666D01*
X83128444Y-98985661D01*
X82971482Y-98920646D01*
X82971476Y-98920644D01*
X82804851Y-98887500D01*
X82804849Y-98887500D01*
X82634951Y-98887500D01*
X82634949Y-98887500D01*
X82468323Y-98920644D01*
X82468317Y-98920646D01*
X82311355Y-98985661D01*
X82311346Y-98985666D01*
X82170088Y-99080052D01*
X82170084Y-99080055D01*
X82049955Y-99200184D01*
X82049952Y-99200188D01*
X81955566Y-99341446D01*
X81955561Y-99341455D01*
X81890546Y-99498417D01*
X81890544Y-99498423D01*
X81857400Y-99665048D01*
X81857400Y-99665051D01*
X81857400Y-99834949D01*
X81857400Y-99834951D01*
X81857399Y-99834951D01*
X77900500Y-99834951D01*
X77900500Y-97294951D01*
X81857399Y-97294951D01*
X81890544Y-97461576D01*
X81890546Y-97461582D01*
X81955561Y-97618544D01*
X81955566Y-97618553D01*
X82049952Y-97759811D01*
X82049955Y-97759815D01*
X82170084Y-97879944D01*
X82170088Y-97879947D01*
X82311346Y-97974333D01*
X82311352Y-97974336D01*
X82311353Y-97974337D01*
X82468318Y-98039354D01*
X82468322Y-98039354D01*
X82468323Y-98039355D01*
X82634948Y-98072500D01*
X82634951Y-98072500D01*
X82804851Y-98072500D01*
X82916952Y-98050200D01*
X82971482Y-98039354D01*
X83128447Y-97974337D01*
X83269712Y-97879947D01*
X83298968Y-97850691D01*
X97329500Y-97850691D01*
X97329500Y-97969309D01*
X97360201Y-98083886D01*
X97419511Y-98186613D01*
X97503387Y-98270489D01*
X97606114Y-98329799D01*
X97720691Y-98360500D01*
X97720694Y-98360500D01*
X97839306Y-98360500D01*
X97839309Y-98360500D01*
X97953886Y-98329799D01*
X98056613Y-98270489D01*
X98140489Y-98186613D01*
X98199799Y-98083886D01*
X98230500Y-97969309D01*
X98230500Y-97850691D01*
X98199799Y-97736114D01*
X98140489Y-97633387D01*
X98056613Y-97549511D01*
X97953886Y-97490201D01*
X97839309Y-97459500D01*
X97720691Y-97459500D01*
X97606114Y-97490201D01*
X97606112Y-97490201D01*
X97606112Y-97490202D01*
X97503387Y-97549511D01*
X97503384Y-97549513D01*
X97419513Y-97633384D01*
X97419511Y-97633387D01*
X97360201Y-97736114D01*
X97329500Y-97850691D01*
X83298968Y-97850691D01*
X83389847Y-97759812D01*
X83484237Y-97618547D01*
X83549254Y-97461582D01*
X83582400Y-97294949D01*
X83582400Y-97125051D01*
X83582400Y-97125048D01*
X83578491Y-97105397D01*
X107057900Y-97105397D01*
X107057900Y-97314602D01*
X107098709Y-97519766D01*
X107098712Y-97519775D01*
X107178763Y-97713038D01*
X107178769Y-97713049D01*
X107212626Y-97763719D01*
X107630404Y-97345941D01*
X107646519Y-97406081D01*
X107713398Y-97521920D01*
X107807980Y-97616502D01*
X107923819Y-97683381D01*
X107983957Y-97699494D01*
X107566179Y-98117272D01*
X107616854Y-98151133D01*
X107810124Y-98231187D01*
X107810133Y-98231190D01*
X108015297Y-98271999D01*
X108015300Y-98272000D01*
X108224500Y-98272000D01*
X108224502Y-98271999D01*
X108429666Y-98231190D01*
X108429675Y-98231187D01*
X108622939Y-98151136D01*
X108673619Y-98117272D01*
X108255842Y-97699494D01*
X108315981Y-97683381D01*
X108431820Y-97616502D01*
X108526402Y-97521920D01*
X108593281Y-97406081D01*
X108609395Y-97345942D01*
X109027172Y-97763719D01*
X109061036Y-97713039D01*
X109141087Y-97519775D01*
X109141090Y-97519766D01*
X109181899Y-97314602D01*
X109181900Y-97314600D01*
X109181900Y-97105399D01*
X109181899Y-97105397D01*
X109141090Y-96900233D01*
X109141087Y-96900224D01*
X109061033Y-96706954D01*
X109027172Y-96656279D01*
X108609394Y-97074056D01*
X108593281Y-97013919D01*
X108526402Y-96898080D01*
X108431820Y-96803498D01*
X108315981Y-96736619D01*
X108255841Y-96720504D01*
X108673619Y-96302726D01*
X108673619Y-96302725D01*
X108622949Y-96268869D01*
X108622938Y-96268863D01*
X108429675Y-96188812D01*
X108429666Y-96188809D01*
X108224501Y-96148000D01*
X108015299Y-96148000D01*
X107810133Y-96188809D01*
X107810124Y-96188812D01*
X107616859Y-96268864D01*
X107566178Y-96302726D01*
X107983958Y-96720504D01*
X107923819Y-96736619D01*
X107807980Y-96803498D01*
X107713398Y-96898080D01*
X107646519Y-97013919D01*
X107630405Y-97074057D01*
X107212626Y-96656278D01*
X107178764Y-96706959D01*
X107098712Y-96900224D01*
X107098709Y-96900233D01*
X107057900Y-97105397D01*
X83578491Y-97105397D01*
X83549255Y-96958423D01*
X83549254Y-96958422D01*
X83549254Y-96958418D01*
X83484237Y-96801453D01*
X83484236Y-96801452D01*
X83484233Y-96801446D01*
X83389847Y-96660188D01*
X83389844Y-96660184D01*
X83310351Y-96580691D01*
X97319500Y-96580691D01*
X97319500Y-96699309D01*
X97350201Y-96813886D01*
X97409511Y-96916613D01*
X97493387Y-97000489D01*
X97596114Y-97059799D01*
X97710691Y-97090500D01*
X97710694Y-97090500D01*
X97829306Y-97090500D01*
X97829309Y-97090500D01*
X97943886Y-97059799D01*
X98046613Y-97000489D01*
X98130489Y-96916613D01*
X98189799Y-96813886D01*
X98220500Y-96699309D01*
X98220500Y-96580691D01*
X98189799Y-96466114D01*
X98189797Y-96466110D01*
X98157943Y-96410937D01*
X98144093Y-96386951D01*
X98130489Y-96363387D01*
X98046613Y-96279511D01*
X97943886Y-96220201D01*
X97829309Y-96189500D01*
X97710691Y-96189500D01*
X97596114Y-96220201D01*
X97596112Y-96220201D01*
X97596112Y-96220202D01*
X97493387Y-96279511D01*
X97493384Y-96279513D01*
X97409513Y-96363384D01*
X97409511Y-96363387D01*
X97350201Y-96466114D01*
X97319500Y-96580691D01*
X83310351Y-96580691D01*
X83269715Y-96540055D01*
X83269711Y-96540052D01*
X83128453Y-96445666D01*
X83128444Y-96445661D01*
X82971482Y-96380646D01*
X82971476Y-96380644D01*
X82804851Y-96347500D01*
X82804849Y-96347500D01*
X82634951Y-96347500D01*
X82634949Y-96347500D01*
X82468323Y-96380644D01*
X82468317Y-96380646D01*
X82311355Y-96445661D01*
X82311346Y-96445666D01*
X82170088Y-96540052D01*
X82170084Y-96540055D01*
X82049955Y-96660184D01*
X82049952Y-96660188D01*
X81955566Y-96801446D01*
X81955561Y-96801455D01*
X81890546Y-96958417D01*
X81890544Y-96958423D01*
X81857400Y-97125048D01*
X81857400Y-97125051D01*
X81857400Y-97294949D01*
X81857400Y-97294951D01*
X81857399Y-97294951D01*
X77900500Y-97294951D01*
X77900500Y-94754951D01*
X81857399Y-94754951D01*
X81890544Y-94921576D01*
X81890546Y-94921582D01*
X81955561Y-95078544D01*
X81955566Y-95078553D01*
X82049952Y-95219811D01*
X82049955Y-95219815D01*
X82170084Y-95339944D01*
X82170088Y-95339947D01*
X82311346Y-95434333D01*
X82311352Y-95434336D01*
X82311353Y-95434337D01*
X82468318Y-95499354D01*
X82468322Y-95499354D01*
X82468323Y-95499355D01*
X82634948Y-95532500D01*
X82634951Y-95532500D01*
X82804851Y-95532500D01*
X82916952Y-95510200D01*
X82971482Y-95499354D01*
X83128447Y-95434337D01*
X83132652Y-95431527D01*
X83137993Y-95427959D01*
X83137993Y-95427958D01*
X83269712Y-95339947D01*
X83389847Y-95219812D01*
X83484237Y-95078547D01*
X83549254Y-94921582D01*
X83582400Y-94754949D01*
X83582400Y-94585051D01*
X83582399Y-94585048D01*
X83582093Y-94583507D01*
X83582093Y-94583505D01*
X83582092Y-94583502D01*
X83578491Y-94565397D01*
X107057900Y-94565397D01*
X107057900Y-94774602D01*
X107098709Y-94979766D01*
X107098712Y-94979775D01*
X107178763Y-95173038D01*
X107178769Y-95173049D01*
X107212626Y-95223719D01*
X107630404Y-94805941D01*
X107646519Y-94866081D01*
X107713398Y-94981920D01*
X107807980Y-95076502D01*
X107923819Y-95143381D01*
X107983957Y-95159494D01*
X107566179Y-95577272D01*
X107616854Y-95611133D01*
X107810124Y-95691187D01*
X107810133Y-95691190D01*
X108015297Y-95731999D01*
X108015300Y-95732000D01*
X108224500Y-95732000D01*
X108224502Y-95731999D01*
X108429666Y-95691190D01*
X108429675Y-95691187D01*
X108622939Y-95611136D01*
X108673619Y-95577272D01*
X108255842Y-95159494D01*
X108315981Y-95143381D01*
X108431820Y-95076502D01*
X108526402Y-94981920D01*
X108593281Y-94866081D01*
X108609395Y-94805942D01*
X109027172Y-95223719D01*
X109061036Y-95173039D01*
X109141087Y-94979775D01*
X109141090Y-94979766D01*
X109181899Y-94774602D01*
X109181900Y-94774600D01*
X109181900Y-94565399D01*
X109181899Y-94565397D01*
X109141090Y-94360233D01*
X109141087Y-94360224D01*
X109061033Y-94166954D01*
X109027172Y-94116279D01*
X108609394Y-94534056D01*
X108593281Y-94473919D01*
X108526402Y-94358080D01*
X108431820Y-94263498D01*
X108315981Y-94196619D01*
X108255841Y-94180504D01*
X108673619Y-93762726D01*
X108673619Y-93762725D01*
X108622949Y-93728869D01*
X108622938Y-93728863D01*
X108429675Y-93648812D01*
X108429666Y-93648809D01*
X108224501Y-93608000D01*
X108015299Y-93608000D01*
X107810133Y-93648809D01*
X107810124Y-93648812D01*
X107616859Y-93728864D01*
X107566178Y-93762726D01*
X107983958Y-94180504D01*
X107923819Y-94196619D01*
X107807980Y-94263498D01*
X107713398Y-94358080D01*
X107646519Y-94473919D01*
X107630405Y-94534057D01*
X107212626Y-94116278D01*
X107178764Y-94166959D01*
X107098712Y-94360224D01*
X107098709Y-94360233D01*
X107057900Y-94565397D01*
X83578491Y-94565397D01*
X83549255Y-94418423D01*
X83549254Y-94418422D01*
X83549254Y-94418418D01*
X83484237Y-94261453D01*
X83484236Y-94261452D01*
X83484233Y-94261446D01*
X83389847Y-94120188D01*
X83389844Y-94120184D01*
X83269712Y-94000052D01*
X83137990Y-93912039D01*
X83137989Y-93912038D01*
X83128455Y-93905667D01*
X83128444Y-93905661D01*
X82971482Y-93840646D01*
X82971476Y-93840644D01*
X82804851Y-93807500D01*
X82804849Y-93807500D01*
X82634951Y-93807500D01*
X82634949Y-93807500D01*
X82468323Y-93840644D01*
X82468317Y-93840646D01*
X82311355Y-93905661D01*
X82311346Y-93905666D01*
X82170088Y-94000052D01*
X82170084Y-94000055D01*
X82049955Y-94120184D01*
X82049952Y-94120188D01*
X81955566Y-94261446D01*
X81955561Y-94261455D01*
X81890546Y-94418417D01*
X81890544Y-94418423D01*
X81857400Y-94585048D01*
X81857400Y-94585049D01*
X81857400Y-94585051D01*
X81857400Y-94754949D01*
X81857400Y-94754951D01*
X81857399Y-94754951D01*
X77900500Y-94754951D01*
X77900500Y-91824500D01*
X77920185Y-91757461D01*
X77972989Y-91711706D01*
X78024500Y-91700500D01*
X112775500Y-91700500D01*
X112842539Y-91720185D01*
G37*
%TD.AperFunction*%
%TD*%
M02*
