%TF.GenerationSoftware,KiCad,Pcbnew,9.0.0*%
%TF.CreationDate,2025-04-24T13:45:02+03:00*%
%TF.ProjectId,ESP32_BOARD,45535033-325f-4424-9f41-52442e6b6963,1.0*%
%TF.SameCoordinates,Original*%
%TF.FileFunction,Copper,L1,Top*%
%TF.FilePolarity,Positive*%
%FSLAX46Y46*%
G04 Gerber Fmt 4.6, Leading zero omitted, Abs format (unit mm)*
G04 Created by KiCad (PCBNEW 9.0.0) date 2025-04-24 13:45:02*
%MOMM*%
%LPD*%
G01*
G04 APERTURE LIST*
G04 Aperture macros list*
%AMRoundRect*
0 Rectangle with rounded corners*
0 $1 Rounding radius*
0 $2 $3 $4 $5 $6 $7 $8 $9 X,Y pos of 4 corners*
0 Add a 4 corners polygon primitive as box body*
4,1,4,$2,$3,$4,$5,$6,$7,$8,$9,$2,$3,0*
0 Add four circle primitives for the rounded corners*
1,1,$1+$1,$2,$3*
1,1,$1+$1,$4,$5*
1,1,$1+$1,$6,$7*
1,1,$1+$1,$8,$9*
0 Add four rect primitives between the rounded corners*
20,1,$1+$1,$2,$3,$4,$5,0*
20,1,$1+$1,$4,$5,$6,$7,0*
20,1,$1+$1,$6,$7,$8,$9,0*
20,1,$1+$1,$8,$9,$2,$3,0*%
%AMRotRect*
0 Rectangle, with rotation*
0 The origin of the aperture is its center*
0 $1 length*
0 $2 width*
0 $3 Rotation angle, in degrees counterclockwise*
0 Add horizontal line*
21,1,$1,$2,0,0,$3*%
G04 Aperture macros list end*
%TA.AperFunction,EtchedComponent*%
%ADD10C,0.000000*%
%TD*%
%TA.AperFunction,SMDPad,CuDef*%
%ADD11R,0.997699X0.456400*%
%TD*%
%TA.AperFunction,SMDPad,CuDef*%
%ADD12R,0.540000X0.600000*%
%TD*%
%TA.AperFunction,SMDPad,CuDef*%
%ADD13RoundRect,0.072500X0.732500X0.217500X-0.732500X0.217500X-0.732500X-0.217500X0.732500X-0.217500X0*%
%TD*%
%TA.AperFunction,SMDPad,CuDef*%
%ADD14R,0.350000X0.600000*%
%TD*%
%TA.AperFunction,SMDPad,CuDef*%
%ADD15R,2.000000X0.600000*%
%TD*%
%TA.AperFunction,SMDPad,CuDef*%
%ADD16RoundRect,0.158750X0.158750X-0.158750X0.158750X0.158750X-0.158750X0.158750X-0.158750X-0.158750X0*%
%TD*%
%TA.AperFunction,SMDPad,CuDef*%
%ADD17R,0.800000X0.900000*%
%TD*%
%TA.AperFunction,SMDPad,CuDef*%
%ADD18RoundRect,0.158750X-0.158750X0.158750X-0.158750X-0.158750X0.158750X-0.158750X0.158750X0.158750X0*%
%TD*%
%TA.AperFunction,SMDPad,CuDef*%
%ADD19R,0.540000X0.565500*%
%TD*%
%TA.AperFunction,SMDPad,CuDef*%
%ADD20R,0.600000X0.350000*%
%TD*%
%TA.AperFunction,SMDPad,CuDef*%
%ADD21R,0.565500X0.540000*%
%TD*%
%TA.AperFunction,SMDPad,CuDef*%
%ADD22R,1.100000X1.380000*%
%TD*%
%TA.AperFunction,SMDPad,CuDef*%
%ADD23R,1.080000X1.420000*%
%TD*%
%TA.AperFunction,SMDPad,CuDef*%
%ADD24R,0.900000X0.800000*%
%TD*%
%TA.AperFunction,SMDPad,CuDef*%
%ADD25C,1.000000*%
%TD*%
%TA.AperFunction,SMDPad,CuDef*%
%ADD26R,1.200000X1.400000*%
%TD*%
%TA.AperFunction,SMDPad,CuDef*%
%ADD27R,0.600000X0.540000*%
%TD*%
%TA.AperFunction,SMDPad,CuDef*%
%ADD28RoundRect,0.150000X0.150000X-0.512500X0.150000X0.512500X-0.150000X0.512500X-0.150000X-0.512500X0*%
%TD*%
%TA.AperFunction,SMDPad,CuDef*%
%ADD29RoundRect,0.027500X-0.082500X0.377500X-0.082500X-0.377500X0.082500X-0.377500X0.082500X0.377500X0*%
%TD*%
%TA.AperFunction,SMDPad,CuDef*%
%ADD30RoundRect,0.027500X-0.377500X0.082500X-0.377500X-0.082500X0.377500X-0.082500X0.377500X0.082500X0*%
%TD*%
%TA.AperFunction,SMDPad,CuDef*%
%ADD31R,4.000000X4.000000*%
%TD*%
%TA.AperFunction,SMDPad,CuDef*%
%ADD32R,0.700000X0.500000*%
%TD*%
%TA.AperFunction,SMDPad,CuDef*%
%ADD33R,0.300000X0.800000*%
%TD*%
%TA.AperFunction,SMDPad,CuDef*%
%ADD34R,1.300000X0.700000*%
%TD*%
%TA.AperFunction,SMDPad,CuDef*%
%ADD35R,1.210000X1.820000*%
%TD*%
%TA.AperFunction,SMDPad,CuDef*%
%ADD36RotRect,0.900000X0.970000X225.000000*%
%TD*%
%TA.AperFunction,SMDPad,CuDef*%
%ADD37R,1.041400X0.812800*%
%TD*%
%TA.AperFunction,ComponentPad*%
%ADD38R,1.524000X1.524000*%
%TD*%
%TA.AperFunction,ComponentPad*%
%ADD39C,1.524000*%
%TD*%
%TA.AperFunction,SMDPad,CuDef*%
%ADD40RoundRect,0.158750X-0.158750X-0.158750X0.158750X-0.158750X0.158750X0.158750X-0.158750X0.158750X0*%
%TD*%
%TA.AperFunction,SMDPad,CuDef*%
%ADD41R,0.560000X0.600000*%
%TD*%
%TA.AperFunction,ComponentPad*%
%ADD42O,1.000000X2.100000*%
%TD*%
%TA.AperFunction,ComponentPad*%
%ADD43O,1.000000X1.800000*%
%TD*%
%TA.AperFunction,ComponentPad*%
%ADD44R,1.650000X1.650000*%
%TD*%
%TA.AperFunction,ComponentPad*%
%ADD45C,1.650000*%
%TD*%
%TA.AperFunction,ViaPad*%
%ADD46C,0.600000*%
%TD*%
%TA.AperFunction,Conductor*%
%ADD47C,0.200000*%
%TD*%
%TA.AperFunction,Conductor*%
%ADD48C,0.300000*%
%TD*%
%TA.AperFunction,Conductor*%
%ADD49C,0.400000*%
%TD*%
%TA.AperFunction,Conductor*%
%ADD50C,0.500000*%
%TD*%
G04 APERTURE END LIST*
D10*
%TA.AperFunction,EtchedComponent*%
%TO.C,SW1*%
G36*
X112596083Y-139892111D02*
G01*
X111503883Y-139892111D01*
X111503883Y-138492111D01*
X112596083Y-138492111D01*
X112596083Y-139892111D01*
G37*
%TD.AperFunction*%
%TA.AperFunction,EtchedComponent*%
G36*
X112596083Y-135442031D02*
G01*
X111503883Y-135442031D01*
X111503883Y-134042031D01*
X112596083Y-134042031D01*
X112596083Y-135442031D01*
G37*
%TD.AperFunction*%
%TD*%
D11*
%TO.P,IC2,1,PG*%
%TO.N,/Power Management/PGOOD_12V*%
X100749751Y-141774999D03*
%TO.P,IC2,2,IN*%
%TO.N,+12V*%
X100749751Y-141125001D03*
%TO.P,IC2,3,SW*%
%TO.N,/Power Management/+3V3_SW_IC_IN*%
X100749751Y-140474999D03*
%TO.P,IC2,4,GND*%
%TO.N,GND*%
X100749751Y-139825001D03*
%TO.P,IC2,5,BST*%
%TO.N,/Power Management/+3V3_BST_IC_IN*%
X98050249Y-139825001D03*
%TO.P,IC2,6,EN/SYNC*%
%TO.N,/Power Management/+12V_EN_IC_IN*%
X98050249Y-140474999D03*
%TO.P,IC2,7,VCC*%
%TO.N,/Power Management/+12V_INT_LDO*%
X98050249Y-141125001D03*
%TO.P,IC2,8,FB*%
%TO.N,/Power Management/+3V3_FEEDBACK_IC_IN*%
X98050249Y-141774999D03*
%TD*%
D12*
%TO.P,R7,1*%
%TO.N,/Power Management/+3V3_FB_HS*%
X95664000Y-143300000D03*
%TO.P,R7,2*%
%TO.N,+3V3*%
X94800000Y-143300000D03*
%TD*%
D13*
%TO.P,IC3,1,/CS*%
%TO.N,/Microcontroller/SPICS0*%
X98815000Y-120345000D03*
%TO.P,IC3,2,DO(IO1)*%
%TO.N,/Microcontroller/SPIQ*%
X98815000Y-119075000D03*
%TO.P,IC3,3,/WP(IO2)*%
%TO.N,/Microcontroller/SPIWP*%
X98815000Y-117805000D03*
%TO.P,IC3,4,GND*%
%TO.N,GND*%
X98815000Y-116535000D03*
%TO.P,IC3,5,DI(IO0)*%
%TO.N,/Microcontroller/SPID*%
X91605000Y-116535000D03*
%TO.P,IC3,6,CLK*%
%TO.N,/Microcontroller/SPICLK*%
X91605000Y-117805000D03*
%TO.P,IC3,7,/HOLD/RESET(IO3)*%
%TO.N,/Microcontroller/SPIHD*%
X91605000Y-119075000D03*
%TO.P,IC3,8,VCC*%
%TO.N,VDD_SDIO*%
X91605000Y-120345000D03*
%TD*%
D14*
%TO.P,C32,1*%
%TO.N,+3V3*%
X88660000Y-127160000D03*
%TO.P,C32,2*%
%TO.N,GND*%
X89710000Y-127160000D03*
%TD*%
D15*
%TO.P,L1,1*%
%TO.N,/Power Management/+3V3_SW_IC_IN*%
X100700000Y-138150000D03*
%TO.P,L1,2*%
%TO.N,+3V3*%
X100700000Y-136250000D03*
%TD*%
D16*
%TO.P,R11,1*%
%TO.N,+3V3*%
X81285500Y-126430000D03*
%TO.P,R11,2*%
%TO.N,I2C_SDA*%
X82174500Y-126430000D03*
%TD*%
D12*
%TO.P,C16,1*%
%TO.N,+3V3*%
X96702000Y-101490000D03*
%TO.P,C16,2*%
%TO.N,GND*%
X95838000Y-101490000D03*
%TD*%
D17*
%TO.P,C18,1*%
%TO.N,+3V3*%
X96720000Y-99740000D03*
%TO.P,C18,2*%
%TO.N,GND*%
X95320000Y-99740000D03*
%TD*%
D18*
%TO.P,R10,1*%
%TO.N,GPIO0*%
X107309500Y-139200000D03*
%TO.P,R10,2*%
%TO.N,+3V3*%
X106420500Y-139200000D03*
%TD*%
D19*
%TO.P,R1,1*%
%TO.N,+5V*%
X85400000Y-139883000D03*
%TO.P,R1,2*%
%TO.N,/Power Management/5V_EN_IC_IN*%
X85400000Y-139017000D03*
%TD*%
D20*
%TO.P,C13,1*%
%TO.N,/Power Management/+12V_INT_LDO*%
X96400000Y-141175000D03*
%TO.P,C13,2*%
%TO.N,GND*%
X96400000Y-142225000D03*
%TD*%
D21*
%TO.P,R9,1*%
%TO.N,BOOT*%
X79327000Y-137280000D03*
%TO.P,R9,2*%
%TO.N,+3V3*%
X80193000Y-137280000D03*
%TD*%
D17*
%TO.P,C17,1*%
%TO.N,+3V3*%
X99010000Y-99720000D03*
%TO.P,C17,2*%
%TO.N,GND*%
X100410000Y-99720000D03*
%TD*%
D22*
%TO.P,C10,1*%
%TO.N,+12V*%
X104737000Y-144900000D03*
%TO.P,C10,2*%
%TO.N,GND*%
X106463000Y-144900000D03*
%TD*%
D23*
%TO.P,C9,1*%
%TO.N,+3V3*%
X98985000Y-134280000D03*
%TO.P,C9,2*%
%TO.N,GND*%
X97195000Y-134280000D03*
%TD*%
D21*
%TO.P,R12,1*%
%TO.N,ESP_TP_INT*%
X81276000Y-125380000D03*
%TO.P,R12,2*%
%TO.N,+3V3*%
X80410000Y-125380000D03*
%TD*%
D24*
%TO.P,C20,1*%
%TO.N,+3V3*%
X99810000Y-102840000D03*
%TO.P,C20,2*%
%TO.N,GND*%
X99810000Y-101440000D03*
%TD*%
D12*
%TO.P,C31,1*%
%TO.N,+3V3*%
X97658000Y-122780000D03*
%TO.P,C31,2*%
%TO.N,GND*%
X98522000Y-122780000D03*
%TD*%
D17*
%TO.P,C24,1*%
%TO.N,VDD_SDIO*%
X89820000Y-120350000D03*
%TO.P,C24,2*%
%TO.N,GND*%
X88420000Y-120350000D03*
%TD*%
D25*
%TO.P,FID4,*%
%TO.N,*%
X79140000Y-92880000D03*
%TD*%
D26*
%TO.P,Q1,1,OSC1*%
%TO.N,/Microcontroller/XTAL_N*%
X105540000Y-107295000D03*
%TO.P,Q1,2,GND*%
%TO.N,GND*%
X105540000Y-105095000D03*
%TO.P,Q1,3,OSC2*%
%TO.N,/Microcontroller/XTAL_P*%
X103840000Y-105095000D03*
%TO.P,Q1,4,GND*%
%TO.N,GND*%
X103840000Y-107295000D03*
%TD*%
D27*
%TO.P,R2,1*%
%TO.N,/Power Management/+3V3_BST_IC_IN*%
X97200000Y-137932000D03*
%TO.P,R2,2*%
%TO.N,Net-(C7-Pad1)*%
X97200000Y-137068000D03*
%TD*%
D28*
%TO.P,IC1,1,VIN*%
%TO.N,+5V*%
X87160000Y-139875000D03*
%TO.P,IC1,2,GND*%
%TO.N,GND*%
X88110000Y-139875000D03*
%TO.P,IC1,3,EN*%
%TO.N,/Power Management/5V_EN_IC_IN*%
X89060000Y-139875000D03*
%TO.P,IC1,4,NC*%
%TO.N,unconnected-(IC1-NC-Pad4)*%
X89060000Y-137600000D03*
%TO.P,IC1,5,VOUT*%
%TO.N,+3V3*%
X87160000Y-137600000D03*
%TD*%
D22*
%TO.P,C11,1*%
%TO.N,+12V*%
X104737000Y-142600000D03*
%TO.P,C11,2*%
%TO.N,GND*%
X106463000Y-142600000D03*
%TD*%
D25*
%TO.P,FID3,*%
%TO.N,*%
X111290000Y-150630000D03*
%TD*%
D14*
%TO.P,C27,1*%
%TO.N,BOOT*%
X79325000Y-149140000D03*
%TO.P,C27,2*%
%TO.N,GND*%
X80375000Y-149140000D03*
%TD*%
D23*
%TO.P,C8,1*%
%TO.N,+3V3*%
X102305000Y-134290000D03*
%TO.P,C8,2*%
%TO.N,GND*%
X104095000Y-134290000D03*
%TD*%
D12*
%TO.P,C29,1*%
%TO.N,+3V3*%
X99468000Y-131180000D03*
%TO.P,C29,2*%
%TO.N,GND*%
X100332000Y-131180000D03*
%TD*%
%TO.P,C30,1*%
%TO.N,+3V3*%
X88688000Y-125530000D03*
%TO.P,C30,2*%
%TO.N,GND*%
X89552000Y-125530000D03*
%TD*%
D29*
%TO.P,IC4,1,LNA_IN*%
%TO.N,unconnected-(IC4-LNA_IN-Pad1)*%
X97950000Y-104490000D03*
%TO.P,IC4,2,VDD3P3*%
%TO.N,+3V3*%
X97550000Y-104490000D03*
%TO.P,IC4,3,VDD3P3*%
X97150000Y-104490000D03*
%TO.P,IC4,4,CHIP_PU*%
%TO.N,RESET*%
X96750000Y-104490000D03*
%TO.P,IC4,5,GPIO0*%
%TO.N,GPIO0*%
X96350000Y-104490000D03*
%TO.P,IC4,6,GPIO1*%
%TO.N,GPIO1*%
X95950000Y-104490000D03*
%TO.P,IC4,7,GPIO2*%
%TO.N,GPIO2*%
X95550000Y-104490000D03*
%TO.P,IC4,8,GPIO3*%
%TO.N,GPIO3*%
X95150000Y-104490000D03*
%TO.P,IC4,9,GPIO4*%
%TO.N,unconnected-(IC4-GPIO4-Pad9)*%
X94750000Y-104490000D03*
%TO.P,IC4,10,GPIO5*%
%TO.N,ESP_LCD_RES*%
X94350000Y-104490000D03*
%TO.P,IC4,11,GPIO6*%
%TO.N,ESP_LCD_CS*%
X93950000Y-104490000D03*
%TO.P,IC4,12,GPIO7*%
%TO.N,ESP_LCD_D{slash}C*%
X93550000Y-104490000D03*
%TO.P,IC4,13,GPIO8*%
%TO.N,ESP_LCD_WR*%
X93150000Y-104490000D03*
%TO.P,IC4,14,GPIO9*%
%TO.N,ESP_LCD_RD*%
X92750000Y-104490000D03*
D30*
%TO.P,IC4,15,GPIO10*%
%TO.N,GPIO10*%
X91905000Y-105335000D03*
%TO.P,IC4,16,GPIO11*%
%TO.N,GPIO11*%
X91905000Y-105735000D03*
%TO.P,IC4,17,GPIO12*%
%TO.N,GPIO12*%
X91905000Y-106135000D03*
%TO.P,IC4,18,GPIO13*%
%TO.N,GPIO13*%
X91905000Y-106535000D03*
%TO.P,IC4,19,GPIO14*%
%TO.N,BOOT*%
X91905000Y-106935000D03*
%TO.P,IC4,20,VDD3P3_RTC*%
%TO.N,+3V3*%
X91905000Y-107335000D03*
%TO.P,IC4,21,XTAL_32K_P*%
%TO.N,unconnected-(IC4-XTAL_32K_P-Pad21)*%
X91905000Y-107735000D03*
%TO.P,IC4,22,XTAL_32K_N*%
%TO.N,ESP_TP_INT*%
X91905000Y-108135000D03*
%TO.P,IC4,23,GPIO17*%
%TO.N,I2C_SCL*%
X91905000Y-108535000D03*
%TO.P,IC4,24,GPIO18*%
%TO.N,I2C_SDA*%
X91905000Y-108935000D03*
%TO.P,IC4,25,GPIO19*%
%TO.N,ESP_USB_D-*%
X91905000Y-109335000D03*
%TO.P,IC4,26,GPIO20*%
%TO.N,ESP_USB_D+*%
X91905000Y-109735000D03*
%TO.P,IC4,27,GPIO21*%
%TO.N,ESP_TP_RESET*%
X91905000Y-110135000D03*
%TO.P,IC4,28,SPICS1*%
%TO.N,unconnected-(IC4-SPICS1-Pad28)*%
X91905000Y-110535000D03*
D29*
%TO.P,IC4,29,VDD_SPI*%
%TO.N,VDD_SDIO*%
X92750000Y-111380000D03*
%TO.P,IC4,30,SPIHD*%
%TO.N,/Microcontroller/SPIHD*%
X93150000Y-111380000D03*
%TO.P,IC4,31,SPIWP*%
%TO.N,/Microcontroller/SPIWP*%
X93550000Y-111380000D03*
%TO.P,IC4,32,SPICS0*%
%TO.N,/Microcontroller/SPICS0*%
X93950000Y-111380000D03*
%TO.P,IC4,33,SPICLK*%
%TO.N,/Microcontroller/SPICLK*%
X94350000Y-111380000D03*
%TO.P,IC4,34,SPIQ*%
%TO.N,/Microcontroller/SPIQ*%
X94750000Y-111380000D03*
%TO.P,IC4,35,SPID*%
%TO.N,/Microcontroller/SPID*%
X95150000Y-111380000D03*
%TO.P,IC4,36,SPICLK_N*%
%TO.N,ESP_LCD_D7*%
X95550000Y-111380000D03*
%TO.P,IC4,37,SPICLK_P*%
%TO.N,ESP_LCD_D6*%
X95950000Y-111380000D03*
%TO.P,IC4,38,GPIO33*%
%TO.N,unconnected-(IC4-GPIO33-Pad38)*%
X96350000Y-111380000D03*
%TO.P,IC4,39,GPIO34*%
%TO.N,unconnected-(IC4-GPIO34-Pad39)*%
X96750000Y-111380000D03*
%TO.P,IC4,40,GPIO35*%
%TO.N,unconnected-(IC4-GPIO35-Pad40)*%
X97150000Y-111380000D03*
%TO.P,IC4,41,GPIO36*%
%TO.N,unconnected-(IC4-GPIO36-Pad41)*%
X97550000Y-111380000D03*
%TO.P,IC4,42,GPIO37*%
%TO.N,unconnected-(IC4-GPIO37-Pad42)*%
X97950000Y-111380000D03*
D30*
%TO.P,IC4,43,GPIO38*%
%TO.N,ESP_LCD_BLK*%
X98795000Y-110535000D03*
%TO.P,IC4,44,MTCK*%
%TO.N,ESP_LCD_D0*%
X98795000Y-110135000D03*
%TO.P,IC4,45,MTDO*%
%TO.N,ESP_LCD_D1*%
X98795000Y-109735000D03*
%TO.P,IC4,46,VDD3P3_CPU*%
%TO.N,+3V3*%
X98795000Y-109335000D03*
%TO.P,IC4,47,MTDI*%
%TO.N,ESP_LCD_D2*%
X98795000Y-108935000D03*
%TO.P,IC4,48,MTMS*%
%TO.N,ESP_LCD_D3*%
X98795000Y-108535000D03*
%TO.P,IC4,49,U0TXD*%
%TO.N,U0TXD*%
X98795000Y-108135000D03*
%TO.P,IC4,50,U0RXD*%
%TO.N,U0RXD*%
X98795000Y-107735000D03*
%TO.P,IC4,51,GPIO45*%
%TO.N,ESP_LCD_D4*%
X98795000Y-107335000D03*
%TO.P,IC4,52,GPIO46*%
%TO.N,ESP_LCD_D5*%
X98795000Y-106935000D03*
%TO.P,IC4,53,XTAL_N*%
%TO.N,/Microcontroller/XTAL_N*%
X98795000Y-106535000D03*
%TO.P,IC4,54,XTAL_P*%
%TO.N,/Microcontroller/RX_XTAL_P_IC_IN*%
X98795000Y-106135000D03*
%TO.P,IC4,55,VDDA1*%
%TO.N,+3V3*%
X98795000Y-105735000D03*
%TO.P,IC4,56,VDDA2*%
X98795000Y-105335000D03*
D31*
%TO.P,IC4,57,GND*%
%TO.N,GND*%
X95350000Y-107935000D03*
%TD*%
D32*
%TO.P,D1,1*%
%TO.N,GND*%
X94387500Y-132610000D03*
%TO.P,D1,2*%
%TO.N,Net-(D1-Pad2)*%
X93487500Y-132610000D03*
%TD*%
D33*
%TO.P,IC5,1,PGND*%
%TO.N,GND*%
X98150000Y-129600000D03*
%TO.P,IC5,2,EN*%
%TO.N,ESP_LCD_BLK*%
X98650000Y-129600000D03*
%TO.P,IC5,3,VIN*%
%TO.N,+3V3*%
X99150000Y-129600000D03*
%TO.P,IC5,4,AGND*%
%TO.N,GND*%
X99650000Y-129600000D03*
%TO.P,IC5,5,LED4*%
%TO.N,/Display Connector and Driver/LEDK4*%
X99650000Y-127700000D03*
%TO.P,IC5,6,LED3*%
%TO.N,/Display Connector and Driver/LEDK3*%
X99150000Y-127700000D03*
%TO.P,IC5,7,LED2*%
%TO.N,/Display Connector and Driver/LEDK2*%
X98650000Y-127700000D03*
%TO.P,IC5,8,LED1*%
%TO.N,/Display Connector and Driver/LEDK1*%
X98150000Y-127700000D03*
D34*
%TO.P,IC5,9,EP*%
%TO.N,GND*%
X98900000Y-128650000D03*
%TD*%
D12*
%TO.P,C25,1*%
%TO.N,/Microcontroller/XTAL_P*%
X103838000Y-103465000D03*
%TO.P,C25,2*%
%TO.N,GND*%
X104702000Y-103465000D03*
%TD*%
D35*
%TO.P,C1,1*%
%TO.N,+5V*%
X84550000Y-145200000D03*
%TO.P,C1,2*%
%TO.N,GND*%
X81650000Y-145200000D03*
%TD*%
D21*
%TO.P,R4,1*%
%TO.N,/Power Management/PGOOD_12V*%
X100733000Y-143300000D03*
%TO.P,R4,2*%
%TO.N,/Power Management/+12V_INT_LDO*%
X99867000Y-143300000D03*
%TD*%
D12*
%TO.P,C21,1*%
%TO.N,VDD_SDIO*%
X92302000Y-112590000D03*
%TO.P,C21,2*%
%TO.N,GND*%
X91438000Y-112590000D03*
%TD*%
D36*
%TO.P,L2,1*%
%TO.N,/Microcontroller/XTAL_P*%
X101985079Y-104419921D03*
%TO.P,L2,2*%
%TO.N,/Microcontroller/RX_XTAL_P_IC_IN*%
X100874921Y-105530079D03*
%TD*%
D35*
%TO.P,C3,1*%
%TO.N,+3V3*%
X88550000Y-133410000D03*
%TO.P,C3,2*%
%TO.N,GND*%
X91450000Y-133410000D03*
%TD*%
D17*
%TO.P,C5,1*%
%TO.N,+5V*%
X87140000Y-141560000D03*
%TO.P,C5,2*%
%TO.N,GND*%
X88540000Y-141560000D03*
%TD*%
D12*
%TO.P,R5,1*%
%TO.N,/Power Management/+3V3_FEEDBACK_IC_IN*%
X98032000Y-143300000D03*
%TO.P,R5,2*%
%TO.N,/Power Management/+3V3_FB_MID*%
X97168000Y-143300000D03*
%TD*%
D23*
%TO.P,C4,1*%
%TO.N,+3V3*%
X85685000Y-133390000D03*
%TO.P,C4,2*%
%TO.N,GND*%
X83895000Y-133390000D03*
%TD*%
D17*
%TO.P,C22,1*%
%TO.N,+3V3*%
X90060000Y-107720000D03*
%TO.P,C22,2*%
%TO.N,GND*%
X88660000Y-107720000D03*
%TD*%
D18*
%TO.P,R14,1*%
%TO.N,RESET*%
X108974500Y-137350000D03*
%TO.P,R14,2*%
%TO.N,+3V3*%
X108085500Y-137350000D03*
%TD*%
D37*
%TO.P,SW1,1,1*%
%TO.N,RESET*%
X110770717Y-138604571D03*
%TO.P,SW1,2,2*%
%TO.N,GND*%
X110770717Y-135329571D03*
%TD*%
D12*
%TO.P,C26,1*%
%TO.N,/Microcontroller/XTAL_N*%
X105132000Y-108915000D03*
%TO.P,C26,2*%
%TO.N,GND*%
X104268000Y-108915000D03*
%TD*%
D27*
%TO.P,C19,1*%
%TO.N,+3V3*%
X101500000Y-102842000D03*
%TO.P,C19,2*%
%TO.N,GND*%
X101500000Y-101978000D03*
%TD*%
D12*
%TO.P,R15,1*%
%TO.N,+3V3*%
X94352000Y-134000000D03*
%TO.P,R15,2*%
%TO.N,Net-(D1-Pad2)*%
X93488000Y-134000000D03*
%TD*%
D17*
%TO.P,C6,1*%
%TO.N,+3V3*%
X85700000Y-135600000D03*
%TO.P,C6,2*%
%TO.N,GND*%
X84300000Y-135600000D03*
%TD*%
D38*
%TO.P,ST4,1,Pin_1*%
%TO.N,+3V3*%
X82719900Y-122610000D03*
D39*
%TO.P,ST4,2,Pin_2*%
%TO.N,GND*%
X82719900Y-120070000D03*
%TO.P,ST4,3,Pin_3*%
%TO.N,unconnected-(ST4-Pin_3-Pad3)*%
X82719900Y-117530000D03*
%TO.P,ST4,4,Pin_4*%
%TO.N,unconnected-(ST4-Pin_4-Pad4)*%
X82719900Y-114990000D03*
%TO.P,ST4,5,Pin_5*%
%TO.N,GPIO13*%
X82719900Y-112450000D03*
%TO.P,ST4,6,Pin_6*%
%TO.N,GPIO12*%
X82719900Y-109910000D03*
%TO.P,ST4,7,Pin_7*%
%TO.N,GPIO11*%
X82719900Y-107370000D03*
%TO.P,ST4,8,Pin_8*%
%TO.N,GPIO10*%
X82719900Y-104830000D03*
%TO.P,ST4,9,Pin_9*%
%TO.N,GPIO3*%
X82719900Y-102290000D03*
%TO.P,ST4,10,Pin_10*%
%TO.N,GPIO2*%
X82719900Y-99750000D03*
%TO.P,ST4,11,Pin_11*%
%TO.N,GPIO1*%
X82719900Y-97210000D03*
%TO.P,ST4,12,Pin_12*%
%TO.N,unconnected-(ST4-Pin_12-Pad12)*%
X82719900Y-94670000D03*
%TD*%
D23*
%TO.P,C15,1*%
%TO.N,+3V3*%
X99005000Y-97700000D03*
%TO.P,C15,2*%
%TO.N,GND*%
X100795000Y-97700000D03*
%TD*%
D20*
%TO.P,C7,1*%
%TO.N,Net-(C7-Pad1)*%
X98500000Y-137075000D03*
%TO.P,C7,2*%
%TO.N,/Power Management/+3V3_SW_IC_IN*%
X98500000Y-138125000D03*
%TD*%
D27*
%TO.P,C28,1*%
%TO.N,RESET*%
X108980000Y-138598000D03*
%TO.P,C28,2*%
%TO.N,GND*%
X108980000Y-139462000D03*
%TD*%
D24*
%TO.P,C12,1*%
%TO.N,+12V*%
X102300000Y-141200000D03*
%TO.P,C12,2*%
%TO.N,GND*%
X102300000Y-139800000D03*
%TD*%
D23*
%TO.P,C14,1*%
%TO.N,+3V3*%
X96535000Y-97700000D03*
%TO.P,C14,2*%
%TO.N,GND*%
X94745000Y-97700000D03*
%TD*%
D16*
%TO.P,R3,1*%
%TO.N,+12V*%
X95555500Y-140200000D03*
%TO.P,R3,2*%
%TO.N,/Power Management/+12V_EN_IC_IN*%
X96444500Y-140200000D03*
%TD*%
D38*
%TO.P,ST5,1,Pin_1*%
%TO.N,+3V3*%
X108119900Y-122610000D03*
D39*
%TO.P,ST5,2,Pin_2*%
%TO.N,GND*%
X108119900Y-120070000D03*
%TO.P,ST5,3,Pin_3*%
X108119900Y-117530000D03*
%TO.P,ST5,4,Pin_4*%
%TO.N,unconnected-(ST5-Pin_4-Pad4)*%
X108119900Y-114990000D03*
%TO.P,ST5,5,Pin_5*%
%TO.N,ESP_TP_INT*%
X108119900Y-112450000D03*
%TO.P,ST5,6,Pin_6*%
%TO.N,ESP_TP_RESET*%
X108119900Y-109910000D03*
%TO.P,ST5,7,Pin_7*%
%TO.N,I2C_SCL*%
X108119900Y-107370000D03*
%TO.P,ST5,8,Pin_8*%
%TO.N,I2C_SDA*%
X108119900Y-104830000D03*
%TO.P,ST5,9,Pin_9*%
%TO.N,U0RXD*%
X108119900Y-102290000D03*
%TO.P,ST5,10,Pin_10*%
%TO.N,U0TXD*%
X108119900Y-99750000D03*
%TO.P,ST5,11,Pin_11*%
%TO.N,GND*%
X108119900Y-97210000D03*
%TO.P,ST5,12,Pin_12*%
X108119900Y-94670000D03*
%TD*%
D23*
%TO.P,C2,1*%
%TO.N,+5V*%
X84545000Y-142200000D03*
%TO.P,C2,2*%
%TO.N,GND*%
X82755000Y-142200000D03*
%TD*%
D40*
%TO.P,R13,1*%
%TO.N,I2C_SCL*%
X83790000Y-128555500D03*
%TO.P,R13,2*%
%TO.N,+3V3*%
X83790000Y-129444500D03*
%TD*%
D12*
%TO.P,R6,1*%
%TO.N,/Power Management/+3V3_FB_MID*%
X97157000Y-144460000D03*
%TO.P,R6,2*%
%TO.N,/Power Management/+3V3_FB_HS*%
X96293000Y-144460000D03*
%TD*%
D41*
%TO.P,R8,1*%
%TO.N,/Power Management/+3V3_FB_MID*%
X98265000Y-144460000D03*
%TO.P,R8,2*%
%TO.N,GND*%
X99135000Y-144460000D03*
%TD*%
D42*
%TO.P,ST2,SH1,SHELL_GND*%
%TO.N,GND*%
X95400000Y-148620000D03*
%TO.P,ST2,SH2,SHELL_GND*%
X86760000Y-148620000D03*
D43*
%TO.P,ST2,SH3,SHELL_GND*%
X95400000Y-152800000D03*
%TO.P,ST2,SH4,SHELL_GND*%
X86760000Y-152800000D03*
%TD*%
D44*
%TO.P,ST1,1,1*%
%TO.N,+12V*%
X102820000Y-151820000D03*
D45*
%TO.P,ST1,2,2*%
%TO.N,GND*%
X100320000Y-151820000D03*
%TD*%
D46*
%TO.N,+3V3*%
X97780000Y-97910000D03*
X97880000Y-101990000D03*
X94359949Y-134812882D03*
X98860000Y-103420000D03*
X98850000Y-104670000D03*
X83190000Y-130060000D03*
X100690000Y-135170000D03*
X88100000Y-137200000D03*
X91058548Y-107542834D03*
X97830000Y-100420000D03*
X97650000Y-123610000D03*
X88570000Y-123590000D03*
X100770000Y-103440000D03*
X80930000Y-137280000D03*
X80413000Y-124650000D03*
X87000000Y-132800000D03*
X97510000Y-103170000D03*
X100650000Y-132710000D03*
X106420000Y-138470000D03*
X97770000Y-96640000D03*
X97840000Y-99150000D03*
X108095274Y-136632129D03*
X80520000Y-126440000D03*
X97990000Y-109330000D03*
X87000000Y-134200000D03*
X85800000Y-137200000D03*
X101970000Y-132680000D03*
X100680000Y-133970000D03*
X88400000Y-135600000D03*
X99350000Y-132660000D03*
X88740000Y-126350000D03*
X99170000Y-130430000D03*
X87000000Y-135600000D03*
X99630000Y-105520000D03*
X94002000Y-143300000D03*
%TO.N,+12V*%
X103300000Y-142300000D03*
X103300000Y-143300000D03*
X95400000Y-141100000D03*
X102000000Y-143300000D03*
%TO.N,BOOT*%
X79330000Y-150140000D03*
%TO.N,/Microcontroller/SPID*%
X92770000Y-117250000D03*
X96600000Y-116400000D03*
%TO.N,/Microcontroller/SPIWP*%
X93150000Y-115240000D03*
X96300000Y-115240000D03*
%TO.N,/Microcontroller/SPICS0*%
X95010000Y-116980000D03*
X93670000Y-116260000D03*
%TO.N,GND*%
X82739822Y-145203186D03*
X95660000Y-98840000D03*
X92520000Y-133420000D03*
X106460000Y-146250000D03*
X99954827Y-144463398D03*
X84530000Y-153080000D03*
X107490000Y-142600000D03*
X97570000Y-129600000D03*
X102800000Y-126320000D03*
X96170000Y-134280000D03*
X108980000Y-140230000D03*
X103261732Y-123930879D03*
X95841085Y-100642934D03*
X100110000Y-116530000D03*
X110450000Y-153080000D03*
X95026811Y-101367896D03*
X104585917Y-128890870D03*
X105576923Y-103978469D03*
X100070000Y-130350000D03*
X96437497Y-148622823D03*
X110770000Y-134430000D03*
X108390000Y-153080000D03*
X98810000Y-115760000D03*
X112520000Y-153070000D03*
X83895000Y-132210000D03*
X94396711Y-152805029D03*
X107530000Y-144900000D03*
X87970000Y-126360000D03*
X92650000Y-123590000D03*
X100080000Y-123610000D03*
X82430000Y-153080000D03*
X84300000Y-136580000D03*
X93774936Y-97703487D03*
X86761449Y-150183816D03*
X106286407Y-126842552D03*
X93080059Y-144917176D03*
X95595621Y-142224606D03*
X104600000Y-124850000D03*
X100800000Y-96530000D03*
X97850000Y-108510000D03*
X91450000Y-131980000D03*
X95250000Y-132610000D03*
X89480000Y-141560000D03*
X90760000Y-112590000D03*
X95408047Y-150169425D03*
X92880000Y-106830000D03*
X87810000Y-152800000D03*
X87550000Y-120350000D03*
X97800000Y-128630000D03*
X89410000Y-123550000D03*
X106470000Y-141340000D03*
X84482248Y-126850000D03*
X102287649Y-101978120D03*
X83350000Y-135600000D03*
X99810000Y-100610000D03*
X85746952Y-148623423D03*
X101240000Y-99720000D03*
X94450000Y-99740000D03*
X87700000Y-123730000D03*
X80550000Y-145220000D03*
X96380617Y-152800735D03*
X103190000Y-139800000D03*
X110770000Y-136220000D03*
X85670000Y-152800000D03*
X95350000Y-105460000D03*
X106290000Y-153080000D03*
X94751485Y-96518566D03*
X104080000Y-135520000D03*
X78270000Y-153070000D03*
X81110000Y-149140000D03*
X99130000Y-122170000D03*
X86203677Y-128864353D03*
X100750000Y-101970000D03*
X103510000Y-108460000D03*
X88550000Y-142570000D03*
X94280000Y-147050000D03*
X92880000Y-109170000D03*
X81710000Y-142190000D03*
X102300000Y-138950000D03*
X106550000Y-106100000D03*
X83895000Y-134615000D03*
X97190000Y-135500000D03*
X92650000Y-126330000D03*
X89540000Y-126330000D03*
X91440000Y-111870000D03*
X95750000Y-110330000D03*
X105150000Y-134290000D03*
X102810000Y-107300000D03*
X91450000Y-134830000D03*
X82790000Y-133390000D03*
X88660000Y-108620000D03*
X104100000Y-133050000D03*
X88590000Y-144930000D03*
X88420000Y-121270000D03*
X101770000Y-97700000D03*
X99760000Y-98950000D03*
X97200000Y-133080000D03*
X82740000Y-141010000D03*
X99040000Y-102100000D03*
X80370000Y-153070000D03*
X87250000Y-147120000D03*
X81660000Y-146600000D03*
X100080000Y-128620000D03*
%TO.N,+5V*%
X92890000Y-149100000D03*
X86150000Y-144150000D03*
X87150000Y-143400000D03*
X84630000Y-139880000D03*
X86150000Y-142650000D03*
X93480000Y-147050000D03*
X86150000Y-145650000D03*
X89237430Y-149070000D03*
X87150000Y-144900000D03*
X88700000Y-146900000D03*
%TO.N,RESET*%
X97040000Y-105350000D03*
X112490000Y-103620000D03*
%TO.N,ESP_LCD_D4*%
X97930493Y-107334146D03*
%TO.N,I2C_SDA*%
X82930000Y-126430000D03*
X85320000Y-119840000D03*
X102160000Y-122210000D03*
%TO.N,ESP_TP_RESET*%
X95560000Y-127560000D03*
%TO.N,ESP_LCD_D3*%
X100260000Y-109160000D03*
%TO.N,ESP_LCD_D0*%
X99160000Y-111740000D03*
%TO.N,ESP_LCD_D2*%
X100260000Y-111550000D03*
%TO.N,ESP_LCD_D1*%
X99710000Y-112630000D03*
%TO.N,I2C_SCL*%
X102410000Y-120850000D03*
X83800000Y-127760000D03*
X85360000Y-121650000D03*
%TO.N,ESP_LCD_D{slash}C*%
X87418173Y-104634684D03*
%TO.N,GPIO0*%
X107330000Y-150050000D03*
X96360000Y-102530000D03*
X111680000Y-101860000D03*
%TO.N,U0RXD*%
X110120000Y-105290000D03*
X102870000Y-109060000D03*
%TO.N,ESP_LCD_D7*%
X96950000Y-121490000D03*
%TO.N,ESP_LCD_RES*%
X84900000Y-104650000D03*
%TO.N,ESP_LCD_D5*%
X100070000Y-107180000D03*
%TO.N,ESP_LCD_WR*%
X88595000Y-104665000D03*
%TO.N,ESP_LCD_RD*%
X90080000Y-104700000D03*
%TO.N,ESP_LCD_CS*%
X86220000Y-104650000D03*
%TO.N,U0TXD*%
X110280000Y-107110000D03*
X104710000Y-109760000D03*
%TO.N,ESP_LCD_D6*%
X96360000Y-123090000D03*
%TO.N,ESP_TP_INT*%
X82000000Y-125380000D03*
X103640000Y-122040000D03*
X84150000Y-118200000D03*
%TO.N,/Display Connector and Driver/LEDK3*%
X99329997Y-123610000D03*
%TO.N,/Display Connector and Driver/LEDK4*%
X99920464Y-126635409D03*
%TO.N,/Display Connector and Driver/LEDK2*%
X98520000Y-123640000D03*
%TO.N,/Display Connector and Driver/LEDK1*%
X97800000Y-126660000D03*
%TO.N,ESP_USB_D+*%
X90220000Y-146000000D03*
%TO.N,ESP_USB_D-*%
X91000000Y-146000000D03*
%TD*%
D47*
%TO.N,+3V3*%
X98795000Y-105735000D02*
X99475323Y-105735000D01*
D48*
X80410000Y-124653000D02*
X80413000Y-124650000D01*
X91058548Y-107542834D02*
X90237166Y-107542834D01*
X83790000Y-129444500D02*
X83190000Y-130044500D01*
D47*
X97550000Y-104490000D02*
X97550000Y-103710000D01*
D48*
X106420000Y-139199500D02*
X106420500Y-139200000D01*
D47*
X91905000Y-107335000D02*
X91266382Y-107335000D01*
X97150000Y-104490000D02*
X97150000Y-103700000D01*
D48*
X81285500Y-126430000D02*
X80530000Y-126430000D01*
D47*
X99150000Y-129600000D02*
X99150000Y-130410000D01*
D48*
X97658000Y-122780000D02*
X97658000Y-123602000D01*
D47*
X98795000Y-109335000D02*
X97995000Y-109335000D01*
X91266382Y-107335000D02*
X91058548Y-107542834D01*
D48*
X99468000Y-130728000D02*
X99170000Y-130430000D01*
D47*
X98795000Y-105335000D02*
X98795000Y-105010938D01*
X98795000Y-105335000D02*
X99385000Y-105335000D01*
D48*
X99468000Y-131180000D02*
X99468000Y-130728000D01*
X83190000Y-130044500D02*
X83190000Y-130060000D01*
X106420000Y-138470000D02*
X106420000Y-139199500D01*
X80530000Y-126430000D02*
X80520000Y-126440000D01*
X108095274Y-136632129D02*
X108085500Y-136641903D01*
X80193000Y-137280000D02*
X80930000Y-137280000D01*
X88660000Y-126430000D02*
X88740000Y-126350000D01*
X94359949Y-134812882D02*
X94352000Y-134804933D01*
X94352000Y-134804933D02*
X94352000Y-134000000D01*
X88688000Y-126298000D02*
X88740000Y-126350000D01*
X108085500Y-136641903D02*
X108085500Y-137350000D01*
X88660000Y-127160000D02*
X88660000Y-126430000D01*
X90237166Y-107542834D02*
X90060000Y-107720000D01*
X94800000Y-143300000D02*
X94002000Y-143300000D01*
X88688000Y-125530000D02*
X88688000Y-126298000D01*
X80410000Y-125380000D02*
X80410000Y-124653000D01*
D47*
X98795000Y-105010938D02*
X98794780Y-105010718D01*
X99150000Y-130410000D02*
X99170000Y-130430000D01*
X97995000Y-109335000D02*
X97990000Y-109330000D01*
D48*
%TO.N,+12V*%
X95555500Y-140200000D02*
X95555500Y-140944500D01*
X102225001Y-141125001D02*
X102300000Y-141200000D01*
D49*
X100749751Y-141125001D02*
X102225001Y-141125001D01*
D48*
X95555500Y-140944500D02*
X95400000Y-141100000D01*
%TO.N,/Power Management/+12V_INT_LDO*%
X99867000Y-142362701D02*
X99867000Y-143300000D01*
X98629300Y-141125001D02*
X99867000Y-142362701D01*
X98050249Y-141125001D02*
X98629300Y-141125001D01*
X98000250Y-141175000D02*
X98050249Y-141125001D01*
X96400000Y-141175000D02*
X98000250Y-141175000D01*
%TO.N,/Power Management/+3V3_SW_IC_IN*%
X99910000Y-138150000D02*
X100700000Y-138150000D01*
X98500000Y-138125000D02*
X100675000Y-138125000D01*
D49*
X100749751Y-140474999D02*
X100154999Y-140474999D01*
D48*
X100675000Y-138125000D02*
X100700000Y-138150000D01*
D49*
X100154999Y-140474999D02*
X99910000Y-140230000D01*
X99910000Y-140230000D02*
X99910000Y-138150000D01*
D48*
%TO.N,/Power Management/5V_EN_IC_IN*%
X85617000Y-138800000D02*
X88647499Y-138800000D01*
X88647499Y-138800000D02*
X89060000Y-139212501D01*
X89060000Y-139212501D02*
X89060000Y-139875000D01*
X85400000Y-139017000D02*
X85617000Y-138800000D01*
%TO.N,/Power Management/+3V3_BST_IC_IN*%
X97715001Y-139825001D02*
X98050249Y-139825001D01*
X97200000Y-137932000D02*
X97200000Y-139310000D01*
X97200000Y-139310000D02*
X97715001Y-139825001D01*
%TO.N,/Microcontroller/XTAL_P*%
X103838000Y-103465000D02*
X103838000Y-105093000D01*
X103838000Y-105093000D02*
X103840000Y-105095000D01*
X101985079Y-104419921D02*
X103164921Y-104419921D01*
X103164921Y-104419921D02*
X103840000Y-105095000D01*
%TO.N,/Microcontroller/XTAL_N*%
X105132000Y-107703000D02*
X105540000Y-107295000D01*
D47*
X101285000Y-106535000D02*
X98795000Y-106535000D01*
D48*
X101630000Y-106190000D02*
X104537000Y-106190000D01*
X105540000Y-107193000D02*
X105540000Y-107295000D01*
X101285000Y-106535000D02*
X101630000Y-106190000D01*
X104537000Y-106190000D02*
X105540000Y-107193000D01*
X105132000Y-108915000D02*
X105132000Y-107703000D01*
D47*
%TO.N,/Microcontroller/RX_XTAL_P_IC_IN*%
X100270000Y-106135000D02*
X100874921Y-105530079D01*
X98795000Y-106135000D02*
X100270000Y-106135000D01*
%TO.N,BOOT*%
X88275000Y-106935000D02*
X87190000Y-108020000D01*
X91905000Y-106935000D02*
X88275000Y-106935000D01*
D48*
X79330000Y-150140000D02*
X79330000Y-149145000D01*
X79327000Y-140810000D02*
X79327000Y-137280000D01*
X83370000Y-113680000D02*
X82140000Y-113680000D01*
X79327000Y-116493000D02*
X79327000Y-137280000D01*
X79325000Y-149140000D02*
X79325000Y-140812000D01*
X87190000Y-108020000D02*
X87190000Y-109860000D01*
X79330000Y-149145000D02*
X79325000Y-149140000D01*
X87190000Y-109860000D02*
X83370000Y-113680000D01*
X82140000Y-113680000D02*
X79327000Y-116493000D01*
X79325000Y-140812000D02*
X79327000Y-140810000D01*
D47*
%TO.N,/Microcontroller/SPID*%
X92770000Y-117220000D02*
X92085000Y-116535000D01*
X92770000Y-117250000D02*
X92770000Y-117220000D01*
X95150000Y-114950000D02*
X95150000Y-111380000D01*
X92085000Y-116535000D02*
X91605000Y-116535000D01*
X96600000Y-116400000D02*
X95150000Y-114950000D01*
D48*
%TO.N,/Power Management/PGOOD_12V*%
X100749751Y-141774999D02*
X100749751Y-143283249D01*
D47*
X100749751Y-143283249D02*
X100733000Y-143300000D01*
D48*
%TO.N,/Power Management/+12V_EN_IC_IN*%
X96444500Y-140200000D02*
X96719499Y-140474999D01*
X96719499Y-140474999D02*
X98050249Y-140474999D01*
%TO.N,/Power Management/+3V3_FEEDBACK_IC_IN*%
X98032000Y-141793248D02*
X98050249Y-141774999D01*
X98032000Y-143300000D02*
X98032000Y-141793248D01*
D47*
%TO.N,/Microcontroller/SPIHD*%
X91930000Y-115570000D02*
X90990000Y-115570000D01*
X93150000Y-111380000D02*
X93150000Y-114350000D01*
X90440000Y-118820000D02*
X90695000Y-119075000D01*
X90440000Y-116120000D02*
X90440000Y-118820000D01*
X90990000Y-115570000D02*
X90440000Y-116120000D01*
X90695000Y-119075000D02*
X91605000Y-119075000D01*
X93150000Y-114350000D02*
X91930000Y-115570000D01*
%TO.N,/Microcontroller/SPICLK*%
X93435000Y-117805000D02*
X94350000Y-116890000D01*
X91605000Y-117805000D02*
X93435000Y-117805000D01*
X94350000Y-116890000D02*
X94350000Y-111380000D01*
%TO.N,/Microcontroller/SPIWP*%
X97380000Y-116320000D02*
X97380000Y-116860000D01*
X93550000Y-114840000D02*
X93150000Y-115240000D01*
X97380000Y-116860000D02*
X98325000Y-117805000D01*
X98325000Y-117805000D02*
X98815000Y-117805000D01*
X93550000Y-111380000D02*
X93550000Y-114840000D01*
X96300000Y-115240000D02*
X97380000Y-116320000D01*
%TO.N,/Microcontroller/SPIQ*%
X94750000Y-115593204D02*
X94750000Y-111380000D01*
X98231796Y-119075000D02*
X94750000Y-115593204D01*
X98815000Y-119075000D02*
X98231796Y-119075000D01*
%TO.N,/Microcontroller/SPICS0*%
X93950000Y-115980000D02*
X93950000Y-111380000D01*
X98375000Y-120345000D02*
X98815000Y-120345000D01*
X93670000Y-116260000D02*
X93950000Y-115980000D01*
X95010000Y-116980000D02*
X98375000Y-120345000D01*
D48*
%TO.N,/Power Management/+3V3_FB_MID*%
X97157000Y-144460000D02*
X98265000Y-144460000D01*
X97168000Y-143300000D02*
X97168000Y-144449000D01*
X97168000Y-144449000D02*
X97157000Y-144460000D01*
%TO.N,/Power Management/+3V3_FB_HS*%
X95664000Y-143831000D02*
X96293000Y-144460000D01*
X95664000Y-143300000D02*
X95664000Y-143831000D01*
%TO.N,GND*%
X94115000Y-109170000D02*
X95350000Y-107935000D01*
X91450000Y-133410000D02*
X91450000Y-131980000D01*
X95660000Y-98840000D02*
X95660000Y-99400000D01*
X103835000Y-107300000D02*
X103840000Y-107295000D01*
X92510000Y-133410000D02*
X92520000Y-133420000D01*
X101500000Y-101978000D02*
X102287529Y-101978000D01*
X100105000Y-116535000D02*
X100110000Y-116530000D01*
X97195000Y-134280000D02*
X97195000Y-135495000D01*
D47*
X97570000Y-129600000D02*
X98150000Y-129600000D01*
D48*
X100410000Y-99720000D02*
X101240000Y-99720000D01*
D50*
X81650000Y-145200000D02*
X80570000Y-145200000D01*
D48*
X95838000Y-101490000D02*
X95838000Y-100646019D01*
X100080000Y-128620000D02*
X99970000Y-128620000D01*
X98900000Y-128650000D02*
X97820000Y-128650000D01*
X97820000Y-128650000D02*
X97800000Y-128630000D01*
X104095000Y-135505000D02*
X104080000Y-135520000D01*
X100332000Y-131180000D02*
X100332000Y-130612000D01*
X106270000Y-105825000D02*
X105540000Y-105095000D01*
X95841085Y-100642934D02*
X95841085Y-100261085D01*
X99951429Y-144460000D02*
X99954827Y-144463398D01*
X82790000Y-133390000D02*
X83895000Y-133390000D01*
X110770717Y-134430717D02*
X110770000Y-134430000D01*
X105576923Y-103978469D02*
X105063454Y-103465000D01*
X99810000Y-101440000D02*
X99700000Y-101440000D01*
X103510000Y-108460000D02*
X103510000Y-107625000D01*
D50*
X106463000Y-144900000D02*
X106463000Y-146247000D01*
D48*
X100410000Y-99600000D02*
X100410000Y-99720000D01*
D50*
X106463000Y-142600000D02*
X106463000Y-141347000D01*
X82755000Y-141025000D02*
X82740000Y-141010000D01*
D48*
X103510000Y-107625000D02*
X103840000Y-107295000D01*
D50*
X80570000Y-145200000D02*
X80550000Y-145220000D01*
D48*
X89710000Y-126500000D02*
X89540000Y-126330000D01*
X83895000Y-132210000D02*
X83895000Y-133390000D01*
D50*
X81650000Y-145200000D02*
X82736636Y-145200000D01*
D48*
X100795000Y-96535000D02*
X100800000Y-96530000D01*
X102300000Y-139800000D02*
X102300000Y-138950000D01*
X91438000Y-111872000D02*
X91440000Y-111870000D01*
X97195000Y-135495000D02*
X97190000Y-135500000D01*
X98815000Y-115765000D02*
X98810000Y-115760000D01*
X100332000Y-130612000D02*
X100070000Y-130350000D01*
X95320000Y-99740000D02*
X94450000Y-99740000D01*
X89710000Y-127160000D02*
X89710000Y-126500000D01*
X95750000Y-108335000D02*
X95350000Y-107935000D01*
X105540000Y-104015392D02*
X105540000Y-105095000D01*
X97850000Y-108510000D02*
X95925000Y-108510000D01*
X92880000Y-109170000D02*
X94115000Y-109170000D01*
X95841085Y-100261085D02*
X95320000Y-99740000D01*
X99940000Y-128650000D02*
X98900000Y-128650000D01*
X91450000Y-133410000D02*
X92510000Y-133410000D01*
X89552000Y-125530000D02*
X89552000Y-126318000D01*
X84300000Y-135600000D02*
X83350000Y-135600000D01*
X97195000Y-134280000D02*
X97195000Y-133085000D01*
X102274999Y-139825001D02*
X102300000Y-139800000D01*
X84300000Y-135600000D02*
X84300000Y-136580000D01*
X98815000Y-116535000D02*
X98815000Y-115765000D01*
X95925000Y-108510000D02*
X95350000Y-107935000D01*
X98522000Y-122778000D02*
X98522000Y-122780000D01*
X100749751Y-139825001D02*
X102274999Y-139825001D01*
X99130000Y-122170000D02*
X98522000Y-122778000D01*
X104095000Y-133055000D02*
X104100000Y-133050000D01*
X100750000Y-101970000D02*
X101492000Y-101970000D01*
X96400000Y-142225000D02*
X95596015Y-142225000D01*
X102810000Y-107300000D02*
X103835000Y-107300000D01*
D50*
X82755000Y-142200000D02*
X82755000Y-141025000D01*
D48*
X95350000Y-105460000D02*
X95350000Y-107935000D01*
X89552000Y-126318000D02*
X89540000Y-126330000D01*
D50*
X81720000Y-142200000D02*
X81710000Y-142190000D01*
X81650000Y-146590000D02*
X81660000Y-146600000D01*
D48*
X94745000Y-97700000D02*
X93778423Y-97700000D01*
X101492000Y-101970000D02*
X101500000Y-101978000D01*
D50*
X88110000Y-141130000D02*
X88540000Y-141560000D01*
X106463000Y-141347000D02*
X106470000Y-141340000D01*
D48*
X105063454Y-103465000D02*
X104702000Y-103465000D01*
X103510000Y-108460000D02*
X103813000Y-108460000D01*
D50*
X88540000Y-142560000D02*
X88550000Y-142570000D01*
D48*
X91438000Y-112590000D02*
X90760000Y-112590000D01*
X103813000Y-108460000D02*
X104268000Y-108915000D01*
X99970000Y-128620000D02*
X99940000Y-128650000D01*
X110770717Y-136219283D02*
X110770000Y-136220000D01*
X80375000Y-149140000D02*
X81110000Y-149140000D01*
X88660000Y-107720000D02*
X88660000Y-108620000D01*
X99760000Y-98950000D02*
X100410000Y-99600000D01*
X100795000Y-97700000D02*
X100795000Y-96535000D01*
X88420000Y-120350000D02*
X87550000Y-120350000D01*
X105576923Y-103978469D02*
X105540000Y-104015392D01*
X91450000Y-133410000D02*
X91450000Y-134830000D01*
D50*
X82755000Y-142200000D02*
X81720000Y-142200000D01*
X88540000Y-141560000D02*
X89480000Y-141560000D01*
D48*
X95660000Y-99400000D02*
X95320000Y-99740000D01*
D50*
X106463000Y-144900000D02*
X107530000Y-144900000D01*
D48*
X97195000Y-133085000D02*
X97200000Y-133080000D01*
X95715896Y-101367896D02*
X95838000Y-101490000D01*
D50*
X82736636Y-145200000D02*
X82739822Y-145203186D01*
D48*
X99810000Y-101440000D02*
X99810000Y-100610000D01*
D50*
X81650000Y-145200000D02*
X81650000Y-146590000D01*
D48*
X83895000Y-134615000D02*
X83895000Y-133390000D01*
X106275000Y-105825000D02*
X106270000Y-105825000D01*
X106550000Y-106100000D02*
X106275000Y-105825000D01*
X100795000Y-97700000D02*
X101770000Y-97700000D01*
X91438000Y-112590000D02*
X91438000Y-111872000D01*
X95596015Y-142225000D02*
X95595621Y-142224606D01*
X110770717Y-135329571D02*
X110770717Y-136219283D01*
X102287529Y-101978000D02*
X102287649Y-101978120D01*
X108980000Y-139462000D02*
X108980000Y-140230000D01*
X99135000Y-144460000D02*
X99951429Y-144460000D01*
X104095000Y-134290000D02*
X104095000Y-135505000D01*
D50*
X88540000Y-141560000D02*
X88540000Y-142560000D01*
D48*
X95750000Y-110330000D02*
X95750000Y-108335000D01*
X95026811Y-101367896D02*
X95715896Y-101367896D01*
X95838000Y-100646019D02*
X95841085Y-100642934D01*
X94745000Y-96525051D02*
X94745000Y-97700000D01*
D47*
X100070000Y-130340000D02*
X100070000Y-130350000D01*
D50*
X106463000Y-142600000D02*
X107490000Y-142600000D01*
D48*
X98815000Y-116535000D02*
X100105000Y-116535000D01*
D47*
X99650000Y-129920000D02*
X100070000Y-130340000D01*
D48*
X110770717Y-135329571D02*
X110770717Y-134430717D01*
X104095000Y-134290000D02*
X105150000Y-134290000D01*
D47*
X99650000Y-129600000D02*
X99650000Y-129920000D01*
D48*
X104095000Y-134290000D02*
X104095000Y-133055000D01*
X93778423Y-97700000D02*
X93774936Y-97703487D01*
X97195000Y-134280000D02*
X96170000Y-134280000D01*
X88420000Y-120350000D02*
X88420000Y-121270000D01*
X92880000Y-106830000D02*
X94245000Y-106830000D01*
D50*
X88110000Y-139875000D02*
X88110000Y-141130000D01*
D48*
X94387500Y-132610000D02*
X95250000Y-132610000D01*
X94751485Y-96518566D02*
X94745000Y-96525051D01*
D50*
X106463000Y-146247000D02*
X106460000Y-146250000D01*
D48*
X99700000Y-101440000D02*
X99040000Y-102100000D01*
X102300000Y-139800000D02*
X103190000Y-139800000D01*
X94245000Y-106830000D02*
X95350000Y-107935000D01*
D50*
%TO.N,+5V*%
X87160000Y-141540000D02*
X87140000Y-141560000D01*
X87160000Y-139875000D02*
X87160000Y-141540000D01*
D48*
X84633000Y-139883000D02*
X84630000Y-139880000D01*
X85400000Y-139883000D02*
X84633000Y-139883000D01*
%TO.N,RESET*%
X108986571Y-138604571D02*
X108980000Y-138598000D01*
D47*
X96750000Y-105060000D02*
X97040000Y-105350000D01*
D48*
X108974500Y-137350000D02*
X108974500Y-130493590D01*
X108974500Y-130493590D02*
X112490000Y-126978090D01*
X108980000Y-138598000D02*
X108980000Y-137355500D01*
X112490000Y-126978090D02*
X112490000Y-103620000D01*
X110770717Y-138604571D02*
X108986571Y-138604571D01*
D47*
X96750000Y-104490000D02*
X96750000Y-105060000D01*
D48*
X108980000Y-137355500D02*
X108974500Y-137350000D01*
D47*
%TO.N,ESP_LCD_D4*%
X97931347Y-107335000D02*
X97930493Y-107334146D01*
X98795000Y-107335000D02*
X97931347Y-107335000D01*
%TO.N,I2C_SDA*%
X90280000Y-109660000D02*
X89920000Y-109660000D01*
D48*
X109560000Y-106270100D02*
X108119900Y-104830000D01*
X104830000Y-113990000D02*
X107600000Y-111220000D01*
D47*
X91905000Y-108935000D02*
X91005000Y-108935000D01*
X91005000Y-108935000D02*
X90280000Y-109660000D01*
D48*
X109560000Y-110130000D02*
X109560000Y-106270100D01*
X104830000Y-119520000D02*
X104830000Y-113990000D01*
D47*
X89920000Y-109660000D02*
X85320000Y-114260000D01*
D48*
X82174500Y-126430000D02*
X82930000Y-126430000D01*
X108470000Y-111220000D02*
X109560000Y-110130000D01*
X102160000Y-122190000D02*
X104830000Y-119520000D01*
D47*
X85320000Y-114260000D02*
X85320000Y-119840000D01*
D48*
X102160000Y-122210000D02*
X102160000Y-122190000D01*
X107600000Y-111220000D02*
X108470000Y-111220000D01*
D47*
%TO.N,ESP_LCD_BLK*%
X101750000Y-115650000D02*
X98530000Y-112430000D01*
X98530000Y-111350000D02*
X98795000Y-111085000D01*
X99146000Y-131830000D02*
X100654000Y-131830000D01*
X98619000Y-131303000D02*
X99146000Y-131830000D01*
X100654000Y-131830000D02*
X100980000Y-131504000D01*
X100980000Y-131504000D02*
X100980000Y-121230000D01*
X98530000Y-112430000D02*
X98530000Y-111350000D01*
X98619000Y-129631000D02*
X98619000Y-131303000D01*
X98650000Y-129600000D02*
X98619000Y-129631000D01*
X98795000Y-111085000D02*
X98795000Y-110535000D01*
X101750000Y-120460000D02*
X101750000Y-115650000D01*
X100980000Y-121230000D02*
X101750000Y-120460000D01*
%TO.N,ESP_TP_RESET*%
X87990000Y-114050000D02*
X87990000Y-118810000D01*
X91200000Y-110456088D02*
X91200000Y-110840000D01*
X91521088Y-110135000D02*
X91200000Y-110456088D01*
X86990000Y-119810000D02*
X86990000Y-120980000D01*
X86990000Y-120980000D02*
X88000000Y-121990000D01*
X89990000Y-121990000D02*
X95560000Y-127560000D01*
X87990000Y-118810000D02*
X86990000Y-119810000D01*
X88000000Y-121990000D02*
X89990000Y-121990000D01*
X91905000Y-110135000D02*
X91521088Y-110135000D01*
X91200000Y-110840000D02*
X87990000Y-114050000D01*
%TO.N,ESP_LCD_D3*%
X99635000Y-108535000D02*
X98795000Y-108535000D01*
X100260000Y-109160000D02*
X99635000Y-108535000D01*
%TO.N,GPIO1*%
X95950000Y-103070000D02*
X95950000Y-104490000D01*
X82719900Y-97210000D02*
X90090000Y-97210000D01*
X90090000Y-97210000D02*
X95950000Y-103070000D01*
%TO.N,ESP_LCD_D0*%
X99401000Y-110357088D02*
X99401000Y-111499000D01*
X98795000Y-110135000D02*
X99178912Y-110135000D01*
X99178912Y-110135000D02*
X99401000Y-110357088D01*
X99401000Y-111499000D02*
X99160000Y-111740000D01*
%TO.N,GPIO13*%
X82719900Y-111520100D02*
X82719900Y-112450000D01*
X91905000Y-106535000D02*
X87705000Y-106535000D01*
X87705000Y-106535000D02*
X82719900Y-111520100D01*
%TO.N,ESP_LCD_D2*%
X100260000Y-109995000D02*
X99200000Y-108935000D01*
X99200000Y-108935000D02*
X98795000Y-108935000D01*
X100260000Y-111550000D02*
X100260000Y-109995000D01*
%TO.N,ESP_LCD_D1*%
X99710000Y-110240410D02*
X99710000Y-112630000D01*
X98795000Y-109735000D02*
X99204590Y-109735000D01*
X99204590Y-109735000D02*
X99710000Y-110240410D01*
%TO.N,GPIO11*%
X84354900Y-105735000D02*
X91905000Y-105735000D01*
X82719900Y-107370000D02*
X84354900Y-105735000D01*
D48*
%TO.N,I2C_SCL*%
X103740000Y-111749900D02*
X103740000Y-119520000D01*
D47*
X84730000Y-114125678D02*
X84730000Y-121020000D01*
D48*
X103740000Y-119520000D02*
X102410000Y-120850000D01*
X108119900Y-107370000D02*
X103740000Y-111749900D01*
D47*
X89625678Y-109230000D02*
X84730000Y-114125678D01*
X90210000Y-109230000D02*
X89625678Y-109230000D01*
X91905000Y-108535000D02*
X90905000Y-108535000D01*
D48*
X83790000Y-128555500D02*
X83790000Y-127770000D01*
D47*
X84730000Y-121020000D02*
X85360000Y-121650000D01*
X90905000Y-108535000D02*
X90210000Y-109230000D01*
D48*
X83790000Y-127770000D02*
X83800000Y-127760000D01*
D47*
%TO.N,ESP_LCD_D{slash}C*%
X92500000Y-102810000D02*
X93550000Y-103860000D01*
X87425316Y-104634684D02*
X89250000Y-102810000D01*
X87418173Y-104634684D02*
X87425316Y-104634684D01*
X93550000Y-103860000D02*
X93550000Y-104490000D01*
X89250000Y-102810000D02*
X92500000Y-102810000D01*
D48*
%TO.N,GPIO0*%
X107309500Y-139200000D02*
X107309500Y-129850500D01*
D47*
X96360000Y-102530000D02*
X96360000Y-104480000D01*
D48*
X107330000Y-147190000D02*
X108220000Y-146300000D01*
X108220000Y-140150000D02*
X107309500Y-139239500D01*
X111670000Y-125490000D02*
X111670000Y-101870000D01*
X111670000Y-101870000D02*
X111680000Y-101860000D01*
D47*
X96360000Y-104480000D02*
X96350000Y-104490000D01*
D48*
X107309500Y-129850500D02*
X111670000Y-125490000D01*
X108220000Y-146300000D02*
X108220000Y-140150000D01*
X107330000Y-150050000D02*
X107330000Y-147190000D01*
X107309500Y-139239500D02*
X107309500Y-139200000D01*
%TO.N,U0RXD*%
X110120000Y-105290000D02*
X110120000Y-104290100D01*
D47*
X102870000Y-109060000D02*
X101545000Y-107735000D01*
X101545000Y-107735000D02*
X98795000Y-107735000D01*
D48*
X110120000Y-104290100D02*
X108119900Y-102290000D01*
D47*
%TO.N,ESP_LCD_D7*%
X97320000Y-121120000D02*
X96950000Y-121490000D01*
X95550000Y-112320000D02*
X98290000Y-115060000D01*
X100720000Y-120120000D02*
X99720000Y-121120000D01*
X95550000Y-111380000D02*
X95550000Y-112320000D01*
X98290000Y-115060000D02*
X99710000Y-115060000D01*
X100720000Y-116070000D02*
X100720000Y-120120000D01*
X99720000Y-121120000D02*
X97320000Y-121120000D01*
X99710000Y-115060000D02*
X100720000Y-116070000D01*
%TO.N,ESP_LCD_RES*%
X84900000Y-104650000D02*
X87920000Y-101630000D01*
X92460000Y-101630000D02*
X94350000Y-103520000D01*
X94350000Y-103520000D02*
X94350000Y-104490000D01*
X87920000Y-101630000D02*
X92460000Y-101630000D01*
%TO.N,ESP_LCD_D5*%
X98795000Y-106935000D02*
X99825000Y-106935000D01*
X99825000Y-106935000D02*
X100070000Y-107180000D01*
%TO.N,GPIO12*%
X82719900Y-109910000D02*
X86494900Y-106135000D01*
X86494900Y-106135000D02*
X91905000Y-106135000D01*
%TO.N,GPIO2*%
X82719900Y-99750000D02*
X91934087Y-99750000D01*
X91934087Y-99750000D02*
X95550000Y-103365913D01*
X95550000Y-103365913D02*
X95550000Y-104490000D01*
%TO.N,ESP_LCD_WR*%
X93150000Y-104000000D02*
X93150000Y-104490000D01*
X89920000Y-103340000D02*
X92490000Y-103340000D01*
X88595000Y-104665000D02*
X89920000Y-103340000D01*
X92490000Y-103340000D02*
X93150000Y-104000000D01*
%TO.N,ESP_LCD_RD*%
X90790000Y-103990000D02*
X92580000Y-103990000D01*
X90080000Y-104700000D02*
X90790000Y-103990000D01*
X92750000Y-104160000D02*
X92750000Y-104490000D01*
X92580000Y-103990000D02*
X92750000Y-104160000D01*
%TO.N,ESP_LCD_CS*%
X92450000Y-102180000D02*
X93950000Y-103680000D01*
X86230000Y-104650000D02*
X88700000Y-102180000D01*
X88700000Y-102180000D02*
X92450000Y-102180000D01*
X86220000Y-104650000D02*
X86230000Y-104650000D01*
X93950000Y-103680000D02*
X93950000Y-104490000D01*
%TO.N,GPIO10*%
X83850000Y-104830000D02*
X84355000Y-105335000D01*
X82719900Y-104830000D02*
X83850000Y-104830000D01*
X84355000Y-105335000D02*
X91905000Y-105335000D01*
D48*
%TO.N,U0TXD*%
X111010000Y-106380000D02*
X111010000Y-102640100D01*
D47*
X101980000Y-109760000D02*
X100355000Y-108135000D01*
D48*
X110280000Y-107110000D02*
X111010000Y-106380000D01*
D47*
X104710000Y-109760000D02*
X101980000Y-109760000D01*
X100355000Y-108135000D02*
X98795000Y-108135000D01*
D48*
X111010000Y-102640100D02*
X108119900Y-99750000D01*
D47*
%TO.N,ESP_LCD_D6*%
X99970000Y-121590000D02*
X101230000Y-120330000D01*
X96360000Y-123090000D02*
X97860000Y-121590000D01*
X98480000Y-114390000D02*
X95950000Y-111860000D01*
X97860000Y-121590000D02*
X99970000Y-121590000D01*
X99790000Y-114390000D02*
X98480000Y-114390000D01*
X95950000Y-111860000D02*
X95950000Y-111380000D01*
X101230000Y-120330000D02*
X101230000Y-115830000D01*
X101230000Y-115830000D02*
X99790000Y-114390000D01*
D48*
%TO.N,ESP_TP_INT*%
X103640000Y-122040000D02*
X106130000Y-119550000D01*
D47*
X90815000Y-108135000D02*
X91905000Y-108135000D01*
X89360000Y-108750000D02*
X90200000Y-108750000D01*
X90200000Y-108750000D02*
X90815000Y-108135000D01*
X84150000Y-113960000D02*
X89360000Y-108750000D01*
D48*
X106130000Y-119550000D02*
X106130000Y-114439900D01*
D47*
X84150000Y-118200000D02*
X84150000Y-113960000D01*
D48*
X106130000Y-114439900D02*
X108119900Y-112450000D01*
X81276000Y-125380000D02*
X82000000Y-125380000D01*
D47*
%TO.N,GPIO3*%
X92530000Y-101030000D02*
X95150000Y-103650000D01*
X83979900Y-101030000D02*
X92530000Y-101030000D01*
X82719900Y-102290000D02*
X83979900Y-101030000D01*
X95150000Y-103650000D02*
X95150000Y-104490000D01*
D48*
%TO.N,Net-(C7-Pad1)*%
X97200000Y-137068000D02*
X98493000Y-137068000D01*
X98493000Y-137068000D02*
X98500000Y-137075000D01*
D47*
%TO.N,VDD_SDIO*%
X92750000Y-111380000D02*
X92750000Y-112142000D01*
D49*
X91605000Y-120345000D02*
X89825000Y-120345000D01*
D50*
X89825000Y-120345000D02*
X89820000Y-120350000D01*
D47*
X92750000Y-112142000D02*
X92302000Y-112590000D01*
D49*
X92302000Y-112590000D02*
X92302000Y-113388000D01*
X89820000Y-120350000D02*
X89820000Y-119540000D01*
D47*
%TO.N,/Display Connector and Driver/LEDK3*%
X99150000Y-127700000D02*
X99150000Y-123789997D01*
X99150000Y-123789997D02*
X99329997Y-123610000D01*
%TO.N,/Display Connector and Driver/LEDK4*%
X99920464Y-126635409D02*
X99650000Y-126905873D01*
X99650000Y-126905873D02*
X99650000Y-127700000D01*
%TO.N,/Display Connector and Driver/LEDK2*%
X98650000Y-123770000D02*
X98520000Y-123640000D01*
X98650000Y-127700000D02*
X98650000Y-123770000D01*
%TO.N,/Display Connector and Driver/LEDK1*%
X98150000Y-127010000D02*
X97800000Y-126660000D01*
X98150000Y-127700000D02*
X98150000Y-127010000D01*
D48*
%TO.N,Net-(D1-Pad2)*%
X93488000Y-134000000D02*
X93488000Y-132610500D01*
X93488000Y-132610500D02*
X93487500Y-132610000D01*
D47*
%TO.N,ESP_USB_D+*%
X92671034Y-145592836D02*
X92671034Y-147087164D01*
X92671034Y-147087164D02*
X92002551Y-147755647D01*
X91903447Y-109736553D02*
X91353447Y-109736553D01*
X91237449Y-147755647D02*
X90384999Y-146903197D01*
X90247602Y-130981208D02*
X90247602Y-134829404D01*
X90384999Y-146903197D02*
X90384999Y-146164999D01*
X91353447Y-109736553D02*
X86450000Y-114640000D01*
X91405000Y-135986802D02*
X91405000Y-144326802D01*
X91905000Y-109735000D02*
X91903447Y-109736553D01*
X90247602Y-134829404D02*
X91405000Y-135986802D01*
X90384999Y-146164999D02*
X90220000Y-146000000D01*
X86450000Y-127183606D02*
X90247602Y-130981208D01*
X91405000Y-144326802D02*
X92671034Y-145592836D01*
X92002551Y-147755647D02*
X91237449Y-147755647D01*
X86450000Y-114640000D02*
X86450000Y-127183606D01*
%TO.N,ESP_USB_D-*%
X92221034Y-146900768D02*
X91816155Y-147305647D01*
X89797602Y-135015800D02*
X90955000Y-136173198D01*
X90835001Y-146164999D02*
X91000000Y-146000000D01*
X89797602Y-131167602D02*
X89797602Y-135015800D01*
X91900000Y-109340000D02*
X91113606Y-109340000D01*
X86000000Y-127370000D02*
X89797602Y-131167602D01*
X91423845Y-147305647D02*
X90835001Y-146716803D01*
X91905000Y-109335000D02*
X91900000Y-109340000D01*
X91113606Y-109340000D02*
X86000000Y-114453606D01*
X92221034Y-145779232D02*
X92221034Y-146900768D01*
X90835001Y-146716803D02*
X90835001Y-146164999D01*
X90955000Y-144513198D02*
X92221034Y-145779232D01*
X86000000Y-114453606D02*
X86000000Y-127370000D01*
X90955000Y-136173198D02*
X90955000Y-144513198D01*
X91816155Y-147305647D02*
X91423845Y-147305647D01*
%TD*%
%TA.AperFunction,Conductor*%
%TO.N,+12V*%
G36*
X104943039Y-140819685D02*
G01*
X104988794Y-140872489D01*
X105000000Y-140924000D01*
X105000000Y-141545638D01*
X104987000Y-141589910D01*
X104987000Y-143607013D01*
X104994977Y-143619426D01*
X104995868Y-143625626D01*
X104997166Y-143628003D01*
X105000000Y-143654361D01*
X105000000Y-143845638D01*
X104987000Y-143889910D01*
X104987000Y-145909385D01*
X104997166Y-145928003D01*
X105000000Y-145954361D01*
X105000000Y-153076000D01*
X104980315Y-153143039D01*
X104927511Y-153188794D01*
X104876000Y-153200000D01*
X101523558Y-153200000D01*
X101456519Y-153180315D01*
X101410764Y-153127511D01*
X101399559Y-153076443D01*
X101398267Y-152714869D01*
X101396320Y-152169692D01*
X101399241Y-152142498D01*
X101400531Y-152136659D01*
X101417786Y-152083555D01*
X101445500Y-151908579D01*
X101445500Y-151731421D01*
X101417786Y-151556445D01*
X101399864Y-151501287D01*
X101393797Y-151463420D01*
X101391964Y-150950205D01*
X101695000Y-150950205D01*
X101695000Y-151570000D01*
X102329252Y-151570000D01*
X102307482Y-151607708D01*
X102270000Y-151747591D01*
X102270000Y-151892409D01*
X102307482Y-152032292D01*
X102329252Y-152070000D01*
X101695001Y-152070000D01*
X101695001Y-152689785D01*
X101695002Y-152689808D01*
X101697908Y-152714869D01*
X101697909Y-152714873D01*
X101743211Y-152817474D01*
X101743214Y-152817479D01*
X101822520Y-152896785D01*
X101822525Y-152896788D01*
X101925123Y-152942089D01*
X101950206Y-152944999D01*
X102569999Y-152944999D01*
X102570000Y-152944998D01*
X102570000Y-152310747D01*
X102607708Y-152332518D01*
X102747591Y-152370000D01*
X102892409Y-152370000D01*
X103032292Y-152332518D01*
X103070000Y-152310747D01*
X103070000Y-152944999D01*
X103689786Y-152944999D01*
X103689808Y-152944997D01*
X103714869Y-152942091D01*
X103714873Y-152942090D01*
X103817474Y-152896788D01*
X103817479Y-152896785D01*
X103896785Y-152817479D01*
X103896788Y-152817474D01*
X103942089Y-152714877D01*
X103942089Y-152714875D01*
X103944999Y-152689794D01*
X103945000Y-152689791D01*
X103945000Y-152070000D01*
X103310748Y-152070000D01*
X103332518Y-152032292D01*
X103370000Y-151892409D01*
X103370000Y-151747591D01*
X103332518Y-151607708D01*
X103310748Y-151570000D01*
X103944999Y-151570000D01*
X103944999Y-150950214D01*
X103944997Y-150950191D01*
X103942091Y-150925130D01*
X103942090Y-150925126D01*
X103896788Y-150822525D01*
X103896785Y-150822520D01*
X103817479Y-150743214D01*
X103817474Y-150743211D01*
X103714876Y-150697910D01*
X103689794Y-150695000D01*
X103070000Y-150695000D01*
X103070000Y-151329252D01*
X103032292Y-151307482D01*
X102892409Y-151270000D01*
X102747591Y-151270000D01*
X102607708Y-151307482D01*
X102570000Y-151329252D01*
X102570000Y-150695000D01*
X101950214Y-150695000D01*
X101950191Y-150695002D01*
X101925130Y-150697908D01*
X101925126Y-150697909D01*
X101822525Y-150743211D01*
X101822520Y-150743214D01*
X101743214Y-150822520D01*
X101743211Y-150822525D01*
X101697910Y-150925122D01*
X101697910Y-150925124D01*
X101695000Y-150950205D01*
X101391964Y-150950205D01*
X101372981Y-145634785D01*
X103887001Y-145634785D01*
X103887002Y-145634808D01*
X103889908Y-145659869D01*
X103889909Y-145659873D01*
X103935211Y-145762474D01*
X103935214Y-145762479D01*
X104014520Y-145841785D01*
X104014525Y-145841788D01*
X104117123Y-145887089D01*
X104142206Y-145889999D01*
X104486999Y-145889999D01*
X104487000Y-145889998D01*
X104487000Y-145150000D01*
X103887001Y-145150000D01*
X103887001Y-145634785D01*
X101372981Y-145634785D01*
X101367733Y-144165205D01*
X103887000Y-144165205D01*
X103887000Y-144650000D01*
X104487000Y-144650000D01*
X104487000Y-143910000D01*
X104142214Y-143910000D01*
X104142191Y-143910002D01*
X104117130Y-143912908D01*
X104117126Y-143912909D01*
X104014525Y-143958211D01*
X104014520Y-143958214D01*
X103935214Y-144037520D01*
X103935211Y-144037525D01*
X103889910Y-144140122D01*
X103889910Y-144140124D01*
X103887000Y-144165205D01*
X101367733Y-144165205D01*
X101367643Y-144140124D01*
X101364767Y-143334785D01*
X103887001Y-143334785D01*
X103887002Y-143334808D01*
X103889908Y-143359869D01*
X103889909Y-143359873D01*
X103935211Y-143462474D01*
X103935214Y-143462479D01*
X104014520Y-143541785D01*
X104014525Y-143541788D01*
X104117123Y-143587089D01*
X104142206Y-143589999D01*
X104486999Y-143589999D01*
X104487000Y-143589998D01*
X104487000Y-142850000D01*
X103887001Y-142850000D01*
X103887001Y-143334785D01*
X101364767Y-143334785D01*
X101363459Y-142968534D01*
X101382904Y-142901425D01*
X101410067Y-142871206D01*
X102000000Y-142400000D01*
X102000000Y-142001361D01*
X102019685Y-141934322D01*
X102036319Y-141913680D01*
X102050000Y-141899999D01*
X102550000Y-141899999D01*
X102794786Y-141899999D01*
X102794808Y-141899997D01*
X102819869Y-141897091D01*
X102819873Y-141897090D01*
X102892087Y-141865205D01*
X103887000Y-141865205D01*
X103887000Y-142350000D01*
X104487000Y-142350000D01*
X104487000Y-141610000D01*
X104142214Y-141610000D01*
X104142191Y-141610002D01*
X104117130Y-141612908D01*
X104117126Y-141612909D01*
X104014525Y-141658211D01*
X104014520Y-141658214D01*
X103935214Y-141737520D01*
X103935211Y-141737525D01*
X103889910Y-141840122D01*
X103889910Y-141840124D01*
X103887000Y-141865205D01*
X102892087Y-141865205D01*
X102922474Y-141851788D01*
X102922479Y-141851785D01*
X103000321Y-141773944D01*
X103001785Y-141772479D01*
X103001788Y-141772474D01*
X103047089Y-141669877D01*
X103047089Y-141669875D01*
X103049999Y-141644794D01*
X103050000Y-141644791D01*
X103050000Y-141450000D01*
X102550000Y-141450000D01*
X102550000Y-141899999D01*
X102050000Y-141899999D01*
X102050000Y-141324000D01*
X102069685Y-141256961D01*
X102122489Y-141211206D01*
X102174000Y-141200000D01*
X102300000Y-141200000D01*
X102300000Y-141074000D01*
X102319685Y-141006961D01*
X102372489Y-140961206D01*
X102424000Y-140950000D01*
X103049999Y-140950000D01*
X103049999Y-140924000D01*
X103069684Y-140856961D01*
X103122488Y-140811206D01*
X103173999Y-140800000D01*
X104876000Y-140800000D01*
X104943039Y-140819685D01*
G37*
%TD.AperFunction*%
%TD*%
%TA.AperFunction,Conductor*%
%TO.N,VDD_SDIO*%
G36*
X92543039Y-113219685D02*
G01*
X92588794Y-113272489D01*
X92600000Y-113324000D01*
X92600000Y-113894317D01*
X92580315Y-113961356D01*
X92546812Y-113996109D01*
X90753946Y-115243319D01*
X90749643Y-115246311D01*
X90744087Y-115249520D01*
X90741927Y-115251679D01*
X90732869Y-115257981D01*
X90732867Y-115257983D01*
X90040000Y-115739978D01*
X90040000Y-116055350D01*
X90039500Y-116062980D01*
X90039500Y-118877021D01*
X90040000Y-118884651D01*
X90040000Y-119516000D01*
X90020315Y-119583039D01*
X89967511Y-119628794D01*
X89916000Y-119640000D01*
X89154000Y-119640000D01*
X89086961Y-119620315D01*
X89041206Y-119567511D01*
X89030000Y-119516000D01*
X89030000Y-114689500D01*
X89049685Y-114622461D01*
X89079600Y-114590300D01*
X90007578Y-113894317D01*
X90900267Y-113224799D01*
X90965709Y-113200324D01*
X90974667Y-113200000D01*
X92476000Y-113200000D01*
X92543039Y-113219685D01*
G37*
%TD.AperFunction*%
%TD*%
%TA.AperFunction,Conductor*%
%TO.N,+5V*%
G36*
X86420677Y-141294685D02*
G01*
X86439682Y-141310000D01*
X87016000Y-141310000D01*
X87083039Y-141329685D01*
X87128794Y-141382489D01*
X87140000Y-141434000D01*
X87140000Y-141560000D01*
X87266000Y-141560000D01*
X87333039Y-141579685D01*
X87378794Y-141632489D01*
X87390000Y-141684000D01*
X87390000Y-142309999D01*
X87526000Y-142309999D01*
X87593039Y-142329684D01*
X87638794Y-142382488D01*
X87650000Y-142433999D01*
X87650000Y-146444521D01*
X87630315Y-146511560D01*
X87577511Y-146557315D01*
X87508353Y-146567259D01*
X87489735Y-146562152D01*
X87489635Y-146562527D01*
X87481785Y-146560423D01*
X87481784Y-146560423D01*
X87329057Y-146519500D01*
X87170943Y-146519500D01*
X87018216Y-146560423D01*
X87018209Y-146560426D01*
X86881290Y-146639475D01*
X86881282Y-146639481D01*
X86807083Y-146713681D01*
X86745760Y-146747166D01*
X86719402Y-146750000D01*
X84424000Y-146750000D01*
X84356961Y-146730315D01*
X84311206Y-146677511D01*
X84300000Y-146626000D01*
X84300000Y-146409999D01*
X84800000Y-146409999D01*
X85199786Y-146409999D01*
X85199808Y-146409997D01*
X85224869Y-146407091D01*
X85224873Y-146407090D01*
X85327474Y-146361788D01*
X85327479Y-146361785D01*
X85406785Y-146282479D01*
X85406788Y-146282474D01*
X85452089Y-146179877D01*
X85452089Y-146179875D01*
X85454999Y-146154794D01*
X85455000Y-146154791D01*
X85455000Y-145450000D01*
X84800000Y-145450000D01*
X84800000Y-146409999D01*
X84300000Y-146409999D01*
X84300000Y-144950000D01*
X84800000Y-144950000D01*
X85454999Y-144950000D01*
X85454999Y-144245214D01*
X85454997Y-144245191D01*
X85452091Y-144220130D01*
X85452090Y-144220126D01*
X85406788Y-144117525D01*
X85406785Y-144117520D01*
X85327479Y-144038214D01*
X85327474Y-144038211D01*
X85224876Y-143992910D01*
X85199794Y-143990000D01*
X84800000Y-143990000D01*
X84800000Y-144950000D01*
X84300000Y-144950000D01*
X84300000Y-143313962D01*
X84300000Y-143209999D01*
X84795000Y-143209999D01*
X85129786Y-143209999D01*
X85129808Y-143209997D01*
X85154869Y-143207091D01*
X85154873Y-143207090D01*
X85257474Y-143161788D01*
X85257479Y-143161785D01*
X85336785Y-143082479D01*
X85336788Y-143082474D01*
X85382089Y-142979877D01*
X85382089Y-142979875D01*
X85384999Y-142954794D01*
X85385000Y-142954791D01*
X85385000Y-142450000D01*
X84795000Y-142450000D01*
X84795000Y-143209999D01*
X84300000Y-143209999D01*
X84300000Y-142306972D01*
X84314685Y-142256961D01*
X84367489Y-142211206D01*
X84419000Y-142200000D01*
X84545000Y-142200000D01*
X84545000Y-142074000D01*
X84550642Y-142054785D01*
X86440001Y-142054785D01*
X86440002Y-142054808D01*
X86442908Y-142079869D01*
X86442909Y-142079873D01*
X86488211Y-142182474D01*
X86488214Y-142182479D01*
X86567520Y-142261785D01*
X86567525Y-142261788D01*
X86670123Y-142307089D01*
X86695206Y-142309999D01*
X86889999Y-142309999D01*
X86890000Y-142309998D01*
X86890000Y-141810000D01*
X86440001Y-141810000D01*
X86440001Y-142054785D01*
X84550642Y-142054785D01*
X84564685Y-142006961D01*
X84617489Y-141961206D01*
X84669000Y-141950000D01*
X85384999Y-141950000D01*
X85384999Y-141445214D01*
X85384997Y-141445194D01*
X85381297Y-141413286D01*
X85393126Y-141344425D01*
X85440307Y-141292891D01*
X85504471Y-141275000D01*
X86353638Y-141275000D01*
X86420677Y-141294685D01*
G37*
%TD.AperFunction*%
%TD*%
%TA.AperFunction,Conductor*%
%TO.N,+3V3*%
G36*
X88743039Y-131819685D02*
G01*
X88788794Y-131872489D01*
X88800000Y-131924000D01*
X88800000Y-136560724D01*
X88780315Y-136627763D01*
X88727511Y-136673518D01*
X88716957Y-136677765D01*
X88697117Y-136684707D01*
X88587850Y-136765350D01*
X88507207Y-136874617D01*
X88507206Y-136874619D01*
X88462353Y-137002798D01*
X88462353Y-137002800D01*
X88459500Y-137033230D01*
X88459500Y-137676000D01*
X88439815Y-137743039D01*
X88387011Y-137788794D01*
X88335500Y-137800000D01*
X85524000Y-137800000D01*
X85456961Y-137780315D01*
X85411206Y-137727511D01*
X85400000Y-137676000D01*
X85400000Y-137033293D01*
X86560000Y-137033293D01*
X86560000Y-137350000D01*
X86910000Y-137350000D01*
X87410000Y-137350000D01*
X87759999Y-137350000D01*
X87759999Y-137033303D01*
X87757148Y-137002893D01*
X87712346Y-136874854D01*
X87631792Y-136765707D01*
X87522644Y-136685153D01*
X87410000Y-136645737D01*
X87410000Y-137350000D01*
X86910000Y-137350000D01*
X86910000Y-136645737D01*
X86909999Y-136645737D01*
X86797355Y-136685153D01*
X86688207Y-136765707D01*
X86607653Y-136874854D01*
X86562850Y-137002895D01*
X86562850Y-137002899D01*
X86560000Y-137033293D01*
X85400000Y-137033293D01*
X85400000Y-136451361D01*
X85419685Y-136384322D01*
X85436319Y-136363680D01*
X85450000Y-136349999D01*
X85950000Y-136349999D01*
X86144786Y-136349999D01*
X86144808Y-136349997D01*
X86169869Y-136347091D01*
X86169873Y-136347090D01*
X86272474Y-136301788D01*
X86272479Y-136301785D01*
X86351785Y-136222479D01*
X86351788Y-136222474D01*
X86397089Y-136119877D01*
X86397089Y-136119875D01*
X86399999Y-136094794D01*
X86400000Y-136094791D01*
X86400000Y-135850000D01*
X85950000Y-135850000D01*
X85950000Y-136349999D01*
X85450000Y-136349999D01*
X85450000Y-135350000D01*
X85950000Y-135350000D01*
X86399999Y-135350000D01*
X86399999Y-135105214D01*
X86399997Y-135105191D01*
X86397091Y-135080130D01*
X86397090Y-135080126D01*
X86351788Y-134977525D01*
X86351785Y-134977520D01*
X86272479Y-134898214D01*
X86272474Y-134898211D01*
X86169876Y-134852910D01*
X86144794Y-134850000D01*
X85950000Y-134850000D01*
X85950000Y-135350000D01*
X85450000Y-135350000D01*
X85450000Y-134850000D01*
X85436319Y-134836319D01*
X85402834Y-134774996D01*
X85400000Y-134748638D01*
X85400000Y-134486361D01*
X85419685Y-134419322D01*
X85435000Y-134400316D01*
X85435000Y-134399999D01*
X85935000Y-134399999D01*
X86269786Y-134399999D01*
X86269808Y-134399997D01*
X86294869Y-134397091D01*
X86294873Y-134397090D01*
X86368038Y-134364785D01*
X87645001Y-134364785D01*
X87645002Y-134364808D01*
X87647908Y-134389869D01*
X87647909Y-134389873D01*
X87693211Y-134492474D01*
X87693214Y-134492479D01*
X87772520Y-134571785D01*
X87772525Y-134571788D01*
X87875123Y-134617089D01*
X87900206Y-134619999D01*
X88299999Y-134619999D01*
X88300000Y-134619998D01*
X88300000Y-133660000D01*
X87645001Y-133660000D01*
X87645001Y-134364785D01*
X86368038Y-134364785D01*
X86397474Y-134351788D01*
X86397479Y-134351785D01*
X86476785Y-134272479D01*
X86476788Y-134272474D01*
X86522089Y-134169877D01*
X86522089Y-134169875D01*
X86524999Y-134144794D01*
X86525000Y-134144791D01*
X86525000Y-133640000D01*
X85935000Y-133640000D01*
X85935000Y-134399999D01*
X85435000Y-134399999D01*
X85435000Y-133140000D01*
X85935000Y-133140000D01*
X86524999Y-133140000D01*
X86524999Y-132635214D01*
X86524997Y-132635191D01*
X86522091Y-132610130D01*
X86522090Y-132610127D01*
X86476788Y-132507524D01*
X86476785Y-132507520D01*
X86424470Y-132455205D01*
X87645000Y-132455205D01*
X87645000Y-133160000D01*
X88300000Y-133160000D01*
X88300000Y-132200000D01*
X87900214Y-132200000D01*
X87900191Y-132200002D01*
X87875130Y-132202908D01*
X87875126Y-132202909D01*
X87772525Y-132248211D01*
X87772520Y-132248214D01*
X87693214Y-132327520D01*
X87693211Y-132327525D01*
X87647910Y-132430122D01*
X87647910Y-132430124D01*
X87645000Y-132455205D01*
X86424470Y-132455205D01*
X86397479Y-132428214D01*
X86397474Y-132428211D01*
X86294876Y-132382910D01*
X86269794Y-132380000D01*
X85935000Y-132380000D01*
X85935000Y-133140000D01*
X85435000Y-133140000D01*
X85435000Y-132378903D01*
X85402834Y-132319996D01*
X85400000Y-132293638D01*
X85400000Y-131924000D01*
X85419685Y-131856961D01*
X85472489Y-131811206D01*
X85524000Y-131800000D01*
X88676000Y-131800000D01*
X88743039Y-131819685D01*
G37*
%TD.AperFunction*%
%TD*%
%TA.AperFunction,Conductor*%
%TO.N,+3V3*%
G36*
X99093115Y-96169685D02*
G01*
X99138870Y-96222489D01*
X99150076Y-96273780D01*
X99157476Y-100454845D01*
X99157476Y-100454848D01*
X99159207Y-101433527D01*
X99150584Y-101463084D01*
X99144041Y-101493170D01*
X99140383Y-101498056D01*
X99139641Y-101500601D01*
X99122890Y-101521425D01*
X99081138Y-101563179D01*
X99019816Y-101596666D01*
X98993455Y-101599500D01*
X98974108Y-101599500D01*
X98846812Y-101633608D01*
X98732686Y-101699500D01*
X98732683Y-101699502D01*
X98639502Y-101792683D01*
X98639500Y-101792686D01*
X98573608Y-101906812D01*
X98551073Y-101990917D01*
X98539500Y-102034108D01*
X98539500Y-102165892D01*
X98539501Y-102165895D01*
X98540561Y-102173946D01*
X98537516Y-102174346D01*
X98536172Y-102229659D01*
X98496980Y-102287502D01*
X98490153Y-102292746D01*
X98270000Y-102449999D01*
X98270000Y-103756000D01*
X98250315Y-103823039D01*
X98197511Y-103868794D01*
X98146000Y-103880000D01*
X96997733Y-103880000D01*
X96930694Y-103860315D01*
X96884939Y-103807511D01*
X96873734Y-103756596D01*
X96865840Y-102114596D01*
X96885202Y-102047463D01*
X96937786Y-102001455D01*
X96985668Y-101990917D01*
X96985637Y-101990597D01*
X96988332Y-101990331D01*
X96989839Y-101990000D01*
X96991699Y-101990000D01*
X96991702Y-101989999D01*
X97050033Y-101978397D01*
X97050034Y-101978396D01*
X97116191Y-101934191D01*
X97160396Y-101868034D01*
X97160397Y-101868033D01*
X97171999Y-101809702D01*
X97172000Y-101809699D01*
X97172000Y-101640000D01*
X96826000Y-101640000D01*
X96817314Y-101637449D01*
X96808353Y-101638738D01*
X96784312Y-101627759D01*
X96758961Y-101620315D01*
X96753033Y-101613474D01*
X96744797Y-101609713D01*
X96730507Y-101587478D01*
X96713206Y-101567511D01*
X96710918Y-101556996D01*
X96707023Y-101550935D01*
X96702000Y-101516000D01*
X96702000Y-101490000D01*
X96676000Y-101490000D01*
X96608961Y-101470315D01*
X96563206Y-101417511D01*
X96552000Y-101366000D01*
X96552000Y-101340000D01*
X96852000Y-101340000D01*
X97172000Y-101340000D01*
X97172000Y-101170301D01*
X97171999Y-101170297D01*
X97160397Y-101111966D01*
X97160396Y-101111965D01*
X97116191Y-101045808D01*
X97050034Y-101001603D01*
X97050033Y-101001602D01*
X96991702Y-100990000D01*
X96852000Y-100990000D01*
X96852000Y-101340000D01*
X96552000Y-101340000D01*
X96552000Y-100990000D01*
X96504245Y-100990000D01*
X96437206Y-100970315D01*
X96391451Y-100917511D01*
X96380248Y-100865118D01*
X96382248Y-100584603D01*
X96382248Y-100514000D01*
X96401933Y-100446961D01*
X96454737Y-100401206D01*
X96506248Y-100390000D01*
X96570000Y-100390000D01*
X96870000Y-100390000D01*
X97139699Y-100390000D01*
X97139702Y-100389999D01*
X97198033Y-100378397D01*
X97198034Y-100378396D01*
X97264191Y-100334191D01*
X97308396Y-100268034D01*
X97308397Y-100268033D01*
X97319999Y-100209702D01*
X97320000Y-100209699D01*
X97320000Y-100189702D01*
X98410000Y-100189702D01*
X98421602Y-100248033D01*
X98421603Y-100248034D01*
X98465808Y-100314191D01*
X98531965Y-100358396D01*
X98531966Y-100358397D01*
X98590297Y-100369999D01*
X98590301Y-100370000D01*
X98860000Y-100370000D01*
X98860000Y-99870000D01*
X98410000Y-99870000D01*
X98410000Y-100189702D01*
X97320000Y-100189702D01*
X97320000Y-99890000D01*
X96870000Y-99890000D01*
X96870000Y-100390000D01*
X96570000Y-100390000D01*
X96570000Y-99590000D01*
X96870000Y-99590000D01*
X97320000Y-99590000D01*
X97320000Y-99270301D01*
X97319623Y-99268407D01*
X97319623Y-99268406D01*
X97319621Y-99268400D01*
X97316020Y-99250297D01*
X98410000Y-99250297D01*
X98410000Y-99570000D01*
X98860000Y-99570000D01*
X98860000Y-99070000D01*
X98590297Y-99070000D01*
X98531966Y-99081602D01*
X98531965Y-99081603D01*
X98465808Y-99125808D01*
X98421603Y-99191965D01*
X98421602Y-99191966D01*
X98410000Y-99250297D01*
X97316020Y-99250297D01*
X97308395Y-99211964D01*
X97264191Y-99145808D01*
X97198034Y-99101603D01*
X97198033Y-99101602D01*
X97139702Y-99090000D01*
X96870000Y-99090000D01*
X96870000Y-99590000D01*
X96570000Y-99590000D01*
X96570000Y-99090000D01*
X96506248Y-99090000D01*
X96439209Y-99070315D01*
X96393454Y-99017511D01*
X96382248Y-98966000D01*
X96382248Y-98664114D01*
X96385000Y-98654741D01*
X96385000Y-98610000D01*
X96685000Y-98610000D01*
X97094699Y-98610000D01*
X97094702Y-98609999D01*
X97153033Y-98598397D01*
X97153034Y-98598396D01*
X97219191Y-98554191D01*
X97263396Y-98488034D01*
X97263397Y-98488033D01*
X97274999Y-98429702D01*
X98265000Y-98429702D01*
X98276602Y-98488033D01*
X98276603Y-98488034D01*
X98320808Y-98554191D01*
X98386965Y-98598396D01*
X98386966Y-98598397D01*
X98445297Y-98609999D01*
X98445301Y-98610000D01*
X98855000Y-98610000D01*
X98855000Y-97850000D01*
X98265000Y-97850000D01*
X98265000Y-98429702D01*
X97274999Y-98429702D01*
X97275000Y-98429699D01*
X97275000Y-97850000D01*
X96685000Y-97850000D01*
X96685000Y-98610000D01*
X96385000Y-98610000D01*
X96385000Y-97550000D01*
X96685000Y-97550000D01*
X97275000Y-97550000D01*
X97275000Y-96970301D01*
X97274999Y-96970297D01*
X98265000Y-96970297D01*
X98265000Y-97550000D01*
X98855000Y-97550000D01*
X98855000Y-96790000D01*
X98445297Y-96790000D01*
X98386966Y-96801602D01*
X98386965Y-96801603D01*
X98320808Y-96845808D01*
X98276603Y-96911965D01*
X98276602Y-96911966D01*
X98265000Y-96970297D01*
X97274999Y-96970297D01*
X97263397Y-96911966D01*
X97263396Y-96911965D01*
X97219191Y-96845808D01*
X97153034Y-96801603D01*
X97153033Y-96801602D01*
X97094702Y-96790000D01*
X96685000Y-96790000D01*
X96685000Y-97550000D01*
X96385000Y-97550000D01*
X96385000Y-96761481D01*
X96382248Y-96735886D01*
X96382248Y-96274000D01*
X96401933Y-96206961D01*
X96454737Y-96161206D01*
X96506248Y-96150000D01*
X99026076Y-96150000D01*
X99093115Y-96169685D01*
G37*
%TD.AperFunction*%
%TD*%
%TA.AperFunction,Conductor*%
%TO.N,+3V3*%
G36*
X99102288Y-102683480D02*
G01*
X99124380Y-102690000D01*
X100486365Y-102690000D01*
X100489587Y-102688240D01*
X100516120Y-102685403D01*
X100942793Y-102685984D01*
X100963179Y-102692000D01*
X101376000Y-102692000D01*
X101384685Y-102694550D01*
X101393647Y-102693262D01*
X101417687Y-102704240D01*
X101443039Y-102711685D01*
X101448966Y-102718525D01*
X101457203Y-102722287D01*
X101471492Y-102744521D01*
X101488794Y-102764489D01*
X101491081Y-102775003D01*
X101494977Y-102781065D01*
X101500000Y-102816000D01*
X101500000Y-102842000D01*
X101526000Y-102842000D01*
X101593039Y-102861685D01*
X101634324Y-102909330D01*
X101635574Y-103425431D01*
X101636097Y-103641617D01*
X101616574Y-103708704D01*
X101599633Y-103729743D01*
X100001119Y-105322965D01*
X100001118Y-105322967D01*
X100000325Y-105710754D01*
X99980504Y-105777753D01*
X99927607Y-105823399D01*
X99876326Y-105834500D01*
X99366290Y-105834500D01*
X99299251Y-105814815D01*
X99253496Y-105762011D01*
X99242290Y-105710500D01*
X99242290Y-105176541D01*
X98624042Y-105176595D01*
X98557001Y-105156916D01*
X98511241Y-105104116D01*
X98500031Y-105052573D01*
X98500407Y-103259702D01*
X99160000Y-103259702D01*
X99171602Y-103318033D01*
X99171603Y-103318034D01*
X99215808Y-103384191D01*
X99281965Y-103428396D01*
X99281966Y-103428397D01*
X99340297Y-103439999D01*
X99340301Y-103440000D01*
X99660000Y-103440000D01*
X99960000Y-103440000D01*
X100279699Y-103440000D01*
X100279702Y-103439999D01*
X100338033Y-103428397D01*
X100338034Y-103428396D01*
X100404191Y-103384191D01*
X100448396Y-103318034D01*
X100448397Y-103318033D01*
X100459999Y-103259702D01*
X100460000Y-103259699D01*
X100460000Y-103131702D01*
X101000000Y-103131702D01*
X101011602Y-103190033D01*
X101011603Y-103190034D01*
X101055808Y-103256191D01*
X101121965Y-103300396D01*
X101121966Y-103300397D01*
X101180297Y-103311999D01*
X101180301Y-103312000D01*
X101350000Y-103312000D01*
X101350000Y-102992000D01*
X101000000Y-102992000D01*
X101000000Y-103131702D01*
X100460000Y-103131702D01*
X100460000Y-102990000D01*
X99960000Y-102990000D01*
X99960000Y-103440000D01*
X99660000Y-103440000D01*
X99660000Y-102990000D01*
X99160000Y-102990000D01*
X99160000Y-103259702D01*
X98500407Y-103259702D01*
X98500502Y-102806803D01*
X98520201Y-102739768D01*
X98573015Y-102694025D01*
X98624667Y-102682830D01*
X99102288Y-102683480D01*
G37*
%TD.AperFunction*%
%TD*%
%TA.AperFunction,Conductor*%
%TO.N,+3V3*%
G36*
X102483039Y-132269685D02*
G01*
X102528794Y-132322489D01*
X102540000Y-132374000D01*
X102540000Y-135414721D01*
X102540000Y-136376000D01*
X102520315Y-136443039D01*
X102467511Y-136488794D01*
X102416000Y-136500000D01*
X98924000Y-136500000D01*
X98856961Y-136480315D01*
X98811206Y-136427511D01*
X98800000Y-136376000D01*
X98800000Y-135905205D01*
X99400000Y-135905205D01*
X99400000Y-136000000D01*
X100450000Y-136000000D01*
X100950000Y-136000000D01*
X101999999Y-136000000D01*
X101999999Y-135905214D01*
X101999997Y-135905191D01*
X101997091Y-135880130D01*
X101997090Y-135880126D01*
X101951788Y-135777525D01*
X101951785Y-135777520D01*
X101872479Y-135698214D01*
X101872474Y-135698211D01*
X101769876Y-135652910D01*
X101744794Y-135650000D01*
X100950000Y-135650000D01*
X100950000Y-136000000D01*
X100450000Y-136000000D01*
X100450000Y-135650000D01*
X99655214Y-135650000D01*
X99655191Y-135650002D01*
X99630130Y-135652908D01*
X99630126Y-135652909D01*
X99527525Y-135698211D01*
X99527520Y-135698214D01*
X99448214Y-135777520D01*
X99448211Y-135777525D01*
X99402910Y-135880122D01*
X99402910Y-135880124D01*
X99400000Y-135905205D01*
X98800000Y-135905205D01*
X98800000Y-135420000D01*
X98800000Y-135289999D01*
X99235000Y-135289999D01*
X99569786Y-135289999D01*
X99569808Y-135289997D01*
X99594869Y-135287091D01*
X99594873Y-135287090D01*
X99697474Y-135241788D01*
X99697479Y-135241785D01*
X99776785Y-135162479D01*
X99776788Y-135162474D01*
X99822089Y-135059877D01*
X99822089Y-135059875D01*
X99823840Y-135044785D01*
X101465001Y-135044785D01*
X101465002Y-135044808D01*
X101467908Y-135069869D01*
X101467909Y-135069873D01*
X101513211Y-135172474D01*
X101513214Y-135172479D01*
X101592520Y-135251785D01*
X101592525Y-135251788D01*
X101695123Y-135297089D01*
X101720206Y-135299999D01*
X102054999Y-135299999D01*
X102055000Y-135299998D01*
X102055000Y-134540000D01*
X101465001Y-134540000D01*
X101465001Y-135044785D01*
X99823840Y-135044785D01*
X99824999Y-135034794D01*
X99825000Y-135034791D01*
X99825000Y-134530000D01*
X99235000Y-134530000D01*
X99235000Y-135289999D01*
X98800000Y-135289999D01*
X98800000Y-134030000D01*
X99235000Y-134030000D01*
X99824999Y-134030000D01*
X99824999Y-133535205D01*
X101465000Y-133535205D01*
X101465000Y-134040000D01*
X102055000Y-134040000D01*
X102055000Y-133280000D01*
X101720214Y-133280000D01*
X101720191Y-133280002D01*
X101695130Y-133282908D01*
X101695126Y-133282909D01*
X101592525Y-133328211D01*
X101592520Y-133328214D01*
X101513214Y-133407520D01*
X101513211Y-133407525D01*
X101467910Y-133510122D01*
X101467910Y-133510124D01*
X101465000Y-133535205D01*
X99824999Y-133535205D01*
X99824999Y-133525214D01*
X99824997Y-133525191D01*
X99822091Y-133500130D01*
X99822090Y-133500126D01*
X99776788Y-133397525D01*
X99776785Y-133397520D01*
X99697479Y-133318214D01*
X99697474Y-133318211D01*
X99594876Y-133272910D01*
X99569794Y-133270000D01*
X99235000Y-133270000D01*
X99235000Y-134030000D01*
X98800000Y-134030000D01*
X98800000Y-132374000D01*
X98819685Y-132306961D01*
X98872489Y-132261206D01*
X98924000Y-132250000D01*
X102416000Y-132250000D01*
X102483039Y-132269685D01*
G37*
%TD.AperFunction*%
%TD*%
M02*
