%TF.GenerationSoftware,KiCad,Pcbnew,9.0.0*%
%TF.CreationDate,2025-04-24T23:35:52+03:00*%
%TF.ProjectId,ESP32_BOARD,45535033-325f-4424-9f41-52442e6b6963,1.0*%
%TF.SameCoordinates,Original*%
%TF.FileFunction,Copper,L4,Bot*%
%TF.FilePolarity,Positive*%
%FSLAX46Y46*%
G04 Gerber Fmt 4.6, Leading zero omitted, Abs format (unit mm)*
G04 Created by KiCad (PCBNEW 9.0.0) date 2025-04-24 23:35:52*
%MOMM*%
%LPD*%
G01*
G04 APERTURE LIST*
%TA.AperFunction,ComponentPad*%
%ADD10R,1.524000X1.524000*%
%TD*%
%TA.AperFunction,ComponentPad*%
%ADD11C,1.524000*%
%TD*%
%TA.AperFunction,SMDPad,CuDef*%
%ADD12C,1.000000*%
%TD*%
%TA.AperFunction,SMDPad,CuDef*%
%ADD13R,0.300000X1.800000*%
%TD*%
%TA.AperFunction,SMDPad,CuDef*%
%ADD14R,2.500000X3.200000*%
%TD*%
%TA.AperFunction,SMDPad,CuDef*%
%ADD15R,1.050000X0.650000*%
%TD*%
%TA.AperFunction,SMDPad,CuDef*%
%ADD16R,0.800000X0.900000*%
%TD*%
%TA.AperFunction,SMDPad,CuDef*%
%ADD17R,0.600000X0.560000*%
%TD*%
%TA.AperFunction,SMDPad,CuDef*%
%ADD18R,0.600000X1.150000*%
%TD*%
%TA.AperFunction,SMDPad,CuDef*%
%ADD19R,0.300000X1.150000*%
%TD*%
%TA.AperFunction,ComponentPad*%
%ADD20O,1.000000X2.100000*%
%TD*%
%TA.AperFunction,ComponentPad*%
%ADD21O,1.000000X1.800000*%
%TD*%
%TA.AperFunction,ComponentPad*%
%ADD22R,1.650000X1.650000*%
%TD*%
%TA.AperFunction,ComponentPad*%
%ADD23C,1.650000*%
%TD*%
%TA.AperFunction,ViaPad*%
%ADD24C,0.600000*%
%TD*%
%TA.AperFunction,Conductor*%
%ADD25C,0.300000*%
%TD*%
%TA.AperFunction,Conductor*%
%ADD26C,0.200000*%
%TD*%
%TA.AperFunction,Conductor*%
%ADD27C,0.500000*%
%TD*%
G04 APERTURE END LIST*
D10*
%TO.P,ST4,1,Pin_1*%
%TO.N,+3V3*%
X82719900Y-122610000D03*
D11*
%TO.P,ST4,2,Pin_2*%
%TO.N,GND*%
X82719900Y-120070000D03*
%TO.P,ST4,3,Pin_3*%
%TO.N,unconnected-(ST4-Pin_3-Pad3)*%
X82719900Y-117530000D03*
%TO.P,ST4,4,Pin_4*%
%TO.N,unconnected-(ST4-Pin_4-Pad4)*%
X82719900Y-114990000D03*
%TO.P,ST4,5,Pin_5*%
%TO.N,GPIO13*%
X82719900Y-112450000D03*
%TO.P,ST4,6,Pin_6*%
%TO.N,GPIO12*%
X82719900Y-109910000D03*
%TO.P,ST4,7,Pin_7*%
%TO.N,GPIO11*%
X82719900Y-107370000D03*
%TO.P,ST4,8,Pin_8*%
%TO.N,GPIO10*%
X82719900Y-104830000D03*
%TO.P,ST4,9,Pin_9*%
%TO.N,GPIO3*%
X82719900Y-102290000D03*
%TO.P,ST4,10,Pin_10*%
%TO.N,GPIO2*%
X82719900Y-99750000D03*
%TO.P,ST4,11,Pin_11*%
%TO.N,GPIO1*%
X82719900Y-97210000D03*
%TO.P,ST4,12,Pin_12*%
%TO.N,unconnected-(ST4-Pin_12-Pad12)*%
X82719900Y-94670000D03*
%TD*%
D10*
%TO.P,ST5,1,Pin_1*%
%TO.N,+3V3*%
X108119900Y-122610000D03*
D11*
%TO.P,ST5,2,Pin_2*%
%TO.N,GND*%
X108119900Y-120070000D03*
%TO.P,ST5,3,Pin_3*%
X108119900Y-117530000D03*
%TO.P,ST5,4,Pin_4*%
%TO.N,unconnected-(ST5-Pin_4-Pad4)*%
X108119900Y-114990000D03*
%TO.P,ST5,5,Pin_5*%
%TO.N,ESP_TP_INT*%
X108119900Y-112450000D03*
%TO.P,ST5,6,Pin_6*%
%TO.N,ESP_TP_RESET*%
X108119900Y-109910000D03*
%TO.P,ST5,7,Pin_7*%
%TO.N,I2C_SCL*%
X108119900Y-107370000D03*
%TO.P,ST5,8,Pin_8*%
%TO.N,I2C_SDA*%
X108119900Y-104830000D03*
%TO.P,ST5,9,Pin_9*%
%TO.N,U0RXD*%
X108119900Y-102290000D03*
%TO.P,ST5,10,Pin_10*%
%TO.N,U0TXD*%
X108119900Y-99750000D03*
%TO.P,ST5,11,Pin_11*%
%TO.N,GND*%
X108119900Y-97210000D03*
%TO.P,ST5,12,Pin_12*%
X108119900Y-94670000D03*
%TD*%
D12*
%TO.P,FID1,*%
%TO.N,*%
X79140000Y-92880000D03*
%TD*%
D13*
%TO.P,ST3,1,1*%
%TO.N,GND*%
X88150000Y-124950000D03*
%TO.P,ST3,2,2*%
%TO.N,+3V3*%
X88650000Y-124950000D03*
%TO.P,ST3,3,3*%
%TO.N,GND*%
X89150000Y-124950000D03*
%TO.P,ST3,4,4*%
X89650000Y-124950000D03*
%TO.P,ST3,5,5*%
%TO.N,ESP_LCD_RES*%
X90150000Y-124950000D03*
%TO.P,ST3,6,6*%
%TO.N,ESP_LCD_CS*%
X90650000Y-124950000D03*
%TO.P,ST3,7,7*%
%TO.N,ESP_LCD_D{slash}C*%
X91150000Y-124950000D03*
%TO.P,ST3,8,8*%
%TO.N,ESP_LCD_WR*%
X91650000Y-124950000D03*
%TO.P,ST3,9,9*%
%TO.N,ESP_LCD_RD*%
X92150000Y-124950000D03*
%TO.P,ST3,10,10*%
%TO.N,GND*%
X92650000Y-124950000D03*
%TO.P,ST3,11,11*%
%TO.N,ESP_LCD_D0*%
X93150000Y-124950000D03*
%TO.P,ST3,12,12*%
%TO.N,ESP_LCD_D1*%
X93650000Y-124950000D03*
%TO.P,ST3,13,13*%
%TO.N,ESP_LCD_D2*%
X94150000Y-124950000D03*
%TO.P,ST3,14,14*%
%TO.N,ESP_LCD_D3*%
X94650000Y-124950000D03*
%TO.P,ST3,15,15*%
%TO.N,ESP_LCD_D4*%
X95150000Y-124950000D03*
%TO.P,ST3,16,16*%
%TO.N,ESP_LCD_D5*%
X95650000Y-124950000D03*
%TO.P,ST3,17,17*%
%TO.N,ESP_LCD_D6*%
X96150000Y-124950000D03*
%TO.P,ST3,18,18*%
%TO.N,ESP_LCD_D7*%
X96650000Y-124950000D03*
%TO.P,ST3,19,19*%
%TO.N,unconnected-(ST3-Pad19)*%
X97150000Y-124950000D03*
%TO.P,ST3,20,20*%
%TO.N,+3V3*%
X97650000Y-124950000D03*
%TO.P,ST3,21,21*%
%TO.N,/Display Connector and Driver/LEDK1*%
X98150000Y-124950000D03*
%TO.P,ST3,22,22*%
%TO.N,/Display Connector and Driver/LEDK2*%
X98650000Y-124950000D03*
%TO.P,ST3,23,23*%
%TO.N,/Display Connector and Driver/LEDK3*%
X99150000Y-124950000D03*
%TO.P,ST3,24,24*%
%TO.N,/Display Connector and Driver/LEDK4*%
X99650000Y-124950000D03*
%TO.P,ST3,25,25*%
%TO.N,GND*%
X100150000Y-124950000D03*
%TO.P,ST3,26,26*%
%TO.N,ESP_TP_RESET*%
X100650000Y-124950000D03*
%TO.P,ST3,27,27*%
%TO.N,I2C_SCL*%
X101150000Y-124950000D03*
%TO.P,ST3,28,28*%
%TO.N,I2C_SDA*%
X101650000Y-124950000D03*
%TO.P,ST3,29,29*%
%TO.N,ESP_TP_INT*%
X102150000Y-124950000D03*
%TO.P,ST3,30,30*%
%TO.N,GND*%
X102650000Y-124950000D03*
D14*
%TO.P,ST3,31,31*%
X104600000Y-126850000D03*
%TO.P,ST3,32,32*%
X86200000Y-126850000D03*
%TD*%
D15*
%TO.P,SW2,1,1*%
%TO.N,GPIO0*%
X111475000Y-150925000D03*
X107325000Y-150925000D03*
%TO.P,SW2,2,2*%
%TO.N,GND*%
X111475000Y-153075000D03*
X107325000Y-153075000D03*
%TD*%
D12*
%TO.P,FID2,*%
%TO.N,*%
X111410000Y-147080000D03*
%TD*%
D15*
%TO.P,SW3,1,1*%
%TO.N,GND*%
X79325000Y-153075000D03*
X83475000Y-153075000D03*
%TO.P,SW3,2,2*%
%TO.N,BOOT*%
X79325000Y-150925000D03*
X83475000Y-150925000D03*
%TD*%
D16*
%TO.P,C23,1*%
%TO.N,+3V3*%
X97150000Y-109460000D03*
%TO.P,C23,2*%
%TO.N,GND*%
X95750000Y-109460000D03*
%TD*%
D17*
%TO.P,R17,1*%
%TO.N,/Input Connectors/CC2*%
X89340000Y-145795000D03*
%TO.P,R17,2*%
%TO.N,GND*%
X89340000Y-144925000D03*
%TD*%
%TO.P,R16,1*%
%TO.N,/Input Connectors/CC1*%
X92350000Y-145785000D03*
%TO.P,R16,2*%
%TO.N,GND*%
X92350000Y-144915000D03*
%TD*%
D18*
%TO.P,ST2,A1_B12,GND*%
%TO.N,GND*%
X94280000Y-148045000D03*
%TO.P,ST2,A4_B9,VBUS*%
%TO.N,+5V*%
X93480000Y-148045000D03*
D19*
%TO.P,ST2,A5,CC1*%
%TO.N,/Input Connectors/CC1*%
X92330000Y-148045000D03*
%TO.P,ST2,A6,DP1*%
%TO.N,ESP_USB_D+*%
X91330000Y-148045000D03*
%TO.P,ST2,A7,DN1*%
%TO.N,ESP_USB_D-*%
X90830000Y-148045000D03*
%TO.P,ST2,A8,SBU1*%
%TO.N,unconnected-(ST2-SBU1-PadA8)*%
X89830000Y-148045000D03*
D18*
%TO.P,ST2,B1_A12,GND*%
%TO.N,GND*%
X87880000Y-148045000D03*
%TO.P,ST2,B4_A9,VBUS*%
%TO.N,+5V*%
X88680000Y-148045000D03*
D19*
%TO.P,ST2,B5,CC2*%
%TO.N,/Input Connectors/CC2*%
X89330000Y-148045000D03*
%TO.P,ST2,B6,DP2*%
%TO.N,ESP_USB_D+*%
X90330000Y-148045000D03*
%TO.P,ST2,B7,DN2*%
%TO.N,ESP_USB_D-*%
X91830000Y-148045000D03*
%TO.P,ST2,B8,SBU2*%
%TO.N,unconnected-(ST2-SBU2-PadB8)*%
X92830000Y-148045000D03*
D20*
%TO.P,ST2,SH1,SHELL_GND*%
%TO.N,GND*%
X95400000Y-148620000D03*
%TO.P,ST2,SH2,SHELL_GND*%
X86760000Y-148620000D03*
D21*
%TO.P,ST2,SH3,SHELL_GND*%
X95400000Y-152800000D03*
%TO.P,ST2,SH4,SHELL_GND*%
X86760000Y-152800000D03*
%TD*%
D22*
%TO.P,ST1,1,1*%
%TO.N,+12V*%
X102820000Y-151820000D03*
D23*
%TO.P,ST1,2,2*%
%TO.N,GND*%
X100320000Y-151820000D03*
%TD*%
D24*
%TO.N,+3V3*%
X97780000Y-97910000D03*
X97880000Y-101990000D03*
X94359949Y-134812882D03*
X98860000Y-103420000D03*
X98850000Y-104670000D03*
X83190000Y-130060000D03*
X100690000Y-135170000D03*
X88100000Y-137200000D03*
X91058548Y-107542834D03*
X97830000Y-100420000D03*
X97650000Y-123610000D03*
X88570000Y-123590000D03*
X100770000Y-103440000D03*
X80930000Y-137280000D03*
X80413000Y-124650000D03*
X87000000Y-132800000D03*
X97510000Y-103170000D03*
X100650000Y-132710000D03*
X106420000Y-138470000D03*
X97770000Y-96640000D03*
X97840000Y-99150000D03*
X108095274Y-136632129D03*
X80520000Y-126440000D03*
X97990000Y-109330000D03*
X87000000Y-134200000D03*
X85800000Y-137200000D03*
X101970000Y-132680000D03*
X100680000Y-133970000D03*
X88400000Y-135600000D03*
X99350000Y-132660000D03*
X88740000Y-126350000D03*
X99170000Y-130430000D03*
X87000000Y-135600000D03*
X99630000Y-105520000D03*
X94002000Y-143300000D03*
%TO.N,+12V*%
X103300000Y-142300000D03*
X103300000Y-143300000D03*
X95400000Y-141100000D03*
X102000000Y-143300000D03*
%TO.N,BOOT*%
X79330000Y-150140000D03*
%TO.N,/Microcontroller/SPID*%
X92770000Y-117250000D03*
X96600000Y-116400000D03*
%TO.N,/Microcontroller/SPIWP*%
X93150000Y-115240000D03*
X96300000Y-115240000D03*
%TO.N,/Microcontroller/SPICS0*%
X95010000Y-116980000D03*
X93670000Y-116260000D03*
%TO.N,GND*%
X82739822Y-145203186D03*
X95660000Y-98840000D03*
X92520000Y-133420000D03*
X106460000Y-146250000D03*
X99954827Y-144463398D03*
X84530000Y-153080000D03*
X107490000Y-142600000D03*
X97570000Y-129600000D03*
X102800000Y-126320000D03*
X96170000Y-134280000D03*
X108980000Y-140230000D03*
X103261732Y-123930879D03*
X95841085Y-100642934D03*
X100110000Y-116530000D03*
X110450000Y-153080000D03*
X95026811Y-101367896D03*
X104585917Y-128890870D03*
X105576923Y-103978469D03*
X100070000Y-130350000D03*
X96437497Y-148622823D03*
X110770000Y-134430000D03*
X108390000Y-153080000D03*
X98810000Y-115760000D03*
X112520000Y-153070000D03*
X83895000Y-132210000D03*
X94396711Y-152805029D03*
X107530000Y-144900000D03*
X87970000Y-126360000D03*
X92650000Y-123590000D03*
X100080000Y-123610000D03*
X82430000Y-153080000D03*
X84300000Y-136580000D03*
X93774936Y-97703487D03*
X86761449Y-150183816D03*
X106286407Y-126842552D03*
X93080059Y-144917176D03*
X95595621Y-142224606D03*
X104600000Y-124850000D03*
X100800000Y-96530000D03*
X97850000Y-108510000D03*
X91450000Y-131980000D03*
X95250000Y-132610000D03*
X89480000Y-141560000D03*
X90760000Y-112590000D03*
X95408047Y-150169425D03*
X92880000Y-106830000D03*
X87810000Y-152800000D03*
X87550000Y-120350000D03*
X97800000Y-128630000D03*
X89410000Y-123550000D03*
X106470000Y-141340000D03*
X84482248Y-126850000D03*
X102287649Y-101978120D03*
X83350000Y-135600000D03*
X99810000Y-100610000D03*
X85746952Y-148623423D03*
X101240000Y-99720000D03*
X94450000Y-99740000D03*
X87700000Y-123730000D03*
X80550000Y-145220000D03*
X96380617Y-152800735D03*
X103190000Y-139800000D03*
X110770000Y-136220000D03*
X85670000Y-152800000D03*
X95350000Y-105460000D03*
X106290000Y-153080000D03*
X94751485Y-96518566D03*
X104080000Y-135520000D03*
X78270000Y-153070000D03*
X81110000Y-149140000D03*
X99130000Y-122170000D03*
X86203677Y-128864353D03*
X100750000Y-101970000D03*
X103510000Y-108460000D03*
X88550000Y-142570000D03*
X94280000Y-147050000D03*
X92880000Y-109170000D03*
X81710000Y-142190000D03*
X102300000Y-138950000D03*
X106550000Y-106100000D03*
X83895000Y-134615000D03*
X97190000Y-135500000D03*
X92650000Y-126330000D03*
X89540000Y-126330000D03*
X91440000Y-111870000D03*
X95750000Y-110330000D03*
X105150000Y-134290000D03*
X102810000Y-107300000D03*
X91450000Y-134830000D03*
X82790000Y-133390000D03*
X88660000Y-108620000D03*
X104100000Y-133050000D03*
X88590000Y-144930000D03*
X88420000Y-121270000D03*
X101770000Y-97700000D03*
X99760000Y-98950000D03*
X97200000Y-133080000D03*
X82740000Y-141010000D03*
X99040000Y-102100000D03*
X80370000Y-153070000D03*
X87250000Y-147120000D03*
X81660000Y-146600000D03*
X100080000Y-128620000D03*
%TO.N,+5V*%
X92890000Y-149100000D03*
X86150000Y-144150000D03*
X87150000Y-143400000D03*
X84630000Y-139880000D03*
X86150000Y-142650000D03*
X93480000Y-147050000D03*
X86150000Y-145650000D03*
X89237430Y-149070000D03*
X87150000Y-144900000D03*
X88700000Y-146900000D03*
%TO.N,RESET*%
X97040000Y-105350000D03*
X112490000Y-103620000D03*
%TO.N,ESP_LCD_D4*%
X97930493Y-107334146D03*
%TO.N,I2C_SDA*%
X82930000Y-126430000D03*
X85320000Y-119840000D03*
X102160000Y-122210000D03*
%TO.N,ESP_TP_RESET*%
X95560000Y-127560000D03*
%TO.N,ESP_LCD_D3*%
X100260000Y-109160000D03*
%TO.N,ESP_LCD_D0*%
X99160000Y-111740000D03*
%TO.N,ESP_LCD_D2*%
X100260000Y-111550000D03*
%TO.N,ESP_LCD_D1*%
X99710000Y-112630000D03*
%TO.N,I2C_SCL*%
X102410000Y-120850000D03*
X83800000Y-127760000D03*
X85360000Y-121650000D03*
%TO.N,ESP_LCD_D{slash}C*%
X87418173Y-104634684D03*
%TO.N,GPIO0*%
X107330000Y-150050000D03*
X96360000Y-102530000D03*
X111680000Y-101860000D03*
%TO.N,U0RXD*%
X110120000Y-105290000D03*
X102870000Y-109060000D03*
%TO.N,ESP_LCD_D7*%
X96950000Y-121490000D03*
%TO.N,ESP_LCD_RES*%
X84900000Y-104650000D03*
%TO.N,ESP_LCD_D5*%
X100070000Y-107180000D03*
%TO.N,ESP_LCD_WR*%
X88595000Y-104665000D03*
%TO.N,ESP_LCD_RD*%
X90080000Y-104700000D03*
%TO.N,ESP_LCD_CS*%
X86220000Y-104650000D03*
%TO.N,U0TXD*%
X110280000Y-107110000D03*
X104710000Y-109760000D03*
%TO.N,ESP_LCD_D6*%
X96360000Y-123090000D03*
%TO.N,ESP_TP_INT*%
X82000000Y-125380000D03*
X103640000Y-122040000D03*
X84150000Y-118200000D03*
%TO.N,/Display Connector and Driver/LEDK3*%
X99329997Y-123610000D03*
%TO.N,/Display Connector and Driver/LEDK4*%
X99920464Y-126635409D03*
%TO.N,/Display Connector and Driver/LEDK2*%
X98520000Y-123640000D03*
%TO.N,/Display Connector and Driver/LEDK1*%
X97800000Y-126660000D03*
%TO.N,ESP_USB_D+*%
X90220000Y-146000000D03*
%TO.N,ESP_USB_D-*%
X91000000Y-146000000D03*
%TD*%
D25*
%TO.N,+3V3*%
X97990000Y-109330000D02*
X97280000Y-109330000D01*
D26*
X97650000Y-124950000D02*
X97650000Y-123610000D01*
D25*
X97280000Y-109330000D02*
X97150000Y-109460000D01*
D26*
X88650000Y-124950000D02*
X88650000Y-123670000D01*
X88650000Y-124950000D02*
X88650000Y-126260000D01*
X88650000Y-126260000D02*
X88740000Y-126350000D01*
X88650000Y-123670000D02*
X88570000Y-123590000D01*
D25*
%TO.N,BOOT*%
X79325000Y-150925000D02*
X79325000Y-150145000D01*
X79325000Y-150145000D02*
X79330000Y-150140000D01*
X79325000Y-150925000D02*
X83475000Y-150925000D01*
D26*
%TO.N,/Microcontroller/SPID*%
X95330000Y-117670000D02*
X96600000Y-116400000D01*
X93190000Y-117670000D02*
X95330000Y-117670000D01*
X92770000Y-117250000D02*
X93190000Y-117670000D01*
%TO.N,/Microcontroller/SPIWP*%
X93150000Y-115240000D02*
X96300000Y-115240000D01*
%TO.N,/Microcontroller/SPICS0*%
X93670000Y-116260000D02*
X94290000Y-116260000D01*
X94290000Y-116260000D02*
X95010000Y-116980000D01*
D25*
%TO.N,GND*%
X102800000Y-126320000D02*
X104070000Y-126320000D01*
X84482248Y-126850000D02*
X86200000Y-126850000D01*
X86200000Y-126850000D02*
X86200000Y-128860676D01*
X104585917Y-128890870D02*
X104590000Y-128886787D01*
D26*
X88150000Y-124180000D02*
X87700000Y-123730000D01*
D25*
X87880000Y-147750000D02*
X87250000Y-147120000D01*
D27*
X95400000Y-150161378D02*
X95408047Y-150169425D01*
D25*
X107325000Y-153075000D02*
X108385000Y-153075000D01*
D27*
X86760000Y-150182367D02*
X86760000Y-148620000D01*
D26*
X89150000Y-124950000D02*
X89150000Y-123810000D01*
D25*
X104070000Y-126320000D02*
X104600000Y-126850000D01*
X94280000Y-147050000D02*
X94280000Y-148045000D01*
X104600000Y-124850000D02*
X104600000Y-126850000D01*
X87970000Y-126360000D02*
X86690000Y-126360000D01*
X107325000Y-153075000D02*
X106295000Y-153075000D01*
D26*
X100150000Y-124950000D02*
X100150000Y-123680000D01*
D27*
X88595000Y-144925000D02*
X88590000Y-144930000D01*
D25*
X79325000Y-153075000D02*
X78275000Y-153075000D01*
D27*
X95400000Y-148620000D02*
X96434674Y-148620000D01*
D26*
X89150000Y-124950000D02*
X89150000Y-125940000D01*
D25*
X110450000Y-153080000D02*
X111470000Y-153080000D01*
X106278959Y-126850000D02*
X104600000Y-126850000D01*
D26*
X88150000Y-124950000D02*
X88150000Y-126180000D01*
D27*
X95400000Y-152800000D02*
X96379882Y-152800000D01*
X94401740Y-152800000D02*
X94396711Y-152805029D01*
D26*
X89150000Y-123810000D02*
X89410000Y-123550000D01*
D25*
X111470000Y-153080000D02*
X111475000Y-153075000D01*
X79325000Y-153075000D02*
X80365000Y-153075000D01*
X86690000Y-126360000D02*
X86200000Y-126850000D01*
D26*
X89650000Y-124950000D02*
X89650000Y-126220000D01*
X88150000Y-126180000D02*
X87970000Y-126360000D01*
D27*
X93077883Y-144915000D02*
X93080059Y-144917176D01*
D25*
X108385000Y-153075000D02*
X108390000Y-153080000D01*
X84525000Y-153075000D02*
X84530000Y-153080000D01*
X112515000Y-153075000D02*
X112520000Y-153070000D01*
D26*
X102650000Y-124180000D02*
X102650000Y-124950000D01*
X92650000Y-123590000D02*
X92650000Y-124950000D01*
D27*
X95400000Y-148620000D02*
X95400000Y-150161378D01*
D25*
X104590000Y-128886787D02*
X104590000Y-126860000D01*
X106295000Y-153075000D02*
X106290000Y-153080000D01*
X104590000Y-126860000D02*
X104600000Y-126850000D01*
X111475000Y-153075000D02*
X112515000Y-153075000D01*
D26*
X89650000Y-123790000D02*
X89410000Y-123550000D01*
D25*
X95750000Y-109460000D02*
X95750000Y-110330000D01*
X83475000Y-153075000D02*
X82435000Y-153075000D01*
X87880000Y-148045000D02*
X87880000Y-147750000D01*
D27*
X92350000Y-144915000D02*
X93077883Y-144915000D01*
D26*
X102900000Y-123930000D02*
X102650000Y-124180000D01*
X89150000Y-125940000D02*
X89540000Y-126330000D01*
X89650000Y-126220000D02*
X89540000Y-126330000D01*
D27*
X86760000Y-148620000D02*
X85750375Y-148620000D01*
D26*
X100150000Y-123680000D02*
X100080000Y-123610000D01*
D27*
X86760000Y-152800000D02*
X87810000Y-152800000D01*
X96379882Y-152800000D02*
X96380617Y-152800735D01*
D26*
X103261732Y-123930879D02*
X103260853Y-123930000D01*
X102650000Y-124950000D02*
X102650000Y-126170000D01*
D25*
X106286407Y-126842552D02*
X106278959Y-126850000D01*
D27*
X86761449Y-150183816D02*
X86760000Y-150182367D01*
D25*
X83475000Y-153075000D02*
X84525000Y-153075000D01*
D26*
X103260853Y-123930000D02*
X102900000Y-123930000D01*
X88150000Y-124950000D02*
X88150000Y-124180000D01*
D27*
X85750375Y-148620000D02*
X85746952Y-148623423D01*
D26*
X92650000Y-126330000D02*
X92650000Y-124950000D01*
D25*
X78275000Y-153075000D02*
X78270000Y-153070000D01*
X86200000Y-128860676D02*
X86203677Y-128864353D01*
D27*
X86760000Y-152800000D02*
X85670000Y-152800000D01*
D25*
X82435000Y-153075000D02*
X82430000Y-153080000D01*
D27*
X89340000Y-144925000D02*
X88595000Y-144925000D01*
D25*
X80365000Y-153075000D02*
X80370000Y-153070000D01*
D27*
X96434674Y-148620000D02*
X96437497Y-148622823D01*
D26*
X102650000Y-126170000D02*
X102800000Y-126320000D01*
X89650000Y-124950000D02*
X89650000Y-123790000D01*
D27*
X95400000Y-152800000D02*
X94401740Y-152800000D01*
D25*
%TO.N,+5V*%
X88680000Y-148512570D02*
X88680000Y-148045000D01*
X92890000Y-149100000D02*
X93072492Y-148917508D01*
X89237430Y-149070000D02*
X88680000Y-148512570D01*
X88680000Y-146920000D02*
X88700000Y-146900000D01*
X93480000Y-148512570D02*
X93480000Y-148045000D01*
X93480000Y-148045000D02*
X93480000Y-147050000D01*
X93075062Y-148917508D02*
X93480000Y-148512570D01*
X93072492Y-148917508D02*
X93075062Y-148917508D01*
X88680000Y-148045000D02*
X88680000Y-146920000D01*
%TO.N,RESET*%
X103410000Y-103250000D02*
X106930000Y-103250000D01*
X98320000Y-104070000D02*
X102590000Y-104070000D01*
X106930000Y-103250000D02*
X107280000Y-103600000D01*
X112470000Y-103600000D02*
X112490000Y-103620000D01*
X97040000Y-105350000D02*
X98320000Y-104070000D01*
X107280000Y-103600000D02*
X112470000Y-103600000D01*
X102590000Y-104070000D02*
X103410000Y-103250000D01*
D26*
%TO.N,ESP_LCD_D4*%
X99414146Y-107334146D02*
X101530000Y-109450000D01*
X97930493Y-107334146D02*
X99414146Y-107334146D01*
X99690000Y-117160000D02*
X95150000Y-121700000D01*
X100330000Y-117160000D02*
X99690000Y-117160000D01*
X95150000Y-121700000D02*
X95150000Y-124950000D01*
X101530000Y-115960000D02*
X100330000Y-117160000D01*
X101530000Y-109450000D02*
X101530000Y-115960000D01*
%TO.N,I2C_SDA*%
X102160000Y-122210000D02*
X102150000Y-122210000D01*
X82930000Y-127790000D02*
X85700000Y-130560000D01*
X97389232Y-130560000D02*
X98459232Y-129490000D01*
X101650000Y-127829232D02*
X101650000Y-124950000D01*
X98459232Y-129490000D02*
X99989232Y-129490000D01*
X84750000Y-120410000D02*
X84750000Y-123750000D01*
X101650000Y-122710000D02*
X101650000Y-124950000D01*
X99989232Y-129490000D02*
X101650000Y-127829232D01*
X85700000Y-130560000D02*
X97389232Y-130560000D01*
X84750000Y-123750000D02*
X82930000Y-125570000D01*
X82930000Y-125570000D02*
X82930000Y-126430000D01*
X102150000Y-122210000D02*
X101650000Y-122710000D01*
X85320000Y-119840000D02*
X84750000Y-120410000D01*
X82930000Y-126430000D02*
X82930000Y-127790000D01*
%TO.N,ESP_TP_RESET*%
X100650000Y-126685105D02*
X100650000Y-124950000D01*
X100650000Y-119200000D02*
X106910000Y-112940000D01*
X99775105Y-127560000D02*
X100650000Y-126685105D01*
X100650000Y-124950000D02*
X100650000Y-119200000D01*
X106910000Y-112940000D02*
X106910000Y-111119900D01*
X106910000Y-111119900D02*
X108119900Y-109910000D01*
X95560000Y-127560000D02*
X99775105Y-127560000D01*
%TO.N,ESP_LCD_D3*%
X94650000Y-124950000D02*
X94650000Y-121180000D01*
X94650000Y-121180000D02*
X100980000Y-114850000D01*
X100980000Y-114850000D02*
X100980000Y-109880000D01*
X100980000Y-109880000D02*
X100260000Y-109160000D01*
%TO.N,ESP_LCD_D0*%
X99160000Y-113070000D02*
X99160000Y-111740000D01*
X97200000Y-116690000D02*
X97200000Y-115030000D01*
X93150000Y-123840000D02*
X93240000Y-123750000D01*
X93240000Y-120650000D02*
X97200000Y-116690000D01*
X93150000Y-124950000D02*
X93150000Y-123840000D01*
X97200000Y-115030000D02*
X99160000Y-113070000D01*
X93240000Y-123750000D02*
X93240000Y-120650000D01*
%TO.N,ESP_LCD_D2*%
X100260000Y-111550000D02*
X100260000Y-113490000D01*
X98100000Y-117070000D02*
X94150000Y-121020000D01*
X94150000Y-121020000D02*
X94150000Y-124950000D01*
X100260000Y-113490000D02*
X98100000Y-115650000D01*
X98100000Y-115650000D02*
X98100000Y-117070000D01*
%TO.N,ESP_LCD_D1*%
X99710000Y-113290000D02*
X99710000Y-112630000D01*
X93650000Y-124950000D02*
X93650000Y-120890000D01*
X93650000Y-120890000D02*
X97660000Y-116880000D01*
X97660000Y-116880000D02*
X97660000Y-115340000D01*
X97660000Y-115340000D02*
X99710000Y-113290000D01*
%TO.N,I2C_SCL*%
X83790000Y-125820000D02*
X83790000Y-127750000D01*
X85360000Y-124250000D02*
X83790000Y-125820000D01*
X85360000Y-121650000D02*
X85360000Y-124250000D01*
X85770000Y-129780000D02*
X95870768Y-129780000D01*
X101150000Y-126890000D02*
X101150000Y-124950000D01*
X83790000Y-127800000D02*
X85770000Y-129780000D01*
X83790000Y-127770000D02*
X83800000Y-127760000D01*
X83790000Y-127750000D02*
X83800000Y-127760000D01*
X83790000Y-127800000D02*
X83790000Y-127770000D01*
X95870768Y-129780000D02*
X97610768Y-128040000D01*
X100000000Y-128040000D02*
X101150000Y-126890000D01*
X101140000Y-124940000D02*
X101150000Y-124950000D01*
X102410000Y-120850000D02*
X101140000Y-122120000D01*
X97610768Y-128040000D02*
X100000000Y-128040000D01*
X101140000Y-122120000D02*
X101140000Y-124940000D01*
%TO.N,ESP_LCD_D{slash}C*%
X91150000Y-120700000D02*
X91150000Y-124950000D01*
X86940000Y-116490000D02*
X91150000Y-120700000D01*
X87418173Y-104641827D02*
X86940000Y-105120000D01*
X87418173Y-104634684D02*
X87418173Y-104641827D01*
X86940000Y-105120000D02*
X86940000Y-116490000D01*
D25*
%TO.N,GPIO0*%
X97650000Y-101240000D02*
X96360000Y-102530000D01*
X111680000Y-101860000D02*
X111060000Y-101240000D01*
X107325000Y-150055000D02*
X107330000Y-150050000D01*
X111475000Y-150925000D02*
X107325000Y-150925000D01*
X107325000Y-150925000D02*
X107325000Y-150055000D01*
X111060000Y-101240000D02*
X97650000Y-101240000D01*
%TO.N,U0RXD*%
X103211000Y-109061000D02*
X106199000Y-109061000D01*
X106199000Y-109061000D02*
X106960000Y-108300000D01*
X106960000Y-108300000D02*
X106960000Y-106790000D01*
X107620000Y-106130000D02*
X109280000Y-106130000D01*
X109280000Y-106130000D02*
X110120000Y-105290000D01*
X103210000Y-109060000D02*
X103211000Y-109061000D01*
X102870000Y-109060000D02*
X103210000Y-109060000D01*
X106960000Y-106790000D02*
X107620000Y-106130000D01*
D26*
%TO.N,ESP_LCD_D7*%
X96950000Y-123650000D02*
X96950000Y-121490000D01*
X96650000Y-124950000D02*
X96650000Y-123950000D01*
X96650000Y-123950000D02*
X96950000Y-123650000D01*
%TO.N,ESP_LCD_RES*%
X84900000Y-116590000D02*
X90150000Y-121840000D01*
X90150000Y-121840000D02*
X90150000Y-124950000D01*
X84900000Y-104650000D02*
X84900000Y-116590000D01*
%TO.N,ESP_LCD_D5*%
X102080000Y-116200000D02*
X100440000Y-117840000D01*
X100070000Y-107180000D02*
X102080000Y-109190000D01*
X102080000Y-109190000D02*
X102080000Y-116200000D01*
X100440000Y-117840000D02*
X99740000Y-117840000D01*
X95650000Y-121930000D02*
X95650000Y-124950000D01*
X99740000Y-117840000D02*
X95650000Y-121930000D01*
%TO.N,ESP_LCD_WR*%
X88595000Y-104665000D02*
X87960000Y-105300000D01*
X91650000Y-120100000D02*
X91650000Y-124950000D01*
X87960000Y-105300000D02*
X87960000Y-116410000D01*
X87960000Y-116410000D02*
X91650000Y-120100000D01*
%TO.N,ESP_LCD_RD*%
X90080000Y-117400000D02*
X92099000Y-119419000D01*
X92099000Y-119419000D02*
X92099000Y-124899000D01*
X92099000Y-124899000D02*
X92150000Y-124950000D01*
X90080000Y-104700000D02*
X90080000Y-117400000D01*
%TO.N,ESP_LCD_CS*%
X85780000Y-105090000D02*
X86220000Y-104650000D01*
X90650000Y-124950000D02*
X90650000Y-121340000D01*
X85780000Y-116470000D02*
X85780000Y-105090000D01*
X90650000Y-121340000D02*
X85780000Y-116470000D01*
D25*
%TO.N,U0TXD*%
X106570000Y-109760000D02*
X107670000Y-108660000D01*
X104710000Y-109760000D02*
X106570000Y-109760000D01*
X108730000Y-108660000D02*
X110280000Y-107110000D01*
X107670000Y-108660000D02*
X108730000Y-108660000D01*
D26*
%TO.N,ESP_LCD_D6*%
X96360000Y-123090000D02*
X96150000Y-123300000D01*
X96150000Y-123300000D02*
X96150000Y-124950000D01*
%TO.N,ESP_TP_INT*%
X100030000Y-131170000D02*
X102150000Y-129050000D01*
X103640000Y-122040000D02*
X102150000Y-123530000D01*
X102150000Y-129050000D02*
X102150000Y-124950000D01*
X85420000Y-131170000D02*
X100030000Y-131170000D01*
X84150000Y-123230000D02*
X84150000Y-118200000D01*
X82000000Y-125380000D02*
X82000000Y-127750000D01*
X82000000Y-125380000D02*
X84150000Y-123230000D01*
X82000000Y-127750000D02*
X85420000Y-131170000D01*
X102150000Y-123530000D02*
X102150000Y-124950000D01*
%TO.N,/Input Connectors/CC1*%
X92330000Y-148045000D02*
X92330000Y-145805000D01*
X92330000Y-145805000D02*
X92350000Y-145785000D01*
%TO.N,/Input Connectors/CC2*%
X89330000Y-145805000D02*
X89340000Y-145795000D01*
X89330000Y-148045000D02*
X89330000Y-145805000D01*
%TO.N,/Display Connector and Driver/LEDK3*%
X99150000Y-123789997D02*
X99150000Y-124950000D01*
X99329997Y-123610000D02*
X99150000Y-123789997D01*
%TO.N,/Display Connector and Driver/LEDK4*%
X99650000Y-126364945D02*
X99650000Y-124950000D01*
X99920464Y-126635409D02*
X99650000Y-126364945D01*
%TO.N,/Display Connector and Driver/LEDK2*%
X98520000Y-123640000D02*
X98650000Y-123770000D01*
X98650000Y-123770000D02*
X98650000Y-124950000D01*
%TO.N,/Display Connector and Driver/LEDK1*%
X97800000Y-126660000D02*
X98150000Y-126310000D01*
X98150000Y-126310000D02*
X98150000Y-124950000D01*
%TO.N,ESP_USB_D+*%
X91160000Y-148870000D02*
X91330000Y-148700000D01*
X90330000Y-148045000D02*
X90330000Y-148700000D01*
X90330000Y-148700000D02*
X90500000Y-148870000D01*
X90500000Y-148870000D02*
X91160000Y-148870000D01*
X91330000Y-148700000D02*
X91330000Y-148045000D01*
X90330000Y-146093869D02*
X90330000Y-148045000D01*
X90220000Y-145983869D02*
X90330000Y-146093869D01*
%TO.N,ESP_USB_D-*%
X91000000Y-146010000D02*
X90830000Y-146180000D01*
X90830000Y-148045000D02*
X90830000Y-147210000D01*
X91830000Y-147418000D02*
X91830000Y-148045000D01*
X91622000Y-147210000D02*
X91830000Y-147418000D01*
X90830000Y-147210000D02*
X91622000Y-147210000D01*
X90830000Y-146180000D02*
X90830000Y-148045000D01*
%TD*%
M02*
