M48
; DRILL file {KiCad 9.0.0} date 2025-04-24T23:32:45+0300
; FORMAT={-:-/ absolute / metric / decimal}
; #@! TF.CreationDate,2025-04-24T23:32:45+03:00
; #@! TF.GenerationSoftware,Kicad,Pcbnew,9.0.0
; #@! TF.FileFunction,MixedPlating,1,4
FMAT,2
METRIC
; #@! TA.AperFunction,Plated,PTH,ViaDrill
T1C0.300
; #@! TA.AperFunction,Plated,PTH,ComponentDrill
T2C0.600
; #@! TA.AperFunction,Plated,PTH,ComponentDrill
T3C0.965
; #@! TA.AperFunction,Plated,PTH,ComponentDrill
T4C1.016
; #@! TA.AperFunction,Plated,PTH,ComponentDrill
T5C1.100
; #@! TA.AperFunction,NonPlated,NPTH,ComponentDrill
T6C0.650
; #@! TA.AperFunction,NonPlated,NPTH,ComponentDrill
T7C0.711
; #@! TA.AperFunction,NonPlated,NPTH,ComponentDrill
T8C0.813
%
G90
G05
T1
X78.27Y-153.07
X79.33Y-150.14
X80.37Y-153.07
X80.413Y-124.65
X80.52Y-126.44
X80.55Y-145.22
X80.93Y-137.28
X81.11Y-149.14
X81.66Y-146.6
X81.71Y-142.19
X82.0Y-125.38
X82.43Y-153.08
X82.74Y-145.203
X82.74Y-141.01
X82.79Y-133.39
X82.93Y-126.43
X83.19Y-130.06
X83.35Y-135.6
X83.8Y-127.76
X83.895Y-132.21
X83.895Y-134.615
X84.15Y-118.2
X84.3Y-136.58
X84.482Y-126.85
X84.53Y-153.08
X84.63Y-139.88
X84.9Y-104.65
X85.32Y-119.84
X85.36Y-121.65
X85.67Y-152.8
X85.747Y-148.623
X85.8Y-137.2
X86.15Y-142.65
X86.15Y-144.15
X86.15Y-145.65
X86.204Y-128.864
X86.22Y-104.65
X86.761Y-150.184
X87.0Y-132.8
X87.0Y-134.2
X87.0Y-135.6
X87.15Y-143.4
X87.15Y-144.9
X87.25Y-147.12
X87.418Y-104.635
X87.55Y-120.35
X87.7Y-123.73
X87.81Y-152.8
X87.97Y-126.36
X88.1Y-137.2
X88.4Y-135.6
X88.42Y-121.27
X88.55Y-142.57
X88.57Y-123.59
X88.59Y-144.93
X88.595Y-104.665
X88.66Y-108.62
X88.7Y-146.9
X88.74Y-126.35
X89.237Y-149.07
X89.41Y-123.55
X89.48Y-141.56
X89.54Y-126.33
X90.08Y-104.7
X90.22Y-146.0
X90.76Y-112.59
X91.0Y-146.0
X91.059Y-107.543
X91.44Y-111.87
X91.45Y-131.98
X91.45Y-134.83
X92.52Y-133.42
X92.65Y-123.59
X92.65Y-126.33
X92.77Y-117.25
X92.88Y-106.83
X92.88Y-109.17
X92.89Y-149.1
X93.08Y-144.917
X93.15Y-115.24
X93.48Y-147.05
X93.67Y-116.26
X93.775Y-97.703
X94.002Y-143.3
X94.28Y-147.05
X94.36Y-134.813
X94.397Y-152.805
X94.45Y-99.74
X94.751Y-96.519
X95.01Y-116.98
X95.027Y-101.368
X95.25Y-132.61
X95.35Y-105.46
X95.4Y-141.1
X95.408Y-150.169
X95.56Y-127.56
X95.596Y-142.225
X95.66Y-98.84
X95.75Y-110.33
X95.841Y-100.643
X96.17Y-134.28
X96.3Y-115.24
X96.36Y-102.53
X96.36Y-123.09
X96.381Y-152.801
X96.437Y-148.623
X96.6Y-116.4
X96.95Y-121.49
X97.04Y-105.35
X97.19Y-135.5
X97.2Y-133.08
X97.51Y-103.17
X97.57Y-129.6
X97.65Y-123.61
X97.77Y-96.64
X97.78Y-97.91
X97.8Y-126.66
X97.8Y-128.63
X97.83Y-100.42
X97.84Y-99.15
X97.85Y-108.51
X97.88Y-101.99
X97.93Y-107.334
X97.99Y-109.33
X98.52Y-123.64
X98.81Y-115.76
X98.85Y-104.67
X98.86Y-103.42
X99.04Y-102.1
X99.13Y-122.17
X99.16Y-111.74
X99.17Y-130.43
X99.33Y-123.61
X99.35Y-132.66
X99.63Y-105.52
X99.71Y-112.63
X99.76Y-98.95
X99.81Y-100.61
X99.92Y-126.635
X99.955Y-144.463
X100.07Y-107.18
X100.07Y-130.35
X100.08Y-123.61
X100.08Y-128.62
X100.11Y-116.53
X100.26Y-109.16
X100.26Y-111.55
X100.65Y-132.71
X100.68Y-133.97
X100.69Y-135.17
X100.75Y-101.97
X100.77Y-103.44
X100.8Y-96.53
X101.24Y-99.72
X101.77Y-97.7
X101.97Y-132.68
X102.0Y-143.3
X102.16Y-122.21
X102.288Y-101.978
X102.3Y-138.95
X102.41Y-120.85
X102.8Y-126.32
X102.81Y-107.3
X102.87Y-109.06
X103.19Y-139.8
X103.262Y-123.931
X103.3Y-142.3
X103.3Y-143.3
X103.51Y-108.46
X103.64Y-122.04
X104.08Y-135.52
X104.1Y-133.05
X104.586Y-128.891
X104.6Y-124.85
X104.71Y-109.76
X105.15Y-134.29
X105.577Y-103.978
X106.286Y-126.843
X106.29Y-153.08
X106.42Y-138.47
X106.46Y-146.25
X106.47Y-141.34
X106.55Y-106.1
X107.33Y-150.05
X107.49Y-142.6
X107.53Y-144.9
X108.095Y-136.632
X108.39Y-153.08
X108.98Y-140.23
X110.12Y-105.29
X110.28Y-107.11
X110.45Y-153.08
X110.77Y-134.43
X110.77Y-136.22
X111.68Y-101.86
X112.49Y-103.62
X112.52Y-153.07
T3
X82.72Y-122.61
X108.12Y-122.61
T4
X82.72Y-94.67
X82.72Y-97.21
X82.72Y-99.75
X82.72Y-102.29
X82.72Y-104.83
X82.72Y-107.37
X82.72Y-109.91
X82.72Y-112.45
X82.72Y-114.99
X82.72Y-117.53
X82.72Y-120.07
X108.12Y-94.67
X108.12Y-97.21
X108.12Y-99.75
X108.12Y-102.29
X108.12Y-104.83
X108.12Y-107.37
X108.12Y-109.91
X108.12Y-112.45
X108.12Y-114.99
X108.12Y-117.53
X108.12Y-120.07
T5
X100.32Y-151.82
X102.82Y-151.82
T6
X88.19Y-149.12
X93.97Y-149.12
T7
X111.996Y-136.117
X111.996Y-137.817
T8
X111.996Y-134.742
X111.996Y-139.192
T2
G00X86.76Y-149.17
M15
G01X86.76Y-148.07
M16
G05
G00X86.76Y-153.2
M15
G01X86.76Y-152.4
M16
G05
G00X95.4Y-149.17
M15
G01X95.4Y-148.07
M16
G05
G00X95.4Y-153.2
M15
G01X95.4Y-152.4
M16
G05
M30
