%TF.GenerationSoftware,KiCad,Pcbnew,9.0.0*%
%TF.CreationDate,2025-04-24T23:35:52+03:00*%
%TF.ProjectId,ESP32_BOARD,45535033-325f-4424-9f41-52442e6b6963,1.0*%
%TF.SameCoordinates,Original*%
%TF.FileFunction,Copper,L3,Inr*%
%TF.FilePolarity,Positive*%
%FSLAX46Y46*%
G04 Gerber Fmt 4.6, Leading zero omitted, Abs format (unit mm)*
G04 Created by KiCad (PCBNEW 9.0.0) date 2025-04-24 23:35:52*
%MOMM*%
%LPD*%
G01*
G04 APERTURE LIST*
%TA.AperFunction,ComponentPad*%
%ADD10R,1.524000X1.524000*%
%TD*%
%TA.AperFunction,ComponentPad*%
%ADD11C,1.524000*%
%TD*%
%TA.AperFunction,ComponentPad*%
%ADD12R,1.650000X1.650000*%
%TD*%
%TA.AperFunction,ComponentPad*%
%ADD13C,1.650000*%
%TD*%
%TA.AperFunction,ViaPad*%
%ADD14C,0.600000*%
%TD*%
G04 APERTURE END LIST*
D10*
%TO.N,+3V3*%
%TO.C,ST4*%
X82719900Y-122610000D03*
D11*
%TO.N,GND*%
X82719900Y-120070000D03*
%TO.N,unconnected-(ST4-Pin_3-Pad3)*%
X82719900Y-117530000D03*
%TO.N,unconnected-(ST4-Pin_4-Pad4)*%
X82719900Y-114990000D03*
%TO.N,GPIO13*%
X82719900Y-112450000D03*
%TO.N,GPIO12*%
X82719900Y-109910000D03*
%TO.N,GPIO11*%
X82719900Y-107370000D03*
%TO.N,GPIO10*%
X82719900Y-104830000D03*
%TO.N,GPIO3*%
X82719900Y-102290000D03*
%TO.N,GPIO2*%
X82719900Y-99750000D03*
%TO.N,GPIO1*%
X82719900Y-97210000D03*
%TO.N,unconnected-(ST4-Pin_12-Pad12)*%
X82719900Y-94670000D03*
%TD*%
D10*
%TO.N,+3V3*%
%TO.C,ST5*%
X108119900Y-122610000D03*
D11*
%TO.N,GND*%
X108119900Y-120070000D03*
X108119900Y-117530000D03*
%TO.N,unconnected-(ST5-Pin_4-Pad4)*%
X108119900Y-114990000D03*
%TO.N,ESP_TP_INT*%
X108119900Y-112450000D03*
%TO.N,ESP_TP_RESET*%
X108119900Y-109910000D03*
%TO.N,I2C_SCL*%
X108119900Y-107370000D03*
%TO.N,I2C_SDA*%
X108119900Y-104830000D03*
%TO.N,U0RXD*%
X108119900Y-102290000D03*
%TO.N,U0TXD*%
X108119900Y-99750000D03*
%TO.N,GND*%
X108119900Y-97210000D03*
X108119900Y-94670000D03*
%TD*%
D12*
%TO.N,+12V*%
%TO.C,ST1*%
X102820000Y-151820000D03*
D13*
%TO.N,GND*%
X100320000Y-151820000D03*
%TD*%
D14*
%TO.N,+3V3*%
X97780000Y-97910000D03*
X97880000Y-101990000D03*
X94359949Y-134812882D03*
X98860000Y-103420000D03*
X98850000Y-104670000D03*
X83190000Y-130060000D03*
X100690000Y-135170000D03*
X88100000Y-137200000D03*
X91058548Y-107542834D03*
X97830000Y-100420000D03*
X97650000Y-123610000D03*
X88570000Y-123590000D03*
X100770000Y-103440000D03*
X80930000Y-137280000D03*
X80413000Y-124650000D03*
X87000000Y-132800000D03*
X97510000Y-103170000D03*
X100650000Y-132710000D03*
X106420000Y-138470000D03*
X97770000Y-96640000D03*
X97840000Y-99150000D03*
X108095274Y-136632129D03*
X80520000Y-126440000D03*
X97990000Y-109330000D03*
X87000000Y-134200000D03*
X85800000Y-137200000D03*
X101970000Y-132680000D03*
X100680000Y-133970000D03*
X88400000Y-135600000D03*
X99350000Y-132660000D03*
X88740000Y-126350000D03*
X99170000Y-130430000D03*
X87000000Y-135600000D03*
X99630000Y-105520000D03*
X94002000Y-143300000D03*
%TO.N,+12V*%
X103300000Y-142300000D03*
X103300000Y-143300000D03*
X95400000Y-141100000D03*
X102000000Y-143300000D03*
%TO.N,BOOT*%
X79330000Y-150140000D03*
%TO.N,/Microcontroller/SPID*%
X92770000Y-117250000D03*
X96600000Y-116400000D03*
%TO.N,/Microcontroller/SPIWP*%
X93150000Y-115240000D03*
X96300000Y-115240000D03*
%TO.N,/Microcontroller/SPICS0*%
X95010000Y-116980000D03*
X93670000Y-116260000D03*
%TO.N,GND*%
X82739822Y-145203186D03*
X95660000Y-98840000D03*
X92520000Y-133420000D03*
X106460000Y-146250000D03*
X99954827Y-144463398D03*
X84530000Y-153080000D03*
X107490000Y-142600000D03*
X97570000Y-129600000D03*
X102800000Y-126320000D03*
X96170000Y-134280000D03*
X108980000Y-140230000D03*
X103261732Y-123930879D03*
X95841085Y-100642934D03*
X100110000Y-116530000D03*
X110450000Y-153080000D03*
X95026811Y-101367896D03*
X104585917Y-128890870D03*
X105576923Y-103978469D03*
X100070000Y-130350000D03*
X96437497Y-148622823D03*
X110770000Y-134430000D03*
X108390000Y-153080000D03*
X98810000Y-115760000D03*
X112520000Y-153070000D03*
X83895000Y-132210000D03*
X94396711Y-152805029D03*
X107530000Y-144900000D03*
X87970000Y-126360000D03*
X92650000Y-123590000D03*
X100080000Y-123610000D03*
X82430000Y-153080000D03*
X84300000Y-136580000D03*
X93774936Y-97703487D03*
X86761449Y-150183816D03*
X106286407Y-126842552D03*
X93080059Y-144917176D03*
X95595621Y-142224606D03*
X104600000Y-124850000D03*
X100800000Y-96530000D03*
X97850000Y-108510000D03*
X91450000Y-131980000D03*
X95250000Y-132610000D03*
X89480000Y-141560000D03*
X90760000Y-112590000D03*
X95408047Y-150169425D03*
X92880000Y-106830000D03*
X87810000Y-152800000D03*
X87550000Y-120350000D03*
X97800000Y-128630000D03*
X89410000Y-123550000D03*
X106470000Y-141340000D03*
X84482248Y-126850000D03*
X102287649Y-101978120D03*
X83350000Y-135600000D03*
X99810000Y-100610000D03*
X85746952Y-148623423D03*
X101240000Y-99720000D03*
X94450000Y-99740000D03*
X87700000Y-123730000D03*
X80550000Y-145220000D03*
X96380617Y-152800735D03*
X103190000Y-139800000D03*
X110770000Y-136220000D03*
X85670000Y-152800000D03*
X95350000Y-105460000D03*
X106290000Y-153080000D03*
X94751485Y-96518566D03*
X104080000Y-135520000D03*
X78270000Y-153070000D03*
X81110000Y-149140000D03*
X99130000Y-122170000D03*
X86203677Y-128864353D03*
X100750000Y-101970000D03*
X103510000Y-108460000D03*
X88550000Y-142570000D03*
X94280000Y-147050000D03*
X92880000Y-109170000D03*
X81710000Y-142190000D03*
X102300000Y-138950000D03*
X106550000Y-106100000D03*
X83895000Y-134615000D03*
X97190000Y-135500000D03*
X92650000Y-126330000D03*
X89540000Y-126330000D03*
X91440000Y-111870000D03*
X95750000Y-110330000D03*
X105150000Y-134290000D03*
X102810000Y-107300000D03*
X91450000Y-134830000D03*
X82790000Y-133390000D03*
X88660000Y-108620000D03*
X104100000Y-133050000D03*
X88590000Y-144930000D03*
X88420000Y-121270000D03*
X101770000Y-97700000D03*
X99760000Y-98950000D03*
X97200000Y-133080000D03*
X82740000Y-141010000D03*
X99040000Y-102100000D03*
X80370000Y-153070000D03*
X87250000Y-147120000D03*
X81660000Y-146600000D03*
X100080000Y-128620000D03*
%TO.N,+5V*%
X92890000Y-149100000D03*
X86150000Y-144150000D03*
X87150000Y-143400000D03*
X84630000Y-139880000D03*
X86150000Y-142650000D03*
X93480000Y-147050000D03*
X86150000Y-145650000D03*
X89237430Y-149070000D03*
X87150000Y-144900000D03*
X88700000Y-146900000D03*
%TO.N,RESET*%
X97040000Y-105350000D03*
X112490000Y-103620000D03*
%TO.N,ESP_LCD_D4*%
X97930493Y-107334146D03*
%TO.N,I2C_SDA*%
X82930000Y-126430000D03*
X85320000Y-119840000D03*
X102160000Y-122210000D03*
%TO.N,ESP_TP_RESET*%
X95560000Y-127560000D03*
%TO.N,ESP_LCD_D3*%
X100260000Y-109160000D03*
%TO.N,ESP_LCD_D0*%
X99160000Y-111740000D03*
%TO.N,ESP_LCD_D2*%
X100260000Y-111550000D03*
%TO.N,ESP_LCD_D1*%
X99710000Y-112630000D03*
%TO.N,I2C_SCL*%
X102410000Y-120850000D03*
X83800000Y-127760000D03*
X85360000Y-121650000D03*
%TO.N,ESP_LCD_D{slash}C*%
X87418173Y-104634684D03*
%TO.N,GPIO0*%
X107330000Y-150050000D03*
X96360000Y-102530000D03*
X111680000Y-101860000D03*
%TO.N,U0RXD*%
X110120000Y-105290000D03*
X102870000Y-109060000D03*
%TO.N,ESP_LCD_D7*%
X96950000Y-121490000D03*
%TO.N,ESP_LCD_RES*%
X84900000Y-104650000D03*
%TO.N,ESP_LCD_D5*%
X100070000Y-107180000D03*
%TO.N,ESP_LCD_WR*%
X88595000Y-104665000D03*
%TO.N,ESP_LCD_RD*%
X90080000Y-104700000D03*
%TO.N,ESP_LCD_CS*%
X86220000Y-104650000D03*
%TO.N,U0TXD*%
X110280000Y-107110000D03*
X104710000Y-109760000D03*
%TO.N,ESP_LCD_D6*%
X96360000Y-123090000D03*
%TO.N,ESP_TP_INT*%
X82000000Y-125380000D03*
X103640000Y-122040000D03*
X84150000Y-118200000D03*
%TO.N,/Display Connector and Driver/LEDK3*%
X99329997Y-123610000D03*
%TO.N,/Display Connector and Driver/LEDK4*%
X99920464Y-126635409D03*
%TO.N,/Display Connector and Driver/LEDK2*%
X98520000Y-123640000D03*
%TO.N,/Display Connector and Driver/LEDK1*%
X97800000Y-126660000D03*
%TO.N,ESP_USB_D+*%
X90220000Y-146000000D03*
%TO.N,ESP_USB_D-*%
X91000000Y-146000000D03*
%TD*%
%TA.AperFunction,Conductor*%
%TO.N,+3V3*%
G36*
X112842539Y-91720185D02*
G01*
X112888294Y-91772989D01*
X112899500Y-91824500D01*
X112899500Y-103121458D01*
X112879815Y-103188497D01*
X112827011Y-103234252D01*
X112757853Y-103244196D01*
X112713500Y-103228845D01*
X112663889Y-103200202D01*
X112663890Y-103200202D01*
X112654494Y-103197684D01*
X112549309Y-103169500D01*
X112430691Y-103169500D01*
X112316114Y-103200201D01*
X112316112Y-103200201D01*
X112316112Y-103200202D01*
X112213387Y-103259511D01*
X112213384Y-103259513D01*
X112129513Y-103343384D01*
X112129511Y-103343387D01*
X112070201Y-103446114D01*
X112039500Y-103560691D01*
X112039500Y-103679309D01*
X112070201Y-103793886D01*
X112129511Y-103896613D01*
X112213387Y-103980489D01*
X112316114Y-104039799D01*
X112430691Y-104070500D01*
X112430694Y-104070500D01*
X112549306Y-104070500D01*
X112549309Y-104070500D01*
X112663886Y-104039799D01*
X112663888Y-104039797D01*
X112663890Y-104039797D01*
X112663891Y-104039796D01*
X112667392Y-104037775D01*
X112688491Y-104025593D01*
X112713499Y-104011155D01*
X112781399Y-103994681D01*
X112847426Y-104017533D01*
X112890617Y-104072453D01*
X112899500Y-104118541D01*
X112899500Y-134452747D01*
X112879815Y-134519786D01*
X112827011Y-134565541D01*
X112757853Y-134575485D01*
X112694297Y-134546460D01*
X112660939Y-134500200D01*
X112622430Y-134407231D01*
X112622425Y-134407222D01*
X112545068Y-134291450D01*
X112545065Y-134291446D01*
X112446608Y-134192989D01*
X112446604Y-134192986D01*
X112330832Y-134115629D01*
X112330823Y-134115624D01*
X112202178Y-134062338D01*
X112202172Y-134062336D01*
X112065609Y-134035172D01*
X112065607Y-134035172D01*
X111926359Y-134035172D01*
X111926357Y-134035172D01*
X111789793Y-134062336D01*
X111789787Y-134062338D01*
X111661142Y-134115624D01*
X111661133Y-134115629D01*
X111545361Y-134192986D01*
X111545357Y-134192989D01*
X111446900Y-134291446D01*
X111446895Y-134291452D01*
X111422190Y-134328426D01*
X111368578Y-134373230D01*
X111299252Y-134381937D01*
X111236225Y-134351782D01*
X111199507Y-134292338D01*
X111199371Y-134291837D01*
X111189799Y-134256114D01*
X111188873Y-134254511D01*
X111154631Y-134195202D01*
X111130489Y-134153387D01*
X111046613Y-134069511D01*
X110943886Y-134010201D01*
X110829309Y-133979500D01*
X110710691Y-133979500D01*
X110596114Y-134010201D01*
X110596112Y-134010201D01*
X110596112Y-134010202D01*
X110493387Y-134069511D01*
X110493384Y-134069513D01*
X110409513Y-134153384D01*
X110409511Y-134153387D01*
X110351127Y-134254511D01*
X110350201Y-134256114D01*
X110319500Y-134370691D01*
X110319500Y-134489309D01*
X110350201Y-134603886D01*
X110409511Y-134706613D01*
X110493387Y-134790489D01*
X110596114Y-134849799D01*
X110710691Y-134880500D01*
X110710694Y-134880500D01*
X110829306Y-134880500D01*
X110829309Y-134880500D01*
X110943886Y-134849799D01*
X111046613Y-134790489D01*
X111081297Y-134755804D01*
X111142617Y-134722320D01*
X111212309Y-134727304D01*
X111268243Y-134769174D01*
X111290594Y-134819294D01*
X111316247Y-134948261D01*
X111316249Y-134948267D01*
X111369535Y-135076912D01*
X111369540Y-135076921D01*
X111446897Y-135192693D01*
X111446900Y-135192697D01*
X111545355Y-135291152D01*
X111545365Y-135291160D01*
X111643925Y-135357016D01*
X111688731Y-135410628D01*
X111697438Y-135479953D01*
X111667284Y-135542980D01*
X111643927Y-135563219D01*
X111577745Y-135607441D01*
X111577739Y-135607446D01*
X111486359Y-135698826D01*
X111486356Y-135698830D01*
X111414557Y-135806284D01*
X111414550Y-135806296D01*
X111365096Y-135925691D01*
X111363799Y-135929969D01*
X111325499Y-135988406D01*
X111261685Y-136016859D01*
X111192619Y-136006296D01*
X111140227Y-135960069D01*
X111137754Y-135955970D01*
X111136619Y-135954004D01*
X111130489Y-135943387D01*
X111046613Y-135859511D01*
X110943886Y-135800201D01*
X110829309Y-135769500D01*
X110710691Y-135769500D01*
X110596114Y-135800201D01*
X110596112Y-135800201D01*
X110596112Y-135800202D01*
X110493387Y-135859511D01*
X110493384Y-135859513D01*
X110409513Y-135943384D01*
X110409511Y-135943387D01*
X110367092Y-136016859D01*
X110350201Y-136046114D01*
X110319500Y-136160691D01*
X110319500Y-136279309D01*
X110350201Y-136393886D01*
X110409511Y-136496613D01*
X110493387Y-136580489D01*
X110596114Y-136639799D01*
X110710691Y-136670500D01*
X110710694Y-136670500D01*
X110829306Y-136670500D01*
X110829309Y-136670500D01*
X110943886Y-136639799D01*
X111046613Y-136580489D01*
X111130489Y-136496613D01*
X111186751Y-136399164D01*
X111237317Y-136350950D01*
X111305924Y-136337727D01*
X111370789Y-136363695D01*
X111408698Y-136413713D01*
X111414552Y-136427846D01*
X111414557Y-136427855D01*
X111486356Y-136535309D01*
X111486359Y-136535313D01*
X111577739Y-136626693D01*
X111577743Y-136626696D01*
X111685203Y-136698499D01*
X111685205Y-136698500D01*
X111685209Y-136698502D01*
X111756844Y-136728173D01*
X111804606Y-136747957D01*
X111931358Y-136773169D01*
X111931362Y-136773170D01*
X111931363Y-136773170D01*
X112060604Y-136773170D01*
X112060605Y-136773169D01*
X112187360Y-136747957D01*
X112306763Y-136698499D01*
X112414223Y-136626696D01*
X112505609Y-136535310D01*
X112577412Y-136427850D01*
X112626870Y-136308447D01*
X112652083Y-136181690D01*
X112652083Y-136052450D01*
X112651500Y-136049518D01*
X112651500Y-136049516D01*
X112633791Y-135960488D01*
X112626870Y-135925693D01*
X112599862Y-135860489D01*
X112577415Y-135806296D01*
X112577413Y-135806292D01*
X112577412Y-135806290D01*
X112505609Y-135698830D01*
X112505606Y-135698826D01*
X112414226Y-135607446D01*
X112348038Y-135563220D01*
X112303234Y-135509607D01*
X112294527Y-135440282D01*
X112324682Y-135377255D01*
X112348035Y-135357019D01*
X112446605Y-135291157D01*
X112446607Y-135291155D01*
X112446611Y-135291152D01*
X112545065Y-135192697D01*
X112545068Y-135192694D01*
X112622429Y-135076915D01*
X112660939Y-134983943D01*
X112704780Y-134929540D01*
X112771074Y-134907475D01*
X112838773Y-134924754D01*
X112886384Y-134975891D01*
X112899500Y-135031396D01*
X112899500Y-137740440D01*
X112879815Y-137807479D01*
X112869568Y-137816357D01*
X112897328Y-137870595D01*
X112899500Y-137893703D01*
X112899500Y-138902746D01*
X112879815Y-138969785D01*
X112827011Y-139015540D01*
X112757853Y-139025484D01*
X112694297Y-138996459D01*
X112660939Y-138950199D01*
X112622430Y-138857230D01*
X112622425Y-138857221D01*
X112545068Y-138741449D01*
X112545065Y-138741445D01*
X112446608Y-138642988D01*
X112446604Y-138642985D01*
X112348038Y-138577125D01*
X112303233Y-138523513D01*
X112294526Y-138454188D01*
X112324681Y-138391160D01*
X112348033Y-138370924D01*
X112414223Y-138326698D01*
X112505609Y-138235312D01*
X112577412Y-138127852D01*
X112626870Y-138008449D01*
X112652083Y-137881692D01*
X112652083Y-137881684D01*
X112652097Y-137881552D01*
X112652125Y-137881481D01*
X112653272Y-137875717D01*
X112654365Y-137875934D01*
X112678256Y-137816764D01*
X112681600Y-137814397D01*
X112656523Y-137775375D01*
X112652097Y-137752593D01*
X112652083Y-137752457D01*
X112652083Y-137752452D01*
X112626870Y-137625695D01*
X112607086Y-137577933D01*
X112577415Y-137506298D01*
X112577413Y-137506294D01*
X112577412Y-137506292D01*
X112505609Y-137398832D01*
X112505606Y-137398828D01*
X112414226Y-137307448D01*
X112414222Y-137307445D01*
X112306768Y-137235646D01*
X112306756Y-137235639D01*
X112187363Y-137186186D01*
X112187361Y-137186185D01*
X112187360Y-137186185D01*
X112187355Y-137186184D01*
X112187351Y-137186183D01*
X112060607Y-137160972D01*
X112060603Y-137160972D01*
X111931363Y-137160972D01*
X111931358Y-137160972D01*
X111804614Y-137186183D01*
X111804602Y-137186186D01*
X111685209Y-137235639D01*
X111685197Y-137235646D01*
X111577743Y-137307445D01*
X111577739Y-137307448D01*
X111486359Y-137398828D01*
X111486356Y-137398832D01*
X111414557Y-137506286D01*
X111414550Y-137506298D01*
X111365097Y-137625691D01*
X111365094Y-137625703D01*
X111339883Y-137752447D01*
X111339883Y-137881696D01*
X111365094Y-138008440D01*
X111365097Y-138008452D01*
X111414550Y-138127845D01*
X111414557Y-138127857D01*
X111486356Y-138235311D01*
X111486359Y-138235315D01*
X111577742Y-138326698D01*
X111638688Y-138367420D01*
X111643925Y-138370920D01*
X111643927Y-138370921D01*
X111688732Y-138424533D01*
X111697439Y-138493858D01*
X111667285Y-138556885D01*
X111643927Y-138577125D01*
X111545361Y-138642985D01*
X111545357Y-138642988D01*
X111446900Y-138741445D01*
X111446897Y-138741449D01*
X111369540Y-138857221D01*
X111369535Y-138857230D01*
X111316249Y-138985875D01*
X111316247Y-138985881D01*
X111293509Y-139100192D01*
X111261124Y-139162103D01*
X111200408Y-139196677D01*
X111171892Y-139200000D01*
X102861004Y-139200000D01*
X102793965Y-139180315D01*
X102748210Y-139127511D01*
X102738266Y-139058353D01*
X102741226Y-139043917D01*
X102750500Y-139009309D01*
X102750500Y-138890691D01*
X102719799Y-138776114D01*
X102660489Y-138673387D01*
X102576613Y-138589511D01*
X102473886Y-138530201D01*
X102359309Y-138499500D01*
X102240691Y-138499500D01*
X102126114Y-138530201D01*
X102126112Y-138530201D01*
X102126112Y-138530202D01*
X102023387Y-138589511D01*
X102023384Y-138589513D01*
X101939513Y-138673384D01*
X101939511Y-138673387D01*
X101880201Y-138776114D01*
X101849500Y-138890691D01*
X101849500Y-139009309D01*
X101858770Y-139043908D01*
X101857108Y-139113756D01*
X101817946Y-139171619D01*
X101753717Y-139199123D01*
X101738996Y-139200000D01*
X94300000Y-139200000D01*
X94300000Y-143676000D01*
X94280315Y-143743039D01*
X94227511Y-143788794D01*
X94176000Y-143800000D01*
X93260416Y-143800000D01*
X93193377Y-143780315D01*
X93162765Y-143752422D01*
X93102956Y-143676000D01*
X89365217Y-138900000D01*
X78024500Y-138900000D01*
X77957461Y-138880315D01*
X77911706Y-138827511D01*
X77900500Y-138776000D01*
X77900500Y-136520691D01*
X83849500Y-136520691D01*
X83849500Y-136639309D01*
X83880201Y-136753886D01*
X83939511Y-136856613D01*
X84023387Y-136940489D01*
X84126114Y-136999799D01*
X84240691Y-137030500D01*
X84240694Y-137030500D01*
X84359306Y-137030500D01*
X84359309Y-137030500D01*
X84473886Y-136999799D01*
X84576613Y-136940489D01*
X84660489Y-136856613D01*
X84719799Y-136753886D01*
X84750500Y-136639309D01*
X84750500Y-136520691D01*
X84719799Y-136406114D01*
X84660489Y-136303387D01*
X84576613Y-136219511D01*
X84473886Y-136160201D01*
X84359309Y-136129500D01*
X84240691Y-136129500D01*
X84126114Y-136160201D01*
X84126112Y-136160201D01*
X84126112Y-136160202D01*
X84023387Y-136219511D01*
X84023384Y-136219513D01*
X83939513Y-136303384D01*
X83939511Y-136303387D01*
X83880201Y-136406114D01*
X83849500Y-136520691D01*
X77900500Y-136520691D01*
X77900500Y-135540691D01*
X82899500Y-135540691D01*
X82899500Y-135659309D01*
X82930201Y-135773886D01*
X82989511Y-135876613D01*
X83073387Y-135960489D01*
X83176114Y-136019799D01*
X83290691Y-136050500D01*
X83290694Y-136050500D01*
X83409306Y-136050500D01*
X83409309Y-136050500D01*
X83523886Y-136019799D01*
X83626613Y-135960489D01*
X83710489Y-135876613D01*
X83769799Y-135773886D01*
X83800500Y-135659309D01*
X83800500Y-135540691D01*
X83773705Y-135440691D01*
X96739500Y-135440691D01*
X96739500Y-135559309D01*
X96770201Y-135673886D01*
X96829511Y-135776613D01*
X96913387Y-135860489D01*
X97016114Y-135919799D01*
X97130691Y-135950500D01*
X97130694Y-135950500D01*
X97249306Y-135950500D01*
X97249309Y-135950500D01*
X97363886Y-135919799D01*
X97466613Y-135860489D01*
X97550489Y-135776613D01*
X97609799Y-135673886D01*
X97640500Y-135559309D01*
X97640500Y-135460691D01*
X103629500Y-135460691D01*
X103629500Y-135579309D01*
X103660201Y-135693886D01*
X103719511Y-135796613D01*
X103803387Y-135880489D01*
X103906114Y-135939799D01*
X104020691Y-135970500D01*
X104020694Y-135970500D01*
X104139306Y-135970500D01*
X104139309Y-135970500D01*
X104253886Y-135939799D01*
X104356613Y-135880489D01*
X104440489Y-135796613D01*
X104499799Y-135693886D01*
X104530500Y-135579309D01*
X104530500Y-135460691D01*
X104499799Y-135346114D01*
X104440489Y-135243387D01*
X104356613Y-135159511D01*
X104253886Y-135100201D01*
X104139309Y-135069500D01*
X104020691Y-135069500D01*
X103906114Y-135100201D01*
X103906112Y-135100201D01*
X103906112Y-135100202D01*
X103803387Y-135159511D01*
X103803384Y-135159513D01*
X103719513Y-135243384D01*
X103719511Y-135243387D01*
X103673323Y-135323387D01*
X103660201Y-135346114D01*
X103629500Y-135460691D01*
X97640500Y-135460691D01*
X97640500Y-135440691D01*
X97609799Y-135326114D01*
X97550489Y-135223387D01*
X97466613Y-135139511D01*
X97363886Y-135080201D01*
X97249309Y-135049500D01*
X97130691Y-135049500D01*
X97016114Y-135080201D01*
X97016112Y-135080201D01*
X97016112Y-135080202D01*
X96913387Y-135139511D01*
X96913384Y-135139513D01*
X96829513Y-135223384D01*
X96829511Y-135223387D01*
X96790387Y-135291152D01*
X96770201Y-135326114D01*
X96739500Y-135440691D01*
X83773705Y-135440691D01*
X83769799Y-135426114D01*
X83710489Y-135323387D01*
X83626613Y-135239511D01*
X83523886Y-135180201D01*
X83471247Y-135166096D01*
X83471245Y-135166095D01*
X83424827Y-135153658D01*
X83409309Y-135149500D01*
X83290691Y-135149500D01*
X83176114Y-135180201D01*
X83176112Y-135180201D01*
X83176112Y-135180202D01*
X83073387Y-135239511D01*
X83073384Y-135239513D01*
X82989513Y-135323384D01*
X82989511Y-135323387D01*
X82930201Y-135426114D01*
X82899500Y-135540691D01*
X77900500Y-135540691D01*
X77900500Y-134555691D01*
X83444500Y-134555691D01*
X83444500Y-134674309D01*
X83475201Y-134788886D01*
X83534511Y-134891613D01*
X83618387Y-134975489D01*
X83721114Y-135034799D01*
X83835691Y-135065500D01*
X83835694Y-135065500D01*
X83954306Y-135065500D01*
X83954309Y-135065500D01*
X84068886Y-135034799D01*
X84171613Y-134975489D01*
X84255489Y-134891613D01*
X84314799Y-134788886D01*
X84319674Y-134770691D01*
X90999500Y-134770691D01*
X90999500Y-134889309D01*
X91030201Y-135003886D01*
X91089511Y-135106613D01*
X91173387Y-135190489D01*
X91276114Y-135249799D01*
X91390691Y-135280500D01*
X91390694Y-135280500D01*
X91509306Y-135280500D01*
X91509309Y-135280500D01*
X91623886Y-135249799D01*
X91726613Y-135190489D01*
X91810489Y-135106613D01*
X91869799Y-135003886D01*
X91900500Y-134889309D01*
X91900500Y-134770691D01*
X91869799Y-134656114D01*
X91810489Y-134553387D01*
X91726613Y-134469511D01*
X91623886Y-134410201D01*
X91509309Y-134379500D01*
X91390691Y-134379500D01*
X91276114Y-134410201D01*
X91276112Y-134410201D01*
X91276112Y-134410202D01*
X91173387Y-134469511D01*
X91173384Y-134469513D01*
X91089513Y-134553384D01*
X91089511Y-134553387D01*
X91033449Y-134650489D01*
X91030201Y-134656114D01*
X90999500Y-134770691D01*
X84319674Y-134770691D01*
X84345500Y-134674309D01*
X84345500Y-134555691D01*
X84314799Y-134441114D01*
X84255489Y-134338387D01*
X84171613Y-134254511D01*
X84113036Y-134220691D01*
X95719500Y-134220691D01*
X95719500Y-134339309D01*
X95750201Y-134453886D01*
X95809511Y-134556613D01*
X95893387Y-134640489D01*
X95996114Y-134699799D01*
X96110691Y-134730500D01*
X96110694Y-134730500D01*
X96229306Y-134730500D01*
X96229309Y-134730500D01*
X96343886Y-134699799D01*
X96446613Y-134640489D01*
X96530489Y-134556613D01*
X96589799Y-134453886D01*
X96620500Y-134339309D01*
X96620500Y-134230691D01*
X104699500Y-134230691D01*
X104699500Y-134349309D01*
X104730201Y-134463886D01*
X104789511Y-134566613D01*
X104873387Y-134650489D01*
X104976114Y-134709799D01*
X105090691Y-134740500D01*
X105090694Y-134740500D01*
X105209306Y-134740500D01*
X105209309Y-134740500D01*
X105323886Y-134709799D01*
X105426613Y-134650489D01*
X105510489Y-134566613D01*
X105569799Y-134463886D01*
X105600500Y-134349309D01*
X105600500Y-134230691D01*
X105569799Y-134116114D01*
X105510489Y-134013387D01*
X105426613Y-133929511D01*
X105323886Y-133870201D01*
X105209309Y-133839500D01*
X105090691Y-133839500D01*
X104976114Y-133870201D01*
X104976112Y-133870201D01*
X104976112Y-133870202D01*
X104873387Y-133929511D01*
X104873384Y-133929513D01*
X104789513Y-134013384D01*
X104789511Y-134013387D01*
X104735975Y-134106114D01*
X104730201Y-134116114D01*
X104699500Y-134230691D01*
X96620500Y-134230691D01*
X96620500Y-134220691D01*
X96589799Y-134106114D01*
X96530489Y-134003387D01*
X96446613Y-133919511D01*
X96343886Y-133860201D01*
X96229309Y-133829500D01*
X96110691Y-133829500D01*
X95996114Y-133860201D01*
X95996112Y-133860201D01*
X95996112Y-133860202D01*
X95893387Y-133919511D01*
X95893384Y-133919513D01*
X95809513Y-134003384D01*
X95809511Y-134003387D01*
X95750201Y-134106114D01*
X95719500Y-134220691D01*
X84113036Y-134220691D01*
X84068886Y-134195201D01*
X83954309Y-134164500D01*
X83835691Y-134164500D01*
X83721114Y-134195201D01*
X83721112Y-134195201D01*
X83721112Y-134195202D01*
X83618387Y-134254511D01*
X83618384Y-134254513D01*
X83534513Y-134338384D01*
X83534511Y-134338387D01*
X83494764Y-134407231D01*
X83475201Y-134441114D01*
X83444500Y-134555691D01*
X77900500Y-134555691D01*
X77900500Y-133330691D01*
X82339500Y-133330691D01*
X82339500Y-133449309D01*
X82370201Y-133563886D01*
X82429511Y-133666613D01*
X82513387Y-133750489D01*
X82616114Y-133809799D01*
X82730691Y-133840500D01*
X82730694Y-133840500D01*
X82849306Y-133840500D01*
X82849309Y-133840500D01*
X82963886Y-133809799D01*
X83066613Y-133750489D01*
X83150489Y-133666613D01*
X83209799Y-133563886D01*
X83240500Y-133449309D01*
X83240500Y-133360691D01*
X92069500Y-133360691D01*
X92069500Y-133479309D01*
X92100201Y-133593886D01*
X92159511Y-133696613D01*
X92243387Y-133780489D01*
X92346114Y-133839799D01*
X92460691Y-133870500D01*
X92460694Y-133870500D01*
X92579306Y-133870500D01*
X92579309Y-133870500D01*
X92693886Y-133839799D01*
X92796613Y-133780489D01*
X92880489Y-133696613D01*
X92939799Y-133593886D01*
X92970500Y-133479309D01*
X92970500Y-133360691D01*
X92939799Y-133246114D01*
X92880489Y-133143387D01*
X92796613Y-133059511D01*
X92693886Y-133000201D01*
X92579309Y-132969500D01*
X92460691Y-132969500D01*
X92346114Y-133000201D01*
X92346112Y-133000201D01*
X92346112Y-133000202D01*
X92243387Y-133059511D01*
X92243384Y-133059513D01*
X92159513Y-133143384D01*
X92159511Y-133143387D01*
X92100201Y-133246114D01*
X92069500Y-133360691D01*
X83240500Y-133360691D01*
X83240500Y-133330691D01*
X83209799Y-133216114D01*
X83150489Y-133113387D01*
X83066613Y-133029511D01*
X82963886Y-132970201D01*
X82849309Y-132939500D01*
X82730691Y-132939500D01*
X82616114Y-132970201D01*
X82616112Y-132970201D01*
X82616112Y-132970202D01*
X82513387Y-133029511D01*
X82513384Y-133029513D01*
X82429513Y-133113384D01*
X82429511Y-133113387D01*
X82414547Y-133139306D01*
X82370201Y-133216114D01*
X82339500Y-133330691D01*
X77900500Y-133330691D01*
X77900500Y-132150691D01*
X83444500Y-132150691D01*
X83444500Y-132269309D01*
X83475201Y-132383886D01*
X83534511Y-132486613D01*
X83618387Y-132570489D01*
X83721114Y-132629799D01*
X83835691Y-132660500D01*
X83835694Y-132660500D01*
X83954306Y-132660500D01*
X83954309Y-132660500D01*
X84068886Y-132629799D01*
X84171613Y-132570489D01*
X84191411Y-132550691D01*
X94799500Y-132550691D01*
X94799500Y-132669309D01*
X94830201Y-132783886D01*
X94889511Y-132886613D01*
X94973387Y-132970489D01*
X95076114Y-133029799D01*
X95190691Y-133060500D01*
X95190694Y-133060500D01*
X95309306Y-133060500D01*
X95309309Y-133060500D01*
X95423886Y-133029799D01*
X95439661Y-133020691D01*
X96749500Y-133020691D01*
X96749500Y-133139309D01*
X96780201Y-133253886D01*
X96839511Y-133356613D01*
X96923387Y-133440489D01*
X97026114Y-133499799D01*
X97140691Y-133530500D01*
X97140694Y-133530500D01*
X97259306Y-133530500D01*
X97259309Y-133530500D01*
X97373886Y-133499799D01*
X97476613Y-133440489D01*
X97560489Y-133356613D01*
X97619799Y-133253886D01*
X97650500Y-133139309D01*
X97650500Y-133020691D01*
X97642461Y-132990691D01*
X103649500Y-132990691D01*
X103649500Y-133109309D01*
X103680201Y-133223886D01*
X103739511Y-133326613D01*
X103823387Y-133410489D01*
X103926114Y-133469799D01*
X104040691Y-133500500D01*
X104040694Y-133500500D01*
X104159306Y-133500500D01*
X104159309Y-133500500D01*
X104273886Y-133469799D01*
X104376613Y-133410489D01*
X104460489Y-133326613D01*
X104519799Y-133223886D01*
X104550500Y-133109309D01*
X104550500Y-132990691D01*
X104519799Y-132876114D01*
X104460489Y-132773387D01*
X104376613Y-132689511D01*
X104273886Y-132630201D01*
X104159309Y-132599500D01*
X104040691Y-132599500D01*
X103926114Y-132630201D01*
X103926112Y-132630201D01*
X103926112Y-132630202D01*
X103823387Y-132689511D01*
X103823384Y-132689513D01*
X103739513Y-132773384D01*
X103739511Y-132773387D01*
X103680201Y-132876114D01*
X103649500Y-132990691D01*
X97642461Y-132990691D01*
X97619799Y-132906114D01*
X97560489Y-132803387D01*
X97476613Y-132719511D01*
X97373886Y-132660201D01*
X97259309Y-132629500D01*
X97140691Y-132629500D01*
X97026114Y-132660201D01*
X97026112Y-132660201D01*
X97026112Y-132660202D01*
X96923387Y-132719511D01*
X96923384Y-132719513D01*
X96839513Y-132803384D01*
X96839511Y-132803387D01*
X96791461Y-132886612D01*
X96780201Y-132906114D01*
X96749500Y-133020691D01*
X95439661Y-133020691D01*
X95526613Y-132970489D01*
X95610489Y-132886613D01*
X95669799Y-132783886D01*
X95700500Y-132669309D01*
X95700500Y-132550691D01*
X95669799Y-132436114D01*
X95610489Y-132333387D01*
X95526613Y-132249511D01*
X95423886Y-132190201D01*
X95309309Y-132159500D01*
X95190691Y-132159500D01*
X95076114Y-132190201D01*
X95076112Y-132190201D01*
X95076112Y-132190202D01*
X94973387Y-132249511D01*
X94973384Y-132249513D01*
X94889513Y-132333384D01*
X94889511Y-132333387D01*
X94860355Y-132383887D01*
X94830201Y-132436114D01*
X94799500Y-132550691D01*
X84191411Y-132550691D01*
X84255489Y-132486613D01*
X84314799Y-132383886D01*
X84345500Y-132269309D01*
X84345500Y-132150691D01*
X84314799Y-132036114D01*
X84255489Y-131933387D01*
X84242793Y-131920691D01*
X90999500Y-131920691D01*
X90999500Y-132039309D01*
X91030201Y-132153886D01*
X91089511Y-132256613D01*
X91173387Y-132340489D01*
X91276114Y-132399799D01*
X91390691Y-132430500D01*
X91390694Y-132430500D01*
X91509306Y-132430500D01*
X91509309Y-132430500D01*
X91623886Y-132399799D01*
X91726613Y-132340489D01*
X91810489Y-132256613D01*
X91869799Y-132153886D01*
X91900500Y-132039309D01*
X91900500Y-131920691D01*
X91869799Y-131806114D01*
X91810489Y-131703387D01*
X91726613Y-131619511D01*
X91623886Y-131560201D01*
X91509309Y-131529500D01*
X91390691Y-131529500D01*
X91276114Y-131560201D01*
X91276112Y-131560201D01*
X91276112Y-131560202D01*
X91173387Y-131619511D01*
X91173384Y-131619513D01*
X91089513Y-131703384D01*
X91089511Y-131703387D01*
X91030201Y-131806114D01*
X90999500Y-131920691D01*
X84242793Y-131920691D01*
X84171613Y-131849511D01*
X84068886Y-131790201D01*
X83954309Y-131759500D01*
X83835691Y-131759500D01*
X83721114Y-131790201D01*
X83721112Y-131790201D01*
X83721112Y-131790202D01*
X83618387Y-131849511D01*
X83618384Y-131849513D01*
X83534513Y-131933384D01*
X83534511Y-131933387D01*
X83475201Y-132036114D01*
X83444500Y-132150691D01*
X77900500Y-132150691D01*
X77900500Y-130290691D01*
X99619500Y-130290691D01*
X99619500Y-130409309D01*
X99650201Y-130523886D01*
X99709511Y-130626613D01*
X99793387Y-130710489D01*
X99896114Y-130769799D01*
X100010691Y-130800500D01*
X100010694Y-130800500D01*
X100129306Y-130800500D01*
X100129309Y-130800500D01*
X100243886Y-130769799D01*
X100346613Y-130710489D01*
X100430489Y-130626613D01*
X100489799Y-130523886D01*
X100520500Y-130409309D01*
X100520500Y-130290691D01*
X100489799Y-130176114D01*
X100430489Y-130073387D01*
X100346613Y-129989511D01*
X100243886Y-129930201D01*
X100129309Y-129899500D01*
X100010691Y-129899500D01*
X99896114Y-129930201D01*
X99896112Y-129930201D01*
X99896112Y-129930202D01*
X99793387Y-129989511D01*
X99793384Y-129989513D01*
X99709513Y-130073384D01*
X99709511Y-130073387D01*
X99650201Y-130176114D01*
X99619500Y-130290691D01*
X77900500Y-130290691D01*
X77900500Y-129540691D01*
X97119500Y-129540691D01*
X97119500Y-129659309D01*
X97150201Y-129773886D01*
X97209511Y-129876613D01*
X97293387Y-129960489D01*
X97396114Y-130019799D01*
X97510691Y-130050500D01*
X97510694Y-130050500D01*
X97629306Y-130050500D01*
X97629309Y-130050500D01*
X97743886Y-130019799D01*
X97846613Y-129960489D01*
X97930489Y-129876613D01*
X97989799Y-129773886D01*
X98020500Y-129659309D01*
X98020500Y-129540691D01*
X97989799Y-129426114D01*
X97930489Y-129323387D01*
X97875755Y-129268653D01*
X97842270Y-129207330D01*
X97847254Y-129137638D01*
X97889126Y-129081705D01*
X97931340Y-129061198D01*
X97973886Y-129049799D01*
X98076613Y-128990489D01*
X98160489Y-128906613D01*
X98219799Y-128803886D01*
X98250500Y-128689309D01*
X98250500Y-128570691D01*
X98247820Y-128560691D01*
X99629500Y-128560691D01*
X99629500Y-128679309D01*
X99660201Y-128793886D01*
X99719511Y-128896613D01*
X99803387Y-128980489D01*
X99906114Y-129039799D01*
X100020691Y-129070500D01*
X100020694Y-129070500D01*
X100139306Y-129070500D01*
X100139309Y-129070500D01*
X100253886Y-129039799D01*
X100356613Y-128980489D01*
X100440489Y-128896613D01*
X100478047Y-128831561D01*
X104135417Y-128831561D01*
X104135417Y-128950179D01*
X104166118Y-129064756D01*
X104225428Y-129167483D01*
X104309304Y-129251359D01*
X104412031Y-129310669D01*
X104526608Y-129341370D01*
X104526611Y-129341370D01*
X104645223Y-129341370D01*
X104645226Y-129341370D01*
X104759803Y-129310669D01*
X104862530Y-129251359D01*
X104946406Y-129167483D01*
X105005716Y-129064756D01*
X105036417Y-128950179D01*
X105036417Y-128831561D01*
X105005716Y-128716984D01*
X104946406Y-128614257D01*
X104862530Y-128530381D01*
X104759803Y-128471071D01*
X104645226Y-128440370D01*
X104526608Y-128440370D01*
X104412031Y-128471071D01*
X104412029Y-128471071D01*
X104412029Y-128471072D01*
X104309304Y-128530381D01*
X104309301Y-128530383D01*
X104225430Y-128614254D01*
X104225428Y-128614257D01*
X104166118Y-128716984D01*
X104135417Y-128831561D01*
X100478047Y-128831561D01*
X100499799Y-128793886D01*
X100530500Y-128679309D01*
X100530500Y-128560691D01*
X100499799Y-128446114D01*
X100440489Y-128343387D01*
X100356613Y-128259511D01*
X100253886Y-128200201D01*
X100139309Y-128169500D01*
X100020691Y-128169500D01*
X99906114Y-128200201D01*
X99906112Y-128200201D01*
X99906112Y-128200202D01*
X99803387Y-128259511D01*
X99803384Y-128259513D01*
X99719513Y-128343384D01*
X99719511Y-128343387D01*
X99660201Y-128446114D01*
X99629500Y-128560691D01*
X98247820Y-128560691D01*
X98219799Y-128456114D01*
X98160489Y-128353387D01*
X98076613Y-128269511D01*
X97973886Y-128210201D01*
X97859309Y-128179500D01*
X97740691Y-128179500D01*
X97626114Y-128210201D01*
X97626112Y-128210201D01*
X97626112Y-128210202D01*
X97523387Y-128269511D01*
X97523384Y-128269513D01*
X97439513Y-128353384D01*
X97439511Y-128353387D01*
X97385975Y-128446114D01*
X97380201Y-128456114D01*
X97349500Y-128570691D01*
X97349500Y-128689309D01*
X97380201Y-128803886D01*
X97439511Y-128906613D01*
X97439513Y-128906615D01*
X97494244Y-128961346D01*
X97527729Y-129022669D01*
X97522745Y-129092361D01*
X97480873Y-129148294D01*
X97438658Y-129168801D01*
X97396114Y-129180201D01*
X97396112Y-129180201D01*
X97396112Y-129180202D01*
X97293387Y-129239511D01*
X97293384Y-129239513D01*
X97209513Y-129323384D01*
X97209511Y-129323387D01*
X97150201Y-129426114D01*
X97119500Y-129540691D01*
X77900500Y-129540691D01*
X77900500Y-128805044D01*
X85753177Y-128805044D01*
X85753177Y-128923662D01*
X85783878Y-129038239D01*
X85843188Y-129140966D01*
X85927064Y-129224842D01*
X86029791Y-129284152D01*
X86144368Y-129314853D01*
X86144371Y-129314853D01*
X86262983Y-129314853D01*
X86262986Y-129314853D01*
X86377563Y-129284152D01*
X86480290Y-129224842D01*
X86564166Y-129140966D01*
X86623476Y-129038239D01*
X86654177Y-128923662D01*
X86654177Y-128805044D01*
X86623476Y-128690467D01*
X86564166Y-128587740D01*
X86480290Y-128503864D01*
X86377563Y-128444554D01*
X86262986Y-128413853D01*
X86144368Y-128413853D01*
X86029791Y-128444554D01*
X86029789Y-128444554D01*
X86029789Y-128444555D01*
X85927064Y-128503864D01*
X85927061Y-128503866D01*
X85843190Y-128587737D01*
X85843188Y-128587740D01*
X85784547Y-128689309D01*
X85783878Y-128690467D01*
X85753177Y-128805044D01*
X77900500Y-128805044D01*
X77900500Y-127700691D01*
X83349500Y-127700691D01*
X83349500Y-127819309D01*
X83380201Y-127933886D01*
X83439511Y-128036613D01*
X83523387Y-128120489D01*
X83626114Y-128179799D01*
X83740691Y-128210500D01*
X83740694Y-128210500D01*
X83859306Y-128210500D01*
X83859309Y-128210500D01*
X83973886Y-128179799D01*
X84076613Y-128120489D01*
X84160489Y-128036613D01*
X84219799Y-127933886D01*
X84250500Y-127819309D01*
X84250500Y-127700691D01*
X84219799Y-127586114D01*
X84219797Y-127586110D01*
X84205088Y-127560633D01*
X84205085Y-127560629D01*
X84170480Y-127500691D01*
X95109500Y-127500691D01*
X95109500Y-127619309D01*
X95140201Y-127733886D01*
X95199511Y-127836613D01*
X95283387Y-127920489D01*
X95386114Y-127979799D01*
X95500691Y-128010500D01*
X95500694Y-128010500D01*
X95619306Y-128010500D01*
X95619309Y-128010500D01*
X95733886Y-127979799D01*
X95836613Y-127920489D01*
X95920489Y-127836613D01*
X95979799Y-127733886D01*
X96010500Y-127619309D01*
X96010500Y-127500691D01*
X95979799Y-127386114D01*
X95920489Y-127283387D01*
X95836613Y-127199511D01*
X95733886Y-127140201D01*
X95619309Y-127109500D01*
X95500691Y-127109500D01*
X95386114Y-127140201D01*
X95386112Y-127140201D01*
X95386112Y-127140202D01*
X95283387Y-127199511D01*
X95283384Y-127199513D01*
X95199513Y-127283384D01*
X95199511Y-127283387D01*
X95144449Y-127378757D01*
X95140201Y-127386114D01*
X95109500Y-127500691D01*
X84170480Y-127500691D01*
X84160489Y-127483387D01*
X84112598Y-127435496D01*
X84107102Y-127428060D01*
X84098143Y-127403585D01*
X84085655Y-127380715D01*
X84085794Y-127378757D01*
X84084272Y-127379326D01*
X84015999Y-127364474D01*
X84013426Y-127363029D01*
X83973889Y-127340202D01*
X83973890Y-127340202D01*
X83964494Y-127337684D01*
X83859309Y-127309500D01*
X83740691Y-127309500D01*
X83626114Y-127340201D01*
X83626112Y-127340201D01*
X83626112Y-127340202D01*
X83523387Y-127399511D01*
X83523384Y-127399513D01*
X83439513Y-127483384D01*
X83439511Y-127483387D01*
X83394913Y-127560633D01*
X83380201Y-127586114D01*
X83349500Y-127700691D01*
X77900500Y-127700691D01*
X77900500Y-126370691D01*
X82479500Y-126370691D01*
X82479500Y-126489309D01*
X82510201Y-126603886D01*
X82569511Y-126706613D01*
X82653387Y-126790489D01*
X82756114Y-126849799D01*
X82870691Y-126880500D01*
X82870694Y-126880500D01*
X82989306Y-126880500D01*
X82989309Y-126880500D01*
X83103886Y-126849799D01*
X83206263Y-126790691D01*
X84031748Y-126790691D01*
X84031748Y-126909309D01*
X84062449Y-127023886D01*
X84121759Y-127126613D01*
X84121761Y-127126615D01*
X84163107Y-127167961D01*
X84196592Y-127229284D01*
X84196452Y-127231241D01*
X84197975Y-127230673D01*
X84207191Y-127232678D01*
X84216422Y-127230729D01*
X84240785Y-127239985D01*
X84266248Y-127245525D01*
X84268799Y-127246957D01*
X84308362Y-127269799D01*
X84422939Y-127300500D01*
X84422942Y-127300500D01*
X84541554Y-127300500D01*
X84541557Y-127300500D01*
X84656134Y-127269799D01*
X84758861Y-127210489D01*
X84842737Y-127126613D01*
X84902047Y-127023886D01*
X84932748Y-126909309D01*
X84932748Y-126790691D01*
X84902047Y-126676114D01*
X84842737Y-126573387D01*
X84758861Y-126489511D01*
X84656134Y-126430201D01*
X84541557Y-126399500D01*
X84422939Y-126399500D01*
X84308362Y-126430201D01*
X84308360Y-126430201D01*
X84308360Y-126430202D01*
X84205635Y-126489511D01*
X84205632Y-126489513D01*
X84121761Y-126573384D01*
X84121759Y-126573387D01*
X84062449Y-126676114D01*
X84031748Y-126790691D01*
X83206263Y-126790691D01*
X83206613Y-126790489D01*
X83290489Y-126706613D01*
X83349799Y-126603886D01*
X83380500Y-126489309D01*
X83380500Y-126370691D01*
X83361743Y-126300691D01*
X87519500Y-126300691D01*
X87519500Y-126419309D01*
X87550201Y-126533886D01*
X87609511Y-126636613D01*
X87693387Y-126720489D01*
X87796114Y-126779799D01*
X87910691Y-126810500D01*
X87910694Y-126810500D01*
X88029306Y-126810500D01*
X88029309Y-126810500D01*
X88143886Y-126779799D01*
X88246613Y-126720489D01*
X88330489Y-126636613D01*
X88389799Y-126533886D01*
X88420500Y-126419309D01*
X88420500Y-126300691D01*
X88412461Y-126270691D01*
X89089500Y-126270691D01*
X89089500Y-126389309D01*
X89120201Y-126503886D01*
X89179511Y-126606613D01*
X89263387Y-126690489D01*
X89366114Y-126749799D01*
X89480691Y-126780500D01*
X89480694Y-126780500D01*
X89599306Y-126780500D01*
X89599309Y-126780500D01*
X89713886Y-126749799D01*
X89816613Y-126690489D01*
X89900489Y-126606613D01*
X89959799Y-126503886D01*
X89990500Y-126389309D01*
X89990500Y-126270691D01*
X92199500Y-126270691D01*
X92199500Y-126389309D01*
X92230201Y-126503886D01*
X92289511Y-126606613D01*
X92373387Y-126690489D01*
X92476114Y-126749799D01*
X92590691Y-126780500D01*
X92590694Y-126780500D01*
X92709306Y-126780500D01*
X92709309Y-126780500D01*
X92823886Y-126749799D01*
X92926613Y-126690489D01*
X93010489Y-126606613D01*
X93013908Y-126600691D01*
X97349500Y-126600691D01*
X97349500Y-126719309D01*
X97380201Y-126833886D01*
X97439511Y-126936613D01*
X97523387Y-127020489D01*
X97626114Y-127079799D01*
X97740691Y-127110500D01*
X97740694Y-127110500D01*
X97859306Y-127110500D01*
X97859309Y-127110500D01*
X97973886Y-127079799D01*
X98076613Y-127020489D01*
X98160489Y-126936613D01*
X98219799Y-126833886D01*
X98250500Y-126719309D01*
X98250500Y-126600691D01*
X98243911Y-126576100D01*
X99469964Y-126576100D01*
X99469964Y-126694718D01*
X99500665Y-126809295D01*
X99559975Y-126912022D01*
X99643851Y-126995898D01*
X99746578Y-127055208D01*
X99861155Y-127085909D01*
X99861158Y-127085909D01*
X99979770Y-127085909D01*
X99979773Y-127085909D01*
X100094350Y-127055208D01*
X100197077Y-126995898D01*
X100280953Y-126912022D01*
X100340263Y-126809295D01*
X100347244Y-126783243D01*
X105835907Y-126783243D01*
X105835907Y-126901861D01*
X105866608Y-127016438D01*
X105925918Y-127119165D01*
X106009794Y-127203041D01*
X106112521Y-127262351D01*
X106227098Y-127293052D01*
X106227101Y-127293052D01*
X106345713Y-127293052D01*
X106345716Y-127293052D01*
X106460293Y-127262351D01*
X106563020Y-127203041D01*
X106646896Y-127119165D01*
X106706206Y-127016438D01*
X106736907Y-126901861D01*
X106736907Y-126783243D01*
X106706206Y-126668666D01*
X106646896Y-126565939D01*
X106563020Y-126482063D01*
X106460293Y-126422753D01*
X106345716Y-126392052D01*
X106227098Y-126392052D01*
X106112521Y-126422753D01*
X106112519Y-126422753D01*
X106112519Y-126422754D01*
X106009794Y-126482063D01*
X106009791Y-126482065D01*
X105925920Y-126565936D01*
X105925918Y-126565939D01*
X105885115Y-126636612D01*
X105866608Y-126668666D01*
X105835907Y-126783243D01*
X100347244Y-126783243D01*
X100370964Y-126694718D01*
X100370964Y-126576100D01*
X100340263Y-126461523D01*
X100280953Y-126358796D01*
X100197077Y-126274920D01*
X100172432Y-126260691D01*
X102349500Y-126260691D01*
X102349500Y-126379309D01*
X102380201Y-126493886D01*
X102439511Y-126596613D01*
X102523387Y-126680489D01*
X102626114Y-126739799D01*
X102740691Y-126770500D01*
X102740694Y-126770500D01*
X102859306Y-126770500D01*
X102859309Y-126770500D01*
X102973886Y-126739799D01*
X103076613Y-126680489D01*
X103160489Y-126596613D01*
X103219799Y-126493886D01*
X103250500Y-126379309D01*
X103250500Y-126260691D01*
X103219799Y-126146114D01*
X103160489Y-126043387D01*
X103076613Y-125959511D01*
X102973886Y-125900201D01*
X102859309Y-125869500D01*
X102740691Y-125869500D01*
X102626114Y-125900201D01*
X102626112Y-125900201D01*
X102626112Y-125900202D01*
X102523387Y-125959511D01*
X102523384Y-125959513D01*
X102439513Y-126043384D01*
X102439511Y-126043387D01*
X102416419Y-126083384D01*
X102380201Y-126146114D01*
X102349500Y-126260691D01*
X100172432Y-126260691D01*
X100094350Y-126215610D01*
X99979773Y-126184909D01*
X99861155Y-126184909D01*
X99746578Y-126215610D01*
X99746576Y-126215610D01*
X99746576Y-126215611D01*
X99643851Y-126274920D01*
X99643848Y-126274922D01*
X99559977Y-126358793D01*
X99559975Y-126358796D01*
X99500665Y-126461523D01*
X99469964Y-126576100D01*
X98243911Y-126576100D01*
X98219799Y-126486114D01*
X98160489Y-126383387D01*
X98076613Y-126299511D01*
X97973886Y-126240201D01*
X97859309Y-126209500D01*
X97740691Y-126209500D01*
X97626114Y-126240201D01*
X97626112Y-126240201D01*
X97626112Y-126240202D01*
X97523387Y-126299511D01*
X97523384Y-126299513D01*
X97439513Y-126383384D01*
X97439511Y-126383387D01*
X97380201Y-126486114D01*
X97349500Y-126600691D01*
X93013908Y-126600691D01*
X93069799Y-126503886D01*
X93100500Y-126389309D01*
X93100500Y-126270691D01*
X93069799Y-126156114D01*
X93010489Y-126053387D01*
X92926613Y-125969511D01*
X92823886Y-125910201D01*
X92709309Y-125879500D01*
X92590691Y-125879500D01*
X92476114Y-125910201D01*
X92476112Y-125910201D01*
X92476112Y-125910202D01*
X92373387Y-125969511D01*
X92373384Y-125969513D01*
X92289513Y-126053384D01*
X92289511Y-126053387D01*
X92235975Y-126146114D01*
X92230201Y-126156114D01*
X92199500Y-126270691D01*
X89990500Y-126270691D01*
X89959799Y-126156114D01*
X89900489Y-126053387D01*
X89816613Y-125969511D01*
X89713886Y-125910201D01*
X89599309Y-125879500D01*
X89480691Y-125879500D01*
X89366114Y-125910201D01*
X89366112Y-125910201D01*
X89366112Y-125910202D01*
X89263387Y-125969511D01*
X89263384Y-125969513D01*
X89179513Y-126053384D01*
X89179511Y-126053387D01*
X89125975Y-126146114D01*
X89120201Y-126156114D01*
X89089500Y-126270691D01*
X88412461Y-126270691D01*
X88389799Y-126186114D01*
X88330489Y-126083387D01*
X88246613Y-125999511D01*
X88143886Y-125940201D01*
X88029309Y-125909500D01*
X87910691Y-125909500D01*
X87796114Y-125940201D01*
X87796112Y-125940201D01*
X87796112Y-125940202D01*
X87693387Y-125999511D01*
X87693384Y-125999513D01*
X87609513Y-126083384D01*
X87609511Y-126083387D01*
X87550201Y-126186114D01*
X87519500Y-126300691D01*
X83361743Y-126300691D01*
X83349799Y-126256114D01*
X83290489Y-126153387D01*
X83206613Y-126069511D01*
X83103886Y-126010201D01*
X82989309Y-125979500D01*
X82870691Y-125979500D01*
X82756114Y-126010201D01*
X82756112Y-126010201D01*
X82756112Y-126010202D01*
X82653387Y-126069511D01*
X82653384Y-126069513D01*
X82569513Y-126153384D01*
X82569511Y-126153387D01*
X82510201Y-126256114D01*
X82479500Y-126370691D01*
X77900500Y-126370691D01*
X77900500Y-125320691D01*
X81549500Y-125320691D01*
X81549500Y-125439309D01*
X81580201Y-125553886D01*
X81639511Y-125656613D01*
X81723387Y-125740489D01*
X81826114Y-125799799D01*
X81940691Y-125830500D01*
X81940694Y-125830500D01*
X82059306Y-125830500D01*
X82059309Y-125830500D01*
X82173886Y-125799799D01*
X82276613Y-125740489D01*
X82360489Y-125656613D01*
X82419799Y-125553886D01*
X82450500Y-125439309D01*
X82450500Y-125320691D01*
X82419799Y-125206114D01*
X82360489Y-125103387D01*
X82276613Y-125019511D01*
X82173886Y-124960201D01*
X82059309Y-124929500D01*
X81940691Y-124929500D01*
X81826114Y-124960201D01*
X81826112Y-124960201D01*
X81826112Y-124960202D01*
X81723387Y-125019511D01*
X81723384Y-125019513D01*
X81639513Y-125103384D01*
X81639511Y-125103387D01*
X81580201Y-125206114D01*
X81549500Y-125320691D01*
X77900500Y-125320691D01*
X77900500Y-124790691D01*
X104149500Y-124790691D01*
X104149500Y-124909309D01*
X104180201Y-125023886D01*
X104239511Y-125126613D01*
X104323387Y-125210489D01*
X104426114Y-125269799D01*
X104540691Y-125300500D01*
X104540694Y-125300500D01*
X104659306Y-125300500D01*
X104659309Y-125300500D01*
X104773886Y-125269799D01*
X104876613Y-125210489D01*
X104960489Y-125126613D01*
X105019799Y-125023886D01*
X105050500Y-124909309D01*
X105050500Y-124790691D01*
X105019799Y-124676114D01*
X104960489Y-124573387D01*
X104876613Y-124489511D01*
X104773886Y-124430201D01*
X104659309Y-124399500D01*
X104540691Y-124399500D01*
X104426114Y-124430201D01*
X104426112Y-124430201D01*
X104426112Y-124430202D01*
X104323387Y-124489511D01*
X104323384Y-124489513D01*
X104239513Y-124573384D01*
X104239511Y-124573387D01*
X104180201Y-124676114D01*
X104149500Y-124790691D01*
X77900500Y-124790691D01*
X77900500Y-121803205D01*
X81657900Y-121803205D01*
X81657900Y-122360000D01*
X82306979Y-122360000D01*
X82270189Y-122423723D01*
X82237300Y-122546465D01*
X82237300Y-122673535D01*
X82270189Y-122796277D01*
X82306979Y-122860000D01*
X81657901Y-122860000D01*
X81657901Y-123416785D01*
X81657902Y-123416808D01*
X81660808Y-123441869D01*
X81660809Y-123441873D01*
X81706111Y-123544474D01*
X81706114Y-123544479D01*
X81785420Y-123623785D01*
X81785425Y-123623788D01*
X81888023Y-123669089D01*
X81913106Y-123671999D01*
X82469899Y-123671999D01*
X82469900Y-123671998D01*
X82469900Y-123022920D01*
X82533623Y-123059711D01*
X82656365Y-123092600D01*
X82783435Y-123092600D01*
X82906177Y-123059711D01*
X82969900Y-123022920D01*
X82969900Y-123671999D01*
X83526686Y-123671999D01*
X83526708Y-123671997D01*
X83537971Y-123670691D01*
X87249500Y-123670691D01*
X87249500Y-123789309D01*
X87280201Y-123903886D01*
X87339511Y-124006613D01*
X87423387Y-124090489D01*
X87526114Y-124149799D01*
X87640691Y-124180500D01*
X87640694Y-124180500D01*
X87759306Y-124180500D01*
X87759309Y-124180500D01*
X87873886Y-124149799D01*
X87976613Y-124090489D01*
X88060489Y-124006613D01*
X88119799Y-123903886D01*
X88150500Y-123789309D01*
X88150500Y-123670691D01*
X88119799Y-123556114D01*
X88082027Y-123490691D01*
X88959500Y-123490691D01*
X88959500Y-123609309D01*
X88990201Y-123723886D01*
X89049511Y-123826613D01*
X89133387Y-123910489D01*
X89236114Y-123969799D01*
X89350691Y-124000500D01*
X89350694Y-124000500D01*
X89469306Y-124000500D01*
X89469309Y-124000500D01*
X89583886Y-123969799D01*
X89686613Y-123910489D01*
X89770489Y-123826613D01*
X89829799Y-123723886D01*
X89860500Y-123609309D01*
X89860500Y-123530691D01*
X92199500Y-123530691D01*
X92199500Y-123649309D01*
X92230201Y-123763886D01*
X92289511Y-123866613D01*
X92373387Y-123950489D01*
X92476114Y-124009799D01*
X92590691Y-124040500D01*
X92590694Y-124040500D01*
X92709306Y-124040500D01*
X92709309Y-124040500D01*
X92823886Y-124009799D01*
X92926613Y-123950489D01*
X93010489Y-123866613D01*
X93069799Y-123763886D01*
X93100500Y-123649309D01*
X93100500Y-123580691D01*
X98069500Y-123580691D01*
X98069500Y-123699309D01*
X98100201Y-123813886D01*
X98159511Y-123916613D01*
X98243387Y-124000489D01*
X98346114Y-124059799D01*
X98460691Y-124090500D01*
X98460694Y-124090500D01*
X98579306Y-124090500D01*
X98579309Y-124090500D01*
X98693886Y-124059799D01*
X98796613Y-124000489D01*
X98852320Y-123944781D01*
X98913639Y-123911299D01*
X98983331Y-123916283D01*
X99027679Y-123944784D01*
X99053384Y-123970489D01*
X99156111Y-124029799D01*
X99270688Y-124060500D01*
X99270691Y-124060500D01*
X99389303Y-124060500D01*
X99389306Y-124060500D01*
X99503883Y-124029799D01*
X99606610Y-123970489D01*
X99617318Y-123959780D01*
X99678636Y-123926297D01*
X99748328Y-123931279D01*
X99792679Y-123959781D01*
X99803387Y-123970489D01*
X99906114Y-124029799D01*
X100020691Y-124060500D01*
X100020694Y-124060500D01*
X100139306Y-124060500D01*
X100139309Y-124060500D01*
X100253886Y-124029799D01*
X100356613Y-123970489D01*
X100440489Y-123886613D01*
X100449174Y-123871570D01*
X102811232Y-123871570D01*
X102811232Y-123990188D01*
X102841933Y-124104765D01*
X102901243Y-124207492D01*
X102985119Y-124291368D01*
X103087846Y-124350678D01*
X103202423Y-124381379D01*
X103202426Y-124381379D01*
X103321038Y-124381379D01*
X103321041Y-124381379D01*
X103435618Y-124350678D01*
X103538345Y-124291368D01*
X103622221Y-124207492D01*
X103681531Y-124104765D01*
X103712232Y-123990188D01*
X103712232Y-123871570D01*
X103681531Y-123756993D01*
X103622221Y-123654266D01*
X103538345Y-123570390D01*
X103435618Y-123511080D01*
X103321041Y-123480379D01*
X103202423Y-123480379D01*
X103087846Y-123511080D01*
X103087844Y-123511080D01*
X103087844Y-123511081D01*
X102985119Y-123570390D01*
X102985116Y-123570392D01*
X102901245Y-123654263D01*
X102901243Y-123654266D01*
X102861048Y-123723886D01*
X102841933Y-123756993D01*
X102811232Y-123871570D01*
X100449174Y-123871570D01*
X100499799Y-123783886D01*
X100530500Y-123669309D01*
X100530500Y-123550691D01*
X100499799Y-123436114D01*
X100440489Y-123333387D01*
X100356613Y-123249511D01*
X100253886Y-123190201D01*
X100139309Y-123159500D01*
X100020691Y-123159500D01*
X99906114Y-123190201D01*
X99906112Y-123190201D01*
X99906112Y-123190202D01*
X99803387Y-123249511D01*
X99803386Y-123249511D01*
X99792677Y-123260221D01*
X99731352Y-123293704D01*
X99661661Y-123288717D01*
X99617317Y-123260218D01*
X99606612Y-123249513D01*
X99606610Y-123249511D01*
X99503883Y-123190201D01*
X99389306Y-123159500D01*
X99270688Y-123159500D01*
X99156111Y-123190201D01*
X99156109Y-123190201D01*
X99156109Y-123190202D01*
X99053384Y-123249511D01*
X98997679Y-123305216D01*
X98936355Y-123338700D01*
X98866663Y-123333715D01*
X98822317Y-123305215D01*
X98796615Y-123279513D01*
X98796613Y-123279511D01*
X98693886Y-123220201D01*
X98579309Y-123189500D01*
X98460691Y-123189500D01*
X98346114Y-123220201D01*
X98346112Y-123220201D01*
X98346112Y-123220202D01*
X98243387Y-123279511D01*
X98243384Y-123279513D01*
X98159513Y-123363384D01*
X98159511Y-123363387D01*
X98114196Y-123441875D01*
X98100201Y-123466114D01*
X98069500Y-123580691D01*
X93100500Y-123580691D01*
X93100500Y-123530691D01*
X93069799Y-123416114D01*
X93010489Y-123313387D01*
X92926613Y-123229511D01*
X92823886Y-123170201D01*
X92719901Y-123142338D01*
X92716352Y-123141387D01*
X92709309Y-123139500D01*
X92590691Y-123139500D01*
X92476114Y-123170201D01*
X92476112Y-123170201D01*
X92476112Y-123170202D01*
X92373387Y-123229511D01*
X92373384Y-123229513D01*
X92289513Y-123313384D01*
X92289511Y-123313387D01*
X92258780Y-123366615D01*
X92230201Y-123416114D01*
X92199500Y-123530691D01*
X89860500Y-123530691D01*
X89860500Y-123490691D01*
X89829799Y-123376114D01*
X89770489Y-123273387D01*
X89686613Y-123189511D01*
X89583886Y-123130201D01*
X89469309Y-123099500D01*
X89350691Y-123099500D01*
X89236114Y-123130201D01*
X89236112Y-123130201D01*
X89236112Y-123130202D01*
X89133387Y-123189511D01*
X89133384Y-123189513D01*
X89049513Y-123273384D01*
X89049511Y-123273387D01*
X89026419Y-123313384D01*
X88990201Y-123376114D01*
X88959500Y-123490691D01*
X88082027Y-123490691D01*
X88060489Y-123453387D01*
X87976613Y-123369511D01*
X87873886Y-123310201D01*
X87759309Y-123279500D01*
X87640691Y-123279500D01*
X87526114Y-123310201D01*
X87526112Y-123310201D01*
X87526112Y-123310202D01*
X87423387Y-123369511D01*
X87423384Y-123369513D01*
X87339513Y-123453384D01*
X87339511Y-123453387D01*
X87286919Y-123544479D01*
X87280201Y-123556114D01*
X87249500Y-123670691D01*
X83537971Y-123670691D01*
X83551769Y-123669091D01*
X83551773Y-123669090D01*
X83654374Y-123623788D01*
X83654379Y-123623785D01*
X83703282Y-123574883D01*
X83733685Y-123544479D01*
X83733688Y-123544474D01*
X83778989Y-123441877D01*
X83778989Y-123441875D01*
X83781899Y-123416794D01*
X83781900Y-123416791D01*
X83781900Y-123030691D01*
X95909500Y-123030691D01*
X95909500Y-123149309D01*
X95940201Y-123263886D01*
X95999511Y-123366613D01*
X96083387Y-123450489D01*
X96186114Y-123509799D01*
X96300691Y-123540500D01*
X96300694Y-123540500D01*
X96419306Y-123540500D01*
X96419309Y-123540500D01*
X96533886Y-123509799D01*
X96636613Y-123450489D01*
X96720489Y-123366613D01*
X96779799Y-123263886D01*
X96810500Y-123149309D01*
X96810500Y-123030691D01*
X96779799Y-122916114D01*
X96720489Y-122813387D01*
X96636613Y-122729511D01*
X96533886Y-122670201D01*
X96419309Y-122639500D01*
X96300691Y-122639500D01*
X96186114Y-122670201D01*
X96186112Y-122670201D01*
X96186112Y-122670202D01*
X96083387Y-122729511D01*
X96083384Y-122729513D01*
X95999513Y-122813384D01*
X95999511Y-122813387D01*
X95940201Y-122916114D01*
X95909500Y-123030691D01*
X83781900Y-123030691D01*
X83781900Y-122860000D01*
X83132821Y-122860000D01*
X83169611Y-122796277D01*
X83202500Y-122673535D01*
X83202500Y-122546465D01*
X83169611Y-122423723D01*
X83132821Y-122360000D01*
X83781899Y-122360000D01*
X83781899Y-122110691D01*
X98679500Y-122110691D01*
X98679500Y-122229309D01*
X98710201Y-122343886D01*
X98769511Y-122446613D01*
X98853387Y-122530489D01*
X98956114Y-122589799D01*
X99070691Y-122620500D01*
X99070694Y-122620500D01*
X99189306Y-122620500D01*
X99189309Y-122620500D01*
X99303886Y-122589799D01*
X99406613Y-122530489D01*
X99490489Y-122446613D01*
X99549799Y-122343886D01*
X99580500Y-122229309D01*
X99580500Y-122150691D01*
X101709500Y-122150691D01*
X101709500Y-122269309D01*
X101740201Y-122383886D01*
X101799511Y-122486613D01*
X101883387Y-122570489D01*
X101986114Y-122629799D01*
X102100691Y-122660500D01*
X102100694Y-122660500D01*
X102219306Y-122660500D01*
X102219309Y-122660500D01*
X102333886Y-122629799D01*
X102436613Y-122570489D01*
X102520489Y-122486613D01*
X102579799Y-122383886D01*
X102610500Y-122269309D01*
X102610500Y-122150691D01*
X102579799Y-122036114D01*
X102579797Y-122036110D01*
X102578903Y-122034561D01*
X102547800Y-121980691D01*
X103189500Y-121980691D01*
X103189500Y-122099309D01*
X103220201Y-122213886D01*
X103279511Y-122316613D01*
X103363387Y-122400489D01*
X103466114Y-122459799D01*
X103580691Y-122490500D01*
X103580694Y-122490500D01*
X103699306Y-122490500D01*
X103699309Y-122490500D01*
X103813886Y-122459799D01*
X103916613Y-122400489D01*
X104000489Y-122316613D01*
X104059799Y-122213886D01*
X104090500Y-122099309D01*
X104090500Y-121980691D01*
X104059799Y-121866114D01*
X104023478Y-121803205D01*
X107057900Y-121803205D01*
X107057900Y-122360000D01*
X107706979Y-122360000D01*
X107670189Y-122423723D01*
X107637300Y-122546465D01*
X107637300Y-122673535D01*
X107670189Y-122796277D01*
X107706979Y-122860000D01*
X107057901Y-122860000D01*
X107057901Y-123416785D01*
X107057902Y-123416808D01*
X107060808Y-123441869D01*
X107060809Y-123441873D01*
X107106111Y-123544474D01*
X107106114Y-123544479D01*
X107185420Y-123623785D01*
X107185425Y-123623788D01*
X107288023Y-123669089D01*
X107313106Y-123671999D01*
X107869899Y-123671999D01*
X107869900Y-123671998D01*
X107869900Y-123022920D01*
X107933623Y-123059711D01*
X108056365Y-123092600D01*
X108183435Y-123092600D01*
X108306177Y-123059711D01*
X108369900Y-123022920D01*
X108369900Y-123671999D01*
X108926686Y-123671999D01*
X108926708Y-123671997D01*
X108951769Y-123669091D01*
X108951773Y-123669090D01*
X109054374Y-123623788D01*
X109054379Y-123623785D01*
X109133685Y-123544479D01*
X109133688Y-123544474D01*
X109178989Y-123441877D01*
X109178989Y-123441875D01*
X109181899Y-123416794D01*
X109181900Y-123416791D01*
X109181900Y-122860000D01*
X108532821Y-122860000D01*
X108569611Y-122796277D01*
X108602500Y-122673535D01*
X108602500Y-122546465D01*
X108569611Y-122423723D01*
X108532821Y-122360000D01*
X109181899Y-122360000D01*
X109181899Y-121803214D01*
X109181897Y-121803191D01*
X109178991Y-121778130D01*
X109178990Y-121778126D01*
X109133688Y-121675525D01*
X109133685Y-121675520D01*
X109054379Y-121596214D01*
X109054374Y-121596211D01*
X108951776Y-121550910D01*
X108926694Y-121548000D01*
X108369900Y-121548000D01*
X108369900Y-122197079D01*
X108306177Y-122160289D01*
X108183435Y-122127400D01*
X108056365Y-122127400D01*
X107933623Y-122160289D01*
X107869900Y-122197079D01*
X107869900Y-121548000D01*
X107313114Y-121548000D01*
X107313091Y-121548002D01*
X107288030Y-121550908D01*
X107288026Y-121550909D01*
X107185425Y-121596211D01*
X107185420Y-121596214D01*
X107106114Y-121675520D01*
X107106111Y-121675525D01*
X107060810Y-121778122D01*
X107060810Y-121778124D01*
X107057900Y-121803205D01*
X104023478Y-121803205D01*
X104000489Y-121763387D01*
X103916613Y-121679511D01*
X103813886Y-121620201D01*
X103699309Y-121589500D01*
X103580691Y-121589500D01*
X103466114Y-121620201D01*
X103466112Y-121620201D01*
X103466112Y-121620202D01*
X103363387Y-121679511D01*
X103363384Y-121679513D01*
X103279513Y-121763384D01*
X103279511Y-121763387D01*
X103244582Y-121823886D01*
X103220201Y-121866114D01*
X103189500Y-121980691D01*
X102547800Y-121980691D01*
X102520489Y-121933387D01*
X102436613Y-121849511D01*
X102333886Y-121790201D01*
X102219309Y-121759500D01*
X102100691Y-121759500D01*
X101986114Y-121790201D01*
X101986112Y-121790201D01*
X101986112Y-121790202D01*
X101883387Y-121849511D01*
X101883384Y-121849513D01*
X101799513Y-121933384D01*
X101799511Y-121933387D01*
X101741098Y-122034561D01*
X101740201Y-122036114D01*
X101709500Y-122150691D01*
X99580500Y-122150691D01*
X99580500Y-122110691D01*
X99549799Y-121996114D01*
X99490489Y-121893387D01*
X99406613Y-121809511D01*
X99303886Y-121750201D01*
X99189309Y-121719500D01*
X99070691Y-121719500D01*
X98956114Y-121750201D01*
X98956112Y-121750201D01*
X98956112Y-121750202D01*
X98853387Y-121809511D01*
X98853384Y-121809513D01*
X98769513Y-121893384D01*
X98769511Y-121893387D01*
X98719106Y-121980691D01*
X98710201Y-121996114D01*
X98679500Y-122110691D01*
X83781899Y-122110691D01*
X83781899Y-121803214D01*
X83781897Y-121803191D01*
X83778991Y-121778130D01*
X83778990Y-121778126D01*
X83733688Y-121675525D01*
X83733685Y-121675520D01*
X83654379Y-121596214D01*
X83654374Y-121596211D01*
X83641872Y-121590691D01*
X84909500Y-121590691D01*
X84909500Y-121709309D01*
X84940201Y-121823886D01*
X84999511Y-121926613D01*
X85083387Y-122010489D01*
X85186114Y-122069799D01*
X85300691Y-122100500D01*
X85300694Y-122100500D01*
X85419306Y-122100500D01*
X85419309Y-122100500D01*
X85533886Y-122069799D01*
X85636613Y-122010489D01*
X85720489Y-121926613D01*
X85779799Y-121823886D01*
X85810500Y-121709309D01*
X85810500Y-121590691D01*
X85779799Y-121476114D01*
X85720489Y-121373387D01*
X85636613Y-121289511D01*
X85533886Y-121230201D01*
X85461074Y-121210691D01*
X87969500Y-121210691D01*
X87969500Y-121329309D01*
X88000201Y-121443886D01*
X88059511Y-121546613D01*
X88143387Y-121630489D01*
X88246114Y-121689799D01*
X88360691Y-121720500D01*
X88360694Y-121720500D01*
X88479306Y-121720500D01*
X88479309Y-121720500D01*
X88593886Y-121689799D01*
X88696613Y-121630489D01*
X88780489Y-121546613D01*
X88839799Y-121443886D01*
X88843335Y-121430691D01*
X96499500Y-121430691D01*
X96499500Y-121549309D01*
X96530201Y-121663886D01*
X96589511Y-121766613D01*
X96673387Y-121850489D01*
X96776114Y-121909799D01*
X96890691Y-121940500D01*
X96890694Y-121940500D01*
X97009306Y-121940500D01*
X97009309Y-121940500D01*
X97123886Y-121909799D01*
X97226613Y-121850489D01*
X97310489Y-121766613D01*
X97369799Y-121663886D01*
X97400500Y-121549309D01*
X97400500Y-121430691D01*
X97369799Y-121316114D01*
X97310489Y-121213387D01*
X97226613Y-121129511D01*
X97123886Y-121070201D01*
X97009309Y-121039500D01*
X96890691Y-121039500D01*
X96776114Y-121070201D01*
X96776112Y-121070201D01*
X96776112Y-121070202D01*
X96673387Y-121129511D01*
X96673384Y-121129513D01*
X96589513Y-121213384D01*
X96589511Y-121213387D01*
X96530201Y-121316114D01*
X96499500Y-121430691D01*
X88843335Y-121430691D01*
X88870500Y-121329309D01*
X88870500Y-121210691D01*
X88839799Y-121096114D01*
X88780489Y-120993387D01*
X88696613Y-120909511D01*
X88593886Y-120850201D01*
X88479309Y-120819500D01*
X88360691Y-120819500D01*
X88246114Y-120850201D01*
X88246112Y-120850201D01*
X88246112Y-120850202D01*
X88143387Y-120909511D01*
X88143384Y-120909513D01*
X88059513Y-120993384D01*
X88059511Y-120993387D01*
X88000201Y-121096114D01*
X87969500Y-121210691D01*
X85461074Y-121210691D01*
X85419309Y-121199500D01*
X85300691Y-121199500D01*
X85186114Y-121230201D01*
X85186112Y-121230201D01*
X85186112Y-121230202D01*
X85083387Y-121289511D01*
X85083384Y-121289513D01*
X84999513Y-121373384D01*
X84999511Y-121373387D01*
X84940201Y-121476114D01*
X84909500Y-121590691D01*
X83641872Y-121590691D01*
X83551776Y-121550910D01*
X83526694Y-121548000D01*
X82969900Y-121548000D01*
X82969900Y-122197079D01*
X82906177Y-122160289D01*
X82783435Y-122127400D01*
X82656365Y-122127400D01*
X82533623Y-122160289D01*
X82469900Y-122197079D01*
X82469900Y-121548000D01*
X81913114Y-121548000D01*
X81913091Y-121548002D01*
X81888030Y-121550908D01*
X81888026Y-121550909D01*
X81785425Y-121596211D01*
X81785420Y-121596214D01*
X81706114Y-121675520D01*
X81706111Y-121675525D01*
X81660810Y-121778122D01*
X81660810Y-121778124D01*
X81657900Y-121803205D01*
X77900500Y-121803205D01*
X77900500Y-120154951D01*
X81857399Y-120154951D01*
X81890544Y-120321576D01*
X81890546Y-120321582D01*
X81955561Y-120478544D01*
X81955566Y-120478553D01*
X82049952Y-120619811D01*
X82049955Y-120619815D01*
X82170084Y-120739944D01*
X82170088Y-120739947D01*
X82311346Y-120834333D01*
X82311352Y-120834336D01*
X82311353Y-120834337D01*
X82468318Y-120899354D01*
X82468322Y-120899354D01*
X82468323Y-120899355D01*
X82634948Y-120932500D01*
X82634951Y-120932500D01*
X82804851Y-120932500D01*
X82921451Y-120909306D01*
X82971482Y-120899354D01*
X83128447Y-120834337D01*
X83269712Y-120739947D01*
X83389847Y-120619812D01*
X83484237Y-120478547D01*
X83549254Y-120321582D01*
X83555399Y-120290691D01*
X87099500Y-120290691D01*
X87099500Y-120409309D01*
X87130201Y-120523886D01*
X87189511Y-120626613D01*
X87273387Y-120710489D01*
X87376114Y-120769799D01*
X87490691Y-120800500D01*
X87490694Y-120800500D01*
X87609306Y-120800500D01*
X87609309Y-120800500D01*
X87645916Y-120790691D01*
X101959500Y-120790691D01*
X101959500Y-120909309D01*
X101990201Y-121023886D01*
X102049511Y-121126613D01*
X102133387Y-121210489D01*
X102236114Y-121269799D01*
X102350691Y-121300500D01*
X102350694Y-121300500D01*
X102469306Y-121300500D01*
X102469309Y-121300500D01*
X102583886Y-121269799D01*
X102686613Y-121210489D01*
X102770489Y-121126613D01*
X102829799Y-121023886D01*
X102860500Y-120909309D01*
X102860500Y-120790691D01*
X102829799Y-120676114D01*
X102770489Y-120573387D01*
X102686613Y-120489511D01*
X102583886Y-120430201D01*
X102469309Y-120399500D01*
X102350691Y-120399500D01*
X102236114Y-120430201D01*
X102236112Y-120430201D01*
X102236112Y-120430202D01*
X102133387Y-120489511D01*
X102133384Y-120489513D01*
X102049513Y-120573384D01*
X102049511Y-120573387D01*
X102018780Y-120626615D01*
X101990201Y-120676114D01*
X101959500Y-120790691D01*
X87645916Y-120790691D01*
X87723886Y-120769799D01*
X87826613Y-120710489D01*
X87910489Y-120626613D01*
X87969799Y-120523886D01*
X88000500Y-120409309D01*
X88000500Y-120290691D01*
X87969799Y-120176114D01*
X87957580Y-120154951D01*
X107257399Y-120154951D01*
X107290544Y-120321576D01*
X107290546Y-120321582D01*
X107355561Y-120478544D01*
X107355566Y-120478553D01*
X107449952Y-120619811D01*
X107449955Y-120619815D01*
X107570084Y-120739944D01*
X107570088Y-120739947D01*
X107711346Y-120834333D01*
X107711352Y-120834336D01*
X107711353Y-120834337D01*
X107868318Y-120899354D01*
X107868322Y-120899354D01*
X107868323Y-120899355D01*
X108034948Y-120932500D01*
X108034951Y-120932500D01*
X108204851Y-120932500D01*
X108321451Y-120909306D01*
X108371482Y-120899354D01*
X108528447Y-120834337D01*
X108669712Y-120739947D01*
X108789847Y-120619812D01*
X108884237Y-120478547D01*
X108949254Y-120321582D01*
X108961544Y-120259797D01*
X108982400Y-120154951D01*
X108982400Y-119985048D01*
X108949255Y-119818423D01*
X108949254Y-119818422D01*
X108949254Y-119818418D01*
X108886167Y-119666112D01*
X108884238Y-119661455D01*
X108884233Y-119661446D01*
X108789847Y-119520188D01*
X108789844Y-119520184D01*
X108669715Y-119400055D01*
X108669711Y-119400052D01*
X108528453Y-119305666D01*
X108528444Y-119305661D01*
X108371482Y-119240646D01*
X108371476Y-119240644D01*
X108204851Y-119207500D01*
X108204849Y-119207500D01*
X108034951Y-119207500D01*
X108034949Y-119207500D01*
X107868323Y-119240644D01*
X107868317Y-119240646D01*
X107711355Y-119305661D01*
X107711346Y-119305666D01*
X107570088Y-119400052D01*
X107570084Y-119400055D01*
X107449955Y-119520184D01*
X107449952Y-119520188D01*
X107355566Y-119661446D01*
X107355561Y-119661455D01*
X107290546Y-119818417D01*
X107290544Y-119818423D01*
X107257400Y-119985048D01*
X107257400Y-119985051D01*
X107257400Y-120154949D01*
X107257400Y-120154951D01*
X107257399Y-120154951D01*
X87957580Y-120154951D01*
X87910489Y-120073387D01*
X87826613Y-119989511D01*
X87723886Y-119930201D01*
X87609309Y-119899500D01*
X87490691Y-119899500D01*
X87376114Y-119930201D01*
X87376112Y-119930201D01*
X87376112Y-119930202D01*
X87273387Y-119989511D01*
X87273384Y-119989513D01*
X87189513Y-120073384D01*
X87189511Y-120073387D01*
X87142420Y-120154951D01*
X87130201Y-120176114D01*
X87099500Y-120290691D01*
X83555399Y-120290691D01*
X83561544Y-120259797D01*
X83582400Y-120154951D01*
X83582400Y-119985048D01*
X83549255Y-119818423D01*
X83549254Y-119818422D01*
X83549254Y-119818418D01*
X83533627Y-119780691D01*
X84869500Y-119780691D01*
X84869500Y-119899309D01*
X84900201Y-120013886D01*
X84959511Y-120116613D01*
X85043387Y-120200489D01*
X85146114Y-120259799D01*
X85260691Y-120290500D01*
X85260694Y-120290500D01*
X85379306Y-120290500D01*
X85379309Y-120290500D01*
X85493886Y-120259799D01*
X85596613Y-120200489D01*
X85680489Y-120116613D01*
X85739799Y-120013886D01*
X85770500Y-119899309D01*
X85770500Y-119780691D01*
X85739799Y-119666114D01*
X85680489Y-119563387D01*
X85596613Y-119479511D01*
X85493886Y-119420201D01*
X85379309Y-119389500D01*
X85260691Y-119389500D01*
X85146114Y-119420201D01*
X85146112Y-119420201D01*
X85146112Y-119420202D01*
X85043387Y-119479511D01*
X85043384Y-119479513D01*
X84959513Y-119563384D01*
X84959511Y-119563387D01*
X84902889Y-119661459D01*
X84900201Y-119666114D01*
X84869500Y-119780691D01*
X83533627Y-119780691D01*
X83486167Y-119666112D01*
X83484240Y-119661459D01*
X83484233Y-119661446D01*
X83389847Y-119520188D01*
X83389844Y-119520184D01*
X83269715Y-119400055D01*
X83269711Y-119400052D01*
X83128453Y-119305666D01*
X83128444Y-119305661D01*
X82971482Y-119240646D01*
X82971476Y-119240644D01*
X82804851Y-119207500D01*
X82804849Y-119207500D01*
X82634951Y-119207500D01*
X82634949Y-119207500D01*
X82468323Y-119240644D01*
X82468317Y-119240646D01*
X82311355Y-119305661D01*
X82311346Y-119305666D01*
X82170088Y-119400052D01*
X82170084Y-119400055D01*
X82049955Y-119520184D01*
X82049952Y-119520188D01*
X81955566Y-119661446D01*
X81955561Y-119661455D01*
X81890546Y-119818417D01*
X81890544Y-119818423D01*
X81857400Y-119985048D01*
X81857400Y-119985051D01*
X81857400Y-120154949D01*
X81857400Y-120154951D01*
X81857399Y-120154951D01*
X77900500Y-120154951D01*
X77900500Y-117614951D01*
X81857399Y-117614951D01*
X81890544Y-117781576D01*
X81890546Y-117781582D01*
X81955561Y-117938544D01*
X81955566Y-117938553D01*
X82049952Y-118079811D01*
X82049955Y-118079815D01*
X82170084Y-118199944D01*
X82170088Y-118199947D01*
X82311346Y-118294333D01*
X82311352Y-118294336D01*
X82311353Y-118294337D01*
X82468318Y-118359354D01*
X82468322Y-118359354D01*
X82468323Y-118359355D01*
X82634948Y-118392500D01*
X82634951Y-118392500D01*
X82804851Y-118392500D01*
X82916952Y-118370200D01*
X82971482Y-118359354D01*
X83128447Y-118294337D01*
X83269712Y-118199947D01*
X83328968Y-118140691D01*
X83699500Y-118140691D01*
X83699500Y-118259309D01*
X83730201Y-118373886D01*
X83789511Y-118476613D01*
X83873387Y-118560489D01*
X83976114Y-118619799D01*
X84090691Y-118650500D01*
X84090694Y-118650500D01*
X84209306Y-118650500D01*
X84209309Y-118650500D01*
X84323886Y-118619799D01*
X84426613Y-118560489D01*
X84510489Y-118476613D01*
X84569799Y-118373886D01*
X84600500Y-118259309D01*
X84600500Y-118140691D01*
X84569799Y-118026114D01*
X84510489Y-117923387D01*
X84426613Y-117839511D01*
X84323886Y-117780201D01*
X84209309Y-117749500D01*
X84090691Y-117749500D01*
X83976114Y-117780201D01*
X83976112Y-117780201D01*
X83976112Y-117780202D01*
X83873387Y-117839511D01*
X83873384Y-117839513D01*
X83789513Y-117923384D01*
X83789511Y-117923387D01*
X83730201Y-118026114D01*
X83699500Y-118140691D01*
X83328968Y-118140691D01*
X83389847Y-118079812D01*
X83484237Y-117938547D01*
X83549254Y-117781582D01*
X83565383Y-117700500D01*
X83582400Y-117614951D01*
X83582400Y-117445048D01*
X83549255Y-117278423D01*
X83549254Y-117278422D01*
X83549254Y-117278418D01*
X83540222Y-117256612D01*
X83529206Y-117230016D01*
X83512917Y-117190691D01*
X92319500Y-117190691D01*
X92319500Y-117309309D01*
X92350201Y-117423886D01*
X92409511Y-117526613D01*
X92493387Y-117610489D01*
X92596114Y-117669799D01*
X92710691Y-117700500D01*
X92710694Y-117700500D01*
X92829306Y-117700500D01*
X92829309Y-117700500D01*
X92943886Y-117669799D01*
X93038885Y-117614951D01*
X107257399Y-117614951D01*
X107290544Y-117781576D01*
X107290546Y-117781582D01*
X107355561Y-117938544D01*
X107355566Y-117938553D01*
X107449952Y-118079811D01*
X107449955Y-118079815D01*
X107570084Y-118199944D01*
X107570088Y-118199947D01*
X107711346Y-118294333D01*
X107711352Y-118294336D01*
X107711353Y-118294337D01*
X107868318Y-118359354D01*
X107868322Y-118359354D01*
X107868323Y-118359355D01*
X108034948Y-118392500D01*
X108034951Y-118392500D01*
X108204851Y-118392500D01*
X108316952Y-118370200D01*
X108371482Y-118359354D01*
X108528447Y-118294337D01*
X108669712Y-118199947D01*
X108789847Y-118079812D01*
X108884237Y-117938547D01*
X108949254Y-117781582D01*
X108965383Y-117700500D01*
X108982400Y-117614951D01*
X108982400Y-117445048D01*
X108949255Y-117278423D01*
X108949254Y-117278422D01*
X108949254Y-117278418D01*
X108884237Y-117121453D01*
X108884236Y-117121452D01*
X108884233Y-117121446D01*
X108789847Y-116980188D01*
X108789844Y-116980184D01*
X108669715Y-116860055D01*
X108669711Y-116860052D01*
X108528453Y-116765666D01*
X108528444Y-116765661D01*
X108371482Y-116700646D01*
X108371476Y-116700644D01*
X108204851Y-116667500D01*
X108204849Y-116667500D01*
X108034951Y-116667500D01*
X108034949Y-116667500D01*
X107868323Y-116700644D01*
X107868317Y-116700646D01*
X107711355Y-116765661D01*
X107711346Y-116765666D01*
X107570088Y-116860052D01*
X107570084Y-116860055D01*
X107449955Y-116980184D01*
X107449952Y-116980188D01*
X107355566Y-117121446D01*
X107355561Y-117121455D01*
X107290546Y-117278417D01*
X107290544Y-117278423D01*
X107257400Y-117445048D01*
X107257400Y-117445051D01*
X107257400Y-117614949D01*
X107257400Y-117614951D01*
X107257399Y-117614951D01*
X93038885Y-117614951D01*
X93046613Y-117610489D01*
X93130489Y-117526613D01*
X93189799Y-117423886D01*
X93220500Y-117309309D01*
X93220500Y-117190691D01*
X93189799Y-117076114D01*
X93131168Y-116974564D01*
X93131168Y-116974562D01*
X93130493Y-116973393D01*
X93130490Y-116973390D01*
X93130489Y-116973387D01*
X93077793Y-116920691D01*
X94559500Y-116920691D01*
X94559500Y-117039309D01*
X94590201Y-117153886D01*
X94649511Y-117256613D01*
X94733387Y-117340489D01*
X94836114Y-117399799D01*
X94950691Y-117430500D01*
X94950694Y-117430500D01*
X95069306Y-117430500D01*
X95069309Y-117430500D01*
X95183886Y-117399799D01*
X95286613Y-117340489D01*
X95370489Y-117256613D01*
X95429799Y-117153886D01*
X95460500Y-117039309D01*
X95460500Y-116920691D01*
X95429799Y-116806114D01*
X95370489Y-116703387D01*
X95286613Y-116619511D01*
X95183886Y-116560201D01*
X95069309Y-116529500D01*
X94950691Y-116529500D01*
X94836114Y-116560201D01*
X94836112Y-116560201D01*
X94836112Y-116560202D01*
X94733387Y-116619511D01*
X94733384Y-116619513D01*
X94649513Y-116703384D01*
X94649511Y-116703387D01*
X94594020Y-116799500D01*
X94590201Y-116806114D01*
X94559500Y-116920691D01*
X93077793Y-116920691D01*
X93046613Y-116889511D01*
X92943886Y-116830201D01*
X92829309Y-116799500D01*
X92710691Y-116799500D01*
X92596114Y-116830201D01*
X92596112Y-116830201D01*
X92596112Y-116830202D01*
X92493387Y-116889511D01*
X92493384Y-116889513D01*
X92409513Y-116973384D01*
X92409511Y-116973387D01*
X92371451Y-117039309D01*
X92350201Y-117076114D01*
X92319500Y-117190691D01*
X83512917Y-117190691D01*
X83484238Y-117121456D01*
X83484238Y-117121455D01*
X83484237Y-117121453D01*
X83484235Y-117121450D01*
X83484233Y-117121446D01*
X83389847Y-116980188D01*
X83389844Y-116980184D01*
X83269715Y-116860055D01*
X83269711Y-116860052D01*
X83128453Y-116765666D01*
X83128444Y-116765661D01*
X82971482Y-116700646D01*
X82971476Y-116700644D01*
X82804851Y-116667500D01*
X82804849Y-116667500D01*
X82634951Y-116667500D01*
X82634949Y-116667500D01*
X82468323Y-116700644D01*
X82468317Y-116700646D01*
X82311355Y-116765661D01*
X82311346Y-116765666D01*
X82170088Y-116860052D01*
X82170084Y-116860055D01*
X82049955Y-116980184D01*
X82049952Y-116980188D01*
X81955566Y-117121446D01*
X81955561Y-117121455D01*
X81890546Y-117278417D01*
X81890544Y-117278423D01*
X81857400Y-117445048D01*
X81857400Y-117445051D01*
X81857400Y-117614949D01*
X81857400Y-117614951D01*
X81857399Y-117614951D01*
X77900500Y-117614951D01*
X77900500Y-116200691D01*
X93219500Y-116200691D01*
X93219500Y-116319309D01*
X93250201Y-116433886D01*
X93309511Y-116536613D01*
X93393387Y-116620489D01*
X93496114Y-116679799D01*
X93610691Y-116710500D01*
X93610694Y-116710500D01*
X93729306Y-116710500D01*
X93729309Y-116710500D01*
X93843886Y-116679799D01*
X93946613Y-116620489D01*
X94030489Y-116536613D01*
X94089799Y-116433886D01*
X94114771Y-116340691D01*
X96149500Y-116340691D01*
X96149500Y-116459309D01*
X96180201Y-116573886D01*
X96239511Y-116676613D01*
X96323387Y-116760489D01*
X96426114Y-116819799D01*
X96540691Y-116850500D01*
X96540694Y-116850500D01*
X96659306Y-116850500D01*
X96659309Y-116850500D01*
X96773886Y-116819799D01*
X96876613Y-116760489D01*
X96960489Y-116676613D01*
X97019799Y-116573886D01*
X97047450Y-116470691D01*
X99659500Y-116470691D01*
X99659500Y-116589309D01*
X99690201Y-116703886D01*
X99749511Y-116806613D01*
X99833387Y-116890489D01*
X99936114Y-116949799D01*
X100050691Y-116980500D01*
X100050694Y-116980500D01*
X100169306Y-116980500D01*
X100169309Y-116980500D01*
X100283886Y-116949799D01*
X100386613Y-116890489D01*
X100470489Y-116806613D01*
X100529799Y-116703886D01*
X100560500Y-116589309D01*
X100560500Y-116470691D01*
X100529799Y-116356114D01*
X100470489Y-116253387D01*
X100386613Y-116169511D01*
X100283886Y-116110201D01*
X100169309Y-116079500D01*
X100050691Y-116079500D01*
X99936114Y-116110201D01*
X99936112Y-116110201D01*
X99936112Y-116110202D01*
X99833387Y-116169511D01*
X99833384Y-116169513D01*
X99749513Y-116253384D01*
X99749511Y-116253387D01*
X99699106Y-116340691D01*
X99690201Y-116356114D01*
X99659500Y-116470691D01*
X97047450Y-116470691D01*
X97050500Y-116459309D01*
X97050500Y-116340691D01*
X97019799Y-116226114D01*
X96960489Y-116123387D01*
X96876613Y-116039511D01*
X96773886Y-115980201D01*
X96659309Y-115949500D01*
X96540691Y-115949500D01*
X96426114Y-115980201D01*
X96426112Y-115980201D01*
X96426112Y-115980202D01*
X96323387Y-116039511D01*
X96323384Y-116039513D01*
X96239513Y-116123384D01*
X96239511Y-116123387D01*
X96180201Y-116226114D01*
X96149500Y-116340691D01*
X94114771Y-116340691D01*
X94120500Y-116319309D01*
X94120500Y-116200691D01*
X94089799Y-116086114D01*
X94030489Y-115983387D01*
X93946613Y-115899511D01*
X93843886Y-115840201D01*
X93729309Y-115809500D01*
X93610691Y-115809500D01*
X93514643Y-115835236D01*
X93514642Y-115835236D01*
X93496114Y-115840201D01*
X93410413Y-115889680D01*
X93410388Y-115889694D01*
X93393390Y-115899508D01*
X93393384Y-115899513D01*
X93309513Y-115983384D01*
X93309511Y-115983387D01*
X93254020Y-116079500D01*
X93250201Y-116086114D01*
X93219500Y-116200691D01*
X77900500Y-116200691D01*
X77900500Y-115074951D01*
X81857399Y-115074951D01*
X81890544Y-115241576D01*
X81890546Y-115241582D01*
X81955561Y-115398544D01*
X81955566Y-115398553D01*
X82049952Y-115539811D01*
X82049955Y-115539815D01*
X82170084Y-115659944D01*
X82170088Y-115659947D01*
X82311346Y-115754333D01*
X82311352Y-115754336D01*
X82311353Y-115754337D01*
X82468318Y-115819354D01*
X82468322Y-115819354D01*
X82468323Y-115819355D01*
X82634948Y-115852500D01*
X82634951Y-115852500D01*
X82804851Y-115852500D01*
X82916952Y-115830200D01*
X82971482Y-115819354D01*
X83128447Y-115754337D01*
X83208734Y-115700691D01*
X98359500Y-115700691D01*
X98359500Y-115819309D01*
X98390201Y-115933886D01*
X98449511Y-116036613D01*
X98533387Y-116120489D01*
X98636114Y-116179799D01*
X98750691Y-116210500D01*
X98750694Y-116210500D01*
X98869306Y-116210500D01*
X98869309Y-116210500D01*
X98983886Y-116179799D01*
X99086613Y-116120489D01*
X99170489Y-116036613D01*
X99229799Y-115933886D01*
X99260500Y-115819309D01*
X99260500Y-115700691D01*
X99229799Y-115586114D01*
X99170489Y-115483387D01*
X99086613Y-115399511D01*
X98983886Y-115340201D01*
X98869309Y-115309500D01*
X98750691Y-115309500D01*
X98636114Y-115340201D01*
X98636112Y-115340201D01*
X98636112Y-115340202D01*
X98533387Y-115399511D01*
X98533384Y-115399513D01*
X98449513Y-115483384D01*
X98449511Y-115483387D01*
X98390201Y-115586114D01*
X98359500Y-115700691D01*
X83208734Y-115700691D01*
X83269712Y-115659947D01*
X83389847Y-115539812D01*
X83484237Y-115398547D01*
X83549254Y-115241582D01*
X83561366Y-115180691D01*
X92699500Y-115180691D01*
X92699500Y-115299309D01*
X92730201Y-115413886D01*
X92789511Y-115516613D01*
X92873387Y-115600489D01*
X92976114Y-115659799D01*
X93090691Y-115690500D01*
X93090694Y-115690500D01*
X93209305Y-115690500D01*
X93209309Y-115690500D01*
X93323886Y-115659799D01*
X93426613Y-115600489D01*
X93510489Y-115516613D01*
X93569799Y-115413886D01*
X93600500Y-115299309D01*
X93600500Y-115180691D01*
X95849500Y-115180691D01*
X95849500Y-115299309D01*
X95880201Y-115413886D01*
X95939511Y-115516613D01*
X96023387Y-115600489D01*
X96126114Y-115659799D01*
X96240691Y-115690500D01*
X96240694Y-115690500D01*
X96359306Y-115690500D01*
X96359309Y-115690500D01*
X96473886Y-115659799D01*
X96576613Y-115600489D01*
X96660489Y-115516613D01*
X96719799Y-115413886D01*
X96750500Y-115299309D01*
X96750500Y-115180691D01*
X96722167Y-115074951D01*
X107257399Y-115074951D01*
X107290544Y-115241576D01*
X107290546Y-115241582D01*
X107355561Y-115398544D01*
X107355566Y-115398553D01*
X107449952Y-115539811D01*
X107449955Y-115539815D01*
X107570084Y-115659944D01*
X107570088Y-115659947D01*
X107711346Y-115754333D01*
X107711352Y-115754336D01*
X107711353Y-115754337D01*
X107868318Y-115819354D01*
X107868322Y-115819354D01*
X107868323Y-115819355D01*
X108034948Y-115852500D01*
X108034951Y-115852500D01*
X108204851Y-115852500D01*
X108316952Y-115830200D01*
X108371482Y-115819354D01*
X108528447Y-115754337D01*
X108669712Y-115659947D01*
X108789847Y-115539812D01*
X108884237Y-115398547D01*
X108949254Y-115241582D01*
X108982400Y-115074949D01*
X108982400Y-114905051D01*
X108982400Y-114905048D01*
X108949255Y-114738423D01*
X108949254Y-114738422D01*
X108949254Y-114738418D01*
X108884237Y-114581453D01*
X108884236Y-114581452D01*
X108884233Y-114581446D01*
X108789847Y-114440188D01*
X108789844Y-114440184D01*
X108669715Y-114320055D01*
X108669711Y-114320052D01*
X108528453Y-114225666D01*
X108528444Y-114225661D01*
X108371482Y-114160646D01*
X108371476Y-114160644D01*
X108204851Y-114127500D01*
X108204849Y-114127500D01*
X108034951Y-114127500D01*
X108034949Y-114127500D01*
X107868323Y-114160644D01*
X107868317Y-114160646D01*
X107711355Y-114225661D01*
X107711346Y-114225666D01*
X107570088Y-114320052D01*
X107570084Y-114320055D01*
X107449955Y-114440184D01*
X107449952Y-114440188D01*
X107355566Y-114581446D01*
X107355561Y-114581455D01*
X107290546Y-114738417D01*
X107290544Y-114738423D01*
X107257400Y-114905048D01*
X107257400Y-114905051D01*
X107257400Y-115074949D01*
X107257400Y-115074951D01*
X107257399Y-115074951D01*
X96722167Y-115074951D01*
X96719799Y-115066114D01*
X96660489Y-114963387D01*
X96576613Y-114879511D01*
X96473886Y-114820201D01*
X96359309Y-114789500D01*
X96240691Y-114789500D01*
X96126114Y-114820201D01*
X96126112Y-114820201D01*
X96126112Y-114820202D01*
X96023387Y-114879511D01*
X96023384Y-114879513D01*
X95939513Y-114963384D01*
X95939512Y-114963386D01*
X95939511Y-114963387D01*
X95880201Y-115066114D01*
X95849500Y-115180691D01*
X93600500Y-115180691D01*
X93569799Y-115066114D01*
X93510489Y-114963387D01*
X93426613Y-114879511D01*
X93323886Y-114820201D01*
X93209309Y-114789500D01*
X93090691Y-114789500D01*
X92976114Y-114820201D01*
X92976112Y-114820201D01*
X92976112Y-114820202D01*
X92873387Y-114879511D01*
X92873384Y-114879513D01*
X92789513Y-114963384D01*
X92789512Y-114963386D01*
X92789511Y-114963387D01*
X92730201Y-115066114D01*
X92699500Y-115180691D01*
X83561366Y-115180691D01*
X83582400Y-115074949D01*
X83582400Y-114905051D01*
X83582400Y-114905048D01*
X83549255Y-114738423D01*
X83549254Y-114738422D01*
X83549254Y-114738418D01*
X83484237Y-114581453D01*
X83484236Y-114581452D01*
X83484233Y-114581446D01*
X83389847Y-114440188D01*
X83389844Y-114440184D01*
X83269715Y-114320055D01*
X83269711Y-114320052D01*
X83128453Y-114225666D01*
X83128444Y-114225661D01*
X82971482Y-114160646D01*
X82971476Y-114160644D01*
X82804851Y-114127500D01*
X82804849Y-114127500D01*
X82634951Y-114127500D01*
X82634949Y-114127500D01*
X82468323Y-114160644D01*
X82468317Y-114160646D01*
X82311355Y-114225661D01*
X82311346Y-114225666D01*
X82170088Y-114320052D01*
X82170084Y-114320055D01*
X82049955Y-114440184D01*
X82049952Y-114440188D01*
X81955566Y-114581446D01*
X81955561Y-114581455D01*
X81890546Y-114738417D01*
X81890544Y-114738423D01*
X81857400Y-114905048D01*
X81857400Y-114905051D01*
X81857400Y-115074949D01*
X81857400Y-115074951D01*
X81857399Y-115074951D01*
X77900500Y-115074951D01*
X77900500Y-112534951D01*
X81857399Y-112534951D01*
X81890544Y-112701576D01*
X81890546Y-112701582D01*
X81955561Y-112858544D01*
X81955566Y-112858553D01*
X82049952Y-112999811D01*
X82049955Y-112999815D01*
X82170084Y-113119944D01*
X82170088Y-113119947D01*
X82311346Y-113214333D01*
X82311352Y-113214336D01*
X82311353Y-113214337D01*
X82468318Y-113279354D01*
X82468322Y-113279354D01*
X82468323Y-113279355D01*
X82634948Y-113312500D01*
X82634951Y-113312500D01*
X82804851Y-113312500D01*
X82916952Y-113290200D01*
X82971482Y-113279354D01*
X83128447Y-113214337D01*
X83269712Y-113119947D01*
X83389847Y-112999812D01*
X83484237Y-112858547D01*
X83549254Y-112701582D01*
X83575290Y-112570693D01*
X83582400Y-112534951D01*
X83582400Y-112530691D01*
X90309500Y-112530691D01*
X90309500Y-112649309D01*
X90340201Y-112763886D01*
X90399511Y-112866613D01*
X90483387Y-112950489D01*
X90586114Y-113009799D01*
X90700691Y-113040500D01*
X90700694Y-113040500D01*
X90819306Y-113040500D01*
X90819309Y-113040500D01*
X90933886Y-113009799D01*
X91036613Y-112950489D01*
X91120489Y-112866613D01*
X91179799Y-112763886D01*
X91210500Y-112649309D01*
X91210500Y-112530691D01*
X91192245Y-112462563D01*
X91193908Y-112392717D01*
X91233070Y-112334855D01*
X91297298Y-112307350D01*
X91344112Y-112310698D01*
X91380691Y-112320500D01*
X91380693Y-112320500D01*
X91499306Y-112320500D01*
X91499309Y-112320500D01*
X91613886Y-112289799D01*
X91716613Y-112230489D01*
X91800489Y-112146613D01*
X91859799Y-112043886D01*
X91890500Y-111929309D01*
X91890500Y-111810691D01*
X91859799Y-111696114D01*
X91850894Y-111680691D01*
X98709500Y-111680691D01*
X98709500Y-111799309D01*
X98740201Y-111913886D01*
X98799511Y-112016613D01*
X98883387Y-112100489D01*
X98986114Y-112159799D01*
X99100691Y-112190500D01*
X99100694Y-112190500D01*
X99227436Y-112190500D01*
X99227436Y-112193676D01*
X99281685Y-112202109D01*
X99333963Y-112248464D01*
X99352881Y-112315724D01*
X99336276Y-112376308D01*
X99290202Y-112456110D01*
X99290201Y-112456114D01*
X99259500Y-112570691D01*
X99259500Y-112689309D01*
X99290201Y-112803886D01*
X99349511Y-112906613D01*
X99433387Y-112990489D01*
X99536114Y-113049799D01*
X99650691Y-113080500D01*
X99650694Y-113080500D01*
X99769306Y-113080500D01*
X99769309Y-113080500D01*
X99883886Y-113049799D01*
X99986613Y-112990489D01*
X100070489Y-112906613D01*
X100129799Y-112803886D01*
X100160500Y-112689309D01*
X100160500Y-112570691D01*
X100150923Y-112534951D01*
X107257399Y-112534951D01*
X107290544Y-112701576D01*
X107290546Y-112701582D01*
X107355561Y-112858544D01*
X107355566Y-112858553D01*
X107449952Y-112999811D01*
X107449955Y-112999815D01*
X107570084Y-113119944D01*
X107570088Y-113119947D01*
X107711346Y-113214333D01*
X107711352Y-113214336D01*
X107711353Y-113214337D01*
X107868318Y-113279354D01*
X107868322Y-113279354D01*
X107868323Y-113279355D01*
X108034948Y-113312500D01*
X108034951Y-113312500D01*
X108204851Y-113312500D01*
X108316952Y-113290200D01*
X108371482Y-113279354D01*
X108528447Y-113214337D01*
X108669712Y-113119947D01*
X108789847Y-112999812D01*
X108884237Y-112858547D01*
X108949254Y-112701582D01*
X108975290Y-112570693D01*
X108982400Y-112534951D01*
X108982400Y-112365048D01*
X108949255Y-112198423D01*
X108949254Y-112198422D01*
X108949254Y-112198418D01*
X108884237Y-112041453D01*
X108884236Y-112041452D01*
X108884233Y-112041446D01*
X108789847Y-111900188D01*
X108789844Y-111900184D01*
X108669715Y-111780055D01*
X108669711Y-111780052D01*
X108528453Y-111685666D01*
X108528444Y-111685661D01*
X108371482Y-111620646D01*
X108371476Y-111620644D01*
X108204851Y-111587500D01*
X108204849Y-111587500D01*
X108034951Y-111587500D01*
X108034949Y-111587500D01*
X107868323Y-111620644D01*
X107868317Y-111620646D01*
X107711355Y-111685661D01*
X107711346Y-111685666D01*
X107570088Y-111780052D01*
X107570084Y-111780055D01*
X107449955Y-111900184D01*
X107449952Y-111900188D01*
X107355566Y-112041446D01*
X107355561Y-112041455D01*
X107290546Y-112198417D01*
X107290544Y-112198423D01*
X107257400Y-112365048D01*
X107257400Y-112365051D01*
X107257400Y-112534949D01*
X107257400Y-112534951D01*
X107257399Y-112534951D01*
X100150923Y-112534951D01*
X100129799Y-112456114D01*
X100070489Y-112353387D01*
X99986613Y-112269511D01*
X99883886Y-112210201D01*
X99769309Y-112179500D01*
X99650691Y-112179500D01*
X99642564Y-112179500D01*
X99642564Y-112176338D01*
X99588228Y-112167849D01*
X99535985Y-112121454D01*
X99517119Y-112054180D01*
X99533722Y-111993692D01*
X99579799Y-111913886D01*
X99610500Y-111799309D01*
X99610500Y-111788807D01*
X99630185Y-111721768D01*
X99682989Y-111676013D01*
X99752147Y-111666069D01*
X99815703Y-111695094D01*
X99841886Y-111726805D01*
X99899511Y-111826613D01*
X99983387Y-111910489D01*
X100086114Y-111969799D01*
X100200691Y-112000500D01*
X100200694Y-112000500D01*
X100319306Y-112000500D01*
X100319309Y-112000500D01*
X100433886Y-111969799D01*
X100536613Y-111910489D01*
X100620489Y-111826613D01*
X100679799Y-111723886D01*
X100710500Y-111609309D01*
X100710500Y-111490691D01*
X100679799Y-111376114D01*
X100620489Y-111273387D01*
X100536613Y-111189511D01*
X100433886Y-111130201D01*
X100319309Y-111099500D01*
X100200691Y-111099500D01*
X100086114Y-111130201D01*
X100086112Y-111130201D01*
X100086112Y-111130202D01*
X99983387Y-111189511D01*
X99983384Y-111189513D01*
X99899513Y-111273384D01*
X99899511Y-111273387D01*
X99840201Y-111376114D01*
X99809500Y-111490691D01*
X99809500Y-111490693D01*
X99809500Y-111501192D01*
X99789815Y-111568231D01*
X99737011Y-111613986D01*
X99667853Y-111623930D01*
X99604297Y-111594905D01*
X99578114Y-111563193D01*
X99520492Y-111463393D01*
X99520489Y-111463387D01*
X99436613Y-111379511D01*
X99333886Y-111320201D01*
X99219309Y-111289500D01*
X99100691Y-111289500D01*
X98986114Y-111320201D01*
X98986112Y-111320201D01*
X98986112Y-111320202D01*
X98883387Y-111379511D01*
X98883384Y-111379513D01*
X98799513Y-111463384D01*
X98799511Y-111463387D01*
X98740201Y-111566114D01*
X98709500Y-111680691D01*
X91850894Y-111680691D01*
X91800489Y-111593387D01*
X91716613Y-111509511D01*
X91613886Y-111450201D01*
X91499309Y-111419500D01*
X91380691Y-111419500D01*
X91266114Y-111450201D01*
X91266112Y-111450201D01*
X91266112Y-111450202D01*
X91163387Y-111509511D01*
X91163384Y-111509513D01*
X91079513Y-111593384D01*
X91079511Y-111593387D01*
X91029106Y-111680691D01*
X91020201Y-111696114D01*
X90989500Y-111810691D01*
X90989500Y-111929309D01*
X91006751Y-111993690D01*
X91007754Y-111997433D01*
X91006091Y-112067283D01*
X90966928Y-112125145D01*
X90902700Y-112152649D01*
X90855886Y-112149301D01*
X90819309Y-112139500D01*
X90700691Y-112139500D01*
X90586114Y-112170201D01*
X90586112Y-112170201D01*
X90586112Y-112170202D01*
X90483387Y-112229511D01*
X90483384Y-112229513D01*
X90399513Y-112313384D01*
X90399511Y-112313387D01*
X90369683Y-112365051D01*
X90340201Y-112416114D01*
X90309500Y-112530691D01*
X83582400Y-112530691D01*
X83582400Y-112365048D01*
X83549255Y-112198423D01*
X83549254Y-112198422D01*
X83549254Y-112198418D01*
X83484237Y-112041453D01*
X83484236Y-112041452D01*
X83484233Y-112041446D01*
X83389847Y-111900188D01*
X83389844Y-111900184D01*
X83269715Y-111780055D01*
X83269711Y-111780052D01*
X83128453Y-111685666D01*
X83128444Y-111685661D01*
X82971482Y-111620646D01*
X82971476Y-111620644D01*
X82804851Y-111587500D01*
X82804849Y-111587500D01*
X82634951Y-111587500D01*
X82634949Y-111587500D01*
X82468323Y-111620644D01*
X82468317Y-111620646D01*
X82311355Y-111685661D01*
X82311346Y-111685666D01*
X82170088Y-111780052D01*
X82170084Y-111780055D01*
X82049955Y-111900184D01*
X82049952Y-111900188D01*
X81955566Y-112041446D01*
X81955561Y-112041455D01*
X81890546Y-112198417D01*
X81890544Y-112198423D01*
X81857400Y-112365048D01*
X81857400Y-112365051D01*
X81857400Y-112534949D01*
X81857400Y-112534951D01*
X81857399Y-112534951D01*
X77900500Y-112534951D01*
X77900500Y-109994951D01*
X81857399Y-109994951D01*
X81890544Y-110161576D01*
X81890546Y-110161582D01*
X81955561Y-110318544D01*
X81955566Y-110318553D01*
X82049952Y-110459811D01*
X82049955Y-110459815D01*
X82170084Y-110579944D01*
X82170088Y-110579947D01*
X82311346Y-110674333D01*
X82311352Y-110674336D01*
X82311353Y-110674337D01*
X82468318Y-110739354D01*
X82468322Y-110739354D01*
X82468323Y-110739355D01*
X82634948Y-110772500D01*
X82634951Y-110772500D01*
X82804851Y-110772500D01*
X82918972Y-110749799D01*
X82971482Y-110739354D01*
X83128447Y-110674337D01*
X83269712Y-110579947D01*
X83389847Y-110459812D01*
X83484237Y-110318547D01*
X83504060Y-110270691D01*
X95299500Y-110270691D01*
X95299500Y-110389309D01*
X95330201Y-110503886D01*
X95389511Y-110606613D01*
X95473387Y-110690489D01*
X95576114Y-110749799D01*
X95690691Y-110780500D01*
X95690694Y-110780500D01*
X95809306Y-110780500D01*
X95809309Y-110780500D01*
X95923886Y-110749799D01*
X96026613Y-110690489D01*
X96110489Y-110606613D01*
X96169799Y-110503886D01*
X96200500Y-110389309D01*
X96200500Y-110270691D01*
X96169799Y-110156114D01*
X96110489Y-110053387D01*
X96026613Y-109969511D01*
X95923886Y-109910201D01*
X95809309Y-109879500D01*
X95690691Y-109879500D01*
X95576114Y-109910201D01*
X95576112Y-109910201D01*
X95576112Y-109910202D01*
X95473387Y-109969511D01*
X95473384Y-109969513D01*
X95389513Y-110053384D01*
X95389511Y-110053387D01*
X95330201Y-110156114D01*
X95299500Y-110270691D01*
X83504060Y-110270691D01*
X83549254Y-110161582D01*
X83570776Y-110053387D01*
X83582400Y-109994951D01*
X83582400Y-109825048D01*
X83557663Y-109700691D01*
X104259500Y-109700691D01*
X104259500Y-109819309D01*
X104290201Y-109933886D01*
X104349511Y-110036613D01*
X104433387Y-110120489D01*
X104536114Y-110179799D01*
X104650691Y-110210500D01*
X104650694Y-110210500D01*
X104769306Y-110210500D01*
X104769309Y-110210500D01*
X104883886Y-110179799D01*
X104986613Y-110120489D01*
X105070489Y-110036613D01*
X105094543Y-109994951D01*
X107257399Y-109994951D01*
X107290544Y-110161576D01*
X107290546Y-110161582D01*
X107355561Y-110318544D01*
X107355566Y-110318553D01*
X107449952Y-110459811D01*
X107449955Y-110459815D01*
X107570084Y-110579944D01*
X107570088Y-110579947D01*
X107711346Y-110674333D01*
X107711352Y-110674336D01*
X107711353Y-110674337D01*
X107868318Y-110739354D01*
X107868322Y-110739354D01*
X107868323Y-110739355D01*
X108034948Y-110772500D01*
X108034951Y-110772500D01*
X108204851Y-110772500D01*
X108318972Y-110749799D01*
X108371482Y-110739354D01*
X108528447Y-110674337D01*
X108669712Y-110579947D01*
X108789847Y-110459812D01*
X108884237Y-110318547D01*
X108949254Y-110161582D01*
X108970776Y-110053387D01*
X108982400Y-109994951D01*
X108982400Y-109825048D01*
X108949255Y-109658423D01*
X108949254Y-109658422D01*
X108949254Y-109658418D01*
X108892121Y-109520486D01*
X108884238Y-109501455D01*
X108884233Y-109501446D01*
X108789847Y-109360188D01*
X108789844Y-109360184D01*
X108669715Y-109240055D01*
X108669711Y-109240052D01*
X108528453Y-109145666D01*
X108528444Y-109145661D01*
X108371482Y-109080646D01*
X108371476Y-109080644D01*
X108204851Y-109047500D01*
X108204849Y-109047500D01*
X108034951Y-109047500D01*
X108034949Y-109047500D01*
X107868323Y-109080644D01*
X107868317Y-109080646D01*
X107711355Y-109145661D01*
X107711346Y-109145666D01*
X107570088Y-109240052D01*
X107570084Y-109240055D01*
X107449955Y-109360184D01*
X107449952Y-109360188D01*
X107355566Y-109501446D01*
X107355561Y-109501455D01*
X107290546Y-109658417D01*
X107290544Y-109658423D01*
X107257400Y-109825048D01*
X107257400Y-109825051D01*
X107257400Y-109994949D01*
X107257400Y-109994951D01*
X107257399Y-109994951D01*
X105094543Y-109994951D01*
X105129799Y-109933886D01*
X105160500Y-109819309D01*
X105160500Y-109700691D01*
X105129799Y-109586114D01*
X105070489Y-109483387D01*
X104986613Y-109399511D01*
X104883886Y-109340201D01*
X104769309Y-109309500D01*
X104650691Y-109309500D01*
X104536114Y-109340201D01*
X104536112Y-109340201D01*
X104536112Y-109340202D01*
X104433387Y-109399511D01*
X104433384Y-109399513D01*
X104349513Y-109483384D01*
X104349511Y-109483387D01*
X104328091Y-109520488D01*
X104290201Y-109586114D01*
X104259500Y-109700691D01*
X83557663Y-109700691D01*
X83549255Y-109658423D01*
X83549254Y-109658422D01*
X83549254Y-109658418D01*
X83492121Y-109520486D01*
X83484238Y-109501455D01*
X83484233Y-109501446D01*
X83389847Y-109360188D01*
X83389844Y-109360184D01*
X83269715Y-109240055D01*
X83269711Y-109240052D01*
X83128453Y-109145666D01*
X83128444Y-109145661D01*
X83044018Y-109110691D01*
X92429500Y-109110691D01*
X92429500Y-109229309D01*
X92460201Y-109343886D01*
X92519511Y-109446613D01*
X92603387Y-109530489D01*
X92706114Y-109589799D01*
X92820691Y-109620500D01*
X92820694Y-109620500D01*
X92939306Y-109620500D01*
X92939309Y-109620500D01*
X93053886Y-109589799D01*
X93156613Y-109530489D01*
X93240489Y-109446613D01*
X93299799Y-109343886D01*
X93330500Y-109229309D01*
X93330500Y-109110691D01*
X93327820Y-109100691D01*
X99809500Y-109100691D01*
X99809500Y-109219309D01*
X99840201Y-109333886D01*
X99899511Y-109436613D01*
X99983387Y-109520489D01*
X100086114Y-109579799D01*
X100200691Y-109610500D01*
X100200694Y-109610500D01*
X100319306Y-109610500D01*
X100319309Y-109610500D01*
X100433886Y-109579799D01*
X100536613Y-109520489D01*
X100620489Y-109436613D01*
X100679799Y-109333886D01*
X100710500Y-109219309D01*
X100710500Y-109100691D01*
X100683705Y-109000691D01*
X102419500Y-109000691D01*
X102419500Y-109119309D01*
X102450201Y-109233886D01*
X102509511Y-109336613D01*
X102593387Y-109420489D01*
X102696114Y-109479799D01*
X102810691Y-109510500D01*
X102810694Y-109510500D01*
X102929306Y-109510500D01*
X102929309Y-109510500D01*
X103043886Y-109479799D01*
X103146613Y-109420489D01*
X103230489Y-109336613D01*
X103289799Y-109233886D01*
X103320500Y-109119309D01*
X103320500Y-109034500D01*
X103340185Y-108967461D01*
X103392989Y-108921706D01*
X103444500Y-108910500D01*
X103569306Y-108910500D01*
X103569309Y-108910500D01*
X103683886Y-108879799D01*
X103786613Y-108820489D01*
X103870489Y-108736613D01*
X103929799Y-108633886D01*
X103960500Y-108519309D01*
X103960500Y-108400691D01*
X103929799Y-108286114D01*
X103870489Y-108183387D01*
X103786613Y-108099511D01*
X103683886Y-108040201D01*
X103569309Y-108009500D01*
X103450691Y-108009500D01*
X103336114Y-108040201D01*
X103336112Y-108040201D01*
X103336112Y-108040202D01*
X103233387Y-108099511D01*
X103233384Y-108099513D01*
X103149513Y-108183384D01*
X103149511Y-108183387D01*
X103090201Y-108286114D01*
X103059500Y-108400691D01*
X103059500Y-108400693D01*
X103059500Y-108485500D01*
X103039815Y-108552539D01*
X102987011Y-108598294D01*
X102935500Y-108609500D01*
X102929309Y-108609500D01*
X102810691Y-108609500D01*
X102696114Y-108640201D01*
X102696112Y-108640201D01*
X102696112Y-108640202D01*
X102593387Y-108699511D01*
X102593384Y-108699513D01*
X102509513Y-108783384D01*
X102509511Y-108783387D01*
X102488091Y-108820488D01*
X102450201Y-108886114D01*
X102419500Y-109000691D01*
X100683705Y-109000691D01*
X100679799Y-108986114D01*
X100620489Y-108883387D01*
X100536613Y-108799511D01*
X100433886Y-108740201D01*
X100319309Y-108709500D01*
X100200691Y-108709500D01*
X100086114Y-108740201D01*
X100086112Y-108740201D01*
X100086112Y-108740202D01*
X99983387Y-108799511D01*
X99983384Y-108799513D01*
X99899513Y-108883384D01*
X99899511Y-108883387D01*
X99843449Y-108980489D01*
X99840201Y-108986114D01*
X99809500Y-109100691D01*
X93327820Y-109100691D01*
X93299799Y-108996114D01*
X93240489Y-108893387D01*
X93156613Y-108809511D01*
X93053886Y-108750201D01*
X92939309Y-108719500D01*
X92820691Y-108719500D01*
X92706114Y-108750201D01*
X92706112Y-108750201D01*
X92706112Y-108750202D01*
X92603387Y-108809511D01*
X92603384Y-108809513D01*
X92519513Y-108893384D01*
X92519511Y-108893387D01*
X92465975Y-108986114D01*
X92460201Y-108996114D01*
X92429500Y-109110691D01*
X83044018Y-109110691D01*
X82971482Y-109080646D01*
X82971476Y-109080644D01*
X82804851Y-109047500D01*
X82804849Y-109047500D01*
X82634951Y-109047500D01*
X82634949Y-109047500D01*
X82468323Y-109080644D01*
X82468317Y-109080646D01*
X82311355Y-109145661D01*
X82311346Y-109145666D01*
X82170088Y-109240052D01*
X82170084Y-109240055D01*
X82049955Y-109360184D01*
X82049952Y-109360188D01*
X81955566Y-109501446D01*
X81955561Y-109501455D01*
X81890546Y-109658417D01*
X81890544Y-109658423D01*
X81857400Y-109825048D01*
X81857400Y-109825051D01*
X81857400Y-109994949D01*
X81857400Y-109994951D01*
X81857399Y-109994951D01*
X77900500Y-109994951D01*
X77900500Y-108560691D01*
X88209500Y-108560691D01*
X88209500Y-108679309D01*
X88240201Y-108793886D01*
X88299511Y-108896613D01*
X88383387Y-108980489D01*
X88486114Y-109039799D01*
X88600691Y-109070500D01*
X88600694Y-109070500D01*
X88719306Y-109070500D01*
X88719309Y-109070500D01*
X88833886Y-109039799D01*
X88936613Y-108980489D01*
X89020489Y-108896613D01*
X89079799Y-108793886D01*
X89110500Y-108679309D01*
X89110500Y-108560691D01*
X89081025Y-108450691D01*
X97399500Y-108450691D01*
X97399500Y-108569309D01*
X97430201Y-108683886D01*
X97489511Y-108786613D01*
X97573387Y-108870489D01*
X97676114Y-108929799D01*
X97790691Y-108960500D01*
X97790694Y-108960500D01*
X97909306Y-108960500D01*
X97909309Y-108960500D01*
X98023886Y-108929799D01*
X98126613Y-108870489D01*
X98210489Y-108786613D01*
X98269799Y-108683886D01*
X98300500Y-108569309D01*
X98300500Y-108450691D01*
X98269799Y-108336114D01*
X98210489Y-108233387D01*
X98126613Y-108149511D01*
X98023886Y-108090201D01*
X97909309Y-108059500D01*
X97790691Y-108059500D01*
X97676114Y-108090201D01*
X97676112Y-108090201D01*
X97676112Y-108090202D01*
X97573387Y-108149511D01*
X97573384Y-108149513D01*
X97489513Y-108233384D01*
X97489511Y-108233387D01*
X97430201Y-108336114D01*
X97399500Y-108450691D01*
X89081025Y-108450691D01*
X89079799Y-108446114D01*
X89020489Y-108343387D01*
X88936613Y-108259511D01*
X88833886Y-108200201D01*
X88719309Y-108169500D01*
X88600691Y-108169500D01*
X88486114Y-108200201D01*
X88486112Y-108200201D01*
X88486112Y-108200202D01*
X88383387Y-108259511D01*
X88383384Y-108259513D01*
X88299513Y-108343384D01*
X88299511Y-108343387D01*
X88240201Y-108446114D01*
X88209500Y-108560691D01*
X77900500Y-108560691D01*
X77900500Y-107454951D01*
X81857399Y-107454951D01*
X81890544Y-107621576D01*
X81890546Y-107621582D01*
X81955561Y-107778544D01*
X81955566Y-107778553D01*
X82049952Y-107919811D01*
X82049955Y-107919815D01*
X82170084Y-108039944D01*
X82170088Y-108039947D01*
X82311346Y-108134333D01*
X82311352Y-108134336D01*
X82311353Y-108134337D01*
X82468318Y-108199354D01*
X82468322Y-108199354D01*
X82468323Y-108199355D01*
X82634948Y-108232500D01*
X82634951Y-108232500D01*
X82804851Y-108232500D01*
X82916952Y-108210200D01*
X82971482Y-108199354D01*
X83128447Y-108134337D01*
X83269712Y-108039947D01*
X83389847Y-107919812D01*
X83484237Y-107778547D01*
X83549254Y-107621582D01*
X83579309Y-107470488D01*
X83582400Y-107454951D01*
X83582400Y-107285048D01*
X83549255Y-107118423D01*
X83549254Y-107118422D01*
X83549254Y-107118418D01*
X83484237Y-106961453D01*
X83484236Y-106961452D01*
X83484233Y-106961446D01*
X83397376Y-106831455D01*
X83397375Y-106831454D01*
X83389849Y-106820190D01*
X83389844Y-106820184D01*
X83340351Y-106770691D01*
X92429500Y-106770691D01*
X92429500Y-106889309D01*
X92460201Y-107003886D01*
X92519511Y-107106613D01*
X92603387Y-107190489D01*
X92706114Y-107249799D01*
X92820691Y-107280500D01*
X92820694Y-107280500D01*
X92939306Y-107280500D01*
X92939309Y-107280500D01*
X92960443Y-107274837D01*
X97479993Y-107274837D01*
X97479993Y-107393455D01*
X97510694Y-107508032D01*
X97570004Y-107610759D01*
X97653880Y-107694635D01*
X97756607Y-107753945D01*
X97871184Y-107784646D01*
X97871187Y-107784646D01*
X97989799Y-107784646D01*
X97989802Y-107784646D01*
X98104379Y-107753945D01*
X98207106Y-107694635D01*
X98290982Y-107610759D01*
X98350292Y-107508032D01*
X98380993Y-107393455D01*
X98380993Y-107274837D01*
X98350292Y-107160260D01*
X98327447Y-107120691D01*
X99619500Y-107120691D01*
X99619500Y-107239309D01*
X99650201Y-107353886D01*
X99709511Y-107456613D01*
X99793387Y-107540489D01*
X99896114Y-107599799D01*
X100010691Y-107630500D01*
X100010694Y-107630500D01*
X100129306Y-107630500D01*
X100129309Y-107630500D01*
X100243886Y-107599799D01*
X100346613Y-107540489D01*
X100430489Y-107456613D01*
X100489799Y-107353886D01*
X100520130Y-107240691D01*
X102359500Y-107240691D01*
X102359500Y-107359309D01*
X102390201Y-107473886D01*
X102449511Y-107576613D01*
X102533387Y-107660489D01*
X102636114Y-107719799D01*
X102750691Y-107750500D01*
X102750694Y-107750500D01*
X102869306Y-107750500D01*
X102869309Y-107750500D01*
X102983886Y-107719799D01*
X103086613Y-107660489D01*
X103170489Y-107576613D01*
X103229799Y-107473886D01*
X103234873Y-107454951D01*
X107257399Y-107454951D01*
X107290544Y-107621576D01*
X107290546Y-107621582D01*
X107355561Y-107778544D01*
X107355566Y-107778553D01*
X107449952Y-107919811D01*
X107449955Y-107919815D01*
X107570084Y-108039944D01*
X107570088Y-108039947D01*
X107711346Y-108134333D01*
X107711352Y-108134336D01*
X107711353Y-108134337D01*
X107868318Y-108199354D01*
X107868322Y-108199354D01*
X107868323Y-108199355D01*
X108034948Y-108232500D01*
X108034951Y-108232500D01*
X108204851Y-108232500D01*
X108316952Y-108210200D01*
X108371482Y-108199354D01*
X108528447Y-108134337D01*
X108669712Y-108039947D01*
X108789847Y-107919812D01*
X108884237Y-107778547D01*
X108949254Y-107621582D01*
X108979309Y-107470488D01*
X108982400Y-107454951D01*
X108982400Y-107285048D01*
X108949255Y-107118423D01*
X108949254Y-107118422D01*
X108949254Y-107118418D01*
X108924033Y-107057530D01*
X108921200Y-107050691D01*
X109829500Y-107050691D01*
X109829500Y-107169309D01*
X109860201Y-107283886D01*
X109919511Y-107386613D01*
X110003387Y-107470489D01*
X110106114Y-107529799D01*
X110220691Y-107560500D01*
X110220694Y-107560500D01*
X110339306Y-107560500D01*
X110339309Y-107560500D01*
X110453886Y-107529799D01*
X110556613Y-107470489D01*
X110640489Y-107386613D01*
X110699799Y-107283886D01*
X110730500Y-107169309D01*
X110730500Y-107050691D01*
X110699799Y-106936114D01*
X110640489Y-106833387D01*
X110556613Y-106749511D01*
X110453886Y-106690201D01*
X110339309Y-106659500D01*
X110220691Y-106659500D01*
X110106114Y-106690201D01*
X110106112Y-106690201D01*
X110106112Y-106690202D01*
X110003387Y-106749511D01*
X110003384Y-106749513D01*
X109919513Y-106833384D01*
X109919511Y-106833387D01*
X109860201Y-106936114D01*
X109829500Y-107050691D01*
X108921200Y-107050691D01*
X108884238Y-106961455D01*
X108884233Y-106961446D01*
X108789847Y-106820188D01*
X108789844Y-106820184D01*
X108669715Y-106700055D01*
X108669711Y-106700052D01*
X108528453Y-106605666D01*
X108528444Y-106605661D01*
X108371482Y-106540646D01*
X108371476Y-106540644D01*
X108204851Y-106507500D01*
X108204849Y-106507500D01*
X108034951Y-106507500D01*
X108034949Y-106507500D01*
X107868323Y-106540644D01*
X107868317Y-106540646D01*
X107711355Y-106605661D01*
X107711346Y-106605666D01*
X107570088Y-106700052D01*
X107570084Y-106700055D01*
X107449955Y-106820184D01*
X107449952Y-106820188D01*
X107355566Y-106961446D01*
X107355561Y-106961455D01*
X107290546Y-107118417D01*
X107290544Y-107118423D01*
X107257400Y-107285048D01*
X107257400Y-107285051D01*
X107257400Y-107454949D01*
X107257400Y-107454951D01*
X107257399Y-107454951D01*
X103234873Y-107454951D01*
X103260500Y-107359309D01*
X103260500Y-107240691D01*
X103229799Y-107126114D01*
X103170489Y-107023387D01*
X103086613Y-106939511D01*
X102983886Y-106880201D01*
X102869309Y-106849500D01*
X102750691Y-106849500D01*
X102636114Y-106880201D01*
X102636112Y-106880201D01*
X102636112Y-106880202D01*
X102533387Y-106939511D01*
X102533384Y-106939513D01*
X102449513Y-107023384D01*
X102449511Y-107023387D01*
X102401461Y-107106612D01*
X102390201Y-107126114D01*
X102359500Y-107240691D01*
X100520130Y-107240691D01*
X100520500Y-107239309D01*
X100520500Y-107120691D01*
X100489799Y-107006114D01*
X100430489Y-106903387D01*
X100346613Y-106819511D01*
X100243886Y-106760201D01*
X100129309Y-106729500D01*
X100010691Y-106729500D01*
X99896114Y-106760201D01*
X99896112Y-106760201D01*
X99896112Y-106760202D01*
X99793387Y-106819511D01*
X99793384Y-106819513D01*
X99709513Y-106903384D01*
X99709511Y-106903387D01*
X99650201Y-107006114D01*
X99619500Y-107120691D01*
X98327447Y-107120691D01*
X98290982Y-107057533D01*
X98207106Y-106973657D01*
X98104379Y-106914347D01*
X97989802Y-106883646D01*
X97871184Y-106883646D01*
X97756607Y-106914347D01*
X97756605Y-106914347D01*
X97756605Y-106914348D01*
X97653880Y-106973657D01*
X97653877Y-106973659D01*
X97570006Y-107057530D01*
X97570004Y-107057533D01*
X97530410Y-107126112D01*
X97510694Y-107160260D01*
X97479993Y-107274837D01*
X92960443Y-107274837D01*
X93053886Y-107249799D01*
X93156613Y-107190489D01*
X93240489Y-107106613D01*
X93299799Y-107003886D01*
X93330500Y-106889309D01*
X93330500Y-106770691D01*
X93299799Y-106656114D01*
X93240489Y-106553387D01*
X93156613Y-106469511D01*
X93053886Y-106410201D01*
X92939309Y-106379500D01*
X92820691Y-106379500D01*
X92706114Y-106410201D01*
X92706112Y-106410201D01*
X92706112Y-106410202D01*
X92603387Y-106469511D01*
X92603384Y-106469513D01*
X92519513Y-106553384D01*
X92519511Y-106553387D01*
X92460201Y-106656114D01*
X92429500Y-106770691D01*
X83340351Y-106770691D01*
X83269715Y-106700055D01*
X83269711Y-106700052D01*
X83128453Y-106605666D01*
X83128444Y-106605661D01*
X82971482Y-106540646D01*
X82971476Y-106540644D01*
X82804851Y-106507500D01*
X82804849Y-106507500D01*
X82634951Y-106507500D01*
X82634949Y-106507500D01*
X82468323Y-106540644D01*
X82468317Y-106540646D01*
X82311355Y-106605661D01*
X82311346Y-106605666D01*
X82170088Y-106700052D01*
X82170084Y-106700055D01*
X82049955Y-106820184D01*
X82049952Y-106820188D01*
X81955566Y-106961446D01*
X81955561Y-106961455D01*
X81890546Y-107118417D01*
X81890544Y-107118423D01*
X81857400Y-107285048D01*
X81857400Y-107285051D01*
X81857400Y-107454949D01*
X81857400Y-107454951D01*
X81857399Y-107454951D01*
X77900500Y-107454951D01*
X77900500Y-106040691D01*
X106099500Y-106040691D01*
X106099500Y-106159309D01*
X106130201Y-106273886D01*
X106189511Y-106376613D01*
X106273387Y-106460489D01*
X106376114Y-106519799D01*
X106490691Y-106550500D01*
X106490694Y-106550500D01*
X106609306Y-106550500D01*
X106609309Y-106550500D01*
X106723886Y-106519799D01*
X106826613Y-106460489D01*
X106910489Y-106376613D01*
X106969799Y-106273886D01*
X107000500Y-106159309D01*
X107000500Y-106040691D01*
X106969799Y-105926114D01*
X106910489Y-105823387D01*
X106826613Y-105739511D01*
X106723886Y-105680201D01*
X106609309Y-105649500D01*
X106490691Y-105649500D01*
X106376114Y-105680201D01*
X106376112Y-105680201D01*
X106376112Y-105680202D01*
X106273387Y-105739511D01*
X106273384Y-105739513D01*
X106189513Y-105823384D01*
X106189511Y-105823387D01*
X106130201Y-105926114D01*
X106099500Y-106040691D01*
X77900500Y-106040691D01*
X77900500Y-104914951D01*
X81857399Y-104914951D01*
X81890544Y-105081576D01*
X81890546Y-105081582D01*
X81955561Y-105238544D01*
X81955566Y-105238553D01*
X82049952Y-105379811D01*
X82049955Y-105379815D01*
X82170084Y-105499944D01*
X82170088Y-105499947D01*
X82311346Y-105594333D01*
X82311352Y-105594336D01*
X82311353Y-105594337D01*
X82468318Y-105659354D01*
X82468322Y-105659354D01*
X82468323Y-105659355D01*
X82634948Y-105692500D01*
X82634951Y-105692500D01*
X82804851Y-105692500D01*
X82916952Y-105670200D01*
X82971482Y-105659354D01*
X83128447Y-105594337D01*
X83269712Y-105499947D01*
X83368968Y-105400691D01*
X94899500Y-105400691D01*
X94899500Y-105519309D01*
X94930201Y-105633886D01*
X94989511Y-105736613D01*
X95073387Y-105820489D01*
X95176114Y-105879799D01*
X95290691Y-105910500D01*
X95290694Y-105910500D01*
X95409306Y-105910500D01*
X95409309Y-105910500D01*
X95523886Y-105879799D01*
X95626613Y-105820489D01*
X95710489Y-105736613D01*
X95769799Y-105633886D01*
X95800500Y-105519309D01*
X95800500Y-105400691D01*
X95771025Y-105290691D01*
X96589500Y-105290691D01*
X96589500Y-105409309D01*
X96620201Y-105523886D01*
X96679511Y-105626613D01*
X96763387Y-105710489D01*
X96866114Y-105769799D01*
X96980691Y-105800500D01*
X96980694Y-105800500D01*
X97099306Y-105800500D01*
X97099309Y-105800500D01*
X97213886Y-105769799D01*
X97316613Y-105710489D01*
X97400489Y-105626613D01*
X97459799Y-105523886D01*
X97490500Y-105409309D01*
X97490500Y-105290691D01*
X97459799Y-105176114D01*
X97400489Y-105073387D01*
X97316613Y-104989511D01*
X97213886Y-104930201D01*
X97156973Y-104914951D01*
X107257399Y-104914951D01*
X107290544Y-105081576D01*
X107290546Y-105081582D01*
X107355561Y-105238544D01*
X107355566Y-105238553D01*
X107449952Y-105379811D01*
X107449955Y-105379815D01*
X107570084Y-105499944D01*
X107570088Y-105499947D01*
X107711346Y-105594333D01*
X107711352Y-105594336D01*
X107711353Y-105594337D01*
X107868318Y-105659354D01*
X107868322Y-105659354D01*
X107868323Y-105659355D01*
X108034948Y-105692500D01*
X108034951Y-105692500D01*
X108204851Y-105692500D01*
X108316952Y-105670200D01*
X108371482Y-105659354D01*
X108528447Y-105594337D01*
X108669712Y-105499947D01*
X108789847Y-105379812D01*
X108884237Y-105238547D01*
X108887491Y-105230691D01*
X109669500Y-105230691D01*
X109669500Y-105349309D01*
X109700201Y-105463886D01*
X109759511Y-105566613D01*
X109843387Y-105650489D01*
X109946114Y-105709799D01*
X110060691Y-105740500D01*
X110060694Y-105740500D01*
X110179306Y-105740500D01*
X110179309Y-105740500D01*
X110293886Y-105709799D01*
X110396613Y-105650489D01*
X110480489Y-105566613D01*
X110539799Y-105463886D01*
X110570500Y-105349309D01*
X110570500Y-105230691D01*
X110539799Y-105116114D01*
X110480489Y-105013387D01*
X110396613Y-104929511D01*
X110293886Y-104870201D01*
X110179309Y-104839500D01*
X110060691Y-104839500D01*
X109946114Y-104870201D01*
X109946112Y-104870201D01*
X109946112Y-104870202D01*
X109843387Y-104929511D01*
X109843384Y-104929513D01*
X109759513Y-105013384D01*
X109759511Y-105013387D01*
X109718059Y-105085184D01*
X109700201Y-105116114D01*
X109669500Y-105230691D01*
X108887491Y-105230691D01*
X108907085Y-105183387D01*
X108910513Y-105175112D01*
X108910513Y-105175111D01*
X108920707Y-105150500D01*
X108949254Y-105081582D01*
X108967568Y-104989513D01*
X108982400Y-104914951D01*
X108982400Y-104745048D01*
X108949255Y-104578423D01*
X108949254Y-104578422D01*
X108949254Y-104578418D01*
X108884237Y-104421453D01*
X108884236Y-104421452D01*
X108884233Y-104421446D01*
X108789847Y-104280188D01*
X108789844Y-104280184D01*
X108669715Y-104160055D01*
X108669711Y-104160052D01*
X108528453Y-104065666D01*
X108528444Y-104065661D01*
X108371482Y-104000646D01*
X108371476Y-104000644D01*
X108204851Y-103967500D01*
X108204849Y-103967500D01*
X108034951Y-103967500D01*
X108034949Y-103967500D01*
X107868323Y-104000644D01*
X107868317Y-104000646D01*
X107711355Y-104065661D01*
X107711346Y-104065666D01*
X107570088Y-104160052D01*
X107570084Y-104160055D01*
X107449955Y-104280184D01*
X107449952Y-104280188D01*
X107355566Y-104421446D01*
X107355561Y-104421455D01*
X107290546Y-104578417D01*
X107290544Y-104578423D01*
X107257400Y-104745048D01*
X107257400Y-104745051D01*
X107257400Y-104914949D01*
X107257400Y-104914951D01*
X107257399Y-104914951D01*
X97156973Y-104914951D01*
X97099309Y-104899500D01*
X96980691Y-104899500D01*
X96866114Y-104930201D01*
X96866112Y-104930201D01*
X96866112Y-104930202D01*
X96763387Y-104989511D01*
X96763384Y-104989513D01*
X96679513Y-105073384D01*
X96679511Y-105073387D01*
X96620780Y-105175112D01*
X96620201Y-105176114D01*
X96589500Y-105290691D01*
X95771025Y-105290691D01*
X95769799Y-105286114D01*
X95710489Y-105183387D01*
X95626613Y-105099511D01*
X95523886Y-105040201D01*
X95409309Y-105009500D01*
X95290691Y-105009500D01*
X95176114Y-105040201D01*
X95176112Y-105040201D01*
X95176112Y-105040202D01*
X95073387Y-105099511D01*
X95073384Y-105099513D01*
X94989513Y-105183384D01*
X94989511Y-105183387D01*
X94930201Y-105286114D01*
X94899500Y-105400691D01*
X83368968Y-105400691D01*
X83389847Y-105379812D01*
X83400245Y-105364249D01*
X83427358Y-105323674D01*
X83427358Y-105323673D01*
X83484233Y-105238553D01*
X83484233Y-105238552D01*
X83484237Y-105238547D01*
X83549254Y-105081582D01*
X83567568Y-104989513D01*
X83582400Y-104914951D01*
X83582400Y-104745048D01*
X83554891Y-104606756D01*
X83554891Y-104606755D01*
X83551695Y-104590691D01*
X84449500Y-104590691D01*
X84449500Y-104709309D01*
X84480201Y-104823886D01*
X84539511Y-104926613D01*
X84623387Y-105010489D01*
X84726114Y-105069799D01*
X84840691Y-105100500D01*
X84840694Y-105100500D01*
X84959306Y-105100500D01*
X84959309Y-105100500D01*
X85073886Y-105069799D01*
X85176613Y-105010489D01*
X85260489Y-104926613D01*
X85319799Y-104823886D01*
X85350500Y-104709309D01*
X85350500Y-104590691D01*
X85769500Y-104590691D01*
X85769500Y-104709309D01*
X85800201Y-104823886D01*
X85859511Y-104926613D01*
X85943387Y-105010489D01*
X86046114Y-105069799D01*
X86160691Y-105100500D01*
X86160694Y-105100500D01*
X86279306Y-105100500D01*
X86279309Y-105100500D01*
X86393886Y-105069799D01*
X86496613Y-105010489D01*
X86580489Y-104926613D01*
X86639799Y-104823886D01*
X86670500Y-104709309D01*
X86670500Y-104590691D01*
X86666396Y-104575375D01*
X86967673Y-104575375D01*
X86967673Y-104693993D01*
X86998374Y-104808570D01*
X87057684Y-104911297D01*
X87141560Y-104995173D01*
X87244287Y-105054483D01*
X87358864Y-105085184D01*
X87358867Y-105085184D01*
X87477479Y-105085184D01*
X87477482Y-105085184D01*
X87592059Y-105054483D01*
X87694786Y-104995173D01*
X87778662Y-104911297D01*
X87837972Y-104808570D01*
X87868673Y-104693993D01*
X87868673Y-104605691D01*
X88144500Y-104605691D01*
X88144500Y-104724309D01*
X88175201Y-104838886D01*
X88234511Y-104941613D01*
X88318387Y-105025489D01*
X88421114Y-105084799D01*
X88535691Y-105115500D01*
X88535694Y-105115500D01*
X88654306Y-105115500D01*
X88654309Y-105115500D01*
X88768886Y-105084799D01*
X88871613Y-105025489D01*
X88955489Y-104941613D01*
X89014799Y-104838886D01*
X89045500Y-104724309D01*
X89045500Y-104640691D01*
X89629500Y-104640691D01*
X89629500Y-104759309D01*
X89660201Y-104873886D01*
X89719511Y-104976613D01*
X89803387Y-105060489D01*
X89906114Y-105119799D01*
X90020691Y-105150500D01*
X90020694Y-105150500D01*
X90139306Y-105150500D01*
X90139309Y-105150500D01*
X90253886Y-105119799D01*
X90356613Y-105060489D01*
X90440489Y-104976613D01*
X90499799Y-104873886D01*
X90530500Y-104759309D01*
X90530500Y-104640691D01*
X90499799Y-104526114D01*
X90440489Y-104423387D01*
X90356613Y-104339511D01*
X90253886Y-104280201D01*
X90139309Y-104249500D01*
X90020691Y-104249500D01*
X89906114Y-104280201D01*
X89906112Y-104280201D01*
X89906112Y-104280202D01*
X89803387Y-104339511D01*
X89803384Y-104339513D01*
X89719513Y-104423384D01*
X89719511Y-104423387D01*
X89680410Y-104491112D01*
X89660201Y-104526114D01*
X89629500Y-104640691D01*
X89045500Y-104640691D01*
X89045500Y-104605691D01*
X89014799Y-104491114D01*
X88955489Y-104388387D01*
X88871613Y-104304511D01*
X88768886Y-104245201D01*
X88654309Y-104214500D01*
X88535691Y-104214500D01*
X88421114Y-104245201D01*
X88421112Y-104245201D01*
X88421112Y-104245202D01*
X88318387Y-104304511D01*
X88318384Y-104304513D01*
X88234513Y-104388384D01*
X88234511Y-104388387D01*
X88175201Y-104491114D01*
X88144500Y-104605691D01*
X87868673Y-104605691D01*
X87868673Y-104575375D01*
X87837972Y-104460798D01*
X87778662Y-104358071D01*
X87694786Y-104274195D01*
X87592059Y-104214885D01*
X87477482Y-104184184D01*
X87358864Y-104184184D01*
X87244287Y-104214885D01*
X87244285Y-104214885D01*
X87244285Y-104214886D01*
X87141560Y-104274195D01*
X87141557Y-104274197D01*
X87057686Y-104358068D01*
X87057684Y-104358071D01*
X86998374Y-104460798D01*
X86967673Y-104575375D01*
X86666396Y-104575375D01*
X86639799Y-104476114D01*
X86580489Y-104373387D01*
X86496613Y-104289511D01*
X86393886Y-104230201D01*
X86279309Y-104199500D01*
X86160691Y-104199500D01*
X86046114Y-104230201D01*
X86046112Y-104230201D01*
X86046112Y-104230202D01*
X85943387Y-104289511D01*
X85943384Y-104289513D01*
X85859513Y-104373384D01*
X85859511Y-104373387D01*
X85800201Y-104476114D01*
X85769500Y-104590691D01*
X85350500Y-104590691D01*
X85319799Y-104476114D01*
X85260489Y-104373387D01*
X85176613Y-104289511D01*
X85073886Y-104230201D01*
X84959309Y-104199500D01*
X84840691Y-104199500D01*
X84726114Y-104230201D01*
X84726112Y-104230201D01*
X84726112Y-104230202D01*
X84623387Y-104289511D01*
X84623384Y-104289513D01*
X84539513Y-104373384D01*
X84539511Y-104373387D01*
X84480201Y-104476114D01*
X84449500Y-104590691D01*
X83551695Y-104590691D01*
X83549255Y-104578425D01*
X83549255Y-104578423D01*
X83549254Y-104578418D01*
X83484237Y-104421453D01*
X83484236Y-104421452D01*
X83484233Y-104421446D01*
X83389847Y-104280188D01*
X83389844Y-104280184D01*
X83269715Y-104160055D01*
X83269711Y-104160052D01*
X83128453Y-104065666D01*
X83128444Y-104065661D01*
X83031712Y-104025594D01*
X83031710Y-104025593D01*
X82971486Y-104000647D01*
X82971476Y-104000644D01*
X82804851Y-103967500D01*
X82804849Y-103967500D01*
X82634951Y-103967500D01*
X82634949Y-103967500D01*
X82468323Y-104000644D01*
X82468317Y-104000646D01*
X82311355Y-104065661D01*
X82311346Y-104065666D01*
X82170088Y-104160052D01*
X82170084Y-104160055D01*
X82049955Y-104280184D01*
X82049952Y-104280188D01*
X81955566Y-104421446D01*
X81955561Y-104421455D01*
X81890546Y-104578417D01*
X81890544Y-104578423D01*
X81857400Y-104745048D01*
X81857400Y-104745051D01*
X81857400Y-104914949D01*
X81857400Y-104914951D01*
X81857399Y-104914951D01*
X77900500Y-104914951D01*
X77900500Y-103919160D01*
X105126423Y-103919160D01*
X105126423Y-104037778D01*
X105157124Y-104152355D01*
X105216434Y-104255082D01*
X105300310Y-104338958D01*
X105403037Y-104398268D01*
X105517614Y-104428969D01*
X105517617Y-104428969D01*
X105636229Y-104428969D01*
X105636232Y-104428969D01*
X105750809Y-104398268D01*
X105853536Y-104338958D01*
X105937412Y-104255082D01*
X105996722Y-104152355D01*
X106027423Y-104037778D01*
X106027423Y-103919160D01*
X105996722Y-103804583D01*
X105937412Y-103701856D01*
X105853536Y-103617980D01*
X105750809Y-103558670D01*
X105636232Y-103527969D01*
X105517614Y-103527969D01*
X105403037Y-103558670D01*
X105403035Y-103558670D01*
X105403035Y-103558671D01*
X105300310Y-103617980D01*
X105300307Y-103617982D01*
X105216436Y-103701853D01*
X105216434Y-103701856D01*
X105157124Y-103804583D01*
X105126423Y-103919160D01*
X77900500Y-103919160D01*
X77900500Y-102374951D01*
X81857399Y-102374951D01*
X81890544Y-102541576D01*
X81890546Y-102541582D01*
X81955561Y-102698544D01*
X81955566Y-102698553D01*
X82049952Y-102839811D01*
X82049955Y-102839815D01*
X82170084Y-102959944D01*
X82170088Y-102959947D01*
X82311346Y-103054333D01*
X82311352Y-103054336D01*
X82311353Y-103054337D01*
X82468318Y-103119354D01*
X82468322Y-103119354D01*
X82468323Y-103119355D01*
X82634948Y-103152500D01*
X82634951Y-103152500D01*
X82804851Y-103152500D01*
X82916952Y-103130200D01*
X82971482Y-103119354D01*
X83128447Y-103054337D01*
X83269712Y-102959947D01*
X83389847Y-102839812D01*
X83484237Y-102698547D01*
X83549254Y-102541582D01*
X83563355Y-102470693D01*
X83563355Y-102470691D01*
X95909500Y-102470691D01*
X95909500Y-102589309D01*
X95940201Y-102703886D01*
X95999511Y-102806613D01*
X96083387Y-102890489D01*
X96186114Y-102949799D01*
X96300691Y-102980500D01*
X96300694Y-102980500D01*
X96419306Y-102980500D01*
X96419309Y-102980500D01*
X96533886Y-102949799D01*
X96636613Y-102890489D01*
X96720489Y-102806613D01*
X96779799Y-102703886D01*
X96810500Y-102589309D01*
X96810500Y-102470691D01*
X96779799Y-102356114D01*
X96720489Y-102253387D01*
X96636613Y-102169511D01*
X96618938Y-102159306D01*
X96585416Y-102139951D01*
X96585415Y-102139951D01*
X96533889Y-102110202D01*
X96533890Y-102110202D01*
X96524494Y-102107684D01*
X96419309Y-102079500D01*
X96300691Y-102079500D01*
X96186114Y-102110201D01*
X96186112Y-102110201D01*
X96186112Y-102110202D01*
X96083387Y-102169511D01*
X96083384Y-102169513D01*
X95999513Y-102253384D01*
X95999511Y-102253387D01*
X95950308Y-102338609D01*
X95940201Y-102356114D01*
X95909500Y-102470691D01*
X83563355Y-102470691D01*
X83569785Y-102438372D01*
X83569785Y-102438371D01*
X83579446Y-102389797D01*
X83582400Y-102374949D01*
X83582400Y-102205051D01*
X83582400Y-102205048D01*
X83549706Y-102040691D01*
X98589500Y-102040691D01*
X98589500Y-102159309D01*
X98620201Y-102273886D01*
X98679511Y-102376613D01*
X98763387Y-102460489D01*
X98866114Y-102519799D01*
X98980691Y-102550500D01*
X98980694Y-102550500D01*
X99099306Y-102550500D01*
X99099309Y-102550500D01*
X99213886Y-102519799D01*
X99316613Y-102460489D01*
X99400489Y-102376613D01*
X99459799Y-102273886D01*
X99490500Y-102159309D01*
X99490500Y-102040691D01*
X99459799Y-101926114D01*
X99450894Y-101910691D01*
X100299500Y-101910691D01*
X100299500Y-102029309D01*
X100330201Y-102143886D01*
X100389511Y-102246613D01*
X100473387Y-102330489D01*
X100576114Y-102389799D01*
X100690691Y-102420500D01*
X100690694Y-102420500D01*
X100809306Y-102420500D01*
X100809309Y-102420500D01*
X100923886Y-102389799D01*
X101026613Y-102330489D01*
X101110489Y-102246613D01*
X101169799Y-102143886D01*
X101200500Y-102029309D01*
X101200500Y-101918811D01*
X101837149Y-101918811D01*
X101837149Y-102037429D01*
X101867850Y-102152006D01*
X101927160Y-102254733D01*
X102011036Y-102338609D01*
X102113763Y-102397919D01*
X102228340Y-102428620D01*
X102228343Y-102428620D01*
X102346955Y-102428620D01*
X102346958Y-102428620D01*
X102461535Y-102397919D01*
X102501316Y-102374951D01*
X107257399Y-102374951D01*
X107290544Y-102541576D01*
X107290546Y-102541582D01*
X107355561Y-102698544D01*
X107355566Y-102698553D01*
X107449952Y-102839811D01*
X107449955Y-102839815D01*
X107570084Y-102959944D01*
X107570088Y-102959947D01*
X107711346Y-103054333D01*
X107711352Y-103054336D01*
X107711353Y-103054337D01*
X107868318Y-103119354D01*
X107868322Y-103119354D01*
X107868323Y-103119355D01*
X108034948Y-103152500D01*
X108034951Y-103152500D01*
X108204851Y-103152500D01*
X108316952Y-103130200D01*
X108371482Y-103119354D01*
X108528447Y-103054337D01*
X108669712Y-102959947D01*
X108789847Y-102839812D01*
X108884237Y-102698547D01*
X108949254Y-102541582D01*
X108969784Y-102438372D01*
X108982400Y-102374951D01*
X108982400Y-102205048D01*
X108949255Y-102038423D01*
X108949254Y-102038422D01*
X108949254Y-102038418D01*
X108884237Y-101881453D01*
X108884236Y-101881452D01*
X108884232Y-101881444D01*
X108870876Y-101861456D01*
X108870875Y-101861455D01*
X108830274Y-101800691D01*
X111229500Y-101800691D01*
X111229500Y-101919309D01*
X111260201Y-102033886D01*
X111319511Y-102136613D01*
X111403387Y-102220489D01*
X111506114Y-102279799D01*
X111620691Y-102310500D01*
X111620694Y-102310500D01*
X111739306Y-102310500D01*
X111739309Y-102310500D01*
X111853886Y-102279799D01*
X111956613Y-102220489D01*
X112040489Y-102136613D01*
X112099799Y-102033886D01*
X112130500Y-101919309D01*
X112130500Y-101800691D01*
X112099799Y-101686114D01*
X112040489Y-101583387D01*
X111956613Y-101499511D01*
X111853886Y-101440201D01*
X111739309Y-101409500D01*
X111620691Y-101409500D01*
X111506114Y-101440201D01*
X111506112Y-101440201D01*
X111506112Y-101440202D01*
X111403387Y-101499511D01*
X111403384Y-101499513D01*
X111319513Y-101583384D01*
X111319511Y-101583387D01*
X111298341Y-101620055D01*
X111260201Y-101686114D01*
X111229500Y-101800691D01*
X108830274Y-101800691D01*
X108789847Y-101740187D01*
X108669715Y-101620055D01*
X108669711Y-101620052D01*
X108528453Y-101525666D01*
X108528444Y-101525661D01*
X108371482Y-101460646D01*
X108371476Y-101460644D01*
X108204851Y-101427500D01*
X108204849Y-101427500D01*
X108034951Y-101427500D01*
X108034949Y-101427500D01*
X107868323Y-101460644D01*
X107868317Y-101460646D01*
X107711355Y-101525661D01*
X107711346Y-101525666D01*
X107570088Y-101620052D01*
X107570084Y-101620055D01*
X107449955Y-101740184D01*
X107449952Y-101740188D01*
X107355566Y-101881446D01*
X107355561Y-101881455D01*
X107290546Y-102038417D01*
X107290544Y-102038423D01*
X107257400Y-102205048D01*
X107257400Y-102205051D01*
X107257400Y-102374949D01*
X107257400Y-102374951D01*
X107257399Y-102374951D01*
X102501316Y-102374951D01*
X102564262Y-102338609D01*
X102648138Y-102254733D01*
X102707448Y-102152006D01*
X102738149Y-102037429D01*
X102738149Y-101918811D01*
X102707448Y-101804234D01*
X102648138Y-101701507D01*
X102564262Y-101617631D01*
X102461535Y-101558321D01*
X102346958Y-101527620D01*
X102228340Y-101527620D01*
X102113763Y-101558321D01*
X102113761Y-101558321D01*
X102113761Y-101558322D01*
X102011036Y-101617631D01*
X102011033Y-101617633D01*
X101927162Y-101701504D01*
X101927160Y-101701507D01*
X101869896Y-101800691D01*
X101867850Y-101804234D01*
X101837149Y-101918811D01*
X101200500Y-101918811D01*
X101200500Y-101910691D01*
X101169799Y-101796114D01*
X101110489Y-101693387D01*
X101026613Y-101609511D01*
X100923886Y-101550201D01*
X100809309Y-101519500D01*
X100690691Y-101519500D01*
X100576114Y-101550201D01*
X100576112Y-101550201D01*
X100576112Y-101550202D01*
X100473387Y-101609511D01*
X100473384Y-101609513D01*
X100389513Y-101693384D01*
X100389511Y-101693387D01*
X100330201Y-101796114D01*
X100299500Y-101910691D01*
X99450894Y-101910691D01*
X99400489Y-101823387D01*
X99316613Y-101739511D01*
X99213886Y-101680201D01*
X99099309Y-101649500D01*
X98980691Y-101649500D01*
X98866114Y-101680201D01*
X98866112Y-101680201D01*
X98866112Y-101680202D01*
X98763387Y-101739511D01*
X98763384Y-101739513D01*
X98679513Y-101823384D01*
X98679511Y-101823387D01*
X98624132Y-101919306D01*
X98620201Y-101926114D01*
X98589500Y-102040691D01*
X83549706Y-102040691D01*
X83549255Y-102038423D01*
X83549254Y-102038422D01*
X83549254Y-102038418D01*
X83484237Y-101881453D01*
X83484236Y-101881452D01*
X83484233Y-101881446D01*
X83389847Y-101740188D01*
X83389844Y-101740184D01*
X83269715Y-101620055D01*
X83269711Y-101620052D01*
X83128453Y-101525666D01*
X83128444Y-101525661D01*
X82971482Y-101460646D01*
X82971476Y-101460644D01*
X82804851Y-101427500D01*
X82804849Y-101427500D01*
X82634951Y-101427500D01*
X82634949Y-101427500D01*
X82468323Y-101460644D01*
X82468317Y-101460646D01*
X82311355Y-101525661D01*
X82311346Y-101525666D01*
X82170088Y-101620052D01*
X82170084Y-101620055D01*
X82049955Y-101740184D01*
X82049952Y-101740188D01*
X81955566Y-101881446D01*
X81955561Y-101881455D01*
X81890546Y-102038417D01*
X81890544Y-102038423D01*
X81857400Y-102205048D01*
X81857400Y-102205051D01*
X81857400Y-102374949D01*
X81857400Y-102374951D01*
X81857399Y-102374951D01*
X77900500Y-102374951D01*
X77900500Y-101308587D01*
X94576311Y-101308587D01*
X94576311Y-101427205D01*
X94607012Y-101541782D01*
X94666322Y-101644509D01*
X94750198Y-101728385D01*
X94852925Y-101787695D01*
X94967502Y-101818396D01*
X94967505Y-101818396D01*
X95086117Y-101818396D01*
X95086120Y-101818396D01*
X95200697Y-101787695D01*
X95303424Y-101728385D01*
X95387300Y-101644509D01*
X95446610Y-101541782D01*
X95477311Y-101427205D01*
X95477311Y-101308587D01*
X95446610Y-101194010D01*
X95446605Y-101194002D01*
X95445599Y-101191570D01*
X95445360Y-101189347D01*
X95444506Y-101186160D01*
X95445003Y-101186026D01*
X95438130Y-101122100D01*
X95469405Y-101059621D01*
X95529494Y-101023969D01*
X95599319Y-101026463D01*
X95622160Y-101036729D01*
X95667199Y-101062733D01*
X95781776Y-101093434D01*
X95781779Y-101093434D01*
X95900391Y-101093434D01*
X95900394Y-101093434D01*
X96014971Y-101062733D01*
X96117698Y-101003423D01*
X96201574Y-100919547D01*
X96260884Y-100816820D01*
X96291585Y-100702243D01*
X96291585Y-100583625D01*
X96290441Y-100579354D01*
X96289185Y-100574666D01*
X96289182Y-100574658D01*
X96282760Y-100550691D01*
X99359500Y-100550691D01*
X99359500Y-100669309D01*
X99390201Y-100783886D01*
X99449511Y-100886613D01*
X99533387Y-100970489D01*
X99636114Y-101029799D01*
X99750691Y-101060500D01*
X99750694Y-101060500D01*
X99869306Y-101060500D01*
X99869309Y-101060500D01*
X99983886Y-101029799D01*
X100086613Y-100970489D01*
X100170489Y-100886613D01*
X100229799Y-100783886D01*
X100260500Y-100669309D01*
X100260500Y-100550691D01*
X100229799Y-100436114D01*
X100170489Y-100333387D01*
X100086613Y-100249511D01*
X99983886Y-100190201D01*
X99869309Y-100159500D01*
X99750691Y-100159500D01*
X99636114Y-100190201D01*
X99636112Y-100190201D01*
X99636112Y-100190202D01*
X99533387Y-100249511D01*
X99533384Y-100249513D01*
X99449513Y-100333384D01*
X99449511Y-100333387D01*
X99390201Y-100436114D01*
X99359500Y-100550691D01*
X96282760Y-100550691D01*
X96260884Y-100469048D01*
X96201574Y-100366321D01*
X96117698Y-100282445D01*
X96014971Y-100223135D01*
X95900394Y-100192434D01*
X95781776Y-100192434D01*
X95667199Y-100223135D01*
X95667197Y-100223135D01*
X95667197Y-100223136D01*
X95564472Y-100282445D01*
X95564469Y-100282447D01*
X95480598Y-100366318D01*
X95480596Y-100366321D01*
X95421286Y-100469048D01*
X95390585Y-100583625D01*
X95390585Y-100702243D01*
X95412461Y-100783886D01*
X95421288Y-100816828D01*
X95422298Y-100819265D01*
X95422536Y-100821485D01*
X95423390Y-100824670D01*
X95422893Y-100824803D01*
X95429764Y-100888735D01*
X95398486Y-100951212D01*
X95338395Y-100986862D01*
X95268570Y-100984364D01*
X95245735Y-100974099D01*
X95200700Y-100948098D01*
X95200701Y-100948098D01*
X95191305Y-100945580D01*
X95086120Y-100917396D01*
X94967502Y-100917396D01*
X94852925Y-100948097D01*
X94852923Y-100948097D01*
X94852923Y-100948098D01*
X94750198Y-101007407D01*
X94750195Y-101007409D01*
X94666324Y-101091280D01*
X94666322Y-101091283D01*
X94611622Y-101186026D01*
X94607012Y-101194010D01*
X94576311Y-101308587D01*
X77900500Y-101308587D01*
X77900500Y-99834951D01*
X81857399Y-99834951D01*
X81890544Y-100001576D01*
X81890546Y-100001582D01*
X81955561Y-100158544D01*
X81955566Y-100158553D01*
X82049952Y-100299811D01*
X82049955Y-100299815D01*
X82170084Y-100419944D01*
X82170088Y-100419947D01*
X82311346Y-100514333D01*
X82311352Y-100514336D01*
X82311353Y-100514337D01*
X82468318Y-100579354D01*
X82468322Y-100579354D01*
X82468323Y-100579355D01*
X82634948Y-100612500D01*
X82634951Y-100612500D01*
X82804851Y-100612500D01*
X82916952Y-100590200D01*
X82971482Y-100579354D01*
X83128447Y-100514337D01*
X83269712Y-100419947D01*
X83389847Y-100299812D01*
X83484237Y-100158547D01*
X83549254Y-100001582D01*
X83570676Y-99893887D01*
X83582400Y-99834951D01*
X83582400Y-99680691D01*
X93999500Y-99680691D01*
X93999500Y-99799309D01*
X94030201Y-99913886D01*
X94089511Y-100016613D01*
X94173387Y-100100489D01*
X94276114Y-100159799D01*
X94390691Y-100190500D01*
X94390694Y-100190500D01*
X94509306Y-100190500D01*
X94509309Y-100190500D01*
X94623886Y-100159799D01*
X94726613Y-100100489D01*
X94810489Y-100016613D01*
X94869799Y-99913886D01*
X94900500Y-99799309D01*
X94900500Y-99680691D01*
X94895141Y-99660691D01*
X100789500Y-99660691D01*
X100789500Y-99779309D01*
X100820201Y-99893886D01*
X100879511Y-99996613D01*
X100963387Y-100080489D01*
X101066114Y-100139799D01*
X101180691Y-100170500D01*
X101180694Y-100170500D01*
X101299306Y-100170500D01*
X101299309Y-100170500D01*
X101413886Y-100139799D01*
X101516613Y-100080489D01*
X101600489Y-99996613D01*
X101659799Y-99893886D01*
X101675591Y-99834951D01*
X107257399Y-99834951D01*
X107290544Y-100001576D01*
X107290546Y-100001582D01*
X107355561Y-100158544D01*
X107355566Y-100158553D01*
X107449952Y-100299811D01*
X107449955Y-100299815D01*
X107570084Y-100419944D01*
X107570088Y-100419947D01*
X107711346Y-100514333D01*
X107711352Y-100514336D01*
X107711353Y-100514337D01*
X107868318Y-100579354D01*
X107868322Y-100579354D01*
X107868323Y-100579355D01*
X108034948Y-100612500D01*
X108034951Y-100612500D01*
X108204851Y-100612500D01*
X108316952Y-100590200D01*
X108371482Y-100579354D01*
X108528447Y-100514337D01*
X108669712Y-100419947D01*
X108789847Y-100299812D01*
X108884237Y-100158547D01*
X108949254Y-100001582D01*
X108970676Y-99893887D01*
X108982400Y-99834951D01*
X108982400Y-99665048D01*
X108949255Y-99498423D01*
X108949254Y-99498422D01*
X108949254Y-99498418D01*
X108884237Y-99341453D01*
X108884236Y-99341452D01*
X108884233Y-99341446D01*
X108789847Y-99200188D01*
X108789844Y-99200184D01*
X108669715Y-99080055D01*
X108669711Y-99080052D01*
X108528453Y-98985666D01*
X108528444Y-98985661D01*
X108371482Y-98920646D01*
X108371476Y-98920644D01*
X108204851Y-98887500D01*
X108204849Y-98887500D01*
X108034951Y-98887500D01*
X108034949Y-98887500D01*
X107868323Y-98920644D01*
X107868317Y-98920646D01*
X107711355Y-98985661D01*
X107711346Y-98985666D01*
X107570088Y-99080052D01*
X107570084Y-99080055D01*
X107449955Y-99200184D01*
X107449952Y-99200188D01*
X107355566Y-99341446D01*
X107355561Y-99341455D01*
X107290546Y-99498417D01*
X107290544Y-99498423D01*
X107257400Y-99665048D01*
X107257400Y-99665051D01*
X107257400Y-99834949D01*
X107257400Y-99834951D01*
X107257399Y-99834951D01*
X101675591Y-99834951D01*
X101690500Y-99779309D01*
X101690500Y-99660691D01*
X101659799Y-99546114D01*
X101600489Y-99443387D01*
X101516613Y-99359511D01*
X101413886Y-99300201D01*
X101299309Y-99269500D01*
X101180691Y-99269500D01*
X101066114Y-99300201D01*
X101066112Y-99300201D01*
X101066112Y-99300202D01*
X100963387Y-99359511D01*
X100963384Y-99359513D01*
X100879513Y-99443384D01*
X100879511Y-99443387D01*
X100847739Y-99498418D01*
X100820201Y-99546114D01*
X100789500Y-99660691D01*
X94895141Y-99660691D01*
X94869799Y-99566114D01*
X94810489Y-99463387D01*
X94726613Y-99379511D01*
X94623886Y-99320201D01*
X94509309Y-99289500D01*
X94390691Y-99289500D01*
X94276114Y-99320201D01*
X94276112Y-99320201D01*
X94276112Y-99320202D01*
X94173387Y-99379511D01*
X94173384Y-99379513D01*
X94089513Y-99463384D01*
X94089511Y-99463387D01*
X94030201Y-99566114D01*
X93999500Y-99680691D01*
X83582400Y-99680691D01*
X83582400Y-99665048D01*
X83549255Y-99498423D01*
X83549254Y-99498422D01*
X83549254Y-99498418D01*
X83484237Y-99341453D01*
X83484236Y-99341452D01*
X83484233Y-99341446D01*
X83389847Y-99200188D01*
X83389844Y-99200184D01*
X83269715Y-99080055D01*
X83269711Y-99080052D01*
X83128453Y-98985666D01*
X83128444Y-98985661D01*
X82971482Y-98920646D01*
X82971476Y-98920644D01*
X82838438Y-98894181D01*
X82804851Y-98887500D01*
X82804849Y-98887500D01*
X82634951Y-98887500D01*
X82634949Y-98887500D01*
X82468323Y-98920644D01*
X82468317Y-98920646D01*
X82311355Y-98985661D01*
X82311346Y-98985666D01*
X82170088Y-99080052D01*
X82170084Y-99080055D01*
X82049955Y-99200184D01*
X82049952Y-99200188D01*
X81955566Y-99341446D01*
X81955561Y-99341455D01*
X81890546Y-99498417D01*
X81890544Y-99498423D01*
X81857400Y-99665048D01*
X81857400Y-99665051D01*
X81857400Y-99834949D01*
X81857400Y-99834951D01*
X81857399Y-99834951D01*
X77900500Y-99834951D01*
X77900500Y-98780691D01*
X95209500Y-98780691D01*
X95209500Y-98899309D01*
X95240201Y-99013886D01*
X95299511Y-99116613D01*
X95383387Y-99200489D01*
X95486114Y-99259799D01*
X95600691Y-99290500D01*
X95600694Y-99290500D01*
X95719306Y-99290500D01*
X95719309Y-99290500D01*
X95833886Y-99259799D01*
X95936613Y-99200489D01*
X96020489Y-99116613D01*
X96079799Y-99013886D01*
X96110500Y-98899309D01*
X96110500Y-98890691D01*
X99309500Y-98890691D01*
X99309500Y-99009309D01*
X99340201Y-99123886D01*
X99399511Y-99226613D01*
X99483387Y-99310489D01*
X99586114Y-99369799D01*
X99700691Y-99400500D01*
X99700694Y-99400500D01*
X99819306Y-99400500D01*
X99819309Y-99400500D01*
X99933886Y-99369799D01*
X100036613Y-99310489D01*
X100120489Y-99226613D01*
X100179799Y-99123886D01*
X100210500Y-99009309D01*
X100210500Y-98890691D01*
X100179799Y-98776114D01*
X100120489Y-98673387D01*
X100036613Y-98589511D01*
X99933886Y-98530201D01*
X99819309Y-98499500D01*
X99700691Y-98499500D01*
X99586114Y-98530201D01*
X99586112Y-98530201D01*
X99586112Y-98530202D01*
X99483387Y-98589511D01*
X99483384Y-98589513D01*
X99399513Y-98673384D01*
X99399511Y-98673387D01*
X99340201Y-98776114D01*
X99309500Y-98890691D01*
X96110500Y-98890691D01*
X96110500Y-98780691D01*
X96079799Y-98666114D01*
X96020489Y-98563387D01*
X95936613Y-98479511D01*
X95833886Y-98420201D01*
X95719309Y-98389500D01*
X95600691Y-98389500D01*
X95486114Y-98420201D01*
X95486112Y-98420201D01*
X95486112Y-98420202D01*
X95383387Y-98479511D01*
X95383384Y-98479513D01*
X95299513Y-98563384D01*
X95299511Y-98563387D01*
X95240201Y-98666114D01*
X95209500Y-98780691D01*
X77900500Y-98780691D01*
X77900500Y-97294951D01*
X81857399Y-97294951D01*
X81890544Y-97461576D01*
X81890546Y-97461582D01*
X81955561Y-97618544D01*
X81955566Y-97618553D01*
X82049952Y-97759811D01*
X82049955Y-97759815D01*
X82170084Y-97879944D01*
X82170088Y-97879947D01*
X82311346Y-97974333D01*
X82311355Y-97974338D01*
X82325266Y-97980100D01*
X82468318Y-98039354D01*
X82468322Y-98039354D01*
X82468323Y-98039355D01*
X82634948Y-98072500D01*
X82634951Y-98072500D01*
X82804851Y-98072500D01*
X82916952Y-98050200D01*
X82971482Y-98039354D01*
X83128447Y-97974337D01*
X83269712Y-97879947D01*
X83389847Y-97759812D01*
X83467111Y-97644178D01*
X93324436Y-97644178D01*
X93324436Y-97762796D01*
X93355137Y-97877373D01*
X93414447Y-97980100D01*
X93498323Y-98063976D01*
X93601050Y-98123286D01*
X93715627Y-98153987D01*
X93715630Y-98153987D01*
X93834242Y-98153987D01*
X93834245Y-98153987D01*
X93948822Y-98123286D01*
X94051549Y-98063976D01*
X94135425Y-97980100D01*
X94194735Y-97877373D01*
X94225436Y-97762796D01*
X94225436Y-97644178D01*
X94224502Y-97640691D01*
X101319500Y-97640691D01*
X101319500Y-97759309D01*
X101350201Y-97873886D01*
X101409511Y-97976613D01*
X101493387Y-98060489D01*
X101596114Y-98119799D01*
X101710691Y-98150500D01*
X101710694Y-98150500D01*
X101829306Y-98150500D01*
X101829309Y-98150500D01*
X101943886Y-98119799D01*
X102046613Y-98060489D01*
X102130489Y-97976613D01*
X102189799Y-97873886D01*
X102220500Y-97759309D01*
X102220500Y-97640691D01*
X102189799Y-97526114D01*
X102130489Y-97423387D01*
X102046613Y-97339511D01*
X101969434Y-97294951D01*
X107257399Y-97294951D01*
X107290544Y-97461576D01*
X107290546Y-97461582D01*
X107355561Y-97618544D01*
X107355566Y-97618553D01*
X107449952Y-97759811D01*
X107449955Y-97759815D01*
X107570084Y-97879944D01*
X107570088Y-97879947D01*
X107711346Y-97974333D01*
X107711355Y-97974338D01*
X107725266Y-97980100D01*
X107868318Y-98039354D01*
X107868322Y-98039354D01*
X107868323Y-98039355D01*
X108034948Y-98072500D01*
X108034951Y-98072500D01*
X108204851Y-98072500D01*
X108316952Y-98050200D01*
X108371482Y-98039354D01*
X108528447Y-97974337D01*
X108669712Y-97879947D01*
X108789847Y-97759812D01*
X108884237Y-97618547D01*
X108949254Y-97461582D01*
X108972842Y-97343000D01*
X108982400Y-97294951D01*
X108982400Y-97125048D01*
X108949255Y-96958423D01*
X108949254Y-96958422D01*
X108949254Y-96958418D01*
X108884237Y-96801453D01*
X108884236Y-96801452D01*
X108884233Y-96801446D01*
X108789847Y-96660188D01*
X108789844Y-96660184D01*
X108669715Y-96540055D01*
X108669711Y-96540052D01*
X108528453Y-96445666D01*
X108528444Y-96445661D01*
X108371482Y-96380646D01*
X108371476Y-96380644D01*
X108204851Y-96347500D01*
X108204849Y-96347500D01*
X108034951Y-96347500D01*
X108034949Y-96347500D01*
X107868323Y-96380644D01*
X107868317Y-96380646D01*
X107711355Y-96445661D01*
X107711346Y-96445666D01*
X107570088Y-96540052D01*
X107570084Y-96540055D01*
X107449955Y-96660184D01*
X107449952Y-96660188D01*
X107355566Y-96801446D01*
X107355561Y-96801455D01*
X107290546Y-96958417D01*
X107290544Y-96958423D01*
X107257400Y-97125048D01*
X107257400Y-97125051D01*
X107257400Y-97294949D01*
X107257400Y-97294951D01*
X107257399Y-97294951D01*
X101969434Y-97294951D01*
X101943886Y-97280201D01*
X101829309Y-97249500D01*
X101710691Y-97249500D01*
X101596114Y-97280201D01*
X101596112Y-97280201D01*
X101596112Y-97280202D01*
X101493387Y-97339511D01*
X101493384Y-97339513D01*
X101409513Y-97423384D01*
X101409511Y-97423387D01*
X101350201Y-97526114D01*
X101319500Y-97640691D01*
X94224502Y-97640691D01*
X94194735Y-97529601D01*
X94135425Y-97426874D01*
X94051549Y-97342998D01*
X93948822Y-97283688D01*
X93834245Y-97252987D01*
X93715627Y-97252987D01*
X93601050Y-97283688D01*
X93601048Y-97283688D01*
X93601048Y-97283689D01*
X93498323Y-97342998D01*
X93498320Y-97343000D01*
X93414449Y-97426871D01*
X93414447Y-97426874D01*
X93355137Y-97529601D01*
X93324436Y-97644178D01*
X83467111Y-97644178D01*
X83484237Y-97618547D01*
X83549254Y-97461582D01*
X83572842Y-97343000D01*
X83582400Y-97294951D01*
X83582400Y-97125048D01*
X83549255Y-96958423D01*
X83549254Y-96958422D01*
X83549254Y-96958418D01*
X83484237Y-96801453D01*
X83484236Y-96801452D01*
X83484233Y-96801446D01*
X83389847Y-96660188D01*
X83389844Y-96660184D01*
X83269715Y-96540055D01*
X83269711Y-96540052D01*
X83148793Y-96459257D01*
X94300985Y-96459257D01*
X94300985Y-96577875D01*
X94331686Y-96692452D01*
X94390996Y-96795179D01*
X94474872Y-96879055D01*
X94577599Y-96938365D01*
X94692176Y-96969066D01*
X94692179Y-96969066D01*
X94810791Y-96969066D01*
X94810794Y-96969066D01*
X94925371Y-96938365D01*
X95028098Y-96879055D01*
X95111974Y-96795179D01*
X95171284Y-96692452D01*
X95201985Y-96577875D01*
X95201985Y-96470691D01*
X100349500Y-96470691D01*
X100349500Y-96589309D01*
X100380201Y-96703886D01*
X100439511Y-96806613D01*
X100523387Y-96890489D01*
X100626114Y-96949799D01*
X100740691Y-96980500D01*
X100740694Y-96980500D01*
X100859306Y-96980500D01*
X100859309Y-96980500D01*
X100973886Y-96949799D01*
X101076613Y-96890489D01*
X101160489Y-96806613D01*
X101219799Y-96703886D01*
X101250500Y-96589309D01*
X101250500Y-96470691D01*
X101219799Y-96356114D01*
X101160489Y-96253387D01*
X101076613Y-96169511D01*
X100973886Y-96110201D01*
X100859309Y-96079500D01*
X100740691Y-96079500D01*
X100626114Y-96110201D01*
X100626112Y-96110201D01*
X100626112Y-96110202D01*
X100523387Y-96169511D01*
X100523384Y-96169513D01*
X100439513Y-96253384D01*
X100439511Y-96253387D01*
X100380201Y-96356114D01*
X100349500Y-96470691D01*
X95201985Y-96470691D01*
X95201985Y-96459257D01*
X95171284Y-96344680D01*
X95111974Y-96241953D01*
X95028098Y-96158077D01*
X94925371Y-96098767D01*
X94810794Y-96068066D01*
X94692176Y-96068066D01*
X94577599Y-96098767D01*
X94577597Y-96098767D01*
X94577597Y-96098768D01*
X94474872Y-96158077D01*
X94474869Y-96158079D01*
X94390998Y-96241950D01*
X94390996Y-96241953D01*
X94384395Y-96253387D01*
X94331686Y-96344680D01*
X94300985Y-96459257D01*
X83148793Y-96459257D01*
X83128453Y-96445666D01*
X83128444Y-96445661D01*
X82971482Y-96380646D01*
X82971476Y-96380644D01*
X82804851Y-96347500D01*
X82804849Y-96347500D01*
X82634951Y-96347500D01*
X82634949Y-96347500D01*
X82468323Y-96380644D01*
X82468317Y-96380646D01*
X82311355Y-96445661D01*
X82311346Y-96445666D01*
X82170088Y-96540052D01*
X82170084Y-96540055D01*
X82049955Y-96660184D01*
X82049952Y-96660188D01*
X81955566Y-96801446D01*
X81955561Y-96801455D01*
X81890546Y-96958417D01*
X81890544Y-96958423D01*
X81857400Y-97125048D01*
X81857400Y-97125051D01*
X81857400Y-97294949D01*
X81857400Y-97294951D01*
X81857399Y-97294951D01*
X77900500Y-97294951D01*
X77900500Y-94754951D01*
X81857399Y-94754951D01*
X81890544Y-94921576D01*
X81890546Y-94921582D01*
X81955561Y-95078544D01*
X81955566Y-95078553D01*
X82049952Y-95219811D01*
X82049955Y-95219815D01*
X82170084Y-95339944D01*
X82170088Y-95339947D01*
X82311346Y-95434333D01*
X82311352Y-95434336D01*
X82311353Y-95434337D01*
X82468318Y-95499354D01*
X82468322Y-95499354D01*
X82468323Y-95499355D01*
X82634948Y-95532500D01*
X82634951Y-95532500D01*
X82804851Y-95532500D01*
X82916952Y-95510200D01*
X82971482Y-95499354D01*
X83128447Y-95434337D01*
X83269712Y-95339947D01*
X83389847Y-95219812D01*
X83484237Y-95078547D01*
X83549254Y-94921582D01*
X83582400Y-94754951D01*
X107257399Y-94754951D01*
X107290544Y-94921576D01*
X107290546Y-94921582D01*
X107355561Y-95078544D01*
X107355566Y-95078553D01*
X107449952Y-95219811D01*
X107449955Y-95219815D01*
X107570084Y-95339944D01*
X107570088Y-95339947D01*
X107711346Y-95434333D01*
X107711352Y-95434336D01*
X107711353Y-95434337D01*
X107868318Y-95499354D01*
X107868322Y-95499354D01*
X107868323Y-95499355D01*
X108034948Y-95532500D01*
X108034951Y-95532500D01*
X108204851Y-95532500D01*
X108316952Y-95510200D01*
X108371482Y-95499354D01*
X108528447Y-95434337D01*
X108669712Y-95339947D01*
X108789847Y-95219812D01*
X108884237Y-95078547D01*
X108949254Y-94921582D01*
X108982400Y-94754949D01*
X108982400Y-94585051D01*
X108982400Y-94585048D01*
X108949255Y-94418423D01*
X108949254Y-94418422D01*
X108949254Y-94418418D01*
X108884237Y-94261453D01*
X108884236Y-94261452D01*
X108884233Y-94261446D01*
X108789847Y-94120188D01*
X108789844Y-94120184D01*
X108669715Y-94000055D01*
X108669711Y-94000052D01*
X108528453Y-93905666D01*
X108528444Y-93905661D01*
X108371482Y-93840646D01*
X108371476Y-93840644D01*
X108204851Y-93807500D01*
X108204849Y-93807500D01*
X108034951Y-93807500D01*
X108034949Y-93807500D01*
X107868323Y-93840644D01*
X107868317Y-93840646D01*
X107711355Y-93905661D01*
X107711346Y-93905666D01*
X107570088Y-94000052D01*
X107570084Y-94000055D01*
X107449955Y-94120184D01*
X107449952Y-94120188D01*
X107355566Y-94261446D01*
X107355561Y-94261455D01*
X107290546Y-94418417D01*
X107290544Y-94418423D01*
X107257400Y-94585048D01*
X107257400Y-94585051D01*
X107257400Y-94754949D01*
X107257400Y-94754951D01*
X107257399Y-94754951D01*
X83582400Y-94754951D01*
X83582400Y-94754949D01*
X83582400Y-94585051D01*
X83582400Y-94585048D01*
X83549255Y-94418423D01*
X83549254Y-94418422D01*
X83549254Y-94418418D01*
X83484237Y-94261453D01*
X83484236Y-94261452D01*
X83484233Y-94261446D01*
X83389847Y-94120188D01*
X83389844Y-94120184D01*
X83269715Y-94000055D01*
X83269711Y-94000052D01*
X83128453Y-93905666D01*
X83128444Y-93905661D01*
X82971482Y-93840646D01*
X82971476Y-93840644D01*
X82804851Y-93807500D01*
X82804849Y-93807500D01*
X82634951Y-93807500D01*
X82634949Y-93807500D01*
X82468323Y-93840644D01*
X82468317Y-93840646D01*
X82311355Y-93905661D01*
X82311346Y-93905666D01*
X82170088Y-94000052D01*
X82170084Y-94000055D01*
X82049955Y-94120184D01*
X82049952Y-94120188D01*
X81955566Y-94261446D01*
X81955561Y-94261455D01*
X81890546Y-94418417D01*
X81890544Y-94418423D01*
X81857400Y-94585048D01*
X81857400Y-94585051D01*
X81857400Y-94754949D01*
X81857400Y-94754951D01*
X81857399Y-94754951D01*
X77900500Y-94754951D01*
X77900500Y-91824500D01*
X77920185Y-91757461D01*
X77972989Y-91711706D01*
X78024500Y-91700500D01*
X112775500Y-91700500D01*
X112842539Y-91720185D01*
G37*
%TD.AperFunction*%
%TD*%
%TA.AperFunction,Conductor*%
%TO.N,+5V*%
G36*
X89107051Y-139319685D02*
G01*
X89137234Y-139347033D01*
X90097104Y-140559500D01*
X92900000Y-144100000D01*
X94176541Y-144100000D01*
X94243580Y-144119685D01*
X94289335Y-144172489D01*
X94300540Y-144223457D01*
X94310414Y-146479767D01*
X94291023Y-146546892D01*
X94238420Y-146592878D01*
X94218512Y-146600083D01*
X94106114Y-146630201D01*
X94106112Y-146630201D01*
X94106112Y-146630202D01*
X94003387Y-146689511D01*
X94003384Y-146689513D01*
X93919513Y-146773384D01*
X93919511Y-146773387D01*
X93860201Y-146876114D01*
X93829500Y-146990691D01*
X93829500Y-147109309D01*
X93860201Y-147223886D01*
X93919511Y-147326613D01*
X94003387Y-147410489D01*
X94106114Y-147469799D01*
X94220691Y-147500500D01*
X94220694Y-147500500D01*
X94223500Y-147501252D01*
X94283161Y-147537617D01*
X94313690Y-147600464D01*
X94315406Y-147620484D01*
X94318823Y-148401328D01*
X94299432Y-148468453D01*
X94246829Y-148514439D01*
X94177714Y-148524685D01*
X94158533Y-148519477D01*
X94158282Y-148520306D01*
X94152455Y-148518538D01*
X94152452Y-148518537D01*
X94152447Y-148518536D01*
X94152444Y-148518535D01*
X94031610Y-148494500D01*
X94031606Y-148494500D01*
X93908394Y-148494500D01*
X93908389Y-148494500D01*
X93787555Y-148518535D01*
X93787545Y-148518538D01*
X93673716Y-148565687D01*
X93673707Y-148565692D01*
X93571267Y-148634141D01*
X93571263Y-148634144D01*
X93484144Y-148721263D01*
X93484141Y-148721267D01*
X93415692Y-148823707D01*
X93415687Y-148823716D01*
X93368538Y-148937545D01*
X93368535Y-148937555D01*
X93344500Y-149058389D01*
X93344500Y-149181610D01*
X93368535Y-149302444D01*
X93368538Y-149302454D01*
X93415687Y-149416283D01*
X93415692Y-149416292D01*
X93484141Y-149518732D01*
X93484144Y-149518736D01*
X93571263Y-149605855D01*
X93571267Y-149605858D01*
X93673707Y-149674307D01*
X93673713Y-149674310D01*
X93673714Y-149674311D01*
X93787548Y-149721463D01*
X93904709Y-149744767D01*
X93908389Y-149745499D01*
X93908393Y-149745500D01*
X93908394Y-149745500D01*
X94031607Y-149745500D01*
X94031608Y-149745499D01*
X94152452Y-149721463D01*
X94153637Y-149720971D01*
X94154306Y-149720899D01*
X94158282Y-149719694D01*
X94158510Y-149720447D01*
X94223105Y-149713497D01*
X94285586Y-149744767D01*
X94321244Y-149804853D01*
X94325097Y-149834986D01*
X94335706Y-152259291D01*
X94316315Y-152326416D01*
X94263712Y-152372402D01*
X94243805Y-152379608D01*
X94222823Y-152385230D01*
X94120098Y-152444540D01*
X94120095Y-152444542D01*
X94036224Y-152528413D01*
X94036222Y-152528416D01*
X93977861Y-152629500D01*
X93976912Y-152631143D01*
X93946211Y-152745720D01*
X93946211Y-152864338D01*
X93976912Y-152978915D01*
X94036222Y-153081642D01*
X94120098Y-153165518D01*
X94209059Y-153216880D01*
X94214114Y-153219799D01*
X94222825Y-153224828D01*
X94248579Y-153231728D01*
X94272131Y-153246084D01*
X94297277Y-153257435D01*
X94301545Y-153264012D01*
X94308239Y-153268093D01*
X94320291Y-153292903D01*
X94335308Y-153316047D01*
X94336965Y-153327230D01*
X94338768Y-153330940D01*
X94340484Y-153350960D01*
X94341218Y-153518681D01*
X94341465Y-153574957D01*
X94322074Y-153642082D01*
X94269471Y-153688068D01*
X94217466Y-153699500D01*
X87379786Y-153699500D01*
X87312747Y-153679815D01*
X87266992Y-153627011D01*
X87257048Y-153557853D01*
X87272398Y-153513501D01*
X87286082Y-153489799D01*
X87319577Y-153431784D01*
X87360500Y-153279057D01*
X87360500Y-153275446D01*
X87361361Y-153272512D01*
X87361561Y-153270997D01*
X87361797Y-153271028D01*
X87380185Y-153208407D01*
X87432989Y-153162652D01*
X87502147Y-153152708D01*
X87546497Y-153168058D01*
X87636114Y-153219799D01*
X87750691Y-153250500D01*
X87750694Y-153250500D01*
X87869306Y-153250500D01*
X87869309Y-153250500D01*
X87983886Y-153219799D01*
X88086613Y-153160489D01*
X88170489Y-153076613D01*
X88229799Y-152973886D01*
X88260500Y-152859309D01*
X88260500Y-152740691D01*
X88229799Y-152626114D01*
X88170489Y-152523387D01*
X88086613Y-152439511D01*
X87983886Y-152380201D01*
X87869309Y-152349500D01*
X87750691Y-152349500D01*
X87636114Y-152380201D01*
X87636112Y-152380201D01*
X87636112Y-152380202D01*
X87612808Y-152393656D01*
X87546499Y-152431940D01*
X87478601Y-152448413D01*
X87412574Y-152425561D01*
X87369383Y-152370640D01*
X87360500Y-152324553D01*
X87360500Y-152320945D01*
X87360500Y-152320943D01*
X87319577Y-152168216D01*
X87319573Y-152168209D01*
X87240524Y-152031290D01*
X87240518Y-152031282D01*
X87128717Y-151919481D01*
X87128709Y-151919475D01*
X86991790Y-151840426D01*
X86991786Y-151840424D01*
X86991784Y-151840423D01*
X86839057Y-151799500D01*
X86680943Y-151799500D01*
X86528216Y-151840423D01*
X86528209Y-151840426D01*
X86391290Y-151919475D01*
X86391282Y-151919481D01*
X86279481Y-152031282D01*
X86279475Y-152031290D01*
X86200426Y-152168209D01*
X86200423Y-152168216D01*
X86159500Y-152320943D01*
X86159500Y-152353036D01*
X86139815Y-152420075D01*
X86087011Y-152465830D01*
X86017853Y-152475774D01*
X85954297Y-152446749D01*
X85947819Y-152440717D01*
X85946615Y-152439513D01*
X85946613Y-152439511D01*
X85843886Y-152380201D01*
X85729309Y-152349500D01*
X85610691Y-152349500D01*
X85496114Y-152380201D01*
X85496112Y-152380201D01*
X85496112Y-152380202D01*
X85393387Y-152439511D01*
X85393384Y-152439513D01*
X85309513Y-152523384D01*
X85309511Y-152523387D01*
X85254020Y-152619500D01*
X85250201Y-152626114D01*
X85219500Y-152740691D01*
X85219500Y-152859309D01*
X85250201Y-152973886D01*
X85309511Y-153076613D01*
X85393387Y-153160489D01*
X85496114Y-153219799D01*
X85610691Y-153250500D01*
X85610694Y-153250500D01*
X85729306Y-153250500D01*
X85729309Y-153250500D01*
X85843886Y-153219799D01*
X85946613Y-153160489D01*
X85947819Y-153159283D01*
X85949083Y-153158592D01*
X85953059Y-153155542D01*
X85953534Y-153156161D01*
X86009142Y-153125798D01*
X86078834Y-153130782D01*
X86134767Y-153172654D01*
X86159184Y-153238118D01*
X86159500Y-153246964D01*
X86159500Y-153279057D01*
X86178767Y-153350960D01*
X86200423Y-153431783D01*
X86200423Y-153431784D01*
X86247602Y-153513501D01*
X86264074Y-153581401D01*
X86241221Y-153647428D01*
X86186299Y-153690618D01*
X86140214Y-153699500D01*
X84820768Y-153699500D01*
X84753729Y-153679815D01*
X84707974Y-153627011D01*
X84698030Y-153557853D01*
X84727055Y-153494297D01*
X84758767Y-153468113D01*
X84806613Y-153440489D01*
X84890489Y-153356613D01*
X84949799Y-153253886D01*
X84980500Y-153139309D01*
X84980500Y-153020691D01*
X84949799Y-152906114D01*
X84890489Y-152803387D01*
X84806613Y-152719511D01*
X84703886Y-152660201D01*
X84589309Y-152629500D01*
X84470691Y-152629500D01*
X84356114Y-152660201D01*
X84356112Y-152660201D01*
X84356112Y-152660202D01*
X84253387Y-152719511D01*
X84253384Y-152719513D01*
X84169513Y-152803384D01*
X84169511Y-152803387D01*
X84115975Y-152896114D01*
X84110201Y-152906114D01*
X84079500Y-153020691D01*
X84079500Y-153139309D01*
X84110201Y-153253886D01*
X84169511Y-153356613D01*
X84253387Y-153440489D01*
X84301233Y-153468113D01*
X84349448Y-153518681D01*
X84362670Y-153587288D01*
X84336702Y-153652153D01*
X84279787Y-153692680D01*
X84239232Y-153699500D01*
X82720768Y-153699500D01*
X82653729Y-153679815D01*
X82607974Y-153627011D01*
X82598030Y-153557853D01*
X82627055Y-153494297D01*
X82658767Y-153468113D01*
X82706613Y-153440489D01*
X82790489Y-153356613D01*
X82849799Y-153253886D01*
X82880500Y-153139309D01*
X82880500Y-153020691D01*
X82849799Y-152906114D01*
X82790489Y-152803387D01*
X82706613Y-152719511D01*
X82603886Y-152660201D01*
X82489309Y-152629500D01*
X82370691Y-152629500D01*
X82256114Y-152660201D01*
X82256112Y-152660201D01*
X82256112Y-152660202D01*
X82153387Y-152719511D01*
X82153384Y-152719513D01*
X82069513Y-152803384D01*
X82069511Y-152803387D01*
X82015975Y-152896114D01*
X82010201Y-152906114D01*
X81979500Y-153020691D01*
X81979500Y-153139309D01*
X82010201Y-153253886D01*
X82069511Y-153356613D01*
X82153387Y-153440489D01*
X82201233Y-153468113D01*
X82249448Y-153518681D01*
X82262670Y-153587288D01*
X82236702Y-153652153D01*
X82179787Y-153692680D01*
X82139232Y-153699500D01*
X80643448Y-153699500D01*
X80576409Y-153679815D01*
X80530654Y-153627011D01*
X80520710Y-153557853D01*
X80549735Y-153494297D01*
X80581447Y-153468113D01*
X80583468Y-153466945D01*
X80646613Y-153430489D01*
X80730489Y-153346613D01*
X80789799Y-153243886D01*
X80820500Y-153129309D01*
X80820500Y-153010691D01*
X80789799Y-152896114D01*
X80730489Y-152793387D01*
X80646613Y-152709511D01*
X80543886Y-152650201D01*
X80429309Y-152619500D01*
X80310691Y-152619500D01*
X80196114Y-152650201D01*
X80196112Y-152650201D01*
X80196112Y-152650202D01*
X80093387Y-152709511D01*
X80093384Y-152709513D01*
X80009513Y-152793384D01*
X80009511Y-152793387D01*
X79971451Y-152859309D01*
X79950201Y-152896114D01*
X79919500Y-153010691D01*
X79919500Y-153129309D01*
X79950201Y-153243886D01*
X80009511Y-153346613D01*
X80093387Y-153430489D01*
X80155420Y-153466304D01*
X80158553Y-153468113D01*
X80206768Y-153518681D01*
X80219990Y-153587288D01*
X80194022Y-153652153D01*
X80137107Y-153692681D01*
X80096552Y-153699500D01*
X78543448Y-153699500D01*
X78476409Y-153679815D01*
X78430654Y-153627011D01*
X78420710Y-153557853D01*
X78449735Y-153494297D01*
X78481447Y-153468113D01*
X78483468Y-153466945D01*
X78546613Y-153430489D01*
X78630489Y-153346613D01*
X78689799Y-153243886D01*
X78720500Y-153129309D01*
X78720500Y-153010691D01*
X78689799Y-152896114D01*
X78630489Y-152793387D01*
X78546613Y-152709511D01*
X78443886Y-152650201D01*
X78329309Y-152619500D01*
X78210691Y-152619500D01*
X78105505Y-152647684D01*
X78096110Y-152650202D01*
X78086500Y-152655751D01*
X78018600Y-152672224D01*
X77952573Y-152649371D01*
X77909382Y-152594450D01*
X77900500Y-152548364D01*
X77900500Y-150080691D01*
X78879500Y-150080691D01*
X78879500Y-150199309D01*
X78910201Y-150313886D01*
X78969511Y-150416613D01*
X79053387Y-150500489D01*
X79156114Y-150559799D01*
X79270691Y-150590500D01*
X79270694Y-150590500D01*
X79389306Y-150590500D01*
X79389309Y-150590500D01*
X79503886Y-150559799D01*
X79606613Y-150500489D01*
X79690489Y-150416613D01*
X79749799Y-150313886D01*
X79780500Y-150199309D01*
X79780500Y-150080691D01*
X79749799Y-149966114D01*
X79690489Y-149863387D01*
X79606613Y-149779511D01*
X79503886Y-149720201D01*
X79389309Y-149689500D01*
X79270691Y-149689500D01*
X79156114Y-149720201D01*
X79156112Y-149720201D01*
X79156112Y-149720202D01*
X79053387Y-149779511D01*
X79053384Y-149779513D01*
X78969513Y-149863384D01*
X78969511Y-149863387D01*
X78910201Y-149966114D01*
X78879500Y-150080691D01*
X77900500Y-150080691D01*
X77900500Y-149080691D01*
X80659500Y-149080691D01*
X80659500Y-149199309D01*
X80690201Y-149313886D01*
X80749511Y-149416613D01*
X80833387Y-149500489D01*
X80936114Y-149559799D01*
X81050691Y-149590500D01*
X81050694Y-149590500D01*
X81169306Y-149590500D01*
X81169309Y-149590500D01*
X81283886Y-149559799D01*
X81386613Y-149500489D01*
X81470489Y-149416613D01*
X81529799Y-149313886D01*
X81560500Y-149199309D01*
X81560500Y-149080691D01*
X81529799Y-148966114D01*
X81470489Y-148863387D01*
X81386613Y-148779511D01*
X81283886Y-148720201D01*
X81169309Y-148689500D01*
X81050691Y-148689500D01*
X80936114Y-148720201D01*
X80936112Y-148720201D01*
X80936112Y-148720202D01*
X80833387Y-148779511D01*
X80833384Y-148779513D01*
X80749513Y-148863384D01*
X80749511Y-148863387D01*
X80690201Y-148966114D01*
X80659500Y-149080691D01*
X77900500Y-149080691D01*
X77900500Y-148564114D01*
X85296452Y-148564114D01*
X85296452Y-148682732D01*
X85327153Y-148797309D01*
X85386463Y-148900036D01*
X85470339Y-148983912D01*
X85573066Y-149043222D01*
X85687643Y-149073923D01*
X85687646Y-149073923D01*
X85806258Y-149073923D01*
X85806261Y-149073923D01*
X85920838Y-149043222D01*
X85973499Y-149012817D01*
X86041398Y-148996344D01*
X86107426Y-149019196D01*
X86150617Y-149074116D01*
X86159500Y-149120204D01*
X86159500Y-149249057D01*
X86172359Y-149297045D01*
X86200423Y-149401783D01*
X86200426Y-149401790D01*
X86279475Y-149538709D01*
X86279479Y-149538714D01*
X86279480Y-149538716D01*
X86391284Y-149650520D01*
X86420198Y-149667213D01*
X86468414Y-149717780D01*
X86481638Y-149786387D01*
X86455670Y-149851252D01*
X86445881Y-149862281D01*
X86400963Y-149907199D01*
X86400960Y-149907203D01*
X86366949Y-149966112D01*
X86341650Y-150009930D01*
X86310949Y-150124507D01*
X86310949Y-150243125D01*
X86341650Y-150357702D01*
X86400960Y-150460429D01*
X86484836Y-150544305D01*
X86587563Y-150603615D01*
X86702140Y-150634316D01*
X86702143Y-150634316D01*
X86820755Y-150634316D01*
X86820758Y-150634316D01*
X86935335Y-150603615D01*
X87038062Y-150544305D01*
X87121938Y-150460429D01*
X87181248Y-150357702D01*
X87211949Y-150243125D01*
X87211949Y-150124507D01*
X87181248Y-150009930D01*
X87121938Y-149907203D01*
X87075956Y-149861221D01*
X87042471Y-149799898D01*
X87047455Y-149730206D01*
X87089327Y-149674273D01*
X87101625Y-149666160D01*
X87128716Y-149650520D01*
X87240520Y-149538716D01*
X87319577Y-149401784D01*
X87347642Y-149297043D01*
X87384006Y-149237384D01*
X87446853Y-149206855D01*
X87516228Y-149215150D01*
X87570106Y-149259635D01*
X87585692Y-149296948D01*
X87586769Y-149296622D01*
X87588538Y-149302454D01*
X87635687Y-149416283D01*
X87635692Y-149416292D01*
X87704141Y-149518732D01*
X87704144Y-149518736D01*
X87791263Y-149605855D01*
X87791267Y-149605858D01*
X87893707Y-149674307D01*
X87893713Y-149674310D01*
X87893714Y-149674311D01*
X88007548Y-149721463D01*
X88124709Y-149744767D01*
X88128389Y-149745499D01*
X88128393Y-149745500D01*
X88128394Y-149745500D01*
X88251607Y-149745500D01*
X88251608Y-149745499D01*
X88372452Y-149721463D01*
X88486286Y-149674311D01*
X88588733Y-149605858D01*
X88675858Y-149518733D01*
X88744311Y-149416286D01*
X88791463Y-149302452D01*
X88815500Y-149181606D01*
X88815500Y-149058394D01*
X88791463Y-148937548D01*
X88744311Y-148823714D01*
X88744310Y-148823713D01*
X88744307Y-148823707D01*
X88675858Y-148721267D01*
X88675855Y-148721263D01*
X88588736Y-148634144D01*
X88588732Y-148634141D01*
X88486292Y-148565692D01*
X88486283Y-148565687D01*
X88387294Y-148524685D01*
X88372452Y-148518537D01*
X88372448Y-148518536D01*
X88372444Y-148518535D01*
X88251610Y-148494500D01*
X88251606Y-148494500D01*
X88128394Y-148494500D01*
X88128389Y-148494500D01*
X88007555Y-148518535D01*
X88007545Y-148518538D01*
X87893716Y-148565687D01*
X87893707Y-148565692D01*
X87791267Y-148634141D01*
X87791263Y-148634144D01*
X87704144Y-148721263D01*
X87704141Y-148721267D01*
X87635692Y-148823707D01*
X87635687Y-148823717D01*
X87599061Y-148912141D01*
X87555220Y-148966544D01*
X87488926Y-148988609D01*
X87421226Y-148971330D01*
X87373616Y-148920192D01*
X87360500Y-148864688D01*
X87360500Y-147990945D01*
X87360500Y-147990943D01*
X87319577Y-147838216D01*
X87265142Y-147743932D01*
X87248670Y-147676033D01*
X87271523Y-147610006D01*
X87326444Y-147566815D01*
X87340418Y-147562164D01*
X87423886Y-147539799D01*
X87526613Y-147480489D01*
X87610489Y-147396613D01*
X87669799Y-147293886D01*
X87700500Y-147179309D01*
X87700500Y-147060691D01*
X87669799Y-146946114D01*
X87610489Y-146843387D01*
X87526613Y-146759511D01*
X87423886Y-146700201D01*
X87309309Y-146669500D01*
X87190691Y-146669500D01*
X87076114Y-146700201D01*
X87076112Y-146700201D01*
X87076112Y-146700202D01*
X86973387Y-146759511D01*
X86973384Y-146759513D01*
X86889513Y-146843384D01*
X86889511Y-146843387D01*
X86830201Y-146946114D01*
X86799500Y-147060691D01*
X86799500Y-147179309D01*
X86811445Y-147223887D01*
X86830203Y-147293893D01*
X86831927Y-147298055D01*
X86839391Y-147367524D01*
X86808113Y-147430002D01*
X86748021Y-147465650D01*
X86717363Y-147469500D01*
X86680943Y-147469500D01*
X86528216Y-147510423D01*
X86528209Y-147510426D01*
X86391290Y-147589475D01*
X86391282Y-147589481D01*
X86279481Y-147701282D01*
X86279475Y-147701290D01*
X86200426Y-147838209D01*
X86200423Y-147838216D01*
X86159500Y-147990943D01*
X86159500Y-148126641D01*
X86139815Y-148193680D01*
X86087011Y-148239435D01*
X86017853Y-148249379D01*
X85973500Y-148234028D01*
X85920841Y-148203625D01*
X85920842Y-148203625D01*
X85911446Y-148201107D01*
X85806261Y-148172923D01*
X85687643Y-148172923D01*
X85573066Y-148203624D01*
X85573064Y-148203624D01*
X85573064Y-148203625D01*
X85470339Y-148262934D01*
X85470336Y-148262936D01*
X85386465Y-148346807D01*
X85386463Y-148346810D01*
X85327153Y-148449537D01*
X85296452Y-148564114D01*
X77900500Y-148564114D01*
X77900500Y-146540691D01*
X81209500Y-146540691D01*
X81209500Y-146659309D01*
X81240201Y-146773886D01*
X81299511Y-146876613D01*
X81383387Y-146960489D01*
X81486114Y-147019799D01*
X81600691Y-147050500D01*
X81600694Y-147050500D01*
X81719306Y-147050500D01*
X81719309Y-147050500D01*
X81833886Y-147019799D01*
X81936613Y-146960489D01*
X82020489Y-146876613D01*
X82079799Y-146773886D01*
X82110500Y-146659309D01*
X82110500Y-146540691D01*
X82079799Y-146426114D01*
X82020489Y-146323387D01*
X81936613Y-146239511D01*
X81833886Y-146180201D01*
X81719309Y-146149500D01*
X81600691Y-146149500D01*
X81486114Y-146180201D01*
X81486112Y-146180201D01*
X81486112Y-146180202D01*
X81383387Y-146239511D01*
X81383384Y-146239513D01*
X81299513Y-146323384D01*
X81299511Y-146323387D01*
X81278091Y-146360488D01*
X81240201Y-146426114D01*
X81209500Y-146540691D01*
X77900500Y-146540691D01*
X77900500Y-145940691D01*
X89769500Y-145940691D01*
X89769500Y-146059309D01*
X89800201Y-146173886D01*
X89859511Y-146276613D01*
X89943387Y-146360489D01*
X90046114Y-146419799D01*
X90160691Y-146450500D01*
X90160694Y-146450500D01*
X90279306Y-146450500D01*
X90279309Y-146450500D01*
X90393886Y-146419799D01*
X90496613Y-146360489D01*
X90522319Y-146334783D01*
X90583642Y-146301298D01*
X90653334Y-146306282D01*
X90697681Y-146334783D01*
X90723387Y-146360489D01*
X90826114Y-146419799D01*
X90940691Y-146450500D01*
X90940694Y-146450500D01*
X91059306Y-146450500D01*
X91059309Y-146450500D01*
X91173886Y-146419799D01*
X91276613Y-146360489D01*
X91360489Y-146276613D01*
X91419799Y-146173886D01*
X91450500Y-146059309D01*
X91450500Y-145940691D01*
X91419799Y-145826114D01*
X91360489Y-145723387D01*
X91276613Y-145639511D01*
X91173886Y-145580201D01*
X91059309Y-145549500D01*
X90940691Y-145549500D01*
X90826114Y-145580201D01*
X90826112Y-145580201D01*
X90826112Y-145580202D01*
X90723387Y-145639511D01*
X90723384Y-145639513D01*
X90697681Y-145665217D01*
X90636358Y-145698702D01*
X90566666Y-145693718D01*
X90522319Y-145665217D01*
X90496615Y-145639513D01*
X90496613Y-145639511D01*
X90393886Y-145580201D01*
X90279309Y-145549500D01*
X90160691Y-145549500D01*
X90046114Y-145580201D01*
X90046112Y-145580201D01*
X90046112Y-145580202D01*
X89943387Y-145639511D01*
X89943384Y-145639513D01*
X89859513Y-145723384D01*
X89859511Y-145723387D01*
X89800201Y-145826114D01*
X89769500Y-145940691D01*
X77900500Y-145940691D01*
X77900500Y-145160691D01*
X80099500Y-145160691D01*
X80099500Y-145279309D01*
X80130201Y-145393886D01*
X80189511Y-145496613D01*
X80273387Y-145580489D01*
X80376114Y-145639799D01*
X80490691Y-145670500D01*
X80490694Y-145670500D01*
X80609306Y-145670500D01*
X80609309Y-145670500D01*
X80723886Y-145639799D01*
X80826613Y-145580489D01*
X80910489Y-145496613D01*
X80969799Y-145393886D01*
X81000500Y-145279309D01*
X81000500Y-145160691D01*
X80995995Y-145143877D01*
X82289322Y-145143877D01*
X82289322Y-145262495D01*
X82320023Y-145377072D01*
X82379333Y-145479799D01*
X82463209Y-145563675D01*
X82565936Y-145622985D01*
X82680513Y-145653686D01*
X82680516Y-145653686D01*
X82799128Y-145653686D01*
X82799131Y-145653686D01*
X82913708Y-145622985D01*
X83016435Y-145563675D01*
X83100311Y-145479799D01*
X83159621Y-145377072D01*
X83190322Y-145262495D01*
X83190322Y-145143877D01*
X83159621Y-145029300D01*
X83100311Y-144926573D01*
X83044429Y-144870691D01*
X88139500Y-144870691D01*
X88139500Y-144989309D01*
X88170201Y-145103886D01*
X88229511Y-145206613D01*
X88313387Y-145290489D01*
X88416114Y-145349799D01*
X88530691Y-145380500D01*
X88530694Y-145380500D01*
X88649306Y-145380500D01*
X88649309Y-145380500D01*
X88763886Y-145349799D01*
X88866613Y-145290489D01*
X88950489Y-145206613D01*
X89009799Y-145103886D01*
X89040500Y-144989309D01*
X89040500Y-144870691D01*
X89037064Y-144857867D01*
X92629559Y-144857867D01*
X92629559Y-144976485D01*
X92660260Y-145091062D01*
X92719570Y-145193789D01*
X92803446Y-145277665D01*
X92906173Y-145336975D01*
X93020750Y-145367676D01*
X93020753Y-145367676D01*
X93139365Y-145367676D01*
X93139368Y-145367676D01*
X93253945Y-145336975D01*
X93356672Y-145277665D01*
X93440548Y-145193789D01*
X93499858Y-145091062D01*
X93530559Y-144976485D01*
X93530559Y-144857867D01*
X93499858Y-144743290D01*
X93440548Y-144640563D01*
X93356672Y-144556687D01*
X93253945Y-144497377D01*
X93139368Y-144466676D01*
X93020750Y-144466676D01*
X92906173Y-144497377D01*
X92906171Y-144497377D01*
X92906171Y-144497378D01*
X92803446Y-144556687D01*
X92803443Y-144556689D01*
X92719572Y-144640560D01*
X92719570Y-144640563D01*
X92660260Y-144743290D01*
X92629559Y-144857867D01*
X89037064Y-144857867D01*
X89009799Y-144756114D01*
X88950489Y-144653387D01*
X88866613Y-144569511D01*
X88763886Y-144510201D01*
X88649309Y-144479500D01*
X88530691Y-144479500D01*
X88416114Y-144510201D01*
X88416112Y-144510201D01*
X88416112Y-144510202D01*
X88313387Y-144569511D01*
X88313384Y-144569513D01*
X88229513Y-144653384D01*
X88229511Y-144653387D01*
X88170201Y-144756114D01*
X88139500Y-144870691D01*
X83044429Y-144870691D01*
X83016435Y-144842697D01*
X82913708Y-144783387D01*
X82799131Y-144752686D01*
X82680513Y-144752686D01*
X82565936Y-144783387D01*
X82565934Y-144783387D01*
X82565934Y-144783388D01*
X82463209Y-144842697D01*
X82463206Y-144842699D01*
X82379335Y-144926570D01*
X82379334Y-144926572D01*
X82379333Y-144926573D01*
X82320023Y-145029300D01*
X82289322Y-145143877D01*
X80995995Y-145143877D01*
X80969799Y-145046114D01*
X80910489Y-144943387D01*
X80826613Y-144859511D01*
X80723886Y-144800201D01*
X80609309Y-144769500D01*
X80490691Y-144769500D01*
X80376114Y-144800201D01*
X80376112Y-144800201D01*
X80376112Y-144800202D01*
X80273387Y-144859511D01*
X80273384Y-144859513D01*
X80189513Y-144943384D01*
X80189511Y-144943387D01*
X80130201Y-145046114D01*
X80099500Y-145160691D01*
X77900500Y-145160691D01*
X77900500Y-142130691D01*
X81259500Y-142130691D01*
X81259500Y-142249309D01*
X81290201Y-142363886D01*
X81349511Y-142466613D01*
X81433387Y-142550489D01*
X81536114Y-142609799D01*
X81650691Y-142640500D01*
X81650694Y-142640500D01*
X81769306Y-142640500D01*
X81769309Y-142640500D01*
X81883886Y-142609799D01*
X81986613Y-142550489D01*
X82026411Y-142510691D01*
X88099500Y-142510691D01*
X88099500Y-142629309D01*
X88130201Y-142743886D01*
X88189511Y-142846613D01*
X88273387Y-142930489D01*
X88376114Y-142989799D01*
X88490691Y-143020500D01*
X88490694Y-143020500D01*
X88609306Y-143020500D01*
X88609309Y-143020500D01*
X88723886Y-142989799D01*
X88826613Y-142930489D01*
X88910489Y-142846613D01*
X88969799Y-142743886D01*
X89000500Y-142629309D01*
X89000500Y-142510691D01*
X88969799Y-142396114D01*
X88910489Y-142293387D01*
X88826613Y-142209511D01*
X88723886Y-142150201D01*
X88609309Y-142119500D01*
X88490691Y-142119500D01*
X88376114Y-142150201D01*
X88376112Y-142150201D01*
X88376112Y-142150202D01*
X88273387Y-142209511D01*
X88273384Y-142209513D01*
X88189513Y-142293384D01*
X88189511Y-142293387D01*
X88130201Y-142396114D01*
X88099500Y-142510691D01*
X82026411Y-142510691D01*
X82070489Y-142466613D01*
X82129799Y-142363886D01*
X82160500Y-142249309D01*
X82160500Y-142130691D01*
X82129799Y-142016114D01*
X82070489Y-141913387D01*
X81986613Y-141829511D01*
X81883886Y-141770201D01*
X81769309Y-141739500D01*
X81650691Y-141739500D01*
X81536114Y-141770201D01*
X81536112Y-141770201D01*
X81536112Y-141770202D01*
X81433387Y-141829511D01*
X81433384Y-141829513D01*
X81349513Y-141913384D01*
X81349511Y-141913387D01*
X81290201Y-142016114D01*
X81259500Y-142130691D01*
X77900500Y-142130691D01*
X77900500Y-141500691D01*
X89029500Y-141500691D01*
X89029500Y-141619309D01*
X89060201Y-141733886D01*
X89119511Y-141836613D01*
X89203387Y-141920489D01*
X89306114Y-141979799D01*
X89420691Y-142010500D01*
X89420694Y-142010500D01*
X89539306Y-142010500D01*
X89539309Y-142010500D01*
X89653886Y-141979799D01*
X89756613Y-141920489D01*
X89840489Y-141836613D01*
X89899799Y-141733886D01*
X89930500Y-141619309D01*
X89930500Y-141500691D01*
X89899799Y-141386114D01*
X89840489Y-141283387D01*
X89756613Y-141199511D01*
X89653886Y-141140201D01*
X89539309Y-141109500D01*
X89420691Y-141109500D01*
X89306114Y-141140201D01*
X89306112Y-141140201D01*
X89306112Y-141140202D01*
X89203387Y-141199511D01*
X89203384Y-141199513D01*
X89119513Y-141283384D01*
X89119511Y-141283387D01*
X89060201Y-141386114D01*
X89029500Y-141500691D01*
X77900500Y-141500691D01*
X77900500Y-140950691D01*
X82289500Y-140950691D01*
X82289500Y-141069309D01*
X82320201Y-141183886D01*
X82379511Y-141286613D01*
X82463387Y-141370489D01*
X82566114Y-141429799D01*
X82680691Y-141460500D01*
X82680694Y-141460500D01*
X82799306Y-141460500D01*
X82799309Y-141460500D01*
X82913886Y-141429799D01*
X83016613Y-141370489D01*
X83100489Y-141286613D01*
X83159799Y-141183886D01*
X83190500Y-141069309D01*
X83190500Y-140950691D01*
X83159799Y-140836114D01*
X83100489Y-140733387D01*
X83016613Y-140649511D01*
X82913886Y-140590201D01*
X82799309Y-140559500D01*
X82680691Y-140559500D01*
X82566114Y-140590201D01*
X82566112Y-140590201D01*
X82566112Y-140590202D01*
X82463387Y-140649511D01*
X82463384Y-140649513D01*
X82379513Y-140733384D01*
X82379511Y-140733387D01*
X82320201Y-140836114D01*
X82289500Y-140950691D01*
X77900500Y-140950691D01*
X77900500Y-139424000D01*
X77920185Y-139356961D01*
X77972989Y-139311206D01*
X78024500Y-139300000D01*
X89040012Y-139300000D01*
X89107051Y-139319685D01*
G37*
%TD.AperFunction*%
%TD*%
%TA.AperFunction,Conductor*%
%TO.N,+12V*%
G36*
X102683667Y-139619685D02*
G01*
X102729422Y-139672489D01*
X102738423Y-139732564D01*
X102739500Y-139732564D01*
X102739500Y-139739752D01*
X102739566Y-139740193D01*
X102739500Y-139740688D01*
X102739500Y-139740691D01*
X102739500Y-139859309D01*
X102770201Y-139973886D01*
X102829511Y-140076613D01*
X102913387Y-140160489D01*
X103016114Y-140219799D01*
X103130691Y-140250500D01*
X103130694Y-140250500D01*
X103249306Y-140250500D01*
X103249309Y-140250500D01*
X103363886Y-140219799D01*
X103466613Y-140160489D01*
X103550489Y-140076613D01*
X103609799Y-139973886D01*
X103640500Y-139859309D01*
X103640500Y-139740691D01*
X103640499Y-139740688D01*
X103640434Y-139740193D01*
X103640500Y-139739769D01*
X103640500Y-139732564D01*
X103641623Y-139732564D01*
X103651195Y-139671157D01*
X103697572Y-139618898D01*
X103763372Y-139600000D01*
X104876000Y-139600000D01*
X104943039Y-139619685D01*
X104988794Y-139672489D01*
X105000000Y-139724000D01*
X105000000Y-143906000D01*
X104980315Y-143973039D01*
X104927511Y-144018794D01*
X104876000Y-144030000D01*
X100094287Y-144030000D01*
X100062194Y-144025775D01*
X100036140Y-144018794D01*
X100014136Y-144012898D01*
X99895518Y-144012898D01*
X99847460Y-144025775D01*
X99815367Y-144030000D01*
X94724000Y-144030000D01*
X94656961Y-144010315D01*
X94611206Y-143957511D01*
X94600000Y-143906000D01*
X94600000Y-142165297D01*
X95145121Y-142165297D01*
X95145121Y-142283915D01*
X95175822Y-142398492D01*
X95235132Y-142501219D01*
X95319008Y-142585095D01*
X95421735Y-142644405D01*
X95536312Y-142675106D01*
X95536315Y-142675106D01*
X95654927Y-142675106D01*
X95654930Y-142675106D01*
X95769507Y-142644405D01*
X95872234Y-142585095D01*
X95956110Y-142501219D01*
X96015420Y-142398492D01*
X96046121Y-142283915D01*
X96046121Y-142165297D01*
X96015420Y-142050720D01*
X95956110Y-141947993D01*
X95872234Y-141864117D01*
X95769507Y-141804807D01*
X95654930Y-141774106D01*
X95536312Y-141774106D01*
X95421735Y-141804807D01*
X95421733Y-141804807D01*
X95421733Y-141804808D01*
X95319008Y-141864117D01*
X95319005Y-141864119D01*
X95235134Y-141947990D01*
X95235132Y-141947993D01*
X95175822Y-142050720D01*
X95145121Y-142165297D01*
X94600000Y-142165297D01*
X94600000Y-139724000D01*
X94619685Y-139656961D01*
X94672489Y-139611206D01*
X94724000Y-139600000D01*
X102616628Y-139600000D01*
X102683667Y-139619685D01*
G37*
%TD.AperFunction*%
%TD*%
M02*
