%TF.GenerationSoftware,KiCad,Pcbnew,9.0.0*%
%TF.CreationDate,2025-04-24T23:35:52+03:00*%
%TF.ProjectId,ESP32_BOARD,45535033-325f-4424-9f41-52442e6b6963,1.0*%
%TF.SameCoordinates,Original*%
%TF.FileFunction,Paste,Bot*%
%TF.FilePolarity,Positive*%
%FSLAX46Y46*%
G04 Gerber Fmt 4.6, Leading zero omitted, Abs format (unit mm)*
G04 Created by KiCad (PCBNEW 9.0.0) date 2025-04-24 23:35:52*
%MOMM*%
%LPD*%
G01*
G04 APERTURE LIST*
%ADD10R,0.300000X1.800000*%
%ADD11R,2.500000X3.200000*%
%ADD12R,1.050000X0.650000*%
%ADD13R,0.800000X0.900000*%
%ADD14R,0.600000X0.560000*%
%ADD15R,0.600000X1.150000*%
%ADD16R,0.300000X1.150000*%
G04 APERTURE END LIST*
D10*
%TO.C,ST3*%
X88150000Y-124950000D03*
X88650000Y-124950000D03*
X89150000Y-124950000D03*
X89650000Y-124950000D03*
X90150000Y-124950000D03*
X90650000Y-124950000D03*
X91150000Y-124950000D03*
X91650000Y-124950000D03*
X92150000Y-124950000D03*
X92650000Y-124950000D03*
X93150000Y-124950000D03*
X93650000Y-124950000D03*
X94150000Y-124950000D03*
X94650000Y-124950000D03*
X95150000Y-124950000D03*
X95650000Y-124950000D03*
X96150000Y-124950000D03*
X96650000Y-124950000D03*
X97150000Y-124950000D03*
X97650000Y-124950000D03*
X98150000Y-124950000D03*
X98650000Y-124950000D03*
X99150000Y-124950000D03*
X99650000Y-124950000D03*
X100150000Y-124950000D03*
X100650000Y-124950000D03*
X101150000Y-124950000D03*
X101650000Y-124950000D03*
X102150000Y-124950000D03*
X102650000Y-124950000D03*
D11*
X104600000Y-126850000D03*
X86200000Y-126850000D03*
%TD*%
D12*
%TO.C,SW2*%
X111475000Y-150925000D03*
X107325000Y-150925000D03*
X111475000Y-153075000D03*
X107325000Y-153075000D03*
%TD*%
%TO.C,SW3*%
X79325000Y-153075000D03*
X83475000Y-153075000D03*
X79325000Y-150925000D03*
X83475000Y-150925000D03*
%TD*%
D13*
%TO.C,C23*%
X97150000Y-109460000D03*
X95750000Y-109460000D03*
%TD*%
D14*
%TO.C,R17*%
X89340000Y-145795000D03*
X89340000Y-144925000D03*
%TD*%
%TO.C,R16*%
X92350000Y-145785000D03*
X92350000Y-144915000D03*
%TD*%
D15*
%TO.C,ST2*%
X94280000Y-148045000D03*
X93480000Y-148045000D03*
D16*
X92330000Y-148045000D03*
X91330000Y-148045000D03*
X90830000Y-148045000D03*
X89830000Y-148045000D03*
D15*
X87880000Y-148045000D03*
X88680000Y-148045000D03*
D16*
X89330000Y-148045000D03*
X90330000Y-148045000D03*
X91830000Y-148045000D03*
X92830000Y-148045000D03*
%TD*%
M02*
