%TF.GenerationSoftware,KiCad,Pcbnew,9.0.0*%
%TF.CreationDate,2025-04-24T13:45:02+03:00*%
%TF.ProjectId,ESP32_BOARD,45535033-325f-4424-9f41-52442e6b6963,1.0*%
%TF.SameCoordinates,Original*%
%TF.FileFunction,Soldermask,Bot*%
%TF.FilePolarity,Negative*%
%FSLAX46Y46*%
G04 Gerber Fmt 4.6, Leading zero omitted, Abs format (unit mm)*
G04 Created by KiCad (PCBNEW 9.0.0) date 2025-04-24 13:45:02*
%MOMM*%
%LPD*%
G01*
G04 APERTURE LIST*
%ADD10C,0.010000*%
%ADD11C,0.812800*%
%ADD12C,0.711200*%
%ADD13R,1.524000X1.524000*%
%ADD14C,1.524000*%
%ADD15C,1.000000*%
%ADD16R,0.300000X1.800000*%
%ADD17R,2.500000X3.200000*%
%ADD18R,1.050000X0.650000*%
%ADD19R,0.800000X0.900000*%
%ADD20R,0.600000X0.560000*%
%ADD21C,0.650000*%
%ADD22O,1.000000X2.100000*%
%ADD23O,1.000000X1.800000*%
%ADD24R,1.650000X1.650000*%
%ADD25C,1.650000*%
G04 APERTURE END LIST*
D10*
%TO.C,ST2*%
X88230000Y-148670000D02*
X87530000Y-148670000D01*
X87530000Y-147420000D01*
X88230000Y-147420000D01*
X88230000Y-148670000D01*
G36*
X88230000Y-148670000D02*
G01*
X87530000Y-148670000D01*
X87530000Y-147420000D01*
X88230000Y-147420000D01*
X88230000Y-148670000D01*
G37*
X89030000Y-148670000D02*
X88330000Y-148670000D01*
X88330000Y-147420000D01*
X89030000Y-147420000D01*
X89030000Y-148670000D01*
G36*
X89030000Y-148670000D02*
G01*
X88330000Y-148670000D01*
X88330000Y-147420000D01*
X89030000Y-147420000D01*
X89030000Y-148670000D01*
G37*
X89530000Y-148670000D02*
X89130000Y-148670000D01*
X89130000Y-147420000D01*
X89530000Y-147420000D01*
X89530000Y-148670000D01*
G36*
X89530000Y-148670000D02*
G01*
X89130000Y-148670000D01*
X89130000Y-147420000D01*
X89530000Y-147420000D01*
X89530000Y-148670000D01*
G37*
X90030000Y-148670000D02*
X89630000Y-148670000D01*
X89630000Y-147420000D01*
X90030000Y-147420000D01*
X90030000Y-148670000D01*
G36*
X90030000Y-148670000D02*
G01*
X89630000Y-148670000D01*
X89630000Y-147420000D01*
X90030000Y-147420000D01*
X90030000Y-148670000D01*
G37*
X90530000Y-148670000D02*
X90130000Y-148670000D01*
X90130000Y-147420000D01*
X90530000Y-147420000D01*
X90530000Y-148670000D01*
G36*
X90530000Y-148670000D02*
G01*
X90130000Y-148670000D01*
X90130000Y-147420000D01*
X90530000Y-147420000D01*
X90530000Y-148670000D01*
G37*
X91030000Y-148670000D02*
X90630000Y-148670000D01*
X90630000Y-147420000D01*
X91030000Y-147420000D01*
X91030000Y-148670000D01*
G36*
X91030000Y-148670000D02*
G01*
X90630000Y-148670000D01*
X90630000Y-147420000D01*
X91030000Y-147420000D01*
X91030000Y-148670000D01*
G37*
X91530000Y-148670000D02*
X91130000Y-148670000D01*
X91130000Y-147420000D01*
X91530000Y-147420000D01*
X91530000Y-148670000D01*
G36*
X91530000Y-148670000D02*
G01*
X91130000Y-148670000D01*
X91130000Y-147420000D01*
X91530000Y-147420000D01*
X91530000Y-148670000D01*
G37*
X92030000Y-148670000D02*
X91630000Y-148670000D01*
X91630000Y-147420000D01*
X92030000Y-147420000D01*
X92030000Y-148670000D01*
G36*
X92030000Y-148670000D02*
G01*
X91630000Y-148670000D01*
X91630000Y-147420000D01*
X92030000Y-147420000D01*
X92030000Y-148670000D01*
G37*
X92530000Y-148670000D02*
X92130000Y-148670000D01*
X92130000Y-147420000D01*
X92530000Y-147420000D01*
X92530000Y-148670000D01*
G36*
X92530000Y-148670000D02*
G01*
X92130000Y-148670000D01*
X92130000Y-147420000D01*
X92530000Y-147420000D01*
X92530000Y-148670000D01*
G37*
X93030000Y-148670000D02*
X92630000Y-148670000D01*
X92630000Y-147420000D01*
X93030000Y-147420000D01*
X93030000Y-148670000D01*
G36*
X93030000Y-148670000D02*
G01*
X92630000Y-148670000D01*
X92630000Y-147420000D01*
X93030000Y-147420000D01*
X93030000Y-148670000D01*
G37*
X93830000Y-148670000D02*
X93130000Y-148670000D01*
X93130000Y-147420000D01*
X93830000Y-147420000D01*
X93830000Y-148670000D01*
G36*
X93830000Y-148670000D02*
G01*
X93130000Y-148670000D01*
X93130000Y-147420000D01*
X93830000Y-147420000D01*
X93830000Y-148670000D01*
G37*
X94630000Y-148670000D02*
X93930000Y-148670000D01*
X93930000Y-147420000D01*
X94630000Y-147420000D01*
X94630000Y-148670000D01*
G36*
X94630000Y-148670000D02*
G01*
X93930000Y-148670000D01*
X93930000Y-147420000D01*
X94630000Y-147420000D01*
X94630000Y-148670000D01*
G37*
%TD*%
D11*
%TO.C,SW1*%
X111995983Y-134742072D03*
D12*
X111995983Y-136117070D03*
X111995983Y-137817072D03*
D11*
X111995983Y-139192071D03*
%TD*%
D13*
%TO.C,ST4*%
X82719900Y-122610000D03*
D14*
X82719900Y-120070000D03*
X82719900Y-117530000D03*
X82719900Y-114990000D03*
X82719900Y-112450000D03*
X82719900Y-109910000D03*
X82719900Y-107370000D03*
X82719900Y-104830000D03*
X82719900Y-102290000D03*
X82719900Y-99750000D03*
X82719900Y-97210000D03*
X82719900Y-94670000D03*
%TD*%
D13*
%TO.C,ST5*%
X108119900Y-122610000D03*
D14*
X108119900Y-120070000D03*
X108119900Y-117530000D03*
X108119900Y-114990000D03*
X108119900Y-112450000D03*
X108119900Y-109910000D03*
X108119900Y-107370000D03*
X108119900Y-104830000D03*
X108119900Y-102290000D03*
X108119900Y-99750000D03*
X108119900Y-97210000D03*
X108119900Y-94670000D03*
%TD*%
D15*
%TO.C,FID1*%
X79140000Y-92880000D03*
%TD*%
D16*
%TO.C,ST3*%
X88150000Y-124950000D03*
X88650000Y-124950000D03*
X89150000Y-124950000D03*
X89650000Y-124950000D03*
X90150000Y-124950000D03*
X90650000Y-124950000D03*
X91150000Y-124950000D03*
X91650000Y-124950000D03*
X92150000Y-124950000D03*
X92650000Y-124950000D03*
X93150000Y-124950000D03*
X93650000Y-124950000D03*
X94150000Y-124950000D03*
X94650000Y-124950000D03*
X95150000Y-124950000D03*
X95650000Y-124950000D03*
X96150000Y-124950000D03*
X96650000Y-124950000D03*
X97150000Y-124950000D03*
X97650000Y-124950000D03*
X98150000Y-124950000D03*
X98650000Y-124950000D03*
X99150000Y-124950000D03*
X99650000Y-124950000D03*
X100150000Y-124950000D03*
X100650000Y-124950000D03*
X101150000Y-124950000D03*
X101650000Y-124950000D03*
X102150000Y-124950000D03*
X102650000Y-124950000D03*
D17*
X104600000Y-126850000D03*
X86200000Y-126850000D03*
%TD*%
D18*
%TO.C,SW2*%
X111475000Y-150925000D03*
X107325000Y-150925000D03*
X111475000Y-153075000D03*
X107325000Y-153075000D03*
%TD*%
D15*
%TO.C,FID2*%
X111410000Y-147080000D03*
%TD*%
D18*
%TO.C,SW3*%
X79325000Y-153075000D03*
X83475000Y-153075000D03*
X79325000Y-150925000D03*
X83475000Y-150925000D03*
%TD*%
D19*
%TO.C,C23*%
X97150000Y-109460000D03*
X95750000Y-109460000D03*
%TD*%
D20*
%TO.C,R17*%
X89340000Y-145795000D03*
X89340000Y-144925000D03*
%TD*%
%TO.C,R16*%
X92350000Y-145785000D03*
X92350000Y-144915000D03*
%TD*%
D21*
%TO.C,ST2*%
X93970000Y-149120000D03*
X88190000Y-149120000D03*
D22*
X95400000Y-148620000D03*
X86760000Y-148620000D03*
D23*
X95400000Y-152800000D03*
X86760000Y-152800000D03*
%TD*%
D24*
%TO.C,ST1*%
X102820000Y-151820000D03*
D25*
X100320000Y-151820000D03*
%TD*%
M02*
