%TF.GenerationSoftware,KiCad,Pcbnew,9.0.0*%
%TF.CreationDate,2025-04-24T23:35:52+03:00*%
%TF.ProjectId,ESP32_BOARD,45535033-325f-4424-9f41-52442e6b6963,1.0*%
%TF.SameCoordinates,Original*%
%TF.FileFunction,Legend,Top*%
%TF.FilePolarity,Positive*%
%FSLAX46Y46*%
G04 Gerber Fmt 4.6, Leading zero omitted, Abs format (unit mm)*
G04 Created by KiCad (PCBNEW 9.0.0) date 2025-04-24 23:35:52*
%MOMM*%
%LPD*%
G01*
G04 APERTURE LIST*
%ADD10C,0.160000*%
%ADD11C,0.100000*%
%ADD12C,0.400000*%
%ADD13C,0.200000*%
%ADD14C,0.152400*%
%ADD15C,0.127000*%
%ADD16C,0.152500*%
%ADD17C,0.264391*%
%ADD18C,0.120000*%
%ADD19C,0.250000*%
%ADD20C,0.254000*%
%ADD21C,0.076200*%
%ADD22C,0.508000*%
G04 APERTURE END LIST*
D10*
X84400000Y-99600000D02*
X86100000Y-99600000D01*
X79300000Y-102200000D02*
X81100000Y-102200000D01*
X109800000Y-102300000D02*
X110300000Y-102300000D01*
X84400000Y-110000000D02*
X86100000Y-110000000D01*
X109800000Y-99800000D02*
X111700000Y-99800000D01*
X81100000Y-112500000D02*
X79300000Y-112500000D01*
X84400000Y-105000000D02*
X84900000Y-105000000D01*
X81100000Y-97300000D02*
X80400000Y-97300000D01*
D11*
X80600000Y-107300000D02*
X80550000Y-107300000D01*
D10*
X81100000Y-107300000D02*
X80500000Y-107300000D01*
D12*
X87736014Y-93106819D02*
X88021728Y-93202057D01*
X88021728Y-93202057D02*
X88116966Y-93297295D01*
X88116966Y-93297295D02*
X88212204Y-93487771D01*
X88212204Y-93487771D02*
X88212204Y-93773485D01*
X88212204Y-93773485D02*
X88116966Y-93963961D01*
X88116966Y-93963961D02*
X88021728Y-94059200D01*
X88021728Y-94059200D02*
X87831252Y-94154438D01*
X87831252Y-94154438D02*
X87069347Y-94154438D01*
X87069347Y-94154438D02*
X87069347Y-92154438D01*
X87069347Y-92154438D02*
X87736014Y-92154438D01*
X87736014Y-92154438D02*
X87926490Y-92249676D01*
X87926490Y-92249676D02*
X88021728Y-92344914D01*
X88021728Y-92344914D02*
X88116966Y-92535390D01*
X88116966Y-92535390D02*
X88116966Y-92725866D01*
X88116966Y-92725866D02*
X88021728Y-92916342D01*
X88021728Y-92916342D02*
X87926490Y-93011580D01*
X87926490Y-93011580D02*
X87736014Y-93106819D01*
X87736014Y-93106819D02*
X87069347Y-93106819D01*
X89355061Y-94154438D02*
X89164585Y-94059200D01*
X89164585Y-94059200D02*
X89069347Y-93963961D01*
X89069347Y-93963961D02*
X88974109Y-93773485D01*
X88974109Y-93773485D02*
X88974109Y-93202057D01*
X88974109Y-93202057D02*
X89069347Y-93011580D01*
X89069347Y-93011580D02*
X89164585Y-92916342D01*
X89164585Y-92916342D02*
X89355061Y-92821104D01*
X89355061Y-92821104D02*
X89640776Y-92821104D01*
X89640776Y-92821104D02*
X89831252Y-92916342D01*
X89831252Y-92916342D02*
X89926490Y-93011580D01*
X89926490Y-93011580D02*
X90021728Y-93202057D01*
X90021728Y-93202057D02*
X90021728Y-93773485D01*
X90021728Y-93773485D02*
X89926490Y-93963961D01*
X89926490Y-93963961D02*
X89831252Y-94059200D01*
X89831252Y-94059200D02*
X89640776Y-94154438D01*
X89640776Y-94154438D02*
X89355061Y-94154438D01*
X90878871Y-94154438D02*
X90878871Y-92821104D01*
X90878871Y-93202057D02*
X90974109Y-93011580D01*
X90974109Y-93011580D02*
X91069347Y-92916342D01*
X91069347Y-92916342D02*
X91259823Y-92821104D01*
X91259823Y-92821104D02*
X91450300Y-92821104D01*
X92116966Y-94154438D02*
X92116966Y-92821104D01*
X92116966Y-92154438D02*
X92021728Y-92249676D01*
X92021728Y-92249676D02*
X92116966Y-92344914D01*
X92116966Y-92344914D02*
X92212204Y-92249676D01*
X92212204Y-92249676D02*
X92116966Y-92154438D01*
X92116966Y-92154438D02*
X92116966Y-92344914D01*
X92974109Y-94059200D02*
X93164585Y-94154438D01*
X93164585Y-94154438D02*
X93545537Y-94154438D01*
X93545537Y-94154438D02*
X93736014Y-94059200D01*
X93736014Y-94059200D02*
X93831252Y-93868723D01*
X93831252Y-93868723D02*
X93831252Y-93773485D01*
X93831252Y-93773485D02*
X93736014Y-93583009D01*
X93736014Y-93583009D02*
X93545537Y-93487771D01*
X93545537Y-93487771D02*
X93259823Y-93487771D01*
X93259823Y-93487771D02*
X93069347Y-93392533D01*
X93069347Y-93392533D02*
X92974109Y-93202057D01*
X92974109Y-93202057D02*
X92974109Y-93106819D01*
X92974109Y-93106819D02*
X93069347Y-92916342D01*
X93069347Y-92916342D02*
X93259823Y-92821104D01*
X93259823Y-92821104D02*
X93545537Y-92821104D01*
X93545537Y-92821104D02*
X93736014Y-92916342D01*
X96212205Y-94154438D02*
X96212205Y-92154438D01*
X96974110Y-92821104D02*
X97450300Y-94154438D01*
X97450300Y-94154438D02*
X97926491Y-92821104D01*
X99545539Y-94154438D02*
X99545539Y-93106819D01*
X99545539Y-93106819D02*
X99450301Y-92916342D01*
X99450301Y-92916342D02*
X99259825Y-92821104D01*
X99259825Y-92821104D02*
X98878872Y-92821104D01*
X98878872Y-92821104D02*
X98688396Y-92916342D01*
X99545539Y-94059200D02*
X99355063Y-94154438D01*
X99355063Y-94154438D02*
X98878872Y-94154438D01*
X98878872Y-94154438D02*
X98688396Y-94059200D01*
X98688396Y-94059200D02*
X98593158Y-93868723D01*
X98593158Y-93868723D02*
X98593158Y-93678247D01*
X98593158Y-93678247D02*
X98688396Y-93487771D01*
X98688396Y-93487771D02*
X98878872Y-93392533D01*
X98878872Y-93392533D02*
X99355063Y-93392533D01*
X99355063Y-93392533D02*
X99545539Y-93297295D01*
X100497920Y-92821104D02*
X100497920Y-94154438D01*
X100497920Y-93011580D02*
X100593158Y-92916342D01*
X100593158Y-92916342D02*
X100783634Y-92821104D01*
X100783634Y-92821104D02*
X101069349Y-92821104D01*
X101069349Y-92821104D02*
X101259825Y-92916342D01*
X101259825Y-92916342D02*
X101355063Y-93106819D01*
X101355063Y-93106819D02*
X101355063Y-94154438D01*
X102593158Y-94154438D02*
X102402682Y-94059200D01*
X102402682Y-94059200D02*
X102307444Y-93963961D01*
X102307444Y-93963961D02*
X102212206Y-93773485D01*
X102212206Y-93773485D02*
X102212206Y-93202057D01*
X102212206Y-93202057D02*
X102307444Y-93011580D01*
X102307444Y-93011580D02*
X102402682Y-92916342D01*
X102402682Y-92916342D02*
X102593158Y-92821104D01*
X102593158Y-92821104D02*
X102878873Y-92821104D01*
X102878873Y-92821104D02*
X103069349Y-92916342D01*
X103069349Y-92916342D02*
X103164587Y-93011580D01*
X103164587Y-93011580D02*
X103259825Y-93202057D01*
X103259825Y-93202057D02*
X103259825Y-93773485D01*
X103259825Y-93773485D02*
X103164587Y-93963961D01*
X103164587Y-93963961D02*
X103069349Y-94059200D01*
X103069349Y-94059200D02*
X102878873Y-94154438D01*
X102878873Y-94154438D02*
X102593158Y-94154438D01*
X103926492Y-92821104D02*
X104402682Y-94154438D01*
X104402682Y-94154438D02*
X104878873Y-92821104D01*
D10*
X86626918Y-111552832D02*
X86579299Y-111648070D01*
X86579299Y-111648070D02*
X86579299Y-111790927D01*
X86579299Y-111790927D02*
X86626918Y-111933784D01*
X86626918Y-111933784D02*
X86722156Y-112029022D01*
X86722156Y-112029022D02*
X86817394Y-112076641D01*
X86817394Y-112076641D02*
X87007870Y-112124260D01*
X87007870Y-112124260D02*
X87150727Y-112124260D01*
X87150727Y-112124260D02*
X87341203Y-112076641D01*
X87341203Y-112076641D02*
X87436441Y-112029022D01*
X87436441Y-112029022D02*
X87531680Y-111933784D01*
X87531680Y-111933784D02*
X87579299Y-111790927D01*
X87579299Y-111790927D02*
X87579299Y-111695689D01*
X87579299Y-111695689D02*
X87531680Y-111552832D01*
X87531680Y-111552832D02*
X87484060Y-111505213D01*
X87484060Y-111505213D02*
X87150727Y-111505213D01*
X87150727Y-111505213D02*
X87150727Y-111695689D01*
X87579299Y-111076641D02*
X86579299Y-111076641D01*
X86579299Y-111076641D02*
X86579299Y-110695689D01*
X86579299Y-110695689D02*
X86626918Y-110600451D01*
X86626918Y-110600451D02*
X86674537Y-110552832D01*
X86674537Y-110552832D02*
X86769775Y-110505213D01*
X86769775Y-110505213D02*
X86912632Y-110505213D01*
X86912632Y-110505213D02*
X87007870Y-110552832D01*
X87007870Y-110552832D02*
X87055489Y-110600451D01*
X87055489Y-110600451D02*
X87103108Y-110695689D01*
X87103108Y-110695689D02*
X87103108Y-111076641D01*
X87579299Y-110076641D02*
X86579299Y-110076641D01*
X86579299Y-109409975D02*
X86579299Y-109219499D01*
X86579299Y-109219499D02*
X86626918Y-109124261D01*
X86626918Y-109124261D02*
X86722156Y-109029023D01*
X86722156Y-109029023D02*
X86912632Y-108981404D01*
X86912632Y-108981404D02*
X87245965Y-108981404D01*
X87245965Y-108981404D02*
X87436441Y-109029023D01*
X87436441Y-109029023D02*
X87531680Y-109124261D01*
X87531680Y-109124261D02*
X87579299Y-109219499D01*
X87579299Y-109219499D02*
X87579299Y-109409975D01*
X87579299Y-109409975D02*
X87531680Y-109505213D01*
X87531680Y-109505213D02*
X87436441Y-109600451D01*
X87436441Y-109600451D02*
X87245965Y-109648070D01*
X87245965Y-109648070D02*
X86912632Y-109648070D01*
X86912632Y-109648070D02*
X86722156Y-109600451D01*
X86722156Y-109600451D02*
X86626918Y-109505213D01*
X86626918Y-109505213D02*
X86579299Y-109409975D01*
X87579299Y-108029023D02*
X87579299Y-108600451D01*
X87579299Y-108314737D02*
X86579299Y-108314737D01*
X86579299Y-108314737D02*
X86722156Y-108409975D01*
X86722156Y-108409975D02*
X86817394Y-108505213D01*
X86817394Y-108505213D02*
X86865013Y-108600451D01*
X86674537Y-107648070D02*
X86626918Y-107600451D01*
X86626918Y-107600451D02*
X86579299Y-107505213D01*
X86579299Y-107505213D02*
X86579299Y-107267118D01*
X86579299Y-107267118D02*
X86626918Y-107171880D01*
X86626918Y-107171880D02*
X86674537Y-107124261D01*
X86674537Y-107124261D02*
X86769775Y-107076642D01*
X86769775Y-107076642D02*
X86865013Y-107076642D01*
X86865013Y-107076642D02*
X87007870Y-107124261D01*
X87007870Y-107124261D02*
X87579299Y-107695689D01*
X87579299Y-107695689D02*
X87579299Y-107076642D01*
X110248120Y-122069299D02*
X110867167Y-122069299D01*
X110867167Y-122069299D02*
X110533834Y-122450251D01*
X110533834Y-122450251D02*
X110676691Y-122450251D01*
X110676691Y-122450251D02*
X110771929Y-122497870D01*
X110771929Y-122497870D02*
X110819548Y-122545489D01*
X110819548Y-122545489D02*
X110867167Y-122640727D01*
X110867167Y-122640727D02*
X110867167Y-122878822D01*
X110867167Y-122878822D02*
X110819548Y-122974060D01*
X110819548Y-122974060D02*
X110771929Y-123021680D01*
X110771929Y-123021680D02*
X110676691Y-123069299D01*
X110676691Y-123069299D02*
X110390977Y-123069299D01*
X110390977Y-123069299D02*
X110295739Y-123021680D01*
X110295739Y-123021680D02*
X110248120Y-122974060D01*
X111152882Y-122069299D02*
X111486215Y-123069299D01*
X111486215Y-123069299D02*
X111819548Y-122069299D01*
X112057644Y-122069299D02*
X112676691Y-122069299D01*
X112676691Y-122069299D02*
X112343358Y-122450251D01*
X112343358Y-122450251D02*
X112486215Y-122450251D01*
X112486215Y-122450251D02*
X112581453Y-122497870D01*
X112581453Y-122497870D02*
X112629072Y-122545489D01*
X112629072Y-122545489D02*
X112676691Y-122640727D01*
X112676691Y-122640727D02*
X112676691Y-122878822D01*
X112676691Y-122878822D02*
X112629072Y-122974060D01*
X112629072Y-122974060D02*
X112581453Y-123021680D01*
X112581453Y-123021680D02*
X112486215Y-123069299D01*
X112486215Y-123069299D02*
X112200501Y-123069299D01*
X112200501Y-123069299D02*
X112105263Y-123021680D01*
X112105263Y-123021680D02*
X112057644Y-122974060D01*
X79116918Y-98452832D02*
X79069299Y-98548070D01*
X79069299Y-98548070D02*
X79069299Y-98690927D01*
X79069299Y-98690927D02*
X79116918Y-98833784D01*
X79116918Y-98833784D02*
X79212156Y-98929022D01*
X79212156Y-98929022D02*
X79307394Y-98976641D01*
X79307394Y-98976641D02*
X79497870Y-99024260D01*
X79497870Y-99024260D02*
X79640727Y-99024260D01*
X79640727Y-99024260D02*
X79831203Y-98976641D01*
X79831203Y-98976641D02*
X79926441Y-98929022D01*
X79926441Y-98929022D02*
X80021680Y-98833784D01*
X80021680Y-98833784D02*
X80069299Y-98690927D01*
X80069299Y-98690927D02*
X80069299Y-98595689D01*
X80069299Y-98595689D02*
X80021680Y-98452832D01*
X80021680Y-98452832D02*
X79974060Y-98405213D01*
X79974060Y-98405213D02*
X79640727Y-98405213D01*
X79640727Y-98405213D02*
X79640727Y-98595689D01*
X80069299Y-97976641D02*
X79069299Y-97976641D01*
X79069299Y-97976641D02*
X79069299Y-97595689D01*
X79069299Y-97595689D02*
X79116918Y-97500451D01*
X79116918Y-97500451D02*
X79164537Y-97452832D01*
X79164537Y-97452832D02*
X79259775Y-97405213D01*
X79259775Y-97405213D02*
X79402632Y-97405213D01*
X79402632Y-97405213D02*
X79497870Y-97452832D01*
X79497870Y-97452832D02*
X79545489Y-97500451D01*
X79545489Y-97500451D02*
X79593108Y-97595689D01*
X79593108Y-97595689D02*
X79593108Y-97976641D01*
X80069299Y-96976641D02*
X79069299Y-96976641D01*
X79069299Y-96309975D02*
X79069299Y-96119499D01*
X79069299Y-96119499D02*
X79116918Y-96024261D01*
X79116918Y-96024261D02*
X79212156Y-95929023D01*
X79212156Y-95929023D02*
X79402632Y-95881404D01*
X79402632Y-95881404D02*
X79735965Y-95881404D01*
X79735965Y-95881404D02*
X79926441Y-95929023D01*
X79926441Y-95929023D02*
X80021680Y-96024261D01*
X80021680Y-96024261D02*
X80069299Y-96119499D01*
X80069299Y-96119499D02*
X80069299Y-96309975D01*
X80069299Y-96309975D02*
X80021680Y-96405213D01*
X80021680Y-96405213D02*
X79926441Y-96500451D01*
X79926441Y-96500451D02*
X79735965Y-96548070D01*
X79735965Y-96548070D02*
X79402632Y-96548070D01*
X79402632Y-96548070D02*
X79212156Y-96500451D01*
X79212156Y-96500451D02*
X79116918Y-96405213D01*
X79116918Y-96405213D02*
X79069299Y-96309975D01*
X80069299Y-94929023D02*
X80069299Y-95500451D01*
X80069299Y-95214737D02*
X79069299Y-95214737D01*
X79069299Y-95214737D02*
X79212156Y-95309975D01*
X79212156Y-95309975D02*
X79307394Y-95405213D01*
X79307394Y-95405213D02*
X79355013Y-95500451D01*
X110767167Y-119516918D02*
X110671929Y-119469299D01*
X110671929Y-119469299D02*
X110529072Y-119469299D01*
X110529072Y-119469299D02*
X110386215Y-119516918D01*
X110386215Y-119516918D02*
X110290977Y-119612156D01*
X110290977Y-119612156D02*
X110243358Y-119707394D01*
X110243358Y-119707394D02*
X110195739Y-119897870D01*
X110195739Y-119897870D02*
X110195739Y-120040727D01*
X110195739Y-120040727D02*
X110243358Y-120231203D01*
X110243358Y-120231203D02*
X110290977Y-120326441D01*
X110290977Y-120326441D02*
X110386215Y-120421680D01*
X110386215Y-120421680D02*
X110529072Y-120469299D01*
X110529072Y-120469299D02*
X110624310Y-120469299D01*
X110624310Y-120469299D02*
X110767167Y-120421680D01*
X110767167Y-120421680D02*
X110814786Y-120374060D01*
X110814786Y-120374060D02*
X110814786Y-120040727D01*
X110814786Y-120040727D02*
X110624310Y-120040727D01*
X111243358Y-120469299D02*
X111243358Y-119469299D01*
X111243358Y-119469299D02*
X111814786Y-120469299D01*
X111814786Y-120469299D02*
X111814786Y-119469299D01*
X112290977Y-120469299D02*
X112290977Y-119469299D01*
X112290977Y-119469299D02*
X112529072Y-119469299D01*
X112529072Y-119469299D02*
X112671929Y-119516918D01*
X112671929Y-119516918D02*
X112767167Y-119612156D01*
X112767167Y-119612156D02*
X112814786Y-119707394D01*
X112814786Y-119707394D02*
X112862405Y-119897870D01*
X112862405Y-119897870D02*
X112862405Y-120040727D01*
X112862405Y-120040727D02*
X112814786Y-120231203D01*
X112814786Y-120231203D02*
X112767167Y-120326441D01*
X112767167Y-120326441D02*
X112671929Y-120421680D01*
X112671929Y-120421680D02*
X112529072Y-120469299D01*
X112529072Y-120469299D02*
X112290977Y-120469299D01*
X110569299Y-104756641D02*
X111378822Y-104756641D01*
X111378822Y-104756641D02*
X111474060Y-104709022D01*
X111474060Y-104709022D02*
X111521680Y-104661403D01*
X111521680Y-104661403D02*
X111569299Y-104566165D01*
X111569299Y-104566165D02*
X111569299Y-104375689D01*
X111569299Y-104375689D02*
X111521680Y-104280451D01*
X111521680Y-104280451D02*
X111474060Y-104232832D01*
X111474060Y-104232832D02*
X111378822Y-104185213D01*
X111378822Y-104185213D02*
X110569299Y-104185213D01*
X110569299Y-103518546D02*
X110569299Y-103423308D01*
X110569299Y-103423308D02*
X110616918Y-103328070D01*
X110616918Y-103328070D02*
X110664537Y-103280451D01*
X110664537Y-103280451D02*
X110759775Y-103232832D01*
X110759775Y-103232832D02*
X110950251Y-103185213D01*
X110950251Y-103185213D02*
X111188346Y-103185213D01*
X111188346Y-103185213D02*
X111378822Y-103232832D01*
X111378822Y-103232832D02*
X111474060Y-103280451D01*
X111474060Y-103280451D02*
X111521680Y-103328070D01*
X111521680Y-103328070D02*
X111569299Y-103423308D01*
X111569299Y-103423308D02*
X111569299Y-103518546D01*
X111569299Y-103518546D02*
X111521680Y-103613784D01*
X111521680Y-103613784D02*
X111474060Y-103661403D01*
X111474060Y-103661403D02*
X111378822Y-103709022D01*
X111378822Y-103709022D02*
X111188346Y-103756641D01*
X111188346Y-103756641D02*
X110950251Y-103756641D01*
X110950251Y-103756641D02*
X110759775Y-103709022D01*
X110759775Y-103709022D02*
X110664537Y-103661403D01*
X110664537Y-103661403D02*
X110616918Y-103613784D01*
X110616918Y-103613784D02*
X110569299Y-103518546D01*
X111569299Y-102185213D02*
X111093108Y-102518546D01*
X111569299Y-102756641D02*
X110569299Y-102756641D01*
X110569299Y-102756641D02*
X110569299Y-102375689D01*
X110569299Y-102375689D02*
X110616918Y-102280451D01*
X110616918Y-102280451D02*
X110664537Y-102232832D01*
X110664537Y-102232832D02*
X110759775Y-102185213D01*
X110759775Y-102185213D02*
X110902632Y-102185213D01*
X110902632Y-102185213D02*
X110997870Y-102232832D01*
X110997870Y-102232832D02*
X111045489Y-102280451D01*
X111045489Y-102280451D02*
X111093108Y-102375689D01*
X111093108Y-102375689D02*
X111093108Y-102756641D01*
X110569299Y-101851879D02*
X111569299Y-101185213D01*
X110569299Y-101185213D02*
X111569299Y-101851879D01*
X111569299Y-100804260D02*
X110569299Y-100804260D01*
X110569299Y-100804260D02*
X110569299Y-100566165D01*
X110569299Y-100566165D02*
X110616918Y-100423308D01*
X110616918Y-100423308D02*
X110712156Y-100328070D01*
X110712156Y-100328070D02*
X110807394Y-100280451D01*
X110807394Y-100280451D02*
X110997870Y-100232832D01*
X110997870Y-100232832D02*
X111140727Y-100232832D01*
X111140727Y-100232832D02*
X111331203Y-100280451D01*
X111331203Y-100280451D02*
X111426441Y-100328070D01*
X111426441Y-100328070D02*
X111521680Y-100423308D01*
X111521680Y-100423308D02*
X111569299Y-100566165D01*
X111569299Y-100566165D02*
X111569299Y-100804260D01*
X77916918Y-103532832D02*
X77869299Y-103628070D01*
X77869299Y-103628070D02*
X77869299Y-103770927D01*
X77869299Y-103770927D02*
X77916918Y-103913784D01*
X77916918Y-103913784D02*
X78012156Y-104009022D01*
X78012156Y-104009022D02*
X78107394Y-104056641D01*
X78107394Y-104056641D02*
X78297870Y-104104260D01*
X78297870Y-104104260D02*
X78440727Y-104104260D01*
X78440727Y-104104260D02*
X78631203Y-104056641D01*
X78631203Y-104056641D02*
X78726441Y-104009022D01*
X78726441Y-104009022D02*
X78821680Y-103913784D01*
X78821680Y-103913784D02*
X78869299Y-103770927D01*
X78869299Y-103770927D02*
X78869299Y-103675689D01*
X78869299Y-103675689D02*
X78821680Y-103532832D01*
X78821680Y-103532832D02*
X78774060Y-103485213D01*
X78774060Y-103485213D02*
X78440727Y-103485213D01*
X78440727Y-103485213D02*
X78440727Y-103675689D01*
X78869299Y-103056641D02*
X77869299Y-103056641D01*
X77869299Y-103056641D02*
X77869299Y-102675689D01*
X77869299Y-102675689D02*
X77916918Y-102580451D01*
X77916918Y-102580451D02*
X77964537Y-102532832D01*
X77964537Y-102532832D02*
X78059775Y-102485213D01*
X78059775Y-102485213D02*
X78202632Y-102485213D01*
X78202632Y-102485213D02*
X78297870Y-102532832D01*
X78297870Y-102532832D02*
X78345489Y-102580451D01*
X78345489Y-102580451D02*
X78393108Y-102675689D01*
X78393108Y-102675689D02*
X78393108Y-103056641D01*
X78869299Y-102056641D02*
X77869299Y-102056641D01*
X77869299Y-101389975D02*
X77869299Y-101199499D01*
X77869299Y-101199499D02*
X77916918Y-101104261D01*
X77916918Y-101104261D02*
X78012156Y-101009023D01*
X78012156Y-101009023D02*
X78202632Y-100961404D01*
X78202632Y-100961404D02*
X78535965Y-100961404D01*
X78535965Y-100961404D02*
X78726441Y-101009023D01*
X78726441Y-101009023D02*
X78821680Y-101104261D01*
X78821680Y-101104261D02*
X78869299Y-101199499D01*
X78869299Y-101199499D02*
X78869299Y-101389975D01*
X78869299Y-101389975D02*
X78821680Y-101485213D01*
X78821680Y-101485213D02*
X78726441Y-101580451D01*
X78726441Y-101580451D02*
X78535965Y-101628070D01*
X78535965Y-101628070D02*
X78202632Y-101628070D01*
X78202632Y-101628070D02*
X78012156Y-101580451D01*
X78012156Y-101580451D02*
X77916918Y-101485213D01*
X77916918Y-101485213D02*
X77869299Y-101389975D01*
X77869299Y-100628070D02*
X77869299Y-100009023D01*
X77869299Y-100009023D02*
X78250251Y-100342356D01*
X78250251Y-100342356D02*
X78250251Y-100199499D01*
X78250251Y-100199499D02*
X78297870Y-100104261D01*
X78297870Y-100104261D02*
X78345489Y-100056642D01*
X78345489Y-100056642D02*
X78440727Y-100009023D01*
X78440727Y-100009023D02*
X78678822Y-100009023D01*
X78678822Y-100009023D02*
X78774060Y-100056642D01*
X78774060Y-100056642D02*
X78821680Y-100104261D01*
X78821680Y-100104261D02*
X78869299Y-100199499D01*
X78869299Y-100199499D02*
X78869299Y-100485213D01*
X78869299Y-100485213D02*
X78821680Y-100580451D01*
X78821680Y-100580451D02*
X78774060Y-100628070D01*
X110667167Y-96716918D02*
X110571929Y-96669299D01*
X110571929Y-96669299D02*
X110429072Y-96669299D01*
X110429072Y-96669299D02*
X110286215Y-96716918D01*
X110286215Y-96716918D02*
X110190977Y-96812156D01*
X110190977Y-96812156D02*
X110143358Y-96907394D01*
X110143358Y-96907394D02*
X110095739Y-97097870D01*
X110095739Y-97097870D02*
X110095739Y-97240727D01*
X110095739Y-97240727D02*
X110143358Y-97431203D01*
X110143358Y-97431203D02*
X110190977Y-97526441D01*
X110190977Y-97526441D02*
X110286215Y-97621680D01*
X110286215Y-97621680D02*
X110429072Y-97669299D01*
X110429072Y-97669299D02*
X110524310Y-97669299D01*
X110524310Y-97669299D02*
X110667167Y-97621680D01*
X110667167Y-97621680D02*
X110714786Y-97574060D01*
X110714786Y-97574060D02*
X110714786Y-97240727D01*
X110714786Y-97240727D02*
X110524310Y-97240727D01*
X111143358Y-97669299D02*
X111143358Y-96669299D01*
X111143358Y-96669299D02*
X111714786Y-97669299D01*
X111714786Y-97669299D02*
X111714786Y-96669299D01*
X112190977Y-97669299D02*
X112190977Y-96669299D01*
X112190977Y-96669299D02*
X112429072Y-96669299D01*
X112429072Y-96669299D02*
X112571929Y-96716918D01*
X112571929Y-96716918D02*
X112667167Y-96812156D01*
X112667167Y-96812156D02*
X112714786Y-96907394D01*
X112714786Y-96907394D02*
X112762405Y-97097870D01*
X112762405Y-97097870D02*
X112762405Y-97240727D01*
X112762405Y-97240727D02*
X112714786Y-97431203D01*
X112714786Y-97431203D02*
X112667167Y-97526441D01*
X112667167Y-97526441D02*
X112571929Y-97621680D01*
X112571929Y-97621680D02*
X112429072Y-97669299D01*
X112429072Y-97669299D02*
X112190977Y-97669299D01*
X86656918Y-101082832D02*
X86609299Y-101178070D01*
X86609299Y-101178070D02*
X86609299Y-101320927D01*
X86609299Y-101320927D02*
X86656918Y-101463784D01*
X86656918Y-101463784D02*
X86752156Y-101559022D01*
X86752156Y-101559022D02*
X86847394Y-101606641D01*
X86847394Y-101606641D02*
X87037870Y-101654260D01*
X87037870Y-101654260D02*
X87180727Y-101654260D01*
X87180727Y-101654260D02*
X87371203Y-101606641D01*
X87371203Y-101606641D02*
X87466441Y-101559022D01*
X87466441Y-101559022D02*
X87561680Y-101463784D01*
X87561680Y-101463784D02*
X87609299Y-101320927D01*
X87609299Y-101320927D02*
X87609299Y-101225689D01*
X87609299Y-101225689D02*
X87561680Y-101082832D01*
X87561680Y-101082832D02*
X87514060Y-101035213D01*
X87514060Y-101035213D02*
X87180727Y-101035213D01*
X87180727Y-101035213D02*
X87180727Y-101225689D01*
X87609299Y-100606641D02*
X86609299Y-100606641D01*
X86609299Y-100606641D02*
X86609299Y-100225689D01*
X86609299Y-100225689D02*
X86656918Y-100130451D01*
X86656918Y-100130451D02*
X86704537Y-100082832D01*
X86704537Y-100082832D02*
X86799775Y-100035213D01*
X86799775Y-100035213D02*
X86942632Y-100035213D01*
X86942632Y-100035213D02*
X87037870Y-100082832D01*
X87037870Y-100082832D02*
X87085489Y-100130451D01*
X87085489Y-100130451D02*
X87133108Y-100225689D01*
X87133108Y-100225689D02*
X87133108Y-100606641D01*
X87609299Y-99606641D02*
X86609299Y-99606641D01*
X86609299Y-98939975D02*
X86609299Y-98749499D01*
X86609299Y-98749499D02*
X86656918Y-98654261D01*
X86656918Y-98654261D02*
X86752156Y-98559023D01*
X86752156Y-98559023D02*
X86942632Y-98511404D01*
X86942632Y-98511404D02*
X87275965Y-98511404D01*
X87275965Y-98511404D02*
X87466441Y-98559023D01*
X87466441Y-98559023D02*
X87561680Y-98654261D01*
X87561680Y-98654261D02*
X87609299Y-98749499D01*
X87609299Y-98749499D02*
X87609299Y-98939975D01*
X87609299Y-98939975D02*
X87561680Y-99035213D01*
X87561680Y-99035213D02*
X87466441Y-99130451D01*
X87466441Y-99130451D02*
X87275965Y-99178070D01*
X87275965Y-99178070D02*
X86942632Y-99178070D01*
X86942632Y-99178070D02*
X86752156Y-99130451D01*
X86752156Y-99130451D02*
X86656918Y-99035213D01*
X86656918Y-99035213D02*
X86609299Y-98939975D01*
X86704537Y-98130451D02*
X86656918Y-98082832D01*
X86656918Y-98082832D02*
X86609299Y-97987594D01*
X86609299Y-97987594D02*
X86609299Y-97749499D01*
X86609299Y-97749499D02*
X86656918Y-97654261D01*
X86656918Y-97654261D02*
X86704537Y-97606642D01*
X86704537Y-97606642D02*
X86799775Y-97559023D01*
X86799775Y-97559023D02*
X86895013Y-97559023D01*
X86895013Y-97559023D02*
X87037870Y-97606642D01*
X87037870Y-97606642D02*
X87609299Y-98178070D01*
X87609299Y-98178070D02*
X87609299Y-97559023D01*
X85166918Y-106272832D02*
X85119299Y-106368070D01*
X85119299Y-106368070D02*
X85119299Y-106510927D01*
X85119299Y-106510927D02*
X85166918Y-106653784D01*
X85166918Y-106653784D02*
X85262156Y-106749022D01*
X85262156Y-106749022D02*
X85357394Y-106796641D01*
X85357394Y-106796641D02*
X85547870Y-106844260D01*
X85547870Y-106844260D02*
X85690727Y-106844260D01*
X85690727Y-106844260D02*
X85881203Y-106796641D01*
X85881203Y-106796641D02*
X85976441Y-106749022D01*
X85976441Y-106749022D02*
X86071680Y-106653784D01*
X86071680Y-106653784D02*
X86119299Y-106510927D01*
X86119299Y-106510927D02*
X86119299Y-106415689D01*
X86119299Y-106415689D02*
X86071680Y-106272832D01*
X86071680Y-106272832D02*
X86024060Y-106225213D01*
X86024060Y-106225213D02*
X85690727Y-106225213D01*
X85690727Y-106225213D02*
X85690727Y-106415689D01*
X86119299Y-105796641D02*
X85119299Y-105796641D01*
X85119299Y-105796641D02*
X85119299Y-105415689D01*
X85119299Y-105415689D02*
X85166918Y-105320451D01*
X85166918Y-105320451D02*
X85214537Y-105272832D01*
X85214537Y-105272832D02*
X85309775Y-105225213D01*
X85309775Y-105225213D02*
X85452632Y-105225213D01*
X85452632Y-105225213D02*
X85547870Y-105272832D01*
X85547870Y-105272832D02*
X85595489Y-105320451D01*
X85595489Y-105320451D02*
X85643108Y-105415689D01*
X85643108Y-105415689D02*
X85643108Y-105796641D01*
X86119299Y-104796641D02*
X85119299Y-104796641D01*
X85119299Y-104129975D02*
X85119299Y-103939499D01*
X85119299Y-103939499D02*
X85166918Y-103844261D01*
X85166918Y-103844261D02*
X85262156Y-103749023D01*
X85262156Y-103749023D02*
X85452632Y-103701404D01*
X85452632Y-103701404D02*
X85785965Y-103701404D01*
X85785965Y-103701404D02*
X85976441Y-103749023D01*
X85976441Y-103749023D02*
X86071680Y-103844261D01*
X86071680Y-103844261D02*
X86119299Y-103939499D01*
X86119299Y-103939499D02*
X86119299Y-104129975D01*
X86119299Y-104129975D02*
X86071680Y-104225213D01*
X86071680Y-104225213D02*
X85976441Y-104320451D01*
X85976441Y-104320451D02*
X85785965Y-104368070D01*
X85785965Y-104368070D02*
X85452632Y-104368070D01*
X85452632Y-104368070D02*
X85262156Y-104320451D01*
X85262156Y-104320451D02*
X85166918Y-104225213D01*
X85166918Y-104225213D02*
X85119299Y-104129975D01*
X86119299Y-102749023D02*
X86119299Y-103320451D01*
X86119299Y-103034737D02*
X85119299Y-103034737D01*
X85119299Y-103034737D02*
X85262156Y-103129975D01*
X85262156Y-103129975D02*
X85357394Y-103225213D01*
X85357394Y-103225213D02*
X85405013Y-103320451D01*
X85119299Y-102129975D02*
X85119299Y-102034737D01*
X85119299Y-102034737D02*
X85166918Y-101939499D01*
X85166918Y-101939499D02*
X85214537Y-101891880D01*
X85214537Y-101891880D02*
X85309775Y-101844261D01*
X85309775Y-101844261D02*
X85500251Y-101796642D01*
X85500251Y-101796642D02*
X85738346Y-101796642D01*
X85738346Y-101796642D02*
X85928822Y-101844261D01*
X85928822Y-101844261D02*
X86024060Y-101891880D01*
X86024060Y-101891880D02*
X86071680Y-101939499D01*
X86071680Y-101939499D02*
X86119299Y-102034737D01*
X86119299Y-102034737D02*
X86119299Y-102129975D01*
X86119299Y-102129975D02*
X86071680Y-102225213D01*
X86071680Y-102225213D02*
X86024060Y-102272832D01*
X86024060Y-102272832D02*
X85928822Y-102320451D01*
X85928822Y-102320451D02*
X85738346Y-102368070D01*
X85738346Y-102368070D02*
X85500251Y-102368070D01*
X85500251Y-102368070D02*
X85309775Y-102320451D01*
X85309775Y-102320451D02*
X85214537Y-102272832D01*
X85214537Y-102272832D02*
X85166918Y-102225213D01*
X85166918Y-102225213D02*
X85119299Y-102129975D01*
X77916918Y-113952832D02*
X77869299Y-114048070D01*
X77869299Y-114048070D02*
X77869299Y-114190927D01*
X77869299Y-114190927D02*
X77916918Y-114333784D01*
X77916918Y-114333784D02*
X78012156Y-114429022D01*
X78012156Y-114429022D02*
X78107394Y-114476641D01*
X78107394Y-114476641D02*
X78297870Y-114524260D01*
X78297870Y-114524260D02*
X78440727Y-114524260D01*
X78440727Y-114524260D02*
X78631203Y-114476641D01*
X78631203Y-114476641D02*
X78726441Y-114429022D01*
X78726441Y-114429022D02*
X78821680Y-114333784D01*
X78821680Y-114333784D02*
X78869299Y-114190927D01*
X78869299Y-114190927D02*
X78869299Y-114095689D01*
X78869299Y-114095689D02*
X78821680Y-113952832D01*
X78821680Y-113952832D02*
X78774060Y-113905213D01*
X78774060Y-113905213D02*
X78440727Y-113905213D01*
X78440727Y-113905213D02*
X78440727Y-114095689D01*
X78869299Y-113476641D02*
X77869299Y-113476641D01*
X77869299Y-113476641D02*
X77869299Y-113095689D01*
X77869299Y-113095689D02*
X77916918Y-113000451D01*
X77916918Y-113000451D02*
X77964537Y-112952832D01*
X77964537Y-112952832D02*
X78059775Y-112905213D01*
X78059775Y-112905213D02*
X78202632Y-112905213D01*
X78202632Y-112905213D02*
X78297870Y-112952832D01*
X78297870Y-112952832D02*
X78345489Y-113000451D01*
X78345489Y-113000451D02*
X78393108Y-113095689D01*
X78393108Y-113095689D02*
X78393108Y-113476641D01*
X78869299Y-112476641D02*
X77869299Y-112476641D01*
X77869299Y-111809975D02*
X77869299Y-111619499D01*
X77869299Y-111619499D02*
X77916918Y-111524261D01*
X77916918Y-111524261D02*
X78012156Y-111429023D01*
X78012156Y-111429023D02*
X78202632Y-111381404D01*
X78202632Y-111381404D02*
X78535965Y-111381404D01*
X78535965Y-111381404D02*
X78726441Y-111429023D01*
X78726441Y-111429023D02*
X78821680Y-111524261D01*
X78821680Y-111524261D02*
X78869299Y-111619499D01*
X78869299Y-111619499D02*
X78869299Y-111809975D01*
X78869299Y-111809975D02*
X78821680Y-111905213D01*
X78821680Y-111905213D02*
X78726441Y-112000451D01*
X78726441Y-112000451D02*
X78535965Y-112048070D01*
X78535965Y-112048070D02*
X78202632Y-112048070D01*
X78202632Y-112048070D02*
X78012156Y-112000451D01*
X78012156Y-112000451D02*
X77916918Y-111905213D01*
X77916918Y-111905213D02*
X77869299Y-111809975D01*
X78869299Y-110429023D02*
X78869299Y-111000451D01*
X78869299Y-110714737D02*
X77869299Y-110714737D01*
X77869299Y-110714737D02*
X78012156Y-110809975D01*
X78012156Y-110809975D02*
X78107394Y-110905213D01*
X78107394Y-110905213D02*
X78155013Y-111000451D01*
X77869299Y-110095689D02*
X77869299Y-109476642D01*
X77869299Y-109476642D02*
X78250251Y-109809975D01*
X78250251Y-109809975D02*
X78250251Y-109667118D01*
X78250251Y-109667118D02*
X78297870Y-109571880D01*
X78297870Y-109571880D02*
X78345489Y-109524261D01*
X78345489Y-109524261D02*
X78440727Y-109476642D01*
X78440727Y-109476642D02*
X78678822Y-109476642D01*
X78678822Y-109476642D02*
X78774060Y-109524261D01*
X78774060Y-109524261D02*
X78821680Y-109571880D01*
X78821680Y-109571880D02*
X78869299Y-109667118D01*
X78869299Y-109667118D02*
X78869299Y-109952832D01*
X78869299Y-109952832D02*
X78821680Y-110048070D01*
X78821680Y-110048070D02*
X78774060Y-110095689D01*
X110767167Y-117116918D02*
X110671929Y-117069299D01*
X110671929Y-117069299D02*
X110529072Y-117069299D01*
X110529072Y-117069299D02*
X110386215Y-117116918D01*
X110386215Y-117116918D02*
X110290977Y-117212156D01*
X110290977Y-117212156D02*
X110243358Y-117307394D01*
X110243358Y-117307394D02*
X110195739Y-117497870D01*
X110195739Y-117497870D02*
X110195739Y-117640727D01*
X110195739Y-117640727D02*
X110243358Y-117831203D01*
X110243358Y-117831203D02*
X110290977Y-117926441D01*
X110290977Y-117926441D02*
X110386215Y-118021680D01*
X110386215Y-118021680D02*
X110529072Y-118069299D01*
X110529072Y-118069299D02*
X110624310Y-118069299D01*
X110624310Y-118069299D02*
X110767167Y-118021680D01*
X110767167Y-118021680D02*
X110814786Y-117974060D01*
X110814786Y-117974060D02*
X110814786Y-117640727D01*
X110814786Y-117640727D02*
X110624310Y-117640727D01*
X111243358Y-118069299D02*
X111243358Y-117069299D01*
X111243358Y-117069299D02*
X111814786Y-118069299D01*
X111814786Y-118069299D02*
X111814786Y-117069299D01*
X112290977Y-118069299D02*
X112290977Y-117069299D01*
X112290977Y-117069299D02*
X112529072Y-117069299D01*
X112529072Y-117069299D02*
X112671929Y-117116918D01*
X112671929Y-117116918D02*
X112767167Y-117212156D01*
X112767167Y-117212156D02*
X112814786Y-117307394D01*
X112814786Y-117307394D02*
X112862405Y-117497870D01*
X112862405Y-117497870D02*
X112862405Y-117640727D01*
X112862405Y-117640727D02*
X112814786Y-117831203D01*
X112814786Y-117831203D02*
X112767167Y-117926441D01*
X112767167Y-117926441D02*
X112671929Y-118021680D01*
X112671929Y-118021680D02*
X112529072Y-118069299D01*
X112529072Y-118069299D02*
X112290977Y-118069299D01*
X78667167Y-119686918D02*
X78571929Y-119639299D01*
X78571929Y-119639299D02*
X78429072Y-119639299D01*
X78429072Y-119639299D02*
X78286215Y-119686918D01*
X78286215Y-119686918D02*
X78190977Y-119782156D01*
X78190977Y-119782156D02*
X78143358Y-119877394D01*
X78143358Y-119877394D02*
X78095739Y-120067870D01*
X78095739Y-120067870D02*
X78095739Y-120210727D01*
X78095739Y-120210727D02*
X78143358Y-120401203D01*
X78143358Y-120401203D02*
X78190977Y-120496441D01*
X78190977Y-120496441D02*
X78286215Y-120591680D01*
X78286215Y-120591680D02*
X78429072Y-120639299D01*
X78429072Y-120639299D02*
X78524310Y-120639299D01*
X78524310Y-120639299D02*
X78667167Y-120591680D01*
X78667167Y-120591680D02*
X78714786Y-120544060D01*
X78714786Y-120544060D02*
X78714786Y-120210727D01*
X78714786Y-120210727D02*
X78524310Y-120210727D01*
X79143358Y-120639299D02*
X79143358Y-119639299D01*
X79143358Y-119639299D02*
X79714786Y-120639299D01*
X79714786Y-120639299D02*
X79714786Y-119639299D01*
X80190977Y-120639299D02*
X80190977Y-119639299D01*
X80190977Y-119639299D02*
X80429072Y-119639299D01*
X80429072Y-119639299D02*
X80571929Y-119686918D01*
X80571929Y-119686918D02*
X80667167Y-119782156D01*
X80667167Y-119782156D02*
X80714786Y-119877394D01*
X80714786Y-119877394D02*
X80762405Y-120067870D01*
X80762405Y-120067870D02*
X80762405Y-120210727D01*
X80762405Y-120210727D02*
X80714786Y-120401203D01*
X80714786Y-120401203D02*
X80667167Y-120496441D01*
X80667167Y-120496441D02*
X80571929Y-120591680D01*
X80571929Y-120591680D02*
X80429072Y-120639299D01*
X80429072Y-120639299D02*
X80190977Y-120639299D01*
X79326918Y-109252832D02*
X79279299Y-109348070D01*
X79279299Y-109348070D02*
X79279299Y-109490927D01*
X79279299Y-109490927D02*
X79326918Y-109633784D01*
X79326918Y-109633784D02*
X79422156Y-109729022D01*
X79422156Y-109729022D02*
X79517394Y-109776641D01*
X79517394Y-109776641D02*
X79707870Y-109824260D01*
X79707870Y-109824260D02*
X79850727Y-109824260D01*
X79850727Y-109824260D02*
X80041203Y-109776641D01*
X80041203Y-109776641D02*
X80136441Y-109729022D01*
X80136441Y-109729022D02*
X80231680Y-109633784D01*
X80231680Y-109633784D02*
X80279299Y-109490927D01*
X80279299Y-109490927D02*
X80279299Y-109395689D01*
X80279299Y-109395689D02*
X80231680Y-109252832D01*
X80231680Y-109252832D02*
X80184060Y-109205213D01*
X80184060Y-109205213D02*
X79850727Y-109205213D01*
X79850727Y-109205213D02*
X79850727Y-109395689D01*
X80279299Y-108776641D02*
X79279299Y-108776641D01*
X79279299Y-108776641D02*
X79279299Y-108395689D01*
X79279299Y-108395689D02*
X79326918Y-108300451D01*
X79326918Y-108300451D02*
X79374537Y-108252832D01*
X79374537Y-108252832D02*
X79469775Y-108205213D01*
X79469775Y-108205213D02*
X79612632Y-108205213D01*
X79612632Y-108205213D02*
X79707870Y-108252832D01*
X79707870Y-108252832D02*
X79755489Y-108300451D01*
X79755489Y-108300451D02*
X79803108Y-108395689D01*
X79803108Y-108395689D02*
X79803108Y-108776641D01*
X80279299Y-107776641D02*
X79279299Y-107776641D01*
X79279299Y-107109975D02*
X79279299Y-106919499D01*
X79279299Y-106919499D02*
X79326918Y-106824261D01*
X79326918Y-106824261D02*
X79422156Y-106729023D01*
X79422156Y-106729023D02*
X79612632Y-106681404D01*
X79612632Y-106681404D02*
X79945965Y-106681404D01*
X79945965Y-106681404D02*
X80136441Y-106729023D01*
X80136441Y-106729023D02*
X80231680Y-106824261D01*
X80231680Y-106824261D02*
X80279299Y-106919499D01*
X80279299Y-106919499D02*
X80279299Y-107109975D01*
X80279299Y-107109975D02*
X80231680Y-107205213D01*
X80231680Y-107205213D02*
X80136441Y-107300451D01*
X80136441Y-107300451D02*
X79945965Y-107348070D01*
X79945965Y-107348070D02*
X79612632Y-107348070D01*
X79612632Y-107348070D02*
X79422156Y-107300451D01*
X79422156Y-107300451D02*
X79326918Y-107205213D01*
X79326918Y-107205213D02*
X79279299Y-107109975D01*
X80279299Y-105729023D02*
X80279299Y-106300451D01*
X80279299Y-106014737D02*
X79279299Y-106014737D01*
X79279299Y-106014737D02*
X79422156Y-106109975D01*
X79422156Y-106109975D02*
X79517394Y-106205213D01*
X79517394Y-106205213D02*
X79565013Y-106300451D01*
X80279299Y-104776642D02*
X80279299Y-105348070D01*
X80279299Y-105062356D02*
X79279299Y-105062356D01*
X79279299Y-105062356D02*
X79422156Y-105157594D01*
X79422156Y-105157594D02*
X79517394Y-105252832D01*
X79517394Y-105252832D02*
X79565013Y-105348070D01*
X84848120Y-122269299D02*
X85467167Y-122269299D01*
X85467167Y-122269299D02*
X85133834Y-122650251D01*
X85133834Y-122650251D02*
X85276691Y-122650251D01*
X85276691Y-122650251D02*
X85371929Y-122697870D01*
X85371929Y-122697870D02*
X85419548Y-122745489D01*
X85419548Y-122745489D02*
X85467167Y-122840727D01*
X85467167Y-122840727D02*
X85467167Y-123078822D01*
X85467167Y-123078822D02*
X85419548Y-123174060D01*
X85419548Y-123174060D02*
X85371929Y-123221680D01*
X85371929Y-123221680D02*
X85276691Y-123269299D01*
X85276691Y-123269299D02*
X84990977Y-123269299D01*
X84990977Y-123269299D02*
X84895739Y-123221680D01*
X84895739Y-123221680D02*
X84848120Y-123174060D01*
X85752882Y-122269299D02*
X86086215Y-123269299D01*
X86086215Y-123269299D02*
X86419548Y-122269299D01*
X86657644Y-122269299D02*
X87276691Y-122269299D01*
X87276691Y-122269299D02*
X86943358Y-122650251D01*
X86943358Y-122650251D02*
X87086215Y-122650251D01*
X87086215Y-122650251D02*
X87181453Y-122697870D01*
X87181453Y-122697870D02*
X87229072Y-122745489D01*
X87229072Y-122745489D02*
X87276691Y-122840727D01*
X87276691Y-122840727D02*
X87276691Y-123078822D01*
X87276691Y-123078822D02*
X87229072Y-123174060D01*
X87229072Y-123174060D02*
X87181453Y-123221680D01*
X87181453Y-123221680D02*
X87086215Y-123269299D01*
X87086215Y-123269299D02*
X86800501Y-123269299D01*
X86800501Y-123269299D02*
X86705263Y-123221680D01*
X86705263Y-123221680D02*
X86657644Y-123174060D01*
X112069299Y-102456641D02*
X112878822Y-102456641D01*
X112878822Y-102456641D02*
X112974060Y-102409022D01*
X112974060Y-102409022D02*
X113021680Y-102361403D01*
X113021680Y-102361403D02*
X113069299Y-102266165D01*
X113069299Y-102266165D02*
X113069299Y-102075689D01*
X113069299Y-102075689D02*
X113021680Y-101980451D01*
X113021680Y-101980451D02*
X112974060Y-101932832D01*
X112974060Y-101932832D02*
X112878822Y-101885213D01*
X112878822Y-101885213D02*
X112069299Y-101885213D01*
X112069299Y-101218546D02*
X112069299Y-101123308D01*
X112069299Y-101123308D02*
X112116918Y-101028070D01*
X112116918Y-101028070D02*
X112164537Y-100980451D01*
X112164537Y-100980451D02*
X112259775Y-100932832D01*
X112259775Y-100932832D02*
X112450251Y-100885213D01*
X112450251Y-100885213D02*
X112688346Y-100885213D01*
X112688346Y-100885213D02*
X112878822Y-100932832D01*
X112878822Y-100932832D02*
X112974060Y-100980451D01*
X112974060Y-100980451D02*
X113021680Y-101028070D01*
X113021680Y-101028070D02*
X113069299Y-101123308D01*
X113069299Y-101123308D02*
X113069299Y-101218546D01*
X113069299Y-101218546D02*
X113021680Y-101313784D01*
X113021680Y-101313784D02*
X112974060Y-101361403D01*
X112974060Y-101361403D02*
X112878822Y-101409022D01*
X112878822Y-101409022D02*
X112688346Y-101456641D01*
X112688346Y-101456641D02*
X112450251Y-101456641D01*
X112450251Y-101456641D02*
X112259775Y-101409022D01*
X112259775Y-101409022D02*
X112164537Y-101361403D01*
X112164537Y-101361403D02*
X112116918Y-101313784D01*
X112116918Y-101313784D02*
X112069299Y-101218546D01*
X112069299Y-100599498D02*
X112069299Y-100028070D01*
X113069299Y-100313784D02*
X112069299Y-100313784D01*
X112069299Y-99789974D02*
X113069299Y-99123308D01*
X112069299Y-99123308D02*
X113069299Y-99789974D01*
X113069299Y-98742355D02*
X112069299Y-98742355D01*
X112069299Y-98742355D02*
X112069299Y-98504260D01*
X112069299Y-98504260D02*
X112116918Y-98361403D01*
X112116918Y-98361403D02*
X112212156Y-98266165D01*
X112212156Y-98266165D02*
X112307394Y-98218546D01*
X112307394Y-98218546D02*
X112497870Y-98170927D01*
X112497870Y-98170927D02*
X112640727Y-98170927D01*
X112640727Y-98170927D02*
X112831203Y-98218546D01*
X112831203Y-98218546D02*
X112926441Y-98266165D01*
X112926441Y-98266165D02*
X113021680Y-98361403D01*
X113021680Y-98361403D02*
X113069299Y-98504260D01*
X113069299Y-98504260D02*
X113069299Y-98742355D01*
X110667167Y-94116918D02*
X110571929Y-94069299D01*
X110571929Y-94069299D02*
X110429072Y-94069299D01*
X110429072Y-94069299D02*
X110286215Y-94116918D01*
X110286215Y-94116918D02*
X110190977Y-94212156D01*
X110190977Y-94212156D02*
X110143358Y-94307394D01*
X110143358Y-94307394D02*
X110095739Y-94497870D01*
X110095739Y-94497870D02*
X110095739Y-94640727D01*
X110095739Y-94640727D02*
X110143358Y-94831203D01*
X110143358Y-94831203D02*
X110190977Y-94926441D01*
X110190977Y-94926441D02*
X110286215Y-95021680D01*
X110286215Y-95021680D02*
X110429072Y-95069299D01*
X110429072Y-95069299D02*
X110524310Y-95069299D01*
X110524310Y-95069299D02*
X110667167Y-95021680D01*
X110667167Y-95021680D02*
X110714786Y-94974060D01*
X110714786Y-94974060D02*
X110714786Y-94640727D01*
X110714786Y-94640727D02*
X110524310Y-94640727D01*
X111143358Y-95069299D02*
X111143358Y-94069299D01*
X111143358Y-94069299D02*
X111714786Y-95069299D01*
X111714786Y-95069299D02*
X111714786Y-94069299D01*
X112190977Y-95069299D02*
X112190977Y-94069299D01*
X112190977Y-94069299D02*
X112429072Y-94069299D01*
X112429072Y-94069299D02*
X112571929Y-94116918D01*
X112571929Y-94116918D02*
X112667167Y-94212156D01*
X112667167Y-94212156D02*
X112714786Y-94307394D01*
X112714786Y-94307394D02*
X112762405Y-94497870D01*
X112762405Y-94497870D02*
X112762405Y-94640727D01*
X112762405Y-94640727D02*
X112714786Y-94831203D01*
X112714786Y-94831203D02*
X112667167Y-94926441D01*
X112667167Y-94926441D02*
X112571929Y-95021680D01*
X112571929Y-95021680D02*
X112429072Y-95069299D01*
X112429072Y-95069299D02*
X112190977Y-95069299D01*
X99924299Y-141806189D02*
X98924299Y-141806189D01*
X99829060Y-140758571D02*
X99876680Y-140806190D01*
X99876680Y-140806190D02*
X99924299Y-140949047D01*
X99924299Y-140949047D02*
X99924299Y-141044285D01*
X99924299Y-141044285D02*
X99876680Y-141187142D01*
X99876680Y-141187142D02*
X99781441Y-141282380D01*
X99781441Y-141282380D02*
X99686203Y-141329999D01*
X99686203Y-141329999D02*
X99495727Y-141377618D01*
X99495727Y-141377618D02*
X99352870Y-141377618D01*
X99352870Y-141377618D02*
X99162394Y-141329999D01*
X99162394Y-141329999D02*
X99067156Y-141282380D01*
X99067156Y-141282380D02*
X98971918Y-141187142D01*
X98971918Y-141187142D02*
X98924299Y-141044285D01*
X98924299Y-141044285D02*
X98924299Y-140949047D01*
X98924299Y-140949047D02*
X98971918Y-140806190D01*
X98971918Y-140806190D02*
X99019537Y-140758571D01*
X99019537Y-140377618D02*
X98971918Y-140329999D01*
X98971918Y-140329999D02*
X98924299Y-140234761D01*
X98924299Y-140234761D02*
X98924299Y-139996666D01*
X98924299Y-139996666D02*
X98971918Y-139901428D01*
X98971918Y-139901428D02*
X99019537Y-139853809D01*
X99019537Y-139853809D02*
X99114775Y-139806190D01*
X99114775Y-139806190D02*
X99210013Y-139806190D01*
X99210013Y-139806190D02*
X99352870Y-139853809D01*
X99352870Y-139853809D02*
X99924299Y-140425237D01*
X99924299Y-140425237D02*
X99924299Y-139806190D01*
X101763050Y-142961890D02*
X101763050Y-142723795D01*
X102001145Y-142819033D02*
X101763050Y-142723795D01*
X101763050Y-142723795D02*
X101524955Y-142819033D01*
X101905907Y-142533319D02*
X101763050Y-142723795D01*
X101763050Y-142723795D02*
X101620193Y-142533319D01*
X94811425Y-144982532D02*
X94478092Y-144506341D01*
X94239997Y-144982532D02*
X94239997Y-143982532D01*
X94239997Y-143982532D02*
X94620949Y-143982532D01*
X94620949Y-143982532D02*
X94716187Y-144030151D01*
X94716187Y-144030151D02*
X94763806Y-144077770D01*
X94763806Y-144077770D02*
X94811425Y-144173008D01*
X94811425Y-144173008D02*
X94811425Y-144315865D01*
X94811425Y-144315865D02*
X94763806Y-144411103D01*
X94763806Y-144411103D02*
X94716187Y-144458722D01*
X94716187Y-144458722D02*
X94620949Y-144506341D01*
X94620949Y-144506341D02*
X94239997Y-144506341D01*
X95144759Y-143982532D02*
X95811425Y-143982532D01*
X95811425Y-143982532D02*
X95382854Y-144982532D01*
X94143810Y-122664299D02*
X94143810Y-121664299D01*
X95191428Y-122569060D02*
X95143809Y-122616680D01*
X95143809Y-122616680D02*
X95000952Y-122664299D01*
X95000952Y-122664299D02*
X94905714Y-122664299D01*
X94905714Y-122664299D02*
X94762857Y-122616680D01*
X94762857Y-122616680D02*
X94667619Y-122521441D01*
X94667619Y-122521441D02*
X94620000Y-122426203D01*
X94620000Y-122426203D02*
X94572381Y-122235727D01*
X94572381Y-122235727D02*
X94572381Y-122092870D01*
X94572381Y-122092870D02*
X94620000Y-121902394D01*
X94620000Y-121902394D02*
X94667619Y-121807156D01*
X94667619Y-121807156D02*
X94762857Y-121711918D01*
X94762857Y-121711918D02*
X94905714Y-121664299D01*
X94905714Y-121664299D02*
X95000952Y-121664299D01*
X95000952Y-121664299D02*
X95143809Y-121711918D01*
X95143809Y-121711918D02*
X95191428Y-121759537D01*
X95524762Y-121664299D02*
X96143809Y-121664299D01*
X96143809Y-121664299D02*
X95810476Y-122045251D01*
X95810476Y-122045251D02*
X95953333Y-122045251D01*
X95953333Y-122045251D02*
X96048571Y-122092870D01*
X96048571Y-122092870D02*
X96096190Y-122140489D01*
X96096190Y-122140489D02*
X96143809Y-122235727D01*
X96143809Y-122235727D02*
X96143809Y-122473822D01*
X96143809Y-122473822D02*
X96096190Y-122569060D01*
X96096190Y-122569060D02*
X96048571Y-122616680D01*
X96048571Y-122616680D02*
X95953333Y-122664299D01*
X95953333Y-122664299D02*
X95667619Y-122664299D01*
X95667619Y-122664299D02*
X95572381Y-122616680D01*
X95572381Y-122616680D02*
X95524762Y-122569060D01*
X88552142Y-128899060D02*
X88504523Y-128946680D01*
X88504523Y-128946680D02*
X88361666Y-128994299D01*
X88361666Y-128994299D02*
X88266428Y-128994299D01*
X88266428Y-128994299D02*
X88123571Y-128946680D01*
X88123571Y-128946680D02*
X88028333Y-128851441D01*
X88028333Y-128851441D02*
X87980714Y-128756203D01*
X87980714Y-128756203D02*
X87933095Y-128565727D01*
X87933095Y-128565727D02*
X87933095Y-128422870D01*
X87933095Y-128422870D02*
X87980714Y-128232394D01*
X87980714Y-128232394D02*
X88028333Y-128137156D01*
X88028333Y-128137156D02*
X88123571Y-128041918D01*
X88123571Y-128041918D02*
X88266428Y-127994299D01*
X88266428Y-127994299D02*
X88361666Y-127994299D01*
X88361666Y-127994299D02*
X88504523Y-128041918D01*
X88504523Y-128041918D02*
X88552142Y-128089537D01*
X88885476Y-127994299D02*
X89504523Y-127994299D01*
X89504523Y-127994299D02*
X89171190Y-128375251D01*
X89171190Y-128375251D02*
X89314047Y-128375251D01*
X89314047Y-128375251D02*
X89409285Y-128422870D01*
X89409285Y-128422870D02*
X89456904Y-128470489D01*
X89456904Y-128470489D02*
X89504523Y-128565727D01*
X89504523Y-128565727D02*
X89504523Y-128803822D01*
X89504523Y-128803822D02*
X89456904Y-128899060D01*
X89456904Y-128899060D02*
X89409285Y-128946680D01*
X89409285Y-128946680D02*
X89314047Y-128994299D01*
X89314047Y-128994299D02*
X89028333Y-128994299D01*
X89028333Y-128994299D02*
X88933095Y-128946680D01*
X88933095Y-128946680D02*
X88885476Y-128899060D01*
X89885476Y-128089537D02*
X89933095Y-128041918D01*
X89933095Y-128041918D02*
X90028333Y-127994299D01*
X90028333Y-127994299D02*
X90266428Y-127994299D01*
X90266428Y-127994299D02*
X90361666Y-128041918D01*
X90361666Y-128041918D02*
X90409285Y-128089537D01*
X90409285Y-128089537D02*
X90456904Y-128184775D01*
X90456904Y-128184775D02*
X90456904Y-128280013D01*
X90456904Y-128280013D02*
X90409285Y-128422870D01*
X90409285Y-128422870D02*
X89837857Y-128994299D01*
X89837857Y-128994299D02*
X90456904Y-128994299D01*
X102751043Y-137751563D02*
X102274853Y-137751563D01*
X102274853Y-137751563D02*
X102274853Y-136751563D01*
X103608186Y-137751563D02*
X103036758Y-137751563D01*
X103322472Y-137751563D02*
X103322472Y-136751563D01*
X103322472Y-136751563D02*
X103227234Y-136894420D01*
X103227234Y-136894420D02*
X103131996Y-136989658D01*
X103131996Y-136989658D02*
X103036758Y-137037277D01*
X81177925Y-128025392D02*
X80844592Y-127549201D01*
X80606497Y-128025392D02*
X80606497Y-127025392D01*
X80606497Y-127025392D02*
X80987449Y-127025392D01*
X80987449Y-127025392D02*
X81082687Y-127073011D01*
X81082687Y-127073011D02*
X81130306Y-127120630D01*
X81130306Y-127120630D02*
X81177925Y-127215868D01*
X81177925Y-127215868D02*
X81177925Y-127358725D01*
X81177925Y-127358725D02*
X81130306Y-127453963D01*
X81130306Y-127453963D02*
X81082687Y-127501582D01*
X81082687Y-127501582D02*
X80987449Y-127549201D01*
X80987449Y-127549201D02*
X80606497Y-127549201D01*
X82130306Y-128025392D02*
X81558878Y-128025392D01*
X81844592Y-128025392D02*
X81844592Y-127025392D01*
X81844592Y-127025392D02*
X81749354Y-127168249D01*
X81749354Y-127168249D02*
X81654116Y-127263487D01*
X81654116Y-127263487D02*
X81558878Y-127311106D01*
X83082687Y-128025392D02*
X82511259Y-128025392D01*
X82796973Y-128025392D02*
X82796973Y-127025392D01*
X82796973Y-127025392D02*
X82701735Y-127168249D01*
X82701735Y-127168249D02*
X82606497Y-127263487D01*
X82606497Y-127263487D02*
X82511259Y-127311106D01*
X92632577Y-101618195D02*
X92584958Y-101665815D01*
X92584958Y-101665815D02*
X92442101Y-101713434D01*
X92442101Y-101713434D02*
X92346863Y-101713434D01*
X92346863Y-101713434D02*
X92204006Y-101665815D01*
X92204006Y-101665815D02*
X92108768Y-101570576D01*
X92108768Y-101570576D02*
X92061149Y-101475338D01*
X92061149Y-101475338D02*
X92013530Y-101284862D01*
X92013530Y-101284862D02*
X92013530Y-101142005D01*
X92013530Y-101142005D02*
X92061149Y-100951529D01*
X92061149Y-100951529D02*
X92108768Y-100856291D01*
X92108768Y-100856291D02*
X92204006Y-100761053D01*
X92204006Y-100761053D02*
X92346863Y-100713434D01*
X92346863Y-100713434D02*
X92442101Y-100713434D01*
X92442101Y-100713434D02*
X92584958Y-100761053D01*
X92584958Y-100761053D02*
X92632577Y-100808672D01*
X93584958Y-101713434D02*
X93013530Y-101713434D01*
X93299244Y-101713434D02*
X93299244Y-100713434D01*
X93299244Y-100713434D02*
X93204006Y-100856291D01*
X93204006Y-100856291D02*
X93108768Y-100951529D01*
X93108768Y-100951529D02*
X93013530Y-100999148D01*
X94442101Y-100713434D02*
X94251625Y-100713434D01*
X94251625Y-100713434D02*
X94156387Y-100761053D01*
X94156387Y-100761053D02*
X94108768Y-100808672D01*
X94108768Y-100808672D02*
X94013530Y-100951529D01*
X94013530Y-100951529D02*
X93965911Y-101142005D01*
X93965911Y-101142005D02*
X93965911Y-101522957D01*
X93965911Y-101522957D02*
X94013530Y-101618195D01*
X94013530Y-101618195D02*
X94061149Y-101665815D01*
X94061149Y-101665815D02*
X94156387Y-101713434D01*
X94156387Y-101713434D02*
X94346863Y-101713434D01*
X94346863Y-101713434D02*
X94442101Y-101665815D01*
X94442101Y-101665815D02*
X94489720Y-101618195D01*
X94489720Y-101618195D02*
X94537339Y-101522957D01*
X94537339Y-101522957D02*
X94537339Y-101284862D01*
X94537339Y-101284862D02*
X94489720Y-101189624D01*
X94489720Y-101189624D02*
X94442101Y-101142005D01*
X94442101Y-101142005D02*
X94346863Y-101094386D01*
X94346863Y-101094386D02*
X94156387Y-101094386D01*
X94156387Y-101094386D02*
X94061149Y-101142005D01*
X94061149Y-101142005D02*
X94013530Y-101189624D01*
X94013530Y-101189624D02*
X93965911Y-101284862D01*
X92120837Y-100013193D02*
X92073218Y-100060813D01*
X92073218Y-100060813D02*
X91930361Y-100108432D01*
X91930361Y-100108432D02*
X91835123Y-100108432D01*
X91835123Y-100108432D02*
X91692266Y-100060813D01*
X91692266Y-100060813D02*
X91597028Y-99965574D01*
X91597028Y-99965574D02*
X91549409Y-99870336D01*
X91549409Y-99870336D02*
X91501790Y-99679860D01*
X91501790Y-99679860D02*
X91501790Y-99537003D01*
X91501790Y-99537003D02*
X91549409Y-99346527D01*
X91549409Y-99346527D02*
X91597028Y-99251289D01*
X91597028Y-99251289D02*
X91692266Y-99156051D01*
X91692266Y-99156051D02*
X91835123Y-99108432D01*
X91835123Y-99108432D02*
X91930361Y-99108432D01*
X91930361Y-99108432D02*
X92073218Y-99156051D01*
X92073218Y-99156051D02*
X92120837Y-99203670D01*
X93073218Y-100108432D02*
X92501790Y-100108432D01*
X92787504Y-100108432D02*
X92787504Y-99108432D01*
X92787504Y-99108432D02*
X92692266Y-99251289D01*
X92692266Y-99251289D02*
X92597028Y-99346527D01*
X92597028Y-99346527D02*
X92501790Y-99394146D01*
X93644647Y-99537003D02*
X93549409Y-99489384D01*
X93549409Y-99489384D02*
X93501790Y-99441765D01*
X93501790Y-99441765D02*
X93454171Y-99346527D01*
X93454171Y-99346527D02*
X93454171Y-99298908D01*
X93454171Y-99298908D02*
X93501790Y-99203670D01*
X93501790Y-99203670D02*
X93549409Y-99156051D01*
X93549409Y-99156051D02*
X93644647Y-99108432D01*
X93644647Y-99108432D02*
X93835123Y-99108432D01*
X93835123Y-99108432D02*
X93930361Y-99156051D01*
X93930361Y-99156051D02*
X93977980Y-99203670D01*
X93977980Y-99203670D02*
X94025599Y-99298908D01*
X94025599Y-99298908D02*
X94025599Y-99346527D01*
X94025599Y-99346527D02*
X93977980Y-99441765D01*
X93977980Y-99441765D02*
X93930361Y-99489384D01*
X93930361Y-99489384D02*
X93835123Y-99537003D01*
X93835123Y-99537003D02*
X93644647Y-99537003D01*
X93644647Y-99537003D02*
X93549409Y-99584622D01*
X93549409Y-99584622D02*
X93501790Y-99632241D01*
X93501790Y-99632241D02*
X93454171Y-99727479D01*
X93454171Y-99727479D02*
X93454171Y-99917955D01*
X93454171Y-99917955D02*
X93501790Y-100013193D01*
X93501790Y-100013193D02*
X93549409Y-100060813D01*
X93549409Y-100060813D02*
X93644647Y-100108432D01*
X93644647Y-100108432D02*
X93835123Y-100108432D01*
X93835123Y-100108432D02*
X93930361Y-100060813D01*
X93930361Y-100060813D02*
X93977980Y-100013193D01*
X93977980Y-100013193D02*
X94025599Y-99917955D01*
X94025599Y-99917955D02*
X94025599Y-99727479D01*
X94025599Y-99727479D02*
X93977980Y-99632241D01*
X93977980Y-99632241D02*
X93930361Y-99584622D01*
X93930361Y-99584622D02*
X93835123Y-99537003D01*
X106151406Y-140800034D02*
X105818073Y-140323843D01*
X105579978Y-140800034D02*
X105579978Y-139800034D01*
X105579978Y-139800034D02*
X105960930Y-139800034D01*
X105960930Y-139800034D02*
X106056168Y-139847653D01*
X106056168Y-139847653D02*
X106103787Y-139895272D01*
X106103787Y-139895272D02*
X106151406Y-139990510D01*
X106151406Y-139990510D02*
X106151406Y-140133367D01*
X106151406Y-140133367D02*
X106103787Y-140228605D01*
X106103787Y-140228605D02*
X106056168Y-140276224D01*
X106056168Y-140276224D02*
X105960930Y-140323843D01*
X105960930Y-140323843D02*
X105579978Y-140323843D01*
X107103787Y-140800034D02*
X106532359Y-140800034D01*
X106818073Y-140800034D02*
X106818073Y-139800034D01*
X106818073Y-139800034D02*
X106722835Y-139942891D01*
X106722835Y-139942891D02*
X106627597Y-140038129D01*
X106627597Y-140038129D02*
X106532359Y-140085748D01*
X107722835Y-139800034D02*
X107818073Y-139800034D01*
X107818073Y-139800034D02*
X107913311Y-139847653D01*
X107913311Y-139847653D02*
X107960930Y-139895272D01*
X107960930Y-139895272D02*
X108008549Y-139990510D01*
X108008549Y-139990510D02*
X108056168Y-140180986D01*
X108056168Y-140180986D02*
X108056168Y-140419081D01*
X108056168Y-140419081D02*
X108008549Y-140609557D01*
X108008549Y-140609557D02*
X107960930Y-140704795D01*
X107960930Y-140704795D02*
X107913311Y-140752415D01*
X107913311Y-140752415D02*
X107818073Y-140800034D01*
X107818073Y-140800034D02*
X107722835Y-140800034D01*
X107722835Y-140800034D02*
X107627597Y-140752415D01*
X107627597Y-140752415D02*
X107579978Y-140704795D01*
X107579978Y-140704795D02*
X107532359Y-140609557D01*
X107532359Y-140609557D02*
X107484740Y-140419081D01*
X107484740Y-140419081D02*
X107484740Y-140180986D01*
X107484740Y-140180986D02*
X107532359Y-139990510D01*
X107532359Y-139990510D02*
X107579978Y-139895272D01*
X107579978Y-139895272D02*
X107627597Y-139847653D01*
X107627597Y-139847653D02*
X107722835Y-139800034D01*
X83542514Y-139805518D02*
X83209181Y-139329327D01*
X82971086Y-139805518D02*
X82971086Y-138805518D01*
X82971086Y-138805518D02*
X83352038Y-138805518D01*
X83352038Y-138805518D02*
X83447276Y-138853137D01*
X83447276Y-138853137D02*
X83494895Y-138900756D01*
X83494895Y-138900756D02*
X83542514Y-138995994D01*
X83542514Y-138995994D02*
X83542514Y-139138851D01*
X83542514Y-139138851D02*
X83494895Y-139234089D01*
X83494895Y-139234089D02*
X83447276Y-139281708D01*
X83447276Y-139281708D02*
X83352038Y-139329327D01*
X83352038Y-139329327D02*
X82971086Y-139329327D01*
X84494895Y-139805518D02*
X83923467Y-139805518D01*
X84209181Y-139805518D02*
X84209181Y-138805518D01*
X84209181Y-138805518D02*
X84113943Y-138948375D01*
X84113943Y-138948375D02*
X84018705Y-139043613D01*
X84018705Y-139043613D02*
X83923467Y-139091232D01*
X93137142Y-142129060D02*
X93089523Y-142176680D01*
X93089523Y-142176680D02*
X92946666Y-142224299D01*
X92946666Y-142224299D02*
X92851428Y-142224299D01*
X92851428Y-142224299D02*
X92708571Y-142176680D01*
X92708571Y-142176680D02*
X92613333Y-142081441D01*
X92613333Y-142081441D02*
X92565714Y-141986203D01*
X92565714Y-141986203D02*
X92518095Y-141795727D01*
X92518095Y-141795727D02*
X92518095Y-141652870D01*
X92518095Y-141652870D02*
X92565714Y-141462394D01*
X92565714Y-141462394D02*
X92613333Y-141367156D01*
X92613333Y-141367156D02*
X92708571Y-141271918D01*
X92708571Y-141271918D02*
X92851428Y-141224299D01*
X92851428Y-141224299D02*
X92946666Y-141224299D01*
X92946666Y-141224299D02*
X93089523Y-141271918D01*
X93089523Y-141271918D02*
X93137142Y-141319537D01*
X94089523Y-142224299D02*
X93518095Y-142224299D01*
X93803809Y-142224299D02*
X93803809Y-141224299D01*
X93803809Y-141224299D02*
X93708571Y-141367156D01*
X93708571Y-141367156D02*
X93613333Y-141462394D01*
X93613333Y-141462394D02*
X93518095Y-141510013D01*
X94422857Y-141224299D02*
X95041904Y-141224299D01*
X95041904Y-141224299D02*
X94708571Y-141605251D01*
X94708571Y-141605251D02*
X94851428Y-141605251D01*
X94851428Y-141605251D02*
X94946666Y-141652870D01*
X94946666Y-141652870D02*
X94994285Y-141700489D01*
X94994285Y-141700489D02*
X95041904Y-141795727D01*
X95041904Y-141795727D02*
X95041904Y-142033822D01*
X95041904Y-142033822D02*
X94994285Y-142129060D01*
X94994285Y-142129060D02*
X94946666Y-142176680D01*
X94946666Y-142176680D02*
X94851428Y-142224299D01*
X94851428Y-142224299D02*
X94565714Y-142224299D01*
X94565714Y-142224299D02*
X94470476Y-142176680D01*
X94470476Y-142176680D02*
X94422857Y-142129060D01*
X79593333Y-136459549D02*
X79260000Y-135983358D01*
X79021905Y-136459549D02*
X79021905Y-135459549D01*
X79021905Y-135459549D02*
X79402857Y-135459549D01*
X79402857Y-135459549D02*
X79498095Y-135507168D01*
X79498095Y-135507168D02*
X79545714Y-135554787D01*
X79545714Y-135554787D02*
X79593333Y-135650025D01*
X79593333Y-135650025D02*
X79593333Y-135792882D01*
X79593333Y-135792882D02*
X79545714Y-135888120D01*
X79545714Y-135888120D02*
X79498095Y-135935739D01*
X79498095Y-135935739D02*
X79402857Y-135983358D01*
X79402857Y-135983358D02*
X79021905Y-135983358D01*
X80069524Y-136459549D02*
X80260000Y-136459549D01*
X80260000Y-136459549D02*
X80355238Y-136411930D01*
X80355238Y-136411930D02*
X80402857Y-136364310D01*
X80402857Y-136364310D02*
X80498095Y-136221453D01*
X80498095Y-136221453D02*
X80545714Y-136030977D01*
X80545714Y-136030977D02*
X80545714Y-135650025D01*
X80545714Y-135650025D02*
X80498095Y-135554787D01*
X80498095Y-135554787D02*
X80450476Y-135507168D01*
X80450476Y-135507168D02*
X80355238Y-135459549D01*
X80355238Y-135459549D02*
X80164762Y-135459549D01*
X80164762Y-135459549D02*
X80069524Y-135507168D01*
X80069524Y-135507168D02*
X80021905Y-135554787D01*
X80021905Y-135554787D02*
X79974286Y-135650025D01*
X79974286Y-135650025D02*
X79974286Y-135888120D01*
X79974286Y-135888120D02*
X80021905Y-135983358D01*
X80021905Y-135983358D02*
X80069524Y-136030977D01*
X80069524Y-136030977D02*
X80164762Y-136078596D01*
X80164762Y-136078596D02*
X80355238Y-136078596D01*
X80355238Y-136078596D02*
X80450476Y-136030977D01*
X80450476Y-136030977D02*
X80498095Y-135983358D01*
X80498095Y-135983358D02*
X80545714Y-135888120D01*
X102249329Y-100125123D02*
X102201710Y-100172743D01*
X102201710Y-100172743D02*
X102058853Y-100220362D01*
X102058853Y-100220362D02*
X101963615Y-100220362D01*
X101963615Y-100220362D02*
X101820758Y-100172743D01*
X101820758Y-100172743D02*
X101725520Y-100077504D01*
X101725520Y-100077504D02*
X101677901Y-99982266D01*
X101677901Y-99982266D02*
X101630282Y-99791790D01*
X101630282Y-99791790D02*
X101630282Y-99648933D01*
X101630282Y-99648933D02*
X101677901Y-99458457D01*
X101677901Y-99458457D02*
X101725520Y-99363219D01*
X101725520Y-99363219D02*
X101820758Y-99267981D01*
X101820758Y-99267981D02*
X101963615Y-99220362D01*
X101963615Y-99220362D02*
X102058853Y-99220362D01*
X102058853Y-99220362D02*
X102201710Y-99267981D01*
X102201710Y-99267981D02*
X102249329Y-99315600D01*
X103201710Y-100220362D02*
X102630282Y-100220362D01*
X102915996Y-100220362D02*
X102915996Y-99220362D01*
X102915996Y-99220362D02*
X102820758Y-99363219D01*
X102820758Y-99363219D02*
X102725520Y-99458457D01*
X102725520Y-99458457D02*
X102630282Y-99506076D01*
X103535044Y-99220362D02*
X104201710Y-99220362D01*
X104201710Y-99220362D02*
X103773139Y-100220362D01*
X108617142Y-145269060D02*
X108569523Y-145316680D01*
X108569523Y-145316680D02*
X108426666Y-145364299D01*
X108426666Y-145364299D02*
X108331428Y-145364299D01*
X108331428Y-145364299D02*
X108188571Y-145316680D01*
X108188571Y-145316680D02*
X108093333Y-145221441D01*
X108093333Y-145221441D02*
X108045714Y-145126203D01*
X108045714Y-145126203D02*
X107998095Y-144935727D01*
X107998095Y-144935727D02*
X107998095Y-144792870D01*
X107998095Y-144792870D02*
X108045714Y-144602394D01*
X108045714Y-144602394D02*
X108093333Y-144507156D01*
X108093333Y-144507156D02*
X108188571Y-144411918D01*
X108188571Y-144411918D02*
X108331428Y-144364299D01*
X108331428Y-144364299D02*
X108426666Y-144364299D01*
X108426666Y-144364299D02*
X108569523Y-144411918D01*
X108569523Y-144411918D02*
X108617142Y-144459537D01*
X109569523Y-145364299D02*
X108998095Y-145364299D01*
X109283809Y-145364299D02*
X109283809Y-144364299D01*
X109283809Y-144364299D02*
X109188571Y-144507156D01*
X109188571Y-144507156D02*
X109093333Y-144602394D01*
X109093333Y-144602394D02*
X108998095Y-144650013D01*
X110188571Y-144364299D02*
X110283809Y-144364299D01*
X110283809Y-144364299D02*
X110379047Y-144411918D01*
X110379047Y-144411918D02*
X110426666Y-144459537D01*
X110426666Y-144459537D02*
X110474285Y-144554775D01*
X110474285Y-144554775D02*
X110521904Y-144745251D01*
X110521904Y-144745251D02*
X110521904Y-144983346D01*
X110521904Y-144983346D02*
X110474285Y-145173822D01*
X110474285Y-145173822D02*
X110426666Y-145269060D01*
X110426666Y-145269060D02*
X110379047Y-145316680D01*
X110379047Y-145316680D02*
X110283809Y-145364299D01*
X110283809Y-145364299D02*
X110188571Y-145364299D01*
X110188571Y-145364299D02*
X110093333Y-145316680D01*
X110093333Y-145316680D02*
X110045714Y-145269060D01*
X110045714Y-145269060D02*
X109998095Y-145173822D01*
X109998095Y-145173822D02*
X109950476Y-144983346D01*
X109950476Y-144983346D02*
X109950476Y-144745251D01*
X109950476Y-144745251D02*
X109998095Y-144554775D01*
X109998095Y-144554775D02*
X110045714Y-144459537D01*
X110045714Y-144459537D02*
X110093333Y-144411918D01*
X110093333Y-144411918D02*
X110188571Y-144364299D01*
X98083333Y-132999060D02*
X98035714Y-133046680D01*
X98035714Y-133046680D02*
X97892857Y-133094299D01*
X97892857Y-133094299D02*
X97797619Y-133094299D01*
X97797619Y-133094299D02*
X97654762Y-133046680D01*
X97654762Y-133046680D02*
X97559524Y-132951441D01*
X97559524Y-132951441D02*
X97511905Y-132856203D01*
X97511905Y-132856203D02*
X97464286Y-132665727D01*
X97464286Y-132665727D02*
X97464286Y-132522870D01*
X97464286Y-132522870D02*
X97511905Y-132332394D01*
X97511905Y-132332394D02*
X97559524Y-132237156D01*
X97559524Y-132237156D02*
X97654762Y-132141918D01*
X97654762Y-132141918D02*
X97797619Y-132094299D01*
X97797619Y-132094299D02*
X97892857Y-132094299D01*
X97892857Y-132094299D02*
X98035714Y-132141918D01*
X98035714Y-132141918D02*
X98083333Y-132189537D01*
X98559524Y-133094299D02*
X98750000Y-133094299D01*
X98750000Y-133094299D02*
X98845238Y-133046680D01*
X98845238Y-133046680D02*
X98892857Y-132999060D01*
X98892857Y-132999060D02*
X98988095Y-132856203D01*
X98988095Y-132856203D02*
X99035714Y-132665727D01*
X99035714Y-132665727D02*
X99035714Y-132284775D01*
X99035714Y-132284775D02*
X98988095Y-132189537D01*
X98988095Y-132189537D02*
X98940476Y-132141918D01*
X98940476Y-132141918D02*
X98845238Y-132094299D01*
X98845238Y-132094299D02*
X98654762Y-132094299D01*
X98654762Y-132094299D02*
X98559524Y-132141918D01*
X98559524Y-132141918D02*
X98511905Y-132189537D01*
X98511905Y-132189537D02*
X98464286Y-132284775D01*
X98464286Y-132284775D02*
X98464286Y-132522870D01*
X98464286Y-132522870D02*
X98511905Y-132618108D01*
X98511905Y-132618108D02*
X98559524Y-132665727D01*
X98559524Y-132665727D02*
X98654762Y-132713346D01*
X98654762Y-132713346D02*
X98845238Y-132713346D01*
X98845238Y-132713346D02*
X98940476Y-132665727D01*
X98940476Y-132665727D02*
X98988095Y-132618108D01*
X98988095Y-132618108D02*
X99035714Y-132522870D01*
X82915487Y-125825415D02*
X82582154Y-125349224D01*
X82344059Y-125825415D02*
X82344059Y-124825415D01*
X82344059Y-124825415D02*
X82725011Y-124825415D01*
X82725011Y-124825415D02*
X82820249Y-124873034D01*
X82820249Y-124873034D02*
X82867868Y-124920653D01*
X82867868Y-124920653D02*
X82915487Y-125015891D01*
X82915487Y-125015891D02*
X82915487Y-125158748D01*
X82915487Y-125158748D02*
X82867868Y-125253986D01*
X82867868Y-125253986D02*
X82820249Y-125301605D01*
X82820249Y-125301605D02*
X82725011Y-125349224D01*
X82725011Y-125349224D02*
X82344059Y-125349224D01*
X83867868Y-125825415D02*
X83296440Y-125825415D01*
X83582154Y-125825415D02*
X83582154Y-124825415D01*
X83582154Y-124825415D02*
X83486916Y-124968272D01*
X83486916Y-124968272D02*
X83391678Y-125063510D01*
X83391678Y-125063510D02*
X83296440Y-125111129D01*
X84248821Y-124920653D02*
X84296440Y-124873034D01*
X84296440Y-124873034D02*
X84391678Y-124825415D01*
X84391678Y-124825415D02*
X84629773Y-124825415D01*
X84629773Y-124825415D02*
X84725011Y-124873034D01*
X84725011Y-124873034D02*
X84772630Y-124920653D01*
X84772630Y-124920653D02*
X84820249Y-125015891D01*
X84820249Y-125015891D02*
X84820249Y-125111129D01*
X84820249Y-125111129D02*
X84772630Y-125253986D01*
X84772630Y-125253986D02*
X84201202Y-125825415D01*
X84201202Y-125825415D02*
X84820249Y-125825415D01*
X99051286Y-102578340D02*
X99098906Y-102625959D01*
X99098906Y-102625959D02*
X99146525Y-102768816D01*
X99146525Y-102768816D02*
X99146525Y-102864054D01*
X99146525Y-102864054D02*
X99098906Y-103006911D01*
X99098906Y-103006911D02*
X99003667Y-103102149D01*
X99003667Y-103102149D02*
X98908429Y-103149768D01*
X98908429Y-103149768D02*
X98717953Y-103197387D01*
X98717953Y-103197387D02*
X98575096Y-103197387D01*
X98575096Y-103197387D02*
X98384620Y-103149768D01*
X98384620Y-103149768D02*
X98289382Y-103102149D01*
X98289382Y-103102149D02*
X98194144Y-103006911D01*
X98194144Y-103006911D02*
X98146525Y-102864054D01*
X98146525Y-102864054D02*
X98146525Y-102768816D01*
X98146525Y-102768816D02*
X98194144Y-102625959D01*
X98194144Y-102625959D02*
X98241763Y-102578340D01*
X98241763Y-102197387D02*
X98194144Y-102149768D01*
X98194144Y-102149768D02*
X98146525Y-102054530D01*
X98146525Y-102054530D02*
X98146525Y-101816435D01*
X98146525Y-101816435D02*
X98194144Y-101721197D01*
X98194144Y-101721197D02*
X98241763Y-101673578D01*
X98241763Y-101673578D02*
X98337001Y-101625959D01*
X98337001Y-101625959D02*
X98432239Y-101625959D01*
X98432239Y-101625959D02*
X98575096Y-101673578D01*
X98575096Y-101673578D02*
X99146525Y-102245006D01*
X99146525Y-102245006D02*
X99146525Y-101625959D01*
X98146525Y-101006911D02*
X98146525Y-100911673D01*
X98146525Y-100911673D02*
X98194144Y-100816435D01*
X98194144Y-100816435D02*
X98241763Y-100768816D01*
X98241763Y-100768816D02*
X98337001Y-100721197D01*
X98337001Y-100721197D02*
X98527477Y-100673578D01*
X98527477Y-100673578D02*
X98765572Y-100673578D01*
X98765572Y-100673578D02*
X98956048Y-100721197D01*
X98956048Y-100721197D02*
X99051286Y-100768816D01*
X99051286Y-100768816D02*
X99098906Y-100816435D01*
X99098906Y-100816435D02*
X99146525Y-100911673D01*
X99146525Y-100911673D02*
X99146525Y-101006911D01*
X99146525Y-101006911D02*
X99098906Y-101102149D01*
X99098906Y-101102149D02*
X99051286Y-101149768D01*
X99051286Y-101149768D02*
X98956048Y-101197387D01*
X98956048Y-101197387D02*
X98765572Y-101245006D01*
X98765572Y-101245006D02*
X98527477Y-101245006D01*
X98527477Y-101245006D02*
X98337001Y-101197387D01*
X98337001Y-101197387D02*
X98241763Y-101149768D01*
X98241763Y-101149768D02*
X98194144Y-101102149D01*
X98194144Y-101102149D02*
X98146525Y-101006911D01*
X100067142Y-123139060D02*
X100019523Y-123186680D01*
X100019523Y-123186680D02*
X99876666Y-123234299D01*
X99876666Y-123234299D02*
X99781428Y-123234299D01*
X99781428Y-123234299D02*
X99638571Y-123186680D01*
X99638571Y-123186680D02*
X99543333Y-123091441D01*
X99543333Y-123091441D02*
X99495714Y-122996203D01*
X99495714Y-122996203D02*
X99448095Y-122805727D01*
X99448095Y-122805727D02*
X99448095Y-122662870D01*
X99448095Y-122662870D02*
X99495714Y-122472394D01*
X99495714Y-122472394D02*
X99543333Y-122377156D01*
X99543333Y-122377156D02*
X99638571Y-122281918D01*
X99638571Y-122281918D02*
X99781428Y-122234299D01*
X99781428Y-122234299D02*
X99876666Y-122234299D01*
X99876666Y-122234299D02*
X100019523Y-122281918D01*
X100019523Y-122281918D02*
X100067142Y-122329537D01*
X100400476Y-122234299D02*
X101019523Y-122234299D01*
X101019523Y-122234299D02*
X100686190Y-122615251D01*
X100686190Y-122615251D02*
X100829047Y-122615251D01*
X100829047Y-122615251D02*
X100924285Y-122662870D01*
X100924285Y-122662870D02*
X100971904Y-122710489D01*
X100971904Y-122710489D02*
X101019523Y-122805727D01*
X101019523Y-122805727D02*
X101019523Y-123043822D01*
X101019523Y-123043822D02*
X100971904Y-123139060D01*
X100971904Y-123139060D02*
X100924285Y-123186680D01*
X100924285Y-123186680D02*
X100829047Y-123234299D01*
X100829047Y-123234299D02*
X100543333Y-123234299D01*
X100543333Y-123234299D02*
X100448095Y-123186680D01*
X100448095Y-123186680D02*
X100400476Y-123139060D01*
X101971904Y-123234299D02*
X101400476Y-123234299D01*
X101686190Y-123234299D02*
X101686190Y-122234299D01*
X101686190Y-122234299D02*
X101590952Y-122377156D01*
X101590952Y-122377156D02*
X101495714Y-122472394D01*
X101495714Y-122472394D02*
X101400476Y-122520013D01*
X88048990Y-119507800D02*
X88001371Y-119555420D01*
X88001371Y-119555420D02*
X87858514Y-119603039D01*
X87858514Y-119603039D02*
X87763276Y-119603039D01*
X87763276Y-119603039D02*
X87620419Y-119555420D01*
X87620419Y-119555420D02*
X87525181Y-119460181D01*
X87525181Y-119460181D02*
X87477562Y-119364943D01*
X87477562Y-119364943D02*
X87429943Y-119174467D01*
X87429943Y-119174467D02*
X87429943Y-119031610D01*
X87429943Y-119031610D02*
X87477562Y-118841134D01*
X87477562Y-118841134D02*
X87525181Y-118745896D01*
X87525181Y-118745896D02*
X87620419Y-118650658D01*
X87620419Y-118650658D02*
X87763276Y-118603039D01*
X87763276Y-118603039D02*
X87858514Y-118603039D01*
X87858514Y-118603039D02*
X88001371Y-118650658D01*
X88001371Y-118650658D02*
X88048990Y-118698277D01*
X88429943Y-118698277D02*
X88477562Y-118650658D01*
X88477562Y-118650658D02*
X88572800Y-118603039D01*
X88572800Y-118603039D02*
X88810895Y-118603039D01*
X88810895Y-118603039D02*
X88906133Y-118650658D01*
X88906133Y-118650658D02*
X88953752Y-118698277D01*
X88953752Y-118698277D02*
X89001371Y-118793515D01*
X89001371Y-118793515D02*
X89001371Y-118888753D01*
X89001371Y-118888753D02*
X88953752Y-119031610D01*
X88953752Y-119031610D02*
X88382324Y-119603039D01*
X88382324Y-119603039D02*
X89001371Y-119603039D01*
X89858514Y-118936372D02*
X89858514Y-119603039D01*
X89620419Y-118555420D02*
X89382324Y-119269705D01*
X89382324Y-119269705D02*
X90001371Y-119269705D01*
X102779537Y-106605238D02*
X102731918Y-106700476D01*
X102731918Y-106700476D02*
X102636680Y-106795714D01*
X102636680Y-106795714D02*
X102493822Y-106938571D01*
X102493822Y-106938571D02*
X102446203Y-107033809D01*
X102446203Y-107033809D02*
X102446203Y-107129047D01*
X102684299Y-107081428D02*
X102636680Y-107176666D01*
X102636680Y-107176666D02*
X102541441Y-107271904D01*
X102541441Y-107271904D02*
X102350965Y-107319523D01*
X102350965Y-107319523D02*
X102017632Y-107319523D01*
X102017632Y-107319523D02*
X101827156Y-107271904D01*
X101827156Y-107271904D02*
X101731918Y-107176666D01*
X101731918Y-107176666D02*
X101684299Y-107081428D01*
X101684299Y-107081428D02*
X101684299Y-106890952D01*
X101684299Y-106890952D02*
X101731918Y-106795714D01*
X101731918Y-106795714D02*
X101827156Y-106700476D01*
X101827156Y-106700476D02*
X102017632Y-106652857D01*
X102017632Y-106652857D02*
X102350965Y-106652857D01*
X102350965Y-106652857D02*
X102541441Y-106700476D01*
X102541441Y-106700476D02*
X102636680Y-106795714D01*
X102636680Y-106795714D02*
X102684299Y-106890952D01*
X102684299Y-106890952D02*
X102684299Y-107081428D01*
X102684299Y-105700476D02*
X102684299Y-106271904D01*
X102684299Y-105986190D02*
X101684299Y-105986190D01*
X101684299Y-105986190D02*
X101827156Y-106081428D01*
X101827156Y-106081428D02*
X101922394Y-106176666D01*
X101922394Y-106176666D02*
X101970013Y-106271904D01*
X95348879Y-138028397D02*
X95015546Y-137552206D01*
X94777451Y-138028397D02*
X94777451Y-137028397D01*
X94777451Y-137028397D02*
X95158403Y-137028397D01*
X95158403Y-137028397D02*
X95253641Y-137076016D01*
X95253641Y-137076016D02*
X95301260Y-137123635D01*
X95301260Y-137123635D02*
X95348879Y-137218873D01*
X95348879Y-137218873D02*
X95348879Y-137361730D01*
X95348879Y-137361730D02*
X95301260Y-137456968D01*
X95301260Y-137456968D02*
X95253641Y-137504587D01*
X95253641Y-137504587D02*
X95158403Y-137552206D01*
X95158403Y-137552206D02*
X94777451Y-137552206D01*
X95729832Y-137123635D02*
X95777451Y-137076016D01*
X95777451Y-137076016D02*
X95872689Y-137028397D01*
X95872689Y-137028397D02*
X96110784Y-137028397D01*
X96110784Y-137028397D02*
X96206022Y-137076016D01*
X96206022Y-137076016D02*
X96253641Y-137123635D01*
X96253641Y-137123635D02*
X96301260Y-137218873D01*
X96301260Y-137218873D02*
X96301260Y-137314111D01*
X96301260Y-137314111D02*
X96253641Y-137456968D01*
X96253641Y-137456968D02*
X95682213Y-138028397D01*
X95682213Y-138028397D02*
X96301260Y-138028397D01*
X91064299Y-139856189D02*
X90064299Y-139856189D01*
X90969060Y-138808571D02*
X91016680Y-138856190D01*
X91016680Y-138856190D02*
X91064299Y-138999047D01*
X91064299Y-138999047D02*
X91064299Y-139094285D01*
X91064299Y-139094285D02*
X91016680Y-139237142D01*
X91016680Y-139237142D02*
X90921441Y-139332380D01*
X90921441Y-139332380D02*
X90826203Y-139379999D01*
X90826203Y-139379999D02*
X90635727Y-139427618D01*
X90635727Y-139427618D02*
X90492870Y-139427618D01*
X90492870Y-139427618D02*
X90302394Y-139379999D01*
X90302394Y-139379999D02*
X90207156Y-139332380D01*
X90207156Y-139332380D02*
X90111918Y-139237142D01*
X90111918Y-139237142D02*
X90064299Y-139094285D01*
X90064299Y-139094285D02*
X90064299Y-138999047D01*
X90064299Y-138999047D02*
X90111918Y-138856190D01*
X90111918Y-138856190D02*
X90159537Y-138808571D01*
X91064299Y-137856190D02*
X91064299Y-138427618D01*
X91064299Y-138141904D02*
X90064299Y-138141904D01*
X90064299Y-138141904D02*
X90207156Y-138237142D01*
X90207156Y-138237142D02*
X90302394Y-138332380D01*
X90302394Y-138332380D02*
X90350013Y-138427618D01*
X108637142Y-142969060D02*
X108589523Y-143016680D01*
X108589523Y-143016680D02*
X108446666Y-143064299D01*
X108446666Y-143064299D02*
X108351428Y-143064299D01*
X108351428Y-143064299D02*
X108208571Y-143016680D01*
X108208571Y-143016680D02*
X108113333Y-142921441D01*
X108113333Y-142921441D02*
X108065714Y-142826203D01*
X108065714Y-142826203D02*
X108018095Y-142635727D01*
X108018095Y-142635727D02*
X108018095Y-142492870D01*
X108018095Y-142492870D02*
X108065714Y-142302394D01*
X108065714Y-142302394D02*
X108113333Y-142207156D01*
X108113333Y-142207156D02*
X108208571Y-142111918D01*
X108208571Y-142111918D02*
X108351428Y-142064299D01*
X108351428Y-142064299D02*
X108446666Y-142064299D01*
X108446666Y-142064299D02*
X108589523Y-142111918D01*
X108589523Y-142111918D02*
X108637142Y-142159537D01*
X109589523Y-143064299D02*
X109018095Y-143064299D01*
X109303809Y-143064299D02*
X109303809Y-142064299D01*
X109303809Y-142064299D02*
X109208571Y-142207156D01*
X109208571Y-142207156D02*
X109113333Y-142302394D01*
X109113333Y-142302394D02*
X109018095Y-142350013D01*
X110541904Y-143064299D02*
X109970476Y-143064299D01*
X110256190Y-143064299D02*
X110256190Y-142064299D01*
X110256190Y-142064299D02*
X110160952Y-142207156D01*
X110160952Y-142207156D02*
X110065714Y-142302394D01*
X110065714Y-142302394D02*
X109970476Y-142350013D01*
X79257142Y-148189060D02*
X79209523Y-148236680D01*
X79209523Y-148236680D02*
X79066666Y-148284299D01*
X79066666Y-148284299D02*
X78971428Y-148284299D01*
X78971428Y-148284299D02*
X78828571Y-148236680D01*
X78828571Y-148236680D02*
X78733333Y-148141441D01*
X78733333Y-148141441D02*
X78685714Y-148046203D01*
X78685714Y-148046203D02*
X78638095Y-147855727D01*
X78638095Y-147855727D02*
X78638095Y-147712870D01*
X78638095Y-147712870D02*
X78685714Y-147522394D01*
X78685714Y-147522394D02*
X78733333Y-147427156D01*
X78733333Y-147427156D02*
X78828571Y-147331918D01*
X78828571Y-147331918D02*
X78971428Y-147284299D01*
X78971428Y-147284299D02*
X79066666Y-147284299D01*
X79066666Y-147284299D02*
X79209523Y-147331918D01*
X79209523Y-147331918D02*
X79257142Y-147379537D01*
X79638095Y-147379537D02*
X79685714Y-147331918D01*
X79685714Y-147331918D02*
X79780952Y-147284299D01*
X79780952Y-147284299D02*
X80019047Y-147284299D01*
X80019047Y-147284299D02*
X80114285Y-147331918D01*
X80114285Y-147331918D02*
X80161904Y-147379537D01*
X80161904Y-147379537D02*
X80209523Y-147474775D01*
X80209523Y-147474775D02*
X80209523Y-147570013D01*
X80209523Y-147570013D02*
X80161904Y-147712870D01*
X80161904Y-147712870D02*
X79590476Y-148284299D01*
X79590476Y-148284299D02*
X80209523Y-148284299D01*
X80542857Y-147284299D02*
X81209523Y-147284299D01*
X81209523Y-147284299D02*
X80780952Y-148284299D01*
X106183333Y-134699060D02*
X106135714Y-134746680D01*
X106135714Y-134746680D02*
X105992857Y-134794299D01*
X105992857Y-134794299D02*
X105897619Y-134794299D01*
X105897619Y-134794299D02*
X105754762Y-134746680D01*
X105754762Y-134746680D02*
X105659524Y-134651441D01*
X105659524Y-134651441D02*
X105611905Y-134556203D01*
X105611905Y-134556203D02*
X105564286Y-134365727D01*
X105564286Y-134365727D02*
X105564286Y-134222870D01*
X105564286Y-134222870D02*
X105611905Y-134032394D01*
X105611905Y-134032394D02*
X105659524Y-133937156D01*
X105659524Y-133937156D02*
X105754762Y-133841918D01*
X105754762Y-133841918D02*
X105897619Y-133794299D01*
X105897619Y-133794299D02*
X105992857Y-133794299D01*
X105992857Y-133794299D02*
X106135714Y-133841918D01*
X106135714Y-133841918D02*
X106183333Y-133889537D01*
X106754762Y-134222870D02*
X106659524Y-134175251D01*
X106659524Y-134175251D02*
X106611905Y-134127632D01*
X106611905Y-134127632D02*
X106564286Y-134032394D01*
X106564286Y-134032394D02*
X106564286Y-133984775D01*
X106564286Y-133984775D02*
X106611905Y-133889537D01*
X106611905Y-133889537D02*
X106659524Y-133841918D01*
X106659524Y-133841918D02*
X106754762Y-133794299D01*
X106754762Y-133794299D02*
X106945238Y-133794299D01*
X106945238Y-133794299D02*
X107040476Y-133841918D01*
X107040476Y-133841918D02*
X107088095Y-133889537D01*
X107088095Y-133889537D02*
X107135714Y-133984775D01*
X107135714Y-133984775D02*
X107135714Y-134032394D01*
X107135714Y-134032394D02*
X107088095Y-134127632D01*
X107088095Y-134127632D02*
X107040476Y-134175251D01*
X107040476Y-134175251D02*
X106945238Y-134222870D01*
X106945238Y-134222870D02*
X106754762Y-134222870D01*
X106754762Y-134222870D02*
X106659524Y-134270489D01*
X106659524Y-134270489D02*
X106611905Y-134318108D01*
X106611905Y-134318108D02*
X106564286Y-134413346D01*
X106564286Y-134413346D02*
X106564286Y-134603822D01*
X106564286Y-134603822D02*
X106611905Y-134699060D01*
X106611905Y-134699060D02*
X106659524Y-134746680D01*
X106659524Y-134746680D02*
X106754762Y-134794299D01*
X106754762Y-134794299D02*
X106945238Y-134794299D01*
X106945238Y-134794299D02*
X107040476Y-134746680D01*
X107040476Y-134746680D02*
X107088095Y-134699060D01*
X107088095Y-134699060D02*
X107135714Y-134603822D01*
X107135714Y-134603822D02*
X107135714Y-134413346D01*
X107135714Y-134413346D02*
X107088095Y-134318108D01*
X107088095Y-134318108D02*
X107040476Y-134270489D01*
X107040476Y-134270489D02*
X106945238Y-134222870D01*
X101588235Y-131546833D02*
X101540616Y-131594453D01*
X101540616Y-131594453D02*
X101397759Y-131642072D01*
X101397759Y-131642072D02*
X101302521Y-131642072D01*
X101302521Y-131642072D02*
X101159664Y-131594453D01*
X101159664Y-131594453D02*
X101064426Y-131499214D01*
X101064426Y-131499214D02*
X101016807Y-131403976D01*
X101016807Y-131403976D02*
X100969188Y-131213500D01*
X100969188Y-131213500D02*
X100969188Y-131070643D01*
X100969188Y-131070643D02*
X101016807Y-130880167D01*
X101016807Y-130880167D02*
X101064426Y-130784929D01*
X101064426Y-130784929D02*
X101159664Y-130689691D01*
X101159664Y-130689691D02*
X101302521Y-130642072D01*
X101302521Y-130642072D02*
X101397759Y-130642072D01*
X101397759Y-130642072D02*
X101540616Y-130689691D01*
X101540616Y-130689691D02*
X101588235Y-130737310D01*
X101969188Y-130737310D02*
X102016807Y-130689691D01*
X102016807Y-130689691D02*
X102112045Y-130642072D01*
X102112045Y-130642072D02*
X102350140Y-130642072D01*
X102350140Y-130642072D02*
X102445378Y-130689691D01*
X102445378Y-130689691D02*
X102492997Y-130737310D01*
X102492997Y-130737310D02*
X102540616Y-130832548D01*
X102540616Y-130832548D02*
X102540616Y-130927786D01*
X102540616Y-130927786D02*
X102492997Y-131070643D01*
X102492997Y-131070643D02*
X101921569Y-131642072D01*
X101921569Y-131642072D02*
X102540616Y-131642072D01*
X103016807Y-131642072D02*
X103207283Y-131642072D01*
X103207283Y-131642072D02*
X103302521Y-131594453D01*
X103302521Y-131594453D02*
X103350140Y-131546833D01*
X103350140Y-131546833D02*
X103445378Y-131403976D01*
X103445378Y-131403976D02*
X103492997Y-131213500D01*
X103492997Y-131213500D02*
X103492997Y-130832548D01*
X103492997Y-130832548D02*
X103445378Y-130737310D01*
X103445378Y-130737310D02*
X103397759Y-130689691D01*
X103397759Y-130689691D02*
X103302521Y-130642072D01*
X103302521Y-130642072D02*
X103112045Y-130642072D01*
X103112045Y-130642072D02*
X103016807Y-130689691D01*
X103016807Y-130689691D02*
X102969188Y-130737310D01*
X102969188Y-130737310D02*
X102921569Y-130832548D01*
X102921569Y-130832548D02*
X102921569Y-131070643D01*
X102921569Y-131070643D02*
X102969188Y-131165881D01*
X102969188Y-131165881D02*
X103016807Y-131213500D01*
X103016807Y-131213500D02*
X103112045Y-131261119D01*
X103112045Y-131261119D02*
X103302521Y-131261119D01*
X103302521Y-131261119D02*
X103397759Y-131213500D01*
X103397759Y-131213500D02*
X103445378Y-131165881D01*
X103445378Y-131165881D02*
X103492997Y-131070643D01*
X90746890Y-125903198D02*
X90699271Y-125950818D01*
X90699271Y-125950818D02*
X90556414Y-125998437D01*
X90556414Y-125998437D02*
X90461176Y-125998437D01*
X90461176Y-125998437D02*
X90318319Y-125950818D01*
X90318319Y-125950818D02*
X90223081Y-125855579D01*
X90223081Y-125855579D02*
X90175462Y-125760341D01*
X90175462Y-125760341D02*
X90127843Y-125569865D01*
X90127843Y-125569865D02*
X90127843Y-125427008D01*
X90127843Y-125427008D02*
X90175462Y-125236532D01*
X90175462Y-125236532D02*
X90223081Y-125141294D01*
X90223081Y-125141294D02*
X90318319Y-125046056D01*
X90318319Y-125046056D02*
X90461176Y-124998437D01*
X90461176Y-124998437D02*
X90556414Y-124998437D01*
X90556414Y-124998437D02*
X90699271Y-125046056D01*
X90699271Y-125046056D02*
X90746890Y-125093675D01*
X91080224Y-124998437D02*
X91699271Y-124998437D01*
X91699271Y-124998437D02*
X91365938Y-125379389D01*
X91365938Y-125379389D02*
X91508795Y-125379389D01*
X91508795Y-125379389D02*
X91604033Y-125427008D01*
X91604033Y-125427008D02*
X91651652Y-125474627D01*
X91651652Y-125474627D02*
X91699271Y-125569865D01*
X91699271Y-125569865D02*
X91699271Y-125807960D01*
X91699271Y-125807960D02*
X91651652Y-125903198D01*
X91651652Y-125903198D02*
X91604033Y-125950818D01*
X91604033Y-125950818D02*
X91508795Y-125998437D01*
X91508795Y-125998437D02*
X91223081Y-125998437D01*
X91223081Y-125998437D02*
X91127843Y-125950818D01*
X91127843Y-125950818D02*
X91080224Y-125903198D01*
X92318319Y-124998437D02*
X92413557Y-124998437D01*
X92413557Y-124998437D02*
X92508795Y-125046056D01*
X92508795Y-125046056D02*
X92556414Y-125093675D01*
X92556414Y-125093675D02*
X92604033Y-125188913D01*
X92604033Y-125188913D02*
X92651652Y-125379389D01*
X92651652Y-125379389D02*
X92651652Y-125617484D01*
X92651652Y-125617484D02*
X92604033Y-125807960D01*
X92604033Y-125807960D02*
X92556414Y-125903198D01*
X92556414Y-125903198D02*
X92508795Y-125950818D01*
X92508795Y-125950818D02*
X92413557Y-125998437D01*
X92413557Y-125998437D02*
X92318319Y-125998437D01*
X92318319Y-125998437D02*
X92223081Y-125950818D01*
X92223081Y-125950818D02*
X92175462Y-125903198D01*
X92175462Y-125903198D02*
X92127843Y-125807960D01*
X92127843Y-125807960D02*
X92080224Y-125617484D01*
X92080224Y-125617484D02*
X92080224Y-125379389D01*
X92080224Y-125379389D02*
X92127843Y-125188913D01*
X92127843Y-125188913D02*
X92175462Y-125093675D01*
X92175462Y-125093675D02*
X92223081Y-125046056D01*
X92223081Y-125046056D02*
X92318319Y-124998437D01*
X91893810Y-103494299D02*
X91893810Y-102494299D01*
X92941428Y-103399060D02*
X92893809Y-103446680D01*
X92893809Y-103446680D02*
X92750952Y-103494299D01*
X92750952Y-103494299D02*
X92655714Y-103494299D01*
X92655714Y-103494299D02*
X92512857Y-103446680D01*
X92512857Y-103446680D02*
X92417619Y-103351441D01*
X92417619Y-103351441D02*
X92370000Y-103256203D01*
X92370000Y-103256203D02*
X92322381Y-103065727D01*
X92322381Y-103065727D02*
X92322381Y-102922870D01*
X92322381Y-102922870D02*
X92370000Y-102732394D01*
X92370000Y-102732394D02*
X92417619Y-102637156D01*
X92417619Y-102637156D02*
X92512857Y-102541918D01*
X92512857Y-102541918D02*
X92655714Y-102494299D01*
X92655714Y-102494299D02*
X92750952Y-102494299D01*
X92750952Y-102494299D02*
X92893809Y-102541918D01*
X92893809Y-102541918D02*
X92941428Y-102589537D01*
X93798571Y-102827632D02*
X93798571Y-103494299D01*
X93560476Y-102446680D02*
X93322381Y-103160965D01*
X93322381Y-103160965D02*
X93941428Y-103160965D01*
X93351905Y-132094299D02*
X93351905Y-131094299D01*
X93351905Y-131094299D02*
X93590000Y-131094299D01*
X93590000Y-131094299D02*
X93732857Y-131141918D01*
X93732857Y-131141918D02*
X93828095Y-131237156D01*
X93828095Y-131237156D02*
X93875714Y-131332394D01*
X93875714Y-131332394D02*
X93923333Y-131522870D01*
X93923333Y-131522870D02*
X93923333Y-131665727D01*
X93923333Y-131665727D02*
X93875714Y-131856203D01*
X93875714Y-131856203D02*
X93828095Y-131951441D01*
X93828095Y-131951441D02*
X93732857Y-132046680D01*
X93732857Y-132046680D02*
X93590000Y-132094299D01*
X93590000Y-132094299D02*
X93351905Y-132094299D01*
X94875714Y-132094299D02*
X94304286Y-132094299D01*
X94590000Y-132094299D02*
X94590000Y-131094299D01*
X94590000Y-131094299D02*
X94494762Y-131237156D01*
X94494762Y-131237156D02*
X94399524Y-131332394D01*
X94399524Y-131332394D02*
X94304286Y-131380013D01*
D13*
X100433810Y-129092219D02*
X100433810Y-128092219D01*
X101481428Y-128996980D02*
X101433809Y-129044600D01*
X101433809Y-129044600D02*
X101290952Y-129092219D01*
X101290952Y-129092219D02*
X101195714Y-129092219D01*
X101195714Y-129092219D02*
X101052857Y-129044600D01*
X101052857Y-129044600D02*
X100957619Y-128949361D01*
X100957619Y-128949361D02*
X100910000Y-128854123D01*
X100910000Y-128854123D02*
X100862381Y-128663647D01*
X100862381Y-128663647D02*
X100862381Y-128520790D01*
X100862381Y-128520790D02*
X100910000Y-128330314D01*
X100910000Y-128330314D02*
X100957619Y-128235076D01*
X100957619Y-128235076D02*
X101052857Y-128139838D01*
X101052857Y-128139838D02*
X101195714Y-128092219D01*
X101195714Y-128092219D02*
X101290952Y-128092219D01*
X101290952Y-128092219D02*
X101433809Y-128139838D01*
X101433809Y-128139838D02*
X101481428Y-128187457D01*
X102386190Y-128092219D02*
X101910000Y-128092219D01*
X101910000Y-128092219D02*
X101862381Y-128568409D01*
X101862381Y-128568409D02*
X101910000Y-128520790D01*
X101910000Y-128520790D02*
X102005238Y-128473171D01*
X102005238Y-128473171D02*
X102243333Y-128473171D01*
X102243333Y-128473171D02*
X102338571Y-128520790D01*
X102338571Y-128520790D02*
X102386190Y-128568409D01*
X102386190Y-128568409D02*
X102433809Y-128663647D01*
X102433809Y-128663647D02*
X102433809Y-128901742D01*
X102433809Y-128901742D02*
X102386190Y-128996980D01*
X102386190Y-128996980D02*
X102338571Y-129044600D01*
X102338571Y-129044600D02*
X102243333Y-129092219D01*
X102243333Y-129092219D02*
X102005238Y-129092219D01*
X102005238Y-129092219D02*
X101910000Y-129044600D01*
X101910000Y-129044600D02*
X101862381Y-128996980D01*
D10*
X104619053Y-102750845D02*
X104571434Y-102798465D01*
X104571434Y-102798465D02*
X104428577Y-102846084D01*
X104428577Y-102846084D02*
X104333339Y-102846084D01*
X104333339Y-102846084D02*
X104190482Y-102798465D01*
X104190482Y-102798465D02*
X104095244Y-102703226D01*
X104095244Y-102703226D02*
X104047625Y-102607988D01*
X104047625Y-102607988D02*
X104000006Y-102417512D01*
X104000006Y-102417512D02*
X104000006Y-102274655D01*
X104000006Y-102274655D02*
X104047625Y-102084179D01*
X104047625Y-102084179D02*
X104095244Y-101988941D01*
X104095244Y-101988941D02*
X104190482Y-101893703D01*
X104190482Y-101893703D02*
X104333339Y-101846084D01*
X104333339Y-101846084D02*
X104428577Y-101846084D01*
X104428577Y-101846084D02*
X104571434Y-101893703D01*
X104571434Y-101893703D02*
X104619053Y-101941322D01*
X105000006Y-101941322D02*
X105047625Y-101893703D01*
X105047625Y-101893703D02*
X105142863Y-101846084D01*
X105142863Y-101846084D02*
X105380958Y-101846084D01*
X105380958Y-101846084D02*
X105476196Y-101893703D01*
X105476196Y-101893703D02*
X105523815Y-101941322D01*
X105523815Y-101941322D02*
X105571434Y-102036560D01*
X105571434Y-102036560D02*
X105571434Y-102131798D01*
X105571434Y-102131798D02*
X105523815Y-102274655D01*
X105523815Y-102274655D02*
X104952387Y-102846084D01*
X104952387Y-102846084D02*
X105571434Y-102846084D01*
X106476196Y-101846084D02*
X106000006Y-101846084D01*
X106000006Y-101846084D02*
X105952387Y-102322274D01*
X105952387Y-102322274D02*
X106000006Y-102274655D01*
X106000006Y-102274655D02*
X106095244Y-102227036D01*
X106095244Y-102227036D02*
X106333339Y-102227036D01*
X106333339Y-102227036D02*
X106428577Y-102274655D01*
X106428577Y-102274655D02*
X106476196Y-102322274D01*
X106476196Y-102322274D02*
X106523815Y-102417512D01*
X106523815Y-102417512D02*
X106523815Y-102655607D01*
X106523815Y-102655607D02*
X106476196Y-102750845D01*
X106476196Y-102750845D02*
X106428577Y-102798465D01*
X106428577Y-102798465D02*
X106333339Y-102846084D01*
X106333339Y-102846084D02*
X106095244Y-102846084D01*
X106095244Y-102846084D02*
X106000006Y-102798465D01*
X106000006Y-102798465D02*
X105952387Y-102750845D01*
X78931800Y-145539504D02*
X78884181Y-145587124D01*
X78884181Y-145587124D02*
X78741324Y-145634743D01*
X78741324Y-145634743D02*
X78646086Y-145634743D01*
X78646086Y-145634743D02*
X78503229Y-145587124D01*
X78503229Y-145587124D02*
X78407991Y-145491885D01*
X78407991Y-145491885D02*
X78360372Y-145396647D01*
X78360372Y-145396647D02*
X78312753Y-145206171D01*
X78312753Y-145206171D02*
X78312753Y-145063314D01*
X78312753Y-145063314D02*
X78360372Y-144872838D01*
X78360372Y-144872838D02*
X78407991Y-144777600D01*
X78407991Y-144777600D02*
X78503229Y-144682362D01*
X78503229Y-144682362D02*
X78646086Y-144634743D01*
X78646086Y-144634743D02*
X78741324Y-144634743D01*
X78741324Y-144634743D02*
X78884181Y-144682362D01*
X78884181Y-144682362D02*
X78931800Y-144729981D01*
X79884181Y-145634743D02*
X79312753Y-145634743D01*
X79598467Y-145634743D02*
X79598467Y-144634743D01*
X79598467Y-144634743D02*
X79503229Y-144777600D01*
X79503229Y-144777600D02*
X79407991Y-144872838D01*
X79407991Y-144872838D02*
X79312753Y-144920457D01*
X101374294Y-145076732D02*
X101040961Y-144600541D01*
X100802866Y-145076732D02*
X100802866Y-144076732D01*
X100802866Y-144076732D02*
X101183818Y-144076732D01*
X101183818Y-144076732D02*
X101279056Y-144124351D01*
X101279056Y-144124351D02*
X101326675Y-144171970D01*
X101326675Y-144171970D02*
X101374294Y-144267208D01*
X101374294Y-144267208D02*
X101374294Y-144410065D01*
X101374294Y-144410065D02*
X101326675Y-144505303D01*
X101326675Y-144505303D02*
X101279056Y-144552922D01*
X101279056Y-144552922D02*
X101183818Y-144600541D01*
X101183818Y-144600541D02*
X100802866Y-144600541D01*
X102231437Y-144410065D02*
X102231437Y-145076732D01*
X101993342Y-144029113D02*
X101755247Y-144743398D01*
X101755247Y-144743398D02*
X102374294Y-144743398D01*
X91133318Y-114192631D02*
X91085699Y-114240251D01*
X91085699Y-114240251D02*
X90942842Y-114287870D01*
X90942842Y-114287870D02*
X90847604Y-114287870D01*
X90847604Y-114287870D02*
X90704747Y-114240251D01*
X90704747Y-114240251D02*
X90609509Y-114145012D01*
X90609509Y-114145012D02*
X90561890Y-114049774D01*
X90561890Y-114049774D02*
X90514271Y-113859298D01*
X90514271Y-113859298D02*
X90514271Y-113716441D01*
X90514271Y-113716441D02*
X90561890Y-113525965D01*
X90561890Y-113525965D02*
X90609509Y-113430727D01*
X90609509Y-113430727D02*
X90704747Y-113335489D01*
X90704747Y-113335489D02*
X90847604Y-113287870D01*
X90847604Y-113287870D02*
X90942842Y-113287870D01*
X90942842Y-113287870D02*
X91085699Y-113335489D01*
X91085699Y-113335489D02*
X91133318Y-113383108D01*
X91514271Y-113383108D02*
X91561890Y-113335489D01*
X91561890Y-113335489D02*
X91657128Y-113287870D01*
X91657128Y-113287870D02*
X91895223Y-113287870D01*
X91895223Y-113287870D02*
X91990461Y-113335489D01*
X91990461Y-113335489D02*
X92038080Y-113383108D01*
X92038080Y-113383108D02*
X92085699Y-113478346D01*
X92085699Y-113478346D02*
X92085699Y-113573584D01*
X92085699Y-113573584D02*
X92038080Y-113716441D01*
X92038080Y-113716441D02*
X91466652Y-114287870D01*
X91466652Y-114287870D02*
X92085699Y-114287870D01*
X93038080Y-114287870D02*
X92466652Y-114287870D01*
X92752366Y-114287870D02*
X92752366Y-113287870D01*
X92752366Y-113287870D02*
X92657128Y-113430727D01*
X92657128Y-113430727D02*
X92561890Y-113525965D01*
X92561890Y-113525965D02*
X92466652Y-113573584D01*
X100658979Y-104554422D02*
X100322261Y-104891140D01*
X100322261Y-104891140D02*
X99615154Y-104184033D01*
X100221246Y-103712628D02*
X100221246Y-103645285D01*
X100221246Y-103645285D02*
X100254918Y-103544270D01*
X100254918Y-103544270D02*
X100423276Y-103375911D01*
X100423276Y-103375911D02*
X100524292Y-103342239D01*
X100524292Y-103342239D02*
X100591635Y-103342239D01*
X100591635Y-103342239D02*
X100692650Y-103375911D01*
X100692650Y-103375911D02*
X100759994Y-103443254D01*
X100759994Y-103443254D02*
X100827337Y-103577941D01*
X100827337Y-103577941D02*
X100827337Y-104386063D01*
X100827337Y-104386063D02*
X101265070Y-103948331D01*
X89843333Y-132009060D02*
X89795714Y-132056680D01*
X89795714Y-132056680D02*
X89652857Y-132104299D01*
X89652857Y-132104299D02*
X89557619Y-132104299D01*
X89557619Y-132104299D02*
X89414762Y-132056680D01*
X89414762Y-132056680D02*
X89319524Y-131961441D01*
X89319524Y-131961441D02*
X89271905Y-131866203D01*
X89271905Y-131866203D02*
X89224286Y-131675727D01*
X89224286Y-131675727D02*
X89224286Y-131532870D01*
X89224286Y-131532870D02*
X89271905Y-131342394D01*
X89271905Y-131342394D02*
X89319524Y-131247156D01*
X89319524Y-131247156D02*
X89414762Y-131151918D01*
X89414762Y-131151918D02*
X89557619Y-131104299D01*
X89557619Y-131104299D02*
X89652857Y-131104299D01*
X89652857Y-131104299D02*
X89795714Y-131151918D01*
X89795714Y-131151918D02*
X89843333Y-131199537D01*
X90176667Y-131104299D02*
X90795714Y-131104299D01*
X90795714Y-131104299D02*
X90462381Y-131485251D01*
X90462381Y-131485251D02*
X90605238Y-131485251D01*
X90605238Y-131485251D02*
X90700476Y-131532870D01*
X90700476Y-131532870D02*
X90748095Y-131580489D01*
X90748095Y-131580489D02*
X90795714Y-131675727D01*
X90795714Y-131675727D02*
X90795714Y-131913822D01*
X90795714Y-131913822D02*
X90748095Y-132009060D01*
X90748095Y-132009060D02*
X90700476Y-132056680D01*
X90700476Y-132056680D02*
X90605238Y-132104299D01*
X90605238Y-132104299D02*
X90319524Y-132104299D01*
X90319524Y-132104299D02*
X90224286Y-132056680D01*
X90224286Y-132056680D02*
X90176667Y-132009060D01*
X90253333Y-141979060D02*
X90205714Y-142026680D01*
X90205714Y-142026680D02*
X90062857Y-142074299D01*
X90062857Y-142074299D02*
X89967619Y-142074299D01*
X89967619Y-142074299D02*
X89824762Y-142026680D01*
X89824762Y-142026680D02*
X89729524Y-141931441D01*
X89729524Y-141931441D02*
X89681905Y-141836203D01*
X89681905Y-141836203D02*
X89634286Y-141645727D01*
X89634286Y-141645727D02*
X89634286Y-141502870D01*
X89634286Y-141502870D02*
X89681905Y-141312394D01*
X89681905Y-141312394D02*
X89729524Y-141217156D01*
X89729524Y-141217156D02*
X89824762Y-141121918D01*
X89824762Y-141121918D02*
X89967619Y-141074299D01*
X89967619Y-141074299D02*
X90062857Y-141074299D01*
X90062857Y-141074299D02*
X90205714Y-141121918D01*
X90205714Y-141121918D02*
X90253333Y-141169537D01*
X91158095Y-141074299D02*
X90681905Y-141074299D01*
X90681905Y-141074299D02*
X90634286Y-141550489D01*
X90634286Y-141550489D02*
X90681905Y-141502870D01*
X90681905Y-141502870D02*
X90777143Y-141455251D01*
X90777143Y-141455251D02*
X91015238Y-141455251D01*
X91015238Y-141455251D02*
X91110476Y-141502870D01*
X91110476Y-141502870D02*
X91158095Y-141550489D01*
X91158095Y-141550489D02*
X91205714Y-141645727D01*
X91205714Y-141645727D02*
X91205714Y-141883822D01*
X91205714Y-141883822D02*
X91158095Y-141979060D01*
X91158095Y-141979060D02*
X91110476Y-142026680D01*
X91110476Y-142026680D02*
X91015238Y-142074299D01*
X91015238Y-142074299D02*
X90777143Y-142074299D01*
X90777143Y-142074299D02*
X90681905Y-142026680D01*
X90681905Y-142026680D02*
X90634286Y-141979060D01*
X84843333Y-132179060D02*
X84795714Y-132226680D01*
X84795714Y-132226680D02*
X84652857Y-132274299D01*
X84652857Y-132274299D02*
X84557619Y-132274299D01*
X84557619Y-132274299D02*
X84414762Y-132226680D01*
X84414762Y-132226680D02*
X84319524Y-132131441D01*
X84319524Y-132131441D02*
X84271905Y-132036203D01*
X84271905Y-132036203D02*
X84224286Y-131845727D01*
X84224286Y-131845727D02*
X84224286Y-131702870D01*
X84224286Y-131702870D02*
X84271905Y-131512394D01*
X84271905Y-131512394D02*
X84319524Y-131417156D01*
X84319524Y-131417156D02*
X84414762Y-131321918D01*
X84414762Y-131321918D02*
X84557619Y-131274299D01*
X84557619Y-131274299D02*
X84652857Y-131274299D01*
X84652857Y-131274299D02*
X84795714Y-131321918D01*
X84795714Y-131321918D02*
X84843333Y-131369537D01*
X85700476Y-131607632D02*
X85700476Y-132274299D01*
X85462381Y-131226680D02*
X85224286Y-131940965D01*
X85224286Y-131940965D02*
X85843333Y-131940965D01*
X88687142Y-106929060D02*
X88639523Y-106976680D01*
X88639523Y-106976680D02*
X88496666Y-107024299D01*
X88496666Y-107024299D02*
X88401428Y-107024299D01*
X88401428Y-107024299D02*
X88258571Y-106976680D01*
X88258571Y-106976680D02*
X88163333Y-106881441D01*
X88163333Y-106881441D02*
X88115714Y-106786203D01*
X88115714Y-106786203D02*
X88068095Y-106595727D01*
X88068095Y-106595727D02*
X88068095Y-106452870D01*
X88068095Y-106452870D02*
X88115714Y-106262394D01*
X88115714Y-106262394D02*
X88163333Y-106167156D01*
X88163333Y-106167156D02*
X88258571Y-106071918D01*
X88258571Y-106071918D02*
X88401428Y-106024299D01*
X88401428Y-106024299D02*
X88496666Y-106024299D01*
X88496666Y-106024299D02*
X88639523Y-106071918D01*
X88639523Y-106071918D02*
X88687142Y-106119537D01*
X89068095Y-106119537D02*
X89115714Y-106071918D01*
X89115714Y-106071918D02*
X89210952Y-106024299D01*
X89210952Y-106024299D02*
X89449047Y-106024299D01*
X89449047Y-106024299D02*
X89544285Y-106071918D01*
X89544285Y-106071918D02*
X89591904Y-106119537D01*
X89591904Y-106119537D02*
X89639523Y-106214775D01*
X89639523Y-106214775D02*
X89639523Y-106310013D01*
X89639523Y-106310013D02*
X89591904Y-106452870D01*
X89591904Y-106452870D02*
X89020476Y-107024299D01*
X89020476Y-107024299D02*
X89639523Y-107024299D01*
X90020476Y-106119537D02*
X90068095Y-106071918D01*
X90068095Y-106071918D02*
X90163333Y-106024299D01*
X90163333Y-106024299D02*
X90401428Y-106024299D01*
X90401428Y-106024299D02*
X90496666Y-106071918D01*
X90496666Y-106071918D02*
X90544285Y-106119537D01*
X90544285Y-106119537D02*
X90591904Y-106214775D01*
X90591904Y-106214775D02*
X90591904Y-106310013D01*
X90591904Y-106310013D02*
X90544285Y-106452870D01*
X90544285Y-106452870D02*
X89972857Y-107024299D01*
X89972857Y-107024299D02*
X90591904Y-107024299D01*
X105517142Y-137744299D02*
X105183809Y-137268108D01*
X104945714Y-137744299D02*
X104945714Y-136744299D01*
X104945714Y-136744299D02*
X105326666Y-136744299D01*
X105326666Y-136744299D02*
X105421904Y-136791918D01*
X105421904Y-136791918D02*
X105469523Y-136839537D01*
X105469523Y-136839537D02*
X105517142Y-136934775D01*
X105517142Y-136934775D02*
X105517142Y-137077632D01*
X105517142Y-137077632D02*
X105469523Y-137172870D01*
X105469523Y-137172870D02*
X105421904Y-137220489D01*
X105421904Y-137220489D02*
X105326666Y-137268108D01*
X105326666Y-137268108D02*
X104945714Y-137268108D01*
X106469523Y-137744299D02*
X105898095Y-137744299D01*
X106183809Y-137744299D02*
X106183809Y-136744299D01*
X106183809Y-136744299D02*
X106088571Y-136887156D01*
X106088571Y-136887156D02*
X105993333Y-136982394D01*
X105993333Y-136982394D02*
X105898095Y-137030013D01*
X107326666Y-137077632D02*
X107326666Y-137744299D01*
X107088571Y-136696680D02*
X106850476Y-137410965D01*
X106850476Y-137410965D02*
X107469523Y-137410965D01*
X110106667Y-133266680D02*
X110249524Y-133314299D01*
X110249524Y-133314299D02*
X110487619Y-133314299D01*
X110487619Y-133314299D02*
X110582857Y-133266680D01*
X110582857Y-133266680D02*
X110630476Y-133219060D01*
X110630476Y-133219060D02*
X110678095Y-133123822D01*
X110678095Y-133123822D02*
X110678095Y-133028584D01*
X110678095Y-133028584D02*
X110630476Y-132933346D01*
X110630476Y-132933346D02*
X110582857Y-132885727D01*
X110582857Y-132885727D02*
X110487619Y-132838108D01*
X110487619Y-132838108D02*
X110297143Y-132790489D01*
X110297143Y-132790489D02*
X110201905Y-132742870D01*
X110201905Y-132742870D02*
X110154286Y-132695251D01*
X110154286Y-132695251D02*
X110106667Y-132600013D01*
X110106667Y-132600013D02*
X110106667Y-132504775D01*
X110106667Y-132504775D02*
X110154286Y-132409537D01*
X110154286Y-132409537D02*
X110201905Y-132361918D01*
X110201905Y-132361918D02*
X110297143Y-132314299D01*
X110297143Y-132314299D02*
X110535238Y-132314299D01*
X110535238Y-132314299D02*
X110678095Y-132361918D01*
X111011429Y-132314299D02*
X111249524Y-133314299D01*
X111249524Y-133314299D02*
X111440000Y-132600013D01*
X111440000Y-132600013D02*
X111630476Y-133314299D01*
X111630476Y-133314299D02*
X111868572Y-132314299D01*
X112773333Y-133314299D02*
X112201905Y-133314299D01*
X112487619Y-133314299D02*
X112487619Y-132314299D01*
X112487619Y-132314299D02*
X112392381Y-132457156D01*
X112392381Y-132457156D02*
X112297143Y-132552394D01*
X112297143Y-132552394D02*
X112201905Y-132600013D01*
X103617142Y-110539060D02*
X103569523Y-110586680D01*
X103569523Y-110586680D02*
X103426666Y-110634299D01*
X103426666Y-110634299D02*
X103331428Y-110634299D01*
X103331428Y-110634299D02*
X103188571Y-110586680D01*
X103188571Y-110586680D02*
X103093333Y-110491441D01*
X103093333Y-110491441D02*
X103045714Y-110396203D01*
X103045714Y-110396203D02*
X102998095Y-110205727D01*
X102998095Y-110205727D02*
X102998095Y-110062870D01*
X102998095Y-110062870D02*
X103045714Y-109872394D01*
X103045714Y-109872394D02*
X103093333Y-109777156D01*
X103093333Y-109777156D02*
X103188571Y-109681918D01*
X103188571Y-109681918D02*
X103331428Y-109634299D01*
X103331428Y-109634299D02*
X103426666Y-109634299D01*
X103426666Y-109634299D02*
X103569523Y-109681918D01*
X103569523Y-109681918D02*
X103617142Y-109729537D01*
X103998095Y-109729537D02*
X104045714Y-109681918D01*
X104045714Y-109681918D02*
X104140952Y-109634299D01*
X104140952Y-109634299D02*
X104379047Y-109634299D01*
X104379047Y-109634299D02*
X104474285Y-109681918D01*
X104474285Y-109681918D02*
X104521904Y-109729537D01*
X104521904Y-109729537D02*
X104569523Y-109824775D01*
X104569523Y-109824775D02*
X104569523Y-109920013D01*
X104569523Y-109920013D02*
X104521904Y-110062870D01*
X104521904Y-110062870D02*
X103950476Y-110634299D01*
X103950476Y-110634299D02*
X104569523Y-110634299D01*
X105426666Y-109634299D02*
X105236190Y-109634299D01*
X105236190Y-109634299D02*
X105140952Y-109681918D01*
X105140952Y-109681918D02*
X105093333Y-109729537D01*
X105093333Y-109729537D02*
X104998095Y-109872394D01*
X104998095Y-109872394D02*
X104950476Y-110062870D01*
X104950476Y-110062870D02*
X104950476Y-110443822D01*
X104950476Y-110443822D02*
X104998095Y-110539060D01*
X104998095Y-110539060D02*
X105045714Y-110586680D01*
X105045714Y-110586680D02*
X105140952Y-110634299D01*
X105140952Y-110634299D02*
X105331428Y-110634299D01*
X105331428Y-110634299D02*
X105426666Y-110586680D01*
X105426666Y-110586680D02*
X105474285Y-110539060D01*
X105474285Y-110539060D02*
X105521904Y-110443822D01*
X105521904Y-110443822D02*
X105521904Y-110205727D01*
X105521904Y-110205727D02*
X105474285Y-110110489D01*
X105474285Y-110110489D02*
X105426666Y-110062870D01*
X105426666Y-110062870D02*
X105331428Y-110015251D01*
X105331428Y-110015251D02*
X105140952Y-110015251D01*
X105140952Y-110015251D02*
X105045714Y-110062870D01*
X105045714Y-110062870D02*
X104998095Y-110110489D01*
X104998095Y-110110489D02*
X104950476Y-110205727D01*
X103084692Y-103048655D02*
X103132312Y-103096274D01*
X103132312Y-103096274D02*
X103179931Y-103239131D01*
X103179931Y-103239131D02*
X103179931Y-103334369D01*
X103179931Y-103334369D02*
X103132312Y-103477226D01*
X103132312Y-103477226D02*
X103037073Y-103572464D01*
X103037073Y-103572464D02*
X102941835Y-103620083D01*
X102941835Y-103620083D02*
X102751359Y-103667702D01*
X102751359Y-103667702D02*
X102608502Y-103667702D01*
X102608502Y-103667702D02*
X102418026Y-103620083D01*
X102418026Y-103620083D02*
X102322788Y-103572464D01*
X102322788Y-103572464D02*
X102227550Y-103477226D01*
X102227550Y-103477226D02*
X102179931Y-103334369D01*
X102179931Y-103334369D02*
X102179931Y-103239131D01*
X102179931Y-103239131D02*
X102227550Y-103096274D01*
X102227550Y-103096274D02*
X102275169Y-103048655D01*
X103179931Y-102096274D02*
X103179931Y-102667702D01*
X103179931Y-102381988D02*
X102179931Y-102381988D01*
X102179931Y-102381988D02*
X102322788Y-102477226D01*
X102322788Y-102477226D02*
X102418026Y-102572464D01*
X102418026Y-102572464D02*
X102465645Y-102667702D01*
X103179931Y-101620083D02*
X103179931Y-101429607D01*
X103179931Y-101429607D02*
X103132312Y-101334369D01*
X103132312Y-101334369D02*
X103084692Y-101286750D01*
X103084692Y-101286750D02*
X102941835Y-101191512D01*
X102941835Y-101191512D02*
X102751359Y-101143893D01*
X102751359Y-101143893D02*
X102370407Y-101143893D01*
X102370407Y-101143893D02*
X102275169Y-101191512D01*
X102275169Y-101191512D02*
X102227550Y-101239131D01*
X102227550Y-101239131D02*
X102179931Y-101334369D01*
X102179931Y-101334369D02*
X102179931Y-101524845D01*
X102179931Y-101524845D02*
X102227550Y-101620083D01*
X102227550Y-101620083D02*
X102275169Y-101667702D01*
X102275169Y-101667702D02*
X102370407Y-101715321D01*
X102370407Y-101715321D02*
X102608502Y-101715321D01*
X102608502Y-101715321D02*
X102703740Y-101667702D01*
X102703740Y-101667702D02*
X102751359Y-101620083D01*
X102751359Y-101620083D02*
X102798978Y-101524845D01*
X102798978Y-101524845D02*
X102798978Y-101334369D01*
X102798978Y-101334369D02*
X102751359Y-101239131D01*
X102751359Y-101239131D02*
X102703740Y-101191512D01*
X102703740Y-101191512D02*
X102608502Y-101143893D01*
X93377142Y-135954299D02*
X93043809Y-135478108D01*
X92805714Y-135954299D02*
X92805714Y-134954299D01*
X92805714Y-134954299D02*
X93186666Y-134954299D01*
X93186666Y-134954299D02*
X93281904Y-135001918D01*
X93281904Y-135001918D02*
X93329523Y-135049537D01*
X93329523Y-135049537D02*
X93377142Y-135144775D01*
X93377142Y-135144775D02*
X93377142Y-135287632D01*
X93377142Y-135287632D02*
X93329523Y-135382870D01*
X93329523Y-135382870D02*
X93281904Y-135430489D01*
X93281904Y-135430489D02*
X93186666Y-135478108D01*
X93186666Y-135478108D02*
X92805714Y-135478108D01*
X94329523Y-135954299D02*
X93758095Y-135954299D01*
X94043809Y-135954299D02*
X94043809Y-134954299D01*
X94043809Y-134954299D02*
X93948571Y-135097156D01*
X93948571Y-135097156D02*
X93853333Y-135192394D01*
X93853333Y-135192394D02*
X93758095Y-135240013D01*
X95234285Y-134954299D02*
X94758095Y-134954299D01*
X94758095Y-134954299D02*
X94710476Y-135430489D01*
X94710476Y-135430489D02*
X94758095Y-135382870D01*
X94758095Y-135382870D02*
X94853333Y-135335251D01*
X94853333Y-135335251D02*
X95091428Y-135335251D01*
X95091428Y-135335251D02*
X95186666Y-135382870D01*
X95186666Y-135382870D02*
X95234285Y-135430489D01*
X95234285Y-135430489D02*
X95281904Y-135525727D01*
X95281904Y-135525727D02*
X95281904Y-135763822D01*
X95281904Y-135763822D02*
X95234285Y-135859060D01*
X95234285Y-135859060D02*
X95186666Y-135906680D01*
X95186666Y-135906680D02*
X95091428Y-135954299D01*
X95091428Y-135954299D02*
X94853333Y-135954299D01*
X94853333Y-135954299D02*
X94758095Y-135906680D01*
X94758095Y-135906680D02*
X94710476Y-135859060D01*
X84713333Y-137589060D02*
X84665714Y-137636680D01*
X84665714Y-137636680D02*
X84522857Y-137684299D01*
X84522857Y-137684299D02*
X84427619Y-137684299D01*
X84427619Y-137684299D02*
X84284762Y-137636680D01*
X84284762Y-137636680D02*
X84189524Y-137541441D01*
X84189524Y-137541441D02*
X84141905Y-137446203D01*
X84141905Y-137446203D02*
X84094286Y-137255727D01*
X84094286Y-137255727D02*
X84094286Y-137112870D01*
X84094286Y-137112870D02*
X84141905Y-136922394D01*
X84141905Y-136922394D02*
X84189524Y-136827156D01*
X84189524Y-136827156D02*
X84284762Y-136731918D01*
X84284762Y-136731918D02*
X84427619Y-136684299D01*
X84427619Y-136684299D02*
X84522857Y-136684299D01*
X84522857Y-136684299D02*
X84665714Y-136731918D01*
X84665714Y-136731918D02*
X84713333Y-136779537D01*
X85570476Y-136684299D02*
X85380000Y-136684299D01*
X85380000Y-136684299D02*
X85284762Y-136731918D01*
X85284762Y-136731918D02*
X85237143Y-136779537D01*
X85237143Y-136779537D02*
X85141905Y-136922394D01*
X85141905Y-136922394D02*
X85094286Y-137112870D01*
X85094286Y-137112870D02*
X85094286Y-137493822D01*
X85094286Y-137493822D02*
X85141905Y-137589060D01*
X85141905Y-137589060D02*
X85189524Y-137636680D01*
X85189524Y-137636680D02*
X85284762Y-137684299D01*
X85284762Y-137684299D02*
X85475238Y-137684299D01*
X85475238Y-137684299D02*
X85570476Y-137636680D01*
X85570476Y-137636680D02*
X85618095Y-137589060D01*
X85618095Y-137589060D02*
X85665714Y-137493822D01*
X85665714Y-137493822D02*
X85665714Y-137255727D01*
X85665714Y-137255727D02*
X85618095Y-137160489D01*
X85618095Y-137160489D02*
X85570476Y-137112870D01*
X85570476Y-137112870D02*
X85475238Y-137065251D01*
X85475238Y-137065251D02*
X85284762Y-137065251D01*
X85284762Y-137065251D02*
X85189524Y-137112870D01*
X85189524Y-137112870D02*
X85141905Y-137160489D01*
X85141905Y-137160489D02*
X85094286Y-137255727D01*
X81577043Y-92706680D02*
X81719900Y-92754299D01*
X81719900Y-92754299D02*
X81957995Y-92754299D01*
X81957995Y-92754299D02*
X82053233Y-92706680D01*
X82053233Y-92706680D02*
X82100852Y-92659060D01*
X82100852Y-92659060D02*
X82148471Y-92563822D01*
X82148471Y-92563822D02*
X82148471Y-92468584D01*
X82148471Y-92468584D02*
X82100852Y-92373346D01*
X82100852Y-92373346D02*
X82053233Y-92325727D01*
X82053233Y-92325727D02*
X81957995Y-92278108D01*
X81957995Y-92278108D02*
X81767519Y-92230489D01*
X81767519Y-92230489D02*
X81672281Y-92182870D01*
X81672281Y-92182870D02*
X81624662Y-92135251D01*
X81624662Y-92135251D02*
X81577043Y-92040013D01*
X81577043Y-92040013D02*
X81577043Y-91944775D01*
X81577043Y-91944775D02*
X81624662Y-91849537D01*
X81624662Y-91849537D02*
X81672281Y-91801918D01*
X81672281Y-91801918D02*
X81767519Y-91754299D01*
X81767519Y-91754299D02*
X82005614Y-91754299D01*
X82005614Y-91754299D02*
X82148471Y-91801918D01*
X82434186Y-91754299D02*
X83005614Y-91754299D01*
X82719900Y-92754299D02*
X82719900Y-91754299D01*
X83767519Y-92087632D02*
X83767519Y-92754299D01*
X83529424Y-91706680D02*
X83291329Y-92420965D01*
X83291329Y-92420965D02*
X83910376Y-92420965D01*
X99644108Y-96403379D02*
X99596489Y-96450999D01*
X99596489Y-96450999D02*
X99453632Y-96498618D01*
X99453632Y-96498618D02*
X99358394Y-96498618D01*
X99358394Y-96498618D02*
X99215537Y-96450999D01*
X99215537Y-96450999D02*
X99120299Y-96355760D01*
X99120299Y-96355760D02*
X99072680Y-96260522D01*
X99072680Y-96260522D02*
X99025061Y-96070046D01*
X99025061Y-96070046D02*
X99025061Y-95927189D01*
X99025061Y-95927189D02*
X99072680Y-95736713D01*
X99072680Y-95736713D02*
X99120299Y-95641475D01*
X99120299Y-95641475D02*
X99215537Y-95546237D01*
X99215537Y-95546237D02*
X99358394Y-95498618D01*
X99358394Y-95498618D02*
X99453632Y-95498618D01*
X99453632Y-95498618D02*
X99596489Y-95546237D01*
X99596489Y-95546237D02*
X99644108Y-95593856D01*
X100596489Y-96498618D02*
X100025061Y-96498618D01*
X100310775Y-96498618D02*
X100310775Y-95498618D01*
X100310775Y-95498618D02*
X100215537Y-95641475D01*
X100215537Y-95641475D02*
X100120299Y-95736713D01*
X100120299Y-95736713D02*
X100025061Y-95784332D01*
X101501251Y-95498618D02*
X101025061Y-95498618D01*
X101025061Y-95498618D02*
X100977442Y-95974808D01*
X100977442Y-95974808D02*
X101025061Y-95927189D01*
X101025061Y-95927189D02*
X101120299Y-95879570D01*
X101120299Y-95879570D02*
X101358394Y-95879570D01*
X101358394Y-95879570D02*
X101453632Y-95927189D01*
X101453632Y-95927189D02*
X101501251Y-95974808D01*
X101501251Y-95974808D02*
X101548870Y-96070046D01*
X101548870Y-96070046D02*
X101548870Y-96308141D01*
X101548870Y-96308141D02*
X101501251Y-96403379D01*
X101501251Y-96403379D02*
X101453632Y-96450999D01*
X101453632Y-96450999D02*
X101358394Y-96498618D01*
X101358394Y-96498618D02*
X101120299Y-96498618D01*
X101120299Y-96498618D02*
X101025061Y-96450999D01*
X101025061Y-96450999D02*
X100977442Y-96403379D01*
X98358121Y-136437744D02*
X98310502Y-136485364D01*
X98310502Y-136485364D02*
X98167645Y-136532983D01*
X98167645Y-136532983D02*
X98072407Y-136532983D01*
X98072407Y-136532983D02*
X97929550Y-136485364D01*
X97929550Y-136485364D02*
X97834312Y-136390125D01*
X97834312Y-136390125D02*
X97786693Y-136294887D01*
X97786693Y-136294887D02*
X97739074Y-136104411D01*
X97739074Y-136104411D02*
X97739074Y-135961554D01*
X97739074Y-135961554D02*
X97786693Y-135771078D01*
X97786693Y-135771078D02*
X97834312Y-135675840D01*
X97834312Y-135675840D02*
X97929550Y-135580602D01*
X97929550Y-135580602D02*
X98072407Y-135532983D01*
X98072407Y-135532983D02*
X98167645Y-135532983D01*
X98167645Y-135532983D02*
X98310502Y-135580602D01*
X98310502Y-135580602D02*
X98358121Y-135628221D01*
X98691455Y-135532983D02*
X99358121Y-135532983D01*
X99358121Y-135532983D02*
X98929550Y-136532983D01*
X104279060Y-140842857D02*
X104326680Y-140890476D01*
X104326680Y-140890476D02*
X104374299Y-141033333D01*
X104374299Y-141033333D02*
X104374299Y-141128571D01*
X104374299Y-141128571D02*
X104326680Y-141271428D01*
X104326680Y-141271428D02*
X104231441Y-141366666D01*
X104231441Y-141366666D02*
X104136203Y-141414285D01*
X104136203Y-141414285D02*
X103945727Y-141461904D01*
X103945727Y-141461904D02*
X103802870Y-141461904D01*
X103802870Y-141461904D02*
X103612394Y-141414285D01*
X103612394Y-141414285D02*
X103517156Y-141366666D01*
X103517156Y-141366666D02*
X103421918Y-141271428D01*
X103421918Y-141271428D02*
X103374299Y-141128571D01*
X103374299Y-141128571D02*
X103374299Y-141033333D01*
X103374299Y-141033333D02*
X103421918Y-140890476D01*
X103421918Y-140890476D02*
X103469537Y-140842857D01*
X104374299Y-139890476D02*
X104374299Y-140461904D01*
X104374299Y-140176190D02*
X103374299Y-140176190D01*
X103374299Y-140176190D02*
X103517156Y-140271428D01*
X103517156Y-140271428D02*
X103612394Y-140366666D01*
X103612394Y-140366666D02*
X103660013Y-140461904D01*
X103469537Y-139509523D02*
X103421918Y-139461904D01*
X103421918Y-139461904D02*
X103374299Y-139366666D01*
X103374299Y-139366666D02*
X103374299Y-139128571D01*
X103374299Y-139128571D02*
X103421918Y-139033333D01*
X103421918Y-139033333D02*
X103469537Y-138985714D01*
X103469537Y-138985714D02*
X103564775Y-138938095D01*
X103564775Y-138938095D02*
X103660013Y-138938095D01*
X103660013Y-138938095D02*
X103802870Y-138985714D01*
X103802870Y-138985714D02*
X104374299Y-139557142D01*
X104374299Y-139557142D02*
X104374299Y-138938095D01*
X94549970Y-96380118D02*
X94502351Y-96427738D01*
X94502351Y-96427738D02*
X94359494Y-96475357D01*
X94359494Y-96475357D02*
X94264256Y-96475357D01*
X94264256Y-96475357D02*
X94121399Y-96427738D01*
X94121399Y-96427738D02*
X94026161Y-96332499D01*
X94026161Y-96332499D02*
X93978542Y-96237261D01*
X93978542Y-96237261D02*
X93930923Y-96046785D01*
X93930923Y-96046785D02*
X93930923Y-95903928D01*
X93930923Y-95903928D02*
X93978542Y-95713452D01*
X93978542Y-95713452D02*
X94026161Y-95618214D01*
X94026161Y-95618214D02*
X94121399Y-95522976D01*
X94121399Y-95522976D02*
X94264256Y-95475357D01*
X94264256Y-95475357D02*
X94359494Y-95475357D01*
X94359494Y-95475357D02*
X94502351Y-95522976D01*
X94502351Y-95522976D02*
X94549970Y-95570595D01*
X95502351Y-96475357D02*
X94930923Y-96475357D01*
X95216637Y-96475357D02*
X95216637Y-95475357D01*
X95216637Y-95475357D02*
X95121399Y-95618214D01*
X95121399Y-95618214D02*
X95026161Y-95713452D01*
X95026161Y-95713452D02*
X94930923Y-95761071D01*
X96359494Y-95808690D02*
X96359494Y-96475357D01*
X96121399Y-95427738D02*
X95883304Y-96142023D01*
X95883304Y-96142023D02*
X96502351Y-96142023D01*
X94017683Y-139990160D02*
X93684350Y-139513969D01*
X93446255Y-139990160D02*
X93446255Y-138990160D01*
X93446255Y-138990160D02*
X93827207Y-138990160D01*
X93827207Y-138990160D02*
X93922445Y-139037779D01*
X93922445Y-139037779D02*
X93970064Y-139085398D01*
X93970064Y-139085398D02*
X94017683Y-139180636D01*
X94017683Y-139180636D02*
X94017683Y-139323493D01*
X94017683Y-139323493D02*
X93970064Y-139418731D01*
X93970064Y-139418731D02*
X93922445Y-139466350D01*
X93922445Y-139466350D02*
X93827207Y-139513969D01*
X93827207Y-139513969D02*
X93446255Y-139513969D01*
X94351017Y-138990160D02*
X94970064Y-138990160D01*
X94970064Y-138990160D02*
X94636731Y-139371112D01*
X94636731Y-139371112D02*
X94779588Y-139371112D01*
X94779588Y-139371112D02*
X94874826Y-139418731D01*
X94874826Y-139418731D02*
X94922445Y-139466350D01*
X94922445Y-139466350D02*
X94970064Y-139561588D01*
X94970064Y-139561588D02*
X94970064Y-139799683D01*
X94970064Y-139799683D02*
X94922445Y-139894921D01*
X94922445Y-139894921D02*
X94874826Y-139942541D01*
X94874826Y-139942541D02*
X94779588Y-139990160D01*
X94779588Y-139990160D02*
X94493874Y-139990160D01*
X94493874Y-139990160D02*
X94398636Y-139942541D01*
X94398636Y-139942541D02*
X94351017Y-139894921D01*
X106977043Y-92706680D02*
X107119900Y-92754299D01*
X107119900Y-92754299D02*
X107357995Y-92754299D01*
X107357995Y-92754299D02*
X107453233Y-92706680D01*
X107453233Y-92706680D02*
X107500852Y-92659060D01*
X107500852Y-92659060D02*
X107548471Y-92563822D01*
X107548471Y-92563822D02*
X107548471Y-92468584D01*
X107548471Y-92468584D02*
X107500852Y-92373346D01*
X107500852Y-92373346D02*
X107453233Y-92325727D01*
X107453233Y-92325727D02*
X107357995Y-92278108D01*
X107357995Y-92278108D02*
X107167519Y-92230489D01*
X107167519Y-92230489D02*
X107072281Y-92182870D01*
X107072281Y-92182870D02*
X107024662Y-92135251D01*
X107024662Y-92135251D02*
X106977043Y-92040013D01*
X106977043Y-92040013D02*
X106977043Y-91944775D01*
X106977043Y-91944775D02*
X107024662Y-91849537D01*
X107024662Y-91849537D02*
X107072281Y-91801918D01*
X107072281Y-91801918D02*
X107167519Y-91754299D01*
X107167519Y-91754299D02*
X107405614Y-91754299D01*
X107405614Y-91754299D02*
X107548471Y-91801918D01*
X107834186Y-91754299D02*
X108405614Y-91754299D01*
X108119900Y-92754299D02*
X108119900Y-91754299D01*
X109215138Y-91754299D02*
X108738948Y-91754299D01*
X108738948Y-91754299D02*
X108691329Y-92230489D01*
X108691329Y-92230489D02*
X108738948Y-92182870D01*
X108738948Y-92182870D02*
X108834186Y-92135251D01*
X108834186Y-92135251D02*
X109072281Y-92135251D01*
X109072281Y-92135251D02*
X109167519Y-92182870D01*
X109167519Y-92182870D02*
X109215138Y-92230489D01*
X109215138Y-92230489D02*
X109262757Y-92325727D01*
X109262757Y-92325727D02*
X109262757Y-92563822D01*
X109262757Y-92563822D02*
X109215138Y-92659060D01*
X109215138Y-92659060D02*
X109167519Y-92706680D01*
X109167519Y-92706680D02*
X109072281Y-92754299D01*
X109072281Y-92754299D02*
X108834186Y-92754299D01*
X108834186Y-92754299D02*
X108738948Y-92706680D01*
X108738948Y-92706680D02*
X108691329Y-92659060D01*
X79603333Y-142589060D02*
X79555714Y-142636680D01*
X79555714Y-142636680D02*
X79412857Y-142684299D01*
X79412857Y-142684299D02*
X79317619Y-142684299D01*
X79317619Y-142684299D02*
X79174762Y-142636680D01*
X79174762Y-142636680D02*
X79079524Y-142541441D01*
X79079524Y-142541441D02*
X79031905Y-142446203D01*
X79031905Y-142446203D02*
X78984286Y-142255727D01*
X78984286Y-142255727D02*
X78984286Y-142112870D01*
X78984286Y-142112870D02*
X79031905Y-141922394D01*
X79031905Y-141922394D02*
X79079524Y-141827156D01*
X79079524Y-141827156D02*
X79174762Y-141731918D01*
X79174762Y-141731918D02*
X79317619Y-141684299D01*
X79317619Y-141684299D02*
X79412857Y-141684299D01*
X79412857Y-141684299D02*
X79555714Y-141731918D01*
X79555714Y-141731918D02*
X79603333Y-141779537D01*
X79984286Y-141779537D02*
X80031905Y-141731918D01*
X80031905Y-141731918D02*
X80127143Y-141684299D01*
X80127143Y-141684299D02*
X80365238Y-141684299D01*
X80365238Y-141684299D02*
X80460476Y-141731918D01*
X80460476Y-141731918D02*
X80508095Y-141779537D01*
X80508095Y-141779537D02*
X80555714Y-141874775D01*
X80555714Y-141874775D02*
X80555714Y-141970013D01*
X80555714Y-141970013D02*
X80508095Y-142112870D01*
X80508095Y-142112870D02*
X79936667Y-142684299D01*
X79936667Y-142684299D02*
X80555714Y-142684299D01*
X85413903Y-129587184D02*
X84937712Y-129920517D01*
X85413903Y-130158612D02*
X84413903Y-130158612D01*
X84413903Y-130158612D02*
X84413903Y-129777660D01*
X84413903Y-129777660D02*
X84461522Y-129682422D01*
X84461522Y-129682422D02*
X84509141Y-129634803D01*
X84509141Y-129634803D02*
X84604379Y-129587184D01*
X84604379Y-129587184D02*
X84747236Y-129587184D01*
X84747236Y-129587184D02*
X84842474Y-129634803D01*
X84842474Y-129634803D02*
X84890093Y-129682422D01*
X84890093Y-129682422D02*
X84937712Y-129777660D01*
X84937712Y-129777660D02*
X84937712Y-130158612D01*
X85413903Y-128634803D02*
X85413903Y-129206231D01*
X85413903Y-128920517D02*
X84413903Y-128920517D01*
X84413903Y-128920517D02*
X84556760Y-129015755D01*
X84556760Y-129015755D02*
X84651998Y-129110993D01*
X84651998Y-129110993D02*
X84699617Y-129206231D01*
X84413903Y-128301469D02*
X84413903Y-127682422D01*
X84413903Y-127682422D02*
X84794855Y-128015755D01*
X84794855Y-128015755D02*
X84794855Y-127872898D01*
X84794855Y-127872898D02*
X84842474Y-127777660D01*
X84842474Y-127777660D02*
X84890093Y-127730041D01*
X84890093Y-127730041D02*
X84985331Y-127682422D01*
X84985331Y-127682422D02*
X85223426Y-127682422D01*
X85223426Y-127682422D02*
X85318664Y-127730041D01*
X85318664Y-127730041D02*
X85366284Y-127777660D01*
X85366284Y-127777660D02*
X85413903Y-127872898D01*
X85413903Y-127872898D02*
X85413903Y-128158612D01*
X85413903Y-128158612D02*
X85366284Y-128253850D01*
X85366284Y-128253850D02*
X85318664Y-128301469D01*
X96592544Y-146155875D02*
X96259211Y-145679684D01*
X96021116Y-146155875D02*
X96021116Y-145155875D01*
X96021116Y-145155875D02*
X96402068Y-145155875D01*
X96402068Y-145155875D02*
X96497306Y-145203494D01*
X96497306Y-145203494D02*
X96544925Y-145251113D01*
X96544925Y-145251113D02*
X96592544Y-145346351D01*
X96592544Y-145346351D02*
X96592544Y-145489208D01*
X96592544Y-145489208D02*
X96544925Y-145584446D01*
X96544925Y-145584446D02*
X96497306Y-145632065D01*
X96497306Y-145632065D02*
X96402068Y-145679684D01*
X96402068Y-145679684D02*
X96021116Y-145679684D01*
X97449687Y-145155875D02*
X97259211Y-145155875D01*
X97259211Y-145155875D02*
X97163973Y-145203494D01*
X97163973Y-145203494D02*
X97116354Y-145251113D01*
X97116354Y-145251113D02*
X97021116Y-145393970D01*
X97021116Y-145393970D02*
X96973497Y-145584446D01*
X96973497Y-145584446D02*
X96973497Y-145965398D01*
X96973497Y-145965398D02*
X97021116Y-146060636D01*
X97021116Y-146060636D02*
X97068735Y-146108256D01*
X97068735Y-146108256D02*
X97163973Y-146155875D01*
X97163973Y-146155875D02*
X97354449Y-146155875D01*
X97354449Y-146155875D02*
X97449687Y-146108256D01*
X97449687Y-146108256D02*
X97497306Y-146060636D01*
X97497306Y-146060636D02*
X97544925Y-145965398D01*
X97544925Y-145965398D02*
X97544925Y-145727303D01*
X97544925Y-145727303D02*
X97497306Y-145632065D01*
X97497306Y-145632065D02*
X97449687Y-145584446D01*
X97449687Y-145584446D02*
X97354449Y-145536827D01*
X97354449Y-145536827D02*
X97163973Y-145536827D01*
X97163973Y-145536827D02*
X97068735Y-145584446D01*
X97068735Y-145584446D02*
X97021116Y-145632065D01*
X97021116Y-145632065D02*
X96973497Y-145727303D01*
X98627826Y-146169714D02*
X98294493Y-145693523D01*
X98056398Y-146169714D02*
X98056398Y-145169714D01*
X98056398Y-145169714D02*
X98437350Y-145169714D01*
X98437350Y-145169714D02*
X98532588Y-145217333D01*
X98532588Y-145217333D02*
X98580207Y-145264952D01*
X98580207Y-145264952D02*
X98627826Y-145360190D01*
X98627826Y-145360190D02*
X98627826Y-145503047D01*
X98627826Y-145503047D02*
X98580207Y-145598285D01*
X98580207Y-145598285D02*
X98532588Y-145645904D01*
X98532588Y-145645904D02*
X98437350Y-145693523D01*
X98437350Y-145693523D02*
X98056398Y-145693523D01*
X99199255Y-145598285D02*
X99104017Y-145550666D01*
X99104017Y-145550666D02*
X99056398Y-145503047D01*
X99056398Y-145503047D02*
X99008779Y-145407809D01*
X99008779Y-145407809D02*
X99008779Y-145360190D01*
X99008779Y-145360190D02*
X99056398Y-145264952D01*
X99056398Y-145264952D02*
X99104017Y-145217333D01*
X99104017Y-145217333D02*
X99199255Y-145169714D01*
X99199255Y-145169714D02*
X99389731Y-145169714D01*
X99389731Y-145169714D02*
X99484969Y-145217333D01*
X99484969Y-145217333D02*
X99532588Y-145264952D01*
X99532588Y-145264952D02*
X99580207Y-145360190D01*
X99580207Y-145360190D02*
X99580207Y-145407809D01*
X99580207Y-145407809D02*
X99532588Y-145503047D01*
X99532588Y-145503047D02*
X99484969Y-145550666D01*
X99484969Y-145550666D02*
X99389731Y-145598285D01*
X99389731Y-145598285D02*
X99199255Y-145598285D01*
X99199255Y-145598285D02*
X99104017Y-145645904D01*
X99104017Y-145645904D02*
X99056398Y-145693523D01*
X99056398Y-145693523D02*
X99008779Y-145788761D01*
X99008779Y-145788761D02*
X99008779Y-145979237D01*
X99008779Y-145979237D02*
X99056398Y-146074475D01*
X99056398Y-146074475D02*
X99104017Y-146122095D01*
X99104017Y-146122095D02*
X99199255Y-146169714D01*
X99199255Y-146169714D02*
X99389731Y-146169714D01*
X99389731Y-146169714D02*
X99484969Y-146122095D01*
X99484969Y-146122095D02*
X99532588Y-146074475D01*
X99532588Y-146074475D02*
X99580207Y-145979237D01*
X99580207Y-145979237D02*
X99580207Y-145788761D01*
X99580207Y-145788761D02*
X99532588Y-145693523D01*
X99532588Y-145693523D02*
X99484969Y-145645904D01*
X99484969Y-145645904D02*
X99389731Y-145598285D01*
D14*
%TO.C,IC2*%
X98422100Y-142425600D02*
X100377900Y-142425600D01*
X100377900Y-139174400D02*
X98422100Y-139174400D01*
D15*
%TO.C,IC3*%
X97850000Y-115800000D02*
X92570000Y-115800000D01*
X97850000Y-121080000D02*
X92570000Y-121080000D01*
D13*
X100525000Y-120345000D02*
G75*
G02*
X100325000Y-120345000I-100000J0D01*
G01*
X100325000Y-120345000D02*
G75*
G02*
X100525000Y-120345000I100000J0D01*
G01*
D10*
%TO.C,C32*%
X89685000Y-126545000D02*
X88685000Y-126545000D01*
X89685000Y-127775000D02*
X88685000Y-127775000D01*
D15*
%TO.C,L1*%
X99700000Y-137530000D02*
X99700000Y-136870000D01*
X101700000Y-137530000D02*
X101700000Y-136870000D01*
D16*
%TO.C,R1*%
X84901500Y-138506000D02*
X84901500Y-139224000D01*
X84901500Y-140394000D02*
X84901500Y-139676000D01*
X85898500Y-138506000D02*
X84901500Y-138506000D01*
X85898500Y-139224000D02*
X85898500Y-138506000D01*
X85898500Y-139676000D02*
X85898500Y-140394000D01*
X85898500Y-140394000D02*
X84901500Y-140394000D01*
D15*
%TO.C,C13*%
X95785000Y-142200000D02*
X95785000Y-141200000D01*
X97015000Y-142200000D02*
X97015000Y-141200000D01*
D16*
%TO.C,R9*%
X78816000Y-136781500D02*
X79534000Y-136781500D01*
X78816000Y-137778500D02*
X78816000Y-136781500D01*
X79534000Y-137778500D02*
X78816000Y-137778500D01*
X79986000Y-137778500D02*
X80704000Y-137778500D01*
X80704000Y-136781500D02*
X79986000Y-136781500D01*
X80704000Y-137778500D02*
X80704000Y-136781500D01*
D10*
%TO.C,R12*%
X79899000Y-124881500D02*
X79899000Y-125878500D01*
X79899000Y-125878500D02*
X80617000Y-125878500D01*
X80617000Y-124881500D02*
X79899000Y-124881500D01*
X81069000Y-124881500D02*
X81787000Y-124881500D01*
X81787000Y-124881500D02*
X81787000Y-125878500D01*
X81787000Y-125878500D02*
X81069000Y-125878500D01*
%TO.C,Q1*%
X103011500Y-104166500D02*
X106368500Y-104166500D01*
X103011500Y-108223500D02*
X103011500Y-104166500D01*
X106368500Y-104166500D02*
X106368500Y-108223500D01*
X106368500Y-108223500D02*
X103011500Y-108223500D01*
D17*
X106152195Y-108715000D02*
G75*
G02*
X105887805Y-108715000I-132195J0D01*
G01*
X105887805Y-108715000D02*
G75*
G02*
X106152195Y-108715000I132195J0D01*
G01*
D18*
%TO.C,IC1*%
X86550000Y-138737500D02*
X86550000Y-137937500D01*
X86550000Y-138737500D02*
X86550000Y-139537500D01*
X89670000Y-138737500D02*
X89670000Y-137937500D01*
X89670000Y-138737500D02*
X89670000Y-139537500D01*
X86600000Y-140037500D02*
X86270000Y-140277500D01*
X86270000Y-139797500D01*
X86600000Y-140037500D01*
G36*
X86600000Y-140037500D02*
G01*
X86270000Y-140277500D01*
X86270000Y-139797500D01*
X86600000Y-140037500D01*
G37*
D10*
%TO.C,C27*%
X80350000Y-148525000D02*
X79350000Y-148525000D01*
X80350000Y-149755000D02*
X79350000Y-149755000D01*
D15*
%TO.C,IC4*%
X91850000Y-104435000D02*
X91850000Y-104905000D01*
X91850000Y-104435000D02*
X92320000Y-104435000D01*
X91850000Y-111435000D02*
X91850000Y-110965000D01*
X91850000Y-111435000D02*
X92320000Y-111435000D01*
X98850000Y-104435000D02*
X98380000Y-104435000D01*
X98850000Y-104435000D02*
X98850000Y-104905000D01*
X98850000Y-111435000D02*
X98380000Y-111435000D01*
X98850000Y-111435000D02*
X98850000Y-110965000D01*
D13*
X98050000Y-103480000D02*
G75*
G02*
X97850000Y-103480000I-100000J0D01*
G01*
X97850000Y-103480000D02*
G75*
G02*
X98050000Y-103480000I100000J0D01*
G01*
%TO.C,D1*%
X95537500Y-132610000D02*
G75*
G02*
X95337500Y-132610000I-100000J0D01*
G01*
X95337500Y-132610000D02*
G75*
G02*
X95537500Y-132610000I100000J0D01*
G01*
D19*
%TO.C,IC5*%
X97625000Y-130000000D02*
G75*
G02*
X97375000Y-130000000I-125000J0D01*
G01*
X97375000Y-130000000D02*
G75*
G02*
X97625000Y-130000000I125000J0D01*
G01*
D15*
%TO.C,C1*%
X83620000Y-144300000D02*
X82580000Y-144300000D01*
X83620000Y-146100000D02*
X82580000Y-146100000D01*
D10*
%TO.C,R4*%
X99356000Y-142801500D02*
X99356000Y-143798500D01*
X99356000Y-143798500D02*
X100074000Y-143798500D01*
X100074000Y-142801500D02*
X99356000Y-142801500D01*
X100526000Y-142801500D02*
X101244000Y-142801500D01*
X101244000Y-142801500D02*
X101244000Y-143798500D01*
X101244000Y-143798500D02*
X100526000Y-143798500D01*
D13*
%TO.C,L2*%
X100303170Y-106201830D02*
G75*
G02*
X100103170Y-106201830I-100000J0D01*
G01*
X100103170Y-106201830D02*
G75*
G02*
X100303170Y-106201830I100000J0D01*
G01*
D15*
%TO.C,C3*%
X89480000Y-132510000D02*
X90520000Y-132510000D01*
X89480000Y-134310000D02*
X90520000Y-134310000D01*
D20*
%TO.C,C5*%
X86450000Y-141959500D02*
X86450000Y-141159500D01*
X87560000Y-140850000D02*
X86760000Y-140850000D01*
X87560000Y-142269500D02*
X86760000Y-142269500D01*
X88120500Y-140850500D02*
X88920000Y-140850500D01*
X88120500Y-142270000D02*
X88920000Y-142270000D01*
X89230000Y-141160000D02*
X89230000Y-141960500D01*
X86450000Y-141160000D02*
G75*
G02*
X86760000Y-140850000I309148J852D01*
G01*
X86760000Y-142269500D02*
G75*
G02*
X86450000Y-141959500I0J310000D01*
G01*
X88920000Y-140850500D02*
G75*
G02*
X89229999Y-141160000I-350J-310350D01*
G01*
X89230000Y-141960000D02*
G75*
G02*
X88920000Y-142270000I-310000J0D01*
G01*
D21*
%TO.C,R14*%
X107641000Y-137032500D02*
G75*
G02*
X107768000Y-136905500I126999J1D01*
G01*
X107768000Y-137794500D02*
G75*
G02*
X107641000Y-137667500I0J127000D01*
G01*
X109292000Y-136905500D02*
G75*
G02*
X109419000Y-137032500I1J-126999D01*
G01*
X109419000Y-137667500D02*
G75*
G02*
X109292000Y-137794500I-127000J0D01*
G01*
D14*
%TO.C,SW1*%
X110517784Y-136068711D02*
X110517784Y-137865431D01*
X110517784Y-139418171D02*
X111171143Y-139418171D01*
X111171143Y-134515971D02*
X110517784Y-134515971D01*
X112928823Y-139418171D02*
X114276984Y-139418171D01*
X114276984Y-134515971D02*
X112928823Y-134515971D01*
X114276984Y-139418171D02*
X114276984Y-134515971D01*
D22*
X110770717Y-140434171D02*
G75*
G02*
X110993343Y-139743981I0J381000D01*
G01*
X111112994Y-140220526D02*
G75*
G02*
X110770717Y-140434171I-342277J167355D01*
G01*
D20*
%TO.C,C6*%
X83610000Y-136000000D02*
X83610000Y-135199500D01*
X84719500Y-134890000D02*
X83920000Y-134890000D01*
X84719500Y-136309500D02*
X83920000Y-136309500D01*
X85280000Y-134890500D02*
X86080000Y-134890500D01*
X85280000Y-136310000D02*
X86080000Y-136310000D01*
X86390000Y-135200500D02*
X86390000Y-136000500D01*
X83610000Y-135200000D02*
G75*
G02*
X83920000Y-134890000I310000J0D01*
G01*
X83920000Y-136309500D02*
G75*
G02*
X83610001Y-136000000I350J310350D01*
G01*
X86080000Y-134890500D02*
G75*
G02*
X86390000Y-135200500I0J-310000D01*
G01*
X86390000Y-136000000D02*
G75*
G02*
X86080000Y-136310000I-309148J-852D01*
G01*
D10*
%TO.C,ST4*%
X81399100Y-93273000D02*
X81399100Y-124007000D01*
D14*
X81399100Y-124007000D02*
X84040700Y-124007000D01*
X84040700Y-93273000D02*
X81399100Y-93273000D01*
X84040700Y-124007000D02*
X84040700Y-93273000D01*
D22*
X81018100Y-122610000D02*
G75*
G02*
X80510100Y-122610000I-254000J0D01*
G01*
X80510100Y-122610000D02*
G75*
G02*
X81018100Y-122610000I254000J0D01*
G01*
D15*
%TO.C,C7*%
X97885000Y-138100000D02*
X97885000Y-137100000D01*
X99115000Y-138100000D02*
X99115000Y-137100000D01*
D20*
%TO.C,C12*%
X101590000Y-140780000D02*
X101590000Y-141580000D01*
X101590500Y-140219500D02*
X101590500Y-139420000D01*
X101900000Y-139110000D02*
X102700500Y-139110000D01*
X102699500Y-141890000D02*
X101899500Y-141890000D01*
X103009500Y-140780000D02*
X103009500Y-141580000D01*
X103010000Y-140219500D02*
X103010000Y-139420000D01*
X101590500Y-139420000D02*
G75*
G02*
X101900000Y-139110001I310350J-350D01*
G01*
X101900000Y-141890000D02*
G75*
G02*
X101590000Y-141580000I-852J309148D01*
G01*
X102700000Y-139110000D02*
G75*
G02*
X103010000Y-139420000I0J-310000D01*
G01*
X103009500Y-141580000D02*
G75*
G02*
X102699500Y-141890000I-310000J0D01*
G01*
D14*
%TO.C,ST5*%
X106799100Y-93273000D02*
X106799100Y-124007000D01*
X106799100Y-124007000D02*
X109440700Y-124007000D01*
X109440700Y-93273000D02*
X106799100Y-93273000D01*
D10*
X109440700Y-124007000D02*
X109440700Y-93273000D01*
D22*
X106418100Y-122610000D02*
G75*
G02*
X105910100Y-122610000I-254000J0D01*
G01*
X105910100Y-122610000D02*
G75*
G02*
X106418100Y-122610000I254000J0D01*
G01*
%TD*%
M02*
